<svg width="166" height="167" viewBox="0 0 166 167" fill="none" xmlns="http://www.w3.org/2000/svg">
<circle cx="83.0002" cy="80" r="64" transform="rotate(-90 83.0002 80)" fill="#1F1F27" fill-opacity="0.1"/>
<g filter="url(#filter0_d)">
<path d="M42.4454 43.0396C43.0517 41.3681 44.3682 40.0516 46.0398 39.4452L56.2393 35.7454C56.9014 35.5053 57.516 35.1504 58.055 34.6971L66.3589 27.714C67.7198 26.5696 69.5181 26.0877 71.2689 26.3984L81.9519 28.294C82.6453 28.417 83.355 28.417 84.0484 28.294L94.7314 26.3984C96.4822 26.0877 98.2805 26.5696 99.6414 27.714L107.945 34.6971C108.484 35.1504 109.099 35.5053 109.761 35.7454L119.961 39.4453C121.632 40.0516 122.949 41.3681 123.555 43.0396L127.255 53.2392C127.495 53.9012 127.85 54.5158 128.303 55.0548L135.286 63.3588C136.431 64.7196 136.912 66.518 136.602 68.2687L134.706 78.9517C134.583 79.6452 134.583 80.3548 134.706 81.0483L136.602 91.7313C136.912 93.482 136.431 95.2804 135.286 96.6412L128.303 104.945C127.85 105.484 127.495 106.099 127.255 106.761L123.555 116.96C122.949 118.632 121.632 119.948 119.961 120.555L109.761 124.255C109.099 124.495 108.484 124.85 107.945 125.303L99.6414 132.286C98.2805 133.43 96.4822 133.912 94.7314 133.602L84.0484 131.706C83.355 131.583 82.6453 131.583 81.9519 131.706L71.2689 133.602C69.5181 133.912 67.7198 133.43 66.3589 132.286L58.055 125.303C57.516 124.85 56.9014 124.495 56.2393 124.255L46.0398 120.555C44.3682 119.948 43.0517 118.632 42.4454 116.96L38.7456 106.761C38.5054 106.099 38.1506 105.484 37.6973 104.945L30.7141 96.6412C29.5697 95.2804 29.0879 93.482 29.3985 91.7313L31.2941 81.0483C31.4172 80.3548 31.4172 79.6452 31.2941 78.9517L29.3985 68.2687C29.0879 66.518 29.5697 64.7196 30.7141 63.3588L37.6973 55.0548C38.1506 54.5158 38.5054 53.9012 38.7456 53.2392L42.4454 43.0396Z" fill="white"/>
</g>
<rect x="53.3016" y="112.527" width="6" height="32" rx="3" transform="rotate(-135 53.3016 112.527)" fill="#8212F2"/>
<defs>
<filter id="filter0_d" x="0.686157" y="1.68591" width="164.628" height="164.628" filterUnits="userSpaceOnUse" color-interpolation-filters="sRGB">
<feFlood flood-opacity="0" result="BackgroundImageFix"/>
<feColorMatrix in="SourceAlpha" type="matrix" values="0 0 0 0 0 0 0 0 0 0 0 0 0 0 0 0 0 0 127 0" result="hardAlpha"/>
<feOffset dy="4"/>
<feGaussianBlur stdDeviation="2"/>
<feComposite in2="hardAlpha" operator="out"/>
<feColorMatrix type="matrix" values="0 0 0 0 0 0 0 0 0 0 0 0 0 0 0 0 0 0 0.25 0"/>
<feBlend mode="normal" in2="BackgroundImageFix" result="effect1_dropShadow"/>
<feBlend mode="normal" in="SourceGraphic" in2="effect1_dropShadow" result="shape"/>
</filter>
</defs>
</svg>

