<svg width="44" height="44" viewBox="0 0 44 44" fill="none" xmlns="http://www.w3.org/2000/svg">
<rect width="44" height="44" rx="6" fill="#C1C7E2"/>
<path d="M24.1667 9H22.5417V12.3497C23.1711 12.5739 23.625 13.1698 23.625 13.875V17.125C23.625 18.0209 22.8959 18.75 22 18.75C21.1041 18.75 20.375 18.0209 20.375 17.125V13.875C20.375 13.1698 20.8289 12.5739 21.4583 12.3497V9H19.8333C15.9507 9 12.7917 12.159 12.7917 16.0417V25.7917C12.7917 30.8692 16.9224 35 22 35C27.0776 35 31.2083 30.8692 31.2083 25.7917V16.0417C31.2083 12.159 28.0493 9 24.1667 9Z" fill="url(#paint0_linear)"/>
<defs>
<linearGradient id="paint0_linear" x1="22" y1="9" x2="22" y2="35" gradientUnits="userSpaceOnUse">
<stop stop-color="#6E6E7E"/>
<stop offset="1" stop-color="#666270"/>
</linearGradient>
</defs>
</svg>

