<?xml version="1.0" encoding="UTF-8" standalone="no"?>
<svg
   width="179"
   height="12.673841"
   viewBox="0 0 179 12.673841"
   fill="none"
   version="1.1"
   id="svg4"
   sodipodi:docname="logo.svg"
   inkscape:version="1.1 (c68e22c387, 2021-05-23)"
   xmlns:inkscape="http://www.inkscape.org/namespaces/inkscape"
   xmlns:sodipodi="http://sodipodi.sourceforge.net/DTD/sodipodi-0.dtd"
   xmlns="http://www.w3.org/2000/svg"
   xmlns:svg="http://www.w3.org/2000/svg">
  <defs
     id="defs8" />
  <sodipodi:namedview
     id="namedview6"
     pagecolor="#ffffff"
     bordercolor="#666666"
     borderopacity="1.0"
     inkscape:pageshadow="2"
     inkscape:pageopacity="0.0"
     inkscape:pagecheckerboard="0"
     showgrid="false"
     fit-margin-top="0"
     fit-margin-left="0"
     fit-margin-right="0"
     fit-margin-bottom="0"
     inkscape:zoom="4.1638796"
     inkscape:cx="74.68996"
     inkscape:cy="6.2441767"
     inkscape:window-width="1920"
     inkscape:window-height="1007"
     inkscape:window-x="0"
     inkscape:window-y="0"
     inkscape:window-maximized="1"
     inkscape:current-layer="svg4" />
  <path
     d="m 29.935552,4.7895224 c 0.0324,-0.1618 0.0539,-0.291235 0.0647,-0.38832 0.0108,-0.107875 -0.027,-0.22114 -0.11326,-0.3398 0.0431,-0.172595 0.0755,-0.307435 0.0971,-0.40452 0.0324,-0.09708 0.0378,-0.23193 0.0162,-0.404525 0.0971,-0.280465 0.24272,-0.5177854 0.43689,-0.7119604 0.20495,-0.19417 0.42609,-0.355975 0.66341,-0.485425 0.23732,-0.140235 0.48542,-0.2535 0.74432,-0.3398 0.2589,-0.097085 0.50161,-0.17799 0.72814,-0.24271 0,-0.04315 -0.0216,-0.064725 -0.0647,-0.064725 -0.0431,0 -0.0539,-0.02697 -0.0324,-0.080905 0.58252,-0.10787 1.16503,-0.264285 1.74754,-0.469245 0.59331,-0.20496 1.19736,-0.38834 1.81226,-0.55015 0.61485,-0.16181 1.2459,-0.258894 1.89315,-0.291256 0.64725,-0.043149 1.32685,0.037756 2.0388,0.242711 0.0431,0.12945 0.1025,0.253505 0.178,0.372165 0.0755,0.11866 0.151,0.237315 0.2265,0.355975 0.0863,0.107875 0.16185,0.215745 0.22655,0.32362 0.0648,0.107875 0.1025,0.22114 0.11325,0.3398 0.12945,0.11866 0.23195,0.248105 0.30745,0.38834 0.0863,0.129445 0.1025,0.307435 0.0486,0.53397 -0.11865,0.086295 -0.2427,0.172595 -0.37215,0.258895 -0.12945,0.086295 -0.2643,0.1672004 -0.40455,0.2427104 -0.4854,-0.11866 -0.97085,-0.161805 -1.45625,-0.129445 -0.48545,0.03236 -0.9223,0.07011 -1.31065,0.113265 -0.11865,-0.129445 -0.2589,-0.188775 -0.4207,-0.17799 -0.1618,0 -0.3344,0.02697 -0.5178,0.08091 -0.1726,0.04315 -0.3452,0.09169 -0.5178,0.14563 -0.1726,0.04315 -0.3344,0.05394 -0.4854,0.03236 -0.1187,0.107875 -0.2751,0.183385 -0.46925,0.22653 -0.1942,0.03236 -0.39914,0.05933 -0.61489,0.0809 -0.0108,0.05394 0,0.09169 0.0324,0.11327 0.0324,0.02158 0.0378,0.06472 0.0162,0.129445 0.0755,0.09708 0.17799,0.167205 0.30745,0.21035 0.12945,0.03236 0.2589,0.06472 0.38835,0.09708 0.1402,0.03237 0.26425,0.0809 0.37215,0.14563 0.10785,0.05394 0.178,0.14563 0.21035,0.275075 0.19415,0.01079 0.36135,0.06472 0.5016,0.16181 0.14025,0.08628 0.2589,0.19418 0.356,0.32363 0.097,0.12945 0.1672,0.26965 0.21035,0.4207 0.0431,0.1402 0.0593,0.26965 0.0485,0.38835 0.0431,0.10785 0.0863,0.151 0.1294,0.12945 0.054,-0.0216 0.1133,0.0053 0.178,0.0809 0.0431,0.1618 0.14025,0.3344 0.29125,0.51775 0.16185,0.1726 0.2859,0.3614 0.3722,0.56635 0.0215,0.3236 0.0377,0.6149 0.0485,0.87375 0.0216,0.2589 -0.0215,0.5124 -0.12945,0.7605 -0.18335,0.47465 -0.44765,0.90075 -0.79285,1.2783 -0.3452,0.3775496 -0.7389,0.7119496 -1.1812,1.0032496 -0.4315,0.28045 -0.88995,0.52855 -1.37537,0.7443 -0.48543,0.20495 -0.96546,0.37755 -1.4401,0.5178 -0.0431,-0.0108 -0.0971,-0.0108 -0.16181,0 -0.0539,0.01075 -0.0647,-0.0216 -0.0324,-0.0971 -0.0971,0.0863 -0.21035,0.14025 -0.3398,0.1618 -0.11865,0.0216 -0.2535,0.027 -0.40452,0.0162 -0.14023,0 -0.28586,-0.0054 -0.43688,-0.0162 -0.14024,-0.0108 -0.28047,-0.0054 -0.4207,0.0162 -0.0863,-0.0863 -0.16721,-0.1726 -0.24272,-0.2589 -0.0647,-0.0863 -0.11866,-0.1888 -0.16181,-0.30745 -0.0539,-0.0108 -0.0809,-0.04315 -0.0809,-0.0971 0.0108,-0.0647 -0.0108,-0.09705 -0.0647,-0.09705 0,-0.04315 0.005,-0.0755 0.0162,-0.0971 0.0108,-0.02155 0.0216,-0.04315 0.0324,-0.0647 0.0431,-0.0324 0.0593,-0.05395 0.0485,-0.06475 0,-0.02155 -0.0162,-0.03775 -0.0485,-0.04855 -0.0216,-0.02155 -0.0485,-0.04315 -0.0809,-0.0647 -0.0216,-0.0216 -0.027,-0.04855 -0.0162,-0.0809 0.0539,-0.0971 0.0701,-0.21035 0.0486,-0.3398 -0.0108,-0.14025 -0.0216,-0.2805 -0.0324,-0.4207 -0.0108,-0.14025 0,-0.2697 0.0324,-0.3883496 0.0324,-0.12945 0.12405,-0.23735 0.27508,-0.32365 0.44227,0.04315 0.85758,0.0216 1.24592,-0.0647 0.39913,-0.0863 0.77129,-0.20495 1.11649,-0.356 0.35597,-0.151 0.69038,-0.3128 1.00321,-0.4854 0.32362,-0.1834 0.63645,-0.3506 0.9385,-0.5016 0.0323,-0.1079 0.0809,-0.1996 0.1456,-0.2751 0.0756,-0.0755 0.15105,-0.1456 0.22655,-0.21035 0.0755,-0.0755 0.14565,-0.151 0.21035,-0.2265 0.0648,-0.0863 0.11325,-0.1888 0.14565,-0.30745 0.0107,-0.04315 0.0107,-0.0755 0,-0.0971 -0.0108,-0.02155 -0.027,-0.03775 -0.0486,-0.04855 -0.0216,-0.02155 -0.0431,-0.04315 -0.0648,-0.0647 -0.0215,-0.0216 -0.0324,-0.05395 -0.0324,-0.0971 -0.0324,-0.0108 -0.0647,-0.02155 -0.0971,-0.03235 -0.0216,-0.0108 -0.0432,-0.0162 -0.0647,-0.0162 -0.28045,-0.1402 -0.5771,-0.2589 -0.88995,-0.35595 -0.31283,-0.0971 -0.57712,-0.205 -0.79287,-0.32365 -0.12944,0.0863 -0.25889,0.1079 -0.38834,0.06475 -0.12945,-0.04315 -0.28586,-0.0863 -0.46924,-0.12945 -0.45307,-0.0216 -0.88456,-0.06475 -1.29448,-0.12945 -0.39912,-0.06475 -0.78747,-0.178 -1.16502,-0.3398 -0.0216,-0.06475 -0.0486,-0.11865 -0.0809,-0.1618 -0.0324,-0.05395 -0.10787,-0.07015 -0.22653,-0.04855 -0.0755,-0.1079 -0.15642,-0.20495 -0.24272,-0.29125 -0.0755,-0.0971 -0.14562,-0.20495 -0.21035,-0.32365 z m 19.04035,-0.485405 c -0.26965,0 -0.5609,0.02158 -0.87375,0.06472 -0.3128,0.03237 -0.62025,0.07012 -0.9223,0.11327 -0.21575,0.03236 -0.4261,0.05933 -0.63105,0.0809 -0.1942,0.02158 -0.37215,0.03776 -0.534,0.04856 -0.0755,0.2373 -0.151,0.44765 -0.2265,0.63105 -0.0755,0.18335 -0.15645,0.36135 -0.2427,0.53395 -0.0863,0.1834 -0.16725,0.37215 -0.24275,0.56635 -0.0647,0.18335 -0.12945,0.38295 -0.19415,0.5987 -0.1079,0.17255 -0.19955,0.3344 -0.2751,0.4854 -0.0647,0.14025 -0.11865,0.30205 -0.1618,0.48545 -0.12945,0.1618 -0.2265,0.3344 -0.29125,0.51775 -0.0647,0.1726 -0.11325,0.32365 -0.14565,0.4531 l -0.0647,0.19415 c -0.0647,0.06475 -0.1025,0.11865 -0.11325,0.1618 -0.0108,0.0324 -0.0377,0.06475 -0.0809,0.0971 -0.0108,0.11865 -0.0486,0.2373 -0.1133,0.356 -0.0215,0.0539 -0.0377,0.10785 -0.0486,0.1618 -0.0108,0.04315 -0.0161,0.0755 -0.0161,0.09705 0,0.1078996 -0.027,0.1779996 -0.0809,0.2103496 0.0108,0.05395 0.0108,0.1133 0,0.178 -0.0108,0.05395 -0.0216,0.1079 -0.0324,0.1618 -0.0324,0.12945 -0.0431,0.23195 -0.0324,0.30745 0.0324,0.04315 0.0594,0.0809 0.0809,0.1133 0.0324,0.03235 0.0539,0.0755 0.0648,0.1294 0.0647,0.04315 0.11325,0.07015 0.1456,0.08095 0.0431,0.03235 0.1079,0.0701 0.1942,0.11325 l 0.1456,0.1618 c 0.0539,0.31285 0.005,0.56095 -0.1456,0.7443 -0.1618,0.205 -0.4369,0.30745 -0.82525,0.30745 h -0.19415 c -0.054,-0.05395 -0.0863,-0.09705 -0.0971,-0.12945 -0.0863,-0.03235 -0.1564,-0.0593 -0.21035,-0.0809 -0.0539,-0.02155 -0.10245,-0.0647 -0.1456,-0.12945 -0.14025,-0.0647 -0.2535,-0.11865 -0.3398,-0.1618 l -0.14565,-0.0809 c 0,-0.11865 0,-0.1834 0,-0.19415 -0.0755,-0.0971 -0.13485,-0.205 -0.178,-0.32365 -0.0324,-0.11865 -0.0593,-0.2373 -0.0809,-0.35595 -0.0215,-0.0971 -0.0486,-0.1888 -0.0809,-0.2751 -0.0216,-0.0863 -0.054,-0.1618 -0.0971,-0.22655 -0.0215,-0.6256496 0.0377,-1.1541996 0.178,-1.5856996 0.14025,-0.4315 0.28585,-0.8468 0.4369,-1.24595 0.0863,-0.21575 0.1726,-0.43145 0.2589,-0.6472 0.0863,-0.22655 0.1618,-0.4585 0.2265,-0.6958 l 0.14565,-0.1618 c 0.0755,-0.1726 0.13485,-0.31285 0.178,-0.4207 0.0539,-0.11865 0.10785,-0.23735 0.1618,-0.356 0.0324,-0.0755 0.0593,-0.1456 0.0809,-0.21035 0.0324,-0.0755 0.0593,-0.1402 0.0809,-0.19415 -0.0647,0 -0.12405,0.0054 -0.178,0.01615 -0.0539,0 -0.10785,0.0054 -0.1618,0.0162 -0.0647,0.0108 -0.12405,0.0216 -0.178,0.03235 -0.0539,0 -0.10785,0 -0.1618,0 -0.0755,0 -0.12945,-0.0054 -0.1618,-0.01615 -0.11865,0.0539 -0.2481,0.0809 -0.38835,0.0809 h -0.1618 c -0.0323,0 -0.0648,0 -0.0971,0 -0.0216,-0.0108 -0.0431,-0.0162 -0.0647,-0.0162 -0.1079,0 -0.1942,0.0162 -0.2589,0.04855 -0.12945,0 -0.2535,0 -0.37215,0 h -0.16185 c -0.0215,0 -0.0485,0.0054 -0.0809,0.0162 -0.0324,0 -0.0593,0 -0.0809,0 -0.0755,0 -0.1564,-0.0054 -0.2427,-0.0162 -0.0863,-0.02155 -0.178,-0.05935 -0.27505,-0.11325 -0.12945,-0.1726 -0.21575,-0.2643 -0.2589,-0.2751 l -0.14565,-0.19416 c -0.0108,-0.06472 -0.0269,-0.124055 -0.0486,-0.17799 -0.0216,-0.06472 -0.0431,-0.13484 -0.0647,-0.210355 -0.0431,-0.10787 -0.0863,-0.221135 -0.12945,-0.339795 -0.0324,-0.12945 -0.0486,-0.28047 -0.0486,-0.453065 0.0108,-0.0863 0.0324,-0.151025 0.0647,-0.19417 0.0324,-0.04315 0.0593,-0.0809 0.081,-0.11327 l 0.0485,-0.2427104 0.21035,0.01618 h 0.4531 c 0.3452,0 0.69575,-0.01079 1.05175,-0.032365 0.35595,-0.03236 0.72275,-0.06472 1.1003,-0.097085 0.21575,-0.02157 0.4315,-0.043145 0.64725,-0.06472 0.2265,-0.021575 0.45845,-0.04315 0.69575,-0.064725 0.0431,-0.097085 0.0863,-0.188775 0.12945,-0.275075 l 0.1618,-0.080905 c 0.1942,-0.010785 0.32905,0.01618 0.40455,0.080905 0.0863,0.053935 0.1564,0.10787 0.21035,0.16181 0.2373,-0.021575 0.47465,-0.04315 0.71195,-0.064725 0.2481,-0.03236 0.4962,-0.070115 0.7443,-0.113265 0.3668,-0.053935 0.73355,-0.10248 1.1003,-0.14563 0.37755,-0.04315 0.73895,-0.064725 1.08415,-0.064725 0.151,0 0.29665,0.0054 0.43685,0.016185 0.14025,0.010785 0.2697,0.026965 0.38835,0.04854 l 0.1618,0.113265 c 0.0324,0.064725 0.0755,0.124055 0.12945,0.17799 0.0648,0.05394 0.12945,0.107875 0.1942,0.16181 0.12945,0.11866 0.2589,0.2588954 0.38835,0.4207054 0.12945,0.16181 0.17795,0.399125 0.1456,0.71196 -0.0863,0.129445 -0.151,0.204955 -0.19415,0.22653 l -0.14565,0.19417 -0.1618,-0.01618 c -0.0647,0 -0.12405,0.01079 -0.178,0.03236 -0.054,0.01079 -0.10785,0.02697 -0.1618,0.04855 -0.0431,0.02157 -0.0863,0.04315 -0.12945,0.06472 -0.0432,0.01079 -0.0917,0.02157 -0.1456,0.03236 -0.0971,0 -0.178,0 -0.24275,0 -0.0539,-0.01079 -0.11325,-0.01618 -0.178,-0.01618 z m 6.96945,6.4238046 c -0.0647,0.1834 -0.1618,0.37215 -0.29125,0.56635 -0.11865,0.18335 -0.2643,0.35055 -0.4369,0.5016 -0.1618,0.14025 -0.3452,0.2589 -0.55015,0.35595 -0.20495,0.0971 -0.4207,0.15105 -0.6472,0.16185 -0.14025,-0.0324 -0.23735,-0.07015 -0.2913,-0.1133 -0.0431,-0.03235 -0.0916,-0.0647 -0.1456,-0.09705 -0.0324,-0.0216 -0.0648,-0.03775 -0.0971,-0.04855 -0.0215,-0.0216 -0.0431,-0.03775 -0.0647,-0.04855 l -0.1942,-0.0809 0.0648,-0.21035 c 0.0215,-0.0863 0.0161,-0.15105 -0.0162,-0.1942 -0.0324,-0.0539 -0.0971,-0.12405 -0.19415,-0.21035 -0.0324,-0.03235 -0.0648,-0.0647 -0.0971,-0.09705 -0.0323,-0.0324 -0.0593,-0.06475 -0.0809,-0.0971 l -0.2751,-0.30745 0.4369,-0.11325 c 0.2697,-0.0755 0.4477,-0.1726 0.534,-0.29125 0.097,-0.11865 0.1348,-0.31825 0.11325,-0.5986996 -0.21575,-0.04315 -0.39915,-0.04855 -0.55015,-0.0162 -0.14025,0.0324 -0.28585,0.07015 -0.4369,0.1133 -0.19415,0.0539 -0.39375,0.1024496 -0.5987,0.1455996 -0.19415,0.03235 -0.4099,0.04855 -0.6472,0.04855 -0.0863,0 -0.1672,0 -0.24275,0 -0.0755,-0.0108 -0.1564,-0.02155 -0.2427,-0.03235 l -0.1618,-0.03235 c -0.0216,-0.1186996 -0.0431,-0.1833996 -0.0647,-0.1941996 -0.0216,-0.02155 -0.0432,-0.04315 -0.0647,-0.0647 -0.0539,-0.05395 -0.11325,-0.12405 -0.178,-0.21035 -0.0539,-0.0971 -0.0647,-0.21575 -0.0324,-0.356 -0.0539,-0.0971 -0.0863,-0.19415 -0.0971,-0.29125 -0.0647,0.12945 -0.11325,0.2643 -0.1456,0.4045 l -0.0648,0.16185 -0.1618,0.03235 c -0.0215,0.0108 -0.0378,0.03775 -0.0486,0.0809 -0.0108,0.03235 -0.0162,0.0593 -0.0162,0.0809 l -0.081,0.27505 c -0.0215,0.0216 -0.0431,0.04315 -0.0647,0.06475 -0.0216,0.0108 -0.0431,0.02695 -0.0648,0.04855 -0.0215,0.09705 -0.0485,0.194151 -0.0809,0.291251 -0.0324,0.0971 -0.0647,0.18875 -0.097,0.27505 -0.054,0.14025 -0.1025,0.2805 -0.14565,0.4207 -0.0324,0.12945 -0.0431,0.2589 -0.0324,0.38835 l -0.0647,0.178 c -0.0539,0.06475 -0.11325,0.11865 -0.17795,0.1618 -0.0648,0.03235 -0.12945,0.06475 -0.1942,0.0971 -0.0216,0.02155 -0.054,0.04315 -0.097,0.0647 -0.0324,0.0108 -0.0594,0.0216 -0.081,0.0324 l -0.0485,0.17795 -0.1942,0.0324 c -0.11865,0.02155 -0.20495,0.03775 -0.2589,0.04855 -0.0432,0.01075 -0.0971,0.01615 -0.1618,0.01615 l -0.1618,-0.01615 c -0.11865,-0.0971 -0.21035,-0.1726 -0.2751,-0.22655 -0.0647,-0.06475 -0.1402,-0.12405 -0.2265,-0.178 -0.0971,-0.12945 -0.15105,-0.22655 -0.1618,-0.29125 -0.0108,-0.0647 -0.0216,-0.12405 -0.0324,-0.178 -0.0215,-0.0647 -0.0324,-0.11865 -0.0324,-0.1618 -0.0108,-0.04315 -0.0269,-0.0755 -0.0485,-0.0971 l -0.21035,-0.19415 0.178,-0.14565 0.0162,-0.27505 c 0.21575,-0.5501494 0.44225,-1.0787494 0.6796,-1.5857494 0.2481,-0.507 0.5016,-1.02475 0.7605,-1.55335 0.0863,-0.1726 0.1672,-0.3452 0.2427,-0.5178 0.0863,-0.1726 0.1726,-0.3452 0.2589,-0.5178 -0.0108,-0.03235 -0.0162,-0.0701 -0.0162,-0.11325 0,-0.04315 0.0108,-0.0917 0.0324,-0.1456 0.1187,-0.1834 0.21575,-0.3452 0.2913,-0.48545 0.0755,-0.151 0.151,-0.30205 0.2265,-0.45305 0.0863,-0.1834 0.1726,-0.3614 0.2589,-0.53398 0.0971,-0.172595 0.21575,-0.350585 0.356,-0.53397 l 0.2589,-0.113265 c 0.0324,-0.01079 0.0701,-0.02157 0.11325,-0.03236 0.0431,-0.02158 0.0917,-0.03236 0.1456,-0.03236 l 0.24275,0.03236 c 0.30205,-0.140235 0.5663,-0.334405 0.79285,-0.58251 0.22655,-0.258895 0.45845,-0.5663304 0.6958,-0.9223104 l 0.1618,-0.226535 0.21035,0.12945 c 0.0539,0.03236 0.12945,0.064725 0.2265,0.097085 0.0971,0.021575 0.1996,0.04854 0.30745,0.080905 0.1942,0.04315 0.37755,0.09169 0.55015,0.145625 0.1726,0.05394 0.31285,0.13484 0.4207,0.2427154 0.0648,0.172595 0.1025,0.302045 0.11325,0.38834 0.0108,0.0863 0.027,0.172595 0.0485,0.258895 0.0324,0.183385 0.0594,0.366765 0.0809,0.55015 0.0324,0.183385 0.0539,0.38834 0.0648,0.61487 0.0539,0.1834 0.0971,0.36675 0.12945,0.55015 0.0431,0.1726 0.0809,0.3506 0.11325,0.53395 0.054,0.2589 0.1079,0.5124 0.1618,0.76055 0.054,0.2373 0.12405,0.46385 0.21035,0.67955 0.0863,0 0.14025,0.0054 0.16185,0.0162 0.0539,-0.02155 0.10785,-0.03775 0.1618,-0.04855 0.0647,-0.0108 0.13485,-0.02155 0.21035,-0.03235 l 0.178,-0.0162 0.0647,0.16185 c 0.0108,0.0539 0.0647,0.10785 0.1618,0.1618 0.14025,0.01075 0.2427,0.04315 0.30745,0.09705 0.0647,0.04315 0.12405,0.0917 0.178,0.14565 0.0431,0.04315 0.0863,0.0755 0.12945,0.0971 l 0.2427,0.09705 -0.12945,0.24275 c -0.10785,0.19415 -0.2643,0.38295 -0.46925,0.5663 -0.19415,0.1726 -0.4153,0.31825 -0.6634,0.4369 0.0108,0.0647 0.0162,0.12945 0.0162,0.19415 0.0108,0.05395 0.027,0.1133 0.0485,0.178 0.0324,0.1834 0.0594,0.37215 0.0809,0.5663484 0.0216,0.194151 0.0216,0.393701 0,0.598701 z m -4.67625,-2.7992996 c 0.3236,-0.02155 0.61485,-0.04315 0.87375,-0.0647 0.2697,-0.03235 0.56635,-0.0809 0.88995,-0.14565 -0.0755,-0.3236 -0.1564,-0.658 -0.2427,-1.0032 -0.0863,-0.356 -0.178,-0.70655 -0.2751,-1.05175 l -0.0971,0.1618 c -0.2157,0.22655 -0.4261,0.48005 -0.63105,0.7605 -0.19415,0.28045 -0.36135,0.54475 -0.5016,0.79285 -0.0647,0.0971 -0.12945,0.1942 -0.19415,0.29125 -0.0648,0.0971 -0.12405,0.1942 -0.178,0.29125 0.0647,-0.01075 0.12405,-0.01615 0.178,-0.01615 0.0647,0 0.12405,-0.0054 0.178,-0.0162 z m 8.8464,2.4756996 c -0.11865,0.4315 -0.22655,0.7605 -0.32365,0.987 -0.0863,0.21575 -0.2211,0.4423 -0.4045,0.6796 -0.14025,-0.02155 -0.2373,-0.0053 -0.29125,0.04855 -0.054,0.05395 -0.11325,0.1025 -0.178,0.14565 -0.0971,0.02155 -0.1672,0.02155 -0.21035,0 -0.0431,-0.0216 -0.0809,-0.04855 -0.11325,-0.0809 -0.0324,-0.0216 -0.0755,-0.04855 -0.12945,-0.0809 -0.0431,-0.0216 -0.11325,-0.0324 -0.21035,-0.0324 -0.0216,-0.0863 -0.0485,-0.1672 -0.0809,-0.2427 -0.0216,-0.0755 -0.0917,-0.10245 -0.21035,-0.0809 0.0215,-0.0863 0.0269,-0.1564 0.0161,-0.21035 -0.0108,-0.0647 -0.0269,-0.11865 -0.0486,-0.1618 -0.0108,-0.05395 -0.0215,-0.1025 -0.0323,-0.14565 -0.0108,-0.0539 -0.005,-0.11865 0.0162,-0.19415 -0.054,0 -0.0971,-0.03775 -0.12945,-0.11325 -0.0323,-0.07555 -0.0701,-0.15105 -0.11325,-0.22655 0.0323,-0.1942 0.0647,-0.37755 0.097,-0.55015 0.0324,-0.1725996 0.0701,-0.3343996 0.1133,-0.4854496 0.0539,-0.151 0.097,-0.30205 0.12945,-0.45305 0.0324,-0.151 0.0162,-0.30745 -0.0485,-0.46925 0.0431,0.03235 0.0755,0.02695 0.097,-0.01615 0.0216,-0.05395 0.0378,-0.1187 0.0486,-0.1942 0.0108,-0.0863 0.0162,-0.1672 0.0162,-0.2427 0,-0.0863 -0.005,-0.1564 -0.0162,-0.21035 0.1079,-0.2805 0.1942,-0.56635 0.2589,-0.8576 0.0755,-0.30205 0.14025,-0.5987 0.1942,-0.88995 0.0647,-0.29125 0.1294,-0.5771 0.19415,-0.8576 0.0647,-0.28045 0.151,-0.53935 0.2589,-0.77665 0.11865,-0.0216 0.2481,-0.0054 0.38835,0.04855 0.151,0.04315 0.2427,0.10245 0.27505,0.17795 0.2805,-0.21575 0.5286,-0.47462 0.74435,-0.776665 0.2157,-0.31283 0.43685,-0.614875 0.6634,-0.90613 0.22655,-0.291255 0.47465,-0.5501504 0.7443,-0.7766804 0.2805,-0.226535 0.63105,-0.361375 1.05175,-0.404525 0.21575,0.16181 0.4531,0.32901 0.712,0.50161 0.26965,0.161805 0.4908,0.3775504 0.6634,0.6472354 0.0863,0.04315 0.1564,0.09169 0.21035,0.145625 0.0647,0.04315 0.14025,0.09169 0.22655,0.14563 v 0.19417 c 0.12945,0.11866 0.2319,0.258895 0.3074,0.420705 0.0863,0.15102 0.16185,0.31822 0.22655,0.501625 0.0648,0.1726 0.12945,0.35055 0.19415,0.53395 0.0647,0.1726 0.14025,0.3398 0.22655,0.5016 -0.0215,0.05395 -0.0323,0.1025 -0.0323,0.14565 0,0.03235 0.005,0.0701 0.0161,0.11325 0.0216,0.04315 0.0378,0.0863 0.0486,0.12945 0.0108,0.04315 0.0108,0.1025 0,0.178 -0.0324,0.47465 -0.18875,0.8576 -0.46925,1.14885 -0.26965,0.29125 -0.59865,0.53395 -0.987,0.7281 -0.38835,0.1834 -0.80365,0.3398 -1.24595,0.46925 -0.44225,0.12945 -0.8414,0.2697 -1.1974,0.4207 0,0.04315 0.0162,0.06475 0.0486,0.06475 0.0431,0 0.0593,0.02695 0.0485,0.0809 0.2589,0.1618 0.46385,0.29125 0.6149,0.38835 0.151,0.09705 0.29125,0.178 0.4207,0.2427 0.1402,0.06475 0.28585,0.12405 0.43685,0.178 0.16185,0.04315 0.38295,0.0971 0.66345,0.1617996 0.28045,0.0647 0.4962,0.11865 0.6472,0.1618 0.16185,0.03235 0.30745,0.06475 0.4369,0.0971 0.12945,0.02155 0.2589,0.04315 0.38835,0.0647 0.14025,0.0108 0.3344,0.027 0.5825,0.04855 0.0971,0.0971 0.178,0.21575 0.2427,0.356 0.0755,0.12945 0.1241,0.2643 0.14565,0.4045 0.0216,0.12945 0.0269,0.2589 0.0162,0.38835 -0.0108,0.11865 -0.0486,0.21575 -0.1133,0.29125 0.0108,0.03235 0.0324,0.04855 0.0648,0.04855 0.0431,-0.0108 0.0863,-0.0108 0.12945,0 -0.0648,0.04315 -0.11865,0.0971 -0.1618,0.1618 -0.0432,0.06475 -0.0863,0.12945 -0.12945,0.1942 -0.0431,0.0647 -0.0917,0.11865 -0.14565,0.1618 -0.054,0.05395 -0.12945,0.0863 -0.22655,0.0971 -0.3344,0.1294 -0.7551,0.1348 -1.2621,0.01615 -0.507,-0.10785 -1.14885,-0.3128 -1.9255,-0.61485 -0.38835,-0.15105 -0.7066,-0.2805 -0.9547,-0.38835 -0.2373,-0.11865 -0.44765,-0.23195 -0.63105,-0.3398 -0.1726,-0.11865 -0.3344,-0.2427 -0.4854,-0.37215 -0.14025,-0.12945 -0.31285,-0.2859 -0.5178,-0.46925 z m 2.31385,-5.5500496 c -0.11865,0.1726 -0.2535,0.329 -0.4045,0.46925 -0.14025,0.1402 -0.2805,0.28585 -0.4207,0.43685 -0.12945,0.14025 -0.2481,0.30205 -0.356,0.48545 -0.10785,0.1726 -0.1834,0.37755 -0.22655,0.61485 0.3776,-0.04315 0.7713,-0.1456 1.18125,-0.3074 0.4099,-0.1726 0.79825,-0.3344 1.165,-0.48545 -0.0431,-0.3344 -0.1618,-0.6041 -0.356,-0.80905 -0.18335,-0.20495 -0.37755,-0.3398 -0.5825,-0.4045 z m 16.01455,4.3203 c -0.2589,0.46385 -0.5987,0.8252 -1.0194,1.0840996 -0.4207,0.2481 -0.88455,0.45845 -1.39155,0.63105 -0.507,0.1618 -1.04095,0.30745 -1.6019,0.4369 -0.55015,0.12945 -1.0841,0.29665 -1.6019,0.5016 -0.15105,0 -0.2859,0.0054 -0.40455,0.0162 -0.10785,0.01075 -0.21575,0.02695 -0.3236,0.04855 -0.0971,0.01075 -0.19415,0.02695 -0.29125,0.0485 -0.0971,0.0108 -0.20495,0.0216 -0.32365,0.0324 -0.0431,-0.0108 -0.0701,0 -0.0809,0.03235 -0.0108,0.02155 -0.0269,0.04315 -0.0485,0.0647 -0.1834,0.0324 -0.3506,0.04855 -0.50165,0.04855 -0.1402,0 -0.2589,0 -0.35595,0 -0.12945,0 -0.2643,0.0162 -0.40455,0.04855 -0.12945,0.04315 -0.2481,0.05935 -0.35595,0.04855 -0.80905,-0.04315 -1.4455,-0.329 -1.90935,-0.8576 -0.45305,-0.53935 -0.70655,-1.28365 -0.7605,-2.2329496 0.0108,-0.05395 0,-0.0863 -0.0324,-0.0971 -0.0216,-0.01075 -0.0431,-0.02695 -0.0647,-0.04855 0,-0.10785 0.0108,-0.19955 0.0323,-0.27505 0.0324,-0.0755 0.0378,-0.1726 0.0162,-0.29125 0.28045,-0.5933 0.5987,-1.14345 0.95465,-1.65045 0.356,-0.5178 0.7821,-0.97085 1.2783,-1.3592 0.0755,-0.06475 0.14025,-0.12945 0.1942,-0.1942 0.0539,-0.0647 0.10245,-0.1294 0.1456,-0.19415 0.054,-0.0647 0.1133,-0.11865 0.178,-0.1618 0.0647,-0.05395 0.14565,-0.0917 0.2427,-0.11325 0.22655,-0.258915 0.49625,-0.496235 0.80905,-0.71198 0.31285,-0.215745 0.64185,-0.420705 0.98705,-0.614875 0.3452,-0.20496 0.685,-0.40452 1.0194,-0.5986954 0.3452,-0.204955 0.658,-0.43149 0.9385,-0.679595 0.11865,0.053935 0.20495,0.070115 0.25885,0.048545 0.054,-0.021575 0.1133,-0.021575 0.178,0 0.0755,0.161805 0.178,0.275075 0.30745,0.339795 0.14025,0.064725 0.27505,0.13484 0.4045,0.210355 0.14025,0.06472 0.2697,0.1456254 0.38835,0.2427104 0.11865,0.09708 0.21035,0.226535 0.2751,0.38834 -0.0648,0 -0.0971,0.02697 -0.0971,0.0809 0.0108,0.04315 0.027,0.09169 0.0486,0.14563 0.0216,0.04315 0.0269,0.09169 0.0162,0.14563 0,0.04315 -0.0378,0.06472 -0.1133,0.06472 0.0108,0.05394 0.0431,0.0863 0.0971,0.09708 0.0647,0 0.0971,0.02697 0.0971,0.0809 0,0.05393 -0.0162,0.09708 -0.0485,0.12945 -0.0216,0.03236 -0.0216,0.08629 0,0.161805 -0.21575,0.140235 -0.45845,0.275075 -0.72815,0.40452 -0.2589,0.12945 -0.53395,0.2697 -0.82525,0.4207 -0.28045,0.14025 -0.5771,0.29665 -0.88995,0.46925 -0.302,0.1618 -0.59865,0.3506 -0.88995,0.56635 -0.29125,0.21575 -0.5879,0.45845 -0.8899,0.7281 -0.30205,0.2589 -0.5933,0.534 -0.8738,0.82525 -0.28045,0.29125 -0.54475,0.5933 -0.79285,0.90615 -0.2481,0.302 -0.45845,0.60405 -0.63105,0.9061 0.0216,0.05395 0.0432,0.0971 0.0647,0.12945 0.0324,0.0216 0.0594,0.05935 0.0809,0.11325 0.3452,0.0216 0.66345,0.0216 0.9547,0 0.30205,-0.03235 0.6041,-0.01615 0.9061,0.04855 0.0324,-0.02155 0.0539,-0.0539 0.0647,-0.09705 0.0108,-0.04315 0.0378,-0.07555 0.0809,-0.0971 0.61485,-0.06475 1.1866,-0.1618 1.71515,-0.29125 0.5286,-0.14025 1.06795,-0.28585 1.6181,-0.4369 -0.0863,-0.03235 -0.1672,-0.05935 -0.2427,-0.0809 -0.0648,-0.03235 -0.12945,-0.05935 -0.19415,-0.0809 -0.054,-0.05395 -0.054,-0.0971 0,-0.12945 0.0647,-0.04315 0.11865,-0.0863 0.1618,-0.12945 -0.15105,-0.0863 -0.2751,-0.19415 -0.37215,-0.3236 -0.0863,-0.12945 -0.14025,-0.30205 -0.16185,-0.5178 0.0647,-0.05395 0.0971,-0.11865 0.0971,-0.1942 0,-0.0755 -0.0324,-0.1348 -0.0971,-0.17795 -0.0431,-0.0108 -0.0701,-0.0108 -0.0809,0 -0.0108,0.01075 -0.0216,0.02695 -0.0324,0.04855 0,0.02155 -0.005,0.04315 -0.0162,0.0647 -0.0108,0.0108 -0.0378,0.0054 -0.0809,-0.0162 0.0108,-0.09705 0.0324,-0.17795 0.0648,-0.2427 0.0431,-0.0647 0.0755,-0.14025 0.097,-0.22655 l 1.1165,-0.7443 c 0.11865,0.0863 0.2643,0.1834 0.4369,0.29125 0.1726,0.0971 0.35055,0.19955 0.53395,0.30745 0.1942,0.0971 0.38835,0.19955 0.5825,0.30745 0.205,0.09705 0.39375,0.19415 0.56635,0.29125 0.151,0.0647 0.28585,0.151 0.4045,0.2589 0.1187,0.10785 0.23195,0.2211 0.3398,0.3398 0.1079,0.10785 0.21575,0.21575 0.32365,0.3236 0.11865,0.10785 0.2535,0.19955 0.4045,0.27505 -0.0216,0.14025 -0.0162,0.2535 0.0162,0.3398 0.0323,0.0863 0.0431,0.1942 0.0323,0.32365 z m 8.3933,1.5533496 c -0.0645,0.1834 -0.162,0.37215 -0.291,0.56635 -0.119,0.18335 -0.2645,0.35055 -0.437,0.5016 -0.162,0.14025 -0.3455,0.2589 -0.55,0.35595 -0.205,0.0971 -0.421,0.15105 -0.6475,0.16185 -0.14,-0.0324 -0.2375,-0.07015 -0.291,-0.1133 -0.0435,-0.03235 -0.092,-0.0647 -0.146,-0.09705 -0.032,-0.0216 -0.0645,-0.03775 -0.097,-0.04855 -0.0215,-0.0216 -0.043,-0.03775 -0.0645,-0.04855 l -0.1945,-0.0809 0.065,-0.21035 c 0.0215,-0.0863 0.016,-0.15105 -0.0165,-0.1942 -0.032,-0.0539 -0.097,-0.12405 -0.194,-0.21035 -0.0325,-0.03235 -0.0645,-0.0647 -0.097,-0.09705 -0.0325,-0.0324 -0.0595,-0.06475 -0.081,-0.0971 l -0.275,-0.30745 0.437,-0.11325 c 0.2695,-0.0755 0.4475,-0.1726 0.534,-0.29125 0.097,-0.11865 0.1345,-0.31825 0.113,-0.5986996 -0.2155,-0.04315 -0.399,-0.04855 -0.55,-0.0162 -0.1405,0.0324 -0.286,0.07015 -0.437,0.1133 -0.194,0.0539 -0.3935,0.1024496 -0.5985,0.1455996 -0.1945,0.03235 -0.41,0.04855 -0.6475,0.04855 -0.086,0 -0.167,0 -0.2425,0 -0.0755,-0.0108 -0.1565,-0.02155 -0.243,-0.03235 l -0.1615,-0.03235 c -0.0215,-0.1186996 -0.0435,-0.1833996 -0.065,-0.1941996 -0.0215,-0.02155 -0.043,-0.04315 -0.0645,-0.0647 -0.054,-0.05395 -0.1135,-0.12405 -0.178,-0.21035 -0.054,-0.0971 -0.065,-0.21575 -0.0325,-0.356 -0.054,-0.0971 -0.086,-0.19415 -0.097,-0.29125 -0.0645,0.12945 -0.1135,0.2643 -0.1455,0.4045 l -0.065,0.16185 -0.1615,0.03235 c -0.0215,0.0108 -0.038,0.03775 -0.0485,0.0809 -0.011,0.03235 -0.0165,0.0593 -0.0165,0.0809 l -0.081,0.27505 c -0.0215,0.0216 -0.043,0.04315 -0.0645,0.06475 -0.0215,0.0108 -0.043,0.02695 -0.0645,0.04855 -0.022,0.09705 -0.049,0.194151 -0.081,0.291251 -0.0325,0.0971 -0.065,0.18875 -0.097,0.27505 -0.054,0.14025 -0.1025,0.2805 -0.146,0.4207 -0.032,0.12945 -0.043,0.2589 -0.032,0.38835 l -0.065,0.178 c -0.054,0.06475 -0.113,0.11865 -0.178,0.1618 -0.0645,0.03235 -0.1295,0.06475 -0.194,0.0971 -0.0215,0.02155 -0.054,0.04315 -0.097,0.0647 -0.0326,0.0108 -0.0595,0.0216 -0.0811,0.0324 l -0.0485,0.17795 -0.1942,0.0324 c -0.11865,0.02155 -0.20495,0.03775 -0.2589,0.04855 -0.0431,0.01075 -0.097,0.01615 -0.1618,0.01615 l -0.1618,-0.01615 c -0.11865,-0.0971 -0.21035,-0.1726 -0.2751,-0.22655 -0.0647,-0.06475 -0.1402,-0.12405 -0.2265,-0.178 -0.0971,-0.12945 -0.15105,-0.22655 -0.1618,-0.29125 -0.0108,-0.0647 -0.0216,-0.12405 -0.0324,-0.178 -0.0215,-0.0647 -0.0323,-0.11865 -0.0323,-0.1618 -0.0108,-0.04315 -0.0269,-0.0755 -0.0486,-0.0971 l -0.21035,-0.19415 0.178,-0.14565 0.0162,-0.27505 c 0.21575,-0.5501494 0.44225,-1.0787494 0.6796,-1.5857494 0.2481,-0.507 0.5016,-1.02475 0.7605,-1.55335 0.0863,-0.1726 0.1672,-0.3452 0.24255,-0.5178 0.0865,-0.1726 0.1725,-0.3452 0.259,-0.5178 -0.0105,-0.03235 -0.016,-0.0701 -0.016,-0.11325 0,-0.04315 0.0105,-0.0917 0.032,-0.1456 0.119,-0.1834 0.216,-0.3452 0.2915,-0.48545 0.0755,-0.151 0.151,-0.30205 0.2265,-0.45305 0.0865,-0.1834 0.1725,-0.3614 0.259,-0.53398 0.097,-0.172595 0.2155,-0.350585 0.356,-0.53397 l 0.259,-0.113265 c 0.032,-0.01079 0.07,-0.02157 0.113,-0.03236 0.043,-0.02158 0.0915,-0.03236 0.1455,-0.03236 l 0.243,0.03236 c 0.302,-0.140235 0.566,-0.334405 0.793,-0.58251 0.2265,-0.258895 0.458,-0.5663304 0.6955,-0.9223104 l 0.162,-0.226535 0.21,0.12945 c 0.054,0.03236 0.1295,0.064725 0.2265,0.097085 0.0975,0.021575 0.2,0.04854 0.3075,0.080905 0.1945,0.04315 0.3775,0.09169 0.5505,0.145625 0.1725,0.05394 0.3125,0.13484 0.4205,0.2427154 0.0645,0.172595 0.1025,0.302045 0.1135,0.38834 0.0105,0.0863 0.0265,0.172595 0.0485,0.258895 0.032,0.183385 0.059,0.366765 0.0805,0.55015 0.0325,0.183385 0.054,0.38834 0.065,0.61487 0.054,0.1834 0.097,0.36675 0.1295,0.55015 0.043,0.1726 0.081,0.3506 0.113,0.53395 0.054,0.2589 0.108,0.5124 0.162,0.76055 0.054,0.2373 0.124,0.46385 0.2105,0.67955 0.086,0 0.14,0.0054 0.1615,0.0162 0.054,-0.02155 0.108,-0.03775 0.162,-0.04855 0.0645,-0.0108 0.135,-0.02155 0.2105,-0.03235 l 0.178,-0.0162 0.0645,0.16185 c 0.011,0.0539 0.0645,0.10785 0.162,0.1618 0.14,0.01075 0.2425,0.04315 0.307,0.09705 0.065,0.04315 0.1245,0.0917 0.178,0.14565 0.0435,0.04315 0.0865,0.0755 0.1295,0.0971 l 0.243,0.09705 -0.1295,0.24275 c -0.108,0.19415 -0.2645,0.38295 -0.4695,0.5663 -0.194,0.1726 -0.415,0.31825 -0.663,0.4369 0.0105,0.0647 0.016,0.12945 0.016,0.19415 0.011,0.05395 0.027,0.1133 0.0485,0.178 0.0325,0.1834 0.0595,0.37215 0.081,0.5663484 0.0215,0.194151 0.0215,0.393701 0,0.598701 z m -4.676,-2.7992996 c 0.3235,-0.02155 0.6145,-0.04315 0.8735,-0.0647 0.2695,-0.03235 0.5665,-0.0809 0.89,-0.14565 -0.0755,-0.3236 -0.1565,-0.658 -0.2425,-1.0032 -0.0865,-0.356 -0.178,-0.70655 -0.2755,-1.05175 l -0.097,0.1618 c -0.2155,0.22655 -0.426,0.48005 -0.631,0.7605 -0.194,0.28045 -0.3615,0.54475 -0.5015,0.79285 -0.065,0.0971 -0.1295,0.1942 -0.194,0.29125 -0.065,0.0971 -0.1245,0.1942 -0.178,0.29125 0.0645,-0.01075 0.124,-0.01615 0.178,-0.01615 0.0645,0 0.124,-0.0054 0.178,-0.0162 z m 14.623,-3.624505 c -0.27,0 -0.561,0.02158 -0.874,0.06472 -0.313,0.03237 -0.6205,0.07012 -0.9225,0.11327 -0.2155,0.03236 -0.426,0.05933 -0.631,0.0809 -0.194,0.02158 -0.372,0.03776 -0.534,0.04856 -0.0755,0.2373 -0.151,0.44765 -0.2265,0.63105 -0.0755,0.18335 -0.1565,0.36135 -0.2425,0.53395 -0.0865,0.1834 -0.1675,0.37215 -0.243,0.56635 -0.0645,0.18335 -0.129,0.38295 -0.194,0.5987 -0.108,0.17255 -0.1995,0.3344 -0.275,0.4854 -0.065,0.14025 -0.1185,0.30205 -0.162,0.48545 -0.1295,0.1618 -0.2265,0.3344 -0.291,0.51775 -0.065,0.1726 -0.1135,0.32365 -0.1455,0.4531 l -0.065,0.19415 c -0.0645,0.06475 -0.1025,0.11865 -0.113,0.1618 -0.011,0.0324 -0.038,0.06475 -0.081,0.0971 -0.011,0.11865 -0.0485,0.2373 -0.1135,0.356 -0.0215,0.0539 -0.0375,0.10785 -0.0485,0.1618 -0.0105,0.04315 -0.016,0.0755 -0.016,0.09705 0,0.1078996 -0.027,0.1779996 -0.081,0.2103496 0.011,0.05395 0.011,0.1133 0,0.178 -0.011,0.05395 -0.0215,0.1079 -0.0325,0.1618 -0.032,0.12945 -0.043,0.23195 -0.032,0.30745 0.032,0.04315 0.059,0.0809 0.0805,0.1133 0.0325,0.03235 0.054,0.0755 0.065,0.1294 0.0645,0.04315 0.113,0.07015 0.1455,0.08095 0.043,0.03235 0.108,0.0701 0.194,0.11325 l 0.146,0.1618 c 0.0535,0.31285 0.005,0.56095 -0.146,0.7443 -0.1615,0.205 -0.4365,0.30745 -0.825,0.30745 h -0.194 c -0.054,-0.05395 -0.0865,-0.09705 -0.0975,-0.12945 -0.086,-0.03235 -0.156,-0.0593 -0.21,-0.0809 -0.054,-0.02155 -0.1025,-0.0647 -0.146,-0.12945 -0.14,-0.0647 -0.2535,-0.11865 -0.3395,-0.1618 l -0.1455,-0.0809 c 0,-0.11865 0,-0.1834 0,-0.19415 -0.0755,-0.0971 -0.135,-0.205 -0.178,-0.32365 -0.0325,-0.11865 -0.0595,-0.2373 -0.081,-0.35595 -0.0215,-0.0971 -0.0485,-0.1888 -0.081,-0.2751 -0.0215,-0.0863 -0.054,-0.1618 -0.097,-0.22655 -0.0215,-0.6256496 0.0375,-1.1541996 0.178,-1.5856996 0.14,-0.4315 0.286,-0.8468 0.437,-1.24595 0.086,-0.21575 0.1725,-0.43145 0.2585,-0.6472 0.0865,-0.22655 0.162,-0.4585 0.2265,-0.6958 l 0.146,-0.1618 c 0.0755,-0.1726 0.1345,-0.31285 0.178,-0.4207 0.054,-0.11865 0.1075,-0.23735 0.1615,-0.356 0.0325,-0.0755 0.0595,-0.1456 0.081,-0.21035 0.0325,-0.0755 0.0595,-0.1402 0.081,-0.19415 -0.065,0 -0.124,0.0054 -0.178,0.01615 -0.054,0 -0.108,0.0054 -0.162,0.0162 -0.0645,0.0108 -0.124,0.0216 -0.178,0.03235 -0.054,0 -0.1075,0 -0.1615,0 -0.0755,0 -0.1295,-0.0054 -0.162,-0.01615 -0.1185,0.0539 -0.248,0.0809 -0.3885,0.0809 h -0.1615 c -0.0325,0 -0.065,0 -0.097,0 -0.022,-0.0108 -0.0435,-0.0162 -0.065,-0.0162 -0.108,0 -0.194,0.0162 -0.259,0.04855 -0.1295,0 -0.2535,0 -0.372,0 h -0.162 c -0.0215,0 -0.0485,0.0054 -0.0805,0.0162 -0.0325,0 -0.0595,0 -0.081,0 -0.0755,0 -0.1565,-0.0054 -0.243,-0.0162 -0.086,-0.02155 -0.178,-0.05935 -0.275,-0.11325 -0.1295,-0.1726 -0.2155,-0.2643 -0.259,-0.2751 l -0.1455,-0.19416 c -0.0105,-0.06472 -0.027,-0.124055 -0.0485,-0.17799 -0.0215,-0.06472 -0.043,-0.13484 -0.0645,-0.210355 -0.0435,-0.10787 -0.0865,-0.221135 -0.1295,-0.339795 -0.0325,-0.12945 -0.0485,-0.28047 -0.0485,-0.453065 0.0105,-0.0863 0.032,-0.151025 0.0645,-0.19417 0.0325,-0.04315 0.0595,-0.0809 0.081,-0.11327 l 0.0485,-0.2427104 0.2105,0.01618 h 0.453 c 0.345,0 0.6955,-0.01079 1.0515,-0.032365 0.356,-0.03236 0.723,-0.06472 1.1005,-0.097085 0.2155,-0.02157 0.4315,-0.043145 0.647,-0.06472 0.227,-0.021575 0.4585,-0.04315 0.696,-0.064725 0.043,-0.097085 0.0865,-0.188775 0.1295,-0.275075 l 0.162,-0.080905 c 0.194,-0.010785 0.329,0.01618 0.4045,0.080905 0.086,0.053935 0.156,0.10787 0.21,0.16181 0.2375,-0.021575 0.475,-0.04315 0.712,-0.064725 0.248,-0.03236 0.4965,-0.070115 0.7445,-0.113265 0.3665,-0.053935 0.7335,-0.10248 1.1,-0.14563 0.378,-0.04315 0.739,-0.064725 1.0845,-0.064725 0.151,0 0.2965,0.0054 0.4365,0.016185 0.1405,0.010785 0.27,0.026965 0.3885,0.04854 l 0.162,0.113265 c 0.032,0.064725 0.0755,0.124055 0.1295,0.17799 0.0645,0.05394 0.1295,0.107875 0.194,0.16181 0.1295,0.11866 0.259,0.2588954 0.3885,0.4207054 0.1295,0.16181 0.178004,0.399125 0.145504,0.71196 -0.0865,0.129445 -0.151004,0.204955 -0.194004,0.22653 l -0.146,0.19417 -0.1615,-0.01618 c -0.065,0 -0.124,0.01079 -0.178,0.03236 -0.054,0.01079 -0.108,0.02697 -0.162,0.04855 -0.043,0.02157 -0.0865,0.04315 -0.1295,0.06472 -0.043,0.01079 -0.0915,0.02157 -0.1455,0.03236 -0.097,0 -0.178,0 -0.2425,0 -0.054,-0.01079 -0.1135,-0.01618 -0.178,-0.01618 z m 8.263508,-1.326835 c 0.011,0.07551 0.011,0.13484 0,0.17799 0,0.03236 -0.005,0.06472 -0.016,0.09708 0,0.03237 0,0.07012 0,0.113265 0,0.03236 0.011,0.0863 0.0325,0.16181 -0.2265,0.36677 -0.491,0.62027 -0.793,0.760505 -0.2915,0.129445 -0.6095,0.22653 -0.9545,0.291255 -0.3455,0.05393 -0.7015,0.11328 -1.068,0.17798 -0.356,0.06475 -0.712,0.20495 -1.068,0.4207 -0.1405,-0.0539 -0.2695,-0.0539 -0.3885,0 -0.108,0.05395 -0.2695,0.07015 -0.4855,0.04855 -0.0645,0.06475 -0.1455,0.11325 -0.2425,0.14565 -0.097,0.02155 -0.194004,0.0485 -0.291504,0.0809 0.0435,0.09705 0.0595,0.19955 0.0485,0.3074 0,0.0971 0.0165,0.178 0.049,0.24275 0.377504,0.03235 0.792504,0.02695 1.245504,-0.0162 0.464,-0.04315 0.917,-0.0701 1.3595,-0.0809 0.0105,0.05395 0.005,0.0917 -0.0165,0.11325 -0.0215,0.0108 -0.0265,0.03775 -0.016,0.0809 0.0755,0.05395 0.151,0.1241 0.2265,0.21035 0.0755,0.07555 0.151,0.15105 0.2265,0.22655 0.0755,0.0755 0.151,0.14025 0.2265,0.1942 0.0865,0.04315 0.1835,0.0593 0.2915,0.0485 0.043,0.0863 0.07,0.1834 0.081,0.2913 0.0215,0.09705 0.0105,0.19955 -0.0325,0.3074 -0.1725,0.11865 -0.345,0.24275 -0.518,0.37215 -0.1725,0.1187 -0.356,0.22655 -0.55,0.32365 -0.1835,0.0971 -0.383,0.178 -0.5985,0.2427 -0.205,0.05395 -0.437,0.0755 -0.696,0.06475 -0.054,0 -0.097,0 -0.1295,0 -0.0215,0 -0.054,-0.0162 -0.097,-0.04855 -0.0865,0.0539 -0.2105,0.0701 -0.372,0.04855 -0.151,-0.0216 -0.27,-0.0054 -0.356,0.0485 -0.119,-0.0539 -0.264504,-0.0755 -0.437004,-0.0647 -0.162,0 -0.3075,-0.0216 -0.437,-0.06475 -0.1725,0.22655 -0.329,0.46925 -0.469,0.72815 -0.1405,0.2589 -0.2645,0.534 -0.3725,0.82525 0.367,0.0539 0.669,0.0755 0.9065,0.0647 0.248,-0.0108 0.48,-0.02695 0.695504,-0.04855 0.216,-0.03235 0.437,-0.0593 0.6635,-0.0809 0.2265,-0.03235 0.5125,-0.04315 0.8575,-0.03235 0.216,-0.11865 0.4695,-0.19415 0.7605,-0.22655 0.302,-0.04315 0.577,-0.10785 0.8255,-0.19415 0.086,0.03235 0.1615,0.0917 0.2265,0.178 0.0645,0.0755 0.124,0.151 0.178,0.2265 0.0645,0.06475 0.1295,0.12405 0.194,0.178 0.0645,0.05395 0.1455,0.0755 0.2425,0.06475 0.0435,0.04315 0.0705,0.09705 0.081,0.1617996 0.0215,0.05395 0.038,0.10785 0.0485,0.1618 0.011,0.05395 0.027,0.1025 0.0485,0.14565 0.0325,0.03235 0.081,0.04315 0.146,0.03235 -0.162,0.35595 -0.3505,0.63105 -0.5665,0.8252 -0.205,0.1834 -0.4425,0.32365 -0.712,0.4207 -0.2695,0.0971 -0.5715,0.1726 -0.906,0.22655 -0.3235,0.05395 -0.685,0.11865 -1.084,0.19415 -0.0975,0.0216 -0.178,0.0162 -0.243,-0.01615 -0.0645,-0.0216 -0.14,-0.03235 -0.2265,-0.03235 -0.248,0.0539 -0.5445,0.10245 -0.890004,0.1456 -0.345,0.04315 -0.6955,0.05935 -1.0515,0.04855 -0.356004,-0.0108 -0.696004,-0.05935 -1.019504,-0.14565 -0.3235,-0.0755 -0.588,-0.2157 -0.793,-0.4207 -0.086,-0.0755 -0.1455,-0.1618 -0.178,-0.25885 -0.0215,-0.1079 -0.0915,-0.1888 -0.21,-0.24275 -0.011,-0.1402 -0.0325,-0.29665 -0.065,-0.46925 -0.0325,-0.1726 -0.0645,-0.35055 -0.097,-0.53395 -0.0325,-0.19415 -0.0595,-0.3829496 -0.081,-0.5663496 -0.0105,-0.18335 0,-0.35055 0.0325,-0.5016 0.0325,-0.1618 0.097,-0.30745 0.194,-0.43685 0.108,-0.12945 0.1455,-0.2697 0.1135,-0.42075 0.054,-0.01075 0.086,-0.03775 0.097,-0.0809 0.0105,-0.0539 0.054,-0.0755 0.1295,-0.0647 0.0645,-0.1942 0.1345,-0.37755 0.21,-0.55015 0.0755,-0.1726 0.1515,-0.3398 0.227,-0.5016 0.086,-0.1618 0.167,-0.32365 0.2425,-0.48545 0.0865,-0.1726 0.167,-0.36135 0.2425,-0.5663 -0.151,-0.14025 -0.264,-0.2913 -0.3395,-0.4531 -0.065,-0.1726 -0.1135,-0.3398 -0.1455,-0.5016 -0.0325,-0.1726 -0.0595,-0.3452 -0.081,-0.51778 -0.0215,-0.183385 -0.0595,-0.36677 -0.1135,-0.55015 0.108,-0.16181 0.2375,-0.291255 0.3885,-0.38834 0.1615,-0.107875 0.3345,-0.194175 0.5175,-0.258895 0.1835,-0.06473 0.383,-0.11866 0.599004,-0.16181 0.2155,-0.04315 0.442,-0.09169 0.6795,-0.14563 0.4315,-0.140235 0.8145,-0.2481054 1.149004,-0.3236154 0.345,-0.07551 0.6795,-0.13484 1.003,-0.17799 0.3345,-0.053935 0.6795,-0.10248 1.0355,-0.14563 0.356,-0.04315 0.7605,-0.10787 1.2135,-0.19417 0.0975,0.097085 0.189,0.14563 0.2755,0.14563 0.043,-0.097085 0.0915,-0.124055 0.1455,-0.080905 0.0645,0.03236 0.0915,0 0.081,-0.097085 0.1075,0.18338 0.2425,0.339795 0.4045,0.469245 0.1725,0.11866 0.361,0.2211404 0.566,0.3074354 z m 8.017,3.02584 c -0.054,-0.30205 -0.0705,-0.6149 -0.0485,-0.9385 0.0215,-0.3236 0.032,-0.636455 0.032,-0.938495 0,-0.291255 -0.0215,-0.598695 -0.0645,-0.92231 -0.0325,-0.334405 -0.065,-0.6526304 -0.097,-0.9546754 -0.0215,-0.30204 -0.0325,-0.577115 -0.0325,-0.825225 0.011,-0.258895 0.0485,-0.458455 0.113,-0.59869 0.0865,-0.16181 0.1945,-0.285865 0.324,-0.37216 0.1295,-0.097085 0.2535,-0.20496 0.372,-0.32362 0.1405,0.021575 0.2645,0.064725 0.372,0.129445 0.119,0.05394 0.216,0.12945 0.2915,0.226535 0.086,0.0863 0.1455,0.17799 0.178,0.275075 0.043,0.097085 0.054,0.19417 0.0325,0.291255 0.2695,0.16181 0.485,0.38295 0.647,0.663415 0.1725,0.269685 0.302,0.571725 0.3885,0.90613 0.097,0.3236204 0.1615,0.6688104 0.194,1.0355804 0.043,0.366765 0.0755,0.72814 0.097,1.08414 0.0325,0.35595 0.0595,0.69575 0.081,1.01935 0.0325,0.31285 0.0865,0.58795 0.162,0.82525 0.4745,-0.6904 0.8735,-1.29985 1.197,-1.82845 0.3345,-0.539355 0.669,-1.05175 1.0035,-1.537175 0.3345,-0.4962154 0.7065,-0.9978204 1.1165,-1.5048254 0.4205,-0.507 0.9545,-1.078725 1.602,-1.715172 0.14,0.021574 0.248,0.048543 0.3235,0.080904 0.0755,0.032362 0.151,0.064723 0.2265,0.097087 0.0755,0.03236 0.1565,0.05933 0.2425,0.0809 0.0865,0.01079 0.205,0.0054 0.356,-0.01618 0.054,0.12945 0.092,0.226535 0.1135,0.291255 0.0325,0.05394 0.0595,0.107875 0.081,0.16181 0.0215,0.05394 0.0485,0.124055 0.0805,0.210355 0.0325,0.086295 0.081,0.215745 0.146,0.38834 0.032,0.04315 0.043,0.10248 0.032,0.17799 0,0.06472 -0.005,0.12405 -0.016,0.17799 -0.0105,0.053935 -0.016,0.097085 -0.016,0.129445 0.0105,0.03236 0.0485,0.03236 0.113,0 -0.043,0.183385 -0.113,0.350585 -0.21,0.50161 -0.0975,0.14023 -0.1405,0.31283 -0.1295,0.517785 -0.2915,0.3883454 -0.615,0.7874704 -0.971,1.1973854 -0.356,0.40992 -0.712,0.841395 -1.068,1.294495 -0.356,0.44225 -0.701,0.9061 -1.0355,1.39155 -0.3235,0.4746 -0.5985,0.9816 -0.8255,1.521 -0.0645,0 -0.113,0.01615 -0.1455,0.04855 -0.032,0.03235 -0.0645,0.0701 -0.097,0.11325 -0.0215,0.04315 -0.0485,0.0863 -0.081,0.12945 -0.0215,0.04315 -0.0645,0.0647 -0.1295,0.0647 -0.0215,0.3452 -0.151,0.6742 -0.388,0.98705 -0.2265,0.30205 -0.4585,0.5609496 -0.696,0.7766996 0.0215,0.0863 0.0325,0.1564 0.0325,0.21035 0,0.0539 -0.005,0.10785 -0.0165,0.1618 -0.0105,0.05395 -0.0215,0.11325 -0.032,0.178 0,0.0539 0.006,0.12405 0.016,0.21035 -0.097,0.2589 -0.2265,0.4746 -0.3885,0.6472 -0.151,0.1726 -0.318,0.30205 -0.5015,0.38835 -0.1835,0.0863 -0.372,0.11865 -0.566,0.0971 -0.1945,-0.0108 -0.378,-0.0755 -0.5505,-0.19415 -0.0755,-0.04315 -0.14,-0.1025 -0.194,-0.178 -0.054,-0.0755 -0.1135,-0.14565 -0.178,-0.21035 -0.054,-0.07555 -0.1135,-0.14025 -0.178,-0.1942 -0.054,-0.0647 -0.124,-0.10785 -0.2105,-0.12945 0.0215,-0.10785 0.0215,-0.2211 0,-0.3398 -0.0105,-0.11865 -0.032,-0.2265 -0.0645,-0.3236 -0.0325,-0.0971 -0.07,-0.178 -0.1135,-0.2427 -0.043,-0.06475 -0.086,-0.0971 -0.1295,-0.0971 -0.043,-0.2697 -0.1025,-0.5609496 -0.178,-0.8737496 -0.0645,-0.32365 -0.1345,-0.64185 -0.21,-0.9547 -0.065,-0.3128 -0.119,-0.62025 -0.162,-0.9223 -0.043,-0.30205 -0.0595,-0.5825 -0.0485,-0.8414 0.011,-0.12945 -0.016,-0.2427 -0.081,-0.3398 -0.054,-0.1079 -0.0915,-0.23195 -0.113,-0.37215 z m 17.8265,1.22975 c -0.0105,0.12945 0,0.2535 0.0325,0.37215 0.0325,0.11865 0.07,0.2373 0.1135,0.35595 0.0535,0.1079 0.102,0.22115 0.1455,0.3398 0.043,0.1187 0.0755,0.23735 0.097,0.356 0.0215,0.151 0.0215,0.31825 0,0.5016 -0.0215,0.1726 -0.0595,0.3452 -0.1135,0.5178 -0.0535,0.1618 -0.124,0.31285 -0.21,0.4530496 -0.0865,0.12945 -0.189,0.22655 -0.3075,0.29125 -0.151,0.1942 -0.3345,0.3452 -0.55,0.4531 -0.216,0.10785 -0.4155,0.2373 -0.599,0.3883 -0.1185,0.07555 -0.2535,0.12945 -0.4045,0.16185 -0.14,0.03235 -0.286,0.0647 -0.437,0.09705 -0.1185,0.06475 -0.2585,0.13485 -0.4205,0.21035 -0.162,0.06475 -0.329,0.12945 -0.5015,0.1942 -0.1725,0.05395 -0.3455,0.0971 -0.518,0.12945 -0.1725,0.02155 -0.3235,0.02695 -0.453,0.01615 -0.3235,0.1187 -0.642,0.1942 -0.9545,0.22655 -0.302,0.04315 -0.658,0.0216 -1.068,-0.0647 -0.3885,0.0539 -0.75,0.03775 -1.084,-0.04855 -0.324,-0.0863 -0.615,-0.22115 -0.874,-0.40455 -0.248,-0.19415 -0.469,-0.4207 -0.6635,-0.6796 -0.1835,-0.26965 -0.3345,-0.55015 -0.453,-0.8414 -0.0865,-0.6148496 -0.0645,-1.1703996 0.065,-1.6665996 0.129,-0.507 0.3125,-0.97085 0.55,-1.3916 0.248,-0.43145 0.5285,-0.8252 0.8415,-1.1812 0.3125,-0.36675 0.6145,-0.72275 0.906,-1.0679 0.0645,0.02155 0.113,0.02155 0.1455,0 0.043,-0.0324 0.081,-0.07015 0.1135,-0.1133 0.032,-0.0539 0.0645,-0.10245 0.097,-0.1456 0.043,-0.04315 0.0915,-0.07015 0.1455,-0.0809 0.0755,-0.16183 0.1835,-0.28049 0.3235,-0.356 0.151,-0.08629 0.27,-0.204955 0.356,-0.35598 0.097,-0.02158 0.178,-0.05394 0.243,-0.09708 0.0645,-0.04315 0.124,-0.09169 0.178,-0.145625 0.0645,-0.05394 0.1295,-0.10248 0.194,-0.14563 0.0645,-0.05393 0.1405,-0.09169 0.2265,-0.113265 v -0.17799 c 0.194,-0.0863 0.3345,-0.183385 0.421,-0.291255 0.097,-0.1186604 0.21,-0.2588954 0.3395,-0.4207054 0.097,-0.010785 0.1725,-0.01618 0.2265,-0.01618 0.065,0 0.1565,-0.01079 0.275,-0.03236 0.0865,-0.151025 0.162,-0.26429 0.2265,-0.3398 0.0755,-0.07551 0.1835,-0.156415 0.324,-0.242715 0.1295,0.064725 0.2695,0.107875 0.4205,0.12945 0.162,0.021575 0.302,0.09169 0.4205,0.21035 0.011,0.10787 0.0435,0.19417 0.0975,0.258895 0.0535,0.053935 0.113,0.10787 0.178,0.16181 0.0645,0.043145 0.124,0.09169 0.178,0.145625 0.0645,0.053935 0.1075,0.1294504 0.129,0.2265354 0.0435,0.01079 0.0705,0.0054 0.081,-0.01619 0.0215,-0.02157 0.054,-0.02696 0.097,-0.01618 0.0325,0.151025 0.0705,0.2535 0.1135,0.30744 0.043,0.04314 0.0865,0.13484 0.1295,0.275075 -0.054,0.10787 -0.097,0.221135 -0.1295,0.339795 -0.0215,0.107875 -0.0865,0.18878 -0.194,0.242715 -0.011,0.07551 0.0105,0.11866 0.0645,0.129445 0.054,0 0.0865,0.02697 0.097,0.0809 0.011,0.09708 -0.005,0.167205 -0.0485,0.210355 0.259,0.42071 0.491,0.86836 0.696,1.34301 0.205,0.46385 0.4365,0.90615 0.6955,1.32685 z m -2.0225,1.53715 c 0.043,-0.11865 0.097,-0.21575 0.162,-0.29125 0.0755,-0.0755 0.1185,-0.18875 0.1295,-0.3398 -0.054,-0.0863 -0.0865,-0.151 -0.0975,-0.19415 -0.0105,-0.05395 -0.016,-0.13485 -0.016,-0.2427 -0.2375,-0.33445 -0.4425,-0.6904 -0.615,-1.06795 -0.1725,-0.38835 -0.3665,-0.7497 -0.5825,-1.08415 -0.0215,0.04315 -0.059,0.0863 -0.113,0.12945 -0.054,0.04315 -0.1135,0.0324 -0.178,-0.03235 -0.0215,0.0863 -0.0595,0.15105 -0.1135,0.1942 -0.054,0.03235 -0.113,0.0485 -0.178,0.0485 -0.0645,-0.01075 -0.1345,-0.02695 -0.21,-0.0485 -0.065,-0.0324 -0.1245,-0.07015 -0.178,-0.1133 -0.313,0.2481 -0.626,0.49085 -0.9385,0.72815 -0.313,0.2373 -0.5935,0.5124 -0.8415,0.82525 -0.0435,0.02155 -0.07,0.03235 -0.081,0.03235 -0.011,-0.0108 -0.043,-0.0054 -0.097,0.01615 -0.0865,0.205 -0.1945,0.39375 -0.3235,0.56635 -0.119,0.1618 -0.2375,0.329 -0.356,0.5016 -0.119,0.1726 -0.2215,0.356 -0.3075,0.55015 -0.0865,0.1942 -0.135,0.4207 -0.146,0.6796 0.1835,0.15105 0.3995,0.2427 0.6475,0.2751 0.248,0.03235 0.5015,0.03775 0.7605,0.01615 0.2695,-0.02155 0.5285,-0.05395 0.7765,-0.09705 0.259,-0.05395 0.4965,-0.08095 0.712,-0.08095 0.453,-0.10785 0.8415,-0.2481 1.165,-0.4207 0.3235,-0.18335 0.6635,-0.36675 1.0195,-0.55015 z m 10.238,3.3494496 c -0.1725,0.0108 -0.3885,0.0054 -0.647,-0.01615 -0.2485,-0.0216 -0.4805,0.01615 -0.696,0.11325 -0.5715,-0.0216 -1.1545,-0.0917 -1.7475,-0.21035 -0.5935,-0.11865 -1.138,-0.2643 -1.6345,-0.4369 -0.1075,-0.11865 -0.2155,-0.2265 -0.3235,-0.3236 -0.108,-0.1079 -0.2535,-0.1834 -0.437,-0.22655 -0.2585,-0.20495 -0.469,-0.45305 -0.631,-0.7443 -0.1615,-0.3020496 -0.291,-0.6202996 -0.388,-0.9546996 -0.0975,-0.3344 -0.162,-0.6742 -0.1945,-1.0194 -0.0325,-0.35595 -0.043,-0.69575 -0.0325,-1.01935 0.162,-0.48545 0.3885,-0.90075 0.68,-1.24595 0.302,-0.356 0.6095,-0.70655 0.922,-1.05175 0.1405,-0.06475 0.243,-0.12945 0.3075,-0.1942 0.0755,-0.0755 0.151,-0.1402 0.2265,-0.19415 0.0865,-0.06472 0.1675,-0.124055 0.243,-0.17799 0.086,-0.06473 0.1615,-0.140235 0.2265,-0.22653 0.2265,-0.05394 0.4205,-0.12945 0.5825,-0.226535 0.1725,-0.10787 0.3395,-0.215745 0.5015,-0.323615 0.162,-0.11866 0.329,-0.226535 0.5015,-0.32362 0.1725,-0.09708 0.3725,-0.172595 0.599,-0.226535 0.086,-0.09708 0.1885,-0.172595 0.307,-0.22653 0.119,-0.064725 0.2375,-0.1240554 0.356,-0.1779904 0.1295,-0.064725 0.2485,-0.129445 0.356,-0.19417 0.119,-0.064725 0.2105,-0.15102 0.2755,-0.258895 0.0535,0.0863 0.129,0.11866 0.2265,0.097085 0.097,-0.03236 0.1885,-0.064725 0.275,-0.097085 0.054,-0.010785 0.097,0 0.1295,0.03236 0.043,0.032365 0.0805,0.064725 0.113,0.09709 0.0325,0.03236 0.0595,0.053935 0.081,0.06472 0.0325,0 0.0595,-0.026965 0.081,-0.080905 0.054,0 0.07,0.02697 0.0485,0.080905 -0.0215,0.053935 -0.038,0.091695 -0.0485,0.113265 0.086,-0.010785 0.1565,0.01079 0.21,0.064725 0.065,0.04315 0.162,0.07012 0.2915,0.080905 0.043,0.053935 0.054,0.097085 0.0325,0.129445 -0.0215,0.021575 -0.0325,0.064725 -0.0325,0.1294504 0.3235,0.09708 0.5285,0.2535 0.615,0.469245 0.086,0.20496 0.0915,0.420705 0.016,0.647235 -0.0755,0.226535 -0.2105,0.436885 -0.4045,0.63107 -0.194,0.19415 -0.4045,0.3236 -0.631,0.38835 -0.518,0.1402 -1.0085,0.29665 -1.4725,0.4692 -0.453,0.16185 -0.825,0.40455 -1.1165,0.72815 -0.259,0.0755 -0.491,0.178 -0.6955,0.30745 -0.1945,0.11865 -0.383,0.2589 -0.5665,0.4207 -0.1725,0.151 -0.34,0.31285 -0.5015,0.48545 -0.151,0.1618 -0.313,0.3236 -0.4855,0.4854 0.0105,0.15105 -0.0165,0.2697 -0.081,0.356 -0.054,0.0755 -0.108,0.1564 -0.162,0.2427 0.022,0.1618 0.0595,0.30745 0.1135,0.4369 0.054,0.11865 0.113,0.2373 0.178,0.35595 0.712,0.21575 1.467,0.3506 2.2655,0.40455 0.809,0.0539 1.618,0.0863 2.427,0.09705 0.0755,0.1079 0.1615,0.2103496 0.259,0.3074496 0.1075,0.0863 0.2045,0.1834 0.291,0.29125 0.0865,0.0971 0.1565,0.21035 0.2105,0.3398 0.054,0.11865 0.0645,0.2697 0.0325,0.45305 -0.1515,0.16185 -0.3185,0.31285 -0.502,0.4531 -0.183,0.12945 -0.3665,0.2643 -0.55,0.4045 z m 11.7105,-4.8865996 c -0.011,0.12945 0,0.2535 0.0325,0.37215 0.032,0.11865 0.07,0.2373 0.113,0.35595 0.054,0.1079 0.1025,0.22115 0.1455,0.3398 0.0435,0.1187 0.0755,0.23735 0.0975,0.356 0.0215,0.151 0.0215,0.31825 0,0.5016 -0.022,0.1726 -0.0595,0.3452 -0.1135,0.5178 -0.054,0.1618 -0.124,0.31285 -0.2105,0.4530496 -0.086,0.12945 -0.1885,0.22655 -0.3075,0.29125 -0.151,0.1942 -0.334,0.3452 -0.55,0.4531 -0.2155,0.10785 -0.415,0.2373 -0.5985,0.3883 -0.119,0.07555 -0.2535,0.12945 -0.4045,0.16185 -0.1405,0.03235 -0.286,0.0647 -0.437,0.09705 -0.1185,0.06475 -0.259,0.13485 -0.4205,0.21035 -0.162,0.06475 -0.329,0.12945 -0.502,0.1942 -0.1725,0.05395 -0.345,0.0971 -0.5175,0.12945 -0.1725,0.02155 -0.324,0.02695 -0.453,0.01615 -0.324,0.1187 -0.642,0.1942 -0.955,0.22655 -0.302,0.04315 -0.658,0.0216 -1.068,-0.0647 -0.388,0.0539 -0.7495,0.03775 -1.084,-0.04855 -0.3235,-0.0863 -0.615,-0.22115 -0.8735,-0.40455 -0.2485,-0.19415 -0.4695,-0.4207 -0.6635,-0.6796 -0.1835,-0.26965 -0.3345,-0.55015 -0.453,-0.8414 -0.0865,-0.6148496 -0.065,-1.1703996 0.0645,-1.6665996 0.1295,-0.507 0.313,-0.97085 0.55,-1.3916 0.2485,-0.43145 0.529,-0.8252 0.8415,-1.1812 0.313,-0.36675 0.615,-0.72275 0.906,-1.0679 0.065,0.02155 0.1135,0.02155 0.146,0 0.043,-0.0324 0.081,-0.07015 0.113,-0.1133 0.0325,-0.0539 0.065,-0.10245 0.097,-0.1456 0.0435,-0.04315 0.092,-0.07015 0.146,-0.0809 0.0755,-0.16183 0.183,-0.28049 0.3235,-0.356 0.151,-0.08629 0.2695,-0.204955 0.356,-0.35598 0.097,-0.02158 0.178,-0.05394 0.2425,-0.09708 0.065,-0.04315 0.124,-0.09169 0.178,-0.145625 0.065,-0.05394 0.1295,-0.10248 0.1945,-0.14563 0.0645,-0.05393 0.14,-0.09169 0.2265,-0.113265 v -0.17799 c 0.194,-0.0863 0.334,-0.183385 0.4205,-0.291255 0.097,-0.1186604 0.2105,-0.2588954 0.34,-0.4207054 0.097,-0.010785 0.1725,-0.01618 0.2265,-0.01618 0.0645,0 0.1565,-0.01079 0.275,-0.03236 0.086,-0.151025 0.162,-0.26429 0.2265,-0.3398 0.0755,-0.07551 0.1835,-0.156415 0.3235,-0.242715 0.1295,0.064725 0.27,0.107875 0.421,0.12945 0.1615,0.021575 0.302,0.09169 0.4205,0.21035 0.011,0.10787 0.043,0.19417 0.097,0.258895 0.054,0.053935 0.1135,0.10787 0.178,0.16181 0.065,0.043145 0.124,0.09169 0.178,0.145625 0.065,0.053935 0.108,0.1294504 0.1295,0.2265354 0.043,0.01079 0.07,0.0054 0.081,-0.01619 0.0215,-0.02157 0.054,-0.02696 0.097,-0.01618 0.0325,0.151025 0.07,0.2535 0.1135,0.30744 0.043,0.04314 0.086,0.13484 0.129,0.275075 -0.0535,0.10787 -0.097,0.221135 -0.129,0.339795 -0.022,0.107875 -0.0865,0.18878 -0.1945,0.242715 -0.0105,0.07551 0.011,0.11866 0.065,0.129445 0.054,0 0.086,0.02697 0.097,0.0809 0.0105,0.09708 -0.006,0.167205 -0.0485,0.210355 0.259,0.42071 0.4905,0.86836 0.6955,1.34301 0.205,0.46385 0.437,0.90615 0.696,1.32685 z m -2.0225,1.53715 c 0.043,-0.11865 0.097,-0.21575 0.1615,-0.29125 0.0755,-0.0755 0.119,-0.18875 0.1295,-0.3398 -0.054,-0.0863 -0.086,-0.151 -0.097,-0.19415 -0.011,-0.05395 -0.016,-0.13485 -0.016,-0.2427 -0.2375,-0.33445 -0.4425,-0.6904 -0.615,-1.06795 -0.1725,-0.38835 -0.367,-0.7497 -0.5825,-1.08415 -0.0215,0.04315 -0.0595,0.0863 -0.1135,0.12945 -0.054,0.04315 -0.113,0.0324 -0.178,-0.03235 -0.0215,0.0863 -0.059,0.15105 -0.113,0.1942 -0.054,0.03235 -0.1135,0.0485 -0.178,0.0485 -0.065,-0.01075 -0.135,-0.02695 -0.2105,-0.0485 -0.0645,-0.0324 -0.124,-0.07015 -0.178,-0.1133 -0.313,0.2481 -0.6255,0.49085 -0.9385,0.72815 -0.313,0.2373 -0.593,0.5124 -0.8415,0.82525 -0.043,0.02155 -0.07,0.03235 -0.0805,0.03235 -0.011,-0.0108 -0.0435,-0.0054 -0.0975,0.01615 -0.086,0.205 -0.194,0.39375 -0.3235,0.56635 -0.1185,0.1618 -0.2375,0.329 -0.356,0.5016 -0.1185,0.1726 -0.221,0.356 -0.3075,0.55015 -0.086,0.1942 -0.1345,0.4207 -0.1455,0.6796 0.1835,0.15105 0.399,0.2427 0.6475,0.2751 0.248,0.03235 0.5015,0.03775 0.7605,0.01615 0.2695,-0.02155 0.5285,-0.05395 0.7765,-0.09705 0.259,-0.05395 0.496,-0.08095 0.712,-0.08095 0.453,-0.10785 0.8415,-0.2481 1.165,-0.4207 0.3235,-0.18335 0.6635,-0.36675 1.0195,-0.55015 z m 11.4835,-1.05175 c -0.0105,0.05395 -0.0215,0.1025 -0.032,0.14565 -0.011,0.03235 -0.0215,0.0647 -0.0325,0.09705 -0.011,0.0324 -0.016,0.07555 -0.016,0.12945 0,0.04315 0,0.1025 0,0.178 -0.324,0.57175 -0.7335,1.05175 -1.23,1.4401 -0.4855,0.3883496 -1.0245,0.7335496 -1.618,1.0355996 -0.5825,0.29125 -1.192,0.5609 -1.8285,0.80905 -0.6365,0.2373 -1.2565,0.4962 -1.861,0.77665 -0.2585,-0.0647 -0.458,-0.1726 -0.5985,-0.3236 -0.1295,-0.15105 -0.232,-0.3236 -0.3075,-0.5178 -0.0645,-0.20495 -0.113,-0.4261 -0.1455,-0.6634 -0.0215,-0.2481 -0.043,-0.5016 -0.065,-0.7605 0.0325,-0.1186496 0.076,-0.2157496 0.1295,-0.2912496 0.065,-0.0863 0.0975,-0.20495 0.0975,-0.356 0.086,-0.28045 0.1725,-0.55555 0.2585,-0.8252 0.0865,-0.2697 0.1405,-0.5448 0.162,-0.82525 0.0325,-0.0863 0.0915,-0.1456 0.178,-0.178 0.054,-0.51775 0.054,-1.04095 0,-1.56955 -0.043,-0.53935 -0.1295,-1.04095 -0.259,-1.504805 0.011,-0.10787 0.0215,-0.183385 0.0325,-0.22653 0.0215,-0.05394 0.0215,-0.09169 0,-0.11327 -0.011,-0.08629 0.016,-0.129445 0.081,-0.129445 0.0755,0 0.151,0 0.2265,0 0,-0.16181 -0.0325,-0.32362 -0.097,-0.485425 -0.054,-0.16181 -0.108,-0.345195 -0.162,-0.55015 0.0755,-0.16181 0.124,-0.3182254 0.1455,-0.4692504 0.0215,-0.161805 0.07,-0.30204 0.1455,-0.4207 0.583,0.183385 1.1385,0.40452 1.667,0.663415 0.539,0.2588954 1.068,0.4476704 1.5855,0.5663304 0.3885,0.28047 0.7875,0.56094 1.1975,0.84141 0.41,0.26968 0.782,0.57172 1.1165,0.90612 0.3345,0.3236 0.615,0.6958 0.8415,1.1165 0.2265,0.4207 0.356,0.9223 0.388,1.5048 z m -3.8345,0.88995 c 0.2265,-0.0863 0.4475,-0.178 0.6635,-0.27505 0.2265,-0.0971 0.431,-0.20495 0.6145,-0.32365 0.1945,-0.12945 0.367,-0.27505 0.518,-0.43685 0.151,-0.16185 0.275,-0.356 0.372,-0.58255 -0.0645,-0.12945 -0.151,-0.2427 -0.259,-0.3398 -0.1075,-0.10785 -0.2155,-0.20495 -0.3235,-0.29125 -0.108,-0.09705 -0.2155,-0.19415 -0.3235,-0.29125 -0.097,-0.09705 -0.178,-0.21575 -0.243,-0.35595 -0.14,-0.0216 -0.264,-0.05935 -0.372,-0.1133 -0.108,-0.0647 -0.2155,-0.12405 -0.3235,-0.178 -0.097,-0.0647 -0.205,-0.12405 -0.3235,-0.17795 -0.108,-0.05395 -0.2375,-0.0863 -0.3885,-0.0971 -0.2375,-0.11865 -0.453,-0.20495 -0.647,-0.2589 -0.1835,-0.05395 -0.324,-0.12405 -0.421,-0.21035 -0.0755,0 -0.135,0.0162 -0.178,0.04855 0.108,0.4099 0.189,0.79825 0.243,1.165 0.0535,0.356 0.0805,0.71735 0.0805,1.08415 0.011,0.35595 -0.005,0.72275 -0.0485,1.1003 -0.043,0.37755 -0.1025,0.78745 -0.178,1.22975 0.108,-0.0108 0.205,-0.03235 0.2915,-0.06475 0.097,-0.04315 0.1885,-0.0863 0.275,-0.12945 0.097,-0.04315 0.194,-0.0809 0.291,-0.11325 0.108,-0.04315 0.232,-0.0701 0.3725,-0.0809 0.0325,-0.06475 0.0755,-0.11865 0.1295,-0.1618 0.0645,-0.04315 0.124,-0.0917 0.178,-0.14565 z m 13.458,-5.63094 c 0.0105,0.07551 0.0105,0.13484 0,0.17799 0,0.03236 -0.005,0.06472 -0.0165,0.09708 0,0.03237 0,0.07012 0,0.113265 0,0.03236 0.011,0.0863 0.0325,0.16181 -0.2265,0.36677 -0.491,0.62027 -0.793,0.760505 -0.291,0.129445 -0.6095,0.22653 -0.9545,0.291255 -0.345,0.05393 -0.701,0.11328 -1.068,0.17798 -0.356,0.06475 -0.712,0.20495 -1.068,0.4207 -0.14,-0.0539 -0.2695,-0.0539 -0.3885,0 -0.1075,0.05395 -0.2695,0.07015 -0.485,0.04855 -0.065,0.06475 -0.146,0.11325 -0.243,0.14565 -0.097,0.02155 -0.194,0.0485 -0.291,0.0809 0.043,0.09705 0.059,0.19955 0.0485,0.3074 0,0.0971 0.016,0.178 0.0485,0.24275 0.3775,0.03235 0.793,0.02695 1.246,-0.0162 0.4635,-0.04315 0.917,-0.0701 1.359,-0.0809 0.011,0.05395 0.005,0.0917 -0.016,0.11325 -0.0215,0.0108 -0.027,0.03775 -0.0165,0.0809 0.0755,0.05395 0.151,0.1241 0.2265,0.21035 0.0755,0.07555 0.151,0.15105 0.2265,0.22655 0.076,0.0755 0.1515,0.14025 0.227,0.1942 0.086,0.04315 0.183,0.0593 0.291,0.0485 0.043,0.0863 0.07,0.1834 0.081,0.2913 0.0215,0.09705 0.0105,0.19955 -0.0325,0.3074 -0.1725,0.11865 -0.345,0.24275 -0.5175,0.37215 -0.173,0.1187 -0.356,0.22655 -0.5505,0.32365 -0.183,0.0971 -0.383,0.178 -0.5985,0.2427 -0.205,0.05395 -0.437,0.0755 -0.696,0.06475 -0.054,0 -0.097,0 -0.1295,0 -0.0215,0 -0.0535,-0.0162 -0.097,-0.04855 -0.086,0.0539 -0.21,0.0701 -0.372,0.04855 -0.151,-0.0216 -0.2695,-0.0054 -0.356,0.0485 -0.1185,-0.0539 -0.2645,-0.0755 -0.437,-0.0647 -0.1615,0 -0.3075,-0.0216 -0.437,-0.06475 -0.1725,0.22655 -0.329,0.46925 -0.469,0.72815 -0.1405,0.2589 -0.2645,0.534 -0.372,0.82525 0.3665,0.0539 0.6685,0.0755 0.906,0.0647 0.248,-0.0108 0.48,-0.02695 0.6955,-0.04855 0.216,-0.03235 0.437,-0.0593 0.6635,-0.0809 0.2265,-0.03235 0.5125,-0.04315 0.8575,-0.03235 0.216,-0.11865 0.4695,-0.19415 0.7605,-0.22655 0.3025,-0.04315 0.5775,-0.10785 0.8255,-0.19415 0.0865,0.03235 0.162,0.0917 0.2265,0.178 0.0645,0.0755 0.124,0.151 0.178,0.2265 0.0645,0.06475 0.1295,0.12405 0.194,0.178 0.065,0.05395 0.146,0.0755 0.243,0.06475 0.043,0.04315 0.07,0.09705 0.081,0.1617996 0.0215,0.05395 0.0375,0.10785 0.0485,0.1618 0.0105,0.05395 0.027,0.1025 0.0485,0.14565 0.032,0.03235 0.081,0.04315 0.1455,0.03235 -0.162,0.35595 -0.3505,0.63105 -0.5665,0.8252 -0.205,0.1834 -0.442,0.32365 -0.712,0.4207 -0.2695,0.0971 -0.5715,0.1726 -0.906,0.22655 -0.3235,0.05395 -0.685,0.11865 -1.084,0.19415 -0.097,0.0216 -0.178,0.0162 -0.243,-0.01615 -0.0645,-0.0216 -0.14,-0.03235 -0.2265,-0.03235 -0.248,0.0539 -0.5445,0.10245 -0.89,0.1456 -0.345,0.04315 -0.6955,0.05935 -1.0515,0.04855 -0.356,-0.0108 -0.696,-0.05935 -1.0195,-0.14565 -0.3235,-0.0755 -0.588,-0.2157 -0.793,-0.4207 -0.086,-0.0755 -0.1455,-0.1618 -0.178,-0.25885 -0.0215,-0.1079 -0.0915,-0.1888 -0.21,-0.24275 -0.011,-0.1402 -0.0325,-0.29665 -0.065,-0.46925 -0.032,-0.1726 -0.0645,-0.35055 -0.097,-0.53395 -0.0325,-0.19415 -0.059,-0.3829496 -0.081,-0.5663496 -0.0105,-0.18335 0,-0.35055 0.0325,-0.5016 0.0325,-0.1618 0.097,-0.30745 0.194,-0.43685 0.108,-0.12945 0.146,-0.2697 0.1135,-0.42075 0.054,-0.01075 0.0865,-0.03775 0.097,-0.0809 0.011,-0.0539 0.054,-0.0755 0.1295,-0.0647 0.0645,-0.1942 0.135,-0.37755 0.2105,-0.55015 0.0755,-0.1726 0.151,-0.3398 0.2265,-0.5016 0.086,-0.1618 0.167,-0.32365 0.2425,-0.48545 0.0865,-0.1726 0.1675,-0.36135 0.243,-0.5663 -0.151,-0.14025 -0.2645,-0.2913 -0.34,-0.4531 -0.0645,-0.1726 -0.113,-0.3398 -0.1455,-0.5016 -0.0325,-0.1726 -0.0595,-0.3452 -0.081,-0.51778 -0.0215,-0.183385 -0.0595,-0.36677 -0.1135,-0.55015 0.108,-0.16181 0.2375,-0.291255 0.3885,-0.38834 0.162,-0.107875 0.3345,-0.194175 0.518,-0.258895 0.183,-0.06473 0.383,-0.11866 0.5985,-0.16181 0.216,-0.04315 0.4425,-0.09169 0.6795,-0.14563 0.4315,-0.140235 0.8145,-0.2481054 1.149,-0.3236154 0.345,-0.07551 0.6795,-0.13484 1.003,-0.17799 0.3345,-0.053935 0.68,-0.10248 1.036,-0.14563 0.356,-0.04315 0.7605,-0.10787 1.2135,-0.19417 0.097,0.097085 0.1885,0.14563 0.275,0.14563 0.043,-0.097085 0.0915,-0.124055 0.1455,-0.080905 0.065,0.03236 0.0915,0 0.081,-0.097085 0.108,0.18338 0.2425,0.339795 0.4045,0.469245 0.1725,0.11866 0.3615,0.2211404 0.5665,0.3074354 z m 2.552,7.4270396 c -0.119,0.4315 -0.2265,0.7605 -0.324,0.987 -0.086,0.21575 -0.221,0.4423 -0.4045,0.6796 -0.14,-0.02155 -0.237,-0.0053 -0.291,0.04855 -0.054,0.05395 -0.1135,0.1025 -0.178,0.14565 -0.097,0.02155 -0.167,0.02155 -0.2105,0 -0.043,-0.0216 -0.081,-0.04855 -0.113,-0.0809 -0.0325,-0.0216 -0.0755,-0.04855 -0.1295,-0.0809 -0.043,-0.0216 -0.1135,-0.0324 -0.2105,-0.0324 -0.0215,-0.0863 -0.0485,-0.1672 -0.081,-0.2427 -0.0215,-0.0755 -0.0915,-0.10245 -0.21,-0.0809 0.0215,-0.0863 0.027,-0.1564 0.016,-0.21035 -0.011,-0.0647 -0.027,-0.11865 -0.0485,-0.1618 -0.011,-0.05395 -0.0215,-0.1025 -0.0325,-0.14565 -0.0105,-0.0539 -0.005,-0.11865 0.0165,-0.19415 -0.054,0 -0.0975,-0.03775 -0.1295,-0.11325 -0.0325,-0.07555 -0.0705,-0.15105 -0.1135,-0.22655 0.0325,-0.1942 0.065,-0.37755 0.097,-0.55015 0.0325,-0.1725996 0.07,-0.3343996 0.1135,-0.4854496 0.054,-0.151 0.097,-0.30205 0.1295,-0.45305 0.032,-0.151 0.016,-0.30745 -0.0485,-0.46925 0.043,0.03235 0.0755,0.02695 0.097,-0.01615 0.0215,-0.05395 0.0375,-0.1187 0.0485,-0.1942 0.0105,-0.0863 0.016,-0.1672 0.016,-0.2427 0,-0.0863 -0.006,-0.1564 -0.016,-0.21035 0.108,-0.2805 0.194,-0.56635 0.259,-0.8576 0.0755,-0.30205 0.14,-0.5987 0.194,-0.88995 0.0645,-0.29125 0.1295,-0.5771 0.194,-0.8576 0.065,-0.28045 0.151,-0.53935 0.259,-0.77665 0.1185,-0.0216 0.248,-0.0054 0.3885,0.04855 0.151,0.04315 0.2425,0.10245 0.275,0.17795 0.2805,-0.21575 0.5285,-0.47462 0.7445,-0.776665 0.2155,-0.31283 0.4365,-0.614875 0.663,-0.90613 0.2265,-0.291255 0.475,-0.5501504 0.7445,-0.7766804 0.2805,-0.226535 0.631,-0.361375 1.052,-0.404525 0.2155,0.16181 0.453,0.32901 0.7115,0.50161 0.27,0.161805 0.491,0.3775504 0.6635,0.6472354 0.0865,0.04315 0.1565,0.09169 0.2105,0.145625 0.0645,0.04315 0.14,0.09169 0.2265,0.14563 v 0.19417 c 0.1295,0.11866 0.232,0.258895 0.3075,0.420705 0.0865,0.15102 0.162,0.31822 0.2265,0.501625 0.0645,0.1726 0.1295,0.35055 0.194,0.53395 0.065,0.1726 0.1405,0.3398 0.2265,0.5016 -0.0215,0.05395 -0.032,0.1025 -0.032,0.14565 0,0.03235 0.005,0.0701 0.016,0.11325 0.0215,0.04315 0.038,0.0863 0.0485,0.12945 0.011,0.04315 0.011,0.1025 0,0.178 -0.0325,0.47465 -0.1885,0.8576 -0.469,1.14885 -0.27,0.29125 -0.599,0.53395 -0.987,0.7281 -0.3885,0.1834 -0.804,0.3398 -1.246,0.46925 -0.4425,0.12945 -0.8415,0.2697 -1.1975,0.4207 0,0.04315 0.016,0.06475 0.0485,0.06475 0.043,0 0.0595,0.02695 0.0485,0.0809 0.259,0.1618 0.464,0.29125 0.615,0.38835 0.151,0.09705 0.291,0.178 0.4205,0.2427 0.1405,0.06475 0.286,0.12405 0.437,0.178 0.162,0.04315 0.383,0.0971 0.6635,0.1617996 0.2805,0.0647 0.496,0.11865 0.647,0.1618 0.162,0.03235 0.3075,0.06475 0.437,0.0971 0.1295,0.02155 0.259,0.04315 0.3885,0.0647 0.14,0.0108 0.3345,0.027 0.5825,0.04855 0.097,0.0971 0.178,0.21575 0.2425,0.356 0.0755,0.12945 0.124,0.2643 0.146,0.4045 0.0215,0.12945 0.0265,0.2589 0.016,0.38835 -0.011,0.11865 -0.0485,0.21575 -0.1135,0.29125 0.011,0.03235 0.0325,0.04855 0.065,0.04855 0.043,-0.0108 0.086,-0.0108 0.1295,0 -0.065,0.04315 -0.119,0.0971 -0.162,0.1618 -0.043,0.06475 -0.0865,0.12945 -0.1295,0.1942 -0.043,0.0647 -0.0915,0.11865 -0.1455,0.1618 -0.054,0.05395 -0.1295,0.0863 -0.2265,0.0971 -0.3345,0.1294 -0.755,0.1348 -1.262,0.01615 -0.507,-0.10785 -1.149,-0.3128 -1.9255,-0.61485 -0.3885,-0.15105 -0.707,-0.2805 -0.955,-0.38835 -0.237,-0.11865 -0.4475,-0.23195 -0.631,-0.3398 -0.1725,-0.11865 -0.3345,-0.2427 -0.4855,-0.37215 -0.14,-0.12945 -0.3125,-0.2859 -0.5175,-0.46925 z m 2.3135,-5.5500496 c -0.1185,0.1726 -0.2535,0.329 -0.4045,0.46925 -0.14,0.1402 -0.2805,0.28585 -0.4205,0.43685 -0.1295,0.14025 -0.248,0.30205 -0.356,0.48545 -0.108,0.1726 -0.1835,0.37755 -0.2265,0.61485 0.3775,-0.04315 0.7715,-0.1456 1.181,-0.3074 0.41,-0.1726 0.7985,-0.3344 1.165,-0.48545 -0.043,-0.3344 -0.1615,-0.6041 -0.356,-0.80905 -0.183,-0.20495 -0.3775,-0.3398 -0.5825,-0.4045 z"
     fill="#444444"
     id="path2"
     style="stroke-width:0.5" />
</svg>
