<?xml version="1.0" encoding="UTF-8" standalone="no"?>
<svg
   width="44.918922"
   height="44.918663"
   viewBox="0 0 44.918922 44.918663"
   fill="none"
   version="1.1"
   id="svg43"
   sodipodi:docname="knob-metal-1.svg"
   inkscape:version="1.1 (c68e22c387, 2021-05-23)"
   xmlns:inkscape="http://www.inkscape.org/namespaces/inkscape"
   xmlns:sodipodi="http://sodipodi.sourceforge.net/DTD/sodipodi-0.dtd"
   xmlns="http://www.w3.org/2000/svg"
   xmlns:svg="http://www.w3.org/2000/svg">
  <sodipodi:namedview
     id="namedview45"
     pagecolor="#ffffff"
     bordercolor="#666666"
     borderopacity="1.0"
     inkscape:pageshadow="2"
     inkscape:pageopacity="0.0"
     inkscape:pagecheckerboard="0"
     showgrid="false"
     inkscape:zoom="16.869565"
     inkscape:cx="22.673969"
     inkscape:cy="22.525773"
     inkscape:window-width="1920"
     inkscape:window-height="1011"
     inkscape:window-x="0"
     inkscape:window-y="0"
     inkscape:window-maximized="1"
     inkscape:current-layer="g1150"
     fit-margin-top="0"
     fit-margin-left="0"
     fit-margin-right="0"
     fit-margin-bottom="0" />
  <g
     id="g1150"
     transform="rotate(-135,22.550563,22.777785)">
    <path
       fill-rule="evenodd"
       clip-rule="evenodd"
       d="M 27.9136,0.500883 C 26.9665,2.15071 25.0768,3.27583 22.9001,3.27583 c -2.187,0 -4.0844,-1.13591 -5.027,-2.798657 C 15.2021,1.06517 12.7052,2.11746 10.4713,3.54512 10.9797,5.38695 10.4411,7.53087 8.89515,9.07683 7.35641,10.6156 5.22527,11.1563 3.38926,10.6601 c -1.39832,2.2104 -2.430225,4.6758 -3.010354,7.3105 1.662894,0.9425 2.798934,2.84 2.798934,5.0272 0,2.1769 -1.1254,4.0668 -2.775554,5.0138 0.592366,2.6313 1.635734,5.0918 3.044654,7.2962 1.84194,-0.5086 3.98613,0.0299 5.53225,1.5761 1.53881,1.5387 2.07951,3.67 1.58321,5.506 2.2105,1.3982 4.6757,2.43 7.3105,3.01 0.9424,-1.663 2.8399,-2.7991 5.0272,-2.7991 2.1769,0 4.0667,1.1254 5.0137,2.7754 2.5949,-0.5842 5.0237,-1.6071 7.2046,-2.9866 -0.4962,-1.836 0.0445,-3.967 1.5832,-5.5057 1.546,-1.546 3.6899,-2.0845 5.5317,-1.5762 1.4089,-2.2043 2.4523,-4.6649 3.0446,-7.2961 -1.6502,-0.947 -2.7756,-2.8369 -2.7756,-5.0138 0,-2.1872 1.1361,-4.0847 2.799,-5.0272 -0.5801,-2.6347 -1.612,-5.0999 -3.0102,-7.3103 -1.8358,0.4958 -3.9665,-0.045 -5.505,-1.58352 C 35.2404,7.53099 34.7017,5.38739 35.2098,3.54571 33.0054,2.13674 30.5449,1.09331 27.9136,0.500883 Z"
       fill="url(#paint0_radial)"
       id="path2"
       style="fill:url(#paint0_radial)" />
    <circle
       cx="22.7819"
       cy="22.880699"
       r="16.7092"
       fill="#000000"
       stroke="url(#paint1_linear)"
       stroke-width="4"
       id="circle4"
       style="stroke:url(#paint1_linear)" />
    <circle
       cx="22.7827"
       cy="22.8804"
       r="17.6367"
       fill="url(#paint2_linear)"
       id="circle6"
       style="fill:url(#paint2_linear)" />
    <rect
       x="21.769501"
       y="7.8154302"
       width="2.02808"
       height="8.9688501"
       rx="1.01404"
       fill="#000000"
       fill-opacity="0.5"
       id="rect8"
       style="fill:#000000;fill-opacity:0.747555" />
  </g>
  <defs
     id="defs41">
    <radialGradient
       id="paint0_radial"
       cx="0"
       cy="0"
       r="1"
       gradientUnits="userSpaceOnUse"
       gradientTransform="matrix(0,22.4614,-22.4612,0,22.8401,22.9386)">
      <stop
         stop-color="#383838"
         id="stop10" />
      <stop
         offset="1"
         stop-color="#1E1E1E"
         id="stop12" />
    </radialGradient>
    <linearGradient
       id="paint1_linear"
       x1="22.7819"
       y1="4.1715102"
       x2="22.7819"
       y2="41.589802"
       gradientUnits="userSpaceOnUse">
      <stop
         stop-color="#888888"
         id="stop15" />
      <stop
         offset="0.71875"
         stop-color="#202020"
         id="stop17" />
      <stop
         offset="1"
         stop-color="#3B3B3B"
         id="stop19" />
    </linearGradient>
    <linearGradient
       id="paint2_linear"
       x1="22.7827"
       y1="5.2437701"
       x2="75.5"
       y2="114.5"
       gradientUnits="userSpaceOnUse">
      <stop
         stop-color="#826130"
         id="stop24"
         style="stop-color:#b0ab83;stop-opacity:1" />
      <stop
         offset="0.364583"
         stop-color="#7F5E2E"
         id="stop28"
         style="stop-color:#b8a786;stop-opacity:1" />
      <stop
         offset="0.604167"
         stop-color="#5F3F14"
         id="stop32"
         style="stop-color:#a9a26f;stop-opacity:1" />
      <stop
         offset="1"
         stop-color="#81602F"
         id="stop36"
         style="stop-color:#9e8d55;stop-opacity:1" />
    </linearGradient>
  </defs>
</svg>
