<svg width="464" height="464" viewBox="0 0 464 464" fill="none" xmlns="http://www.w3.org/2000/svg">
<g filter="url(#filter0_d)">
<circle cx="232" cy="218" r="212" fill="#2A2A2A"/>
<circle cx="232" cy="218" r="212" fill="url(#paint0_linear)" fill-opacity="0.5"/>
<circle cx="232" cy="218" r="208" stroke="url(#paint1_linear)" stroke-width="8"/>
</g>
<g filter="url(#filter1_d)">
<rect x="229.061" y="30" width="4.98829" height="4.98829" rx="2" fill="#C4C4C4"/>
<rect x="227.561" y="28.5" width="7.98829" height="7.98829" rx="3.5" stroke="black" stroke-width="3"/>
</g>
<g filter="url(#filter2_d)">
<rect x="281.734" y="41.9228" width="4.98829" height="4.98829" rx="2" transform="rotate(-165 281.734 41.9228)" fill="#C4C4C4"/>
<rect x="282.794" y="43.7599" width="7.98829" height="7.98829" rx="3.5" transform="rotate(-165 282.794 43.7599)" stroke="black" stroke-width="3"/>
</g>
<g filter="url(#filter3_d)">
<rect x="325.998" y="60.9626" width="4.98829" height="4.98829" rx="2" transform="rotate(-150 325.998 60.9626)" fill="#C4C4C4"/>
<rect x="326.547" y="63.0117" width="7.98829" height="7.98829" rx="3.5" transform="rotate(-150 326.547 63.0117)" stroke="black" stroke-width="3"/>
</g>
<g filter="url(#filter4_d)">
<rect x="99.283" y="355.354" width="4.98829" height="4.98829" rx="2" transform="rotate(-135 99.283 355.354)" fill="#C4C4C4"/>
<rect x="99.283" y="357.476" width="7.98829" height="7.98829" rx="3.5" transform="rotate(-135 99.283 357.476)" stroke="black" stroke-width="3"/>
</g>
<g filter="url(#filter5_d)">
<rect x="363.827" y="90.8103" width="4.98829" height="4.98829" rx="2" transform="rotate(-135 363.827 90.8103)" fill="#C4C4C4"/>
<rect x="363.827" y="92.9316" width="7.98829" height="7.98829" rx="3.5" transform="rotate(-135 363.827 92.9316)" stroke="black" stroke-width="3"/>
</g>
<g filter="url(#filter6_d)">
<rect x="68.6426" y="316.493" width="4.98829" height="4.98829" rx="2" transform="rotate(-120 68.6426 316.493)" fill="#D7C476"/>
<rect x="68.0936" y="318.542" width="7.98829" height="7.98829" rx="3.5" transform="rotate(-120 68.0936 318.542)" stroke="black" stroke-width="3"/>
</g>
<g filter="url(#filter7_d)">
<rect x="392.642" y="129.432" width="4.98829" height="4.98829" rx="2" transform="rotate(-120 392.642 129.432)" fill="#C4C4C4"/>
<rect x="392.093" y="131.481" width="7.98829" height="7.98829" rx="3.5" transform="rotate(-120 392.093 131.481)" stroke="black" stroke-width="3"/>
</g>
<g filter="url(#filter8_d)">
<rect x="49.1045" y="271.025" width="4.98829" height="4.98829" rx="2" transform="rotate(-105 49.1045 271.025)" fill="#C4C4C4"/>
<rect x="48.0438" y="272.862" width="7.98829" height="7.98829" rx="3.5" transform="rotate(-105 48.0438 272.862)" stroke="black" stroke-width="3"/>
</g>
<g filter="url(#filter9_d)">
<rect x="410.478" y="174.195" width="4.98829" height="4.98829" rx="2" transform="rotate(-105 410.478 174.195)" fill="#C4C4C4"/>
<rect x="409.418" y="176.032" width="7.98829" height="7.98829" rx="3.5" transform="rotate(-105 409.418 176.032)" stroke="black" stroke-width="3"/>
</g>
<g filter="url(#filter10_d)">
<rect x="42" y="222.049" width="4.98829" height="4.98829" rx="2" transform="rotate(-90 42 222.049)" fill="#C4C4C4"/>
<rect x="40.5" y="223.549" width="7.98829" height="7.98829" rx="3.5" transform="rotate(-90 40.5 223.549)" stroke="black" stroke-width="3"/>
</g>
<g filter="url(#filter11_d)">
<rect x="416.122" y="222.049" width="4.98829" height="4.98829" rx="2" transform="rotate(-90 416.122 222.049)" fill="#C4C4C4"/>
<rect x="414.622" y="223.549" width="7.98829" height="7.98829" rx="3.5" transform="rotate(-90 414.622 223.549)" stroke="black" stroke-width="3"/>
</g>
<g filter="url(#filter12_d)">
<rect x="47.8134" y="172.904" width="4.98829" height="4.98829" rx="2" transform="rotate(-75 47.8134 172.904)" fill="#C4C4C4"/>
<rect x="45.9763" y="173.964" width="7.98829" height="7.98829" rx="3.5" transform="rotate(-75 45.9763 173.964)" stroke="black" stroke-width="3"/>
</g>
<g filter="url(#filter13_d)">
<rect x="409.187" y="269.734" width="4.98829" height="4.98829" rx="2" transform="rotate(-75 409.187 269.734)" fill="#C4C4C4"/>
<rect x="407.35" y="270.794" width="7.98829" height="7.98829" rx="3.5" transform="rotate(-75 407.35 270.794)" stroke="black" stroke-width="3"/>
</g>
<g filter="url(#filter14_d)">
<rect x="66.1485" y="126.938" width="4.98829" height="4.98829" rx="2" transform="rotate(-60 66.1485 126.938)" fill="#C4C4C4"/>
<rect x="64.0995" y="127.487" width="7.98829" height="7.98829" rx="3.5" transform="rotate(-60 64.0995 127.487)" stroke="black" stroke-width="3"/>
</g>
<g filter="url(#filter15_d)">
<rect x="390.147" y="313.998" width="4.98829" height="4.98829" rx="2" transform="rotate(-60 390.147 313.998)" fill="#C4C4C4"/>
<rect x="388.098" y="314.547" width="7.98829" height="7.98829" rx="3.5" transform="rotate(-60 388.098 314.547)" stroke="black" stroke-width="3"/>
</g>
<g filter="url(#filter16_d)">
<rect x="95.7558" y="87.283" width="4.98829" height="4.98829" rx="2" transform="rotate(-45 95.7558 87.283)" fill="#C4C4C4"/>
<rect x="93.6344" y="87.283" width="7.98829" height="7.98829" rx="3.5" transform="rotate(-45 93.6344 87.283)" stroke="black" stroke-width="3"/>
</g>
<g filter="url(#filter17_d)">
<rect x="360.3" y="351.827" width="4.98829" height="4.98829" rx="2" transform="rotate(-45 360.3 351.827)" fill="#C4C4C4"/>
<rect x="358.178" y="351.827" width="7.98829" height="7.98829" rx="3.5" transform="rotate(-45 358.178 351.827)" stroke="black" stroke-width="3"/>
</g>
<g filter="url(#filter18_d)">
<rect x="134.618" y="56.6426" width="4.98829" height="4.98829" rx="2" transform="rotate(-30 134.618 56.6426)" fill="#C4C4C4"/>
<rect x="132.568" y="56.0936" width="7.98829" height="7.98829" rx="3.5" transform="rotate(-30 132.568 56.0936)" stroke="black" stroke-width="3"/>
</g>
<g filter="url(#filter19_d)">
<rect x="180.085" y="37.1045" width="4.98829" height="4.98829" rx="2" transform="rotate(-15 180.085 37.1045)" fill="#C4C4C4"/>
<rect x="178.248" y="36.0438" width="7.98829" height="7.98829" rx="3.5" transform="rotate(-15 178.248 36.0438)" stroke="black" stroke-width="3"/>
</g>
<g filter="url(#filter20_d)">
<circle cx="232" cy="218" r="158" fill="#282727"/>
<circle cx="232" cy="218" r="156" stroke="url(#paint2_linear)" stroke-width="4"/>
</g>
<g filter="url(#filter21_d)">
<path fill-rule="evenodd" clip-rule="evenodd" d="M222.413 91.3155L225.058 117.771C225.058 121.467 228.055 124.463 231.751 124.463C235.447 124.463 238.444 121.467 238.444 117.771L241.086 91.353C246.095 91.7229 251.025 92.38 255.858 93.308L251.563 119.567C250.607 123.138 252.725 126.808 256.296 127.764C259.866 128.721 263.536 126.602 264.493 123.032L273.895 98.1623C278.627 99.8158 283.232 101.738 287.693 103.911L276.741 128.18C274.893 131.381 275.989 135.474 279.19 137.322C282.391 139.17 286.485 138.073 288.333 134.872L303.845 113.293C307.981 116.116 311.943 119.175 315.713 122.449L298.858 143.05C296.244 145.663 296.244 149.901 298.858 152.515C301.472 155.128 305.709 155.128 308.323 152.515L328.893 135.685C332.133 139.446 335.158 143.397 337.951 147.519L316.329 163.062C313.128 164.91 312.032 169.003 313.88 172.204C315.728 175.405 319.821 176.502 323.022 174.654L347.277 163.708C349.434 168.177 351.34 172.789 352.977 177.528L328.043 186.955C324.473 187.911 322.354 191.581 323.31 195.151C324.267 198.722 327.937 200.841 331.507 199.884L357.767 195.589C358.683 200.458 359.325 205.425 359.675 210.472L333.229 213.117C329.533 213.117 326.536 216.113 326.536 219.809C326.536 223.506 329.533 226.502 333.229 226.502L359.631 229.142C359.26 234.151 358.601 239.081 357.671 243.913L331.433 239.622C327.862 238.665 324.192 240.784 323.236 244.354C322.279 247.924 324.398 251.594 327.968 252.551L352.813 261.944C351.158 266.675 349.234 271.279 347.06 275.738L322.82 264.799C319.619 262.951 315.526 264.048 313.678 267.249C311.83 270.45 312.927 274.543 316.128 276.391L337.677 291.882C334.854 296.017 331.795 299.978 328.52 303.746L307.95 286.916C305.337 284.303 301.099 284.303 298.485 286.916C295.872 289.53 295.872 293.768 298.485 296.381L315.288 316.918C311.527 320.157 307.576 323.181 303.454 325.972L287.938 304.388C286.09 301.187 281.997 300.09 278.796 301.938C275.595 303.786 274.498 307.879 276.346 311.081L287.273 335.292C282.805 337.449 278.193 339.354 273.455 340.991L264.045 316.101C263.089 312.531 259.419 310.412 255.848 311.369C252.278 312.325 250.159 315.995 251.116 319.566L255.404 345.778C250.716 346.661 245.938 347.289 241.086 347.647L238.444 321.229C238.444 317.533 235.447 314.536 231.751 314.536C228.055 314.536 225.058 317.533 225.058 321.229L222.413 347.685C217.371 347.333 212.41 346.69 207.546 345.774L211.834 319.557C212.79 315.987 210.672 312.317 207.101 311.361C203.531 310.404 199.861 312.523 198.904 316.093L189.494 340.982C184.757 339.345 180.146 337.438 175.679 335.281L186.604 311.072C188.452 307.871 187.355 303.778 184.154 301.93C180.953 300.082 176.86 301.179 175.012 304.38L159.5 325.958C155.379 323.166 151.428 320.14 147.667 316.901L164.456 296.381C167.07 293.768 167.07 289.53 164.456 286.916C161.843 284.303 157.605 284.303 154.991 286.916L134.441 303.73C131.167 299.961 128.109 295.999 125.286 291.864L146.822 276.383C150.023 274.535 151.12 270.442 149.272 267.241C147.424 264.04 143.33 262.943 140.129 264.791L115.907 275.722C113.734 271.263 111.811 266.659 110.157 261.928L134.982 252.543C138.552 251.586 140.671 247.916 139.714 244.346C138.757 240.776 135.087 238.657 131.517 239.614L105.302 243.902C104.373 239.073 103.715 234.149 103.344 229.145L129.771 226.502C133.467 226.502 136.464 223.506 136.464 219.809C136.464 216.113 133.467 213.117 129.771 213.117L103.3 210.47C103.65 205.428 104.291 200.466 105.206 195.601L131.442 199.892C135.013 200.849 138.683 198.73 139.639 195.16C140.596 191.589 138.477 187.919 134.907 186.963L109.993 177.543C111.629 172.805 113.535 168.193 115.691 163.724L139.928 174.662C143.129 176.51 147.222 175.413 149.07 172.212C150.918 169.011 149.821 164.918 146.62 163.07L125.013 147.537C127.804 143.415 130.829 139.463 134.068 135.701L154.619 152.515C157.232 155.128 161.47 155.128 164.084 152.515C166.697 149.901 166.697 145.663 164.084 143.05L147.243 122.466C151.012 119.191 154.974 116.132 159.109 113.308L174.617 134.88C176.465 138.081 180.558 139.178 183.759 137.33C186.96 135.482 188.057 131.389 186.209 128.188L175.258 103.923C179.719 101.749 184.324 99.8256 189.055 98.1711L198.457 123.04C199.414 126.61 203.084 128.729 206.654 127.772C210.224 126.816 212.343 123.146 211.386 119.576L207.091 93.313C212.101 92.3501 217.214 91.6782 222.413 91.3155Z" fill="url(#paint3_radial)"/>
<path fill-rule="evenodd" clip-rule="evenodd" d="M222.413 91.3155L225.058 117.771C225.058 121.467 228.055 124.463 231.751 124.463C235.447 124.463 238.444 121.467 238.444 117.771L241.086 91.353C246.095 91.7229 251.025 92.38 255.858 93.308L251.563 119.567C250.607 123.138 252.725 126.808 256.296 127.764C259.866 128.721 263.536 126.602 264.493 123.032L273.895 98.1623C278.627 99.8158 283.232 101.738 287.693 103.911L276.741 128.18C274.893 131.381 275.989 135.474 279.19 137.322C282.391 139.17 286.485 138.073 288.333 134.872L303.845 113.293C307.981 116.116 311.943 119.175 315.713 122.449L298.858 143.05C296.244 145.663 296.244 149.901 298.858 152.515C301.472 155.128 305.709 155.128 308.323 152.515L328.893 135.685C332.133 139.446 335.158 143.397 337.951 147.519L316.329 163.062C313.128 164.91 312.032 169.003 313.88 172.204C315.728 175.405 319.821 176.502 323.022 174.654L347.277 163.708C349.434 168.177 351.34 172.789 352.977 177.528L328.043 186.955C324.473 187.911 322.354 191.581 323.31 195.151C324.267 198.722 327.937 200.841 331.507 199.884L357.767 195.589C358.683 200.458 359.325 205.425 359.675 210.472L333.229 213.117C329.533 213.117 326.536 216.113 326.536 219.809C326.536 223.506 329.533 226.502 333.229 226.502L359.631 229.142C359.26 234.151 358.601 239.081 357.671 243.913L331.433 239.622C327.862 238.665 324.192 240.784 323.236 244.354C322.279 247.924 324.398 251.594 327.968 252.551L352.813 261.944C351.158 266.675 349.234 271.279 347.06 275.738L322.82 264.799C319.619 262.951 315.526 264.048 313.678 267.249C311.83 270.45 312.927 274.543 316.128 276.391L337.677 291.882C334.854 296.017 331.795 299.978 328.52 303.746L307.95 286.916C305.337 284.303 301.099 284.303 298.485 286.916C295.872 289.53 295.872 293.768 298.485 296.381L315.288 316.918C311.527 320.157 307.576 323.181 303.454 325.972L287.938 304.388C286.09 301.187 281.997 300.09 278.796 301.938C275.595 303.786 274.498 307.879 276.346 311.081L287.273 335.292C282.805 337.449 278.193 339.354 273.455 340.991L264.045 316.101C263.089 312.531 259.419 310.412 255.848 311.369C252.278 312.325 250.159 315.995 251.116 319.566L255.404 345.778C250.716 346.661 245.938 347.289 241.086 347.647L238.444 321.229C238.444 317.533 235.447 314.536 231.751 314.536C228.055 314.536 225.058 317.533 225.058 321.229L222.413 347.685C217.371 347.333 212.41 346.69 207.546 345.774L211.834 319.557C212.79 315.987 210.672 312.317 207.101 311.361C203.531 310.404 199.861 312.523 198.904 316.093L189.494 340.982C184.757 339.345 180.146 337.438 175.679 335.281L186.604 311.072C188.452 307.871 187.355 303.778 184.154 301.93C180.953 300.082 176.86 301.179 175.012 304.38L159.5 325.958C155.379 323.166 151.428 320.14 147.667 316.901L164.456 296.381C167.07 293.768 167.07 289.53 164.456 286.916C161.843 284.303 157.605 284.303 154.991 286.916L134.441 303.73C131.167 299.961 128.109 295.999 125.286 291.864L146.822 276.383C150.023 274.535 151.12 270.442 149.272 267.241C147.424 264.04 143.33 262.943 140.129 264.791L115.907 275.722C113.734 271.263 111.811 266.659 110.157 261.928L134.982 252.543C138.552 251.586 140.671 247.916 139.714 244.346C138.757 240.776 135.087 238.657 131.517 239.614L105.302 243.902C104.373 239.073 103.715 234.149 103.344 229.145L129.771 226.502C133.467 226.502 136.464 223.506 136.464 219.809C136.464 216.113 133.467 213.117 129.771 213.117L103.3 210.47C103.65 205.428 104.291 200.466 105.206 195.601L131.442 199.892C135.013 200.849 138.683 198.73 139.639 195.16C140.596 191.589 138.477 187.919 134.907 186.963L109.993 177.543C111.629 172.805 113.535 168.193 115.691 163.724L139.928 174.662C143.129 176.51 147.222 175.413 149.07 172.212C150.918 169.011 149.821 164.918 146.62 163.07L125.013 147.537C127.804 143.415 130.829 139.463 134.068 135.701L154.619 152.515C157.232 155.128 161.47 155.128 164.084 152.515C166.697 149.901 166.697 145.663 164.084 143.05L147.243 122.466C151.012 119.191 154.974 116.132 159.109 113.308L174.617 134.88C176.465 138.081 180.558 139.178 183.759 137.33C186.96 135.482 188.057 131.389 186.209 128.188L175.258 103.923C179.719 101.749 184.324 99.8256 189.055 98.1711L198.457 123.04C199.414 126.61 203.084 128.729 206.654 127.772C210.224 126.816 212.343 123.146 211.386 119.576L207.091 93.313C212.101 92.3501 217.214 91.6782 222.413 91.3155Z" fill="url(#paint4_linear)" fill-opacity="0.3"/>
<g filter="url(#filter22_i)">
<path fill-rule="evenodd" clip-rule="evenodd" d="M222.381 91C222.381 91 228.405 92.6732 231.751 92.6732C235.097 92.6732 241.121 91 241.121 91L238.444 117.771C238.444 121.467 235.447 124.464 231.751 124.464C228.055 124.464 225.058 121.467 225.058 117.771L222.381 91ZM241.121 348C241.121 348 235.098 346.327 231.751 346.327C228.405 346.327 222.381 348 222.381 348L225.058 321.229C225.058 317.533 228.055 314.536 231.751 314.536C235.447 314.536 238.444 317.533 238.444 321.229L241.121 348ZM358.327 219.809C358.327 216.463 360 210.44 360 210.44L333.229 213.117C329.533 213.117 326.536 216.113 326.536 219.809C326.536 223.506 329.533 226.502 333.229 226.502L360 229.179C360 229.179 358.327 223.156 358.327 219.809ZM103 229.179C103 229.179 104.673 223.156 104.673 219.809C104.673 216.463 103 210.44 103 210.44L129.771 213.117C133.467 213.117 136.464 216.113 136.464 219.809C136.464 223.506 133.467 226.502 129.771 226.502L103 229.179ZM321.337 130.035C318.971 127.669 315.895 122.227 315.895 122.227L298.858 143.05C296.244 145.663 296.244 149.901 298.858 152.515C301.472 155.128 305.709 155.128 308.323 152.515L329.146 135.478C329.146 135.478 323.703 132.402 321.337 130.035ZM147.419 317.204C147.419 317.204 144.343 311.762 141.977 309.396C139.611 307.029 134.168 303.953 134.168 303.953L154.991 286.916C157.605 284.303 161.843 284.303 164.456 286.916C167.07 289.53 167.07 293.768 164.456 296.381L147.419 317.204ZM320.965 309.396C323.331 307.029 328.773 303.953 328.773 303.953L307.95 286.916C305.337 284.303 301.099 284.303 298.485 286.916C295.872 289.53 295.872 293.768 298.485 296.381L315.522 317.204C315.522 317.204 318.598 311.762 320.965 309.396ZM133.796 135.478C133.796 135.478 139.238 132.402 141.604 130.035C143.971 127.669 147.047 122.227 147.047 122.227L164.084 143.05C166.697 145.663 166.697 149.901 164.084 152.515C161.47 155.128 157.232 155.128 154.619 152.515L133.796 135.478ZM264.524 97.0571C261.291 96.191 255.906 93.0159 255.906 93.0159L251.563 119.567C250.607 123.138 252.725 126.808 256.296 127.764C259.866 128.721 263.536 126.602 264.493 123.032L274.007 97.8661C274.007 97.8661 267.756 97.9232 264.524 97.0571ZM207.491 346.109C207.491 346.109 202.106 342.934 198.873 342.068C195.641 341.202 189.39 341.259 189.39 341.259L198.904 316.093C199.861 312.523 203.531 310.404 207.101 311.361C210.672 312.317 212.79 315.987 211.834 319.557L207.491 346.109ZM353.943 252.582C354.809 249.35 357.984 243.965 357.984 243.965L331.433 239.622C327.862 238.665 324.192 240.784 323.236 244.354C322.279 247.924 324.398 251.594 327.968 252.551L353.134 262.066C353.134 262.066 353.077 255.814 353.943 252.582ZM104.891 195.549C104.891 195.549 108.066 190.164 108.932 186.932C109.798 183.699 109.741 177.448 109.741 177.448L134.907 186.963C138.477 187.919 140.596 191.589 139.639 195.16C138.683 198.73 135.013 200.849 131.442 199.892L104.891 195.549ZM341.411 156.309C339.738 153.411 338.175 147.358 338.175 147.358L316.329 163.062C313.128 164.91 312.032 169.003 313.88 172.204C315.728 175.405 319.821 176.502 323.022 174.654L347.545 163.587C347.545 163.587 343.084 159.207 341.411 156.309ZM124.976 292.087C124.976 292.087 123.414 286.034 121.741 283.136C120.067 280.238 115.607 275.858 115.607 275.858L140.129 264.791C143.33 262.943 147.424 264.04 149.272 267.241C151.12 270.442 150.023 274.535 146.822 276.383L124.976 292.087ZM294.691 329.469C297.589 327.796 303.642 326.233 303.642 326.233L287.938 304.388C286.09 301.187 281.997 300.09 278.796 301.938C275.595 303.786 274.498 307.879 276.346 311.081L287.413 335.603C287.413 335.603 291.793 331.143 294.691 329.469ZM158.913 113.035C158.913 113.035 164.966 111.472 167.864 109.799C170.762 108.126 175.142 103.665 175.142 103.665L186.209 128.188C188.057 131.389 186.96 135.482 183.759 137.33C180.558 139.178 176.465 138.081 174.617 134.88L158.913 113.035ZM295.086 109.791C292.188 108.118 287.808 103.657 287.808 103.657L276.741 128.18C274.893 131.381 275.989 135.474 279.19 137.322C282.391 139.17 286.485 138.073 288.333 134.872L304.037 113.027C304.037 113.027 297.984 111.464 295.086 109.791ZM175.537 335.595C175.537 335.595 171.157 331.134 168.259 329.461C165.361 327.788 159.308 326.225 159.308 326.225L175.012 304.38C176.86 301.179 180.953 300.082 184.154 301.93C187.355 303.778 188.452 307.871 186.604 311.072L175.537 335.595ZM341.209 283.144C342.882 280.246 347.343 275.866 347.343 275.866L322.82 264.799C319.619 262.951 315.526 264.048 313.678 267.249C311.83 270.45 312.927 274.543 316.128 276.391L337.973 292.095C337.973 292.095 339.536 286.042 341.209 283.144ZM115.405 163.595C115.405 163.595 119.866 159.215 121.539 156.317C123.212 153.419 124.775 147.366 124.775 147.366L146.62 163.07C149.821 164.918 150.918 169.011 149.07 172.212C147.222 175.413 143.129 176.51 139.928 174.662L115.405 163.595ZM354.018 186.924C353.151 183.691 353.209 177.44 353.209 177.44L328.043 186.955C324.473 187.911 322.354 191.581 323.31 195.152C324.267 198.722 327.937 200.841 331.507 199.884L358.059 195.541C358.059 195.541 354.884 190.156 354.018 186.924ZM109.816 262.058C109.816 262.058 109.873 255.806 109.007 252.574C108.141 249.342 104.966 243.956 104.966 243.956L131.517 239.614C135.088 238.657 138.757 240.776 139.714 244.346C140.671 247.916 138.552 251.586 134.982 252.543L109.816 262.058ZM264.076 342.076C267.309 341.21 273.56 341.267 273.56 341.267L264.045 316.101C263.089 312.531 259.419 310.412 255.848 311.369C252.278 312.325 250.159 315.995 251.116 319.566L255.459 346.117C255.459 346.117 260.844 342.942 264.076 342.076ZM188.942 97.8742C188.942 97.8742 195.194 97.9314 198.426 97.0653C201.658 96.1992 207.043 93.024 207.043 93.024L211.386 119.576C212.343 123.146 210.224 126.816 206.654 127.772C203.084 128.729 199.414 126.61 198.457 123.04L188.942 97.8742Z" fill="#292929"/>
</g>
</g>
<rect x="103" y="91" width="257" height="257" rx="128.5" fill="url(#paint5_linear)"/>
<circle cx="231.5" cy="219.5" r="81.5" fill="url(#paint6_linear)"/>
<g filter="url(#filter23_d)">
<rect x="228" y="148" width="8" height="40" rx="4" fill="url(#paint7_linear)"/>
</g>
<defs>
<filter id="filter0_d" x="0" y="0" width="464" height="464" filterUnits="userSpaceOnUse" color-interpolation-filters="sRGB">
<feFlood flood-opacity="0" result="BackgroundImageFix"/>
<feColorMatrix in="SourceAlpha" type="matrix" values="0 0 0 0 0 0 0 0 0 0 0 0 0 0 0 0 0 0 127 0" result="hardAlpha"/>
<feOffset dy="14"/>
<feGaussianBlur stdDeviation="10"/>
<feComposite in2="hardAlpha" operator="out"/>
<feColorMatrix type="matrix" values="0 0 0 0 0 0 0 0 0 0 0 0 0 0 0 0 0 0 0.6 0"/>
<feBlend mode="normal" in2="BackgroundImageFix" result="effect1_dropShadow"/>
<feBlend mode="normal" in="SourceGraphic" in2="effect1_dropShadow" result="shape"/>
</filter>
<filter id="filter1_d" x="222.061" y="27" width="18.9883" height="18.9883" filterUnits="userSpaceOnUse" color-interpolation-filters="sRGB">
<feFlood flood-opacity="0" result="BackgroundImageFix"/>
<feColorMatrix in="SourceAlpha" type="matrix" values="0 0 0 0 0 0 0 0 0 0 0 0 0 0 0 0 0 0 127 0" result="hardAlpha"/>
<feOffset dy="4"/>
<feGaussianBlur stdDeviation="2"/>
<feComposite in2="hardAlpha" operator="out"/>
<feColorMatrix type="matrix" values="0 0 0 0 0 0 0 0 0 0 0 0 0 0 0 0 0 0 0.25 0"/>
<feBlend mode="normal" in2="BackgroundImageFix" result="effect1_dropShadow"/>
<feBlend mode="normal" in="SourceGraphic" in2="effect1_dropShadow" result="shape"/>
</filter>
<filter id="filter2_d" x="269.241" y="32.1392" width="21.4579" height="21.4579" filterUnits="userSpaceOnUse" color-interpolation-filters="sRGB">
<feFlood flood-opacity="0" result="BackgroundImageFix"/>
<feColorMatrix in="SourceAlpha" type="matrix" values="0 0 0 0 0 0 0 0 0 0 0 0 0 0 0 0 0 0 127 0" result="hardAlpha"/>
<feOffset dy="4"/>
<feGaussianBlur stdDeviation="2"/>
<feComposite in2="hardAlpha" operator="out"/>
<feColorMatrix type="matrix" values="0 0 0 0 0 0 0 0 0 0 0 0 0 0 0 0 0 0 0.25 0"/>
<feBlend mode="normal" in2="BackgroundImageFix" result="effect1_dropShadow"/>
<feBlend mode="normal" in="SourceGraphic" in2="effect1_dropShadow" result="shape"/>
</filter>
<filter id="filter3_d" x="313.58" y="50.0504" width="23.0103" height="23.0103" filterUnits="userSpaceOnUse" color-interpolation-filters="sRGB">
<feFlood flood-opacity="0" result="BackgroundImageFix"/>
<feColorMatrix in="SourceAlpha" type="matrix" values="0 0 0 0 0 0 0 0 0 0 0 0 0 0 0 0 0 0 127 0" result="hardAlpha"/>
<feOffset dy="4"/>
<feGaussianBlur stdDeviation="2"/>
<feComposite in2="hardAlpha" operator="out"/>
<feColorMatrix type="matrix" values="0 0 0 0 0 0 0 0 0 0 0 0 0 0 0 0 0 0 0.25 0"/>
<feBlend mode="normal" in2="BackgroundImageFix" result="effect1_dropShadow"/>
<feBlend mode="normal" in="SourceGraphic" in2="effect1_dropShadow" result="shape"/>
</filter>
<filter id="filter4_d" x="87.5131" y="344.057" width="23.5398" height="23.5398" filterUnits="userSpaceOnUse" color-interpolation-filters="sRGB">
<feFlood flood-opacity="0" result="BackgroundImageFix"/>
<feColorMatrix in="SourceAlpha" type="matrix" values="0 0 0 0 0 0 0 0 0 0 0 0 0 0 0 0 0 0 127 0" result="hardAlpha"/>
<feOffset dy="4"/>
<feGaussianBlur stdDeviation="2"/>
<feComposite in2="hardAlpha" operator="out"/>
<feColorMatrix type="matrix" values="0 0 0 0 0 0 0 0 0 0 0 0 0 0 0 0 0 0 0.25 0"/>
<feBlend mode="normal" in2="BackgroundImageFix" result="effect1_dropShadow"/>
<feBlend mode="normal" in="SourceGraphic" in2="effect1_dropShadow" result="shape"/>
</filter>
<filter id="filter5_d" x="352.057" y="79.5131" width="23.5398" height="23.5398" filterUnits="userSpaceOnUse" color-interpolation-filters="sRGB">
<feFlood flood-opacity="0" result="BackgroundImageFix"/>
<feColorMatrix in="SourceAlpha" type="matrix" values="0 0 0 0 0 0 0 0 0 0 0 0 0 0 0 0 0 0 127 0" result="hardAlpha"/>
<feOffset dy="4"/>
<feGaussianBlur stdDeviation="2"/>
<feComposite in2="hardAlpha" operator="out"/>
<feColorMatrix type="matrix" values="0 0 0 0 0 0 0 0 0 0 0 0 0 0 0 0 0 0 0.25 0"/>
<feBlend mode="normal" in2="BackgroundImageFix" result="effect1_dropShadow"/>
<feBlend mode="normal" in="SourceGraphic" in2="effect1_dropShadow" result="shape"/>
</filter>
<filter id="filter6_d" x="58.0504" y="305.58" width="23.0103" height="23.0103" filterUnits="userSpaceOnUse" color-interpolation-filters="sRGB">
<feFlood flood-opacity="0" result="BackgroundImageFix"/>
<feColorMatrix in="SourceAlpha" type="matrix" values="0 0 0 0 0 0 0 0 0 0 0 0 0 0 0 0 0 0 127 0" result="hardAlpha"/>
<feOffset dy="4"/>
<feGaussianBlur stdDeviation="2"/>
<feComposite in2="hardAlpha" operator="out"/>
<feColorMatrix type="matrix" values="0 0 0 0 0 0 0 0 0 0 0 0 0 0 0 0 0 0 0.25 0"/>
<feBlend mode="normal" in2="BackgroundImageFix" result="effect1_dropShadow"/>
<feBlend mode="normal" in="SourceGraphic" in2="effect1_dropShadow" result="shape"/>
</filter>
<filter id="filter7_d" x="382.049" y="118.519" width="23.0103" height="23.0103" filterUnits="userSpaceOnUse" color-interpolation-filters="sRGB">
<feFlood flood-opacity="0" result="BackgroundImageFix"/>
<feColorMatrix in="SourceAlpha" type="matrix" values="0 0 0 0 0 0 0 0 0 0 0 0 0 0 0 0 0 0 127 0" result="hardAlpha"/>
<feOffset dy="4"/>
<feGaussianBlur stdDeviation="2"/>
<feComposite in2="hardAlpha" operator="out"/>
<feColorMatrix type="matrix" values="0 0 0 0 0 0 0 0 0 0 0 0 0 0 0 0 0 0 0.25 0"/>
<feBlend mode="normal" in2="BackgroundImageFix" result="effect1_dropShadow"/>
<feBlend mode="normal" in="SourceGraphic" in2="effect1_dropShadow" result="shape"/>
</filter>
<filter id="filter8_d" x="40.1392" y="261.241" width="21.4579" height="21.4579" filterUnits="userSpaceOnUse" color-interpolation-filters="sRGB">
<feFlood flood-opacity="0" result="BackgroundImageFix"/>
<feColorMatrix in="SourceAlpha" type="matrix" values="0 0 0 0 0 0 0 0 0 0 0 0 0 0 0 0 0 0 127 0" result="hardAlpha"/>
<feOffset dy="4"/>
<feGaussianBlur stdDeviation="2"/>
<feComposite in2="hardAlpha" operator="out"/>
<feColorMatrix type="matrix" values="0 0 0 0 0 0 0 0 0 0 0 0 0 0 0 0 0 0 0.25 0"/>
<feBlend mode="normal" in2="BackgroundImageFix" result="effect1_dropShadow"/>
<feBlend mode="normal" in="SourceGraphic" in2="effect1_dropShadow" result="shape"/>
</filter>
<filter id="filter9_d" x="401.513" y="164.411" width="21.4579" height="21.4579" filterUnits="userSpaceOnUse" color-interpolation-filters="sRGB">
<feFlood flood-opacity="0" result="BackgroundImageFix"/>
<feColorMatrix in="SourceAlpha" type="matrix" values="0 0 0 0 0 0 0 0 0 0 0 0 0 0 0 0 0 0 127 0" result="hardAlpha"/>
<feOffset dy="4"/>
<feGaussianBlur stdDeviation="2"/>
<feComposite in2="hardAlpha" operator="out"/>
<feColorMatrix type="matrix" values="0 0 0 0 0 0 0 0 0 0 0 0 0 0 0 0 0 0 0.25 0"/>
<feBlend mode="normal" in2="BackgroundImageFix" result="effect1_dropShadow"/>
<feBlend mode="normal" in="SourceGraphic" in2="effect1_dropShadow" result="shape"/>
</filter>
<filter id="filter10_d" x="35" y="214.061" width="18.9883" height="18.9883" filterUnits="userSpaceOnUse" color-interpolation-filters="sRGB">
<feFlood flood-opacity="0" result="BackgroundImageFix"/>
<feColorMatrix in="SourceAlpha" type="matrix" values="0 0 0 0 0 0 0 0 0 0 0 0 0 0 0 0 0 0 127 0" result="hardAlpha"/>
<feOffset dy="4"/>
<feGaussianBlur stdDeviation="2"/>
<feComposite in2="hardAlpha" operator="out"/>
<feColorMatrix type="matrix" values="0 0 0 0 0 0 0 0 0 0 0 0 0 0 0 0 0 0 0.25 0"/>
<feBlend mode="normal" in2="BackgroundImageFix" result="effect1_dropShadow"/>
<feBlend mode="normal" in="SourceGraphic" in2="effect1_dropShadow" result="shape"/>
</filter>
<filter id="filter11_d" x="409.122" y="214.061" width="18.9883" height="18.9883" filterUnits="userSpaceOnUse" color-interpolation-filters="sRGB">
<feFlood flood-opacity="0" result="BackgroundImageFix"/>
<feColorMatrix in="SourceAlpha" type="matrix" values="0 0 0 0 0 0 0 0 0 0 0 0 0 0 0 0 0 0 127 0" result="hardAlpha"/>
<feOffset dy="4"/>
<feGaussianBlur stdDeviation="2"/>
<feComposite in2="hardAlpha" operator="out"/>
<feColorMatrix type="matrix" values="0 0 0 0 0 0 0 0 0 0 0 0 0 0 0 0 0 0 0.25 0"/>
<feBlend mode="normal" in2="BackgroundImageFix" result="effect1_dropShadow"/>
<feBlend mode="normal" in="SourceGraphic" in2="effect1_dropShadow" result="shape"/>
</filter>
<filter id="filter12_d" x="40.1392" y="164.411" width="21.4579" height="21.4579" filterUnits="userSpaceOnUse" color-interpolation-filters="sRGB">
<feFlood flood-opacity="0" result="BackgroundImageFix"/>
<feColorMatrix in="SourceAlpha" type="matrix" values="0 0 0 0 0 0 0 0 0 0 0 0 0 0 0 0 0 0 127 0" result="hardAlpha"/>
<feOffset dy="4"/>
<feGaussianBlur stdDeviation="2"/>
<feComposite in2="hardAlpha" operator="out"/>
<feColorMatrix type="matrix" values="0 0 0 0 0 0 0 0 0 0 0 0 0 0 0 0 0 0 0.25 0"/>
<feBlend mode="normal" in2="BackgroundImageFix" result="effect1_dropShadow"/>
<feBlend mode="normal" in="SourceGraphic" in2="effect1_dropShadow" result="shape"/>
</filter>
<filter id="filter13_d" x="401.513" y="261.241" width="21.4579" height="21.4579" filterUnits="userSpaceOnUse" color-interpolation-filters="sRGB">
<feFlood flood-opacity="0" result="BackgroundImageFix"/>
<feColorMatrix in="SourceAlpha" type="matrix" values="0 0 0 0 0 0 0 0 0 0 0 0 0 0 0 0 0 0 127 0" result="hardAlpha"/>
<feOffset dy="4"/>
<feGaussianBlur stdDeviation="2"/>
<feComposite in2="hardAlpha" operator="out"/>
<feColorMatrix type="matrix" values="0 0 0 0 0 0 0 0 0 0 0 0 0 0 0 0 0 0 0.25 0"/>
<feBlend mode="normal" in2="BackgroundImageFix" result="effect1_dropShadow"/>
<feBlend mode="normal" in="SourceGraphic" in2="effect1_dropShadow" result="shape"/>
</filter>
<filter id="filter14_d" x="58.0504" y="118.519" width="23.0103" height="23.0103" filterUnits="userSpaceOnUse" color-interpolation-filters="sRGB">
<feFlood flood-opacity="0" result="BackgroundImageFix"/>
<feColorMatrix in="SourceAlpha" type="matrix" values="0 0 0 0 0 0 0 0 0 0 0 0 0 0 0 0 0 0 127 0" result="hardAlpha"/>
<feOffset dy="4"/>
<feGaussianBlur stdDeviation="2"/>
<feComposite in2="hardAlpha" operator="out"/>
<feColorMatrix type="matrix" values="0 0 0 0 0 0 0 0 0 0 0 0 0 0 0 0 0 0 0.25 0"/>
<feBlend mode="normal" in2="BackgroundImageFix" result="effect1_dropShadow"/>
<feBlend mode="normal" in="SourceGraphic" in2="effect1_dropShadow" result="shape"/>
</filter>
<filter id="filter15_d" x="382.049" y="305.58" width="23.0103" height="23.0103" filterUnits="userSpaceOnUse" color-interpolation-filters="sRGB">
<feFlood flood-opacity="0" result="BackgroundImageFix"/>
<feColorMatrix in="SourceAlpha" type="matrix" values="0 0 0 0 0 0 0 0 0 0 0 0 0 0 0 0 0 0 127 0" result="hardAlpha"/>
<feOffset dy="4"/>
<feGaussianBlur stdDeviation="2"/>
<feComposite in2="hardAlpha" operator="out"/>
<feColorMatrix type="matrix" values="0 0 0 0 0 0 0 0 0 0 0 0 0 0 0 0 0 0 0.25 0"/>
<feBlend mode="normal" in2="BackgroundImageFix" result="effect1_dropShadow"/>
<feBlend mode="normal" in="SourceGraphic" in2="effect1_dropShadow" result="shape"/>
</filter>
<filter id="filter16_d" x="87.5131" y="79.5131" width="23.5398" height="23.5398" filterUnits="userSpaceOnUse" color-interpolation-filters="sRGB">
<feFlood flood-opacity="0" result="BackgroundImageFix"/>
<feColorMatrix in="SourceAlpha" type="matrix" values="0 0 0 0 0 0 0 0 0 0 0 0 0 0 0 0 0 0 127 0" result="hardAlpha"/>
<feOffset dy="4"/>
<feGaussianBlur stdDeviation="2"/>
<feComposite in2="hardAlpha" operator="out"/>
<feColorMatrix type="matrix" values="0 0 0 0 0 0 0 0 0 0 0 0 0 0 0 0 0 0 0.25 0"/>
<feBlend mode="normal" in2="BackgroundImageFix" result="effect1_dropShadow"/>
<feBlend mode="normal" in="SourceGraphic" in2="effect1_dropShadow" result="shape"/>
</filter>
<filter id="filter17_d" x="352.057" y="344.057" width="23.5398" height="23.5398" filterUnits="userSpaceOnUse" color-interpolation-filters="sRGB">
<feFlood flood-opacity="0" result="BackgroundImageFix"/>
<feColorMatrix in="SourceAlpha" type="matrix" values="0 0 0 0 0 0 0 0 0 0 0 0 0 0 0 0 0 0 127 0" result="hardAlpha"/>
<feOffset dy="4"/>
<feGaussianBlur stdDeviation="2"/>
<feComposite in2="hardAlpha" operator="out"/>
<feColorMatrix type="matrix" values="0 0 0 0 0 0 0 0 0 0 0 0 0 0 0 0 0 0 0.25 0"/>
<feBlend mode="normal" in2="BackgroundImageFix" result="effect1_dropShadow"/>
<feBlend mode="normal" in="SourceGraphic" in2="effect1_dropShadow" result="shape"/>
</filter>
<filter id="filter18_d" x="126.519" y="50.0504" width="23.0103" height="23.0103" filterUnits="userSpaceOnUse" color-interpolation-filters="sRGB">
<feFlood flood-opacity="0" result="BackgroundImageFix"/>
<feColorMatrix in="SourceAlpha" type="matrix" values="0 0 0 0 0 0 0 0 0 0 0 0 0 0 0 0 0 0 127 0" result="hardAlpha"/>
<feOffset dy="4"/>
<feGaussianBlur stdDeviation="2"/>
<feComposite in2="hardAlpha" operator="out"/>
<feColorMatrix type="matrix" values="0 0 0 0 0 0 0 0 0 0 0 0 0 0 0 0 0 0 0.25 0"/>
<feBlend mode="normal" in2="BackgroundImageFix" result="effect1_dropShadow"/>
<feBlend mode="normal" in="SourceGraphic" in2="effect1_dropShadow" result="shape"/>
</filter>
<filter id="filter19_d" x="172.411" y="32.1392" width="21.4579" height="21.4579" filterUnits="userSpaceOnUse" color-interpolation-filters="sRGB">
<feFlood flood-opacity="0" result="BackgroundImageFix"/>
<feColorMatrix in="SourceAlpha" type="matrix" values="0 0 0 0 0 0 0 0 0 0 0 0 0 0 0 0 0 0 127 0" result="hardAlpha"/>
<feOffset dy="4"/>
<feGaussianBlur stdDeviation="2"/>
<feComposite in2="hardAlpha" operator="out"/>
<feColorMatrix type="matrix" values="0 0 0 0 0 0 0 0 0 0 0 0 0 0 0 0 0 0 0.25 0"/>
<feBlend mode="normal" in2="BackgroundImageFix" result="effect1_dropShadow"/>
<feBlend mode="normal" in="SourceGraphic" in2="effect1_dropShadow" result="shape"/>
</filter>
<filter id="filter20_d" x="54" y="54" width="356" height="356" filterUnits="userSpaceOnUse" color-interpolation-filters="sRGB">
<feFlood flood-opacity="0" result="BackgroundImageFix"/>
<feColorMatrix in="SourceAlpha" type="matrix" values="0 0 0 0 0 0 0 0 0 0 0 0 0 0 0 0 0 0 127 0" result="hardAlpha"/>
<feOffset dy="14"/>
<feGaussianBlur stdDeviation="10"/>
<feComposite in2="hardAlpha" operator="out"/>
<feColorMatrix type="matrix" values="0 0 0 0 0 0 0 0 0 0 0 0 0 0 0 0 0 0 0.6 0"/>
<feBlend mode="normal" in2="BackgroundImageFix" result="effect1_dropShadow"/>
<feBlend mode="normal" in="SourceGraphic" in2="effect1_dropShadow" result="shape"/>
</filter>
<filter id="filter21_d" x="93" y="85" width="277" height="277" filterUnits="userSpaceOnUse" color-interpolation-filters="sRGB">
<feFlood flood-opacity="0" result="BackgroundImageFix"/>
<feColorMatrix in="SourceAlpha" type="matrix" values="0 0 0 0 0 0 0 0 0 0 0 0 0 0 0 0 0 0 127 0" result="hardAlpha"/>
<feOffset dy="4"/>
<feGaussianBlur stdDeviation="5"/>
<feComposite in2="hardAlpha" operator="out"/>
<feColorMatrix type="matrix" values="0 0 0 0 0 0 0 0 0 0 0 0 0 0 0 0 0 0 0.55 0"/>
<feBlend mode="normal" in2="BackgroundImageFix" result="effect1_dropShadow"/>
<feBlend mode="normal" in="SourceGraphic" in2="effect1_dropShadow" result="shape"/>
</filter>
<filter id="filter22_i" x="103" y="91" width="257" height="257" filterUnits="userSpaceOnUse" color-interpolation-filters="sRGB">
<feFlood flood-opacity="0" result="BackgroundImageFix"/>
<feBlend mode="normal" in="SourceGraphic" in2="BackgroundImageFix" result="shape"/>
<feColorMatrix in="SourceAlpha" type="matrix" values="0 0 0 0 0 0 0 0 0 0 0 0 0 0 0 0 0 0 127 0" result="hardAlpha"/>
<feOffset/>
<feGaussianBlur stdDeviation="5.5"/>
<feComposite in2="hardAlpha" operator="arithmetic" k2="-1" k3="1"/>
<feColorMatrix type="matrix" values="0 0 0 0 0 0 0 0 0 0 0 0 0 0 0 0 0 0 0.4 0"/>
<feBlend mode="normal" in2="shape" result="effect1_innerShadow"/>
</filter>
<filter id="filter23_d" x="217" y="141" width="30" height="62" filterUnits="userSpaceOnUse" color-interpolation-filters="sRGB">
<feFlood flood-opacity="0" result="BackgroundImageFix"/>
<feColorMatrix in="SourceAlpha" type="matrix" values="0 0 0 0 0 0 0 0 0 0 0 0 0 0 0 0 0 0 127 0" result="hardAlpha"/>
<feOffset dy="4"/>
<feGaussianBlur stdDeviation="5.5"/>
<feComposite in2="hardAlpha" operator="out"/>
<feColorMatrix type="matrix" values="0 0 0 0 0 0 0 0 0 0 0 0 0 0 0 0 0 0 0.25 0"/>
<feBlend mode="normal" in2="BackgroundImageFix" result="effect1_dropShadow"/>
<feBlend mode="normal" in="SourceGraphic" in2="effect1_dropShadow" result="shape"/>
</filter>
<linearGradient id="paint0_linear" x1="232" y1="6" x2="232" y2="430" gradientUnits="userSpaceOnUse">
<stop stop-opacity="0"/>
<stop offset="1"/>
</linearGradient>
<linearGradient id="paint1_linear" x1="232" y1="6" x2="232" y2="430" gradientUnits="userSpaceOnUse">
<stop stop-color="#313131"/>
<stop offset="1" stop-color="#222222"/>
</linearGradient>
<linearGradient id="paint2_linear" x1="232" y1="60" x2="232" y2="376" gradientUnits="userSpaceOnUse">
<stop stop-color="#565555"/>
<stop offset="1" stop-color="#222222"/>
</linearGradient>
<radialGradient id="paint3_radial" cx="0" cy="0" r="1" gradientUnits="userSpaceOnUse" gradientTransform="translate(231.488 219.5) rotate(90) scale(128.185 128.188)">
<stop stop-color="#6B6A6A"/>
<stop offset="1" stop-color="#373737"/>
</radialGradient>
<linearGradient id="paint4_linear" x1="231.488" y1="91.3155" x2="231.488" y2="347.685" gradientUnits="userSpaceOnUse">
<stop stop-opacity="0"/>
<stop offset="1"/>
</linearGradient>
<linearGradient id="paint5_linear" x1="231.5" y1="91" x2="231.5" y2="348" gradientUnits="userSpaceOnUse">
<stop stop-opacity="0"/>
<stop offset="1" stop-opacity="0.5"/>
</linearGradient>
<linearGradient id="paint6_linear" x1="231.5" y1="138" x2="231.5" y2="301" gradientUnits="userSpaceOnUse">
<stop stop-color="#222222"/>
<stop offset="1" stop-color="#191919"/>
</linearGradient>
<linearGradient id="paint7_linear" x1="228" y1="168" x2="236" y2="168" gradientUnits="userSpaceOnUse">
<stop stop-color="#400909"/>
<stop offset="0.239583" stop-color="#D60000"/>
<stop offset="0.395833" stop-color="#FF5F5F"/>
<stop offset="0.708333" stop-color="#930000"/>
<stop offset="0.973958" stop-color="#730000"/>
</linearGradient>
</defs>
</svg>

