<svg width="470" height="477" viewBox="0 0 470 477" fill="none" xmlns="http://www.w3.org/2000/svg">
<g filter="url(#filter0_d)">
<circle cx="235" cy="231" r="212" fill="black"/>
<circle cx="235" cy="231" r="210" stroke="url(#paint0_linear)" stroke-width="4"/>
</g>
<circle cx="235" cy="231" r="193" fill="#272727"/>
<g filter="url(#filter1_d)">
<path fill-rule="evenodd" clip-rule="evenodd" d="M278.059 43.1976C270.112 57.0438 254.253 66.4866 235.987 66.4866C217.633 66.4866 201.711 56.9539 193.801 43C171.386 47.9349 150.433 56.7662 131.687 68.7476C135.953 84.2035 131.434 102.194 118.46 115.168C105.549 128.079 87.6664 132.617 72.2599 128.454C60.5264 147.004 51.8677 167.692 47 189.801C60.9538 197.711 70.4866 213.633 70.4866 231.987C70.4866 250.253 61.0437 266.112 47.1975 274.059C52.1687 296.14 60.9244 316.788 72.7476 335.286C88.2035 331.02 106.194 335.54 119.168 348.513C132.079 361.425 136.617 379.307 132.454 394.713C151.004 406.447 171.692 415.105 193.801 419.973C201.711 406.019 217.633 396.487 235.987 396.487C254.253 396.487 270.112 405.929 278.059 419.776C299.835 414.873 320.218 406.29 338.519 394.713C334.356 379.307 338.894 361.425 351.806 348.513C364.779 335.54 382.77 331.02 398.226 335.286C410.049 316.788 418.804 296.14 423.776 274.059C409.929 266.112 400.487 250.253 400.487 231.987C400.487 213.633 410.019 197.711 423.973 189.801C419.105 167.692 410.447 147.004 398.713 128.454C383.307 132.617 365.425 128.079 352.513 115.168C339.54 102.194 335.02 84.2035 339.286 68.7476C320.788 56.9245 300.14 48.1687 278.059 43.1976Z" fill="url(#paint1_radial)"/>
</g>
<circle cx="235" cy="231" r="155" fill="black" stroke="url(#paint2_linear)" stroke-width="4"/>
<circle cx="235" cy="231" r="148" fill="url(#paint3_angular)"/>
<circle cx="235" cy="231" r="148" fill="black" fill-opacity="0.08"/>
<path d="M235 272.9C258.141 272.9 276.9 254.141 276.9 231C276.9 207.859 258.141 189.1 235 189.1C211.859 189.1 193.1 207.859 193.1 231C193.1 254.141 211.859 272.9 235 272.9Z" fill="url(#paint4_angular)"/>
<path fill-rule="evenodd" clip-rule="evenodd" d="M235 276.117C259.918 276.117 280.117 255.918 280.117 231C280.117 206.082 259.918 185.883 235 185.883C210.082 185.883 189.883 206.082 189.883 231C189.883 255.918 210.082 276.117 235 276.117ZM235 274.113C258.811 274.113 278.113 254.811 278.113 231C278.113 207.189 258.811 187.887 235 187.887C211.189 187.887 191.887 207.189 191.887 231C191.887 254.811 211.189 274.113 235 274.113Z" fill="url(#paint5_angular)"/>
<path fill-rule="evenodd" clip-rule="evenodd" d="M235 279.978C262.05 279.978 283.978 258.05 283.978 231C283.978 203.95 262.05 182.022 235 182.022C207.95 182.022 186.022 203.95 186.022 231C186.022 258.05 207.95 279.978 235 279.978ZM235 277.33C260.588 277.33 281.33 256.588 281.33 231C281.33 205.412 260.588 184.67 235 184.67C209.412 184.67 188.67 205.412 188.67 231C188.67 256.588 209.412 277.33 235 277.33Z" fill="url(#paint6_angular)"/>
<path fill-rule="evenodd" clip-rule="evenodd" d="M235 283.839C264.182 283.839 287.839 260.182 287.839 231C287.839 201.818 264.182 178.161 235 178.161C205.818 178.161 182.161 201.818 182.161 231C182.161 260.182 205.818 283.839 235 283.839ZM235 281.191C262.72 281.191 285.191 258.72 285.191 231C285.191 203.28 262.72 180.809 235 180.809C207.28 180.809 184.809 203.28 184.809 231C184.809 258.72 207.28 281.191 235 281.191Z" fill="url(#paint7_angular)"/>
<path fill-rule="evenodd" clip-rule="evenodd" d="M292.987 231C292.987 263.025 267.025 288.987 235 288.987C202.975 288.987 177.013 263.025 177.013 231C177.013 198.975 202.975 173.013 235 173.013C267.025 173.013 292.987 198.975 292.987 231ZM235 285.052C264.852 285.052 289.052 260.852 289.052 231C289.052 201.148 264.852 176.948 235 176.948C205.148 176.948 180.948 201.148 180.948 231C180.948 260.852 205.148 285.052 235 285.052Z" fill="url(#paint8_angular)"/>
<path fill-rule="evenodd" clip-rule="evenodd" d="M297.491 231C297.491 265.513 269.513 293.491 235 293.491C200.487 293.491 172.509 265.513 172.509 231C172.509 196.487 200.487 168.509 235 168.509C269.513 168.509 297.491 196.487 297.491 231ZM294.2 231C294.2 263.695 267.695 290.2 235 290.2C202.305 290.2 175.8 263.695 175.8 231C175.8 198.305 202.305 171.8 235 171.8C267.695 171.8 294.2 198.305 294.2 231Z" fill="url(#paint9_angular)"/>
<path fill-rule="evenodd" clip-rule="evenodd" d="M302.639 231C302.639 268.356 272.356 298.639 235 298.639C197.644 298.639 167.361 268.356 167.361 231C167.361 193.644 197.644 163.361 235 163.361C272.356 163.361 302.639 193.644 302.639 231ZM298.704 231C298.704 266.183 270.183 294.704 235 294.704C199.817 294.704 171.296 266.183 171.296 231C171.296 195.817 199.817 167.296 235 167.296C270.183 167.296 298.704 195.817 298.704 231Z" fill="url(#paint10_angular)"/>
<path fill-rule="evenodd" clip-rule="evenodd" d="M307.787 231C307.787 271.199 275.199 303.787 235 303.787C194.801 303.787 162.213 271.199 162.213 231C162.213 190.801 194.801 158.213 235 158.213C275.199 158.213 307.787 190.801 307.787 231ZM303.852 231C303.852 269.026 273.026 299.852 235 299.852C196.974 299.852 166.148 269.026 166.148 231C166.148 192.974 196.974 162.148 235 162.148C273.026 162.148 303.852 192.974 303.852 231Z" fill="url(#paint11_angular)"/>
<path fill-rule="evenodd" clip-rule="evenodd" d="M235 311.066C279.219 311.066 315.066 275.219 315.066 231C315.066 186.781 279.219 150.934 235 150.934C190.781 150.934 154.934 186.781 154.934 231C154.934 275.219 190.781 311.066 235 311.066ZM309 231C309 271.869 275.869 305 235 305C194.131 305 161 271.869 161 231C161 190.131 194.131 157 235 157C275.869 157 309 190.131 309 231Z" fill="url(#paint12_angular)"/>
<path fill-rule="evenodd" clip-rule="evenodd" d="M235 317.131C282.569 317.131 321.131 278.569 321.131 231C321.131 183.431 282.569 144.869 235 144.869C187.431 144.869 148.869 183.431 148.869 231C148.869 278.569 187.431 317.131 235 317.131ZM235 312.279C279.889 312.279 316.279 275.889 316.279 231C316.279 186.111 279.889 149.721 235 149.721C190.111 149.721 153.721 186.111 153.721 231C153.721 275.889 190.111 312.279 235 312.279Z" fill="url(#paint13_angular)"/>
<path fill-rule="evenodd" clip-rule="evenodd" d="M235 324.41C286.589 324.41 328.41 282.589 328.41 231C328.41 179.411 286.589 137.59 235 137.59C183.411 137.59 141.59 179.411 141.59 231C141.59 282.589 183.411 324.41 235 324.41ZM235 318.344C283.239 318.344 322.344 279.239 322.344 231C322.344 182.761 283.239 143.656 235 143.656C186.761 143.656 147.656 182.761 147.656 231C147.656 279.239 186.761 318.344 235 318.344Z" fill="url(#paint14_angular)"/>
<path fill-rule="evenodd" clip-rule="evenodd" d="M235 331.689C290.609 331.689 335.689 286.609 335.689 231C335.689 175.391 290.609 130.311 235 130.311C179.391 130.311 134.311 175.391 134.311 231C134.311 286.609 179.391 331.689 235 331.689ZM235 325.623C287.259 325.623 329.623 283.259 329.623 231C329.623 178.741 287.259 136.377 235 136.377C182.741 136.377 140.377 178.741 140.377 231C140.377 283.259 182.741 325.623 235 325.623Z" fill="url(#paint15_angular)"/>
<path fill-rule="evenodd" clip-rule="evenodd" d="M345.393 231C345.393 291.969 295.969 341.393 235 341.393C174.031 341.393 124.607 291.969 124.607 231C124.607 170.031 174.031 120.607 235 120.607C295.969 120.607 345.393 170.031 345.393 231ZM235 332.902C291.279 332.902 336.902 287.279 336.902 231C336.902 174.721 291.279 129.098 235 129.098C178.721 129.098 133.098 174.721 133.098 231C133.098 287.279 178.721 332.902 235 332.902Z" fill="url(#paint16_angular)"/>
<path fill-rule="evenodd" clip-rule="evenodd" d="M353.885 231C353.885 296.658 300.658 349.885 235 349.885C169.341 349.885 116.115 296.658 116.115 231C116.115 165.341 169.341 112.115 235 112.115C300.658 112.115 353.885 165.341 353.885 231ZM346.607 231C346.607 292.639 296.639 342.607 235 342.607C173.361 342.607 123.393 292.639 123.393 231C123.393 169.361 173.361 119.393 235 119.393C296.639 119.393 346.607 169.361 346.607 231Z" fill="url(#paint17_angular)"/>
<path fill-rule="evenodd" clip-rule="evenodd" d="M363.59 231C363.59 302.018 306.018 359.59 235 359.59C163.982 359.59 106.41 302.018 106.41 231C106.41 159.982 163.982 102.41 235 102.41C306.018 102.41 363.59 159.982 363.59 231ZM355.098 231C355.098 297.328 301.328 351.098 235 351.098C168.672 351.098 114.902 297.328 114.902 231C114.902 164.672 168.672 110.902 235 110.902C301.328 110.902 355.098 164.672 355.098 231Z" fill="url(#paint18_angular)"/>
<path fill-rule="evenodd" clip-rule="evenodd" d="M235 369.295C311.378 369.295 373.295 307.378 373.295 231C373.295 154.622 311.378 92.7049 235 92.7049C158.622 92.7049 96.7049 154.622 96.7049 231C96.7049 307.378 158.622 369.295 235 369.295ZM364.803 231C364.803 302.688 306.688 360.803 235 360.803C163.312 360.803 105.197 302.688 105.197 231C105.197 159.312 163.312 101.197 235 101.197C306.688 101.197 364.803 159.312 364.803 231Z" fill="url(#paint19_angular)"/>
<path fill-rule="evenodd" clip-rule="evenodd" d="M235 379C316.738 379 383 312.738 383 231C383 149.262 316.738 83 235 83C153.262 83 87 149.262 87 231C87 312.738 153.262 379 235 379ZM235 370.508C312.048 370.508 374.508 308.048 374.508 231C374.508 153.952 312.048 91.4918 235 91.4918C157.952 91.4918 95.4918 153.952 95.4918 231C95.4918 308.048 157.952 370.508 235 370.508Z" fill="url(#paint20_angular)"/>
<g filter="url(#filter2_d)">
<rect x="232" y="3" width="6" height="6" rx="2" fill="#C4C4C4"/>
<rect x="230.5" y="1.5" width="9" height="9" rx="3.5" stroke="black" stroke-width="3"/>
</g>
<g filter="url(#filter3_d)">
<rect x="295.356" y="17.3409" width="6" height="6" rx="2" transform="rotate(-165 295.356 17.3409)" fill="#C4C4C4"/>
<rect x="296.416" y="19.1781" width="9" height="9" rx="3.5" transform="rotate(-165 296.416 19.1781)" stroke="black" stroke-width="3"/>
</g>
<g filter="url(#filter4_d)">
<rect x="348.598" y="40.2424" width="6" height="6" rx="2" transform="rotate(-150 348.598 40.2424)" fill="#C4C4C4"/>
<rect x="349.147" y="42.2914" width="9" height="9" rx="3.5" transform="rotate(-150 349.147 42.2914)" stroke="black" stroke-width="3"/>
</g>
<g filter="url(#filter5_d)">
<rect x="75.901" y="394.342" width="6" height="6" rx="2" transform="rotate(-135 75.901 394.342)" fill="#C4C4C4"/>
<rect x="75.901" y="396.463" width="9" height="9" rx="3.5" transform="rotate(-135 75.901 396.463)" stroke="black" stroke-width="3"/>
</g>
<g filter="url(#filter6_d)">
<rect x="394.099" y="76.1436" width="6" height="6" rx="2" transform="rotate(-135 394.099 76.1436)" fill="#C4C4C4"/>
<rect x="394.099" y="78.2649" width="9" height="9" rx="3.5" transform="rotate(-135 394.099 78.2649)" stroke="black" stroke-width="3"/>
</g>
<g filter="url(#filter7_d)">
<rect x="39.0462" y="347.598" width="6" height="6" rx="2" transform="rotate(-120 39.0462 347.598)" fill="#D7C476"/>
<rect x="38.4972" y="349.647" width="9" height="9" rx="3.5" transform="rotate(-120 38.4972 349.647)" stroke="black" stroke-width="3"/>
</g>
<g filter="url(#filter8_d)">
<rect x="428.758" y="122.598" width="6" height="6" rx="2" transform="rotate(-120 428.758 122.598)" fill="#C4C4C4"/>
<rect x="428.209" y="124.647" width="9" height="9" rx="3.5" transform="rotate(-120 428.209 124.647)" stroke="black" stroke-width="3"/>
</g>
<g filter="url(#filter9_d)">
<rect x="15.5453" y="292.909" width="6" height="6" rx="2" transform="rotate(-105 15.5453 292.909)" fill="#C4C4C4"/>
<rect x="14.4847" y="294.746" width="9" height="9" rx="3.5" transform="rotate(-105 14.4847 294.746)" stroke="black" stroke-width="3"/>
</g>
<g filter="url(#filter10_d)">
<rect x="450.212" y="176.44" width="6" height="6" rx="2" transform="rotate(-105 450.212 176.44)" fill="#C4C4C4"/>
<rect x="449.151" y="178.277" width="9" height="9" rx="3.5" transform="rotate(-105 449.151 178.277)" stroke="black" stroke-width="3"/>
</g>
<g filter="url(#filter11_d)">
<rect x="7" y="234" width="6" height="6" rx="2" transform="rotate(-90 7 234)" fill="#C4C4C4"/>
<rect x="5.5" y="235.5" width="9" height="9" rx="3.5" transform="rotate(-90 5.5 235.5)" stroke="black" stroke-width="3"/>
</g>
<g filter="url(#filter12_d)">
<rect x="457" y="234" width="6" height="6" rx="2" transform="rotate(-90 457 234)" fill="#C4C4C4"/>
<rect x="455.5" y="235.5" width="9" height="9" rx="3.5" transform="rotate(-90 455.5 235.5)" stroke="black" stroke-width="3"/>
</g>
<g filter="url(#filter13_d)">
<rect x="13.9924" y="174.887" width="6" height="6" rx="2" transform="rotate(-75 13.9924 174.887)" fill="#C4C4C4"/>
<rect x="12.1553" y="175.948" width="9" height="9" rx="3.5" transform="rotate(-75 12.1553 175.948)" stroke="black" stroke-width="3"/>
</g>
<g filter="url(#filter14_d)">
<rect x="448.659" y="291.356" width="6" height="6" rx="2" transform="rotate(-75 448.659 291.356)" fill="#C4C4C4"/>
<rect x="446.822" y="292.416" width="9" height="9" rx="3.5" transform="rotate(-75 446.822 292.416)" stroke="black" stroke-width="3"/>
</g>
<g filter="url(#filter15_d)">
<rect x="36.0462" y="119.598" width="6" height="6" rx="2" transform="rotate(-60 36.0462 119.598)" fill="#C4C4C4"/>
<rect x="33.9972" y="120.147" width="9" height="9" rx="3.5" transform="rotate(-60 33.9972 120.147)" stroke="black" stroke-width="3"/>
</g>
<g filter="url(#filter16_d)">
<rect x="425.758" y="344.598" width="6" height="6" rx="2" transform="rotate(-60 425.758 344.598)" fill="#C4C4C4"/>
<rect x="423.709" y="345.147" width="9" height="9" rx="3.5" transform="rotate(-60 423.709 345.147)" stroke="black" stroke-width="3"/>
</g>
<g filter="url(#filter17_d)">
<rect x="71.6583" y="71.901" width="6" height="6" rx="2" transform="rotate(-45 71.6583 71.901)" fill="#C4C4C4"/>
<rect x="69.537" y="71.901" width="9" height="9" rx="3.5" transform="rotate(-45 69.537 71.901)" stroke="black" stroke-width="3"/>
</g>
<g filter="url(#filter18_d)">
<rect x="389.856" y="390.099" width="6" height="6" rx="2" transform="rotate(-45 389.856 390.099)" fill="#C4C4C4"/>
<rect x="387.735" y="390.099" width="9" height="9" rx="3.5" transform="rotate(-45 387.735 390.099)" stroke="black" stroke-width="3"/>
</g>
<g filter="url(#filter19_d)">
<rect x="118.402" y="35.0462" width="6" height="6" rx="2" transform="rotate(-30 118.402 35.0462)" fill="#C4C4C4"/>
<rect x="116.353" y="34.4972" width="9" height="9" rx="3.5" transform="rotate(-30 116.353 34.4972)" stroke="black" stroke-width="3"/>
</g>
<g filter="url(#filter20_d)">
<rect x="173.092" y="11.5454" width="6" height="6" rx="2" transform="rotate(-15 173.092 11.5454)" fill="#C4C4C4"/>
<rect x="171.254" y="10.4847" width="9" height="9" rx="3.5" transform="rotate(-15 171.254 10.4847)" stroke="black" stroke-width="3"/>
</g>
<defs>
<filter id="filter0_d" x="3" y="13" width="464" height="464" filterUnits="userSpaceOnUse" color-interpolation-filters="sRGB">
<feFlood flood-opacity="0" result="BackgroundImageFix"/>
<feColorMatrix in="SourceAlpha" type="matrix" values="0 0 0 0 0 0 0 0 0 0 0 0 0 0 0 0 0 0 127 0" result="hardAlpha"/>
<feOffset dy="14"/>
<feGaussianBlur stdDeviation="10"/>
<feComposite in2="hardAlpha" operator="out"/>
<feColorMatrix type="matrix" values="0 0 0 0 0 0 0 0 0 0 0 0 0 0 0 0 0 0 0.6 0"/>
<feBlend mode="normal" in2="BackgroundImageFix" result="effect1_dropShadow"/>
<feBlend mode="normal" in="SourceGraphic" in2="effect1_dropShadow" result="shape"/>
</filter>
<filter id="filter1_d" x="23" y="19" width="424.973" height="424.973" filterUnits="userSpaceOnUse" color-interpolation-filters="sRGB">
<feFlood flood-opacity="0" result="BackgroundImageFix"/>
<feColorMatrix in="SourceAlpha" type="matrix" values="0 0 0 0 0 0 0 0 0 0 0 0 0 0 0 0 0 0 127 0" result="hardAlpha"/>
<feOffset/>
<feGaussianBlur stdDeviation="12"/>
<feComposite in2="hardAlpha" operator="out"/>
<feColorMatrix type="matrix" values="0 0 0 0 0 0 0 0 0 0 0 0 0 0 0 0 0 0 1 0"/>
<feBlend mode="normal" in2="BackgroundImageFix" result="effect1_dropShadow"/>
<feBlend mode="normal" in="SourceGraphic" in2="effect1_dropShadow" result="shape"/>
</filter>
<filter id="filter2_d" x="225" y="0" width="20" height="20" filterUnits="userSpaceOnUse" color-interpolation-filters="sRGB">
<feFlood flood-opacity="0" result="BackgroundImageFix"/>
<feColorMatrix in="SourceAlpha" type="matrix" values="0 0 0 0 0 0 0 0 0 0 0 0 0 0 0 0 0 0 127 0" result="hardAlpha"/>
<feOffset dy="4"/>
<feGaussianBlur stdDeviation="2"/>
<feComposite in2="hardAlpha" operator="out"/>
<feColorMatrix type="matrix" values="0 0 0 0 0 0 0 0 0 0 0 0 0 0 0 0 0 0 0.25 0"/>
<feBlend mode="normal" in2="BackgroundImageFix" result="effect1_dropShadow"/>
<feBlend mode="normal" in="SourceGraphic" in2="effect1_dropShadow" result="shape"/>
</filter>
<filter id="filter3_d" x="281.886" y="6.31824" width="22.6969" height="22.6969" filterUnits="userSpaceOnUse" color-interpolation-filters="sRGB">
<feFlood flood-opacity="0" result="BackgroundImageFix"/>
<feColorMatrix in="SourceAlpha" type="matrix" values="0 0 0 0 0 0 0 0 0 0 0 0 0 0 0 0 0 0 127 0" result="hardAlpha"/>
<feOffset dy="4"/>
<feGaussianBlur stdDeviation="2"/>
<feComposite in2="hardAlpha" operator="out"/>
<feColorMatrix type="matrix" values="0 0 0 0 0 0 0 0 0 0 0 0 0 0 0 0 0 0 0.25 0"/>
<feBlend mode="normal" in2="BackgroundImageFix" result="effect1_dropShadow"/>
<feBlend mode="normal" in="SourceGraphic" in2="effect1_dropShadow" result="shape"/>
</filter>
<filter id="filter4_d" x="335.304" y="27.9481" width="24.3923" height="24.3923" filterUnits="userSpaceOnUse" color-interpolation-filters="sRGB">
<feFlood flood-opacity="0" result="BackgroundImageFix"/>
<feColorMatrix in="SourceAlpha" type="matrix" values="0 0 0 0 0 0 0 0 0 0 0 0 0 0 0 0 0 0 127 0" result="hardAlpha"/>
<feOffset dy="4"/>
<feGaussianBlur stdDeviation="2"/>
<feComposite in2="hardAlpha" operator="out"/>
<feColorMatrix type="matrix" values="0 0 0 0 0 0 0 0 0 0 0 0 0 0 0 0 0 0 0.25 0"/>
<feBlend mode="normal" in2="BackgroundImageFix" result="effect1_dropShadow"/>
<feBlend mode="normal" in="SourceGraphic" in2="effect1_dropShadow" result="shape"/>
</filter>
<filter id="filter5_d" x="63.4157" y="381.614" width="24.9706" height="24.9706" filterUnits="userSpaceOnUse" color-interpolation-filters="sRGB">
<feFlood flood-opacity="0" result="BackgroundImageFix"/>
<feColorMatrix in="SourceAlpha" type="matrix" values="0 0 0 0 0 0 0 0 0 0 0 0 0 0 0 0 0 0 127 0" result="hardAlpha"/>
<feOffset dy="4"/>
<feGaussianBlur stdDeviation="2"/>
<feComposite in2="hardAlpha" operator="out"/>
<feColorMatrix type="matrix" values="0 0 0 0 0 0 0 0 0 0 0 0 0 0 0 0 0 0 0.25 0"/>
<feBlend mode="normal" in2="BackgroundImageFix" result="effect1_dropShadow"/>
<feBlend mode="normal" in="SourceGraphic" in2="effect1_dropShadow" result="shape"/>
</filter>
<filter id="filter6_d" x="381.614" y="63.4157" width="24.9706" height="24.9706" filterUnits="userSpaceOnUse" color-interpolation-filters="sRGB">
<feFlood flood-opacity="0" result="BackgroundImageFix"/>
<feColorMatrix in="SourceAlpha" type="matrix" values="0 0 0 0 0 0 0 0 0 0 0 0 0 0 0 0 0 0 127 0" result="hardAlpha"/>
<feOffset dy="4"/>
<feGaussianBlur stdDeviation="2"/>
<feComposite in2="hardAlpha" operator="out"/>
<feColorMatrix type="matrix" values="0 0 0 0 0 0 0 0 0 0 0 0 0 0 0 0 0 0 0.25 0"/>
<feBlend mode="normal" in2="BackgroundImageFix" result="effect1_dropShadow"/>
<feBlend mode="normal" in="SourceGraphic" in2="effect1_dropShadow" result="shape"/>
</filter>
<filter id="filter7_d" x="27.9481" y="335.304" width="24.3923" height="24.3923" filterUnits="userSpaceOnUse" color-interpolation-filters="sRGB">
<feFlood flood-opacity="0" result="BackgroundImageFix"/>
<feColorMatrix in="SourceAlpha" type="matrix" values="0 0 0 0 0 0 0 0 0 0 0 0 0 0 0 0 0 0 127 0" result="hardAlpha"/>
<feOffset dy="4"/>
<feGaussianBlur stdDeviation="2"/>
<feComposite in2="hardAlpha" operator="out"/>
<feColorMatrix type="matrix" values="0 0 0 0 0 0 0 0 0 0 0 0 0 0 0 0 0 0 0.25 0"/>
<feBlend mode="normal" in2="BackgroundImageFix" result="effect1_dropShadow"/>
<feBlend mode="normal" in="SourceGraphic" in2="effect1_dropShadow" result="shape"/>
</filter>
<filter id="filter8_d" x="417.66" y="110.304" width="24.3923" height="24.3923" filterUnits="userSpaceOnUse" color-interpolation-filters="sRGB">
<feFlood flood-opacity="0" result="BackgroundImageFix"/>
<feColorMatrix in="SourceAlpha" type="matrix" values="0 0 0 0 0 0 0 0 0 0 0 0 0 0 0 0 0 0 127 0" result="hardAlpha"/>
<feOffset dy="4"/>
<feGaussianBlur stdDeviation="2"/>
<feComposite in2="hardAlpha" operator="out"/>
<feColorMatrix type="matrix" values="0 0 0 0 0 0 0 0 0 0 0 0 0 0 0 0 0 0 0.25 0"/>
<feBlend mode="normal" in2="BackgroundImageFix" result="effect1_dropShadow"/>
<feBlend mode="normal" in="SourceGraphic" in2="effect1_dropShadow" result="shape"/>
</filter>
<filter id="filter9_d" x="6.31818" y="281.886" width="22.6969" height="22.6969" filterUnits="userSpaceOnUse" color-interpolation-filters="sRGB">
<feFlood flood-opacity="0" result="BackgroundImageFix"/>
<feColorMatrix in="SourceAlpha" type="matrix" values="0 0 0 0 0 0 0 0 0 0 0 0 0 0 0 0 0 0 127 0" result="hardAlpha"/>
<feOffset dy="4"/>
<feGaussianBlur stdDeviation="2"/>
<feComposite in2="hardAlpha" operator="out"/>
<feColorMatrix type="matrix" values="0 0 0 0 0 0 0 0 0 0 0 0 0 0 0 0 0 0 0.25 0"/>
<feBlend mode="normal" in2="BackgroundImageFix" result="effect1_dropShadow"/>
<feBlend mode="normal" in="SourceGraphic" in2="effect1_dropShadow" result="shape"/>
</filter>
<filter id="filter10_d" x="440.985" y="165.417" width="22.6969" height="22.6969" filterUnits="userSpaceOnUse" color-interpolation-filters="sRGB">
<feFlood flood-opacity="0" result="BackgroundImageFix"/>
<feColorMatrix in="SourceAlpha" type="matrix" values="0 0 0 0 0 0 0 0 0 0 0 0 0 0 0 0 0 0 127 0" result="hardAlpha"/>
<feOffset dy="4"/>
<feGaussianBlur stdDeviation="2"/>
<feComposite in2="hardAlpha" operator="out"/>
<feColorMatrix type="matrix" values="0 0 0 0 0 0 0 0 0 0 0 0 0 0 0 0 0 0 0.25 0"/>
<feBlend mode="normal" in2="BackgroundImageFix" result="effect1_dropShadow"/>
<feBlend mode="normal" in="SourceGraphic" in2="effect1_dropShadow" result="shape"/>
</filter>
<filter id="filter11_d" x="0" y="225" width="20" height="20" filterUnits="userSpaceOnUse" color-interpolation-filters="sRGB">
<feFlood flood-opacity="0" result="BackgroundImageFix"/>
<feColorMatrix in="SourceAlpha" type="matrix" values="0 0 0 0 0 0 0 0 0 0 0 0 0 0 0 0 0 0 127 0" result="hardAlpha"/>
<feOffset dy="4"/>
<feGaussianBlur stdDeviation="2"/>
<feComposite in2="hardAlpha" operator="out"/>
<feColorMatrix type="matrix" values="0 0 0 0 0 0 0 0 0 0 0 0 0 0 0 0 0 0 0.25 0"/>
<feBlend mode="normal" in2="BackgroundImageFix" result="effect1_dropShadow"/>
<feBlend mode="normal" in="SourceGraphic" in2="effect1_dropShadow" result="shape"/>
</filter>
<filter id="filter12_d" x="450" y="225" width="20" height="20" filterUnits="userSpaceOnUse" color-interpolation-filters="sRGB">
<feFlood flood-opacity="0" result="BackgroundImageFix"/>
<feColorMatrix in="SourceAlpha" type="matrix" values="0 0 0 0 0 0 0 0 0 0 0 0 0 0 0 0 0 0 127 0" result="hardAlpha"/>
<feOffset dy="4"/>
<feGaussianBlur stdDeviation="2"/>
<feComposite in2="hardAlpha" operator="out"/>
<feColorMatrix type="matrix" values="0 0 0 0 0 0 0 0 0 0 0 0 0 0 0 0 0 0 0.25 0"/>
<feBlend mode="normal" in2="BackgroundImageFix" result="effect1_dropShadow"/>
<feBlend mode="normal" in="SourceGraphic" in2="effect1_dropShadow" result="shape"/>
</filter>
<filter id="filter13_d" x="6.31818" y="165.417" width="22.6969" height="22.6969" filterUnits="userSpaceOnUse" color-interpolation-filters="sRGB">
<feFlood flood-opacity="0" result="BackgroundImageFix"/>
<feColorMatrix in="SourceAlpha" type="matrix" values="0 0 0 0 0 0 0 0 0 0 0 0 0 0 0 0 0 0 127 0" result="hardAlpha"/>
<feOffset dy="4"/>
<feGaussianBlur stdDeviation="2"/>
<feComposite in2="hardAlpha" operator="out"/>
<feColorMatrix type="matrix" values="0 0 0 0 0 0 0 0 0 0 0 0 0 0 0 0 0 0 0.25 0"/>
<feBlend mode="normal" in2="BackgroundImageFix" result="effect1_dropShadow"/>
<feBlend mode="normal" in="SourceGraphic" in2="effect1_dropShadow" result="shape"/>
</filter>
<filter id="filter14_d" x="440.985" y="281.886" width="22.6969" height="22.6969" filterUnits="userSpaceOnUse" color-interpolation-filters="sRGB">
<feFlood flood-opacity="0" result="BackgroundImageFix"/>
<feColorMatrix in="SourceAlpha" type="matrix" values="0 0 0 0 0 0 0 0 0 0 0 0 0 0 0 0 0 0 127 0" result="hardAlpha"/>
<feOffset dy="4"/>
<feGaussianBlur stdDeviation="2"/>
<feComposite in2="hardAlpha" operator="out"/>
<feColorMatrix type="matrix" values="0 0 0 0 0 0 0 0 0 0 0 0 0 0 0 0 0 0 0.25 0"/>
<feBlend mode="normal" in2="BackgroundImageFix" result="effect1_dropShadow"/>
<feBlend mode="normal" in="SourceGraphic" in2="effect1_dropShadow" result="shape"/>
</filter>
<filter id="filter15_d" x="27.9481" y="110.304" width="24.3923" height="24.3923" filterUnits="userSpaceOnUse" color-interpolation-filters="sRGB">
<feFlood flood-opacity="0" result="BackgroundImageFix"/>
<feColorMatrix in="SourceAlpha" type="matrix" values="0 0 0 0 0 0 0 0 0 0 0 0 0 0 0 0 0 0 127 0" result="hardAlpha"/>
<feOffset dy="4"/>
<feGaussianBlur stdDeviation="2"/>
<feComposite in2="hardAlpha" operator="out"/>
<feColorMatrix type="matrix" values="0 0 0 0 0 0 0 0 0 0 0 0 0 0 0 0 0 0 0.25 0"/>
<feBlend mode="normal" in2="BackgroundImageFix" result="effect1_dropShadow"/>
<feBlend mode="normal" in="SourceGraphic" in2="effect1_dropShadow" result="shape"/>
</filter>
<filter id="filter16_d" x="417.66" y="335.304" width="24.3923" height="24.3923" filterUnits="userSpaceOnUse" color-interpolation-filters="sRGB">
<feFlood flood-opacity="0" result="BackgroundImageFix"/>
<feColorMatrix in="SourceAlpha" type="matrix" values="0 0 0 0 0 0 0 0 0 0 0 0 0 0 0 0 0 0 127 0" result="hardAlpha"/>
<feOffset dy="4"/>
<feGaussianBlur stdDeviation="2"/>
<feComposite in2="hardAlpha" operator="out"/>
<feColorMatrix type="matrix" values="0 0 0 0 0 0 0 0 0 0 0 0 0 0 0 0 0 0 0.25 0"/>
<feBlend mode="normal" in2="BackgroundImageFix" result="effect1_dropShadow"/>
<feBlend mode="normal" in="SourceGraphic" in2="effect1_dropShadow" result="shape"/>
</filter>
<filter id="filter17_d" x="63.4157" y="63.4157" width="24.9706" height="24.9706" filterUnits="userSpaceOnUse" color-interpolation-filters="sRGB">
<feFlood flood-opacity="0" result="BackgroundImageFix"/>
<feColorMatrix in="SourceAlpha" type="matrix" values="0 0 0 0 0 0 0 0 0 0 0 0 0 0 0 0 0 0 127 0" result="hardAlpha"/>
<feOffset dy="4"/>
<feGaussianBlur stdDeviation="2"/>
<feComposite in2="hardAlpha" operator="out"/>
<feColorMatrix type="matrix" values="0 0 0 0 0 0 0 0 0 0 0 0 0 0 0 0 0 0 0.25 0"/>
<feBlend mode="normal" in2="BackgroundImageFix" result="effect1_dropShadow"/>
<feBlend mode="normal" in="SourceGraphic" in2="effect1_dropShadow" result="shape"/>
</filter>
<filter id="filter18_d" x="381.614" y="381.614" width="24.9706" height="24.9706" filterUnits="userSpaceOnUse" color-interpolation-filters="sRGB">
<feFlood flood-opacity="0" result="BackgroundImageFix"/>
<feColorMatrix in="SourceAlpha" type="matrix" values="0 0 0 0 0 0 0 0 0 0 0 0 0 0 0 0 0 0 127 0" result="hardAlpha"/>
<feOffset dy="4"/>
<feGaussianBlur stdDeviation="2"/>
<feComposite in2="hardAlpha" operator="out"/>
<feColorMatrix type="matrix" values="0 0 0 0 0 0 0 0 0 0 0 0 0 0 0 0 0 0 0.25 0"/>
<feBlend mode="normal" in2="BackgroundImageFix" result="effect1_dropShadow"/>
<feBlend mode="normal" in="SourceGraphic" in2="effect1_dropShadow" result="shape"/>
</filter>
<filter id="filter19_d" x="110.304" y="27.9481" width="24.3923" height="24.3923" filterUnits="userSpaceOnUse" color-interpolation-filters="sRGB">
<feFlood flood-opacity="0" result="BackgroundImageFix"/>
<feColorMatrix in="SourceAlpha" type="matrix" values="0 0 0 0 0 0 0 0 0 0 0 0 0 0 0 0 0 0 127 0" result="hardAlpha"/>
<feOffset dy="4"/>
<feGaussianBlur stdDeviation="2"/>
<feComposite in2="hardAlpha" operator="out"/>
<feColorMatrix type="matrix" values="0 0 0 0 0 0 0 0 0 0 0 0 0 0 0 0 0 0 0.25 0"/>
<feBlend mode="normal" in2="BackgroundImageFix" result="effect1_dropShadow"/>
<feBlend mode="normal" in="SourceGraphic" in2="effect1_dropShadow" result="shape"/>
</filter>
<filter id="filter20_d" x="165.417" y="6.31821" width="22.6969" height="22.6969" filterUnits="userSpaceOnUse" color-interpolation-filters="sRGB">
<feFlood flood-opacity="0" result="BackgroundImageFix"/>
<feColorMatrix in="SourceAlpha" type="matrix" values="0 0 0 0 0 0 0 0 0 0 0 0 0 0 0 0 0 0 127 0" result="hardAlpha"/>
<feOffset dy="4"/>
<feGaussianBlur stdDeviation="2"/>
<feComposite in2="hardAlpha" operator="out"/>
<feColorMatrix type="matrix" values="0 0 0 0 0 0 0 0 0 0 0 0 0 0 0 0 0 0 0.25 0"/>
<feBlend mode="normal" in2="BackgroundImageFix" result="effect1_dropShadow"/>
<feBlend mode="normal" in="SourceGraphic" in2="effect1_dropShadow" result="shape"/>
</filter>
<linearGradient id="paint0_linear" x1="235" y1="19" x2="235" y2="443" gradientUnits="userSpaceOnUse">
<stop stop-color="#313131"/>
<stop offset="1" stop-color="#222222"/>
</linearGradient>
<radialGradient id="paint1_radial" cx="0" cy="0" r="1" gradientUnits="userSpaceOnUse" gradientTransform="translate(235.487 231.487) rotate(90) scale(188.487)">
<stop stop-color="#383838"/>
<stop offset="1" stop-color="#1E1E1E"/>
</radialGradient>
<linearGradient id="paint2_linear" x1="235" y1="74" x2="235" y2="388" gradientUnits="userSpaceOnUse">
<stop stop-color="#888888"/>
<stop offset="0.71875" stop-color="#202020"/>
<stop offset="1" stop-color="#3B3B3B"/>
</linearGradient>
<radialGradient id="paint3_angular" cx="0" cy="0" r="1" gradientUnits="userSpaceOnUse" gradientTransform="translate(235 231) rotate(90) scale(148)">
<stop stop-color="#F8F0CC"/>
<stop offset="0.125" stop-color="#826130"/>
<stop offset="0.234375" stop-color="#F4E9A8"/>
<stop offset="0.364583" stop-color="#7F5E2E"/>
<stop offset="0.484375" stop-color="#F9EAA1"/>
<stop offset="0.604167" stop-color="#5F3F14"/>
<stop offset="0.744792" stop-color="#CBB666"/>
<stop offset="0.875" stop-color="#81602F"/>
<stop offset="1" stop-color="#F8F0CC"/>
</radialGradient>
<radialGradient id="paint4_angular" cx="0" cy="0" r="1" gradientUnits="userSpaceOnUse" gradientTransform="translate(235 231) rotate(90) scale(148)">
<stop stop-color="#F8F0CC"/>
<stop offset="0.125" stop-color="#826130"/>
<stop offset="0.234375" stop-color="#F4E9A8"/>
<stop offset="0.364583" stop-color="#7F5E2E"/>
<stop offset="0.484375" stop-color="#F9EAA1"/>
<stop offset="0.604167" stop-color="#5F3F14"/>
<stop offset="0.744792" stop-color="#CBB666"/>
<stop offset="0.875" stop-color="#81602F"/>
<stop offset="1" stop-color="#F8F0CC"/>
</radialGradient>
<radialGradient id="paint5_angular" cx="0" cy="0" r="1" gradientUnits="userSpaceOnUse" gradientTransform="translate(235 231) rotate(90) scale(148)">
<stop stop-color="#F8F0CC"/>
<stop offset="0.125" stop-color="#826130"/>
<stop offset="0.234375" stop-color="#F4E9A8"/>
<stop offset="0.364583" stop-color="#7F5E2E"/>
<stop offset="0.484375" stop-color="#F9EAA1"/>
<stop offset="0.604167" stop-color="#5F3F14"/>
<stop offset="0.744792" stop-color="#CBB666"/>
<stop offset="0.875" stop-color="#81602F"/>
<stop offset="1" stop-color="#F8F0CC"/>
</radialGradient>
<radialGradient id="paint6_angular" cx="0" cy="0" r="1" gradientUnits="userSpaceOnUse" gradientTransform="translate(235 231) rotate(90) scale(148)">
<stop stop-color="#F8F0CC"/>
<stop offset="0.125" stop-color="#826130"/>
<stop offset="0.234375" stop-color="#F4E9A8"/>
<stop offset="0.364583" stop-color="#7F5E2E"/>
<stop offset="0.484375" stop-color="#F9EAA1"/>
<stop offset="0.604167" stop-color="#5F3F14"/>
<stop offset="0.744792" stop-color="#CBB666"/>
<stop offset="0.875" stop-color="#81602F"/>
<stop offset="1" stop-color="#F8F0CC"/>
</radialGradient>
<radialGradient id="paint7_angular" cx="0" cy="0" r="1" gradientUnits="userSpaceOnUse" gradientTransform="translate(235 231) rotate(90) scale(148)">
<stop stop-color="#F8F0CC"/>
<stop offset="0.125" stop-color="#826130"/>
<stop offset="0.234375" stop-color="#F4E9A8"/>
<stop offset="0.364583" stop-color="#7F5E2E"/>
<stop offset="0.484375" stop-color="#F9EAA1"/>
<stop offset="0.604167" stop-color="#5F3F14"/>
<stop offset="0.744792" stop-color="#CBB666"/>
<stop offset="0.875" stop-color="#81602F"/>
<stop offset="1" stop-color="#F8F0CC"/>
</radialGradient>
<radialGradient id="paint8_angular" cx="0" cy="0" r="1" gradientUnits="userSpaceOnUse" gradientTransform="translate(235 231) rotate(90) scale(148)">
<stop stop-color="#F8F0CC"/>
<stop offset="0.125" stop-color="#826130"/>
<stop offset="0.234375" stop-color="#F4E9A8"/>
<stop offset="0.364583" stop-color="#7F5E2E"/>
<stop offset="0.484375" stop-color="#F9EAA1"/>
<stop offset="0.604167" stop-color="#5F3F14"/>
<stop offset="0.744792" stop-color="#CBB666"/>
<stop offset="0.875" stop-color="#81602F"/>
<stop offset="1" stop-color="#F8F0CC"/>
</radialGradient>
<radialGradient id="paint9_angular" cx="0" cy="0" r="1" gradientUnits="userSpaceOnUse" gradientTransform="translate(235 231) rotate(90) scale(148)">
<stop stop-color="#F8F0CC"/>
<stop offset="0.125" stop-color="#826130"/>
<stop offset="0.234375" stop-color="#F4E9A8"/>
<stop offset="0.364583" stop-color="#7F5E2E"/>
<stop offset="0.484375" stop-color="#F9EAA1"/>
<stop offset="0.604167" stop-color="#5F3F14"/>
<stop offset="0.744792" stop-color="#CBB666"/>
<stop offset="0.875" stop-color="#81602F"/>
<stop offset="1" stop-color="#F8F0CC"/>
</radialGradient>
<radialGradient id="paint10_angular" cx="0" cy="0" r="1" gradientUnits="userSpaceOnUse" gradientTransform="translate(235 231) rotate(90) scale(148)">
<stop stop-color="#F8F0CC"/>
<stop offset="0.125" stop-color="#826130"/>
<stop offset="0.234375" stop-color="#F4E9A8"/>
<stop offset="0.364583" stop-color="#7F5E2E"/>
<stop offset="0.484375" stop-color="#F9EAA1"/>
<stop offset="0.604167" stop-color="#5F3F14"/>
<stop offset="0.744792" stop-color="#CBB666"/>
<stop offset="0.875" stop-color="#81602F"/>
<stop offset="1" stop-color="#F8F0CC"/>
</radialGradient>
<radialGradient id="paint11_angular" cx="0" cy="0" r="1" gradientUnits="userSpaceOnUse" gradientTransform="translate(235 231) rotate(90) scale(148)">
<stop stop-color="#F8F0CC"/>
<stop offset="0.125" stop-color="#826130"/>
<stop offset="0.234375" stop-color="#F4E9A8"/>
<stop offset="0.364583" stop-color="#7F5E2E"/>
<stop offset="0.484375" stop-color="#F9EAA1"/>
<stop offset="0.604167" stop-color="#5F3F14"/>
<stop offset="0.744792" stop-color="#CBB666"/>
<stop offset="0.875" stop-color="#81602F"/>
<stop offset="1" stop-color="#F8F0CC"/>
</radialGradient>
<radialGradient id="paint12_angular" cx="0" cy="0" r="1" gradientUnits="userSpaceOnUse" gradientTransform="translate(235 231) rotate(90) scale(148)">
<stop stop-color="#F8F0CC"/>
<stop offset="0.125" stop-color="#826130"/>
<stop offset="0.234375" stop-color="#F4E9A8"/>
<stop offset="0.364583" stop-color="#7F5E2E"/>
<stop offset="0.484375" stop-color="#F9EAA1"/>
<stop offset="0.604167" stop-color="#5F3F14"/>
<stop offset="0.744792" stop-color="#CBB666"/>
<stop offset="0.875" stop-color="#81602F"/>
<stop offset="1" stop-color="#F8F0CC"/>
</radialGradient>
<radialGradient id="paint13_angular" cx="0" cy="0" r="1" gradientUnits="userSpaceOnUse" gradientTransform="translate(235 231) rotate(90) scale(148)">
<stop stop-color="#F8F0CC"/>
<stop offset="0.125" stop-color="#826130"/>
<stop offset="0.234375" stop-color="#F4E9A8"/>
<stop offset="0.364583" stop-color="#7F5E2E"/>
<stop offset="0.484375" stop-color="#F9EAA1"/>
<stop offset="0.604167" stop-color="#5F3F14"/>
<stop offset="0.744792" stop-color="#CBB666"/>
<stop offset="0.875" stop-color="#81602F"/>
<stop offset="1" stop-color="#F8F0CC"/>
</radialGradient>
<radialGradient id="paint14_angular" cx="0" cy="0" r="1" gradientUnits="userSpaceOnUse" gradientTransform="translate(235 231) rotate(90) scale(148)">
<stop stop-color="#F8F0CC"/>
<stop offset="0.125" stop-color="#826130"/>
<stop offset="0.234375" stop-color="#F4E9A8"/>
<stop offset="0.364583" stop-color="#7F5E2E"/>
<stop offset="0.484375" stop-color="#F9EAA1"/>
<stop offset="0.604167" stop-color="#5F3F14"/>
<stop offset="0.744792" stop-color="#CBB666"/>
<stop offset="0.875" stop-color="#81602F"/>
<stop offset="1" stop-color="#F8F0CC"/>
</radialGradient>
<radialGradient id="paint15_angular" cx="0" cy="0" r="1" gradientUnits="userSpaceOnUse" gradientTransform="translate(235 231) rotate(90) scale(148)">
<stop stop-color="#F8F0CC"/>
<stop offset="0.125" stop-color="#826130"/>
<stop offset="0.234375" stop-color="#F4E9A8"/>
<stop offset="0.364583" stop-color="#7F5E2E"/>
<stop offset="0.484375" stop-color="#F9EAA1"/>
<stop offset="0.604167" stop-color="#5F3F14"/>
<stop offset="0.744792" stop-color="#CBB666"/>
<stop offset="0.875" stop-color="#81602F"/>
<stop offset="1" stop-color="#F8F0CC"/>
</radialGradient>
<radialGradient id="paint16_angular" cx="0" cy="0" r="1" gradientUnits="userSpaceOnUse" gradientTransform="translate(235 231) rotate(90) scale(148)">
<stop stop-color="#F8F0CC"/>
<stop offset="0.125" stop-color="#826130"/>
<stop offset="0.234375" stop-color="#F4E9A8"/>
<stop offset="0.364583" stop-color="#7F5E2E"/>
<stop offset="0.484375" stop-color="#F9EAA1"/>
<stop offset="0.604167" stop-color="#5F3F14"/>
<stop offset="0.744792" stop-color="#CBB666"/>
<stop offset="0.875" stop-color="#81602F"/>
<stop offset="1" stop-color="#F8F0CC"/>
</radialGradient>
<radialGradient id="paint17_angular" cx="0" cy="0" r="1" gradientUnits="userSpaceOnUse" gradientTransform="translate(235 231) rotate(90) scale(148)">
<stop stop-color="#F8F0CC"/>
<stop offset="0.125" stop-color="#826130"/>
<stop offset="0.234375" stop-color="#F4E9A8"/>
<stop offset="0.364583" stop-color="#7F5E2E"/>
<stop offset="0.484375" stop-color="#F9EAA1"/>
<stop offset="0.604167" stop-color="#5F3F14"/>
<stop offset="0.744792" stop-color="#CBB666"/>
<stop offset="0.875" stop-color="#81602F"/>
<stop offset="1" stop-color="#F8F0CC"/>
</radialGradient>
<radialGradient id="paint18_angular" cx="0" cy="0" r="1" gradientUnits="userSpaceOnUse" gradientTransform="translate(235 231) rotate(90) scale(148)">
<stop stop-color="#F8F0CC"/>
<stop offset="0.125" stop-color="#826130"/>
<stop offset="0.234375" stop-color="#F4E9A8"/>
<stop offset="0.364583" stop-color="#7F5E2E"/>
<stop offset="0.484375" stop-color="#F9EAA1"/>
<stop offset="0.604167" stop-color="#5F3F14"/>
<stop offset="0.744792" stop-color="#CBB666"/>
<stop offset="0.875" stop-color="#81602F"/>
<stop offset="1" stop-color="#F8F0CC"/>
</radialGradient>
<radialGradient id="paint19_angular" cx="0" cy="0" r="1" gradientUnits="userSpaceOnUse" gradientTransform="translate(235 231) rotate(90) scale(148)">
<stop stop-color="#F8F0CC"/>
<stop offset="0.125" stop-color="#826130"/>
<stop offset="0.234375" stop-color="#F4E9A8"/>
<stop offset="0.364583" stop-color="#7F5E2E"/>
<stop offset="0.484375" stop-color="#F9EAA1"/>
<stop offset="0.604167" stop-color="#5F3F14"/>
<stop offset="0.744792" stop-color="#CBB666"/>
<stop offset="0.875" stop-color="#81602F"/>
<stop offset="1" stop-color="#F8F0CC"/>
</radialGradient>
<radialGradient id="paint20_angular" cx="0" cy="0" r="1" gradientUnits="userSpaceOnUse" gradientTransform="translate(235 231) rotate(90) scale(148)">
<stop stop-color="#F8F0CC"/>
<stop offset="0.125" stop-color="#826130"/>
<stop offset="0.234375" stop-color="#F4E9A8"/>
<stop offset="0.364583" stop-color="#7F5E2E"/>
<stop offset="0.484375" stop-color="#F9EAA1"/>
<stop offset="0.604167" stop-color="#5F3F14"/>
<stop offset="0.744792" stop-color="#CBB666"/>
<stop offset="0.875" stop-color="#81602F"/>
<stop offset="1" stop-color="#F8F0CC"/>
</radialGradient>
</defs>
</svg>

