<?xml version="1.0" encoding="UTF-8" standalone="no"?>
<svg
   width="69.828896"
   height="69.305794"
   viewBox="0 0 69.828896 69.305794"
   fill="none"
   version="1.1"
   id="svg78"
   sodipodi:docname="Group 4.svg"
   inkscape:version="1.1 (c68e22c387, 2021-05-23)"
   xmlns:inkscape="http://www.inkscape.org/namespaces/inkscape"
   xmlns:sodipodi="http://sodipodi.sourceforge.net/DTD/sodipodi-0.dtd"
   xmlns="http://www.w3.org/2000/svg"
   xmlns:svg="http://www.w3.org/2000/svg">
  <sodipodi:namedview
     id="namedview80"
     pagecolor="#ffffff"
     bordercolor="#666666"
     borderopacity="1.0"
     inkscape:pageshadow="2"
     inkscape:pageopacity="0.0"
     inkscape:pagecheckerboard="0"
     showgrid="false"
     fit-margin-top="0"
     fit-margin-left="0"
     fit-margin-right="0"
     fit-margin-bottom="0"
     inkscape:zoom="11.728571"
     inkscape:cx="34.872107"
     inkscape:cy="28.136419"
     inkscape:window-width="1920"
     inkscape:window-height="1007"
     inkscape:window-x="0"
     inkscape:window-y="0"
     inkscape:window-maximized="1"
     inkscape:current-layer="svg78" />
  <g
     id="g983"
     transform="rotate(-135,34.916492,34.652945)">
    <path
       fill-rule="evenodd"
       clip-rule="evenodd"
       d="M 33.163992,7.1518749 32.443392,0 c -1.416,0.0980269 -2.8088,0.2796499 -4.1733,0.5399309 l 1.17,7.099774 c 0.2606,0.96519 -0.3165,1.95729 -1.289,2.21591 -0.9724,0.2585801 -1.972,-0.31416 -2.2326,-1.27936 l -2.5609,-6.72307 c -1.2888,0.4473 -2.5432,0.96731 -3.7581,1.55508 l 2.9825,6.55963 c 0.5034,0.8653001 0.2047,1.9719001 -0.6672,2.4715001 -0.8719,0.4996 -1.9867,0.2031 -2.4901,-0.6623 l -4.2238,-5.8318501 c -1.1263,0.76339 -2.2054,1.59038 -3.232,2.47575 l 4.5872,5.5646001 c 0.7119,0.7066 0.7119,1.8522 0,2.5587 -0.7119,0.7066 -1.8661,0.7066 -2.578,0 l -5.5974898,-4.5456 c -0.88224,1.0171 -1.70613,2.0854 -2.46653,3.1998 l 5.8856198,4.1993 c 0.8718,0.4996 1.1706,1.6062 0.6672,2.4715 -0.5034,0.8654 -1.6182,1.1619 -2.4900998,0.6623 l -6.60178,-2.9571 c -0.58738,1.2081 -1.10638,2.4551 -1.55199,3.7361 l 6.78552,2.5463 c 0.97245,0.2586 1.5495498,1.2507 1.28898,2.2159 -0.26057,0.9652 -1.26013,1.538 -2.23258,1.2794 l -7.145801,-1.1601 c -0.249245,1.3152 -0.423805,2.6566 -0.5191412,4.0197 l 7.2098222,0.7156 c 1.00676,0 1.8229,0.81 1.8229,1.8092 0,0.9993 -0.81614,1.8093 -1.8229,1.8093 l -7.1977987,0.7144 c 0.1011327,1.3527 0.2803137,2.6839 0.5330897,3.9891 l 7.140099,-1.1592 c 0.97246,-0.2586 1.97201,0.3142 2.23258,1.2794 0.2605998,0.9651 -0.31652,1.9572 -1.28898,2.2159 l -6.76121,2.5371 c 0.45055,1.2789 0.97432,2.5237 1.56633,3.7294 l 6.5978598,-2.9553 c 0.8719,-0.4997 1.9868,-0.2032 2.4901,0.6622 0.5034,0.8654 0.2047,1.9719 -0.6672,2.4715 l -5.8662598,4.1855 c 0.76886,1.1178 1.60177,2.1887 2.49348,3.2075 l 5.5974798,-4.5455 c 0.7119,-0.7066 1.8661,-0.7066 2.578,0 0.7118,0.7065 0.7118,1.8521 0,2.5587 l -4.573,5.5474 c 1.0245,0.8759 2.1007,1.6939 3.2235,2.4489 l 4.2252,-5.8339 c 0.5034,-0.8654 1.6182,-1.1619 2.4901,-0.6623 0.8719,0.4997 1.1706,1.6062 0.6672,2.4716 l -2.9758,6.5448 c 1.2166,0.5831 2.4725,1.0984 3.7625,1.5409 l 2.563,-6.7284 c 0.2606,-0.9652 1.2602,-1.538 2.2326,-1.2794 0.9725,0.2587 1.5496,1.2507 1.289,2.2159 l -1.168,7.0872 c 1.3248,0.2478 2.6759,0.4215 4.0489,0.5165 l 0.7206,-7.1518 c 0,-0.9993 0.8161,-1.8093 1.8229,-1.8093 1.0067,0 1.8229,0.81 1.8229,1.8093 l 0.7195,7.1417 c 1.3219,-0.0969 2.6234,-0.2666 3.9004,-0.5052 l -1.1678,-7.0862 c -0.2606,-0.9652 0.3165,-1.9573 1.289,-2.2159 0.9724,-0.2586 1.972,0.3141 2.2326,1.2793 l 2.5629,6.7284 c 1.2903,-0.4424 2.5464,-0.9575 3.7633,-1.5404 l -2.9761,-6.5453 c -0.5033,-0.8654 -0.2046,-1.9719 0.6673,-2.4715 0.8718,-0.4996 1.9867,-0.2032 2.4901,0.6622 l 4.226,5.835 c 1.1226,-0.7546 2.1988,-1.5722 3.2232,-2.4478 l -4.5764,-5.5516 c -0.7119,-0.7066 -0.7119,-1.8521 0,-2.5587 0.7119,-0.7066 1.8661,-0.7066 2.578,0 l 5.6024,4.5495 c 0.8919,-1.0187 1.725,-2.0896 2.4941,-3.2073 l -5.8692,-4.1876 c -0.8719,-0.4996 -1.1706,-1.6061 -0.6672,-2.4715 0.5034,-0.8654 1.6182,-1.1619 2.4901,-0.6622 l 6.6018,2.9571 c 0.5921,-1.2056 1.116,-2.4502 1.5667,-3.729 l -6.7669,-2.5393 c -0.9725,-0.2586 -1.5496,-1.2507 -1.289,-2.2159 0.2606,-0.9652 1.2601,-1.538 2.2326,-1.2794 l 7.1467,1.1603 c 0.2532,-1.3065 0.4326,-2.639 0.5338,-3.9931 l -7.1911,-0.7137 c -1.0067,0 -1.8229,-0.8101 -1.8229,-1.8093 0,-0.9993 0.8162,-1.8093 1.8229,-1.8093 l 7.2031,-0.7149 c -0.0954,-1.3644 -0.2702,-2.7071 -0.5198,-4.0236 l -7.1524,1.1612 c -0.9725,0.2586 -1.972,-0.3142 -2.2326,-1.2794 -0.2606,-0.9652 0.3165,-1.9573 1.289,-2.2159 l 6.7912,-2.5485 c -0.4457,-1.2809 -0.9649,-2.5278 -1.5524,-3.7358 l -6.606,2.959 c -0.8719,0.4996 -1.9868,0.2031 -2.4902,-0.6623 -0.5033,-0.8653 -0.2046,-1.9719 0.6673,-2.4715 l 5.8888,-4.2016 c -0.7606,-1.1142 -1.5846,-2.1824 -2.4669,-3.1992 l -5.6024,4.5495 c -0.7118,0.7065 -1.866,0.7065 -2.5779,0 -0.7119,-0.7066 -0.7119,-1.8522 0,-2.5587 l 4.5905,-5.5687801 c -1.0267,-0.88516 -2.1059,-1.71193 -3.2323,-2.47511 l -4.2249,5.8333901 c -0.5034,0.8653 -1.6182,1.1618 -2.4901,0.6622 -0.8719,-0.4996 -1.1706,-1.6061 -0.6672,-2.4715001 l 2.9829,-6.5604 c -1.215,-0.58752 -2.4695,-1.10728 -3.7583,-1.55434 l -2.5609,6.72295 c -0.2606,0.9652 -1.2601,1.5379901 -2.2326,1.27936 -0.9724,-0.25862 -1.5495,-1.25072 -1.289,-2.21591 l 1.1699,-7.098714 c -1.3164,-0.250839 -2.659,-0.428482 -4.0233,-0.528495 l -0.7196,7.141629 c 0,0.99924 -0.8161,1.80928 -1.8228,1.80928 -1.0068,0 -1.8229,-0.81004 -1.8229,-1.80928 z m 1.7533,49.8453201 c 12.1418,0 21.9846,-9.7693 21.9846,-21.8204 0,-12.0512 -9.8428,-21.8205 -21.9846,-21.8205 -12.1418,0 -21.9846,9.7693 -21.9846,21.8205 0,12.0511 9.8428,21.8204 21.9846,21.8204 z"
       fill="url(#paint0_radial)"
       id="path2"
       style="fill:url(#paint0_radial)" />
    <path
       fill-rule="evenodd"
       clip-rule="evenodd"
       d="M 33.163992,7.1518749 32.443392,0 c -1.416,0.0980269 -2.8088,0.2796499 -4.1733,0.5399309 l 1.17,7.099774 c 0.2606,0.96519 -0.3165,1.95729 -1.289,2.21591 -0.9724,0.2585801 -1.972,-0.31416 -2.2326,-1.27936 l -2.5609,-6.72307 c -1.2888,0.4473 -2.5432,0.96731 -3.7581,1.55508 l 2.9825,6.55963 c 0.5034,0.8653001 0.2047,1.9719001 -0.6672,2.4715001 -0.8719,0.4996 -1.9867,0.2031 -2.4901,-0.6623 l -4.2238,-5.8318501 c -1.1263,0.76339 -2.2054,1.59038 -3.232,2.47575 l 4.5872,5.5646001 c 0.7119,0.7066 0.7119,1.8522 0,2.5587 -0.7119,0.7066 -1.8661,0.7066 -2.578,0 l -5.5974898,-4.5456 c -0.88224,1.0171 -1.70613,2.0854 -2.46653,3.1998 l 5.8856198,4.1993 c 0.8718,0.4996 1.1706,1.6062 0.6672,2.4715 -0.5034,0.8654 -1.6182,1.1619 -2.4900998,0.6623 l -6.60178,-2.9571 c -0.58738,1.2081 -1.10638,2.4551 -1.55199,3.7361 l 6.78552,2.5463 c 0.97245,0.2586 1.5495498,1.2507 1.28898,2.2159 -0.26057,0.9652 -1.26013,1.538 -2.23258,1.2794 l -7.145801,-1.1601 c -0.249245,1.3152 -0.423805,2.6566 -0.5191412,4.0197 l 7.2098222,0.7156 c 1.00676,0 1.8229,0.81 1.8229,1.8092 0,0.9993 -0.81614,1.8093 -1.8229,1.8093 l -7.1977987,0.7144 c 0.1011327,1.3527 0.2803137,2.6839 0.5330897,3.9891 l 7.140099,-1.1592 c 0.97246,-0.2586 1.97201,0.3142 2.23258,1.2794 0.2605998,0.9651 -0.31652,1.9572 -1.28898,2.2159 l -6.76121,2.5371 c 0.45055,1.2789 0.97432,2.5237 1.56633,3.7294 l 6.5978598,-2.9553 c 0.8719,-0.4997 1.9868,-0.2032 2.4901,0.6622 0.5034,0.8654 0.2047,1.9719 -0.6672,2.4715 l -5.8662598,4.1855 c 0.76886,1.1178 1.60177,2.1887 2.49348,3.2075 l 5.5974798,-4.5455 c 0.7119,-0.7066 1.8661,-0.7066 2.578,0 0.7118,0.7065 0.7118,1.8521 0,2.5587 l -4.573,5.5474 c 1.0245,0.8759 2.1007,1.6939 3.2235,2.4489 l 4.2252,-5.8339 c 0.5034,-0.8654 1.6182,-1.1619 2.4901,-0.6623 0.8719,0.4997 1.1706,1.6062 0.6672,2.4716 l -2.9758,6.5448 c 1.2166,0.5831 2.4725,1.0984 3.7625,1.5409 l 2.563,-6.7284 c 0.2606,-0.9652 1.2602,-1.538 2.2326,-1.2794 0.9725,0.2587 1.5496,1.2507 1.289,2.2159 l -1.168,7.0872 c 1.3248,0.2478 2.6759,0.4215 4.0489,0.5165 l 0.7206,-7.1518 c 0,-0.9993 0.8161,-1.8093 1.8229,-1.8093 1.0067,0 1.8229,0.81 1.8229,1.8093 l 0.7195,7.1417 c 1.3219,-0.0969 2.6234,-0.2666 3.9004,-0.5052 l -1.1678,-7.0862 c -0.2606,-0.9652 0.3165,-1.9573 1.289,-2.2159 0.9724,-0.2586 1.972,0.3141 2.2326,1.2793 l 2.5629,6.7284 c 1.2903,-0.4424 2.5464,-0.9575 3.7633,-1.5404 l -2.9761,-6.5453 c -0.5033,-0.8654 -0.2046,-1.9719 0.6673,-2.4715 0.8718,-0.4996 1.9867,-0.2032 2.4901,0.6622 l 4.226,5.835 c 1.1226,-0.7546 2.1988,-1.5722 3.2232,-2.4478 l -4.5764,-5.5516 c -0.7119,-0.7066 -0.7119,-1.8521 0,-2.5587 0.7119,-0.7066 1.8661,-0.7066 2.578,0 l 5.6024,4.5495 c 0.8919,-1.0187 1.725,-2.0896 2.4941,-3.2073 l -5.8692,-4.1876 c -0.8719,-0.4996 -1.1706,-1.6061 -0.6672,-2.4715 0.5034,-0.8654 1.6182,-1.1619 2.4901,-0.6622 l 6.6018,2.9571 c 0.5921,-1.2056 1.116,-2.4502 1.5667,-3.729 l -6.7669,-2.5393 c -0.9725,-0.2586 -1.5496,-1.2507 -1.289,-2.2159 0.2606,-0.9652 1.2601,-1.538 2.2326,-1.2794 l 7.1467,1.1603 c 0.2532,-1.3065 0.4326,-2.639 0.5338,-3.9931 l -7.1911,-0.7137 c -1.0067,0 -1.8229,-0.8101 -1.8229,-1.8093 0,-0.9993 0.8162,-1.8093 1.8229,-1.8093 l 7.2031,-0.7149 c -0.0954,-1.3644 -0.2702,-2.7071 -0.5198,-4.0236 l -7.1524,1.1612 c -0.9725,0.2586 -1.972,-0.3142 -2.2326,-1.2794 -0.2606,-0.9652 0.3165,-1.9573 1.289,-2.2159 l 6.7912,-2.5485 c -0.4457,-1.2809 -0.9649,-2.5278 -1.5524,-3.7358 l -6.606,2.959 c -0.8719,0.4996 -1.9868,0.2031 -2.4902,-0.6623 -0.5033,-0.8653 -0.2046,-1.9719 0.6673,-2.4715 l 5.8888,-4.2016 c -0.7606,-1.1142 -1.5846,-2.1824 -2.4669,-3.1992 l -5.6024,4.5495 c -0.7118,0.7065 -1.866,0.7065 -2.5779,0 -0.7119,-0.7066 -0.7119,-1.8522 0,-2.5587 l 4.5905,-5.5687801 c -1.0267,-0.88516 -2.1059,-1.71193 -3.2323,-2.47511 l -4.2249,5.8333901 c -0.5034,0.8653 -1.6182,1.1618 -2.4901,0.6622 -0.8719,-0.4996 -1.1706,-1.6061 -0.6672,-2.4715001 l 2.9829,-6.5604 c -1.215,-0.58752 -2.4695,-1.10728 -3.7583,-1.55434 l -2.5609,6.72295 c -0.2606,0.9652 -1.2601,1.5379901 -2.2326,1.27936 -0.9724,-0.25862 -1.5495,-1.25072 -1.289,-2.21591 l 1.1699,-7.098714 c -1.3164,-0.250839 -2.659,-0.428482 -4.0233,-0.528495 l -0.7196,7.141629 c 0,0.99924 -0.8161,1.80928 -1.8228,1.80928 -1.0068,0 -1.8229,-0.81004 -1.8229,-1.80928 z m 1.7533,49.8453201 c 12.1418,0 21.9846,-9.7693 21.9846,-21.8204 0,-12.0512 -9.8428,-21.8205 -21.9846,-21.8205 -12.1418,0 -21.9846,9.7693 -21.9846,21.8205 0,12.0511 9.8428,21.8204 21.9846,21.8204 z"
       fill="url(#paint1_linear)"
       fill-opacity="0.3"
       id="path4"
       style="fill:url(#paint1_linear)" />
    <g
       filter="url(#filter0_i)"
       id="g8"
       transform="translate(-0.0830078,-0.0852051)">
      <path
         fill-rule="evenodd"
         clip-rule="evenodd"
         d="m 32.5161,0 c 0,0 1.6406,0.45232 2.5521,0.45232 C 35.9796,0.45232 37.6202,0 37.6202,0 l -0.7291,7.23711 c 0,0.99924 -0.8162,1.80928 -1.8229,1.80928 -1.0068,0 -1.8229,-0.81004 -1.8229,-1.80928 z m 5.1033,69.4763 c 0,0 -1.6406,-0.4523 -2.552,-0.4523 -0.9114,0 -2.552,0.4523 -2.552,0.4523 l 0.7291,-7.2371 c 0,-0.9992 0.8162,-1.8093 1.8229,-1.8093 1.0068,0 1.8229,0.8101 1.8229,1.8093 z M 69.5433,34.8218 c 0,-0.9046 0.4557,-2.533 0.4557,-2.533 l -7.2915,0.7237 c -1.0068,0 -1.8229,0.8101 -1.8229,1.8093 0,0.9992 0.8161,1.8093 1.8229,1.8093 l 7.2915,0.7237 c 0,0 -0.4557,-1.6284 -0.4557,-2.533 z M 0,37.3549 c 0,0 0.455723,-1.6284 0.455723,-2.533 0,-0.9047 -0.45572233067,-2.533 -0.45572233067,-2.533 L 7.29156,33.0126 c 1.00676,0 1.82289,0.81 1.82289,1.8093 0,0.9992 -0.81613,1.8092 -1.82289,1.8092 z M 59.4695,10.5528 C 58.825,9.91311 57.9871,8.44185 57.9871,8.44185 L 53.3468,14.071 c -0.7119,0.7066 -0.7119,1.8521 0,2.5587 0.7119,0.7066 1.8661,0.7066 2.578,0 l 5.6715,-4.6057 c 0,0 -1.4824,-0.8315 -2.1268,-1.4712 z M 12.0986,61.1512 c 0,0 -0.8379,-1.4712 -1.4824,-2.1109 C 9.97175,58.4006 8.48943,57.5691 8.48943,57.5691 l 5.67147,-4.6057 c 0.7119,-0.7066 1.8661,-0.7066 2.578,0 0.7119,0.7066 0.7119,1.8521 0,2.5587 z m 47.2688,-2.111 c 0.6445,-0.6397 2.1268,-1.4712 2.1268,-1.4712 l -5.6715,-4.6057 c -0.7119,-0.7066 -1.8661,-0.7066 -2.5779,0 -0.7119,0.7065 -0.7119,1.8521 0,2.5587 l 4.6403,5.6291 c 0,0 0.8378,-1.4712 1.4823,-2.1109 z M 8.38907,12.0239 c 0,0 1.48232,-0.8316 2.12683,-1.4712 0.6445,-0.63971 1.4823,-2.11096 1.4823,-2.11096 l 4.6403,5.62916 c 0.7119,0.7066 0.7119,1.8521 0,2.5587 -0.7119,0.7066 -1.866,0.7066 -2.5779,0 z M 43.9947,1.63754 C 43.1143,1.4034 41.6476,0.545044 41.6476,0.545044 L 40.4647,7.72287 c -0.2606,0.96519 0.3165,1.95728 1.289,2.2159 0.9724,0.25863 1.972,-0.31416 2.2326,-1.27935 l 2.5915,-6.8032 c 0,0 -1.7027,0.01546 -2.5831,-0.21868 z M 28.4606,68.9652 c 0,0 -1.4668,-0.8584 -2.3471,-1.0925 -0.8804,-0.2341 -2.5831,-0.2187 -2.5831,-0.2187 l 2.5915,-6.8032 c 0.2606,-0.9652 1.2602,-1.5379 2.2326,-1.2793 0.9724,0.2586 1.5495,1.2507 1.289,2.2159 z M 68.3492,43.6814 c 0.2359,-0.8738 1.1007,-2.3296 1.1007,-2.3296 l -7.2318,-1.174 c -0.9724,-0.2587 -1.972,0.3141 -2.2326,1.2793 -0.2605,0.9652 0.3166,1.9573 1.289,2.2159 l 6.8544,2.5722 c 0,0 -0.0156,-1.69 0.2203,-2.5638 z M 0.515056,28.2633 c 0,0 0.864814,-1.4558 1.100714,-2.3296 0.2359,-0.8738 0.22032,-2.5638 0.22032,-2.5638 l 6.85439,2.5722 C 9.66293,26.2007 10.24,27.1928 9.97946,28.158 9.71889,29.1232 8.71933,29.696 7.74688,29.4374 Z M 64.936,17.6554 c -0.4557,-0.7835 -0.8813,-2.4198 -0.8813,-2.4198 l -5.9501,4.2453 c -0.8719,0.4996 -1.1706,1.6062 -0.6672,2.4715 0.5033,0.8654 1.6182,1.1619 2.4901,0.6623 l 6.6792,-2.9918 c 0,0 -1.2149,-1.1841 -1.6707,-1.9675 z M 5.98583,54.3612 c 0,0 -0.42563,-1.6363 -0.88135,-2.4198 C 4.64875,51.158 3.43379,49.9739 3.43379,49.9739 L 10.113,46.9821 c 0.8719,-0.4996 1.9868,-0.2031 2.4902,0.6623 0.5033,0.8653 0.2046,1.9719 -0.6673,2.4715 z M 52.2109,64.4669 c 0.7893,-0.4523 2.438,-0.8747 2.438,-0.8747 l -4.2772,-5.9057 c -0.5034,-0.8654 -1.6183,-1.1619 -2.4902,-0.6622 -0.8718,0.4996 -1.1706,1.6061 -0.6672,2.4715 l 3.0143,6.6294 c 0,0 1.193,-1.2059 1.9823,-1.6583 z M 15.229,5.95679 c 0,0 1.6486,-0.42246 2.438,-0.87478 0.7893,-0.45232 1.9823,-1.65821 1.9823,-1.65821 l 3.0143,6.6294 c 0.5033,0.8653 0.2046,1.9719 -0.6673,2.4715 -0.8718,0.4996 -1.9867,0.2031 -2.4901,-0.6622 z M 52.3186,5.07985 C 51.5293,4.62753 50.3364,3.42163 50.3364,3.42163 L 47.3221,10.051 c -0.5034,0.8654 -0.2047,1.9719 0.6672,2.4715 0.8718,0.4996 1.9867,0.2032 2.4901,-0.6622 l 4.2772,-5.90568 c 0,0 -1.6486,-0.42245 -2.438,-0.87477 z M 19.7576,66.1229 c 0,0 -1.1929,-1.2059 -1.9822,-1.6582 -0.7894,-0.4523 -2.438,-0.8748 -2.438,-0.8748 l 4.2772,-5.9056 c 0.5034,-0.8654 1.6183,-1.1619 2.4901,-0.6623 0.8719,0.4996 1.1706,1.6062 0.6673,2.4715 z M 64.8814,51.9434 C 65.3371,51.16 66.5521,49.976 66.5521,49.976 l -6.6793,-2.9919 c -0.8719,-0.4996 -1.9867,-0.2031 -2.4901,0.6623 -0.5034,0.8653 -0.2046,1.9719 0.6672,2.4715 L 64,54.3632 c 0,0 0.4257,-1.6363 0.8814,-2.4198 z M 3.37874,19.625 c 0,0 1.21497,-1.184 1.67069,-1.9675 0.45572,-0.7834 0.88135,-2.4198 0.88135,-2.4198 l 5.95012,4.2453 c 0.8719,0.4997 1.1706,1.6062 0.6672,2.4716 -0.5034,0.8653 -1.6182,1.1618 -2.4901,0.6622 z m 64.99166,6.3067 c -0.2359,-0.8738 -0.2203,-2.5638 -0.2203,-2.5638 l -6.8544,2.5722 c -0.9724,0.2586 -1.5495,1.2507 -1.289,2.2159 0.2606,0.9652 1.2602,1.538 2.2326,1.2793 l 7.2318,-1.174 c 0,0 -0.8648,-1.4558 -1.1007,-2.3296 z M 1.85732,46.243 c 0,0 0.01557,-1.6899 -0.22033,-2.5637 C 1.40109,42.8055 0.53628,41.3497 0.53628,41.3497 L 7.7681,40.1756 c 0.97246,-0.2586 1.97201,0.3142 2.2326,1.2794 0.2605,0.9652 -0.31655,1.9573 -1.289,2.2159 z M 43.8726,67.8748 c 0.8804,-0.2341 2.583,-0.2186 2.583,-0.2186 l -2.5915,-6.8033 c -0.2606,-0.9651 -1.2601,-1.5379 -2.2326,-1.2793 -0.9724,0.2586 -1.5495,1.2507 -1.289,2.2159 l 1.1829,7.1778 c 0,0 1.4668,-0.8583 2.3472,-1.0925 z M 23.4088,1.85828 c 0,0 1.7027,0.01546 2.5831,-0.21868 0.8803,-0.23414 2.3471,-1.092495 2.3471,-1.092495 l 1.1829,7.177825 c 0.2605,0.96519 -0.3166,1.95728 -1.289,2.2159 -0.9724,0.25867 -1.972,-0.31416 -2.2326,-1.27935 z"
         fill="#292929"
         id="path6" />
    </g>
    <g
       filter="url(#filter1_d)"
       id="g14"
       transform="translate(-0.0830078,-0.0852051)">
      <rect
         x="34.121101"
         y="16.0599"
         width="1.75877"
         height="10.6484"
         rx="0.87938499"
         fill="url(#paint3_linear)"
         id="rect12"
         style="fill:url(#paint3_linear)" />
    </g>
  </g>
  <defs
     id="defs76">
    <radialGradient
       id="paint0_radial"
       cx="0"
       cy="0"
       r="1"
       gradientUnits="userSpaceOnUse"
       gradientTransform="matrix(0,34.6529,-34.9145,0,34.914492,34.652895)">
      <stop
         stop-color="#6B6A6A"
         id="stop50" />
      <stop
         offset="1"
         stop-color="#373737"
         id="stop52" />
    </radialGradient>
    <linearGradient
       id="paint1_linear"
       x1="34.997501"
       y1="0.0852051"
       x2="34.997501"
       y2="69.390999"
       gradientUnits="userSpaceOnUse"
       gradientTransform="translate(-0.0830078,-0.0852051)">
      <stop
         stop-opacity="0"
         id="stop55" />
      <stop
         offset="1"
         id="stop57" />
    </linearGradient>
    <linearGradient
       id="paint2_linear"
       x1="35.0005"
       y1="0.523682"
       x2="35.0005"
       y2="70"
       gradientUnits="userSpaceOnUse">
      <stop
         stop-opacity="0"
         id="stop60" />
      <stop
         offset="1"
         stop-opacity="0.5"
         id="stop62" />
    </linearGradient>
    <linearGradient
       id="paint3_linear"
       x1="34.121101"
       y1="21.3841"
       x2="35.879902"
       y2="21.3841"
       gradientUnits="userSpaceOnUse">
      <stop
         stop-color="#400909"
         id="stop65" />
      <stop
         offset="0.239583"
         stop-color="#D60000"
         id="stop67" />
      <stop
         offset="0.395833"
         stop-color="#FF5F5F"
         id="stop69" />
      <stop
         offset="0.708333"
         stop-color="#930000"
         id="stop71" />
      <stop
         offset="0.973958"
         stop-color="#730000"
         id="stop73" />
    </linearGradient>
  </defs>
</svg>
