<?xml version="1.0" encoding="UTF-8" standalone="no"?>
<svg
   width="40"
   height="40"
   viewBox="0 0 40.000001 40"
   fill="none"
   version="1.1"
   id="svg45"
   sodipodi:docname="Group 150.svg"
   inkscape:version="1.1 (c68e22c387, 2021-05-23)"
   xmlns:inkscape="http://www.inkscape.org/namespaces/inkscape"
   xmlns:sodipodi="http://sodipodi.sourceforge.net/DTD/sodipodi-0.dtd"
   xmlns="http://www.w3.org/2000/svg"
   xmlns:svg="http://www.w3.org/2000/svg">
  <sodipodi:namedview
     id="namedview47"
     pagecolor="#ffffff"
     bordercolor="#666666"
     borderopacity="1.0"
     inkscape:pageshadow="2"
     inkscape:pageopacity="0.0"
     inkscape:pagecheckerboard="0"
     showgrid="false"
     fit-margin-top="0"
     fit-margin-left="0"
     fit-margin-right="0"
     fit-margin-bottom="0"
     inkscape:zoom="20.525"
     inkscape:cx="18.514007"
     inkscape:cy="8.3313033"
     inkscape:window-width="1920"
     inkscape:window-height="1007"
     inkscape:window-x="0"
     inkscape:window-y="0"
     inkscape:window-maximized="1"
     inkscape:current-layer="svg45" />
  <g
     id="g869"
     transform="translate(1.5590743,0.19488428)">
    <path
       fill-rule="evenodd"
       clip-rule="evenodd"
       d="m 0.04359033,12.366128 c 1.21554027,1.1568 2.07738027,4.0549 2.07738027,7.4472 0,3.4326 -0.88249,6.3593 -2.1209706,7.4877 0.70755963,1.7602 1.6595606,3.3957 2.8139706,4.8647 1.59752,-0.5058 4.57076,0.1936 7.5409304,1.9084 2.9359,1.695 5.0141,3.8888 5.41,5.5196 0.8812,0.1193 1.7807,0.181 2.6946,0.181 0.9537,0 1.8918,-0.0672 2.8097,-0.197 0.36,-1.6365 2.4526,-3.8623 5.4234,-5.5776 2.9351,-1.6945 5.8732,-2.3975 7.4838,-1.9258 1.1223,-1.4453 2.0497,-3.0496 2.7426,-4.7733 -1.2384,-1.1285 -2.1209,-4.0552 -2.1209,-7.4877 0,-3.3922 0.8618,-6.2903 2.0773,-7.4472 -0.688,-1.6828 -1.5999,-3.2503704 -2.6988,-4.6655304 -1.6107,0.47147 -4.5485,-0.23151 -7.4834,-1.92594 -2.9709,-1.71524 -5.0635,-3.94114 -5.4234,-5.57763596 C 20.351701,0.06716524 19.413401,-4.8199974e-8 18.459501,0 c -0.9141,4.6200026e-8 -1.8138,0.06167614 -2.6952,0.18108764 -0.3959,1.63078996 -2.4741,3.82456996 -5.41,5.51961996 -2.9699204,1.71467 -5.9429104,2.41407 -7.5405304,1.90854 -1.13078,1.43893 -2.06734197,3.0376804 -2.77018027,4.7568804 z"
       fill="url(#paint0_radial)"
       id="path2"
       style="fill:url(#paint0_radial)" />
    <g
       filter="url(#filter0_i)"
       id="g6"
       transform="translate(6.30043e-7,2.76353e-5)">
      <path
         fill-rule="evenodd"
         clip-rule="evenodd"
         d="M 0.803365,29.068 8.24329,24.7726 9.13045,26.3092 1.69194,30.6038 C 1.38614,30.0987 1.08978,29.5865 0.803365,29.068 Z"
         fill="#ffffff"
         id="path4" />
    </g>
    <circle
       cx="6.0442381"
       cy="26.588072"
       r="11.9424"
       transform="rotate(-30)"
       fill="url(#paint1_linear)"
       id="circle8"
       style="fill:url(#paint1_linear)" />
    <circle
       cx="6.0442381"
       cy="26.588072"
       r="10.4424"
       transform="rotate(-30)"
       stroke="#000000"
       stroke-opacity="0.5"
       stroke-width="3"
       id="circle10" />
  </g>
  <defs
     id="defs43">
    <filter
       id="filter0_i"
       x="0.796875"
       y="24.7726"
       width="8.3340302"
       height="5.8360701"
       filterUnits="userSpaceOnUse"
       color-interpolation-filters="sRGB">
      <feFlood
         flood-opacity="0"
         result="BackgroundImageFix"
         id="feFlood12" />
      <feBlend
         mode="normal"
         in="SourceGraphic"
         in2="BackgroundImageFix"
         result="shape"
         id="feBlend14" />
      <feColorMatrix
         in="SourceAlpha"
         type="matrix"
         values="0 0 0 0 0 0 0 0 0 0 0 0 0 0 0 0 0 0 127 0"
         result="hardAlpha"
         id="feColorMatrix16" />
      <feOffset
         id="feOffset18" />
      <feGaussianBlur
         stdDeviation="2"
         id="feGaussianBlur20" />
      <feComposite
         in2="hardAlpha"
         operator="arithmetic"
         k2="-1"
         k3="1"
         id="feComposite22"
         k1="0"
         k4="0" />
      <feColorMatrix
         type="matrix"
         values="0 0 0 0 0 0 0 0 0 0 0 0 0 0 0 0 0 0 0.95 0"
         id="feColorMatrix24" />
      <feBlend
         mode="normal"
         in2="shape"
         result="effect1_innerShadow"
         id="feBlend26" />
    </filter>
    <radialGradient
       id="paint0_radial"
       cx="0"
       cy="0"
       r="1"
       gradientUnits="userSpaceOnUse"
       gradientTransform="matrix(32.295949,3.8910197,-4.1919833,34.793984,18.416801,19.922028)">
      <stop
         stop-color="#555555"
         id="stop29" />
      <stop
         offset="1"
         id="stop31" />
    </radialGradient>
    <linearGradient
       id="paint1_linear"
       x1="11.292"
       y1="10.2944"
       x2="24.329901"
       y2="30.1891"
       gradientUnits="userSpaceOnUse"
       gradientTransform="translate(-12.484262,6.5842732)">
      <stop
         stop-color="#BAB8B8"
         id="stop34" />
      <stop
         offset="0.270833"
         stop-color="#ECECEC"
         id="stop36" />
      <stop
         offset="0.770833"
         stop-color="#B7B3B3"
         id="stop38" />
      <stop
         offset="1"
         stop-color="#E6E6E6"
         id="stop40" />
    </linearGradient>
  </defs>
</svg>
