<?xml version="1.0" encoding="UTF-8" standalone="no"?>
<svg
   width="60.284969"
   height="60.284969"
   viewBox="0 0 60.284969 60.284969"
   fill="none"
   version="1.1"
   id="svg13"
   sodipodi:docname="Group 157.svg"
   inkscape:version="1.1 (c68e22c387, 2021-05-23)"
   xmlns:inkscape="http://www.inkscape.org/namespaces/inkscape"
   xmlns:sodipodi="http://sodipodi.sourceforge.net/DTD/sodipodi-0.dtd"
   xmlns="http://www.w3.org/2000/svg"
   xmlns:svg="http://www.w3.org/2000/svg">
  <sodipodi:namedview
     id="namedview15"
     pagecolor="#ffffff"
     bordercolor="#666666"
     borderopacity="1.0"
     inkscape:pageshadow="2"
     inkscape:pageopacity="0.0"
     inkscape:pagecheckerboard="0"
     showgrid="false"
     fit-margin-top="0"
     fit-margin-left="0"
     fit-margin-right="0"
     fit-margin-bottom="0"
     inkscape:zoom="13.241935"
     inkscape:cx="30.207065"
     inkscape:cy="30.433618"
     inkscape:window-width="1920"
     inkscape:window-height="1007"
     inkscape:window-x="0"
     inkscape:window-y="0"
     inkscape:window-maximized="1"
     inkscape:current-layer="svg13" />
  <g
     id="g1126"
     transform="rotate(-135,29.034055,30.102236)">
    <path
       fill-rule="evenodd"
       clip-rule="evenodd"
       d="m 35.8125,4.51826 c 0.002,-0.04169 0.003,-0.08353 0.003,-0.12551 C 35.8155,1.9667 32.3879,0 28.1596,0 c -4.2282,0 -7.6559,1.9667 -7.6559,4.39275 0,0.04198 0.001,0.08382 0.003,0.12551 H 20.5034 V 5.68578 C 16.6319,6.88038 13.1412,8.94301 10.2586,11.6464 L 9.33344,11.1122 9.33193,11.1148 C 9.29684,11.0922 9.26113,11.0704 9.22478,11.0494 7.12376,9.83641 3.7067,11.8215 1.59257,15.4833 c -2.114124,3.6618 -2.12475,7.6136 -0.02373,8.8266 0.03635,0.021 0.07309,0.041 0.11022,0.0601 l -0.00155,0.0027 0.92873,0.5362 c -0.4436,1.917 -0.67806,3.9141 -0.67806,5.9659 0,2.1035 0.24641,4.1494 0.71195,6.1105 l -0.83737,0.4835 0.00156,0.0027 c -0.03705,0.019 -0.07372,0.039 -0.10999,0.0599 -2.101023,1.2131 -2.090397,5.1649 0.02373,8.8267 2.11413,3.6617 5.53118,5.6468 7.6322,4.4338 0.03628,-0.0209 0.07193,-0.0427 0.10695,-0.0652 l 0.00149,0.0025 0.9087,-0.5246 c 2.8615,2.6536 6.3132,4.6797 10.1363,5.8593 v 1.0038 l -3e-4,0.0381 3e-4,0.0381 v 0.0874 h 0.0028 c 0.1157,2.368 3.4977,4.2672 7.6528,4.2672 4.1552,0 7.5372,-1.8992 7.6529,-4.2672 h 0.0033 v -1.0916 c 3.9601,-1.1786 7.53,-3.2629 10.4697,-6.0126 l 0.8944,0.5163 c 0.0129,0.0078 0.026,0.0155 0.0392,0.0231 l 0.0174,0.0099 0.0222,0.0125 0.0697,0.0403 0.0013,-0.0024 c 2.1087,1.0833 5.4442,-0.896 7.5216,-4.4942 2.0774,-3.5981 2.1237,-7.4763 0.1313,-8.7609 l 0.0017,-0.003 -1.0288,-0.594 c 0.4487,-1.9274 0.686,-3.9359 0.686,-5.9999 0,-2.0122 -0.2255,-3.9718 -0.6526,-5.8548 l 0.9855,-0.569 0.0271,-0.0154 0.0269,-0.0158 0.0816,-0.0471 -0.0014,-0.0025 c 1.9929,-1.2842 1.9468,-5.1628 -0.1308,-8.7612 -2.0776,-3.5985 -5.4134,-5.5778 -7.5221,-4.4939 l -0.0016,-0.0029 -1.0603,0.6122 C 43.4333,8.92418 39.8241,6.80292 35.8153,5.60979 V 4.51826 Z M 28.2846,52.964 c 12.1995,0 22.0892,-9.8897 22.0892,-22.0892 0,-12.1996 -9.8897,-22.08928 -22.0892,-22.08928 -12.1996,0 -22.08929,9.88968 -22.08929,22.08928 0,12.1995 9.88969,22.0892 22.08929,22.0892 z"
       fill="url(#paint0_linear)"
       id="path2"
       style="fill:url(#paint0_linear)" />
    <path
       fill-rule="evenodd"
       clip-rule="evenodd"
       d="m 30.0418,14.3079 h -3.5142 v 9.0085 c -2e-4,0.0093 -3e-4,0.0186 -3e-4,0.028 0,0.9704 0.7867,1.7571 1.7571,1.7571 0.9705,0 1.7571,-0.7867 1.7571,-1.7571 0,0 0,0 0,0 h 3e-4 z"
       fill="#C4C4C4"
       id="path4"
       style="fill:#6a6a68;fill-opacity:1" />
  </g>
  <defs
     id="defs11">
    <linearGradient
       id="paint0_linear"
       x1="51.127399"
       y1="14.0568"
       x2="7.1998401"
       y2="51.207001"
       gradientUnits="userSpaceOnUse">
      <stop
         stop-color="#626667"
         id="stop6"
         style="stop-color:#2f3030;stop-opacity:1" />
      <stop
         offset="1"
         stop-color="#11171A"
         id="stop8" />
    </linearGradient>
  </defs>
</svg>
