<svg width="311" height="311" viewBox="0 0 311 311" fill="none" xmlns="http://www.w3.org/2000/svg">
<ellipse cx="154.492" cy="154.558" rx="152" ry="151.5" transform="rotate(-90 154.492 154.558)" fill="url(#paint0_linear)"/>
<ellipse cx="154.992" cy="155.058" rx="147.5" ry="148" transform="rotate(-90 154.992 155.058)" fill="url(#paint1_linear)"/>
<rect opacity="0.4" x="151.804" y="19.5581" width="5.54166" height="5.54166" rx="2.77083" fill="#575757" stroke="#575757" stroke-width="2"/>
<rect opacity="0.4" x="190.909" y="30.2479" width="5.54166" height="5.54166" rx="2.77083" transform="rotate(-165 190.909 30.2479)" fill="#575757" stroke="#575757" stroke-width="2"/>
<rect opacity="0.4" x="221.995" y="43.9074" width="5.54166" height="5.54166" rx="2.77083" transform="rotate(-150 221.995 43.9074)" fill="#575757" stroke="#575757" stroke-width="2"/>
<rect opacity="0.4" x="60.6625" y="252.972" width="5.54166" height="5.54166" rx="2.77083" transform="rotate(-135 60.6625 252.972)" fill="#575757" stroke="#575757" stroke-width="2"/>
<rect opacity="0.4" x="248.487" y="65.1473" width="5.54166" height="5.54166" rx="2.77083" transform="rotate(-135 248.487 65.1473)" fill="#575757" stroke="#575757" stroke-width="2"/>
<rect x="38.5419" y="225.332" width="5.54166" height="5.54166" rx="2.77083" transform="rotate(-120 38.5419 225.332)" fill="#575757" stroke="#575757" stroke-width="2"/>
<rect opacity="0.4" x="268.58" y="92.5201" width="5.54166" height="5.54166" rx="2.77083" transform="rotate(-120 268.58 92.5201)" fill="#575757" stroke="#575757" stroke-width="2"/>
<rect opacity="0.4" x="24.3288" y="192.909" width="5.54166" height="5.54166" rx="2.77083" transform="rotate(-105 24.3288 192.909)" fill="#575757" stroke="#575757" stroke-width="2"/>
<rect opacity="0.4" x="280.903" y="124.16" width="5.54166" height="5.54166" rx="2.77083" transform="rotate(-105 280.903 124.16)" fill="#575757" stroke="#575757" stroke-width="2"/>
<rect opacity="0.4" x="18.9918" y="157.912" width="5.54166" height="5.54166" rx="2.77083" transform="rotate(-90 18.9918 157.912)" fill="#575757" stroke="#575757" stroke-width="2"/>
<rect opacity="0.4" x="284.616" y="157.912" width="5.54166" height="5.54166" rx="2.77083" transform="rotate(-90 284.616 157.912)" fill="#575757" stroke="#575757" stroke-width="2"/>
<rect opacity="0.4" x="22.8945" y="122.726" width="5.54166" height="5.54166" rx="2.77083" transform="rotate(-75 22.8945 122.726)" fill="#575757" stroke="#575757" stroke-width="2"/>
<rect opacity="0.4" x="279.468" y="191.475" width="5.54166" height="5.54166" rx="2.77083" transform="rotate(-75 279.468 191.475)" fill="#575757" stroke="#575757" stroke-width="2"/>
<rect opacity="0.4" x="35.771" y="89.7493" width="5.54166" height="5.54166" rx="2.77083" transform="rotate(-60 35.771 89.7493)" fill="#575757" stroke="#575757" stroke-width="2"/>
<rect opacity="0.4" x="265.809" y="222.562" width="5.54166" height="5.54166" rx="2.77083" transform="rotate(-60 265.809 222.562)" fill="#575757" stroke="#575757" stroke-width="2"/>
<rect opacity="0.4" x="56.7439" y="61.2287" width="5.54166" height="5.54166" rx="2.77083" transform="rotate(-45 56.7439 61.2287)" fill="#575757" stroke="#575757" stroke-width="2"/>
<rect opacity="0.4" x="244.569" y="249.054" width="5.54166" height="5.54166" rx="2.77083" transform="rotate(-45 244.569 249.054)" fill="#575757" stroke="#575757" stroke-width="2"/>
<rect opacity="0.4" x="84.3837" y="39.1082" width="5.54166" height="5.54166" rx="2.77083" transform="rotate(-30 84.3837 39.1082)" fill="#575757" stroke="#575757" stroke-width="2"/>
<rect opacity="0.4" x="116.807" y="24.8951" width="5.54166" height="5.54166" rx="2.77083" transform="rotate(-15 116.807 24.8951)" fill="#575757" stroke="#575757" stroke-width="2"/>
<g filter="url(#filter0_d)">
<circle cx="155.036" cy="155.058" r="118.5" transform="rotate(-90 155.036 155.058)" fill="url(#paint2_linear)"/>
</g>
<circle cx="155.044" cy="155.044" r="113.5" transform="rotate(150 155.044 155.044)" fill="url(#paint3_radial)"/>
<path fill-rule="evenodd" clip-rule="evenodd" d="M239.629 230.76C223.584 222.309 191.503 216.544 154.544 216.544C118.097 216.544 86.3947 222.15 70.1364 230.409C60.0279 219.024 52.4491 205.838 47.6398 191.745C62.972 182.033 83.9574 157.169 102.399 125.227C121.105 92.8271 132.196 61.8023 132.652 43.7733C147.558 40.7676 163.099 40.7332 178.323 43.9255C179.024 62.0443 190.072 92.7144 208.554 124.727C226.775 156.285 247.478 180.935 262.759 190.888C260.376 198.023 257.245 205.026 253.338 211.794C249.348 218.704 244.742 225.036 239.629 230.76ZM57.0858 97.716C56.9734 97.9082 56.8614 98.1008 56.75 98.2939C56.7194 98.3469 56.6888 98.3999 56.6583 98.4529C56.8007 98.2068 56.9432 97.9612 57.0858 97.716Z" fill="url(#paint4_linear)"/>
<path d="M71.4944 203.332L81.0207 186.832L90.5469 203.332L71.4944 203.332Z" fill="#A6A2A2"/>
<defs>
<filter id="filter0_d" x="22.5356" y="22.5581" width="265" height="265" filterUnits="userSpaceOnUse" color-interpolation-filters="sRGB">
<feFlood flood-opacity="0" result="BackgroundImageFix"/>
<feColorMatrix in="SourceAlpha" type="matrix" values="0 0 0 0 0 0 0 0 0 0 0 0 0 0 0 0 0 0 127 0" result="hardAlpha"/>
<feOffset/>
<feGaussianBlur stdDeviation="7"/>
<feComposite in2="hardAlpha" operator="out"/>
<feColorMatrix type="matrix" values="0 0 0 0 0 0 0 0 0 0 0 0 0 0 0 0 0 0 1 0"/>
<feBlend mode="normal" in2="BackgroundImageFix" result="effect1_dropShadow"/>
<feBlend mode="normal" in="SourceGraphic" in2="effect1_dropShadow" result="shape"/>
</filter>
<linearGradient id="paint0_linear" x1="169.434" y1="3.05809" x2="49.1716" y2="267.767" gradientUnits="userSpaceOnUse">
<stop stop-color="#575757"/>
<stop offset="0.491376" stop-color="#A29F9F"/>
<stop offset="1" stop-color="#737373"/>
</linearGradient>
<linearGradient id="paint1_linear" x1="169.492" y1="7.05809" x2="51.4918" y2="265.058" gradientUnits="userSpaceOnUse">
<stop stop-color="#E5E5E5"/>
<stop offset="0.491376" stop-color="#A29F9F"/>
<stop offset="1" stop-color="#E5E5E5"/>
</linearGradient>
<linearGradient id="paint2_linear" x1="155.036" y1="36.5581" x2="155.036" y2="273.558" gradientUnits="userSpaceOnUse">
<stop stop-color="#E5E5E5"/>
<stop offset="0.491376" stop-color="#A29F9F"/>
<stop offset="1" stop-color="#E5E5E5"/>
</linearGradient>
<radialGradient id="paint3_radial" cx="0" cy="0" r="1" gradientUnits="userSpaceOnUse" gradientTransform="translate(155.044 155.044) rotate(90) scale(113.5)">
<stop offset="0.364583"/>
<stop offset="1" stop-color="#555555"/>
</radialGradient>
<linearGradient id="paint4_linear" x1="56.8098" y1="211.935" x2="220.695" y2="117.316" gradientUnits="userSpaceOnUse">
<stop stop-color="#C4C4C4"/>
<stop offset="0.489583" stop-color="#ECECEC"/>
<stop offset="1" stop-color="#C4C4C4"/>
</linearGradient>
</defs>
</svg>
