<?xml version="1.0" encoding="UTF-8" standalone="no"?>
<!-- Created with Inkscape (http://www.inkscape.org/) -->

<svg
   width="18mm"
   height="123mm"
   viewBox="0 0 18 123"
   version="1.1"
   id="svg5"
   inkscape:version="1.2.1 (9c6d41e410, 2022-07-14)"
   sodipodi:docname="logo-right.svg"
   xmlns:inkscape="http://www.inkscape.org/namespaces/inkscape"
   xmlns:sodipodi="http://sodipodi.sourceforge.net/DTD/sodipodi-0.dtd"
   xmlns="http://www.w3.org/2000/svg"
   xmlns:svg="http://www.w3.org/2000/svg">
  <sodipodi:namedview
     id="namedview7"
     pagecolor="#ffffff"
     bordercolor="#666666"
     borderopacity="1.0"
     inkscape:showpageshadow="2"
     inkscape:pageopacity="0.0"
     inkscape:pagecheckerboard="0"
     inkscape:deskcolor="#d1d1d1"
     inkscape:document-units="mm"
     showgrid="false"
     inkscape:zoom="0.73673541"
     inkscape:cx="383.44838"
     inkscape:cy="453.35136"
     inkscape:window-width="1920"
     inkscape:window-height="1007"
     inkscape:window-x="0"
     inkscape:window-y="0"
     inkscape:window-maximized="1"
     inkscape:current-layer="layer1" />
  <defs
     id="defs2">
    <rect
       x="36.648163"
       y="283.68393"
       width="498.14359"
       height="50.221554"
       id="rect113" />
  </defs>
  <g
     inkscape:label="Layer 1"
     inkscape:groupmode="layer"
     id="layer1">
    <g
       aria-label="github.com/stargatedaw"
       transform="matrix(0,0.25096516,-0.23554135,0,82.222803,-6.9319637)"
       id="text111"
       style="font-style:italic;font-weight:bold;font-size:40px;line-height:1.25;-inkscape-font-specification:'sans-serif Bold Italic';white-space:pre;shape-inside:url(#rect113);fill:#f2f2f2">
      <path
         d="m 44.288437,329.6786 q -2.439999,0 -4.039999,-0.4 -1.600001,-0.36 -3.08,-1 v -5.12 q 1.519999,0.8 3.199999,1.24 1.72,0.44 3.6,0.44 2.04,0 3.32,-0.96 1.32,-0.92 1.840001,-2.92 l 0.159999,-0.6 q 0.200001,-0.72 0.480001,-1.64 0.319999,-0.96 0.48,-1.56 h -0.160001 q -1.04,1.36 -2.4,2.36 -1.36,0.96 -3.4,0.96 -1.56,0 -2.92,-0.84 -1.32,-0.84 -2.159999,-2.56 -0.800001,-1.76 -0.800001,-4.52 0,-2.68 0.72,-5.28 0.720001,-2.6 2.040001,-4.72 1.32,-2.16 3.159999,-3.44 1.840001,-1.28 4.08,-1.28 2.120001,0 3.32,0.88 1.24,0.84 2.2,2.32 h 0.16 l 1.120001,-2.8 h 4.519999 l -4.76,22.36 q -0.719999,3.44 -2.24,5.4 -1.479999,2 -3.599999,2.84 -2.120001,0.84 -4.840001,0.84 z m 2.840001,-13.96 q 1.239999,0 2.159999,-0.92 0.960001,-0.96 1.6,-2.44 0.680001,-1.48 1.000001,-3.16 0.36,-1.68 0.36,-3.16 0,-1.56 -0.720001,-2.48 -0.72,-0.96 -1.959999,-0.96 -1.120001,0 -2.08,0.88 -0.92,0.84 -1.64,2.24 -0.680001,1.4 -1.08,3.12 -0.400001,1.72 -0.400001,3.44 0,1.72 0.72,2.6 0.760001,0.84 2.040001,0.84 z"
         id="path191"
         style="fill:#f2f2f2" />
      <path
         d="m 69.648432,295.5186 q -1.24,0 -2.12,-0.52 -0.84,-0.56 -0.84,-1.88 0,-1.68 0.92,-2.56 0.96,-0.88 2.64,-0.88 1.16,0 2.04,0.52 0.88,0.52 0.88,1.84 0,1.56 -0.88,2.52 -0.84,0.96 -2.64,0.96 z m -8.52,24.56 4.64,-21.84 h 5.88 l -4.64,21.84 z"
         id="path193"
         style="fill:#f2f2f2" />
      <path
         d="m 80.288467,320.4786 q -2.56,0 -4.12,-1.08 -1.56,-1.12 -1.56,-3.96 0,-1 0.24,-2.2 l 2.24,-10.52 h -2.96 l 0.56,-2.88 3.84,-1.64 2.56,-4.6 h 3.8 l -0.96,4.64 h 5.52 l -0.96,4.48 h -5.52 l -2.24,10.52 q -0.12,0.6 -0.12,1.04 0,0.76 0.48,1.12 0.48,0.32 1.24,0.32 0.8,0 1.52,-0.16 0.76,-0.2 1.64,-0.52 v 4.4 q -0.92,0.44 -2.24,0.72 -1.32,0.32 -2.96,0.32 z"
         id="path195"
         style="fill:#f2f2f2" />
      <path
         d="m 89.408461,320.0786 6.44,-30.4 h 5.879999 l -1.12,5.28 q -0.16,0.88 -0.48,2.04 -0.319999,1.16 -0.639999,2.28 -0.32,1.08 -0.6,1.88 h 0.16 q 1.199999,-1.52 2.679999,-2.4 1.48,-0.92 3.44,-0.92 2.84,0 4.24,1.72 1.4,1.68 1.4,4.56 0,1.44 -0.44,3.52 l -2.6,12.44 h -5.88 l 2.68,-12.76 q 0.32,-1.4 0.32,-2.32 0,-2.4 -2.12,-2.4 -1.32,0 -2.4,1.16 -1.079999,1.12 -1.879999,3.04 -0.76,1.92 -1.28,4.24 l -1.92,9.04 z"
         id="path197"
         style="fill:#f2f2f2" />
      <path
         d="m 120.56846,320.4786 q -2.8,0 -4.2,-1.68 -1.36,-1.72 -1.36,-4.6 0,-0.72 0.12,-1.84 0.12,-1.16 0.36,-2.32 l 2.48,-11.8 h 5.88 l -2.68,12.76 q -0.32,1.4 -0.32,2.32 0,2.4 2.12,2.4 1.36,0 2.4,-1.12 1.08,-1.16 1.88,-3.08 0.8,-1.92 1.28,-4.24 l 1.92,-9.04 h 5.88 l -4.64,21.84 h -4.48 l 0.4,-4.04 h -0.2 q -1.24,1.96 -2.92,3.2 -1.64,1.24 -3.92,1.24 z"
         id="path199"
         style="fill:#f2f2f2" />
      <path
         d="m 148.92847,320.4786 q -2.08,0 -3.4,-0.88 -1.28,-0.88 -2,-2.32 h -0.16 l -1.12,2.8 h -4.52 l 6.44,-30.4 h 5.88 l -1.2,5.64 q -0.16,0.8 -0.44,1.88 -0.28,1.04 -0.6,2.12 -0.32,1.04 -0.6,1.84 h 0.16 q 1.04,-1.32 2.28,-2.32 1.24,-1 3.24,-1 1.6,0 3,0.8 1.4,0.76 2.28,2.52 0.88,1.72 0.88,4.6 0,2.68 -0.72,5.28 -0.72,2.6 -2.04,4.76 -1.32,2.12 -3.2,3.4 -1.84,1.28 -4.16,1.28 z m -1,-4.76 q 1.08,0 2,-0.84 0.96,-0.88 1.64,-2.28 0.72,-1.4 1.12,-3.12 0.4,-1.72 0.4,-3.44 0,-3.44 -2.56,-3.44 -1.44,0 -2.44,1.04 -1,1.04 -1.64,2.64 -0.64,1.56 -0.96,3.2 -0.28,1.64 -0.28,2.8 0,1.56 0.72,2.52 0.76,0.92 2,0.92 z"
         id="path201"
         style="fill:#f2f2f2" />
      <path
         d="m 164.32844,320.5986 q -1.68,0 -2.36,-0.84 -0.68,-0.88 -0.68,-1.92 0,-1.44 0.88,-2.64 0.92,-1.24 3.12,-1.24 1.32,0 2.12,0.76 0.8,0.72 0.8,2.08 0,1.64 -1.08,2.72 -1.04,1.08 -2.8,1.08 z"
         id="path203"
         style="fill:#f2f2f2" />
      <path
         d="m 182.08844,320.4786 q -2.24,0 -4.12,-0.8 -1.84,-0.84 -2.92,-2.6 -1.08,-1.76 -1.08,-4.64 0,-2.96 0.76,-5.56 0.76,-2.64 2.24,-4.68 1.48,-2.04 3.64,-3.2 2.16,-1.16 4.92,-1.16 1.96,0 3.48,0.36 1.56,0.36 2.92,1.04 l -1.8,4.48 q -1.04,-0.44 -2.08,-0.76 -1,-0.36 -2.28,-0.36 -1.84,0 -3.16,1.4 -1.32,1.36 -2,3.52 -0.68,2.12 -0.68,4.44 0,1.84 0.88,2.8 0.88,0.96 2.48,0.96 1.48,0 2.72,-0.44 1.28,-0.48 2.64,-1.16 v 4.8 q -1.36,0.72 -2.96,1.16 -1.56,0.4 -3.6,0.4 z"
         id="path205"
         style="fill:#f2f2f2" />
      <path
         d="m 201.64843,320.4786 q -2.44,0 -4.36,-1 -1.88,-1.04 -2.96,-2.92 -1.04,-1.88 -1.04,-4.48 0,-2.88 0.72,-5.44 0.72,-2.6 2.16,-4.56 1.44,-2 3.6,-3.12 2.2,-1.12 5.12,-1.12 3.8,0 6.04,2.28 2.24,2.28 2.24,6.36 0,2.76 -0.68,5.28 -0.68,2.52 -2.12,4.48 -1.4,1.96 -3.6,3.12 -2.16,1.12 -5.12,1.12 z m 0.48,-4.8 q 1.64,0 2.76,-1.32 1.16,-1.32 1.76,-3.4 0.6,-2.12 0.6,-4.48 0,-1.64 -0.64,-2.72 -0.6,-1.12 -2.16,-1.12 -1.32,0 -2.32,0.92 -1,0.88 -1.64,2.32 -0.64,1.44 -0.96,3.08 -0.32,1.64 -0.32,3.12 0,3.6 2.92,3.6 z"
         id="path207"
         style="fill:#f2f2f2" />
      <path
         d="m 215.64839,320.0786 4.64,-21.84 h 4.48 l -0.4,4.04 h 0.16 q 1.28,-1.96 2.92,-3.2 1.68,-1.24 3.96,-1.24 2.24,0 3.48,1.2 1.24,1.16 1.64,3.24 h 0.16 q 1.24,-1.96 2.96,-3.2 1.72,-1.24 4,-1.24 2.72,0 4.08,1.72 1.36,1.68 1.36,4.56 0,1.44 -0.44,3.52 l -2.6,12.44 h -5.88 l 2.68,-12.76 q 0.32,-1.4 0.32,-2.32 0,-2.4 -1.92,-2.4 -1.32,0 -2.4,1.12 -1.08,1.12 -1.88,3.04 -0.8,1.88 -1.28,4.24 l -1.88,9.08 h -5.88 l 2.68,-12.76 q 0.32,-1.4 0.32,-2.32 0,-2.4 -1.92,-2.4 -1.32,0 -2.4,1.16 -1.08,1.12 -1.88,3.04 -0.76,1.92 -1.28,4.24 l -1.92,9.04 z"
         id="path209"
         style="fill:#f2f2f2" />
      <path
         d="m 249.36842,320.0786 15.8,-28.56 h 5.76 l -15.8,28.56 z"
         id="path211"
         style="fill:#f2f2f2" />
      <path
         d="m 274.9684,320.4786 q -2.08,0 -3.64,-0.32 -1.56,-0.28 -2.92,-0.96 v -4.84 q 1.48,0.84 3.04,1.32 1.56,0.44 3.2,0.44 1.4,0 2.48,-0.56 1.08,-0.6 1.08,-1.8 0,-0.8 -0.64,-1.44 -0.64,-0.64 -2.64,-1.76 -2.04,-1.16 -3.16,-2.4 -1.08,-1.28 -1.08,-3.36 0,-3.4 2.2,-5.16 2.24,-1.8 6.12,-1.8 1.88,0 3.64,0.44 1.76,0.4 3.44,1.4 l -1.92,4.2 q -1.16,-0.68 -2.48,-1.16 -1.28,-0.48 -2.56,-0.48 -0.96,0 -1.72,0.48 -0.76,0.44 -0.76,1.36 0,0.76 0.64,1.36 0.64,0.56 2.32,1.44 2,1 3.28,2.4 1.28,1.36 1.28,3.6 0,3.76 -2.52,5.68 -2.48,1.92 -6.68,1.92 z"
         id="path213"
         style="fill:#f2f2f2" />
      <path
         d="m 294.88838,320.4786 q -2.56,0 -4.12,-1.08 -1.56,-1.12 -1.56,-3.96 0,-1 0.24,-2.2 l 2.24,-10.52 h -2.96 l 0.56,-2.88 3.84,-1.64 2.56,-4.6 h 3.8 l -0.96,4.64 h 5.52 l -0.96,4.48 h -5.52 l -2.24,10.52 q -0.12,0.6 -0.12,1.04 0,0.76 0.48,1.12 0.48,0.32 1.24,0.32 0.8,0 1.52,-0.16 0.76,-0.2 1.64,-0.52 v 4.4 q -0.92,0.44 -2.24,0.72 -1.32,0.32 -2.96,0.32 z"
         id="path215"
         style="fill:#f2f2f2" />
      <path
         d="m 311.20839,320.4786 q -1.56,0 -3,-0.76 -1.4,-0.8 -2.28,-2.52 -0.88,-1.76 -0.88,-4.64 0,-2.68 0.72,-5.28 0.72,-2.6 2.04,-4.72 1.32,-2.16 3.16,-3.44 1.88,-1.28 4.2,-1.28 2.08,0 3.36,0.88 1.32,0.88 2.04,2.32 h 0.16 l 1.12,-2.8 h 4.52 l -4.64,21.84 h -4.4 l 0.28,-2.84 h -0.16 q -1.16,1.44 -2.68,2.36 -1.48,0.88 -3.56,0.88 z m 2.32,-4.76 q 1.2,0 2.24,-0.96 1.04,-0.96 1.76,-2.48 0.76,-1.52 1.08,-3.2 0.28,-1.44 0.28,-3.28 0,-1.4 -0.72,-2.28 -0.72,-0.92 -2,-0.92 -1.08,0 -2.04,0.88 -0.92,0.84 -1.64,2.24 -0.68,1.4 -1.08,3.12 -0.4,1.72 -0.4,3.44 0,3.44 2.52,3.44 z"
         id="path217"
         style="fill:#f2f2f2" />
      <path
         d="m 327.76837,320.0786 4.64,-21.84 h 4.48 l -0.4,4.04 h 0.2 q 1.32,-2.08 3,-3.24 1.68,-1.2 3.8,-1.2 0.48,0 1,0.08 0.56,0.04 0.88,0.12 l -1.28,5.68 q -0.32,-0.12 -0.84,-0.2 -0.52,-0.12 -1.12,-0.12 -2.2,0 -3.96,1.76 -1.72,1.72 -2.44,5.16 l -2.08,9.76 z"
         id="path219"
         style="fill:#f2f2f2" />
      <path
         d="m 351.12834,329.6786 q -2.44,0 -4.04,-0.4 -1.6,-0.36 -3.08,-1 v -5.12 q 1.52,0.8 3.2,1.24 1.72,0.44 3.6,0.44 2.04,0 3.32,-0.96 1.32,-0.92 1.84,-2.92 l 0.16,-0.6 q 0.2,-0.72 0.48,-1.64 0.32,-0.96 0.48,-1.56 h -0.16 q -1.04,1.36 -2.4,2.36 -1.36,0.96 -3.4,0.96 -1.56,0 -2.92,-0.84 -1.32,-0.84 -2.16,-2.56 -0.8,-1.76 -0.8,-4.52 0,-2.68 0.72,-5.28 0.72,-2.6 2.04,-4.72 1.32,-2.16 3.16,-3.44 1.84,-1.28 4.08,-1.28 2.12,0 3.32,0.88 1.24,0.84 2.2,2.32 h 0.16 l 1.12,-2.8 h 4.52 l -4.76,22.36 q -0.72,3.44 -2.24,5.4 -1.48,2 -3.6,2.84 -2.12,0.84 -4.84,0.84 z m 2.84,-13.96 q 1.24,0 2.16,-0.92 0.96,-0.96 1.6,-2.44 0.68,-1.48 1,-3.16 0.36,-1.68 0.36,-3.16 0,-1.56 -0.72,-2.48 -0.72,-0.96 -1.96,-0.96 -1.12,0 -2.08,0.88 -0.92,0.84 -1.64,2.24 -0.68,1.4 -1.08,3.12 -0.4,1.72 -0.4,3.44 0,1.72 0.72,2.6 0.76,0.84 2.04,0.84 z"
         id="path221"
         style="fill:#f2f2f2" />
      <path
         d="m 375.16835,320.4786 q -1.56,0 -3,-0.76 -1.4,-0.8 -2.28,-2.52 -0.88,-1.76 -0.88,-4.64 0,-2.68 0.72,-5.28 0.72,-2.6 2.04,-4.72 1.32,-2.16 3.16,-3.44 1.88,-1.28 4.2,-1.28 2.08,0 3.36,0.88 1.32,0.88 2.04,2.32 h 0.16 l 1.12,-2.8 h 4.52 l -4.64,21.84 h -4.4 l 0.28,-2.84 h -0.16 q -1.16,1.44 -2.68,2.36 -1.48,0.88 -3.56,0.88 z m 2.32,-4.76 q 1.2,0 2.24,-0.96 1.04,-0.96 1.76,-2.48 0.76,-1.52 1.08,-3.2 0.28,-1.44 0.28,-3.28 0,-1.4 -0.72,-2.28 -0.72,-0.92 -2,-0.92 -1.08,0 -2.04,0.88 -0.92,0.84 -1.64,2.24 -0.68,1.4 -1.08,3.12 -0.4,1.72 -0.4,3.44 0,3.44 2.52,3.44 z"
         id="path223"
         style="fill:#f2f2f2" />
      <path
         d="m 399.00833,320.4786 q -2.56,0 -4.12,-1.08 -1.56,-1.12 -1.56,-3.96 0,-1 0.24,-2.2 l 2.24,-10.52 h -2.96 l 0.56,-2.88 3.84,-1.64 2.56,-4.6 h 3.8 l -0.96,4.64 h 5.52 l -0.96,4.48 h -5.52 l -2.24,10.52 q -0.12,0.6 -0.12,1.04 0,0.76 0.48,1.12 0.48,0.32 1.24,0.32 0.8,0 1.52,-0.16 0.76,-0.2 1.64,-0.52 v 4.4 q -0.92,0.44 -2.24,0.72 -1.32,0.32 -2.96,0.32 z"
         id="path225"
         style="fill:#f2f2f2" />
      <path
         d="m 417.80833,320.4786 q -3.84,0 -6.24,-2.08 -2.4,-2.12 -2.4,-6.36 0,-2.76 0.76,-5.28 0.8,-2.56 2.32,-4.56 1.56,-2 3.84,-3.16 2.28,-1.2 5.28,-1.2 3.68,0 5.48,1.68 1.84,1.68 1.84,4.28 0,3.44 -3.12,5.52 -3.08,2.08 -9.44,2.08 h -1 q -0.04,0.24 -0.04,0.44 0,0.16 0,0.36 0,1.76 1,2.8 1.04,1.04 2.88,1.04 1.72,0 3.12,-0.4 1.4,-0.4 3.32,-1.28 v 4.44 q -1.72,0.84 -3.48,1.28 -1.76,0.4 -4.12,0.4 z m -1.16,-13.04 q 3.4,0 4.88,-1.04 1.52,-1.08 1.52,-2.48 0,-1.84 -2.04,-1.84 -1.08,0 -2.16,0.68 -1.08,0.68 -1.92,1.88 -0.8,1.2 -1.16,2.8 z"
         id="path227"
         style="fill:#f2f2f2" />
      <path
         d="m 437.60829,320.4786 q -1.56,0 -3,-0.76 -1.4,-0.8 -2.28,-2.52 -0.88,-1.76 -0.88,-4.68 0,-2.64 0.72,-5.24 0.72,-2.64 2.04,-4.76 1.32,-2.12 3.16,-3.4 1.88,-1.28 4.2,-1.28 1.96,0 3.08,0.92 1.12,0.92 1.88,2.28 h 0.16 q 0,-0.12 0.04,-0.84 0.08,-0.76 0.2,-1.72 0.12,-1 0.28,-1.8 l 1.48,-7 h 5.88 l -6.44,30.4 h -4.48 l 0.36,-2.84 h -0.16 q -1.16,1.44 -2.64,2.36 -1.48,0.88 -3.6,0.88 z m 2.48,-4.76 q 1.4,0 2.36,-1.04 1,-1.08 1.6,-2.64 0.64,-1.6 0.92,-3.2 0.32,-1.64 0.32,-2.8 0,-1.56 -0.72,-2.48 -0.72,-0.96 -2,-0.96 -1.08,0 -2.04,0.88 -0.92,0.84 -1.64,2.24 -0.68,1.4 -1.08,3.12 -0.4,1.72 -0.4,3.44 0,3.44 2.68,3.44 z"
         id="path229"
         style="fill:#f2f2f2" />
      <path
         d="m 461.3683,320.4786 q -1.56,0 -3,-0.76 -1.4,-0.8 -2.28,-2.52 -0.88,-1.76 -0.88,-4.64 0,-2.68 0.72,-5.28 0.72,-2.6 2.04,-4.72 1.32,-2.16 3.16,-3.44 1.88,-1.28 4.2,-1.28 2.08,0 3.36,0.88 1.32,0.88 2.04,2.32 h 0.16 l 1.12,-2.8 h 4.52 l -4.64,21.84 h -4.4 l 0.28,-2.84 h -0.16 q -1.16,1.44 -2.68,2.36 -1.48,0.88 -3.56,0.88 z m 2.32,-4.76 q 1.2,0 2.24,-0.96 1.04,-0.96 1.76,-2.48 0.76,-1.52 1.08,-3.2 0.28,-1.44 0.28,-3.28 0,-1.4 -0.72,-2.28 -0.72,-0.92 -2,-0.92 -1.08,0 -2.04,0.88 -0.92,0.84 -1.64,2.24 -0.68,1.4 -1.08,3.12 -0.4,1.72 -0.4,3.44 0,3.44 2.52,3.44 z"
         id="path231"
         style="fill:#f2f2f2" />
      <path
         d="m 480.64828,320.0786 -1,-21.84 h 5.48 l 0.08,9.68 q 0,1.6 -0.04,3.2 0,1.56 -0.16,3.4 h 0.16 q 0.28,-1 0.72,-2.2 0.44,-1.24 0.8,-2.24 0.4,-1 0.56,-1.36 l 4.52,-10.48 h 6.4 v 10.48 q 0,1.36 -0.04,2.76 0,1.4 -0.16,3.04 h 0.2 q 0.28,-0.92 0.68,-2.16 0.44,-1.24 0.88,-2.44 0.44,-1.24 0.76,-2 l 4.28,-9.68 h 6 l -10.36,21.84 h -6.44 l -0.12,-10.16 q 0,-0.84 0,-2 0.04,-1.2 0.08,-2.44 0.08,-1.24 0.12,-2.2 h -0.24 q -0.32,0.96 -0.76,2.16 -0.4,1.16 -0.8,2.24 -0.4,1.08 -0.72,1.84 l -4.56,10.56 z"
         id="path233"
         style="fill:#f2f2f2" />
    </g>
  </g>
</svg>
