<?xml version="1.0" encoding="UTF-8" standalone="no"?>
<svg
   width="24.841558"
   height="435.67224"
   viewBox="0 0 24.841558 435.67224"
   fill="none"
   version="1.1"
   id="svg4"
   sodipodi:docname="logo-right.svg"
   inkscape:version="1.1 (c68e22c387, 2021-05-23)"
   xmlns:inkscape="http://www.inkscape.org/namespaces/inkscape"
   xmlns:sodipodi="http://sodipodi.sourceforge.net/DTD/sodipodi-0.dtd"
   xmlns="http://www.w3.org/2000/svg"
   xmlns:svg="http://www.w3.org/2000/svg">
  <defs
     id="defs8" />
  <sodipodi:namedview
     id="namedview6"
     pagecolor="#ffffff"
     bordercolor="#666666"
     borderopacity="1.0"
     inkscape:pageshadow="2"
     inkscape:pageopacity="0.0"
     inkscape:pagecheckerboard="0"
     showgrid="false"
     fit-margin-top="0"
     fit-margin-left="0"
     fit-margin-right="0"
     fit-margin-bottom="0"
     inkscape:zoom="2.9036697"
     inkscape:cx="0.68878357"
     inkscape:cy="217.8278"
     inkscape:window-width="1920"
     inkscape:window-height="1009"
     inkscape:window-x="0"
     inkscape:window-y="0"
     inkscape:window-maximized="1"
     inkscape:current-layer="svg4" />
  <path
     d="m 6.9985485,22.94449 c -0.9277,-0.5178 -1.6504,-1.1974 -2.1682,-2.0388 -0.4962,-0.8414 -0.9169,-1.7691 -1.2621,-2.7831 -0.3236,-1.014 -0.6149,-2.0819 -0.8738,-3.2038 -0.2589,-1.1003 -0.5933,-2.1683 -1.0032,-3.2038 0,-0.3021 -0.0108,-0.5718 -0.0324,-0.8091 -0.0215,-0.2157 -0.0539,-0.4315 -0.0971,-0.6472 -0.0215,-0.1942 -0.0539,-0.38836 -0.097,-0.58253 -0.0216,-0.19417 -0.0432,-0.40992 -0.0648,-0.64724 0.0216,-0.0863 0,-0.14023 -0.0647,-0.1618 -0.0431,-0.0216 -0.0863,-0.0539 -0.1294,-0.0971 -0.0648,-0.36677 -0.0971,-0.70117 -0.0971,-1.00321 0,-0.28047 0,-0.51779 0,-0.71196 0,-0.2589 -0.0324,-0.52858 -0.0971,-0.80905 -0.0863,-0.25889 -0.11869996,-0.49621 -0.0971,-0.71196 0.0863,-1.61809 0.65799996,-2.89098 1.71519996,-3.81869 1.0787,-0.90612 2.5673,-1.41313 4.4659,-1.521 0.1079,0.0216 0.1726,0 0.1942,-0.0647 0.0215,-0.0431 0.0539,-0.0863 0.0971,-0.12945 0.2157,0 0.3991,0.0216 0.5501,0.0647 0.151,0.0647 0.3452,0.0755 0.5825,0.0324 1.1866,0.56093 2.2869005,1.19738 3.3009005,1.90934 1.0356,0.71196 1.9417,1.56415 2.7184,2.55658 0.1295,0.15102 0.2589,0.28047 0.3884,0.38834 0.1294,0.10787 0.25885,0.20496 0.38829,0.29126 0.12945,0.10787 0.23732,0.22653 0.32362,0.35598 0.10787,0.12944 0.18339,0.29125 0.22653,0.48542 0.51779,0.45307 0.99243,0.99243 1.42392,1.61809 0.43149,0.62566 0.84141,1.28369 1.22975,1.97407 0.40992,0.69043 0.80904,1.37003 1.19739,2.03883 0.40991,0.6903 0.86298,1.316 1.35919,1.8769 -0.10787,0.2374 -0.14023,0.41 -0.0971,0.5178 0.0431,0.1079 0.0431,0.2266 0,0.356 -0.32361,0.151 -0.55015,0.356 -0.67959,0.6149 -0.12945,0.2805 -0.26968,0.5501 -0.42071,0.809 -0.12944,0.2805 -0.29125,0.5394 -0.48542,0.7767 -0.19417,0.2373 -0.45307,0.4207 -0.77668,0.5502 0,-0.1295 -0.0539,-0.1942 -0.16181,-0.1942 -0.0863,0.0216 -0.18339,0.0539 -0.29126,0.0971 -0.0863,0.0431 -0.18338,0.0539 -0.29126,0.0323 -0.0863,0 -0.12944,-0.0755 -0.12944,-0.2265 -0.10788,0.0216 -0.1726,0.0863 -0.19417,0.1942 0,0.1294 -0.0539,0.1941 -0.16181,0.1941 -0.10787,0 -0.19417,-0.0323 -0.2589,-0.097 -0.0647,-0.0432 -0.17259,-0.0432 -0.32361,0 -0.28047,-0.4315 -0.55015,-0.917 -0.80905,-1.4563 -0.25889,-0.5178 -0.53936,-1.068 -0.84139,-1.6505 -0.2805,-0.5609 -0.5933,-1.1542 -0.9385,-1.7799 -0.3236,-0.6041 -0.7012,-1.1974 -1.1327,-1.7799 -0.4315,-0.58247 -0.9169,-1.17577 -1.4562,-1.77986 -0.5178,-0.60409 -1.068,-1.1866 -1.6505005,-1.74754 -0.5825,-0.56093 -1.1866,-1.08951 -1.8123,-1.58572 -0.604,-0.49622 -1.2081,-0.91692 -1.8122,-1.26211 -0.1079,0.0431 -0.1942,0.0863 -0.2589,0.12945 -0.0432,0.0647 -0.1187,0.11866 -0.2265,0.1618 -0.0432,0.69039 -0.0432,1.32684 0,1.90935 0.0647,0.60409 0.0323,1.20817 -0.0971,1.81226 0.0431,0.0647 0.1078,0.10787 0.1941,0.12945 0.0863,0.0216 0.1511,0.0755 0.1942,0.1618 0.1295,1.22975 0.3236,2.37322 0.5825,3.43032 0.2805,1.0572 0.5717,2.1359 0.8738,3.2362 0.0647,-0.1726 0.1187,-0.3344 0.1618,-0.4854 0.0647,-0.1295 0.1187,-0.2589 0.1618,-0.3884 0.1079,-0.1078 0.1942,-0.1078 0.2589,0 0.0863,0.1295 0.1726,0.2374 0.2589,0.3237 0.1726,-0.3021 0.3883,-0.5502 0.6472,-0.7444 0.2589,-0.1726 0.6041,-0.2804 1.0356005,-0.3236 0.1079,0.1295 0.2373,0.1942 0.3884,0.1942 0.151,0 0.2696,-0.0647 0.3559,-0.1942 0.0216,-0.0863 0.0216,-0.1402 0,-0.1618 -0.0215,-0.0216 -0.0539,-0.0431 -0.0971,-0.0647 -0.0431,0 -0.0863,-0.0108 -0.1294,-0.0324 -0.0216,-0.0215 -0.0108,-0.0755 0.0324,-0.1618 0.1941,0.0216 0.3559,0.0647 0.4854,0.1295 0.1294,0.0863 0.2805,0.151 0.4531,0.1941 l 1.4886,2.233 c -0.1726,0.2373 -0.3668,0.5286 -0.5825,0.8738 -0.1942,0.3452 -0.3991,0.7011 -0.6149,1.0679 -0.1942,0.3883 -0.3991,0.7767 -0.6149,1.165 -0.1941,0.4099 -0.3883,0.7875 -0.5825,1.1327 -0.1294,0.302 -0.302,0.5717 -0.5178,0.809 -0.2157005,0.2374 -0.4422005,0.4639 -0.6796005,0.6796 -0.2157,0.2158 -0.4315,0.4315 -0.6472,0.6473 -0.2157,0.2373 -0.3991,0.507 -0.5501,0.809 -0.2805,-0.0431 -0.507,-0.0324 -0.6796,0.0324 -0.1726,0.0647 -0.3884,0.0863 -0.6473,0.0647 z m -3.5598,4.8776 c -0.6472,0.1078 -1.1542,0.0647 -1.521,-0.1295 -0.3667,-0.1726 -0.6364,-0.4315 -0.809,-0.7767 -0.19419996,-0.3236 -0.30209996,-0.7011 -0.32359996,-1.1326 -0.0216,-0.4315 0,-0.8414 0.0647,-1.2298 0.30199996,-0.2157 0.67959996,-0.4099 1.13259996,-0.5825 0.4531,-0.1726 0.917,-0.3344 1.3916,-0.4854 0.4962,-0.151 0.9816,-0.2913 1.4563,-0.4207 0.4746,-0.1079 0.8953,-0.205 1.2621,-0.2913 0.2589,0.1079 0.5501,0.1726 0.8738,0.1942 0.3451,0.0431 0.6903,0.0647 1.0355,0.0647 0.3452,0.0216 0.6904,0.0324 1.0356,0.0324 0.3668,0.0216 0.712,0.0539 1.0356005,0.0971 0.9061,0.151 1.7691,0.3667 2.5889,0.6472 0.8199,0.302 1.6721,0.5394 2.55661,0.712 0.19417,0.0431 0.37755,0.0215 0.55015,-0.0648 0.1726,-0.0647 0.3344,-0.0755 0.48543,-0.0323 0.0863,0.0216 0.14023,0.0863 0.1618,0.1941 0.0431,0.1079 0.11866,0.1726 0.22654,0.1942 0.23732,0.0647 0.43149,0.0755 0.58251,0.0324 0.15102,-0.0216 0.3344,0.0216 0.55015,0.1294 0.1726,0.1079 0.4207,0.2373 0.74432,0.3884 0.34519,0.1726 0.70117,0.2373 1.06794,0.1941 0.12945,0.1942 0.28047,0.3776 0.45306,0.5502 0.1726,0.1726 0.32362,0.3452 0.45307,0.5178 0.15102,0.1941 0.28047,0.3991 0.38834,0.6149 0.10787,0.2373 0.16181,0.5177 0.16181,0.8414 -0.21575,0.1726 -0.45307,0.2804 -0.71196,0.3236 -0.2589,0.0647 -0.51779,0.1186 -0.77668,0.1618 -0.2589,0.0647 -0.507,0.151 -0.74432,0.2589 -0.21575,0.1079 -0.38835,0.2912 -0.51779,0.5501 -0.1726,0 -0.38834,0 -0.64724,0 -0.25889,0 -0.51779,0.0108 -0.77668,0.0324 -0.23732,0.0216 -0.46385,0.0647 -0.6796,0.1294 -0.19417,0.0863 -0.32362,0.2158 -0.38834,0.3884 -1.03562,-0.3884 -2.06032,-0.7551 -3.07432,-1.1003 -1.014,-0.3236 -2.0388,-0.5933 -3.0744005,-0.8091 -1.014,-0.2157 -2.0388,-0.3559 -3.0744,-0.4207 -1.0356,-0.0431 -2.0819,0.0324 -3.1391,0.2266 z m 13.3007105,23.1619 c 0,-0.5393 -0.0431,-1.1218 -0.12944,-1.7475 -0.0647,-0.6257 -0.14024,-1.2405 -0.22654,-1.8446 -0.0647,-0.4315 -0.11866,-0.8522 -0.16181,-1.2621 -0.0431,-0.3884 -0.0755,-0.7444 -0.0971,-1.068 -0.47464,-0.151 -0.89534,-0.302 -1.26214,-0.453 -0.3667,-0.1511 -0.7227,-0.3129 -1.0679,-0.4855 -0.3668,-0.1726 -0.7443,-0.3344 -1.1327,-0.4854 -0.3667,-0.1294 -0.7659,-0.2589 -1.1974,-0.3883 -0.3451,-0.2158 -0.6688,-0.3992 -0.9708,-0.5502 -0.2805,-0.1294 -0.6041005,-0.2373 -0.9709005,-0.3236 -0.3236,-0.2589 -0.6688,-0.4531 -1.0355,-0.5825 -0.3452,-0.1295 -0.6473,-0.2265 -0.9062,-0.2913 l -0.3883,-0.1294 c -0.1295,-0.1295 -0.2373,-0.205 -0.3236,-0.2265 -0.0648,-0.0216 -0.1295,-0.0756 -0.1942,-0.1619 -0.2373,-0.0215 -0.4746,-0.097 -0.712,-0.2265 -0.1078,-0.0431 -0.2157,-0.0755 -0.3236,-0.0971 -0.0863,-0.0215 -0.151,-0.0323 -0.1941,-0.0323 -0.2158,0 -0.356,-0.054 -0.4207,-0.1618 -0.1079,0.0215 -0.2266,0.0215 -0.356,0 -0.1079,-0.0216 -0.2158,-0.0432 -0.3236,-0.0648 -0.2589,-0.0647 -0.4639,-0.0863 -0.6149,-0.0647 -0.0863,0.0647 -0.1618,0.1187 -0.2266,0.1618 -0.0647,0.0647 -0.151,0.1079 -0.2588,0.1295 -0.0863,0.1294 -0.1403,0.2265 -0.1619,0.2912 -0.0647,0.0863 -0.1402,0.2158 -0.2265,0.3884 l -0.3236,0.2912 c -0.6257,0.1079 -1.1219,0.0108 -1.4886,-0.2912 -0.40999996,-0.3237 -0.61489996,-0.8738 -0.61489996,-1.6505 v -0.3883 c 0.1079,-0.1079 0.1941,-0.1726 0.2589,-0.1942 0.0647,-0.1726 0.1186,-0.3128 0.1618,-0.4207 0.0431,-0.1079 0.1294,-0.205 0.25889996,-0.2913 0.1294,-0.2804 0.2373,-0.507 0.3236,-0.6796 l 0.1618,-0.2912 c 0.2373,0 0.3668,0 0.3883,0 0.1942,-0.151 0.41,-0.2697 0.6473,-0.356 0.2373,-0.0647 0.4746,-0.1187 0.7119,-0.1618 0.1942,-0.0432 0.3776,-0.0971 0.5502,-0.1618 0.1726,-0.0432 0.3236,-0.1079 0.4531,-0.1942 1.2513,-0.0431 2.3084,0.0755 3.1714,0.356 0.863,0.2805 1.6936,0.5717 2.4919005,0.8738 0.4315,0.1726 0.8629,0.3452 1.2944,0.5178 0.4531,0.1726 0.917,0.3236 1.3916,0.453 l 0.3236,0.2913 c 0.3452,0.151 0.6257,0.2697 0.8414,0.356 0.2373,0.1078 0.4747,0.2157 0.712,0.3236 0.151,0.0647 0.2912,0.1186 0.4207,0.1618 0.151,0.0647 0.28045,0.1186 0.38832,0.1618 0,-0.1295 -0.0108,-0.2481 -0.0324,-0.356 0,-0.1079 -0.0108,-0.2157 -0.0324,-0.3236 -0.0216,-0.1295 -0.0431,-0.2481 -0.0647,-0.356 0,-0.1079 0,-0.2157 0,-0.3236 0,-0.151 0.0108,-0.2589 0.0324,-0.3236 -0.10787,-0.2373 -0.16183,-0.4962 -0.16183,-0.7767 v -0.3236 c 0,-0.0647 0,-0.1295 0,-0.1942 0.0216,-0.0431 0.0324,-0.0863 0.0324,-0.1294 0,-0.2158 -0.0324,-0.3884 -0.0971,-0.5178 0,-0.2589 0,-0.507 0,-0.7443 v -0.3237 c 0,-0.0431 -0.0108,-0.0971 -0.0324,-0.1618 0,-0.0647 0,-0.1186 0,-0.1618 0,-0.151 0.0108,-0.3128 0.0324,-0.4854 0.0431,-0.1726 0.11866,-0.356 0.22653,-0.5502 0.34519,-0.2589 0.52858,-0.4315 0.55015,-0.5177 l 0.38834,-0.2913 c 0.12945,-0.0216 0.24811,-0.0539 0.35598,-0.0971 0.12945,-0.0431 0.26968,-0.0863 0.42071,-0.1294 0.21574,-0.0863 0.44227,-0.1726 0.67959,-0.2589 0.2589,-0.0648 0.56094,-0.0971 0.90613,-0.0971 0.1726,0.0216 0.30205,0.0647 0.38834,0.1294 0.0863,0.0648 0.16181,0.1187 0.22654,0.1618 l 0.48542,0.0971 -0.0324,0.4207 v 0.9062 c 0,0.6903 0.0216,1.3915 0.0647,2.1035 0.0647,0.7119 0.12944,1.4455 0.19417,2.2006 0.0431,0.4315 0.0863,0.863 0.12944,1.2944 0.0431,0.4531 0.0863,0.917 0.12945,1.3916 0.19417,0.0863 0.37755,0.1726 0.55015,0.2589 l 0.16181,0.3236 c 0.0216,0.3884 -0.0324,0.658 -0.16181,0.8091 -0.10787,0.1726 -0.21574,0.3128 -0.32362,0.4207 0.0431,0.4746 0.0863,0.9492 0.12945,1.4239 0.0647,0.4962 0.14023,0.9924 0.22653,1.4886 0.10787,0.7336 0.20496,1.4671 0.29126,2.2006 0.0863,0.7551 0.12945,1.4779 0.12945,2.1683 0,0.302 -0.0108,0.5933 -0.0324,0.8737 -0.0216,0.2805 -0.0539,0.5394 -0.0971,0.7767 l -0.22653,0.3236 c -0.12945,0.0647 -0.24811,0.151 -0.35598,0.2589 -0.10788,0.1295 -0.21575,0.2589 -0.32362,0.3884 -0.23732,0.2589 -0.51779,0.5177 -0.84141,0.7766 -0.32362,0.2589 -0.79825,0.356 -1.42392,0.2913 -0.25889,-0.1726 -0.40991,-0.302 -0.45306,-0.3883 l -0.38834,-0.2913 0.0324,-0.3236 c 0,-0.1295 -0.0216,-0.2481 -0.0647,-0.356 -0.0216,-0.1079 -0.0539,-0.2157 -0.0971,-0.3236 -0.0431,-0.0863 -0.0863,-0.1726 -0.12945,-0.2589 -0.0216,-0.0863 -0.0431,-0.1834 -0.0647,-0.2913 0,-0.1941 0,-0.3559 0,-0.4854 0.0216,-0.1079 0.0324,-0.2265 0.0324,-0.356 z M 4.3125485,66.02319 c -0.5609,0.0431 -1.0248,-0.0216 -1.3916,-0.1942 -0.3667,-0.1726 -0.6796,-0.4099 -0.9385,-0.7119 -0.2588,-0.3021 -0.4638,-0.6473 -0.6148,-1.0356 -0.1511,-0.3884 -0.2913,-0.7659 -0.42069996,-1.1327 0.10779996,-0.1726 0.21569996,-0.3452 0.32359996,-0.5178 0.1294,-0.151 0.2265,-0.3344 0.2912,-0.5501 0.5178,-0.2805 0.9709,-0.5502 1.3592,-0.8091 0.41,-0.2589 0.8738,-0.3775 1.3916,-0.3559 0.0216,0 0.1402,0.0108 0.356,0.0323 0.2157,0.0432 0.453,0.0863 0.7119,0.1295 0.2589,0.0647 0.4962,0.1078 0.712,0.1294 0.2373,0.0432 0.3668,0.0647 0.3883,0.0647 -0.0431,-0.4962 -0.151,-1.014 -0.3236,-1.5533 -0.1726,-0.5394 -0.3775,-1.068 -0.6149,-1.5857 -0.2373,-0.4963 -0.4746,-0.9709 -0.7119,-1.424 -0.2373,-0.4315 -0.4423,-0.7874 -0.6149,-1.0679 -0.0647,0 -0.2265,-0.0432 -0.4854,-0.1295 -0.2373,-0.0862 -0.4962,-0.1941 -0.7767,-0.3236 -0.2589,-0.1294 -0.4962,-0.2697 -0.712,-0.4207 -0.2157,-0.151 -0.3236,-0.302 -0.3236,-0.453 -0.0647,0.0215 -0.1294,0.0539 -0.1941,0.097 -0.0648,0.0432 -0.1511,0.0432 -0.2589,0 -0.0863,-0.302 -0.1942,-0.5717 -0.3237,-0.809 -0.15099996,-0.2373 -0.26959996,-0.4854 -0.35589996,-0.7443 -0.1079,-0.2589 -0.1619,-0.5394 -0.1619,-0.8414 0,-0.3021 0.1079,-0.658 0.3237,-1.068 0.12939996,0 0.23729996,-0.0539 0.32359996,-0.1618 0.1079,-0.1078 0.1942,-0.2265 0.2589,-0.3559 0.0863,-0.1079 0.151,-0.205 0.1942,-0.2913 0.0647,-0.0863 0.1186,-0.1295 0.1618,-0.1295 -0.0216,-0.1078 0.0539,-0.151 0.2265,-0.1294 0.1726,0.0216 0.2157,0.1079 0.1294,0.2589 0.3021,-0.2373 0.561,-0.3883 0.7767,-0.4531 0.2373,-0.0431 0.5286,-0.1618 0.8738,-0.3559 0.0431,0.0431 0.1186,0.0862 0.2265,0.1294 0.1079,0.0216 0.205,0.0431 0.2913,0.0647 0.0863,0.0216 0.151,0.054 0.1941,0.0971 0.0432,0.0432 0.0324,0.0971 -0.0323,0.1618 0.1942,-0.0431 0.356,-0.0431 0.4854,0 0.1295,0.0432 0.2481,0.0863 0.356,0.1295 0.1079,0.0431 0.2157,0.0755 0.3236,0.097 0.1079,0.0216 0.2265,-0.0107 0.356,-0.097 0.4746,0.3452 0.9816,0.5717 1.521,0.6796 0.5609,0.1078 1.0679,0.1726 1.521,0.1941 0.151,0.1511 0.3668,0.2805 0.6472,0.3884 0.2805005,0.1294 0.5610005,0.2265 0.8414005,0.2912 0.3021,0.0648 0.5825,0.0863 0.8414,0.0648 0.2805,0 0.507,-0.0324 0.6796,-0.0971 0.1079,0.0215 0.1403,0.1402 0.0971,0.3559 0.712,0.1295 1.5102,0.2158 2.3948,0.2589 0.90613,0.0648 1.75832,0.1618 2.55658,0.2913 0.81983,0.1294 1.53179,0.3452 2.13587,0.6472 0.62566,0.3021 1.03558,0.7875 1.22975,1.4563 -0.45306,0.1295 -0.85219,0.2913 -1.19738,0.4854 -0.3452,0.2158 -0.6796,0.4423 -1.00322,0.6796 -0.30204,0.2589 -0.61487,0.507 -0.93849,0.7444 -0.32362,0.2588 -0.69038,0.4962 -1.1003,0.7119 -0.40992,-0.0216 -0.88456,-0.0647 -1.42391,-0.1294 -0.5394,-0.0648 -1.0895,-0.1511 -1.6505,-0.2589 -0.5609,-0.0863 -1.1003,-0.1834 -1.618,-0.2913 -0.5178,-0.0863 -0.9601,-0.1726 -1.3269,-0.2589 -0.1079,0.0216 -0.1726,0.0755 -0.1942,0.1618 -0.0215,0.1079 -0.1186005,0.1295 -0.2912005,0.0648 0.1294,0.5177 0.2481005,1.0571 0.3560005,1.618 0.1078,0.561 0.2265,1.1219 0.356,1.6829 0.1294,0.5609 0.2696,1.1003 0.4207,1.618 0.1726,0.5394 0.3775,1.0356 0.6148,1.4887 0.8414,0.1079 1.6828,0.2481 2.5242,0.4207 0.8415,0.1726 1.70443,0.1942 2.58899,0.0647 0.0863,0.1079 0.19417,0.1942 0.32362,0.2589 0.12944,0.0647 0.21574,0.1726 0.25889,0.3236 0.40992,-0.1078 0.84141,-0.151 1.29447,-0.1294 0.45307,0.0216 0.88456,0.0971 1.29447,0.2265 0.40992,0.151 0.75511,0.356 1.03558,0.6149 0.30204,0.2805 0.49621,0.6149 0.58251,1.0032 -0.34519,0.2373 -0.72275,0.4423 -1.13266,0.6149 -0.38834,0.1726 -0.78747,0.3452 -1.19739,0.5178 -0.38834,0.1941 -0.76589,0.3883 -1.13266,0.5825 -0.34519,0.2157 -0.64723,0.4854 -0.90613,0.809 -0.62566,0.0647 -1.27289,0.1079 -1.94169,0.1295 -0.6688,0.0431 -1.3484,0.0755 -2.0388,0.097 -0.8198,-0.1725 -1.6181,-0.3667 -2.3948,-0.5825 -0.7551005,-0.1941 -1.5641005,-0.3344 -2.4271005,-0.4207 -0.1726,-0.151 -0.3668,-0.2696 -0.5825,-0.3559 -0.2158,-0.0863 -0.4423,-0.1726 -0.6796,-0.2589 -0.2158,-0.0863 -0.4315,-0.1834 -0.6473,-0.2913 -0.1941,-0.1079 -0.3667,-0.2373 -0.5177,-0.3883 -0.2589,0.0863 -0.507,0.097 -0.7444,0.0323 -0.2157,-0.0431 -0.4854,0.0216 -0.809,0.1942 z m 15.2747505,22.806 c -0.47464,0.0431 -0.88456,0.1186 -1.22975,0.2265 -0.34519,0.1079 -0.6796,0.2266 -1.00321,0.356 -0.30205,0.1079 -0.60409,0.205 -0.90613,0.2913 -0.28047,0.1078 -0.62566,0.1833 -1.03558,0.2265 -0.56098,-0.1726 -1.07868,-0.3021 -1.55338,-0.3884 -0.4746,-0.0647 -0.9708,-0.1402 -1.4886,-0.2265 -0.7551,-0.3452 -1.4239,-0.6796 -2.0065,-1.0032 -0.5825005,-0.3236 -1.0895005,-0.5825 -1.5210005,-0.7767 -0.1078,-0.1079 -0.2373,-0.2049 -0.3883,-0.2912 -0.1294,-0.0648 -0.2697,-0.1403 -0.4207,-0.2266 -0.0647,-0.0431 -0.1618,-0.0971 -0.2913,-0.1618 -0.1294,-0.0647 -0.2157,-0.1186 -0.2589,-0.1618 l 0.2266,-0.6472 -0.8091,-0.1295 -0.1294,-0.453 -0.3884,-0.3237 c -0.7119,-0.4099 -1.316,-0.8414 -1.8122,-1.2944 -0.4747,-0.4531 -0.9061,-0.9709 -1.2945,-1.5534 -0.3668,-0.5609 -0.7119,-1.2082 -1.0356,-1.9417 -0.3236,-0.712 -0.6796,-1.521 -1.0679,-2.4271 0.0431,-0.3668 0.0647,-0.6904 0.0647,-0.9709 0.0216,-0.2589 0.0432,-0.507 0.0647,-0.7443 0,-0.4099 0.0324,-0.9169 0.0971,-1.521 0.1726,-0.0647 0.2913,-0.1618 0.356,-0.2913 0.0647,-0.1294 0.0971,-0.2481 0.0971,-0.3559 0.1726,-0.3668 0.4207,-0.6473 0.7443,-0.8414 0.3452,-0.1726 0.712,-0.3452 1.1003,-0.5178 0.2373,-0.1079 0.4531,-0.2158 0.6473,-0.3237 0.2157,-0.1078 0.4314,-0.2265 0.6472,-0.3559 l 0.1618,0.5501 0.7767,-0.7119 c 0.0647,-0.0432 0.1186,-0.0971 0.1618,-0.1619 0.0647,-0.0647 0.1294,-0.1186 0.1942,-0.1618 l 0.5177,-0.0323 c 1.4887,-0.0647 2.8479,-0.0971 4.0776005,-0.0971 1.2514,0.0216 2.3624,0.1942 3.3333,0.5178 h 0.356 c 0.4746,0.0647 0.86295,0.1294 1.165,0.1942 0.32362,0.0647 0.62566,0.1186 0.90613,0.1618 0.47464,0.0647 0.91691,0.1618 1.32683,0.2912 0.0647,0.3021 0.18338,0.5286 0.35598,0.6796 0.19417,0.151 0.36677,0.2805 0.51779,0.3884 0.0216,0.302 -0.0216,0.507 -0.12945,0.6148 -0.10787,0.1079 -0.28047,0.2158 -0.51779,0.3236 -0.19417,0.1079 -0.40991,0.2374 -0.64723,0.3884 -0.23732,0.1726 -0.42071,0.4207 -0.55015,0.7443 -0.1726,0.0432 -0.35598,0.0971 -0.55015,0.1618 -0.1726,0.0863 -0.36677,0.1726 -0.58252,0.2589 -0.36676,0.1726 -0.75514,0.3236 -1.16504,0.4531 -0.3883,0.151 -0.7659,0.2373 -1.1326,0.2589 -0.41,-0.2158 -0.8846,-0.3884 -1.424,-0.5178 -0.5393,-0.1079 -1.0895,-0.1834 -1.6504,-0.2266 -0.5394005,-0.0215 -1.0679005,-0.0107 -1.5857005,0.0324 -0.4963,0.0647 -0.917,0.1618 -1.2621,0.2913 l -0.4207,0.1941 0.0647,0.5502 c 0.1726,0.6472 0.356,1.2297 0.5501,1.7475 0.2158,0.5394 0.4639,1.0356 0.7443,1.4887 0.2805,0.453 0.6041,0.8845 0.9709,1.2944 0.3883,0.41 0.8306005,0.8414 1.3268005,1.2945 0.4962,0.4531 1.0572,0.8414 1.6828,1.165 0.6473,0.3452 1.3161,0.6257 2.0065,0.8414 0.69036,0.2374 1.36996,0.41 2.03877,0.5178 0.69038,0.1295 1.33762,0.2158 1.9417,0.2589 0.12945,0.3668 0.38834,0.5502 0.77668,0.5502 l 0.35598,-0.0648 c 0.12945,-0.0863 0.28047,-0.0863 0.45307,0 0.40991,0.1295 0.72274,0.4315 0.93849,0.9062 -0.21575,0.3452 -0.45307,0.6472 -0.71196,0.9061 -0.25889,0.2805 -0.51779,0.5394 -0.77668,0.7767 z m -13.1388505,19.0518 c -0.0648,0.13 -0.1726,0.205 -0.3236,0.227 -0.1511,0.021 -0.2697,0.021 -0.356,0 -0.4962,-0.389 -0.8414,-0.658 -1.0356,-0.809 -0.1942,-0.151 -0.3452,-0.259 -0.4531,-0.324 -0.0863,-0.065 -0.1618,-0.14 -0.2265,-0.226 -0.0647,-0.065 -0.205,-0.227 -0.4207,-0.486 -0.5825,-0.971 -1.1003,-1.974 -1.5534,-3.01 -0.453,-1.014 -0.7659,-2.081 -0.9385,-3.203 -0.23729996,-0.1729 -0.39909996,-0.5073 -0.48539996,-1.0036 -0.1079,-0.4746 -0.2049,-0.9169 -0.2912,-1.3268 0.0431,-0.0863 0.1078,-0.1402 0.1941,-0.1618 0.0647,0 0.1187,-0.0431 0.1618,-0.1294 -0.2157,-0.0216 -0.3236,-0.1187 -0.3236,-0.2913 -0.0216,-0.1726 0.0216,-0.3883 0.1295,-0.6472 0.0863,-0.2374 0.2157,-0.4963 0.3883,-0.7767 0.15099996,-0.2589 0.29129996,-0.4854 0.42069996,-0.6796 -0.1726,-0.1079 -0.34519996,-0.2265 -0.51779996,-0.356 -0.1726,-0.1079 -0.2912,-0.2481 -0.356,-0.4207 0.0432,-0.2373 0.0756,-0.4207 0.0971,-0.5501 0.0216,-0.1079 -0.0215,-0.2158 -0.1294,-0.3237 0.0647,-0.1294 0.1402,-0.2373 0.2265,-0.3236 0.0863,-0.0647 0.1726,-0.1402 0.2589,-0.2265 0.0647,-0.0647 0.12949996,-0.151 0.19419996,-0.2589 0.0647,-0.0863 0.1186,-0.2158 0.1618,-0.3884 0.0863,0.0432 0.2157,0.0216 0.3883,-0.0647 0.1942,-0.0863 0.3129,-0.2157 0.356,-0.3883 0.151,0.0863 0.3344,0.0431 0.5502,-0.1295 0.2373,-0.151 0.4962,-0.2696 0.7766,-0.3559 0.2374,0.0431 0.4963,0.0755 0.7767,0.097 0.2805,0.0216 0.4423,0.1511 0.4854,0.3884 0.1511,-0.0216 0.2805,-0.054 0.3884,-0.0971 0.1079,-0.0432 0.2157,-0.0863 0.3236,-0.1295 0.1295,0.1511 0.2805,0.2589 0.4531,0.3237 0.1941,0.0647 0.3883,0.1186 0.5825,0.1618 0.1942,0.0431 0.3883,0.0971 0.5825,0.1618 0.1942,0.0647 0.356,0.1834 0.4854,0.356 0.6473,0.1941 1.1219,0.3452 1.4239,0.453 0.3237,0.1079 0.6365,0.1834 0.9385,0.2266 0.3021005,0.0647 0.6257005,0.1294 0.9709005,0.1941 0.3452,0.0863 0.7767,0.2266 1.2945,0.4207 0.3236,-0.0215 0.604,0.0108 0.8414,0.0971 0.2589,0.0863 0.507,0.1726 0.7443,0.2589 0.2589,0.1079 0.5178,0.1942 0.7767,0.2589 0.2804,0.0647 0.6041,0.0539 0.97082,-0.0324 -0.0216,-0.302 -0.12945,-0.5177 -0.32362,-0.6472 -0.1726,-0.1294 -0.4099,-0.2157 -0.712,-0.2589 -0.1726,-0.1726 -0.2589,-0.3883 -0.2589,-0.6472 0.0216,-0.2373 0,-0.4531 -0.0647,-0.6473 0.3021,-0.7551 0.7336,-1.3807 1.29449,-1.8769 0.56094,-0.4962 1.21896,-0.8954 1.97407,-1.1974 0.49622,0.1941 0.90613,0.4854 1.22975,0.8737 0.34519,0.3884 0.62566,0.8307 0.84141,1.3269 0.23732,0.4962 0.4207,1.0248 0.55015,1.5857 0.15102,0.5609 0.29125,1.1003 0.4207,1.6181 0.15102,0.8414 0.32362,1.6828 0.51779,2.5242 0.19417,0.8414 0.25889,1.7475 0.19417,2.7184 0.0647,0.1294 0.0971,0.2806 0.0971,0.4526 0.0216,0.195 0.0324,0.389 0.0324,0.583 0,0.194 0,0.378 0,0.55 0.0216,0.194 0.0647,0.356 0.12944,0.486 -0.12944,0.107 -0.21574,0.258 -0.25889,0.453 -0.0216,0.215 -0.11866,0.442 -0.29126,0.679 0.19417,0.259 0.23732,0.475 0.12945,0.647 -0.10787,0.195 -0.22653,0.367 -0.35598,0.518 -0.12945,0.151 -0.24811,0.291 -0.35598,0.421 -0.10787,0.151 -0.16181,0.302 -0.16181,0.453 -0.19417,0.151 -0.37755,0.334 -0.55015,0.55 -0.17259,0.237 -0.35598,0.453 -0.55015,0.647 -0.1726,0.216 -0.36677,0.389 -0.58251,0.518 -0.21575,0.151 -0.46385,0.227 -0.74432,0.227 -0.10787,-0.022 -0.1726,0.011 -0.19417,0.097 -0.0216,0.086 -0.0647,0.151 -0.12945,0.194 -0.66881,0.022 -1.25132,-0.086 -1.74754,-0.324 -0.47466,-0.215 -0.91696,-0.496 -1.32686,-0.841 -0.4099,-0.324 -0.7982,-0.69 -1.165,-1.1 -0.3668,-0.389 -0.7551,-0.745 -1.165,-1.068 -0.2805,0.215 -0.5286,0.464 -0.7443,0.744 -0.2158,0.28 -0.4315,0.561 -0.6473,0.841 -0.2157,0.302 -0.4422,0.583 -0.6796005,0.842 -0.2373,0.259 -0.5178,0.474 -0.8414,0.647 -0.0431,0.043 -0.0863,0.097 -0.1294,0.162 -0.0216,0.065 -0.054,0.129 -0.0971,0.194 -0.2158,0.065 -0.4423,0.151 -0.6796,0.259 -0.2157,0.108 -0.4315,0.194 -0.6472,0.259 -0.1942,0.086 -0.3776,0.14 -0.5502,0.162 -0.151,0.021 -0.2805,-0.022 -0.3883,-0.13 z m 10.8088005,-5.695 c 0.0431,-1.101 -0.0539,-2.2011 -0.29126,-3.3014 -0.23731,-1.0787 -0.57172,-1.9848 -1.00321,-2.7184 -0.30204,0.3668 -0.57172,0.7336 -0.80903,1.1003 -0.2373,0.3884 -0.561,0.6904 -0.9709,0.9062 0.3452,0.8414 0.7767,1.5857 1.2945,2.2333 0.53937,0.647 1.13267,1.24 1.7799,1.78 z m -10.3234005,0.42 c 0.2157,0.065 0.3883,0.184 0.5178,0.356 0.1294,0.173 0.2481,0.345 0.356,0.518 0.1294,0.173 0.2589,0.324 0.3883,0.453 0.151,0.13 0.356,0.183 0.6149,0.162 0.3667,-0.691 0.5825,-1.327 0.6472,-1.909 0.0863,-0.561 0.0863,-1.101 0,-1.619 -0.0647,-0.496 -0.1726,-0.9812 -0.3236,-1.4558 -0.151,-0.4531 -0.2589,-0.917 -0.3236,-1.3916 -0.6257,-0.2373 -1.3053,-0.4854 -2.0388,-0.7443 -0.7335,-0.2589 -1.4455,-0.507 -2.1359,-0.7443 0.0863,0.6472 0.2158,1.2405 0.3884,1.7799 0.1941,0.5393 0.3991,1.0571 0.6148,1.5533 0.2158,0.5178 0.4315,1.0138 0.6473,1.4888 0.2373,0.496 0.453,1.014 0.6472,1.553 z m -1.9093,12.224 c -0.1726,0.043 -0.3345,0.075 -0.4855,0.097 -0.151,0.022 -0.3128,0.054 -0.4854,0.097 -0.2157,-0.086 -0.4315,-0.162 -0.6472,-0.226 -0.1942,-0.065 -0.3884,-0.13 -0.5825,-0.195 -0.1511,-0.064 -0.2482,-0.107 -0.2913,-0.129 -0.0432,-0.022 -0.0755,-0.032 -0.0971,-0.032 -0.0216,0 -0.0539,0 -0.0971,0 -0.0216,0.021 -0.1078,0.032 -0.2589,0.032 l -0.3883,-0.13 c -0.151,-0.107 -0.2697,-0.237 -0.356,-0.388 -0.0863,-0.151 -0.1618,-0.302 -0.2265,-0.453 -0.0432,-0.043 -0.0755,-0.108 -0.0971,-0.194 -0.0432,-0.086 -0.0863,-0.151 -0.12949996,-0.194 l -0.3883,-0.097 -0.0647,-0.421 c -0.0863,-0.367 -0.1295,-0.68 -0.1295,-0.939 v -0.388 c 0.2374,-0.259 0.4207,-0.464 0.5502,-0.615 0.1294,-0.151 0.24809996,-0.313 0.35599996,-0.485 0.302,-0.216 0.5178,-0.335 0.6472,-0.356 0.151,-0.022 0.2913,-0.054 0.4207,-0.097 0.2805,-0.043 0.4639,-0.097 0.5502,-0.162 l 0.453,-0.453 0.2913,0.388 0.6148,-0.356 c 0.1942,0.259 0.3344,0.453 0.4207,0.583 0.0863,0.129 0.1726,0.237 0.2589,0.323 0.1079,0.087 0.2374,0.184 0.3884,0.292 0.151,0.108 0.3991,0.28 0.7443,0.517 l 0.4207,0.292 -0.2265,0.42 c -0.0647,0.087 -0.1295,0.27 -0.1942,0.551 -0.0431,0.302 -0.0863,0.56 -0.1294,0.776 -0.1079,0.367 -0.1942,0.712 -0.2589,1.036 -0.0432,0.323 -0.1511,0.582 -0.3237,0.776 z m -3.9158,17.304 c -0.0216,-0.345 -0.0108,-0.776 0.0323,-1.294 0.0432,-0.496 -0.0323,-0.96 -0.22649996,-1.392 0.0432,-1.143 0.18339996,-2.308 0.42069996,-3.495 0.2373,-1.186 0.5286,-2.276 0.8738,-3.268 0.2373,-0.216 0.453,-0.432 0.6472,-0.647 0.2158,-0.216 0.3668,-0.507 0.4531,-0.874 0.4099,-0.518 0.9061,-0.939 1.4886,-1.262 0.6041,-0.324 1.2406,-0.583 1.9094,-0.777 0.6688,-0.194 1.3484,-0.324 2.0388,-0.388 0.7119,-0.065 1.3915005,-0.087 2.0387005,-0.065 0.9709,0.324 1.8015,0.777 2.4919,1.359 0.712,0.604 1.4131,1.219 2.10352,1.845 0.12944,0.28 0.25889,0.485 0.38834,0.615 0.15102,0.151 0.28047,0.302 0.38834,0.453 0.12945,0.172 0.24811,0.334 0.35598,0.485 0.12945,0.173 0.28047,0.324 0.45306,0.453 0.10788,0.453 0.2589,0.842 0.45307,1.165 0.21574,0.345 0.43149,0.68 0.64723,1.003 0.23732,0.324 0.45307,0.658 0.64724,1.004 0.19417,0.345 0.34519,0.744 0.45307,1.197 0.19417,0.173 0.34519,0.378 0.45306,0.615 0.12945,0.237 0.24811,0.475 0.35598,0.712 0.12945,0.259 0.25889,0.496 0.38834,0.712 0.12945,0.237 0.30204,0.42 0.51779,0.55 -0.1726,0.108 -0.23732,0.259 -0.19417,0.453 0.0647,0.194 0.12945,0.378 0.19417,0.55 0.0216,0.108 0,0.194 -0.0647,0.259 -0.0647,0.086 -0.12945,0.162 -0.19418,0.227 -0.0647,0.064 -0.10787,0.118 -0.12944,0.161 0,0.065 0.0539,0.119 0.16181,0.162 0,0.108 -0.0539,0.14 -0.16181,0.097 -0.10787,-0.043 -0.18339,-0.075 -0.22653,-0.097 0.0216,0.173 -0.0216,0.313 -0.12945,0.421 -0.0863,0.129 -0.14024,0.324 -0.16181,0.582 -0.10787,0.087 -0.19417,0.108 -0.25889,0.065 -0.0431,-0.043 -0.12945,-0.065 -0.2589,-0.065 -0.19417,0.648 -0.507,1.058 -0.93849,1.23 -0.40992,0.173 -0.84141,0.184 -1.29447,0.033 -0.45307,-0.151 -0.87377,-0.421 -1.26211,-0.81 -0.38834,-0.388 -0.64724,-0.809 -0.77668,-1.262 -0.28045,-1.035 -0.59335,-2.017 -0.93845,-2.945 -0.3237,-0.906 -0.8091,-1.65 -1.4563,-2.233 -0.151,-0.517 -0.356,-0.981 -0.6149,-1.391 -0.2373,-0.388 -0.5178,-0.766 -0.8414,-1.133 -0.302,-0.345 -0.6257,-0.679 -0.9709,-1.003 -0.3236,-0.302 -0.6472005,-0.626 -0.9708005,-0.971 -0.3021,0.022 -0.5394,-0.032 -0.712,-0.162 -0.151,-0.107 -0.3128,-0.215 -0.4854,-0.323 -0.3236,0.043 -0.6149,0.118 -0.8738,0.226 -0.2373,0.108 -0.4746,0.227 -0.7119,0.356 -0.4315,1.424 -0.7012,2.934 -0.8091,4.531 -0.1078,1.618 -0.1726,3.236 -0.1941,4.854 -0.2158,0.151 -0.4207,0.324 -0.6149,0.518 -0.1726,0.216 -0.3668,0.41 -0.5825,0.582 -0.1942,0.173 -0.4207,0.313 -0.6796,0.421 -0.2373,0.108 -0.5394,0.13 -0.9061,0.065 -0.3237,-0.302 -0.6257,-0.637 -0.9062,-1.003 -0.2589,-0.367 -0.5286,-0.734 -0.809,-1.101 z m 9.7732005,23.421 c -0.2589,-0.021 -0.507,0 -0.7443,0.065 -0.2373005,0.065 -0.4746005,0.14 -0.7119005,0.227 -0.2158,0.107 -0.4423,0.204 -0.6796,0.291 -0.2374,0.086 -0.4747,0.151 -0.712,0.194 -0.302,0.043 -0.6365,0.043 -1.0032,0 -0.3452,-0.043 -0.6904,-0.119 -1.0356,-0.227 -0.3236,-0.107 -0.6257,-0.248 -0.9061,-0.42 -0.2589,-0.173 -0.4531,-0.378 -0.5825,-0.615 -0.3884,-0.302 -0.6904,-0.669 -0.9062,-1.1 -0.2157,-0.432 -0.4746,-0.831 -0.7766,-1.198 -0.1511,-0.237 -0.2589,-0.507 -0.3237,-0.809 -0.0647,-0.28 -0.1294,-0.572 -0.1941,-0.874 -0.1295,-0.237 -0.2697,-0.517 -0.4207,-0.841 -0.1295,-0.324 -0.2589,-0.658 -0.3884,-1.003 -0.1079,-0.345 -0.1942,-0.691 -0.2589,-1.036 -0.0431,-0.345 -0.0539,-0.647 -0.0323,-0.906 -0.23739996,-0.647 -0.38839996,-1.284 -0.45309996,-1.909 -0.0863,-0.604 -0.0432,-1.316 0.1294,-2.136 -0.1078,-0.777 -0.0755,-1.5 0.0971,-2.168 0.17259996,-0.648 0.44229996,-1.23 0.80909996,-1.748 0.3883,-0.496 0.8414,-0.938 1.3592,-1.327 0.5393,-0.367 1.1003,-0.669 1.6828,-0.906 1.2297,-0.173 2.3408,-0.129 3.3332,0.13 1.014,0.258 1.9417005,0.625 2.7832005,1.1 0.8629,0.496 1.6504,1.057 2.3624,1.683 0.7335,0.625 1.4455,1.229 2.13584,1.812 -0.0431,0.129 -0.0431,0.226 0,0.291 0.0647,0.086 0.14024,0.162 0.22653,0.227 0.10788,0.064 0.20496,0.129 0.29126,0.194 0.0863,0.086 0.14023,0.183 0.16181,0.291 0.32362,0.151 0.56094,0.367 0.71196,0.647 0.17259,0.302 0.40991,0.54 0.71196,0.712 0.0431,0.194 0.10787,0.356 0.19417,0.486 0.0863,0.129 0.18338,0.248 0.29125,0.356 0.10788,0.129 0.20496,0.259 0.29126,0.388 0.10787,0.129 0.18338,0.281 0.22653,0.453 h 0.35598 c 0.1726,0.388 0.36677,0.669 0.58251,0.842 0.23732,0.194 0.51779,0.42 0.84141,0.679 0.0216,0.194 0.0324,0.345 0.0324,0.453 0,0.13 0.0216,0.313 0.0647,0.55 0.30205,0.173 0.52858,0.324 0.6796,0.453 0.15102,0.151 0.31283,0.367 0.48543,0.648 -0.12945,0.259 -0.21575,0.539 -0.2589,0.841 -0.0431,0.324 -0.18338,0.604 -0.4207,0.841 -0.21574,0.022 -0.38834,0.087 -0.51779,0.195 -0.10787,0.107 -0.21574,0.226 -0.32362,0.356 -0.0863,0.129 -0.18338,0.248 -0.29125,0.356 -0.10787,0.129 -0.2589,0.215 -0.45307,0.258 -0.0216,0.087 -0.0108,0.141 0.0324,0.162 0.0431,0.043 0.0539,0.108 0.0324,0.194 -0.30205,0.065 -0.507,0.141 -0.61488,0.227 -0.0863,0.086 -0.26968,0.173 -0.55015,0.259 -0.21574,-0.108 -0.44227,-0.194 -0.67959,-0.259 -0.21575,-0.043 -0.37756,-0.173 -0.48543,-0.388 -0.15102,-0.022 -0.23732,0.021 -0.25889,0.129 0,0.108 -0.0539,0.173 -0.16181,0.194 -0.19417,0.022 -0.33441,-0.011 -0.42071,-0.097 -0.8414,0.518 -1.73672,0.982 -2.68602,1.392 -0.9277,0.41 -1.8123,0.873 -2.6537,1.391 z m -3.0743005,-4.045 c 0.2373,0.086 0.4315,0.194 0.5825,0.324 0.151,0.151 0.3775,0.237 0.6796,0.259 0.1726,-0.108 0.302,-0.173 0.3883,-0.195 0.1079,-0.021 0.2697,-0.032 0.4854,-0.032 0.6689005,-0.475 1.3808005,-0.885 2.1359005,-1.23 0.7767,-0.345 1.4994,-0.733 2.1683,-1.165 -0.0863,-0.043 -0.1726,-0.118 -0.2589,-0.226 -0.0863,-0.108 -0.0648,-0.227 0.0647,-0.356 -0.1726,-0.043 -0.3021,-0.119 -0.3884,-0.227 -0.0647,-0.108 -0.097,-0.226 -0.097,-0.356 0.0215,-0.129 0.0539,-0.269 0.097,-0.42 0.0648,-0.13 0.1403,-0.249 0.2266,-0.356 -0.4962,-0.626 -0.9817,-1.252 -1.4563,-1.877 -0.4746,-0.626 -1.0248,-1.187 -1.6505,-1.683 -0.0431,-0.087 -0.0647,-0.14 -0.0647,-0.162 0.0216,-0.022 0.0108,-0.086 -0.0323,-0.194 -0.41,-0.173 -0.7875005,-0.389 -1.1327005,-0.647 -0.3236,-0.238 -0.658,-0.475 -1.0032,-0.712 -0.3452,-0.238 -0.712,-0.443 -1.1003,-0.615 -0.3884,-0.173 -0.8414,-0.27 -1.3592,-0.292 -0.3021,0.367 -0.4854,0.799 -0.5502,1.295 -0.0647,0.496 -0.0755,1.003 -0.0323,1.521 0.0431,0.539 0.1079,1.057 0.1941,1.553 0.1079,0.518 0.1619,0.993 0.1619,1.424 0.2157,0.906 0.4962,1.683 0.8414,2.33 0.3667,0.647 0.7335,1.327 1.1003,2.039 z m -6.0517,29.408 c -0.1079,-0.216 -0.2049,-0.421 -0.2912,-0.615 -0.0863,-0.173 -0.1295,-0.378 -0.1295,-0.615 0.6257,-0.841 1.7152,-1.284 3.2685,-1.327 1.5534,-0.021 3.5275,0.313 5.9223005,1.003 0.0647,0.108 0.1941,0.162 0.3883,0.162 l 0.3236,-0.291 c 0,-0.086 -0.0108,-0.173 -0.0324,-0.259 -0.0215,-0.065 -0.097,-0.119 -0.2265,-0.162 -0.4099,-0.561 -0.8414,-1.175 -1.2945005,-1.844 -0.4314,-0.669 -0.8414,-1.37 -1.2297,-2.104 -0.3668,-0.712 -0.6688,-1.445 -0.9061,-2.2 -0.2374,-0.734 -0.356,-1.457 -0.356,-2.169 0,-1.812 0.9169,-3.171 2.7507,-4.077 l 0.4855005,-0.259 -0.4207,-0.259 c -0.086301,-0.065 -0.2697005,-0.162 -0.5502005,-0.291 -0.2589,-0.13 -0.5609,-0.259 -0.9061,-0.389 -0.3452,-0.129 -0.7012,-0.248 -1.068,-0.356 -0.3451,-0.086 -0.6472,-0.118 -0.9061,-0.097 -0.1942,-0.194 -0.4207,-0.399 -0.6796,-0.615 -0.2589,-0.215 -0.5501,-0.377 -0.8737,-0.485 -0.1726,-0.043 -0.3345,-0.022 -0.4855,0.065 -0.1941,-0.043 -0.3452,-0.14 -0.453,-0.292 -0.1079,-0.086 -0.2158,-0.183 -0.3237,-0.291 -0.0863,-0.086 -0.1833,-0.162 -0.2912,-0.226 -0.1079,-0.043 -0.2158,-0.076 -0.3236,-0.097 -0.1079,0 -0.2158,-0.011 -0.3236,-0.033 -0.1511,0 -0.2913,-0.021 -0.4208,-0.064 -0.7551,-0.367 -1.2405,-0.658 -1.45619996,-0.874 -0.2374,-0.216 -0.356,-0.507 -0.356,-0.874 0,-0.173 0.0323,-0.453 0.0971,-0.841 0.302,-0.281 0.71189996,-0.54 1.22969996,-0.777 0.5394,-0.216 1.1111,-0.388 1.7152,-0.518 0.6041,-0.108 1.2082,-0.162 1.8123,-0.162 0.6256,0.022 1.165,0.13 1.618,0.324 0.0216,0 0.2374,0.086 0.6473,0.259 0.4099,0.172 0.9385,0.388 1.5857,0.647 0.6472,0.281 1.3592005,0.593 2.1359005,0.939 0.7982,0.345 1.5641,0.69 2.2977,1.035 0.7551,0.345 1.44546,0.669 2.07112,0.971 0.62566,0.324 1.1003,0.593 1.42392,0.809 0.25889,0.173 0.49621,0.324 0.71196,0.453 0.23732,0.151 0.46385,0.291 0.6796,0.421 0.66881,0.388 1.21896,0.755 1.65045,1.1 0.45306,0.367 0.80904,0.895 1.06793,1.586 -0.19417,0.474 -0.4207,0.82 -0.67959,1.035 l -0.35598,0.065 c -0.21575,0.086 -0.32362,0.216 -0.32362,0.388 -0.0647,0.238 -0.12945,0.432 -0.19417,0.583 -0.0431,0.173 -0.0863,0.356 -0.12945,0.55 -0.17259,0.151 -0.37755,0.291 -0.61487,0.421 -0.2589,0.172 -0.51779,0.334 -0.77668,0.485 -0.23732,0.173 -0.48543,0.302 -0.74433,0.389 -0.23731,0.107 -0.48542,0.161 -0.74432,0.161 -0.25889,0.022 -0.52857,-0.021 -0.80904,-0.129 l -0.32362,0.032 c -0.19417,0.108 -0.46385,0.13 -0.80901,0.065 -0.1511,-0.022 -0.3129,-0.032 -0.4855,-0.032 -0.151,0 -0.3236,0.021 -0.5177,0.064 -0.3021,0.389 -0.4531,0.734 -0.4531,1.036 0,0.345 0.0755,0.658 0.2265,0.938 0.1726,0.303 0.3452,0.583 0.5178,0.842 0.1295,0.172 0.2373,0.345 0.3236,0.518 0.1079,0.172 0.1726,0.345 0.1942,0.517 0.3668,0.389 0.69038,0.734 0.97085,1.036 0.28047,0.324 0.56094,0.658 0.84141,1.003 0.51778,0.647 1.07872,1.273 1.68281,1.877 0.60408,0.604 1.35919,1.09 2.26532,1.457 0.12945,0.215 0.19417,0.442 0.19417,0.679 0,0.237 -0.0539,0.486 -0.16181,0.744 -0.10787,0.259 -0.21574,0.507 -0.32361,0.745 -0.0431,0.064 -0.0755,0.118 -0.0971,0.162 -0.0216,0.064 -0.0431,0.118 -0.0647,0.161 -0.21575,0 -0.39913,0.087 -0.55015,0.259 -0.0647,0.087 -0.10787,0.14 -0.12945,0.162 -0.0216,0.022 -0.0431,0.054 -0.0647,0.097 -0.1726,0.324 -0.3452,0.529 -0.51779,0.615 -0.49622,0.151 -0.87377,0.421 -1.13266,0.809 -0.21575,-0.043 -0.42071,-0.043 -0.61488,0 -0.17259,0.065 -0.35598,0.14 -0.55015,0.227 -0.0647,0.021 -0.12944,0.043 -0.19417,0.064 -0.0647,0.022 -0.14023,0.054 -0.22653,0.097 l 0.0647,-0.614 -0.61487,0.097 c -0.30208,0.043 -0.63648,0.01 -1.00318,-0.097 -0.3668,-0.087 -0.6581,-0.195 -0.8738,-0.324 -0.5609,0.021 -1.0032,0.032 -1.3268,0.032 -0.3021,0.022 -0.5933,0.011 -0.8738,-0.032 -0.2589,-0.043 -0.507,-0.108 -0.7443,-0.194 -0.2373,-0.065 -0.4962,-0.162 -0.7767005,-0.292 -1.3808,0.087 -2.6429,-0.075 -3.7863,-0.485 -1.1219,-0.388 -2.1791,-0.798 -3.1715,-1.23 -0.1079,-0.043 -0.2157,-0.097 -0.3236,-0.161 -0.1079,-0.044 -0.2158,-0.087 -0.3236,-0.13 -0.0647,-0.194 -0.1403,-0.367 -0.2266,-0.518 -0.0647,-0.151 -0.1402,-0.313 -0.2265,-0.485 z m 17.5724505,14.974 c 0.28047,0.389 0.73354,0.809 1.3592,1.262 0.64723,0.453 1.28368,0.928 1.90934,1.424 0.62566,0.518 1.16503,1.036 1.61809,1.554 0.47464,0.539 0.6796,1.078 0.61488,1.618 -0.77669,0.345 -1.55337,0.528 -2.33005,0.55 -0.75511,0.021 -1.61809,-0.054 -2.58894,-0.227 -0.23732,-0.194 -0.56094,-0.474 -0.97086,-0.841 -0.40991,-0.367 -0.87377,-0.777 -1.39155,-1.23 -0.49622,-0.431 -1.01401,-0.884 -1.55337,-1.359 -0.53936,-0.475 -1.05719,-0.928 -1.55339,-1.359 -0.4962,-0.41 -0.9493,-0.777 -1.3592,-1.1 -0.4099,-0.303 -0.7335,-0.507 -0.9708,-0.615 -0.3236,-0.302 -0.7767,-0.712 -1.3592,-1.23 -0.5825,-0.496 -1.1974005,-1.014 -1.8446005,-1.553 -0.6473,-0.54 -1.2837,-1.068 -1.9094,-1.586 -0.6041,-0.496 -1.1111,-0.906 -1.521,-1.23 -0.1079,-0.021 -0.2049,0.011 -0.2912,0.097 -0.0863,0.086 -0.1834,0.151 -0.2913,0.194 -0.2157,-0.237 -0.4207,-0.377 -0.6149,-0.42 -0.1726,-0.044 -0.3559,-0.054 -0.5501,-0.033 -0.1942,0.022 -0.3884,0.054 -0.5825,0.097 -0.1726,0.044 -0.3668,0.054 -0.5825,0.033 -0.1295,-0.151 -0.2805,-0.281 -0.4531,-0.389 -0.1726,-0.086 -0.3452,-0.183 -0.5178,-0.291 -0.151,-0.086 -0.302,-0.205 -0.4531,-0.356 -0.15099996,-0.129 -0.28039996,-0.302 -0.38829996,-0.518 0.0431,-0.453 0.1079,-0.819 0.1942,-1.1 0.0647,-0.28 0.12939996,-0.615 0.19409996,-1.003 0.3021,-0.367 0.6688,-0.615 1.1003,-0.744 0.4531,-0.13 0.9062,-0.184 1.3592,-0.162 0.4747,0 0.9385,0.054 1.3916,0.162 0.4746,0.086 0.8845,0.183 1.2297,0.291 0.1511,0.237 0.2589,0.248 0.3237,0.032 0.302,0.086 0.5501,0.237 0.7443,0.453 0.2157,0.216 0.3991,0.324 0.5501,0.324 0.2373,0.151 0.5933,0.442 1.068,0.874 0.4962,0.431 1.0248,0.895 1.5857005,1.391 0.5609,0.518 1.1003,1.014 1.6181,1.489 0.5393,0.474 0.96,0.841 1.2621,1.1 0.3452,0.13 0.7875,0.421 1.3268,0.874 0.56096,0.474 1.13268,0.96 1.71519,1.456 0.58252,0.518 1.13267,0.982 1.65045,1.392 0.51779,0.431 0.9385,0.658 1.26211,0.679 z m -3.59215,5.428 c 0.45306,0.151 0.8414,0.388 1.16502,0.712 0.32362,0.345 0.5933,0.712 0.80905,1.1 0.23732,0.41 0.43149,0.831 0.58251,1.262 0.15102,0.432 0.28047,0.842 0.38834,1.23 0.36677,0.863 0.71196,1.78 1.03558,2.751 0.34519,0.992 0.64723,1.995 0.90612,3.009 0.2589,1.036 0.42071,2.093 0.48543,3.172 0.0863,1.079 -0.0431,2.211 -0.38834,3.398 -0.21574,0.065 -0.4207,0.162 -0.61487,0.291 -0.19417,0.13 -0.38834,0.259 -0.58252,0.389 -0.19417,0.151 -0.38834,0.28 -0.58251,0.388 -0.17259,0.108 -0.35598,0.172 -0.55015,0.194 -0.19417,0.216 -0.40991,0.388 -0.64723,0.518 -0.21575,0.129 -0.507,0.151 -0.87377,0.065 -0.1726,-0.216 -0.33441,-0.432 -0.48543,-0.648 -0.12944,-0.194 -0.2481,-0.41 -0.35598,-0.647 0.19417,-0.798 0.2589,-1.607 0.19417,-2.427 -0.0647,-0.82 -0.11866,-1.553 -0.1618,-2.201 0.19417,-0.194 0.29125,-0.431 0.29125,-0.712 0,-0.258 -0.0431,-0.539 -0.12945,-0.841 -0.0863,-0.28 -0.17259,-0.572 -0.25889,-0.874 -0.0863,-0.28 -0.10787,-0.55 -0.0647,-0.809 -0.1726,-0.216 -0.29126,-0.485 -0.35598,-0.809 -0.0432,-0.302 -0.0863,-0.636 -0.12945,-1.003 -0.10787,-0.022 -0.18338,0 -0.22653,0.065 -0.0215,0.064 -0.0864,0.075 -0.19415,0.032 -0.151,0.129 -0.2589,0.291 -0.3236,0.485 -0.0648,0.216 -0.1295,0.432 -0.1942,0.648 -0.0647,0.237 -0.151,0.442 -0.2589,0.615 -0.0863,0.172 -0.2373,0.291 -0.4531,0.356 0,0.323 -0.0755,0.604 -0.2265,0.841 -0.151,0.237 -0.3344,0.431 -0.5502,0.582 -0.2157,0.151 -0.453,0.259 -0.7119,0.324 -0.2373,0.086 -0.4531,0.13 -0.6472,0.13 -0.1726,0.064 -0.2482,0.14 -0.2266,0.226 0.0216,0.086 -0.0216,0.183 -0.1294,0.291 -0.2805,0.065 -0.5718,0.227 -0.8738,0.486 -0.2805,0.259 -0.5933005,0.464 -0.9385005,0.615 -0.5393,0.043 -1.0248,0.075 -1.4563,0.097 -0.4099,0.021 -0.8306,-0.054 -1.2621,-0.227 -0.7982,-0.323 -1.5102,-0.777 -2.1359,-1.359 -0.6256,-0.561 -1.1866,-1.208 -1.6828,-1.942 -0.4746,-0.712 -0.8845,-1.478 -1.2297,-2.297 -0.3452,-0.82 -0.6365,-1.619 -0.87379996,-2.395 0.0216,-0.087 0.0216,-0.173 0,-0.259 -0.0216,-0.086 0.0324,-0.108 0.1618,-0.065 -0.151,-0.172 -0.2481,-0.367 -0.2912,-0.582 -0.0432,-0.195 -0.054,-0.41 -0.0324,-0.648 0,-0.237 0.0108,-0.485 0.0324,-0.744 0.0215,-0.237 0.0108,-0.464 -0.0324,-0.679 0.151,-0.152 0.3021,-0.292 0.45309996,-0.421 0.1294,-0.108 0.302,-0.194 0.5178,-0.259 0,-0.108 0.0539,-0.162 0.1618,-0.162 0.1078,0.022 0.1618,-0.011 0.1618,-0.097 0.2157,0.129 0.3344,0.183 0.356,0.162 0.0431,0 0.0755,-0.033 0.097,-0.097 0.0216,-0.043 0.0432,-0.087 0.0648,-0.13 0.0431,-0.043 0.0971,-0.054 0.1618,-0.032 0.1726,0.086 0.3667,0.119 0.5825,0.097 0.2373,-0.022 0.4746,-0.043 0.712,-0.065 0.2373,-0.021 0.4638,-0.01 0.6795,0.033 0.2158,0.064 0.3884,0.226 0.5178,0.485 -0.0863,0.734 -0.0647,1.424 0.0648,2.071 0.151,0.669 0.3559,1.295 0.6148,1.877 0.2589,0.583 0.5394,1.133 0.8414,1.651 0.3021,0.539 0.5718,1.068 0.8091,1.585 0.1942,0.065 0.356,0.151 0.4854,0.259 0.1295,0.13 0.2481,0.259 0.356,0.389 0.1079,0.129 0.2265,0.248 0.356,0.356 0.1294,0.107 0.2912,0.183 0.4854,0.226 0.151,0.022 0.2373,-0.021 0.2589,-0.129 0.0431,-0.087 0.1294,-0.13 0.2589,-0.13 l 0.0971,-0.356 c 0.2373,-0.41 0.4315005,-0.874 0.5825005,-1.391 0.1726,-0.518 0.356,-0.96 0.5501,-1.327 -0.1294,-0.237 -0.1618,-0.464 -0.0971,-0.68 0.0648,-0.194 0.1295,-0.453 0.1942,-0.776 0.0432,-0.734 0.1187,-1.446 0.2265,-2.136 0.1079,-0.669 0.3021,-1.316 0.5826,-1.942 0.1078,-0.043 0.2049,-0.097 0.2912,-0.162 0.0863,-0.065 0.1079,-0.183 0.0647,-0.356 0.1726,-0.129 0.3344,-0.259 0.4855,-0.388 0.1726,-0.13 0.3559,-0.248 0.5501,-0.356 0.2589,0.043 0.4747,0.075 0.6473,0.097 0.1941,0.022 0.3775,-0.043 0.5501,-0.194 0.2805,0.086 0.507,0.151 0.6796,0.194 0.1726,0.043 0.39913,0.043 0.6796,0 z m 1.00321,34.262 c 0,-0.539 -0.0431,-1.122 -0.12944,-1.747 -0.0647,-0.626 -0.14024,-1.241 -0.22654,-1.845 -0.0647,-0.432 -0.11866,-0.852 -0.16181,-1.262 -0.0431,-0.389 -0.0755,-0.745 -0.0971,-1.068 -0.47464,-0.151 -0.89534,-0.302 -1.26214,-0.453 -0.3667,-0.151 -0.7227,-0.313 -1.0679,-0.486 -0.3668,-0.172 -0.7443,-0.334 -1.1327,-0.485 -0.3667,-0.13 -0.7659,-0.259 -1.1974,-0.388 -0.3451,-0.216 -0.6688,-0.4 -0.9708,-0.551 -0.2805,-0.129 -0.6041005,-0.237 -0.9709005,-0.323 -0.3236,-0.259 -0.6688,-0.453 -1.0355,-0.583 -0.3452,-0.129 -0.6473,-0.226 -0.9062,-0.291 l -0.3883,-0.129 c -0.1295,-0.13 -0.2373,-0.205 -0.3236,-0.227 -0.0648,-0.022 -0.1295,-0.075 -0.1942,-0.162 -0.2373,-0.021 -0.4746,-0.097 -0.712,-0.226 -0.1078,-0.043 -0.2157,-0.076 -0.3236,-0.097 -0.0863,-0.022 -0.151,-0.033 -0.1941,-0.033 -0.2158,0 -0.356,-0.054 -0.4207,-0.162 -0.1079,0.022 -0.2266,0.022 -0.356,0 -0.1079,-0.021 -0.2158,-0.043 -0.3236,-0.064 -0.2589,-0.065 -0.4639,-0.087 -0.6149,-0.065 -0.0863,0.065 -0.1618,0.119 -0.2266,0.162 -0.0647,0.065 -0.151,0.108 -0.2588,0.129 -0.0863,0.13 -0.1403,0.227 -0.1619,0.292 -0.0647,0.086 -0.1402,0.215 -0.2265,0.388 l -0.3236,0.291 c -0.6257,0.108 -1.1219,0.011 -1.4886,-0.291 -0.40999996,-0.324 -0.61489996,-0.874 -0.61489996,-1.651 v -0.388 c 0.1079,-0.108 0.1941,-0.173 0.2589,-0.194 0.0647,-0.173 0.1186,-0.313 0.1618,-0.421 0.0431,-0.108 0.1294,-0.205 0.25889996,-0.291 0.1294,-0.281 0.2373,-0.507 0.3236,-0.68 l 0.1618,-0.291 c 0.2373,0 0.3668,0 0.3883,0 0.1942,-0.151 0.41,-0.27 0.6473,-0.356 0.2373,-0.065 0.4746,-0.119 0.7119,-0.162 0.1942,-0.043 0.3776,-0.097 0.5502,-0.161 0.1726,-0.044 0.3236,-0.108 0.4531,-0.195 1.2513,-0.043 2.3084,0.076 3.1714,0.356 0.863,0.281 1.6936,0.572 2.4919005,0.874 0.4315,0.173 0.8629,0.345 1.2944,0.518 0.4531,0.172 0.917,0.323 1.3916,0.453 l 0.3236,0.291 c 0.3452,0.151 0.6257,0.27 0.8414,0.356 0.2373,0.108 0.4747,0.216 0.712,0.324 0.151,0.065 0.2912,0.118 0.4207,0.162 0.151,0.064 0.28045,0.118 0.38832,0.161 0,-0.129 -0.0108,-0.248 -0.0324,-0.356 0,-0.107 -0.0108,-0.215 -0.0324,-0.323 -0.0216,-0.13 -0.0431,-0.248 -0.0647,-0.356 0,-0.108 0,-0.216 0,-0.324 0,-0.151 0.0108,-0.259 0.0324,-0.323 -0.10787,-0.238 -0.16183,-0.497 -0.16183,-0.777 v -0.324 c 0,-0.064 0,-0.129 0,-0.194 0.0216,-0.043 0.0324,-0.086 0.0324,-0.129 0,-0.216 -0.0324,-0.389 -0.0971,-0.518 0,-0.259 0,-0.507 0,-0.744 v -0.324 c 0,-0.043 -0.0108,-0.097 -0.0324,-0.162 0,-0.065 0,-0.119 0,-0.162 0,-0.151 0.0108,-0.312 0.0324,-0.485 0.0431,-0.173 0.11866,-0.356 0.22653,-0.55 0.34519,-0.259 0.52858,-0.432 0.55015,-0.518 l 0.38834,-0.291 c 0.12945,-0.022 0.24811,-0.054 0.35598,-0.097 0.12945,-0.044 0.26968,-0.087 0.42071,-0.13 0.21574,-0.086 0.44227,-0.172 0.67959,-0.259 0.2589,-0.064 0.56094,-0.097 0.90613,-0.097 0.1726,0.022 0.30205,0.065 0.38834,0.13 0.0863,0.064 0.16181,0.118 0.22654,0.161 l 0.48542,0.098 -0.0324,0.42 v 0.906 c 0,0.691 0.0216,1.392 0.0647,2.104 0.0647,0.712 0.12944,1.445 0.19417,2.2 0.0431,0.432 0.0863,0.863 0.12944,1.295 0.0431,0.453 0.0863,0.917 0.12945,1.392 0.19417,0.086 0.37755,0.172 0.55015,0.258 l 0.16181,0.324 c 0.0216,0.388 -0.0324,0.658 -0.16181,0.809 -0.10787,0.173 -0.21574,0.313 -0.32362,0.421 0.0431,0.474 0.0863,0.949 0.12945,1.424 0.0647,0.496 0.14023,0.992 0.22653,1.488 0.10787,0.734 0.20496,1.467 0.29126,2.201 0.0863,0.755 0.12945,1.478 0.12945,2.168 0,0.302 -0.0108,0.593 -0.0324,0.874 -0.0216,0.28 -0.0539,0.539 -0.0971,0.777 l -0.22653,0.323 c -0.12945,0.065 -0.24811,0.151 -0.35598,0.259 -0.10788,0.13 -0.21575,0.259 -0.32362,0.388 -0.23732,0.259 -0.51779,0.518 -0.84141,0.777 -0.32362,0.259 -0.79825,0.356 -1.42392,0.291 -0.25889,-0.172 -0.40991,-0.302 -0.45306,-0.388 l -0.38834,-0.291 0.0324,-0.324 c 0,-0.129 -0.0216,-0.248 -0.0647,-0.356 -0.0216,-0.108 -0.0539,-0.216 -0.0971,-0.323 -0.0431,-0.087 -0.0863,-0.173 -0.12945,-0.259 -0.0216,-0.087 -0.0431,-0.184 -0.0647,-0.292 0,-0.194 0,-0.356 0,-0.485 0.0216,-0.108 0.0324,-0.227 0.0324,-0.356 z m -12.8476105,13.939 c -0.3668,-0.13 -0.7443,-0.324 -1.1327,-0.583 -0.3667,-0.237 -0.7011,-0.528 -1.0032,-0.873 -0.2805,-0.324 -0.5178,-0.691 -0.7119,-1.101 -0.19419996,-0.41 -0.30209996,-0.841 -0.32369996,-1.294 0.0648,-0.281 0.1403,-0.475 0.2266,-0.583 0.0647,-0.086 0.12939996,-0.183 0.19409996,-0.291 0.0432,-0.065 0.0755,-0.129 0.0971,-0.194 0.0432,-0.043 0.0755,-0.086 0.0971,-0.13 l 0.1618,-0.388 0.4207,0.13 c 0.1726,0.043 0.3021,0.032 0.3884,-0.033 0.1078,-0.065 0.2481,-0.194 0.4207,-0.388 0.0647,-0.065 0.1294,-0.13 0.1941,-0.194 0.0648,-0.065 0.1295,-0.119 0.1942,-0.162 l 0.6149,-0.55 0.2265,0.874 c 0.151,0.539 0.3452,0.895 0.5825,1.067 0.2373,0.195 0.6365,0.27 1.1974,0.227 0.0863,-0.432 0.0971,-0.798 0.0324,-1.1 -0.0648,-0.281 -0.1403,-0.572 -0.2266,-0.874 -0.1078,-0.388 -0.2049,-0.788 -0.2912,-1.197 -0.0647,-0.389 -0.0971,-0.82 -0.0971,-1.295 0,-0.173 0,-0.334 0,-0.485 0.0216,-0.151 0.0431,-0.313 0.0647,-0.486 l 0.0647,-0.323 c 0.2374,-0.044 0.3668,-0.087 0.3884,-0.13 0.0431,-0.043 0.0863,-0.086 0.1294,-0.129 0.1079,-0.108 0.2481,-0.227 0.4207,-0.356 0.1942,-0.108 0.4315,-0.13 0.712,-0.065 0.1942,-0.108 0.3883,-0.173 0.5825,-0.194 -0.2589,-0.13 -0.5286,-0.227 -0.809,-0.291 l -0.3237,-0.13 -0.0647,-0.323 c -0.0216,-0.044 -0.0755,-0.076 -0.1618,-0.098 -0.0647,-0.021 -0.1186,-0.032 -0.1618,-0.032 l -0.5501,-0.162 c -0.0432,-0.043 -0.0863,-0.086 -0.1295,-0.129 -0.0216,-0.043 -0.0539,-0.086 -0.0971,-0.13 -0.1941,-0.043 -0.3883,-0.097 -0.5825,-0.161 -0.1942,-0.065 -0.3775,-0.13 -0.5501,-0.195 -0.2805,-0.107 -0.561,-0.205 -0.8414,-0.291 -0.2589,-0.065 -0.5178,-0.086 -0.7767,-0.065 l -0.356,-0.129 c -0.1295,-0.108 -0.2373,-0.227 -0.3236,-0.356 -0.0647,-0.129 -0.1295,-0.259 -0.1942,-0.388 -0.0431,-0.044 -0.0863,-0.108 -0.1294,-0.195 -0.0216,-0.064 -0.0432,-0.118 -0.0648,-0.161 l -0.3559,-0.097 -0.0648,-0.389 c -0.0431,-0.237 -0.0755,-0.41 -0.0971,-0.518 -0.0215,-0.086 -0.0323,-0.194 -0.0323,-0.323 l 0.0323,-0.324 c 0.19419996,-0.237 0.34519996,-0.421 0.45309996,-0.55 0.1295,-0.129 0.2481,-0.28 0.356,-0.453 0.2589,-0.194 0.4531,-0.302 0.5825,-0.324 0.1294,-0.021 0.2481,-0.043 0.356,-0.064 0.1294,-0.044 0.2373,-0.065 0.3236,-0.065 0.0863,-0.022 0.151,-0.054 0.1942,-0.097 l 0.3883,-0.421 0.2913,0.356 0.5501,0.032 c 1.1003,0.432 2.1575,0.885 3.1715,1.36 1.014,0.496 2.0495,1.003 3.1067005,1.521 0.3452,0.172 0.6904,0.334 1.0356,0.485 0.3452,0.173 0.6904,0.345 1.0356,0.518 0.0647,-0.022 0.1402,-0.032 0.2265,-0.032 0.0863,0 0.1834,0.021 0.2912,0.064 0.3668,0.238 0.6904,0.432 0.9709,0.583 0.302,0.151 0.6041,0.302 0.9061,0.453 0.36679,0.172 0.72277,0.345 1.06796,0.518 0.34519,0.194 0.70117,0.431 1.06794,0.712 l 0.22653,0.517 c 0.0216,0.065 0.0431,0.141 0.0647,0.227 0.0431,0.086 0.0647,0.183 0.0647,0.291 l -0.0647,0.486 c 0.28047,0.604 0.66881,1.132 1.16502,1.585 0.51779,0.453 1.13266,0.917 1.84462,1.392 l 0.45307,0.323 -0.2589,0.421 c -0.0647,0.108 -0.12945,0.259 -0.19417,0.453 -0.0431,0.194 -0.0971,0.399 -0.16181,0.615 -0.0863,0.388 -0.18338,0.755 -0.29125,1.1 -0.10788,0.346 -0.26968,0.626 -0.48543,0.842 -0.34519,0.129 -0.60409,0.205 -0.77668,0.226 -0.1726,0.022 -0.34519,0.054 -0.51779,0.097 -0.36677,0.065 -0.73353,0.119 -1.1003,0.162 -0.36677,0.065 -0.77668,0.108 -1.22975,0.13 -0.36677,0.108 -0.73353,0.194 -1.10029,0.259 -0.3452,0.086 -0.7012,0.161 -1.0679,0.226 -0.5178,0.108 -1.0248,0.216 -1.5211,0.324 -0.4746,0.108 -0.9277,0.248 -1.3591,0.42 0,0.173 -0.0108,0.281 -0.0324,0.324 0.0431,0.108 0.0755,0.216 0.0971,0.324 0.0216,0.129 0.0431,0.269 0.0647,0.42 l 0.0324,0.356 -0.3237,0.13 c -0.1078,0.021 -0.2157,0.129 -0.3236,0.323 -0.0215,0.281 -0.0863,0.486 -0.1941,0.615 -0.0863,0.13 -0.1834,0.248 -0.2913005,0.356 -0.0863,0.087 -0.151,0.173 -0.1942,0.259 l -0.1941,0.486 -0.4855,-0.259 c -0.3883,-0.216 -0.7659,-0.529 -1.1326,-0.939 -0.3452,-0.388 -0.6365,-0.83 -0.8738,-1.327 -0.1294,0.022 -0.2589,0.033 -0.3883,0.033 -0.1079,0.021 -0.2266,0.054 -0.356,0.097 -0.3668,0.065 -0.7443,0.118 -1.1327,0.162 -0.3883,0.043 -0.7874,0.043 -1.1974,0 z m 5.5986,-9.353 c 0.0431,0.648 0.0863,1.23 0.1294,1.748 0.0647,0.539 0.1618,1.133 0.2913,1.78 0.6472005,-0.151 1.3160005,-0.313 2.0064005,-0.486 0.712,-0.172 1.4131,-0.356 2.1035,-0.55 l -0.3236,-0.194 c -0.4531,-0.431 -0.9601,-0.852 -1.521,-1.262 -0.5609,-0.388 -1.0895,-0.723 -1.5857,-1.003 -0.1942,-0.13 -0.3884,-0.259 -0.5825,-0.389 -0.1942005,-0.129 -0.3884005,-0.248 -0.5825005,-0.356 0.0215,0.13 0.0323,0.249 0.0323,0.356 0,0.13 0.0108,0.248 0.0324,0.356 z m -4.9514,17.693 c -0.863,-0.237 -1.521,-0.453 -1.974,-0.647 -0.4315,-0.173 -0.8846,-0.442 -1.3592,-0.809 0.0431,-0.281 0.0107,-0.475 -0.0971,-0.583 -0.1079,-0.107 -0.20499996,-0.226 -0.29129996,-0.356 -0.0431,-0.194 -0.0431,-0.334 0,-0.42 0.0432,-0.087 0.0971,-0.162 0.1618,-0.227 0.0432,-0.065 0.0971,-0.151 0.16179996,-0.259 0.0432,-0.086 0.0648,-0.226 0.0648,-0.42 0.1726,-0.044 0.3344,-0.098 0.4854,-0.162 0.151,-0.043 0.2049,-0.184 0.1618,-0.421 0.1726,0.043 0.3128,0.054 0.4207,0.032 0.1294,-0.021 0.2373,-0.054 0.3236,-0.097 0.1079,-0.021 0.205,-0.043 0.2913,-0.064 0.1078,-0.022 0.2373,-0.011 0.3883,0.032 0,-0.108 0.0755,-0.194 0.2265,-0.259 0.1511,-0.065 0.3021,-0.14 0.4531,-0.226 0.3884,0.064 0.7551,0.129 1.1003,0.194 0.3452,0.064 0.6688,0.14 0.9709,0.226 0.302,0.108 0.6041,0.194 0.9061,0.259 0.302,0.065 0.6149,0.033 0.9385,-0.097 -0.0647,0.086 -0.0539,0.151 0.0323,0.194 0.1079,0.043 0.2374,0.076 0.3884,0.097 0.1726,0.022 0.3344,0.033 0.4854,0.033 0.1726,0 0.3128,-0.011 0.4207,-0.033 0.561,0.216 1.1327005,0.389 1.7152005,0.518 0.6041,0.151 1.1974,0.281 1.7799,0.388 0.5825,0.13 1.1542,0.259 1.7152,0.389 0.5609,0.129 1.07869,0.302 1.55333,0.518 0.0431,0.237 0.0108,0.496 -0.0971,0.776 -0.0863,0.302 -0.20495,0.486 -0.35598,0.55 0.4315,0.561 0.94928,1.058 1.55337,1.489 0.62566,0.432 1.22975,0.874 1.81226,1.327 0.58251,0.453 1.1003,0.949 1.55336,1.489 0.45307,0.56 0.72275,1.262 0.80905,2.103 -0.32362,0.432 -0.65802,0.906 -1.00322,1.424 -0.32361,0.539 -0.7551,0.982 -1.29447,1.327 -0.0863,0.172 -0.18338,0.313 -0.29125,0.421 -0.0863,0.129 -0.18339,0.28 -0.29126,0.453 h -0.38834 c -0.23732,0.258 -0.51779,0.463 -0.84141,0.614 -0.30204,0.173 -0.63644,0.324 -1.00321,0.454 -0.34519,0.129 -0.70117,0.258 -1.06794,0.388 -0.3452,0.129 -0.6796,0.28 -1.0032,0.453 -0.1079,-0.043 -0.205,-0.065 -0.2913,-0.065 -0.0647,0 -0.1402,0.011 -0.2265,0.033 -0.0863,0.043 -0.1726,0.075 -0.2589,0.097 -0.0863,0.021 -0.205,0.021 -0.356,0 -0.9493,-0.065 -1.7152,-0.378 -2.2977,-0.939 -0.5825,-0.539 -1.0679005,-1.197 -1.4562005,-1.974 -0.3668,-0.777 -0.6796,-1.607 -0.9385,-2.492 -0.2589,-0.884 -0.5394,-1.683 -0.8414,-2.395 -0.0863,0 -0.1295,0.033 -0.1295,0.098 0,0.086 -0.0539,0.118 -0.1618,0.097 -0.3236,0.517 -0.5825,0.927 -0.7767,1.229 -0.1941,0.302 -0.356,0.583 -0.4854,0.842 -0.1295,0.28 -0.2481,0.571 -0.356,0.874 -0.0863,0.323 -0.1942,0.765 -0.3236,1.326 -0.1294,0.561 -0.2373,0.993 -0.3236,1.295 -0.0647,0.323 -0.1295,0.615 -0.1942,0.874 -0.0431,0.259 -0.0863,0.517 -0.1294,0.776 -0.0216,0.281 -0.054,0.669 -0.0971,1.165 -0.1942,0.194 -0.4315,0.356 -0.712,0.486 -0.2589,0.151 -0.5286,0.248 -0.809,0.291 -0.2589,0.043 -0.5178,0.054 -0.7767,0.032 -0.2373,-0.021 -0.4315,-0.097 -0.5825,-0.226 -0.0647,0.021 -0.0971,0.065 -0.0971,0.129 0.0216,0.087 0.0216,0.173 0,0.259 -0.0863,-0.129 -0.1942,-0.237 -0.3236,-0.323 -0.12949996,-0.087 -0.25889996,-0.173 -0.38839996,-0.259 -0.1294,-0.087 -0.2373,-0.184 -0.3236,-0.292 -0.1079,-0.107 -0.1726,-0.258 -0.1942,-0.453 -0.2588,-0.668 -0.2696,-1.51 -0.0323,-2.524 0.2157,-1.014 0.6256,-2.298 1.22969996,-3.851 0.3021,-0.777 0.561,-1.413 0.7767,-1.909 0.2373,-0.475 0.4639,-0.896 0.6796,-1.262 0.2373,-0.346 0.4854,-0.669 0.7443,-0.971 0.2589,-0.281 0.5718,-0.626 0.9385,-1.036 z m 11.1001105,4.628 c -0.34519,-0.237 -0.65801,-0.507 -0.93851,-0.809 -0.2804,-0.281 -0.5717,-0.561 -0.8737,-0.842 -0.2805,-0.258 -0.6041,-0.496 -0.9709,-0.711 -0.3452,-0.216 -0.7551,-0.367 -1.2297,-0.454 0.0863,0.756 0.2912,1.543 0.6148,2.363 0.3452,0.82 0.6688,1.596 0.9709,2.33 0.6688,-0.086 1.2082,-0.324 1.6181,-0.712 0.40988,-0.367 0.67956,-0.755 0.80901,-1.165 z m -8.6406105,32.029 c -0.9277,-0.518 -1.6504,-1.197 -2.1682,-2.039 -0.4962,-0.841 -0.9169,-1.769 -1.2621,-2.783 -0.3236,-1.014 -0.6149,-2.082 -0.8738,-3.204 -0.2589,-1.1 -0.5933,-2.168 -1.0032,-3.204 0,-0.302 -0.0108,-0.571 -0.0324,-0.809 -0.0215,-0.215 -0.0539,-0.431 -0.0971,-0.647 -0.0215,-0.194 -0.0539,-0.388 -0.097,-0.582 -0.0216,-0.194 -0.0432,-0.41 -0.0648,-0.648 0.0216,-0.086 0,-0.14 -0.0647,-0.161 -0.0431,-0.022 -0.0863,-0.054 -0.1294,-0.097 -0.0648,-0.367 -0.0971,-0.702 -0.0971,-1.004 0,-0.28 0,-0.517 0,-0.712 0,-0.259 -0.0324,-0.528 -0.0971,-0.809 -0.0863,-0.259 -0.11869996,-0.496 -0.0971,-0.712 0.0863,-1.618 0.65799996,-2.891 1.71519996,-3.818 1.0787,-0.906 2.5673,-1.413 4.4659,-1.521 0.1079,0.021 0.1726,0 0.1942,-0.065 0.0215,-0.043 0.0539,-0.086 0.0971,-0.129 0.2157,0 0.3991,0.021 0.5501,0.064 0.151,0.065 0.3452,0.076 0.5825,0.033 1.1866,0.561 2.2869005,1.197 3.3009005,1.909 1.0356,0.712 1.9417,1.564 2.7184,2.557 0.1295,0.151 0.2589,0.28 0.3884,0.388 0.1294,0.108 0.25885,0.205 0.38829,0.291 0.12945,0.108 0.23732,0.227 0.32362,0.356 0.10787,0.13 0.18339,0.291 0.22653,0.486 0.51779,0.453 0.99243,0.992 1.42392,1.618 0.43149,0.625 0.84141,1.283 1.22975,1.974 0.40992,0.69 0.80904,1.37 1.19739,2.038 0.40991,0.691 0.86298,1.317 1.35919,1.877 -0.10787,0.238 -0.14023,0.41 -0.0971,0.518 0.0431,0.108 0.0431,0.227 0,0.356 -0.32361,0.151 -0.55015,0.356 -0.67959,0.615 -0.12945,0.281 -0.26968,0.55 -0.42071,0.809 -0.12944,0.281 -0.29125,0.54 -0.48542,0.777 -0.19417,0.237 -0.45307,0.421 -0.77668,0.55 0,-0.129 -0.0539,-0.194 -0.16181,-0.194 -0.0863,0.021 -0.18339,0.054 -0.29126,0.097 -0.0863,0.043 -0.18338,0.054 -0.29126,0.032 -0.0863,0 -0.12944,-0.075 -0.12944,-0.226 -0.10788,0.021 -0.1726,0.086 -0.19417,0.194 0,0.129 -0.0539,0.194 -0.16181,0.194 -0.10787,0 -0.19417,-0.032 -0.2589,-0.097 -0.0647,-0.043 -0.17259,-0.043 -0.32361,0 -0.28047,-0.432 -0.55015,-0.917 -0.80905,-1.456 -0.25889,-0.518 -0.53936,-1.068 -0.84139,-1.651 -0.2805,-0.561 -0.5933,-1.154 -0.9385,-1.78 -0.3236,-0.604 -0.7012,-1.197 -1.1327,-1.78 -0.4315,-0.582 -0.9169,-1.175 -1.4562,-1.779 -0.5178,-0.605 -1.068,-1.187 -1.6505005,-1.748 -0.5825,-0.561 -1.1866,-1.089 -1.8123,-1.586 -0.604,-0.496 -1.2081,-0.917 -1.8122,-1.262 -0.1079,0.043 -0.1942,0.086 -0.2589,0.13 -0.0432,0.064 -0.1187,0.118 -0.2265,0.161 -0.0432,0.691 -0.0432,1.327 0,1.91 0.0647,0.604 0.0323,1.208 -0.0971,1.812 0.0431,0.065 0.1078,0.108 0.1941,0.129 0.0863,0.022 0.1511,0.076 0.1942,0.162 0.1295,1.23 0.3236,2.373 0.5825,3.431 0.2805,1.057 0.5717,2.136 0.8738,3.236 0.0647,-0.173 0.1187,-0.335 0.1618,-0.486 0.0647,-0.129 0.1187,-0.258 0.1618,-0.388 0.1079,-0.108 0.1942,-0.108 0.2589,0 0.0863,0.13 0.1726,0.237 0.2589,0.324 0.1726,-0.302 0.3883,-0.55 0.6472,-0.745 0.2589,-0.172 0.6041,-0.28 1.0356005,-0.323 0.1079,0.129 0.2373,0.194 0.3884,0.194 0.151,0 0.2696,-0.065 0.3559,-0.194 0.0216,-0.087 0.0216,-0.14 0,-0.162 -0.0215,-0.022 -0.0539,-0.043 -0.0971,-0.065 -0.0431,0 -0.0863,-0.011 -0.1294,-0.032 -0.0216,-0.022 -0.0108,-0.076 0.0324,-0.162 0.1941,0.022 0.3559,0.065 0.4854,0.129 0.1294,0.087 0.2805,0.152 0.4531,0.195 l 1.4886,2.233 c -0.1726,0.237 -0.3668,0.528 -0.5825,0.873 -0.1942,0.346 -0.3991,0.702 -0.6149,1.068 -0.1942,0.389 -0.3991,0.777 -0.6149,1.165 -0.1941,0.41 -0.3883,0.788 -0.5825,1.133 -0.1294,0.302 -0.302,0.572 -0.5178,0.809 -0.2157005,0.237 -0.4422005,0.464 -0.6796005,0.68 -0.2157,0.215 -0.4315,0.431 -0.6472,0.647 -0.2157,0.237 -0.3991,0.507 -0.5501,0.809 -0.2805,-0.043 -0.507,-0.032 -0.6796,0.032 -0.1726,0.065 -0.3884,0.087 -0.6473,0.065 z m -3.1067,16.787 c -0.3668,-0.13 -0.7443,-0.324 -1.1327,-0.583 -0.3667,-0.237 -0.7011,-0.528 -1.0032,-0.874 -0.2805,-0.323 -0.5178,-0.69 -0.7119,-1.1 -0.19419996,-0.41 -0.30209996,-0.841 -0.32369996,-1.294 0.0648,-0.281 0.1403,-0.475 0.2266,-0.583 0.0647,-0.086 0.12939996,-0.183 0.19409996,-0.291 0.0432,-0.065 0.0755,-0.13 0.0971,-0.194 0.0432,-0.043 0.0755,-0.087 0.0971,-0.13 l 0.1618,-0.388 0.4207,0.129 c 0.1726,0.044 0.3021,0.033 0.3884,-0.032 0.1078,-0.065 0.2481,-0.194 0.4207,-0.388 0.0647,-0.065 0.1294,-0.13 0.1941,-0.194 0.0648,-0.065 0.1295,-0.119 0.1942,-0.162 l 0.6149,-0.55 0.2265,0.873 c 0.151,0.54 0.3452,0.896 0.5825,1.068 0.2373,0.194 0.6365,0.27 1.1974,0.227 0.0863,-0.432 0.0971,-0.798 0.0324,-1.101 -0.0648,-0.28 -0.1403,-0.571 -0.2266,-0.873 -0.1078,-0.389 -0.2049,-0.788 -0.2912,-1.198 -0.0647,-0.388 -0.0971,-0.819 -0.0971,-1.294 0,-0.173 0,-0.335 0,-0.486 0.0216,-0.151 0.0431,-0.312 0.0647,-0.485 l 0.0647,-0.324 c 0.2374,-0.043 0.3668,-0.086 0.3884,-0.129 0.0431,-0.043 0.0863,-0.086 0.1294,-0.13 0.1079,-0.107 0.2481,-0.226 0.4207,-0.355 0.1942,-0.108 0.4315,-0.13 0.712,-0.065 0.1942,-0.108 0.3883,-0.173 0.5825,-0.194 -0.2589,-0.13 -0.5286,-0.227 -0.809,-0.292 l -0.3237,-0.129 -0.0647,-0.324 c -0.0216,-0.043 -0.0755,-0.075 -0.1618,-0.097 -0.0647,-0.021 -0.1186,-0.032 -0.1618,-0.032 l -0.5501,-0.162 c -0.0432,-0.043 -0.0863,-0.086 -0.1295,-0.129 -0.0216,-0.044 -0.0539,-0.087 -0.0971,-0.13 -0.1941,-0.043 -0.3883,-0.097 -0.5825,-0.162 -0.1942,-0.064 -0.3775,-0.129 -0.5501,-0.194 -0.2805,-0.108 -0.561,-0.205 -0.8414,-0.291 -0.2589,-0.065 -0.5178,-0.086 -0.7767,-0.065 l -0.356,-0.129 c -0.1295,-0.108 -0.2373,-0.227 -0.3236,-0.356 -0.0647,-0.13 -0.1295,-0.259 -0.1942,-0.389 -0.0431,-0.043 -0.0863,-0.107 -0.1294,-0.194 -0.0216,-0.064 -0.0432,-0.118 -0.0648,-0.162 l -0.3559,-0.097 -0.0648,-0.388 c -0.0431,-0.237 -0.0755,-0.41 -0.0971,-0.518 -0.0215,-0.086 -0.0323,-0.194 -0.0323,-0.323 l 0.0323,-0.324 c 0.19419996,-0.237 0.34519996,-0.421 0.45309996,-0.55 0.1295,-0.13 0.2481,-0.281 0.356,-0.453 0.2589,-0.194 0.4531,-0.302 0.5825,-0.324 0.1294,-0.021 0.2481,-0.043 0.356,-0.065 0.1294,-0.043 0.2373,-0.064 0.3236,-0.064 0.0863,-0.022 0.151,-0.054 0.1942,-0.097 l 0.3883,-0.421 0.2913,0.356 0.5501,0.032 c 1.1003,0.432 2.1575,0.885 3.1715,1.359 1.014,0.497 2.0495,1.004 3.1067005,1.521 0.3452,0.173 0.6904,0.335 1.0356,0.486 0.3452,0.172 0.6904,0.345 1.0356,0.518 0.0647,-0.022 0.1402,-0.033 0.2265,-0.033 0.0863,0 0.1834,0.022 0.2912,0.065 0.3668,0.237 0.6904,0.432 0.9709,0.583 0.302,0.151 0.6041,0.302 0.9061,0.453 0.36679,0.172 0.72277,0.345 1.06796,0.517 0.34519,0.195 0.70117,0.432 1.06794,0.712 l 0.22653,0.518 c 0.0216,0.065 0.0431,0.14 0.0647,0.227 0.0431,0.086 0.0647,0.183 0.0647,0.291 l -0.0647,0.485 c 0.28047,0.604 0.66881,1.133 1.16502,1.586 0.51779,0.453 1.13266,0.917 1.84462,1.392 l 0.45307,0.323 -0.2589,0.421 c -0.0647,0.108 -0.12945,0.259 -0.19417,0.453 -0.0431,0.194 -0.0971,0.399 -0.16181,0.615 -0.0863,0.388 -0.18338,0.755 -0.29125,1.1 -0.10788,0.345 -0.26968,0.626 -0.48543,0.842 -0.34519,0.129 -0.60409,0.205 -0.77668,0.226 -0.1726,0.022 -0.34519,0.054 -0.51779,0.097 -0.36677,0.065 -0.73353,0.119 -1.1003,0.162 -0.36677,0.065 -0.77668,0.108 -1.22975,0.129 -0.36677,0.108 -0.73353,0.195 -1.10029,0.259 -0.3452,0.087 -0.7012,0.162 -1.0679,0.227 -0.5178,0.108 -1.0248,0.216 -1.5211,0.324 -0.4746,0.107 -0.9277,0.248 -1.3591,0.42 0,0.173 -0.0108,0.281 -0.0324,0.324 0.0431,0.108 0.0755,0.216 0.0971,0.323 0.0216,0.13 0.0431,0.27 0.0647,0.421 l 0.0324,0.356 -0.3237,0.13 c -0.1078,0.021 -0.2157,0.129 -0.3236,0.323 -0.0215,0.281 -0.0863,0.486 -0.1941,0.615 -0.0863,0.13 -0.1834,0.248 -0.2913005,0.356 -0.0863,0.086 -0.151,0.173 -0.1942,0.259 l -0.1941,0.485 -0.4855,-0.258 c -0.3883,-0.216 -0.7659,-0.529 -1.1326,-0.939 -0.3452,-0.388 -0.6365,-0.831 -0.8738,-1.327 -0.1294,0.022 -0.2589,0.033 -0.3883,0.033 -0.1079,0.021 -0.2266,0.053 -0.356,0.097 -0.3668,0.064 -0.7443,0.118 -1.1327,0.161 -0.3883,0.044 -0.7874,0.044 -1.1974,0 z m 5.5986,-9.353 c 0.0431,0.647 0.0863,1.23 0.1294,1.748 0.0647,0.539 0.1618,1.132 0.2913,1.78 0.6472005,-0.151 1.3160005,-0.313 2.0064005,-0.486 0.712,-0.172 1.4131,-0.356 2.1035,-0.55 l -0.3236,-0.194 c -0.4531,-0.432 -0.9601,-0.852 -1.521,-1.262 -0.5609,-0.389 -1.0895,-0.723 -1.5857,-1.003 -0.1942,-0.13 -0.3884,-0.259 -0.5825,-0.389 -0.1942005,-0.129 -0.3884005,-0.248 -0.5825005,-0.356 0.0215,0.13 0.0323,0.248 0.0323,0.356 0,0.13 0.0108,0.248 0.0324,0.356 z m 7.2490105,29.246 c 0,-0.539 -0.0431,-1.122 -0.12944,-1.747 -0.0647,-0.626 -0.14024,-1.241 -0.22654,-1.845 -0.0647,-0.431 -0.11866,-0.852 -0.16181,-1.262 -0.0431,-0.388 -0.0755,-0.744 -0.0971,-1.068 -0.47464,-0.151 -0.89534,-0.302 -1.26214,-0.453 -0.3667,-0.151 -0.7227,-0.313 -1.0679,-0.486 -0.3668,-0.172 -0.7443,-0.334 -1.1327,-0.485 -0.3667,-0.129 -0.7659,-0.259 -1.1974,-0.388 -0.3451,-0.216 -0.6688,-0.399 -0.9708,-0.55 -0.2805,-0.13 -0.6041005,-0.238 -0.9709005,-0.324 -0.3236,-0.259 -0.6688,-0.453 -1.0355,-0.583 -0.3452,-0.129 -0.6473,-0.226 -0.9062,-0.291 l -0.3883,-0.129 c -0.1295,-0.13 -0.2373,-0.205 -0.3236,-0.227 -0.0648,-0.021 -0.1295,-0.075 -0.1942,-0.162 -0.2373,-0.021 -0.4746,-0.097 -0.712,-0.226 -0.1078,-0.043 -0.2157,-0.076 -0.3236,-0.097 -0.0863,-0.022 -0.151,-0.033 -0.1941,-0.033 -0.2158,0 -0.356,-0.054 -0.4207,-0.161 -0.1079,0.021 -0.2266,0.021 -0.356,0 -0.1079,-0.022 -0.2158,-0.044 -0.3236,-0.065 -0.2589,-0.065 -0.4639,-0.086 -0.6149,-0.065 -0.0863,0.065 -0.1618,0.119 -0.2266,0.162 -0.0647,0.065 -0.151,0.108 -0.2588,0.129 -0.0863,0.13 -0.1403,0.227 -0.1619,0.292 -0.0647,0.086 -0.1402,0.215 -0.2265,0.388 l -0.3236,0.291 c -0.6257,0.108 -1.1219,0.011 -1.4886,-0.291 -0.40999996,-0.324 -0.61489996,-0.874 -0.61489996,-1.65 v -0.389 c 0.1079,-0.108 0.1941,-0.172 0.2589,-0.194 0.0647,-0.173 0.1186,-0.313 0.1618,-0.421 0.0431,-0.108 0.1294,-0.205 0.25889996,-0.291 0.1294,-0.28 0.2373,-0.507 0.3236,-0.68 l 0.1618,-0.291 c 0.2373,0 0.3668,0 0.3883,0 0.1942,-0.151 0.41,-0.269 0.6473,-0.356 0.2373,-0.064 0.4746,-0.118 0.7119,-0.162 0.1942,-0.043 0.3776,-0.097 0.5502,-0.161 0.1726,-0.044 0.3236,-0.108 0.4531,-0.195 1.2513,-0.043 2.3084,0.076 3.1714,0.356 0.863,0.281 1.6936,0.572 2.4919005,0.874 0.4315,0.173 0.8629,0.345 1.2944,0.518 0.4531,0.173 0.917,0.324 1.3916,0.453 l 0.3236,0.291 c 0.3452,0.151 0.6257,0.27 0.8414,0.356 0.2373,0.108 0.4747,0.216 0.712,0.324 0.151,0.065 0.2912,0.119 0.4207,0.162 0.151,0.064 0.28045,0.118 0.38832,0.162 0,-0.13 -0.0108,-0.249 -0.0324,-0.356 0,-0.108 -0.0108,-0.216 -0.0324,-0.324 -0.0216,-0.13 -0.0431,-0.248 -0.0647,-0.356 0,-0.108 0,-0.216 0,-0.324 0,-0.151 0.0108,-0.259 0.0324,-0.323 -0.10787,-0.238 -0.16183,-0.497 -0.16183,-0.777 v -0.324 c 0,-0.064 0,-0.129 0,-0.194 0.0216,-0.043 0.0324,-0.086 0.0324,-0.129 0,-0.216 -0.0324,-0.389 -0.0971,-0.518 0,-0.259 0,-0.507 0,-0.744 v -0.324 c 0,-0.043 -0.0108,-0.097 -0.0324,-0.162 0,-0.064 0,-0.118 0,-0.162 0,-0.151 0.0108,-0.312 0.0324,-0.485 0.0431,-0.173 0.11866,-0.356 0.22653,-0.55 0.34519,-0.259 0.52858,-0.432 0.55015,-0.518 l 0.38834,-0.291 c 0.12945,-0.022 0.24811,-0.054 0.35598,-0.097 0.12945,-0.043 0.26968,-0.087 0.42071,-0.13 0.21574,-0.086 0.44227,-0.172 0.67959,-0.259 0.2589,-0.064 0.56094,-0.097 0.90613,-0.097 0.1726,0.022 0.30205,0.065 0.38834,0.13 0.0863,0.064 0.16181,0.118 0.22654,0.162 l 0.48542,0.097 -0.0324,0.42 v 0.906 c 0,0.691 0.0216,1.392 0.0647,2.104 0.0647,0.712 0.12944,1.445 0.19417,2.201 0.0431,0.431 0.0863,0.863 0.12944,1.294 0.0431,0.453 0.0863,0.917 0.12945,1.392 0.19417,0.086 0.37755,0.172 0.55015,0.259 l 0.16181,0.323 c 0.0216,0.388 -0.0324,0.658 -0.16181,0.809 -0.10787,0.173 -0.21574,0.313 -0.32362,0.421 0.0431,0.475 0.0863,0.949 0.12945,1.424 0.0647,0.496 0.14023,0.992 0.22653,1.488 0.10787,0.734 0.20496,1.468 0.29126,2.201 0.0863,0.755 0.12945,1.478 0.12945,2.168 0,0.302 -0.0108,0.594 -0.0324,0.874 -0.0216,0.281 -0.0539,0.539 -0.0971,0.777 l -0.22653,0.323 c -0.12945,0.065 -0.24811,0.151 -0.35598,0.259 -0.10788,0.13 -0.21575,0.259 -0.32362,0.389 -0.23732,0.258 -0.51779,0.517 -0.84141,0.776 -0.32362,0.259 -0.79825,0.356 -1.42392,0.292 -0.25889,-0.173 -0.40991,-0.303 -0.45306,-0.389 l -0.38834,-0.291 0.0324,-0.324 c 0,-0.129 -0.0216,-0.248 -0.0647,-0.356 -0.0216,-0.108 -0.0539,-0.215 -0.0971,-0.323 -0.0431,-0.087 -0.0863,-0.173 -0.12945,-0.259 -0.0216,-0.086 -0.0431,-0.184 -0.0647,-0.291 0,-0.195 0,-0.356 0,-0.486 0.0216,-0.108 0.0324,-0.226 0.0324,-0.356 z m 2.65367,16.528 c -0.15102,0.022 -0.26968,0.022 -0.35598,0 -0.0647,0 -0.12945,-0.011 -0.19417,-0.032 -0.0647,0 -0.14024,0 -0.22653,0 -0.0647,0 -0.1726,0.021 -0.32362,0.064 -0.73354,-0.453 -1.24054,-0.981 -1.52101,-1.585 -0.25889,-0.583 -0.45306,-1.219 -0.58251,-1.91 -0.10787,-0.69 -0.22653,-1.402 -0.35598,-2.136 -0.12944,-0.712 -0.40991,-1.424 -0.84138,-2.136 0.1078,-0.28 0.1078,-0.539 0,-0.776 -0.1079,-0.216 -0.1403,-0.54 -0.0971,-0.971 -0.1295,-0.129 -0.2265,-0.291 -0.2913,-0.485 -0.0431,-0.195 -0.097,-0.389 -0.1618,-0.583 -0.1941,0.086 -0.3991,0.119 -0.6148,0.097 -0.1942,0 -0.356,0.032 -0.4855,0.097 -0.0647,0.755 -0.0539,1.586 0.0324,2.492 0.0863,0.928 0.1402,1.834 0.1618,2.718 -0.1079,0.022 -0.1834,0.011 -0.2265,-0.032 -0.0216,-0.043 -0.0755,-0.054 -0.1618,-0.032 -0.1079,0.151 -0.2482,0.302 -0.4207,0.453 -0.1511,0.151 -0.3021,0.302 -0.4531,0.453 -0.151,0.151 -0.2805,0.302 -0.3884,0.453 -0.0863,0.173 -0.1186,0.367 -0.097,0.582 -0.1726,0.087 -0.3668,0.141 -0.5826,0.162 -0.1941,0.043 -0.3991,0.022 -0.6148,-0.064 -0.2373,-0.346 -0.4855,-0.691 -0.7443005,-1.036 -0.2374,-0.345 -0.4531,-0.712 -0.6473,-1.1 -0.1942,-0.367 -0.356,-0.766 -0.4854,-1.198 -0.1079,-0.41 -0.151,-0.874 -0.1295,-1.391 0,-0.108 0,-0.194 0,-0.259 0,-0.043 0.0324,-0.108 0.0971,-0.194 -0.1078,-0.173 -0.1402,-0.421 -0.0971,-0.745 0.0432,-0.302 0.0108,-0.539 -0.097,-0.712 0.1078,-0.237 0.151,-0.528 0.1294,-0.873 0,-0.324 0.0432,-0.615 0.1295,-0.874 -0.4531,-0.345 -0.9385,-0.658 -1.4563,-0.939 -0.5178,-0.28 -1.068,-0.528 -1.6505,-0.744 -0.1078,0.734 -0.151,1.338 -0.1294,1.812 0.0216,0.496 0.0539,0.96 0.0971,1.392 0.0647,0.431 0.1186,0.874 0.1618,1.327 0.0647,0.453 0.0863,1.024 0.0647,1.715 0.2373,0.431 0.3883,0.938 0.4531,1.521 0.0863,0.604 0.2157,1.154 0.3883,1.65 -0.0647,0.173 -0.1834,0.324 -0.356,0.453 -0.151,0.13 -0.302,0.248 -0.453,0.356 -0.1295,0.13 -0.2481,0.259 -0.356,0.389 -0.1079,0.129 -0.151,0.291 -0.1295,0.485 -0.0863,0.086 -0.1941,0.14 -0.3236,0.162 -0.1079,0.043 -0.2157,0.075 -0.3236,0.097 -0.1079,0.022 -0.205,0.054 -0.2913,0.097 -0.0647,0.065 -0.0863,0.162 -0.0647,0.291 -0.7119,-0.323 -1.2621,-0.701 -1.6504,-1.132 -0.3668,-0.41 -0.6473,-0.885 -0.8414,-1.424 -0.1942,-0.54 -0.3452,-1.144 -0.4531,-1.813 -0.1079,-0.647 -0.2373,-1.37 -0.3883,-2.168 -0.0432,-0.194 -0.0324,-0.356 0.0323,-0.485 0.0432,-0.13 0.0647,-0.281 0.0647,-0.453 -0.1078,-0.496 -0.20489996,-1.09 -0.29119996,-1.78 -0.0863,-0.691 -0.1187,-1.392 -0.0971,-2.104 0.0216,-0.712 0.1187,-1.391 0.29129996,-2.038 0.151,-0.648 0.4314,-1.176 0.8414,-1.586 0.151,-0.173 0.3236,-0.291 0.5177,-0.356 0.2158,-0.043 0.3776,-0.184 0.4855,-0.421 0.2804,-0.021 0.5933,-0.065 0.9385,-0.129 0.3452,-0.065 0.7011,-0.13 1.0679,-0.194 0.3883,-0.065 0.7659,-0.119 1.1327,-0.162 0.3667,-0.022 0.7011,0 1.0032,0.064 0.3236,0.065 0.6149,0.195 0.8737,0.389 0.2589,0.216 0.5394,0.291 0.8415,0.226 0.0215,0.108 0.0755,0.173 0.1618,0.194 0.1078,0.022 0.151,0.108 0.1294,0.259 0.3884,0.13 0.7551,0.27 1.1003005,0.421 0.3452,0.151 0.6796,0.302 1.0032,0.453 0.3236,0.173 0.6473,0.335 0.9709,0.486 0.3452,0.172 0.7227,0.334 1.1326,0.485 0.2805,-0.302 0.5826,-0.529 0.9062,-0.68 0.3452,-0.129 0.6796,-0.226 1.0032,-0.291 0.34518,-0.065 0.69037,-0.119 1.03556,-0.162 0.36677,-0.043 0.73354,-0.118 1.1003,-0.226 0.32362,0.216 0.58251,0.474 0.77668,0.776 0.21575,0.324 0.38835,0.669 0.51779,1.036 0.12945,0.367 0.23732,0.766 0.32362,1.197 0.0863,0.432 0.18338,0.885 0.29126,1.36 0.28047,0.863 0.49621,1.629 0.64723,2.297 0.15102,0.691 0.26968,1.36 0.35598,2.007 0.10787,0.669 0.20496,1.359 0.29126,2.071 0.0863,0.712 0.21574,1.521 0.38834,2.427 -0.19417,0.194 -0.29126,0.378 -0.29126,0.55 0.19417,0.086 0.24811,0.184 0.16181,0.291 -0.0647,0.13 0,0.184 0.19417,0.162 -0.36676,0.216 -0.67959,0.486 -0.93849,0.809 -0.23732,0.345 -0.44228,0.723 -0.61487,1.133 z m -15.5012805,17.337 c -0.3668,-0.13 -0.7443,-0.324 -1.1327,-0.583 -0.3667,-0.237 -0.7011,-0.528 -1.0032,-0.873 -0.2805,-0.324 -0.5178,-0.691 -0.7119,-1.101 -0.19419996,-0.41 -0.30209996,-0.841 -0.32369996,-1.294 0.0648,-0.281 0.1403,-0.475 0.2266,-0.583 0.0647,-0.086 0.12939996,-0.183 0.19409996,-0.291 0.0432,-0.065 0.0755,-0.129 0.0971,-0.194 0.0432,-0.043 0.0755,-0.086 0.0971,-0.13 l 0.1618,-0.388 0.4207,0.129 c 0.1726,0.044 0.3021,0.033 0.3884,-0.032 0.1078,-0.065 0.2481,-0.194 0.4207,-0.388 0.0647,-0.065 0.1294,-0.13 0.1941,-0.194 0.0648,-0.065 0.1295,-0.119 0.1942,-0.162 l 0.6149,-0.55 0.2265,0.873 c 0.151,0.54 0.3452,0.896 0.5825,1.068 0.2373,0.195 0.6365,0.27 1.1974,0.227 0.0863,-0.432 0.0971,-0.798 0.0324,-1.1 -0.0648,-0.281 -0.1403,-0.572 -0.2266,-0.874 -0.1078,-0.389 -0.2049,-0.788 -0.2912,-1.198 -0.0647,-0.388 -0.0971,-0.819 -0.0971,-1.294 0,-0.173 0,-0.334 0,-0.485 0.0216,-0.151 0.0431,-0.313 0.0647,-0.486 l 0.0647,-0.324 c 0.2374,-0.043 0.3668,-0.086 0.3884,-0.129 0.0431,-0.043 0.0863,-0.086 0.1294,-0.129 0.1079,-0.108 0.2481,-0.227 0.4207,-0.356 0.1942,-0.108 0.4315,-0.13 0.712,-0.065 0.1942,-0.108 0.3883,-0.173 0.5825,-0.194 -0.2589,-0.13 -0.5286,-0.227 -0.809,-0.292 l -0.3237,-0.129 -0.0647,-0.324 c -0.0216,-0.043 -0.0755,-0.075 -0.1618,-0.097 -0.0647,-0.021 -0.1186,-0.032 -0.1618,-0.032 l -0.5501,-0.162 c -0.0432,-0.043 -0.0863,-0.086 -0.1295,-0.129 -0.0216,-0.043 -0.0539,-0.087 -0.0971,-0.13 -0.1941,-0.043 -0.3883,-0.097 -0.5825,-0.162 -0.1942,-0.064 -0.3775,-0.129 -0.5501,-0.194 -0.2805,-0.108 -0.561,-0.205 -0.8414,-0.291 -0.2589,-0.065 -0.5178,-0.086 -0.7767,-0.065 l -0.356,-0.129 c -0.1295,-0.108 -0.2373,-0.227 -0.3236,-0.356 -0.0647,-0.13 -0.1295,-0.259 -0.1942,-0.388 -0.0431,-0.044 -0.0863,-0.108 -0.1294,-0.195 -0.0216,-0.064 -0.0432,-0.118 -0.0648,-0.161 l -0.3559,-0.098 -0.0648,-0.388 c -0.0431,-0.237 -0.0755,-0.41 -0.0971,-0.518 -0.0215,-0.086 -0.0323,-0.194 -0.0323,-0.323 l 0.0323,-0.324 c 0.19419996,-0.237 0.34519996,-0.421 0.45309996,-0.55 0.1295,-0.13 0.2481,-0.281 0.356,-0.453 0.2589,-0.194 0.4531,-0.302 0.5825,-0.324 0.1294,-0.021 0.2481,-0.043 0.356,-0.064 0.1294,-0.044 0.2373,-0.065 0.3236,-0.065 0.0863,-0.022 0.151,-0.054 0.1942,-0.097 l 0.3883,-0.421 0.2913,0.356 0.5501,0.032 c 1.1003,0.432 2.1575,0.885 3.1715,1.36 1.014,0.496 2.0495,1.003 3.1067005,1.521 0.3452,0.172 0.6904,0.334 1.0356,0.485 0.3452,0.173 0.6904,0.345 1.0356,0.518 0.0647,-0.022 0.1402,-0.033 0.2265,-0.033 0.0863,0 0.1834,0.022 0.2912,0.065 0.3668,0.237 0.6904,0.432 0.9709,0.583 0.302,0.151 0.6041,0.302 0.9061,0.453 0.36679,0.172 0.72277,0.345 1.06796,0.517 0.34519,0.195 0.70117,0.432 1.06794,0.712 l 0.22653,0.518 c 0.0216,0.065 0.0431,0.14 0.0647,0.227 0.0431,0.086 0.0647,0.183 0.0647,0.291 l -0.0647,0.485 c 0.28047,0.605 0.66881,1.133 1.16502,1.586 0.51779,0.453 1.13266,0.917 1.84462,1.392 l 0.45307,0.323 -0.2589,0.421 c -0.0647,0.108 -0.12945,0.259 -0.19417,0.453 -0.0431,0.194 -0.0971,0.399 -0.16181,0.615 -0.0863,0.388 -0.18338,0.755 -0.29125,1.1 -0.10788,0.345 -0.26968,0.626 -0.48543,0.842 -0.34519,0.129 -0.60409,0.205 -0.77668,0.226 -0.1726,0.022 -0.34519,0.054 -0.51779,0.097 -0.36677,0.065 -0.73353,0.119 -1.1003,0.162 -0.36677,0.065 -0.77668,0.108 -1.22975,0.13 -0.36677,0.107 -0.73353,0.194 -1.10029,0.258 -0.3452,0.087 -0.7012,0.162 -1.0679,0.227 -0.5178,0.108 -1.0248,0.216 -1.5211,0.324 -0.4746,0.107 -0.9277,0.248 -1.3591,0.42 0,0.173 -0.0108,0.281 -0.0324,0.324 0.0431,0.108 0.0755,0.216 0.0971,0.324 0.0216,0.129 0.0431,0.269 0.0647,0.42 l 0.0324,0.356 -0.3237,0.13 c -0.1078,0.021 -0.2157,0.129 -0.3236,0.323 -0.0215,0.281 -0.0863,0.486 -0.1941,0.615 -0.0863,0.13 -0.1834,0.248 -0.2913005,0.356 -0.0863,0.086 -0.151,0.173 -0.1942,0.259 l -0.1941,0.485 -0.4855,-0.258 c -0.3883,-0.216 -0.7659,-0.529 -1.1326,-0.939 -0.3452,-0.388 -0.6365,-0.831 -0.8738,-1.327 -0.1294,0.022 -0.2589,0.033 -0.3883,0.033 -0.1079,0.021 -0.2266,0.054 -0.356,0.097 -0.3668,0.064 -0.7443,0.118 -1.1327,0.162 -0.3883,0.043 -0.7874,0.043 -1.1974,0 z m 5.5986,-9.353 c 0.0431,0.647 0.0863,1.23 0.1294,1.748 0.0647,0.539 0.1618,1.132 0.2913,1.78 0.6472005,-0.151 1.3160005,-0.313 2.0064005,-0.486 0.712,-0.172 1.4131,-0.356 2.1035,-0.55 l -0.3236,-0.194 c -0.4531,-0.432 -0.9601,-0.852 -1.521,-1.262 -0.5609,-0.389 -1.0895,-0.723 -1.5857,-1.003 -0.1942,-0.13 -0.3884,-0.259 -0.5825,-0.389 -0.1942005,-0.129 -0.3884005,-0.248 -0.5825005,-0.356 0.0215,0.13 0.0323,0.248 0.0323,0.356 0,0.13 0.0108,0.248 0.0324,0.356 z m 10.0968505,30.573 c -0.47464,0.043 -0.88456,0.119 -1.22975,0.227 -0.34519,0.107 -0.6796,0.226 -1.00321,0.356 -0.30205,0.107 -0.60409,0.205 -0.90613,0.291 -0.28047,0.108 -0.62566,0.183 -1.03558,0.226 -0.56098,-0.172 -1.07868,-0.302 -1.55338,-0.388 -0.4746,-0.065 -0.9708,-0.14 -1.4886,-0.227 -0.7551,-0.345 -1.4239,-0.679 -2.0065,-1.003 -0.5825005,-0.323 -1.0895005,-0.582 -1.5210005,-0.776 -0.1078,-0.108 -0.2373,-0.205 -0.3883,-0.292 -0.1294,-0.064 -0.2697,-0.14 -0.4207,-0.226 -0.0647,-0.043 -0.1618,-0.097 -0.2913,-0.162 -0.1294,-0.065 -0.2157,-0.119 -0.2589,-0.162 l 0.2266,-0.647 -0.8091,-0.13 -0.1294,-0.453 -0.3884,-0.323 c -0.7119,-0.41 -1.316,-0.842 -1.8122,-1.295 -0.4747,-0.453 -0.9061,-0.971 -1.2945,-1.553 -0.3668,-0.561 -0.7119,-1.208 -1.0356,-1.942 -0.3236,-0.712 -0.6796,-1.521 -1.0679,-2.427 0.0431,-0.367 0.0647,-0.69 0.0647,-0.971 0.0216,-0.259 0.0432,-0.507 0.0647,-0.744 0,-0.41 0.0324,-0.917 0.0971,-1.521 0.1726,-0.065 0.2913,-0.162 0.356,-0.291 0.0647,-0.13 0.0971,-0.248 0.0971,-0.356 0.1726,-0.367 0.4207,-0.648 0.7443,-0.842 0.3452,-0.172 0.712,-0.345 1.1003,-0.517 0.2373,-0.108 0.4531,-0.216 0.6473,-0.324 0.2157,-0.108 0.4314,-0.227 0.6472,-0.356 l 0.1618,0.55 0.7767,-0.712 c 0.0647,-0.043 0.1186,-0.097 0.1618,-0.162 0.0647,-0.064 0.1294,-0.118 0.1942,-0.161 l 0.5177,-0.033 c 1.4887,-0.065 2.8479,-0.097 4.0776005,-0.097 1.2514,0.022 2.3624,0.194 3.3333,0.518 h 0.356 c 0.4746,0.065 0.86295,0.129 1.165,0.194 0.32362,0.065 0.62566,0.119 0.90613,0.162 0.47464,0.065 0.91691,0.162 1.32683,0.291 0.0647,0.302 0.18338,0.529 0.35598,0.68 0.19417,0.151 0.36677,0.28 0.51779,0.388 0.0216,0.302 -0.0216,0.507 -0.12945,0.615 -0.10787,0.108 -0.28047,0.216 -0.51779,0.324 -0.19417,0.107 -0.40991,0.237 -0.64723,0.388 -0.23732,0.172 -0.42071,0.421 -0.55015,0.744 -0.1726,0.043 -0.35598,0.097 -0.55015,0.162 -0.1726,0.086 -0.36677,0.173 -0.58252,0.259 -0.36676,0.172 -0.75514,0.323 -1.16504,0.453 -0.3883,0.151 -0.7659,0.237 -1.1326,0.259 -0.41,-0.216 -0.8846,-0.389 -1.424,-0.518 -0.5393,-0.108 -1.0895,-0.183 -1.6504,-0.226 -0.5394005,-0.022 -1.0679005,-0.011 -1.5857005,0.032 -0.4963,0.065 -0.917,0.162 -1.2621,0.291 l -0.4207,0.194 0.0647,0.55 c 0.1726,0.648 0.356,1.23 0.5501,1.748 0.2158,0.539 0.4639,1.036 0.7443,1.489 0.2805,0.453 0.6041,0.884 0.9709,1.294 0.3883,0.41 0.8306005,0.842 1.3268005,1.295 0.4962,0.453 1.0572,0.841 1.6828,1.165 0.6473,0.345 1.3161,0.625 2.0065,0.841 0.69036,0.237 1.36996,0.41 2.03877,0.518 0.69038,0.129 1.33762,0.216 1.9417,0.259 0.12945,0.366 0.38834,0.55 0.77668,0.55 l 0.35598,-0.065 c 0.12945,-0.086 0.28047,-0.086 0.45307,0 0.40991,0.13 0.72274,0.432 0.93849,0.906 -0.21575,0.345 -0.45307,0.647 -0.71196,0.906 -0.25889,0.281 -0.51779,0.54 -0.77668,0.777 z m -9.6761505,17.24 c -0.1079,-0.022 -0.205,-0.043 -0.2913,-0.065 -0.0647,-0.021 -0.1294,-0.043 -0.1941,-0.065 -0.0648,-0.021 -0.1511,-0.032 -0.2589,-0.032 -0.0863,0 -0.205,0 -0.356,0 -1.1435,-0.647 -2.1035,-1.467 -2.8802,-2.459 -0.7767,-0.971 -1.4671,-2.05 -2.0712,-3.237 -0.5825,-1.165 -1.1218,-2.384 -1.6181,-3.657 -0.4746,-1.272 -0.9924,-2.513 -1.55329996,-3.721 0.1294,-0.518 0.34519996,-0.917 0.64719996,-1.198 0.3021,-0.258 0.6472,-0.463 1.0356,-0.614 0.4099,-0.13 0.8522,-0.227 1.3268,-0.292 0.4962,-0.043 1.0032,-0.086 1.521,-0.129 0.2373,0.065 0.4315,0.151 0.5825,0.259 0.1726,0.129 0.4099,0.194 0.712,0.194 0.5609,0.173 1.1111,0.345 1.6504,0.518 0.5394,0.172 1.0896,0.28 1.6505,0.323 0.1726,0.065 0.2912005,0.184 0.3560005,0.356 1.0355,0.108 2.0819,0.108 3.1391,0 1.0787,-0.086 2.08191,-0.259 3.00961,-0.517 0.21574,0.021 0.36677,0.043 0.45306,0.064 0.10788,0.043 0.18339,0.043 0.22654,0 0.17259,-0.021 0.25889,0.033 0.25889,0.162 0,0.151 0,0.302 0,0.453 0.32362,0 0.64724,-0.065 0.97085,-0.194 0.32362,-0.108 0.69039,-0.216 1.1003,-0.324 0.32362,0.151 0.63645,0.248 0.9385,0.292 0.32361,0.043 0.60408,0.14 0.8414,0.291 -0.36677,1.165 -0.80904,2.276 -1.32683,3.333 -0.51779,1.079 -0.89534,2.136 -1.13266,3.172 -0.56094,0.776 -1.12188,1.575 -1.68282,2.394 -0.53936,0.82 -1.14344,1.565 -1.81224,2.233 -0.6472,0.669 -1.3916,1.23 -2.233,1.683 -0.8414,0.453 -1.8446,0.712 -3.0096005,0.777 z m -1.7799,-7.67 c 0.1726,0.453 0.356,0.895 0.5501,1.327 0.1942,0.453 0.4099,0.863 0.6473,1.23 0.2589,0.388 0.5501,0.733 0.8737005,1.035 0.3237,0.302 0.712,0.55 1.1651,0.745 0.2589,-0.13 0.4854,-0.302 0.6796,-0.518 0.2157,-0.216 0.4099,-0.432 0.5825,-0.647 0.1941,-0.216 0.3883,-0.432 0.5825,-0.648 0.1941,-0.194 0.4315,-0.356 0.7119,-0.485 0.0432,-0.281 0.1187,-0.529 0.2266,-0.744 0.1294,-0.216 0.2481,-0.432 0.356,-0.648 0.1294,-0.194 0.2481,-0.41 0.3559,-0.647 0.1079,-0.216 0.1726,-0.475 0.1942,-0.777 0.23732,-0.474 0.40992,-0.906 0.51779,-1.294 0.10787,-0.367 0.24811,-0.647 0.4207,-0.841 0,-0.151 -0.0324,-0.27 -0.0971,-0.356 -0.81981,0.215 -1.59651,0.377 -2.33001,0.485 -0.712,0.108 -1.4347,0.162 -2.1683,0.162 -0.7119,0.021 -1.4455005,-0.011 -2.2006005,-0.097 -0.7551,-0.087 -1.5749,-0.205 -2.4595,-0.356 0.0216,0.215 0.0647,0.41 0.1295,0.582 0.0863,0.194 0.1726,0.378 0.2589,0.55 0.0863,0.195 0.1618,0.389 0.2265,0.583 0.0863,0.216 0.1402,0.464 0.1618,0.744 0.1295,0.065 0.2373,0.151 0.3236,0.259 0.0863,0.13 0.1834,0.248 0.2913,0.356 z m -4.6925,16.042 c -0.6472,0.108 -1.1542,0.065 -1.521,-0.129 -0.3667,-0.173 -0.6364,-0.431 -0.809,-0.777 -0.19419996,-0.323 -0.30209996,-0.701 -0.32359996,-1.132 -0.0216,-0.432 0,-0.842 0.0647,-1.23 0.30199996,-0.216 0.67959996,-0.41 1.13259996,-0.583 0.4531,-0.172 0.917,-0.334 1.3916,-0.485 0.4962,-0.151 0.9816,-0.291 1.4563,-0.421 0.4746,-0.108 0.8953,-0.205 1.2621,-0.291 0.2589,0.108 0.5501,0.173 0.8738,0.194 0.3451,0.043 0.6903,0.065 1.0355,0.065 0.3452,0.021 0.6904,0.032 1.0356,0.032 0.3668,0.022 0.712,0.054 1.0356005,0.097 0.9061,0.151 1.7691,0.367 2.5889,0.648 0.8199,0.302 1.6721,0.539 2.55661,0.712 0.19417,0.043 0.37755,0.021 0.55015,-0.065 0.1726,-0.065 0.3344,-0.076 0.48543,-0.033 0.0863,0.022 0.14023,0.087 0.1618,0.195 0.0431,0.108 0.11866,0.172 0.22654,0.194 0.23732,0.065 0.43149,0.075 0.58251,0.032 0.15102,-0.021 0.3344,0.022 0.55015,0.13 0.1726,0.107 0.4207,0.237 0.74432,0.388 0.34519,0.173 0.70117,0.237 1.06794,0.194 0.12945,0.194 0.28047,0.378 0.45306,0.55 0.1726,0.173 0.32362,0.345 0.45307,0.518 0.15102,0.194 0.28047,0.399 0.38834,0.615 0.10787,0.237 0.16181,0.518 0.16181,0.841 -0.21575,0.173 -0.45307,0.281 -0.71196,0.324 -0.2589,0.065 -0.51779,0.119 -0.77668,0.162 -0.2589,0.064 -0.507,0.151 -0.74432,0.259 -0.21575,0.108 -0.38835,0.291 -0.51779,0.55 -0.1726,0 -0.38834,0 -0.64724,0 -0.25889,0 -0.51779,0.011 -0.77668,0.032 -0.23732,0.022 -0.46385,0.065 -0.6796,0.13 -0.19417,0.086 -0.32362,0.215 -0.38834,0.388 -1.03562,-0.388 -2.06032,-0.755 -3.07432,-1.1 -1.014,-0.324 -2.0388,-0.594 -3.0744005,-0.809 -1.014,-0.216 -2.0388,-0.356 -3.0744,-0.421 -1.0356,-0.043 -2.0819,0.032 -3.1391,0.226 z m 7.4432005,22.968 c -0.2589,-0.021 -0.507,0 -0.7443,0.065 -0.2373005,0.065 -0.4746005,0.14 -0.7119005,0.227 -0.2158,0.107 -0.4423,0.204 -0.6796,0.291 -0.2374,0.086 -0.4747,0.151 -0.712,0.194 -0.302,0.043 -0.6365,0.043 -1.0032,0 -0.3452,-0.043 -0.6904,-0.119 -1.0356,-0.227 -0.3236,-0.107 -0.6257,-0.248 -0.9061,-0.42 -0.2589,-0.173 -0.4531,-0.378 -0.5825,-0.615 -0.3884,-0.302 -0.6904,-0.669 -0.9062,-1.1 -0.2157,-0.432 -0.4746,-0.831 -0.7766,-1.198 -0.1511,-0.237 -0.2589,-0.507 -0.3237,-0.809 -0.0647,-0.28 -0.1294,-0.572 -0.1941,-0.874 -0.1295,-0.237 -0.2697,-0.517 -0.4207,-0.841 -0.1295,-0.324 -0.2589,-0.658 -0.3884,-1.003 -0.1079,-0.345 -0.1942,-0.691 -0.2589,-1.036 -0.0431,-0.345 -0.0539,-0.647 -0.0323,-0.906 -0.23739996,-0.647 -0.38839996,-1.284 -0.45309996,-1.909 -0.0863,-0.604 -0.0432,-1.316 0.1294,-2.136 -0.1078,-0.777 -0.0755,-1.5 0.0971,-2.168 0.17259996,-0.648 0.44229996,-1.23 0.80909996,-1.748 0.3883,-0.496 0.8414,-0.938 1.3592,-1.327 0.5393,-0.367 1.1003,-0.669 1.6828,-0.906 1.2297,-0.173 2.3408,-0.129 3.3332,0.129 1.014,0.259 1.9417005,0.626 2.7832005,1.101 0.8629,0.496 1.6504,1.057 2.3624,1.683 0.7335,0.625 1.4455,1.229 2.13584,1.812 -0.0431,0.129 -0.0431,0.226 0,0.291 0.0647,0.086 0.14024,0.162 0.22653,0.227 0.10788,0.064 0.20496,0.129 0.29126,0.194 0.0863,0.086 0.14023,0.183 0.16181,0.291 0.32362,0.151 0.56094,0.367 0.71196,0.647 0.17259,0.302 0.40991,0.54 0.71196,0.712 0.0431,0.194 0.10787,0.356 0.19417,0.486 0.0863,0.129 0.18338,0.248 0.29125,0.356 0.10788,0.129 0.20496,0.259 0.29126,0.388 0.10787,0.129 0.18338,0.28 0.22653,0.453 h 0.35598 c 0.1726,0.388 0.36677,0.669 0.58251,0.841 0.23732,0.195 0.51779,0.421 0.84141,0.68 0.0216,0.194 0.0324,0.345 0.0324,0.453 0,0.13 0.0216,0.313 0.0647,0.55 0.30205,0.173 0.52858,0.324 0.6796,0.453 0.15102,0.151 0.31283,0.367 0.48543,0.648 -0.12945,0.258 -0.21575,0.539 -0.2589,0.841 -0.0431,0.324 -0.18338,0.604 -0.4207,0.841 -0.21574,0.022 -0.38834,0.087 -0.51779,0.195 -0.10787,0.107 -0.21574,0.226 -0.32362,0.356 -0.0863,0.129 -0.18338,0.248 -0.29125,0.356 -0.10787,0.129 -0.2589,0.215 -0.45307,0.258 -0.0216,0.087 -0.0108,0.141 0.0324,0.162 0.0431,0.043 0.0539,0.108 0.0324,0.194 -0.30205,0.065 -0.507,0.141 -0.61488,0.227 -0.0863,0.086 -0.26968,0.173 -0.55015,0.259 -0.21574,-0.108 -0.44227,-0.194 -0.67959,-0.259 -0.21575,-0.043 -0.37756,-0.173 -0.48543,-0.388 -0.15102,-0.022 -0.23732,0.021 -0.25889,0.129 0,0.108 -0.0539,0.173 -0.16181,0.194 -0.19417,0.022 -0.33441,-0.011 -0.42071,-0.097 -0.8414,0.518 -1.73672,0.982 -2.68602,1.392 -0.9277,0.41 -1.8123,0.873 -2.6537,1.391 z m -3.0743005,-4.045 c 0.2373,0.086 0.4315,0.194 0.5825,0.324 0.151,0.151 0.3775,0.237 0.6796,0.259 0.1726,-0.108 0.302,-0.173 0.3883,-0.195 0.1079,-0.021 0.2697,-0.032 0.4854,-0.032 0.6689005,-0.475 1.3808005,-0.885 2.1359005,-1.23 0.7767,-0.345 1.4994,-0.733 2.1683,-1.165 -0.0863,-0.043 -0.1726,-0.118 -0.2589,-0.226 -0.0863,-0.108 -0.0648,-0.227 0.0647,-0.356 -0.1726,-0.043 -0.3021,-0.119 -0.3884,-0.227 -0.0647,-0.108 -0.097,-0.226 -0.097,-0.356 0.0215,-0.129 0.0539,-0.269 0.097,-0.42 0.0648,-0.13 0.1403,-0.249 0.2266,-0.356 -0.4962,-0.626 -0.9817,-1.252 -1.4563,-1.877 -0.4746,-0.626 -1.0248,-1.187 -1.6505,-1.683 -0.0431,-0.087 -0.0647,-0.14 -0.0647,-0.162 0.0216,-0.022 0.0108,-0.086 -0.0323,-0.194 -0.41,-0.173 -0.7875005,-0.389 -1.1327005,-0.647 -0.3236,-0.238 -0.658,-0.475 -1.0032,-0.712 -0.3452,-0.238 -0.712,-0.443 -1.1003,-0.615 -0.3884,-0.173 -0.8414,-0.27 -1.3592,-0.292 -0.3021,0.367 -0.4854,0.799 -0.5502,1.295 -0.0647,0.496 -0.0755,1.003 -0.0323,1.521 0.0431,0.539 0.1079,1.057 0.1941,1.553 0.1079,0.518 0.1619,0.993 0.1619,1.424 0.2157,0.906 0.4962,1.683 0.8414,2.33 0.3667,0.647 0.7335,1.327 1.1003,2.039 z"
     fill="#ffffff"
     fill-opacity="0.9"
     id="path2" />
</svg>
