<svg width="36" height="36" viewBox="0 0 36 36" fill="none" xmlns="http://www.w3.org/2000/svg">
<rect width="36" height="36" rx="6" fill="#1F1F27"/>
<path d="M10.85 11.364C12.182 11.364 13.346 11.628 14.342 12.156C15.338 12.684 16.106 13.428 16.646 14.388C17.198 15.336 17.474 16.434 17.474 17.682C17.474 18.918 17.198 20.016 16.646 20.976C16.106 21.936 15.332 22.68 14.324 23.208C13.328 23.736 12.17 24 10.85 24H6.116V11.364H10.85ZM10.652 21.336C11.816 21.336 12.722 21.018 13.37 20.382C14.018 19.746 14.342 18.846 14.342 17.682C14.342 16.518 14.018 15.612 13.37 14.964C12.722 14.316 11.816 13.992 10.652 13.992H9.194V21.336H10.652ZM18.6721 17.664C18.6721 16.416 18.9421 15.306 19.4821 14.334C20.0221 13.35 20.7721 12.588 21.7321 12.048C22.7041 11.496 23.8021 11.22 25.0261 11.22C26.5261 11.22 27.8101 11.616 28.8781 12.408C29.9461 13.2 30.6601 14.28 31.0201 15.648H27.6361C27.3841 15.12 27.0241 14.718 26.5561 14.442C26.1001 14.166 25.5781 14.028 24.9901 14.028C24.0421 14.028 23.2741 14.358 22.6861 15.018C22.0981 15.678 21.8041 16.56 21.8041 17.664C21.8041 18.768 22.0981 19.65 22.6861 20.31C23.2741 20.97 24.0421 21.3 24.9901 21.3C25.5781 21.3 26.1001 21.162 26.5561 20.886C27.0241 20.61 27.3841 20.208 27.6361 19.68H31.0201C30.6601 21.048 29.9461 22.128 28.8781 22.92C27.8101 23.7 26.5261 24.09 25.0261 24.09C23.8021 24.09 22.7041 23.82 21.7321 23.28C20.7721 22.728 20.0221 21.966 19.4821 20.994C18.9421 20.022 18.6721 18.912 18.6721 17.664Z" fill="url(#paint0_linear)"/>
<defs>
<linearGradient id="paint0_linear" x1="18.5" y1="4" x2="18.5" y2="31" gradientUnits="userSpaceOnUse">
<stop stop-color="#6E6E7E"/>
<stop offset="1" stop-color="#666270"/>
</linearGradient>
</defs>
</svg>
