<?xml version="1.0" encoding="UTF-8" standalone="no"?>
<svg
   width="44"
   height="44"
   viewBox="0 0 44 44"
   fill="none"
   version="1.1"
   id="svg9375"
   sodipodi:docname="follow-off.svg"
   inkscape:version="1.3 (0e150ed6c4, 2023-07-21)"
   xmlns:inkscape="http://www.inkscape.org/namespaces/inkscape"
   xmlns:sodipodi="http://sodipodi.sourceforge.net/DTD/sodipodi-0.dtd"
   xmlns="http://www.w3.org/2000/svg"
   xmlns:svg="http://www.w3.org/2000/svg">
  <defs
     id="defs9379">
    <linearGradient
       id="paint0_linear"
       x1="14.3923"
       y1="11"
       x2="26.3923"
       y2="31.784599"
       gradientUnits="userSpaceOnUse"
       gradientTransform="translate(32.423634,0.93199554)">
      <stop
         stop-color="#6E6E7E"
         id="stop489" />
      <stop
         offset="1"
         stop-color="#666270"
         id="stop491" />
    </linearGradient>
    <rect
       x="3.6789298"
       y="6.1315498"
       width="32.472687"
       height="27.371237"
       id="rect9274" />
    <linearGradient
       id="paint0_linear-2"
       x1="18.5"
       y1="4"
       x2="18.5"
       y2="31"
       gradientUnits="userSpaceOnUse">
      <stop
         stop-color="#6E6E7E"
         id="stop1" />
      <stop
         offset="1"
         stop-color="#666270"
         id="stop2" />
    </linearGradient>
  </defs>
  <sodipodi:namedview
     id="namedview9377"
     pagecolor="#cdcdcd"
     bordercolor="#666666"
     borderopacity="1.0"
     inkscape:showpageshadow="2"
     inkscape:pageopacity="0.0"
     inkscape:pagecheckerboard="0"
     inkscape:deskcolor="#d1d1d1"
     showgrid="false"
     inkscape:zoom="7.207668"
     inkscape:cx="-27.817596"
     inkscape:cy="35.448359"
     inkscape:window-width="1920"
     inkscape:window-height="1007"
     inkscape:window-x="0"
     inkscape:window-y="0"
     inkscape:window-maximized="1"
     inkscape:current-layer="svg9375" />
  <rect
     width="44"
     height="44"
     rx="6"
     fill="#1F1F27"
     id="rect9371"
     style="font-variation-settings:normal;opacity:1;vector-effect:none;fill:#17181d;fill-opacity:1;stroke-width:1;stroke-linecap:butt;stroke-linejoin:miter;stroke-miterlimit:4;stroke-dasharray:none;stroke-dashoffset:0;stroke-opacity:1;-inkscape-stroke:none;stop-color:#000000;stop-opacity:1" />
  <path
     d="m 29.042379,23.066105 q -0.05639,0.07285 -0.118925,0.139735 c -0.0012,0.0012 -0.0015,0.0033 -0.0031,0.0033 L 17.848115,34.953813 a 1.8454052,1.9574785 0 0 1 -2.609823,-2.768264 l 7.92186,-8.402598 H 5.4707943 a 1.8453756,1.9574471 0 0 1 0,-3.914894 H 23.160152 L 15.238143,11.464955 A 1.8454047,1.9574779 0 0 1 17.847964,8.6966913 L 28.920217,20.441372 c 0.0012,0.0012 0.0015,0.0033 0.0031,0.0033 q 0.06255,0.06688 0.118925,0.139736 c 0.01542,0.02175 0.03076,0.04893 0.05126,0.07014 0.0205,0.0272 0.04101,0.05491 0.05792,0.08374 0.01542,0.0272 0.03076,0.05709 0.05126,0.08536 0.01542,0.0272 0.03076,0.05438 0.04613,0.07884 0.01542,0.0272 0.02564,0.05927 0.04101,0.08917 0.01022,0.0272 0.02564,0.05545 0.03587,0.08429 0.01033,0.0272 0.0205,0.05872 0.03076,0.08863 0.01033,0.03262 0.0205,0.0609 0.03076,0.09245 0.0051,0.0272 0.01542,0.05982 0.0205,0.08917 0.0051,0.03262 0.01542,0.06362 0.0205,0.09624 0.0051,0.03262 0.01033,0.06906 0.01542,0.104402 0.0031,0.0272 0.01033,0.05654 0.01033,0.08536 a 1.8566106,1.9693644 0 0 1 0,0.386595 c -0.0031,0.0272 -0.0051,0.05654 -0.01033,0.08536 -0.0046,0.03262 -0.01022,0.0696 -0.01542,0.104402 -0.0051,0.03262 -0.01542,0.06415 -0.0205,0.09624 -0.01033,0.0272 -0.01542,0.05982 -0.0205,0.08918 -0.01033,0.03262 -0.02051,0.06198 -0.03076,0.09243 -0.01033,0.0272 -0.0205,0.05927 -0.03076,0.08809 -0.01022,0.0272 -0.02564,0.05654 -0.03587,0.08429 -0.01542,0.0272 -0.02564,0.05982 -0.04101,0.08917 -0.01542,0.0272 -0.03076,0.05438 -0.04613,0.07884 -0.01542,0.0272 -0.03076,0.05763 -0.05126,0.08536 -0.02051,0.0272 -0.03589,0.05601 -0.05792,0.08374 -0.01542,0.02175 -0.03076,0.04893 -0.05126,0.07014 z M 33.767051,5.5132982 A 1.8453753,1.9574468 0 0 0 31.921676,7.4707449 V 36.179964 a 1.8453755,1.957447 0 0 0 3.690751,0 V 7.4707449 A 1.8453753,1.9574468 0 0 0 33.767051,5.5132982 Z"
     id="path1"
     style="font-variation-settings:normal;vector-effect:none;fill:url(#paint0_linear);fill-opacity:1;stroke-width:1;stroke-linecap:butt;stroke-linejoin:miter;stroke-miterlimit:4;stroke-dasharray:none;stroke-dashoffset:0;stroke-opacity:1;-inkscape-stroke:none;stop-color:#000000;opacity:1;stop-opacity:1" />
</svg>
