<svg width="128" height="128" viewBox="0 0 128 128" fill="none" xmlns="http://www.w3.org/2000/svg">
<rect width="128" height="128" rx="12" fill="#17181D"/>
<path d="M73.9942 65.4158C73.2131 64.6348 73.2131 63.3684 73.9942 62.5874L88.6668 47.9147C90.4443 46.1373 90.4443 43.2556 88.6668 41.481L86.5222 39.3364C84.7443 37.5584 81.8626 37.5584 80.0879 39.3364L65.4159 54.0084C64.6349 54.7895 63.3684 54.7894 62.5874 54.0083L47.9147 39.3331C46.1373 37.5556 43.2556 37.5556 41.481 39.3331L39.3331 41.4777C37.5556 43.2556 37.5556 46.1373 39.3331 47.912L54.0085 62.5874C54.7896 63.3685 54.7896 64.6348 54.0085 65.4158L39.3364 80.0879C37.5584 81.8659 37.5584 84.7476 39.3364 86.5222L41.481 88.6668C43.2584 90.4443 46.1401 90.4443 47.9147 88.6668L62.5874 73.9942C63.3684 73.2131 64.6348 73.2131 65.4158 73.9942L80.0879 88.6668C81.8659 90.4443 84.7476 90.4443 86.5222 88.6668L88.6668 86.5222C90.4443 84.7443 90.4443 81.8626 88.6668 80.0879L73.9942 65.4158Z" fill="url(#paint0_linear)"/>
<defs>
<linearGradient id="paint0_linear" x1="64" y1="38" x2="64" y2="89.9999" gradientUnits="userSpaceOnUse">
<stop stop-color="#6E6E7E"/>
<stop offset="1" stop-color="#666270"/>
</linearGradient>
</defs>
</svg>

