<svg width="44" height="44" viewBox="0 0 44 44" fill="none" xmlns="http://www.w3.org/2000/svg">
<rect width="44" height="44" rx="6" fill="#17181D"/>
<path d="M22.0001 10.3333C28.4436 10.3333 33.6667 15.5565 33.6667 22C33.6667 28.4435 28.4436 33.6667 22.0001 33.6667C19.2799 33.6707 16.6446 32.7203 14.5532 30.981L14.2686 30.7372L15.3209 28.5182C16.8235 30.0583 18.8122 31.0319 20.9502 31.2742C23.0882 31.5166 25.2443 31.0127 27.0535 29.848C28.8627 28.6832 30.214 26.9292 30.8784 24.8826C31.5429 22.8361 31.4799 20.6228 30.7 18.6174C29.9201 16.612 28.4713 14.9376 26.5987 13.8778C24.7261 12.8179 22.5448 12.4376 20.4241 12.8012C18.3033 13.1648 16.3733 14.25 14.9607 15.8732C13.5482 17.4963 12.7399 19.5577 12.6726 21.7083L12.6667 22H15.5834L12.4264 28.6687C11.0605 26.7135 10.3297 24.3851 10.3334 22C10.3334 15.5565 15.5566 10.3333 22.0001 10.3333Z" fill="url(#paint0_linear)"/>
<defs>
<linearGradient id="paint0_linear" x1="22" y1="10.3333" x2="22" y2="33.6667" gradientUnits="userSpaceOnUse">
<stop stop-color="#6E6E7E"/>
<stop offset="1" stop-color="#666270"/>
</linearGradient>
</defs>
</svg>

