<?xml version="1.0" encoding="UTF-8" standalone="no"?>
<svg
   width="44"
   height="44"
   viewBox="0 0 44 44"
   fill="none"
   version="1.1"
   id="svg14"
   sodipodi:docname="panic.svg"
   inkscape:version="1.3.2 (091e20ef0f, 2023-11-25)"
   xmlns:inkscape="http://www.inkscape.org/namespaces/inkscape"
   xmlns:sodipodi="http://sodipodi.sourceforge.net/DTD/sodipodi-0.dtd"
   xmlns="http://www.w3.org/2000/svg"
   xmlns:svg="http://www.w3.org/2000/svg">
  <sodipodi:namedview
     id="namedview14"
     pagecolor="#505050"
     bordercolor="#ffffff"
     borderopacity="1"
     inkscape:showpageshadow="0"
     inkscape:pageopacity="0"
     inkscape:pagecheckerboard="1"
     inkscape:deskcolor="#505050"
     inkscape:zoom="2.3551136"
     inkscape:cx="38.851629"
     inkscape:cy="-8.7044633"
     inkscape:window-width="1920"
     inkscape:window-height="1011"
     inkscape:window-x="0"
     inkscape:window-y="0"
     inkscape:window-maximized="1"
     inkscape:current-layer="svg14" />
  <defs
     id="defs14">
    <linearGradient
       id="paint0_linear"
       x1="15.4279"
       y1="19.7371"
       x2="15.4279"
       y2="25.8086"
       gradientUnits="userSpaceOnUse">
      <stop
         stop-color="#6E6E7E"
         id="stop5" />
      <stop
         offset="1"
         stop-color="#666270"
         id="stop6" />
    </linearGradient>
    <linearGradient
       id="paint1_linear"
       x1="17.3789"
       y1="9"
       x2="17.3789"
       y2="35"
       gradientUnits="userSpaceOnUse">
      <stop
         stop-color="#6E6E7E"
         id="stop7" />
      <stop
         offset="1"
         stop-color="#666270"
         id="stop8" />
    </linearGradient>
    <linearGradient
       id="paint2_linear"
       x1="31.166"
       y1="21.2383"
       x2="31.166"
       y2="22.7617"
       gradientUnits="userSpaceOnUse">
      <stop
         stop-color="#6E6E7E"
         id="stop9" />
      <stop
         offset="1"
         stop-color="#666270"
         id="stop10" />
    </linearGradient>
    <linearGradient
       id="paint3_linear"
       x1="28.0929"
       y1="28.0935"
       x2="34.1862"
       y2="31.1401"
       gradientUnits="userSpaceOnUse"
       gradientTransform="matrix(1.2920425,0,0,1.2920425,-93.912019,-15.79475)">
      <stop
         stop-color="#6E6E7E"
         id="stop11" />
      <stop
         offset="1"
         stop-color="#666270"
         id="stop12" />
    </linearGradient>
    <linearGradient
       id="paint4_linear"
       x1="30.7998"
       y1="13.7016"
       x2="31.481"
       y2="15.0642"
       gradientUnits="userSpaceOnUse">
      <stop
         stop-color="#6E6E7E"
         id="stop13" />
      <stop
         offset="1"
         stop-color="#666270"
         id="stop14" />
    </linearGradient>
    <linearGradient
       id="paint3_linear-1"
       x1="28.092899"
       y1="28.0935"
       x2="34.186199"
       y2="31.1401"
       gradientUnits="userSpaceOnUse"
       gradientTransform="matrix(5.4424576,0,0,5.5647867,-433.28031,-90.291138)">
      <stop
         stop-color="#6E6E7E"
         id="stop11-8" />
      <stop
         offset="1"
         stop-color="#666270"
         id="stop12-7" />
    </linearGradient>
  </defs>
  <path
     d="m 208.89407,114.4214 c 0,0 4.30964,8.14583 -2.15482,8.14583 -6.81354,0 -6.46446,-14.25826 -2.15482,-16.28964 0,0 -16.49515,1.55807 -20.62162,15.58678 -1.07742,-2.74236 -2.28196,-6.90669 -0.92657,-9.47842 0,0 -6.46447,4.07292 -6.46447,14.25419 0,10.18129 4.30964,20.26506 21.5482,20.26506 17.23855,0 21.5482,-10.0858 21.5482,-18.22961 0,-12.21672 -10.7741,-14.25419 -10.7741,-14.25419 z"
     id="path1-6"
     style="stroke-width:2.09219" />
  <path
     d="m 41.117836,-52.646474 c 0,0 3.882373,7.355358 -1.941194,7.355358 -6.138038,0 -5.823561,-12.874625 -1.941187,-14.70888 0,0 -14.859802,1.406873 -18.577172,14.074227 -0.970602,-2.476242 -2.05572,-6.236465 -0.834712,-8.55863 0,0 -5.823568,3.677679 -5.823568,12.870957 0,9.193284 3.882374,18.298517 19.411884,18.298517 15.529509,0 19.411892,-9.107069 19.411892,-16.460591 0,-11.031204 -9.705943,-12.870958 -9.705943,-12.870958 z"
     id="path1-2"
     style="stroke-width:1.88696" />
  <rect
     width="44"
     height="44"
     rx="6"
     fill="#17181d"
     id="rect1"
     x="0"
     y="0"
     style="stroke-width:1" />
  <path
     d="m 27.107287,15.578695 c 0,0 2.042975,4.29804 -1.021431,4.29804 -3.229935,0 -3.064465,-7.523143 -1.02143,-8.594974 0,0 -7.819502,0.822016 -9.775648,8.224113 -0.510812,-1.447032 -1.081788,-3.644213 -0.439197,-5.001151 0,0 -3.064484,2.149013 -3.064484,7.521005 0,5.371974 2.042978,10.692511 10.214904,10.692511 8.171926,0 10.214902,-5.321607 10.214902,-9.61854 0,-6.445963 -5.107442,-7.521004 -5.107442,-7.521004 z"
     id="path1"
     style="font-variation-settings:normal;vector-effect:none;fill:url(#paint3_linear-1);fill-opacity:1;stroke-width:0.165098;stroke-linecap:butt;stroke-linejoin:miter;stroke-miterlimit:4;stroke-dasharray:none;stroke-dashoffset:0;stroke-opacity:1;-inkscape-stroke:none;stop-color:#000000" />
</svg>
