<?xml version="1.0" encoding="UTF-8" standalone="no"?>
<svg
   width="44"
   height="44"
   viewBox="0 0 44 44"
   fill="none"
   version="1.1"
   id="svg364"
   sodipodi:docname="smooth.svg"
   inkscape:version="1.2.2 (b0a8486541, 2022-12-01)"
   xmlns:inkscape="http://www.inkscape.org/namespaces/inkscape"
   xmlns:sodipodi="http://sodipodi.sourceforge.net/DTD/sodipodi-0.dtd"
   xmlns:xlink="http://www.w3.org/1999/xlink"
   xmlns="http://www.w3.org/2000/svg"
   xmlns:svg="http://www.w3.org/2000/svg">
  <sodipodi:namedview
     id="namedview366"
     pagecolor="#cdcdcd"
     bordercolor="#666666"
     borderopacity="1.0"
     inkscape:showpageshadow="2"
     inkscape:pageopacity="0.0"
     inkscape:pagecheckerboard="0"
     inkscape:deskcolor="#d1d1d1"
     showgrid="false"
     inkscape:zoom="3.603834"
     inkscape:cx="-71.590423"
     inkscape:cy="47.726949"
     inkscape:window-width="1920"
     inkscape:window-height="1007"
     inkscape:window-x="0"
     inkscape:window-y="0"
     inkscape:window-maximized="1"
     inkscape:current-layer="layer1" />
  <rect
     width="44"
     height="44"
     rx="6"
     fill="#17181D"
     id="rect353" />
  <defs
     id="defs362">
    <linearGradient
       id="paint0_linear"
       x1="21.9842"
       y1="12.2816"
       x2="21.9842"
       y2="31.75"
       gradientUnits="userSpaceOnUse">
      <stop
         stop-color="#6E6E7E"
         id="stop357" />
      <stop
         offset="1"
         stop-color="#666270"
         id="stop359" />
    </linearGradient>
    <linearGradient
       inkscape:collect="always"
       xlink:href="#paint0_linear"
       id="linearGradient1143"
       gradientUnits="userSpaceOnUse"
       gradientTransform="matrix(1.6666666,0,0,1.6666666,1.5765721,0.77038991)"
       x1="21.9842"
       y1="12.2816"
       x2="21.9842"
       y2="31.75" />
    <linearGradient
       inkscape:collect="always"
       xlink:href="#paint0_linear"
       id="linearGradient664"
       gradientUnits="userSpaceOnUse"
       gradientTransform="matrix(1.6666666,0,0,1.6666666,1.5765721,0.77038991)"
       x1="21.9842"
       y1="12.2816"
       x2="21.9842"
       y2="31.75" />
    <linearGradient
       inkscape:collect="always"
       xlink:href="#paint0_linear"
       id="linearGradient666"
       gradientUnits="userSpaceOnUse"
       gradientTransform="matrix(1.6666666,0,0,1.6666666,1.5765721,0.77038991)"
       x1="21.9842"
       y1="12.2816"
       x2="21.9842"
       y2="31.75" />
  </defs>
  <g
     inkscape:groupmode="layer"
     id="layer1"
     inkscape:label="Layer 1"
     transform="translate(0.21496295,1.2296679)">
    <g
       id="g194"
       transform="matrix(0.06999562,0,0,0.07053759,3.8661933,2.7127091)"
       style="font-variation-settings:normal;vector-effect:none;fill:url(#linearGradient1143);fill-opacity:1;stroke-width:0.64;stroke-linecap:butt;stroke-linejoin:miter;stroke-miterlimit:4;stroke-dasharray:none;stroke-dashoffset:0;stroke-opacity:1;-inkscape-stroke:none;stop-color:#000000">
	<g
   id="g192"
   style="font-variation-settings:normal;vector-effect:none;fill:url(#linearGradient666);fill-opacity:1;stroke-width:0.64;stroke-linecap:butt;stroke-linejoin:miter;stroke-miterlimit:4;stroke-dasharray:none;stroke-dashoffset:0;stroke-opacity:1;-inkscape-stroke:none;stop-color:#000000;stop-opacity:1">
		<path
   d="m 503.467,0 h -51.2 c -4.71,0 -8.533,3.814 -8.533,8.533 v 51.2 c 0,4.719 3.823,8.533 8.533,8.533 h 16.077 C 453.317,204.398 437.249,311.62 392.534,343.944 V 332.8 c 0,-4.719 -3.823,-8.533 -8.533,-8.533 h -51.2 c -4.71,0 -8.533,3.814 -8.533,8.533 v 9.207 c -24.226,-20.591 -47.59,-60.45 -70.298,-99.26 -22.485,-38.426 -43.793,-74.795 -66.236,-93.269 V 128 c 0,-4.719 -3.823,-8.533 -8.533,-8.533 H 128 c -4.71,0 -8.533,3.814 -8.533,8.533 v 20.326 C 73.634,173.533 45.551,263.023 26.462,443.733 H 8.533 c -4.71,0 -8.533,3.814 -8.533,8.533 v 51.2 C 0,508.186 3.823,512 8.533,512 h 51.2 c 4.71,0 8.533,-3.814 8.533,-8.533 v -51.2 c 0,-4.719 -3.823,-8.533 -8.533,-8.533 H 43.622 C 60.356,286.61 84.676,198.136 119.466,168.969 V 179.2 c 0,4.719 3.823,8.533 8.533,8.533 h 51.2 c 4.71,0 8.533,-3.814 8.533,-8.533 v -5.973 c 16.614,18.56 33.664,47.667 51.499,78.14 26.539,45.363 53.948,92.117 85.035,111.829 V 384 c 0,4.719 3.823,8.533 8.533,8.533 H 384 c 4.71,0 8.533,-3.814 8.533,-8.533 v -20.096 c 58.539,-29.158 75.981,-141.21 92.979,-295.637 h 17.954 c 4.71,0 8.533,-3.814 8.533,-8.533 V 8.534 C 512,3.814 508.177,0 503.467,0 Z M 51.2,460.8 v 34.133 H 17.067 V 460.8 Z M 170.667,170.667 h -34.133 v -34.133 h 34.133 z m 204.8,204.8 h -34.133 v -34.133 h 34.133 z M 494.933,51.2 H 460.8 V 17.067 h 34.133 z"
   id="path190"
   style="font-variation-settings:normal;vector-effect:none;fill:url(#linearGradient664);fill-opacity:1;stroke-width:0.64;stroke-linecap:butt;stroke-linejoin:miter;stroke-miterlimit:4;stroke-dasharray:none;stroke-dashoffset:0;stroke-opacity:1;-inkscape-stroke:none;stop-color:#000000;stop-opacity:1" />

	</g>

</g>
  </g>
</svg>
