<svg width="36" height="36" viewBox="0 0 36 36" fill="none" xmlns="http://www.w3.org/2000/svg">
<rect width="36" height="36" rx="6" fill="#1F1F27"/>
<path d="M17.584 26.168C16.352 26.168 15.248 25.968 14.272 25.568C13.296 25.168 12.512 24.576 11.92 23.792C11.344 23.008 11.04 22.064 11.008 20.96H15.376C15.44 21.584 15.656 22.064 16.024 22.4C16.392 22.72 16.872 22.88 17.464 22.88C18.072 22.88 18.552 22.744 18.904 22.472C19.256 22.184 19.432 21.792 19.432 21.296C19.432 20.88 19.288 20.536 19 20.264C18.728 19.992 18.384 19.768 17.968 19.592C17.568 19.416 16.992 19.216 16.24 18.992C15.152 18.656 14.264 18.32 13.576 17.984C12.888 17.648 12.296 17.152 11.8 16.496C11.304 15.84 11.056 14.984 11.056 13.928C11.056 12.36 11.624 11.136 12.76 10.256C13.896 9.36 15.376 8.912 17.2 8.912C19.056 8.912 20.552 9.36 21.688 10.256C22.824 11.136 23.432 12.368 23.512 13.952H19.072C19.04 13.408 18.84 12.984 18.472 12.68C18.104 12.36 17.632 12.2 17.056 12.2C16.56 12.2 16.16 12.336 15.856 12.608C15.552 12.864 15.4 13.24 15.4 13.736C15.4 14.28 15.656 14.704 16.168 15.008C16.68 15.312 17.48 15.64 18.568 15.992C19.656 16.36 20.536 16.712 21.208 17.048C21.896 17.384 22.488 17.872 22.984 18.512C23.48 19.152 23.728 19.976 23.728 20.984C23.728 21.944 23.48 22.816 22.984 23.6C22.504 24.384 21.8 25.008 20.872 25.472C19.944 25.936 18.848 26.168 17.584 26.168Z" fill="url(#paint0_linear)"/>
<defs>
<linearGradient id="paint0_linear" x1="17.5" y1="0" x2="17.5" y2="36" gradientUnits="userSpaceOnUse">
<stop stop-color="#6E6E7E"/>
<stop offset="1" stop-color="#666270"/>
</linearGradient>
</defs>
</svg>

