<?xml version="1.0" encoding="UTF-8" standalone="no"?>
<svg
   width="20.103992"
   height="215.53008"
   viewBox="0 0 20.103992 215.53008"
   fill="none"
   version="1.1"
   id="svg4"
   sodipodi:docname="logo.svg"
   inkscape:version="1.1 (c68e22c387, 2021-05-23)"
   xmlns:inkscape="http://www.inkscape.org/namespaces/inkscape"
   xmlns:sodipodi="http://sodipodi.sourceforge.net/DTD/sodipodi-0.dtd"
   xmlns="http://www.w3.org/2000/svg"
   xmlns:svg="http://www.w3.org/2000/svg">
  <defs
     id="defs8" />
  <sodipodi:namedview
     id="namedview6"
     pagecolor="#ffffff"
     bordercolor="#666666"
     borderopacity="1.0"
     inkscape:pageshadow="2"
     inkscape:pageopacity="0.0"
     inkscape:pagecheckerboard="0"
     showgrid="false"
     fit-margin-top="0"
     fit-margin-left="0"
     fit-margin-right="0"
     fit-margin-bottom="0"
     inkscape:zoom="5.8341014"
     inkscape:cx="-23.825434"
     inkscape:cy="107.55727"
     inkscape:window-width="1920"
     inkscape:window-height="1009"
     inkscape:window-x="0"
     inkscape:window-y="0"
     inkscape:window-maximized="1"
     inkscape:current-layer="svg4" />
  <path
     d="m 20.103992,207.38354 c 0,1.56487 -0.19331,3.08372 -0.5799,4.55654 -0.3866,1.47282 -0.9021,2.66948 -1.5465,3.59 l -4.0318,-1.795 c 0.5707,-0.86528 1.031,-1.86864 1.3807,-3.01008 0.3498,-1.14143 0.5247,-2.26446 0.5247,-3.36907 0,-2.09873 -0.5247,-3.14813 -1.574,-3.14813 -0.5523,0 -0.9574,0.3037 -1.2151,0.9113 -0.2762,0.5891 -0.56151,1.54644 -0.8561,2.87198 -0.313,1.45441 -0.6443,2.66949 -0.9941,3.64523 -0.3682,0.97574 -0.9482,1.81341 -1.7398,2.513 -0.79165,0.69959 -1.85945,1.04938 -3.2034,1.04938 -1.17825,0 -2.23684,-0.32218 -3.17577,-0.96654 -0.95733,-0.64435 -1.712155,-1.60169 -2.264455,-2.872 C 0.276157,210.07144 0,208.49736 0,206.63792 c 0,-1.27032 0.147282,-2.52222 0.441847,-3.75572 0.27615,-1.2335 0.69038,-2.3197 1.24269,-3.2586 l 4.059465,1.6846 c -0.99415,1.841 -1.49123,3.6268 -1.49123,5.35734 0,1.08621 0.16569,1.87785 0.49708,2.37492 0.31297,0.49708 0.7272,0.74562 1.24269,0.74562 0.51549,0 0.9021,-0.29457 1.15985,-0.88369 0.25774,-0.58913 0.52469,-1.53726 0.80084,-2.84439 0.31298,-1.4728 0.65357,-2.6879 1.02177,-3.6452 0.34979,-0.9758 0.92049,-1.8134 1.71219,-2.513 0.7732,-0.718 1.8318,-1.077 3.1757,-1.077 1.1599,0 2.2093,0.3222 3.1482,0.9665 0.9389,0.6444 1.6937,1.6109 2.2644,2.8996 0.5524,1.2887 0.8285,2.8536 0.8285,4.69464 z M 4.722232,192.1759 v 5.9373 H 0.386617 v -17.3149 h 4.335615 v 5.9097 h 14.99516 v 5.4679 z m 11.23946,-25.6715 v 8.1741 l 3.7557,1.5189 v 5.5783 L 0.386617,173.2425 v -5.385 l 19.330775,-8.5607 v 5.6887 z m -4.0318,1.6017 -6.18589,2.4853 6.18589,2.4854 z m 2.651,-19.0859 v 2.9824 h 5.1365 v 5.4679 H 0.386617 v -8.8369 c 0,-1.749 0.29456,-3.2679 0.88369,-4.5566 0.570725,-1.2887 1.399185,-2.2829 2.485395,-2.9824 1.06779,-0.6996 2.32889,-1.0494 3.7833,-1.0494 1.39917,0 2.62349,0.3314 3.67289,0.9941 1.0309,0.6444 1.841,1.5741 2.4301,2.7892 l 6.0754,-4.1699 v 5.8544 z m -7.04189,-3.452 c -0.9021,0 -1.60169,0.2854 -2.09877,0.8561 -0.49707,0.5707 -0.74561,1.4176 -0.74561,2.5406 v 3.0377 h 5.66117 v -3.0377 c 0,-1.123 -0.2394,-1.9699 -0.718,-2.5406 -0.4971,-0.5707 -1.19669,-0.8561 -2.09879,-0.8561 z m 2.09879,-21.7674 v -4.8326 h 8.0084 c 0.7917,1.1046 1.3992,2.3749 1.82269,3.8109 0.42341,1.436 0.63511,2.872 0.63511,4.308 0,2.0251 -0.4234,3.8477 -1.2703,5.4678 -0.8653,1.6201 -2.0619,2.8904 -3.59,3.8109 -1.528,0.9206 -3.2586,1.3808 -5.1917,1.3808 -1.93307,0 -3.66363,-0.4602 -5.19168,-1.3808 -1.52805,-0.9205 -2.71551,-2.2 -3.562385,-3.8385 C 0.432637,130.8888 0,129.0386 0,126.9766 c 0,-1.8042 0.303767,-3.4243 0.911307,-4.8603 0.60754,-1.436 1.482035,-2.6327 2.623465,-3.59 l 3.14815,3.4795 c -1.43599,1.3072 -2.15399,2.872 -2.15399,4.6947 0,1.6569 0.50628,2.9916 1.51884,4.0042 0.99415,1.0126 2.3289,1.5188 4.00422,1.5188 1.0678,0 2.0251,-0.2301 2.872,-0.6903 0.8285,-0.4603 1.482,-1.1047 1.9607,-1.9331 0.4603,-0.8285 0.69039,-1.7766 0.69039,-2.8444 0,-1.0494 -0.21169,-2.0343 -0.63519,-2.9549 z m 6.3239,-21.5268 v 8.174 l 3.7557,1.519 v 5.5781 L 0.386617,109.012 v -5.385 l 19.330775,-8.561 v 5.689 z m -4.0318,1.601 -6.18589,2.486 6.18589,2.485 z M 4.722232,90.096 v 5.937 H 0.386617 V 78.719 h 4.335615 v 5.909 h 14.99516 v 5.468 z m 10.76996,-29.211 h 4.2252 v 15.52 H 0.386617 V 61.244 h 4.225155 v 9.749 h 3.25862 v -8.589 h 4.0871 v 8.589 h 3.5347 z M 2.154002,46.004 h 7.59419 v -9.997 h 1.7674 v 9.997 h 8.2018 v 2.043 H 0.386617 V 34.792 H 2.154002 Z M 0.386617,10.219 H 19.717392 V 12.18 H 4.252772 l 13.00682,7.594 v 0.967 l -12.92397,7.594 h 15.38177 v 1.961 H 0.386617 V 28.611 L 14.718992,20.216 0.386617,11.904 Z m 0,-10.219 H 19.717392 V 1.988 H 2.154002 V 6.544 H 0.386617 Z"
     fill="#ffffff"
     fill-opacity="0.9"
     id="path2" />
</svg>
