<?xml version="1.0" encoding="UTF-8" standalone="no"?>
<svg
   width="20.877211"
   height="271.68906"
   viewBox="0 0 20.877211 271.68906"
   fill="none"
   version="1.1"
   id="svg4"
   sodipodi:docname="logo.svg"
   inkscape:version="1.1 (c68e22c387, 2021-05-23)"
   xmlns:inkscape="http://www.inkscape.org/namespaces/inkscape"
   xmlns:sodipodi="http://sodipodi.sourceforge.net/DTD/sodipodi-0.dtd"
   xmlns="http://www.w3.org/2000/svg"
   xmlns:svg="http://www.w3.org/2000/svg">
  <defs
     id="defs8" />
  <sodipodi:namedview
     id="namedview6"
     pagecolor="#ffffff"
     bordercolor="#666666"
     borderopacity="1.0"
     inkscape:pageshadow="2"
     inkscape:pageopacity="0.0"
     inkscape:pagecheckerboard="0"
     showgrid="false"
     fit-margin-top="0"
     fit-margin-left="0"
     fit-margin-right="0"
     fit-margin-bottom="0"
     inkscape:zoom="4.5604396"
     inkscape:cx="10.415663"
     inkscape:cy="135.95181"
     inkscape:window-width="1920"
     inkscape:window-height="1011"
     inkscape:window-x="0"
     inkscape:window-y="0"
     inkscape:window-maximized="1"
     inkscape:current-layer="svg4" />
  <path
     d="m 20.87721,263.54254 c 0,1.56487 -0.1933,3.08372 -0.5799,4.55654 -0.3866,1.47282 -0.9021,2.66948 -1.5465,3.58999 l -4.0318,-1.79499 c 0.5707,-0.86528 1.031,-1.86864 1.3808,-3.01008 0.3497,-1.14143 0.5246,-2.26446 0.5246,-3.36907 0,-2.09873 -0.5246,-3.14813 -1.574,-3.14813 -0.5523,0 -0.9574,0.3037 -1.2151,0.9113 -0.2762,0.5891 -0.5615,1.54644 -0.8561,2.87198 -0.313,1.45441 -0.6443,2.66949 -0.9941,3.64523 -0.3682,0.97574 -0.9482,1.81341 -1.7398,2.513 -0.79165,0.69959 -1.85944,1.04938 -3.20339,1.04938 -1.17826,0 -2.23684,-0.32218 -3.17577,-0.96654 -0.95733,-0.64435 -1.71215,-1.60169 -2.26446,-2.872 -0.55231,-1.28871 -0.82846,-2.86279 -0.82846,-4.72223 0,-1.27032 0.14728,-2.52222 0.44185,-3.75572 0.27615,-1.2335 0.69038,-2.3197 1.24269,-3.2586 l 4.05946,1.6846 c -0.99415,1.841 -1.49123,3.6268 -1.49123,5.35734 0,1.08621 0.16569,1.87785 0.49707,2.37492 0.31298,0.49708 0.72721,0.74562 1.2427,0.74562 0.51548,0 0.9021,-0.29457 1.15984,-0.88369 0.25775,-0.58913 0.52469,-1.53726 0.80085,-2.84439 0.31297,-1.4728 0.65356,-2.6879 1.02175,-3.6452 0.3498,-0.9758 0.9205,-1.8134 1.7122,-2.513 0.7732,-0.718 1.8318,-1.077 3.1757,-1.077 1.1599,0 2.2093,0.3222 3.1482,0.9665 0.9389,0.6444 1.6937,1.6109 2.2645,2.8996 0.5523,1.2887 0.8284,2.8536 0.8284,4.69464 z M 5.49546,248.3349 v 5.9373 H 1.15984 v -17.3149 h 4.33562 v 5.9097 h 14.99515 v 5.4679 z m 11.23945,-25.6715 v 8.1741 l 3.7557,1.5189 v 5.5783 L 1.15984,229.4015 v -5.385 l 19.33077,-8.5607 v 5.6887 z m -4.0318,1.6017 -6.18588,2.4853 6.18588,2.4854 z m 2.651,-19.0859 v 2.9824 h 5.1365 v 5.4679 H 1.15984 v -8.8369 c 0,-1.749 0.29457,-3.2679 0.8837,-4.5566 0.57071,-1.2887 1.39918,-2.2829 2.48538,-2.9824 1.0678,-0.6996 2.3289,-1.0494 3.78331,-1.0494 1.39918,0 2.62348,0.3314 3.67288,0.9941 1.0309,0.6444 1.841,1.5741 2.4301,2.7892 l 6.0754,-4.1699 v 5.8544 z m -7.04188,-3.452 c -0.9021,0 -1.60169,0.2854 -2.09877,0.8561 -0.49708,0.5707 -0.74562,1.4176 -0.74562,2.5406 v 3.0377 h 5.66117 v -3.0377 c 0,-1.123 -0.2393,-1.9699 -0.718,-2.5406 -0.4971,-0.5707 -1.19668,-0.8561 -2.09878,-0.8561 z m 2.09878,-21.7674 v -4.8326 h 8.0084 c 0.7917,1.1046 1.3992,2.3749 1.8227,3.8109 0.4234,1.436 0.6351,2.872 0.6351,4.308 0,2.0251 -0.4234,3.8477 -1.2703,5.4678 -0.8653,1.6201 -2.0619,2.8904 -3.59,3.8109 -1.528,0.9206 -3.2586,1.3808 -5.1917,1.3808 -1.93306,0 -3.66362,-0.4602 -5.19167,-1.3808 -1.52806,-0.9205 -2.71552,-2.2 -3.56239,-3.8385 -0.86528,-1.6385 -1.29792,-3.4887 -1.29792,-5.5507 0,-1.8042 0.30377,-3.4243 0.91131,-4.8603 0.60754,-1.436 1.48202,-2.6327 2.62346,-3.59 l 3.14815,3.4795 c -1.436,1.3072 -2.154,2.872 -2.154,4.6947 0,1.6569 0.50628,2.9916 1.51885,4.0042 0.99415,1.0126 2.32889,1.5188 4.00421,1.5188 1.0678,0 2.0251,-0.2301 2.872,-0.6903 0.8285,-0.4603 1.482,-1.1047 1.9607,-1.9331 0.4603,-0.8285 0.6904,-1.7766 0.6904,-2.8444 0,-1.0494 -0.2117,-2.0343 -0.6352,-2.9549 z m 6.3239,-21.5268 v 8.174 l 3.7557,1.519 v 5.5781 L 1.15984,165.171 v -5.385 l 19.33077,-8.561 v 5.689 z m -4.0318,1.601 -6.18588,2.486 6.18588,2.485 z M 5.49546,146.255 v 5.937 H 1.15984 v -17.314 h 4.33562 v 5.909 h 14.99515 v 5.468 z m 10.76995,-29.211 h 4.2252 v 15.52 H 1.15984 V 117.403 H 5.385 v 9.749 h 3.25861 v -8.589 h 4.0871 v 8.589 h 3.5347 z M 1.15984,84.13 h 19.33077 v 1.961 H 5.026 l 13.00681,7.594 v 0.966 l -12.92397,7.595 h 15.38177 v 1.96 H 1.15984 v -1.684 L 15.49221,94.127 1.15984,85.814 Z M 5.96492,64.88 h 14.52569 v 1.878 h -2.6511 c 0.8837,0.515 1.5741,1.224 2.0712,2.126 0.4786,0.902 0.718,1.933 0.718,3.093 0,1.896 -0.5247,3.397 -1.5741,4.501 -1.0678,1.087 -2.6235,1.63 -4.667,1.63 H 5.96492 v -1.961 h 8.22939 c 1.528,0 2.6879,-0.377 3.4795,-1.132 0.7917,-0.755 1.1875,-1.832 1.1875,-3.231 0,-1.528 -0.4603,-2.734 -1.3808,-3.618 -0.9389,-0.884 -2.2368,-1.325 -3.8937,-1.325 H 5.96492 Z M 0,59.112 v -1.96 h 20.49061 v 1.96 z M 19.60691,43.717 c 0.3314,0.368 0.5891,0.828 0.7732,1.38 0.1657,0.534 0.2486,1.096 0.2486,1.685 0,1.362 -0.3682,2.412 -1.1046,3.148 -0.7364,0.736 -1.7766,1.105 -3.1206,1.105 H 7.62184 v 2.596 H 5.96492 V 51.035 H 2.78915 v -1.961 h 3.17577 v -4.418 h 1.65692 v 4.418 h 8.67127 c 0.8652,0 1.528,-0.212 1.9883,-0.635 0.4418,-0.442 0.6627,-1.068 0.6627,-1.878 0,-0.405 -0.0644,-0.792 -0.1933,-1.16 -0.1288,-0.386 -0.3129,-0.718 -0.5523,-0.994 z M 5.96492,39.871 V 37.91 h 14.52569 v 1.961 z M 2.78915,38.877 c 0,0.405 -0.13807,0.746 -0.41423,1.022 -0.27615,0.276 -0.60754,0.414 -0.99415,0.414 -0.36821,0 -0.69039,-0.138 -0.96654,-0.414 C 0.13808,39.623 0,39.282 0,38.877 c 0,-0.405 0.13808,-0.746 0.41423,-1.022 0.25774,-0.276 0.57072,-0.414 0.93892,-0.414 0.40503,0 0.74562,0.138 1.02177,0.414 0.27616,0.276 0.41423,0.617 0.41423,1.022 z m 0.13808,-9.156 h 7.59418 v -9.997 h 1.7674 v 9.997 h 8.2018 v 2.044 H 1.15984 V 18.509 h 1.76739 z m 17.56338,-27.346 -8.5055,6.241 8.5055,6.214 v 2.347 L 10.54911,9.831 1.15984,16.708 V 14.36 l 7.898,-5.826 -7.898,-5.8 V 0.525 L 10.49381,7.374 20.49061,0 Z"
     fill="#ffffff"
     id="path2" />
</svg>
