<?xml version="1.0" encoding="UTF-8" standalone="no"?>
<svg
   width="44"
   height="44"
   viewBox="0 0 44 44"
   fill="none"
   version="1.1"
   id="svg2"
   sodipodi:docname="daw.svg"
   inkscape:version="1.3.2 (091e20ef0f, 2023-11-25)"
   xmlns:inkscape="http://www.inkscape.org/namespaces/inkscape"
   xmlns:sodipodi="http://sodipodi.sourceforge.net/DTD/sodipodi-0.dtd"
   xmlns="http://www.w3.org/2000/svg"
   xmlns:svg="http://www.w3.org/2000/svg">
  <defs
     id="defs2" />
  <sodipodi:namedview
     id="namedview2"
     pagecolor="#505050"
     bordercolor="#ffffff"
     borderopacity="1"
     inkscape:showpageshadow="0"
     inkscape:pageopacity="0"
     inkscape:pagecheckerboard="1"
     inkscape:deskcolor="#505050"
     inkscape:zoom="4.2556818"
     inkscape:cx="-3.4072096"
     inkscape:cy="33.719626"
     inkscape:window-width="1920"
     inkscape:window-height="1011"
     inkscape:window-x="0"
     inkscape:window-y="0"
     inkscape:window-maximized="1"
     inkscape:current-layer="svg2" />
  <rect
     width="44"
     height="44"
     rx="6"
     fill="#8212F2"
     id="rect1" />
  <path
     fill="#231f20"
     d="M 31.129805,11.567703 H 12.870196 c -0.720928,0 -1.304258,0.583229 -1.304258,1.304038 v 18.25652 c 0,0.720806 0.58333,1.304037 1.304258,1.304037 h 18.259609 c 0.720928,0 1.304257,-0.583231 1.304257,-1.304037 v -18.25652 c 0,-0.720809 -0.583329,-1.304038 -1.304257,-1.304038 z m -14.6729,20.212576 h -3.586709 c -0.359975,0 -0.652129,-0.292105 -0.652129,-0.652018 v -18.25652 c 0,-0.359914 0.209008,-0.65202 0.652129,-0.65202 h 2.282451 v 12.714362 c 0,0.180284 0.145752,0.32601 0.326065,0.32601 h 0.978193 z m 5.217032,0 h -4.564903 v -6.520186 h 0.978193 c 0.180313,0 0.326064,-0.145726 0.326064,-0.32601 V 12.219721 h 1.956388 v 12.714362 c 0,0.180284 0.145751,0.32601 0.326064,0.32601 h 0.978193 z m 5.21703,0 h -4.564903 v -6.520186 h 0.978194 c 0.180314,0 0.326065,-0.145726 0.326065,-0.32601 V 12.219721 h 1.956387 v 12.714362 c 0,0.180284 0.145751,0.32601 0.326063,0.32601 h 0.978193 z m 4.890966,-0.652018 c 0,0.359913 -0.292153,0.652018 -0.652128,0.652018 h -3.586709 v -6.520186 h 0.978193 c 0.180313,0 0.326065,-0.145726 0.326065,-0.32601 V 12.219721 h 2.282451 c 0.331282,0 0.652128,0.292106 0.652128,0.65202 z"
     id="path1"
     style="stroke-width:0.326038" />
</svg>
