<svg width="44" height="44" viewBox="0 0 44 44" fill="none" xmlns="http://www.w3.org/2000/svg">
<rect width="44" height="44" rx="6" fill="#8212F2"/>
<path d="M24.1667 29.5834H31.75V31.75H22L17.6689 31.7522L10.6413 24.7246C10.4382 24.5215 10.3241 24.246 10.3241 23.9587C10.3241 23.6715 10.4382 23.396 10.6413 23.1928L22.13 11.7019C22.2306 11.6012 22.3501 11.5213 22.4816 11.4667C22.6132 11.4122 22.7541 11.3842 22.8965 11.3842C23.0389 11.3842 23.1798 11.4122 23.3113 11.4667C23.4429 11.5213 23.5623 11.6012 23.663 11.7019L32.0891 20.128C32.2922 20.3312 32.4063 20.6067 32.4063 20.894C32.4063 21.1812 32.2922 21.4567 32.0891 21.6599L24.1667 29.5834ZM25.9618 24.7246L29.7914 20.894L22.897 13.9996L19.0674 17.8303L25.9618 24.7246Z" fill="#cdcdcd"/>
<defs>
<linearGradient id="paint0_linear" x1="21.3652" y1="11.3842" x2="21.3652" y2="31.7522" gradientUnits="userSpaceOnUse">
<stop stop-color="#6E6E7E"/>
<stop offset="1" stop-color="#666270"/>
</linearGradient>
</defs>
</svg>


