<?xml version="1.0" encoding="UTF-8" standalone="no"?>
<!-- Created with Inkscape (http://www.inkscape.org/) -->

<svg
   version="1.1"
   id="svg2"
   xml:space="preserve"
   width="226.73557"
   height="207.09332"
   viewBox="0 0 226.73557 207.09332"
   sodipodi:docname="icon.svg"
   inkscape:version="1.1 (c68e22c387, 2021-05-23)"
   xmlns:inkscape="http://www.inkscape.org/namespaces/inkscape"
   xmlns:sodipodi="http://sodipodi.sourceforge.net/DTD/sodipodi-0.dtd"
   xmlns="http://www.w3.org/2000/svg"
   xmlns:svg="http://www.w3.org/2000/svg"><defs
     id="defs6"><clipPath
       clipPathUnits="userSpaceOnUse"
       id="clipPath512"><path
         d="m 3187.32,1417.63 c -22.25,0 -44.62,2.06 -66.79,4.12 -32.45,3.03 -66.63,6.68 -93,25.81 -4.99,3.63 -9.69,8.12 -13.88,13.21 32.07,72.24 73.1,147.02 115.09,223.51 26.87,48.96 54.66,99.58 80.78,150.74 113.64,222.59 88.56,430.37 74.1,504.21 37.01,-27.33 88.45,-65.48 139.37,-103.85 -2.57,-60.84 -17.59,-354.76 -71.66,-477.29 -38.9,-88.14 -80.28,-217.85 -108.18,-334.82 -3.15,-0.73 -6.32,-1.37 -9.48,-1.93 -15.32,-2.7 -30.81,-3.71 -46.35,-3.71"
         id="path510" /></clipPath><linearGradient
       x1="0"
       y1="0"
       x2="1"
       y2="0"
       gradientUnits="userSpaceOnUse"
       gradientTransform="matrix(472.291,0,0,-472.291,2950.7,1753.08)"
       spreadMethod="pad"
       id="linearGradient518"><stop
         style="stop-opacity:1;stop-color:#7840a4"
         offset="0"
         id="stop514" /><stop
         style="stop-opacity:1;stop-color:#445bb2"
         offset="1"
         id="stop516" /></linearGradient><clipPath
       clipPathUnits="userSpaceOnUse"
       id="clipPath542"><path
         d="m 1918.14,1166.93 h -5.7 c -2.11,11.04 -5.68,22.66 -11.17,34.86 -3.5,7.76 -7.29,14.48 -11.37,20.15 16.21,-14.07 27.45,-34.52 28.24,-55.01 m -121.48,44.73 c -0.02,3.52 -0.1,7.16 -0.25,10.93 8.9,7.35 19.46,12.77 30.6,15.54 -11.57,-6.28 -21.98,-16.21 -30.35,-26.47 m -24.55,202.98 c -2.23,0 -4.49,0.02 -6.77,0.08 -27.9,119.16 -70.35,253.08 -110.2,343.37 -55.08,124.83 -69.64,427.69 -71.79,480.48 51.1,37.67 102.69,75.06 139.72,101.75 -14.44,-72.9 -40.3,-281.64 73.89,-505.3 26.11,-51.15 53.9,-101.77 80.77,-150.73 45.74,-83.32 90.34,-164.62 123.47,-242.81 -5.46,-4.55 -11.45,-8.43 -17.73,-11.47 -27.99,-13.52 -60.25,-14.06 -91.34,-14.33 -39,-0.34 -78,-0.69 -116.99,-1.03 -1.01,-0.01 -2.01,-0.01 -3.03,-0.01"
         id="path540" /></clipPath><linearGradient
       x1="0"
       y1="0"
       x2="1"
       y2="0"
       gradientUnits="userSpaceOnUse"
       gradientTransform="matrix(472.421,0,0,-472.421,1583.35,1753.63)"
       spreadMethod="pad"
       id="linearGradient548"><stop
         style="stop-opacity:1;stop-color:#7840a4"
         offset="0"
         id="stop544" /><stop
         style="stop-opacity:1;stop-color:#445bb2"
         offset="1"
         id="stop546" /></linearGradient><clipPath
       clipPathUnits="userSpaceOnUse"
       id="clipPath860"><path
         d="m 493.496,303.719 c -23.433,0 -47,2.261 -70.473,6.84 C 279.84,338.551 184.699,443.699 140.242,623.09 120.547,702.578 129.402,788.238 165.184,864.289 231.91,1006.1 316.707,1090.22 418.406,1116 l 26.192,-0.78 c 10.336,4.21 21.379,6.09 32.507,6.09 14.586,0 29.329,-3.24 42.868,-8.75 23.882,-9.71 44.531,-25.95 63.547,-43.37 75.812,-69.409 130.726,-161.37 155.878,-261.049 25.149,-99.672 20.45,-206.68 -13.355,-303.762 -16.285,-46.77 -39.445,-91.641 -72.219,-128.77 -23.172,-26.257 -51.379,-48.507 -82.906,-63.527 -25.387,-5.551 -51.316,-8.363 -77.422,-8.363 m 4019.494,0.011 c -67.36,0 -133.48,18.692 -192.34,54.86 -118.25,139.308 -166.86,359.262 -107.91,531.398 33.15,96.762 107.21,180.702 201.83,218.442 l 3.4,0.98 c 34.85,10.09 68.33,15.13 100.35,15.13 133.2,0 241.52,-87.13 322.97,-260.251 35.79,-76.051 44.64,-161.711 24.94,-241.199 -44.46,-179.391 -139.59,-284.539 -282.78,-312.531 -23.46,-4.571 -47.04,-6.829 -70.46,-6.829 m -388.73,473.899 c -19.33,229.291 -12.92,512.151 -7.13,767.571 2.18,96.65 4.31,190.79 4.86,276.95 10.9,25.82 37.79,45.65 65.63,50.75 5.83,1.07 11.71,1.58 17.57,1.58 29.04,0 57.91,-12.45 80.43,-31.24 27.07,-22.58 45.99,-53.46 60.87,-85.41 24.67,-52.99 39.74,-109.08 48.5,-166.71 l 6.45,-293.54 c 0.1,1.81 0.2,3.61 0.29,5.42 -0.24,-23.8 -0.53,-47.35 -0.87,-70.56 -20.97,-48.47 -68.73,-88.35 -120.11,-95.67 -5.89,-0.84 -11.8,-1.24 -17.69,-1.24 -62.2,0 -122.58,45.23 -140.15,104.89 -1.21,6.04 -2.51,12.06 -3.92,18.07 0.86,-6.14 2.18,-12.18 3.92,-18.07 30.05,-150.33 0.43,-309.611 1.35,-462.791 M 861.656,844.211 c -16.922,98.461 -81.449,188.489 -167.09,239.939 -27.058,16.25 -56.378,28.58 -86.82,36.85 l -0.078,3.17 c -7.992,332.98 -1.773,803.6 -0.293,903.93 0.082,-0.05 0.164,-0.1 0.242,-0.15 v -248.51 c -1.441,-6.9 -1.551,-13.98 0,-20.94 v 20.94 c 5.375,25.69 29.25,49.03 55.004,55.41 6.481,1.61 13.059,2.36 19.637,2.36 26.594,0 53.183,-12.31 73.293,-30.32 25.078,-22.47 41.66,-52.76 56.023,-83.21 40.942,-86.79 68.188,-180.11 79.918,-275.31 2.731,-128.76 4.805,-261.79 3.067,-389.26 -8.325,-72.04 -19.461,-143.751 -32.903,-214.899 M 4402.79,1519.88 c -1.69,23.93 -4.22,47.71 -7.8,71.24 l -9.43,429.48 c 4.58,2.33 9.1,4.83 13.53,7.49 0.94,-63.63 3.79,-276.24 3.7,-508.21 M 885.73,2023.85 c 0.676,1.1 1.333,2.21 1.965,3.33 -0.023,-0.5 -0.047,-1.01 -0.074,-1.5 -0.621,-0.62 -1.254,-1.23 -1.891,-1.83 m -85.214,851.83 c -21.215,0 -46.434,8.98 -76.028,32.59 -101.187,80.7 -111.168,491.85 -111.441,639.08 0.113,17.42 0.234,34.77 0.355,52.14 l 0.004,0.38 c 0,0 0,-0.05 -0.004,-0.13 2.434,350.38 5.696,687.07 9.903,862.81 40.808,21.17 80.136,30.54 117.859,30.54 196.035,0 349.196,-252.79 447.416,-414.91 15.39,-25.4 29.92,-49.39 42.99,-69.73 72.61,-113.02 78.2,-180.05 74.33,-211.39 -26.66,29.91 -81.5,92.87 -151.98,181.58 -81.03,102 -243.076,203.21 -249.94,207.46 l -24.398,15.15 10.859,-206.14 3.903,-4.04 c 95.203,-98.46 317.466,-366.16 275.456,-489.62 -76.64,122.97 -200.362,269.92 -259.73,290.66 l -18.375,6.41 -1.523,-19.4 c -11.176,-142.01 -12.531,-555.72 -11.945,-849.99 -14.832,-25.05 -39.961,-53.45 -77.711,-53.45 m 3503.314,7.94 c -5.44,0 -10.89,0.69 -16.24,2.16 -21.51,5.92 -37.85,23.16 -51.78,40.59 -59.05,73.88 -97.84,165.68 -107.67,259.87 -0.76,240.98 -3.69,489.26 -11.84,592.88 l -1.53,19.4 -18.38,-6.41 c -59.36,-20.75 -183.08,-167.69 -259.71,-290.66 -41.99,123.43 180.25,391.14 275.45,489.62 l 3.9,4.04 10.86,206.14 -24.4,-15.15 c -6.87,-4.25 -168.91,-105.46 -249.94,-207.46 -70.44,-88.68 -125.26,-151.62 -151.94,-181.54 -3.89,31.48 1.78,98.47 74.29,211.35 13.08,20.34 27.61,44.33 43,69.73 98.21,162.11 251.32,414.93 447.35,414.93 37.75,0 77.07,-9.37 117.91,-30.56 6.89,-287.29 11.24,-1004.84 13.56,-1508.89 -9.6,-16.14 -20.72,-31.49 -34.04,-44.22 -15.83,-15.13 -37.35,-25.82 -58.85,-25.82"
         id="path858" /></clipPath><linearGradient
       x1="0"
       y1="0"
       x2="1"
       y2="0"
       gradientUnits="userSpaceOnUse"
       gradientTransform="matrix(0,4704.64,4704.64,0,2503.24,-147.74)"
       spreadMethod="pad"
       id="linearGradient866"><stop
         style="stop-opacity:1;stop-color:#7840a4"
         offset="0"
         id="stop862" /><stop
         style="stop-opacity:1;stop-color:#445bb2"
         offset="1"
         id="stop864" /></linearGradient><clipPath
       clipPathUnits="userSpaceOnUse"
       id="clipPath884"><path
         d="m 815.934,2409.17 c -28.387,4.51 -56.918,7.39 -85.422,9.38 -30.551,2.03 -61.039,2.99 -91.602,2.99 -10.398,0 -20.801,-0.11 -31.222,-0.33 0.179,60.13 1.843,600.22 5.359,1126.14 0.273,-147.23 10.254,-558.38 111.441,-639.08 29.594,-23.61 54.813,-32.59 76.028,-32.59 37.75,0 62.879,28.4 77.711,53.45 0.242,-121.08 0.808,-221.92 1.16,-275.33 -30.586,29.21 -47.047,37.82 -58.145,37.82 -5.121,0 -9.097,-1.84 -12.797,-4.33 -25.386,-17.09 -41.769,-54.28 -44.957,-102.01 -3.433,-51.48 9.524,-120.48 52.446,-176.11"
         id="path882" /></clipPath><linearGradient
       x1="0"
       y1="0"
       x2="1"
       y2="0"
       gradientUnits="userSpaceOnUse"
       gradientTransform="matrix(0,4704.64,4704.64,0,2503.24,-147.74)"
       spreadMethod="pad"
       id="linearGradient890"><stop
         style="stop-opacity:1;stop-color:#633199"
         offset="0"
         id="stop886" /><stop
         style="stop-opacity:1;stop-color:#3248a4"
         offset="1"
         id="stop888" /></linearGradient><clipPath
       clipPathUnits="userSpaceOnUse"
       id="clipPath902"><path
         d="m 613.402,3599.49 c 0,0.06 0,0.19 0,0.25 0.004,0.08 0.004,0.13 0.004,0.13 l -0.004,-0.38"
         id="path900" /></clipPath><linearGradient
       x1="0"
       y1="0"
       x2="1"
       y2="0"
       gradientUnits="userSpaceOnUse"
       gradientTransform="matrix(0,4704.64,4704.64,0,2503.24,-147.74)"
       spreadMethod="pad"
       id="linearGradient908"><stop
         style="stop-opacity:1;stop-color:#633199"
         offset="0"
         id="stop904" /><stop
         style="stop-opacity:1;stop-color:#3248a4"
         offset="1"
         id="stop906" /></linearGradient><clipPath
       clipPathUnits="userSpaceOnUse"
       id="clipPath922"><path
         d="m 891.492,1448.37 c -11.73,95.2 -38.976,188.52 -79.918,275.31 -14.363,30.45 -30.945,60.74 -56.023,83.21 -20.11,18.01 -46.699,30.32 -73.293,30.32 -6.578,0 -13.156,-0.75 -19.637,-2.36 -25.754,-6.38 -49.629,-29.72 -55.004,-55.41 v 248.51 c 13.551,-8.12 27.906,-14.69 42.449,-19.79 16.766,-6.1 34.539,-10.17 51.196,-13.62 16.91,-3.59 33.89,-7.06 51.226,-9.73 15.641,-2.42 31.582,-4.3 48.032,-4.3 1.746,0 3.5,0.02 5.257,0.06 18.098,0.48 38.004,4.19 54.571,15.58 10.789,7.42 18.976,17.21 25.382,27.7 0.637,0.6 1.27,1.21 1.891,1.83 -6.25,-127.4 -2.363,-299.55 1.727,-480.45 0.722,-31.92 1.457,-64.24 2.144,-96.86 M 607.617,1758.5 c -1.551,6.96 -1.441,14.04 0,20.94 v -20.94"
         id="path920" /></clipPath><linearGradient
       x1="0"
       y1="0"
       x2="1"
       y2="0"
       gradientUnits="userSpaceOnUse"
       gradientTransform="matrix(0,4704.64,4704.64,0,2503.24,-147.74)"
       spreadMethod="pad"
       id="linearGradient928"><stop
         style="stop-opacity:1;stop-color:#633199"
         offset="0"
         id="stop924" /><stop
         style="stop-opacity:1;stop-color:#3248a4"
         offset="1"
         id="stop926" /></linearGradient><clipPath
       clipPathUnits="userSpaceOnUse"
       id="clipPath952"><path
         d="m 570.918,312.082 c 31.527,15.02 59.734,37.27 82.906,63.527 32.774,37.129 55.934,82 72.219,128.77 33.805,97.082 38.504,204.09 13.355,303.762 -25.152,99.679 -80.066,191.64 -155.878,261.049 -19.016,17.42 -39.665,33.66 -63.547,43.37 -13.539,5.51 -28.282,8.75 -42.868,8.75 -11.128,0 -22.171,-1.88 -32.507,-6.09 l -26.192,0.78 c 22.438,5.68 45.696,8.53 69.766,8.53 32.023,0 65.461,-5.03 100.332,-15.12 l 19.656,-5.69 -0.414,17.28 c 30.442,-8.27 59.762,-20.6 86.82,-36.85 85.641,-51.45 150.168,-141.478 167.09,-239.939 13.442,71.148 24.578,142.859 32.903,214.899 C 892.363,898.02 884.074,745.77 863.309,621.91 846.301,520.469 788.078,428.73 703.563,370.172 662.637,341.82 617.684,322.301 570.918,312.082"
         id="path950" /></clipPath><linearGradient
       x1="0"
       y1="0"
       x2="1"
       y2="0"
       gradientUnits="userSpaceOnUse"
       gradientTransform="matrix(0,4704.64,4704.64,0,2503.24,-147.74)"
       spreadMethod="pad"
       id="linearGradient958"><stop
         style="stop-opacity:1;stop-color:#633199"
         offset="0"
         id="stop954" /><stop
         style="stop-opacity:1;stop-color:#3248a4"
         offset="1"
         id="stop956" /></linearGradient><clipPath
       clipPathUnits="userSpaceOnUse"
       id="clipPath972"><path
         d="m 4401.44,1297.58 -6.45,293.54 c 3.58,-23.53 6.11,-47.31 7.8,-71.24 -0.02,-71.72 -0.33,-145.29 -1.06,-216.88 -0.09,-1.81 -0.19,-3.61 -0.29,-5.42"
         id="path970" /></clipPath><linearGradient
       x1="0"
       y1="0"
       x2="1"
       y2="0"
       gradientUnits="userSpaceOnUse"
       gradientTransform="matrix(0,4704.64,4704.64,0,2503.24,-147.74)"
       spreadMethod="pad"
       id="linearGradient978"><stop
         style="stop-opacity:1;stop-color:#633199"
         offset="0"
         id="stop974" /><stop
         style="stop-opacity:1;stop-color:#3248a4"
         offset="1"
         id="stop976" /></linearGradient><clipPath
       clipPathUnits="userSpaceOnUse"
       id="clipPath992"><path
         d="m 4394.99,1591.12 c -8.76,57.63 -23.83,113.72 -48.5,166.71 -14.88,31.95 -33.8,62.83 -60.87,85.41 -22.52,18.79 -51.39,31.24 -80.43,31.24 -5.86,0 -11.74,-0.51 -17.57,-1.58 -27.84,-5.1 -54.73,-24.93 -65.63,-50.75 0.48,75.77 -0.25,145.36 -3.22,205.04 6.68,-11.73 15.43,-22.84 27.36,-31.04 16.56,-11.39 36.46,-15.1 54.56,-15.58 1.76,-0.04 3.52,-0.06 5.26,-0.06 16.45,0 32.39,1.88 48.03,4.3 17.34,2.67 34.32,6.14 51.23,9.73 16.65,3.45 34.43,7.52 51.19,13.62 9.87,3.46 19.66,7.6 29.16,12.44 l 9.43,-429.48 m -204.46,818.05 c 42.93,55.63 55.88,124.63 52.45,176.11 -3.19,47.73 -19.57,84.92 -44.96,102.01 -3.69,2.49 -7.67,4.33 -12.78,4.33 -11.1,0 -27.56,-8.61 -58.15,-37.82 0.58,88.49 1.76,307.28 1.05,532.44 9.83,-94.19 48.62,-185.99 107.67,-259.87 13.93,-17.43 30.27,-34.67 51.78,-40.59 5.35,-1.47 10.8,-2.16 16.24,-2.16 21.5,0 43.02,10.69 58.85,25.82 13.32,12.73 24.44,28.08 34.04,44.22 1.29,-281.12 1.95,-495.82 2.06,-532.45 -10.42,0.22 -20.83,0.33 -31.22,0.33 -30.56,0 -61.05,-0.96 -91.6,-2.99 -28.5,-1.99 -57.04,-4.87 -85.43,-9.38"
         id="path990" /></clipPath><linearGradient
       x1="0"
       y1="0"
       x2="1"
       y2="0"
       gradientUnits="userSpaceOnUse"
       gradientTransform="matrix(0,4704.64,4704.64,0,2503.24,-147.74)"
       spreadMethod="pad"
       id="linearGradient998"><stop
         style="stop-opacity:1;stop-color:#633199"
         offset="0"
         id="stop994" /><stop
         style="stop-opacity:1;stop-color:#3248a4"
         offset="1"
         id="stop996" /></linearGradient><clipPath
       clipPathUnits="userSpaceOnUse"
       id="clipPath1012"><path
         d="m 4320.65,358.59 c -5.98,3.68 -11.9,7.539 -17.73,11.582 -84.52,58.558 -142.75,150.297 -159.76,251.738 -8.05,48.012 -14.22,100.301 -18.9,155.719 -0.92,153.18 28.7,312.461 -1.35,462.791 17.57,-59.66 77.95,-104.89 140.15,-104.89 5.89,0 11.8,0.4 17.69,1.24 51.38,7.32 99.14,47.2 120.11,95.67 -0.55,-37.2 -1.23,-73.49 -2.06,-108.27 l -0.49,-20.45 16.26,4.71 C 4319.95,1070.69 4245.89,986.75 4212.74,889.988 4153.79,717.852 4202.4,497.898 4320.65,358.59 m -197.74,881.83 c -1.74,5.89 -3.06,11.93 -3.92,18.07 1.41,-6.01 2.71,-12.03 3.92,-18.07"
         id="path1010" /></clipPath><linearGradient
       x1="0"
       y1="0"
       x2="1"
       y2="0"
       gradientUnits="userSpaceOnUse"
       gradientTransform="matrix(0,4704.64,4704.64,0,2503.24,-147.74)"
       spreadMethod="pad"
       id="linearGradient1018"><stop
         style="stop-opacity:1;stop-color:#633199"
         offset="0"
         id="stop1014" /><stop
         style="stop-opacity:1;stop-color:#3248a4"
         offset="1"
         id="stop1016" /></linearGradient><clipPath
       clipPathUnits="userSpaceOnUse"
       id="clipPath1302"><path
         d="m 3094.04,1166.93 h -139.28 c -14.9,91.04 12.7,189.8 58.89,293.84 4.19,-5.09 8.89,-9.58 13.88,-13.21 26.37,-19.13 60.55,-22.78 93,-25.81 22.17,-2.06 44.54,-4.12 66.79,-4.12 15.54,0 31.03,1.01 46.35,3.71 3.16,0.56 6.33,1.2 9.48,1.93 -19.96,-83.67 -33.02,-160.83 -33.34,-211.61 -13.88,17.03 -33.35,33.2 -54.51,33.2 -0.47,0 -0.94,-0.01 -1.42,-0.02 -19.74,-0.73 -36.13,-15.22 -48.67,-43.05 -5.5,-12.2 -9.06,-23.82 -11.17,-34.86"
         id="path1300" /></clipPath><linearGradient
       x1="0"
       y1="0"
       x2="1"
       y2="0"
       gradientUnits="userSpaceOnUse"
       gradientTransform="matrix(472.291,0,0,-472.291,2950.7,1753.08)"
       spreadMethod="pad"
       id="linearGradient1308"><stop
         style="stop-opacity:1;stop-color:#633199"
         offset="0"
         id="stop1304" /><stop
         style="stop-opacity:1;stop-color:#3248a4"
         offset="1"
         id="stop1306" /></linearGradient><clipPath
       clipPathUnits="userSpaceOnUse"
       id="clipPath1320"><path
         d="m 2051.72,1166.93 h -133.58 c -0.79,20.49 -12.03,40.94 -28.24,55.01 -10.57,14.69 -23.06,22.37 -37.31,22.9 -0.45,0.01 -0.9,0.02 -1.34,0.02 -8.41,0 -16.58,-2.56 -24.24,-6.73 -11.14,-2.77 -21.7,-8.19 -30.6,-15.54 -1.84,48.71 -13.6,117.53 -31.07,192.13 2.28,-0.06 4.54,-0.08 6.77,-0.08 1.02,0 2.02,0 3.03,0.01 38.99,0.34 77.99,0.69 116.99,1.03 31.09,0.27 63.35,0.81 91.34,14.33 6.28,3.04 12.27,6.92 17.73,11.47 41.07,-96.97 64.49,-189.16 50.52,-274.55"
         id="path1318" /></clipPath><linearGradient
       x1="0"
       y1="0"
       x2="1"
       y2="0"
       gradientUnits="userSpaceOnUse"
       gradientTransform="matrix(472.421,0,0,-472.421,1583.35,1753.63)"
       spreadMethod="pad"
       id="linearGradient1326"><stop
         style="stop-opacity:1;stop-color:#633199"
         offset="0"
         id="stop1322" /><stop
         style="stop-opacity:1;stop-color:#3248a4"
         offset="1"
         id="stop1324" /></linearGradient></defs><sodipodi:namedview
     id="namedview4"
     pagecolor="#cdcdcd"
     bordercolor="#666666"
     borderopacity="1.0"
     inkscape:pageshadow="2"
     inkscape:pageopacity="0.0"
     inkscape:pagecheckerboard="0"
     showgrid="false"
     fit-margin-top="30"
     fit-margin-left="30"
     fit-margin-right="30"
     fit-margin-bottom="30"
     lock-margins="true"
     inkscape:zoom="1.3316104"
     inkscape:cx="113.39653"
     inkscape:cy="69.089276"
     inkscape:window-width="1920"
     inkscape:window-height="1007"
     inkscape:window-x="0"
     inkscape:window-y="0"
     inkscape:window-maximized="1"
     inkscape:current-layer="g10" /><g
     id="g8"
     inkscape:groupmode="layer"
     inkscape:label="ink_ext_XXXXXX"
     transform="matrix(1.3333333,0,0,-1.3333333,-220.39695,497.19999)"><g
       id="g10"
       transform="scale(0.1)"><path
         d="m 1915.33,3402.06 c 6.66,17.11 53.86,31.6 124.98,43 -4.43,-29.65 3.98,-49.72 11.7,-67.66 8.03,-18.66 15.01,-34.9 6.77,-59.48 -17.78,0.81 -43.5,-18.14 -68.55,-37.75 -5.14,-4.03 -10.88,-8.52 -13.54,-10.16 -5.97,1 -22.03,-1.6 -69.3,-15.11 -1.3,74.51 1.01,129.33 7.94,147.16"
         style="fill:#f9b90a;fill-opacity:1;fill-rule:nonzero;stroke:none"
         id="path122" /><path
         d="m 2955.62,3446.69 c 19.54,-35.62 7.87,-54.29 -4.53,-73.88 -10.8,-17.06 -21.96,-34.71 -11.4,-62.21 l 1.63,-4.21 4.36,1.19 c 14.22,3.87 46.91,-21.59 64.41,-35.29 14.16,-11.1 17.27,-13.39 21.05,-12.53 l 2.25,0.66 c 7.7,-0.39 36.43,-7.63 65.48,-15.88 -0.64,-30.05 -1.84,-63.03 -3.54,-97.92 -7.91,25.03 -20.38,50.58 -39.87,63.82 -14.35,9.76 -30.9,11.84 -49.19,6.11 l -5.58,-1.74 2.59,-5.24 c 36.74,-74.56 17.16,-157.79 16.96,-158.63 l -0.57,-2.34 63.71,-82.44 c -0.92,-11.11 -1.88,-22.22 -2.85,-33.33 -87.7,56.75 -93.63,157.22 -93.69,158.3 h -0.01 c 7.13,28.12 8.12,62.31 -3.71,102.68 -31.93,108.91 -128.62,128.97 -163.57,132.8 10.43,9.61 17.08,23.25 17.08,38.51 0,28.97 -23.57,52.53 -52.53,52.53 -28.97,0 -52.53,-23.56 -52.53,-52.53 0,-16.62 7.91,-31.29 20,-40.92 -26.49,-4.7 -58.02,-14.93 -84.18,-36.99 -29.49,-24.88 -46.35,-60.06 -50.08,-104.58 -11.87,-141.48 67.85,-177.16 84.95,-183.14 l 93.94,-501.68 c 0.88,-4.73 -0.2,-9.47 -3.03,-13.34 -2.77,-3.79 -6.86,-6.19 -11.5,-6.76 -23.66,-2.87 -53.14,-6.46 -157.01,49.28 l -1.16,0.62 -120.26,-2.56 -120.26,2.56 -1.16,-0.62 c -103.88,-55.74 -133.35,-52.15 -157.01,-49.28 -4.65,0.57 -8.73,2.97 -11.51,6.76 -2.84,3.87 -3.91,8.61 -3.02,13.34 l 93.93,501.68 c 17.1,5.98 96.83,41.66 84.95,183.14 -3.73,44.52 -20.58,79.7 -50.08,104.58 -26.17,22.07 -57.71,32.3 -84.16,37 12.08,9.63 19.99,24.29 19.99,40.91 0,28.97 -23.57,52.53 -52.54,52.53 -28.96,0 -52.53,-23.56 -52.53,-52.53 0,-15.19 6.58,-28.78 16.91,-38.38 -35.56,-3.8 -131.56,-24.31 -163.4,-132.93 -12.96,-44.2 -10.54,-81 -1.53,-110.53 -0.43,-4.8 -9.77,-95.74 -95.87,-150.54 -0.98,11.14 -1.93,22.28 -2.85,33.42 l 63.7,82.45 -0.57,2.33 c -0.2,0.83 -19.77,84.07 16.97,158.63 l 2.58,5.24 -5.58,1.74 c -21.08,6.59 -39.73,4.58 -55.4,-5.94 -16.83,-11.32 -27.55,-30.73 -34.35,-49.38 -1.34,29.51 -2.3,57.48 -2.85,83.3 28.87,8.2 57.42,15.41 65.33,15.89 l 2.4,-0.66 c 3.74,-0.89 6.89,1.44 21.06,12.53 17.49,13.7 49.95,39.21 64.4,35.29 l 4.36,-1.19 1.62,4.21 c 11.73,30.51 2.93,50.97 -5.57,70.75 -7.78,18.07 -15.75,36.69 -10.62,65.31 115.02,17.4 287.03,27.14 452.66,27.33 165.49,-0.19 337.36,-9.91 452.38,-27.3"
         style="fill:#ed1c24;fill-opacity:1;fill-rule:nonzero;stroke:none"
         id="path124" /><path
         d="m 1912.03,3129.13 c 4.35,21.82 14.81,57.37 38.37,73.19 11.66,7.83 25.52,9.92 41.24,6.22 -32,-70.01 -18.72,-143.3 -15.66,-157.58 l -54.08,-70 c -4.06,50.8 -7.4,101 -9.87,148.17"
         style="fill:#f9b90a;fill-opacity:1;fill-rule:nonzero;stroke:none"
         id="path126" /><path
         d="m 2200.32,3317.6 c 6.73,-3.13 14.16,-5.01 22.05,-5.01 6.48,0 12.63,1.33 18.37,3.49 27.28,-3.36 63.39,-12.48 91.9,-36.52 27.39,-23.1 43.05,-55.99 46.56,-97.77 12.48,-148.64 -76.75,-172.64 -80.56,-173.59 l -3.13,-0.78 -52.27,-279.2 v 3.39 h -126.98 c -6.03,12.08 -30.66,56.61 -69.87,64.64 l -1.71,0.23 49.58,203.45 -2.99,1.93 c -3.91,2.52 -95.26,63.11 -58.32,189.14 36.62,124.93 159.2,126.56 167.37,126.6"
         style="fill:#4053ad;fill-opacity:1;fill-rule:nonzero;stroke:none"
         id="path128" /><path
         d="m 2189.84,3365.12 c 0,17.94 14.6,32.53 32.54,32.53 17.93,0 32.52,-14.59 32.52,-32.53 0,-17.94 -14.59,-32.53 -32.52,-32.53 -17.94,0 -32.54,14.59 -32.54,32.53"
         style="fill:#f9b90a;fill-opacity:1;fill-rule:nonzero;stroke:none"
         id="path130" /><path
         d="m 2116.83,2677.4 -0.52,1.11 -0.98,0.74 c -17.62,13.37 -33.36,17.37 -46.78,11.88 -25.27,-10.3 -31.51,-50.48 -31.77,-52.19 l 9.9,-1.47 c 0.05,0.36 5.66,36.27 25.66,44.41 9.7,3.94 21.79,0.63 35.96,-9.86 15.16,-33.24 1.23,-55.58 0.63,-56.5 l -4.97,-7.58 116.37,-2.06 -12.39,-66.18 c -13.39,0.08 -59.7,1.42 -118.62,14.39 -90.13,13.82 -88.42,74.84 -86.76,133.84 0.88,31.66 1.73,61.69 -13.91,79.7 19,16.17 37.71,22.51 55.7,18.83 39.47,-8.06 63.96,-61.37 64.21,-61.9 l 1.33,-2.95 H 2242 l -19.8,-105.76 -101.21,1.79 c 4.18,10.8 8.79,32.32 -4.16,59.76"
         style="fill:#f9b90a;fill-opacity:1;fill-rule:nonzero;stroke:none"
         id="path132" /><path
         d="m 2997.35,2482.73 c -59.34,-38.39 -371.95,-50.35 -494.11,-51.87 -122.17,1.52 -434.78,13.48 -494.12,51.87 -26.17,16.93 -51.38,155.88 -70.21,321.18 87.77,34.57 122.22,167.19 130.09,203.48 5.95,-5.68 10.93,-9.64 13.9,-11.84 l -48.29,-198.19 0.06,-0.02 c -18.75,0.12 -37.77,-8.41 -56.68,-25.79 l -4.1,-3.77 4.19,-3.67 c 16.21,-14.22 15.37,-44.18 14.48,-75.9 -1.61,-57.4 -3.61,-128.85 94.93,-143.95 56.95,-12.54 102.66,-14.32 118.58,-14.54 l -5.63,-30.07 c -1.37,-7.36 0.37,-15.05 4.79,-21.09 4.43,-6.04 10.95,-9.87 18.37,-10.77 5.88,-0.72 12.1,-1.48 19.55,-1.48 24.2,0 61.39,7.98 142.24,51.25 l 113.04,-2.41 v -0.2 l 4.81,0.1 4.79,-0.1 v 0.2 l 113.06,2.41 c 80.84,-43.27 118.03,-51.25 142.23,-51.25 7.46,0 13.68,0.76 19.56,1.48 7.41,0.9 13.93,4.73 18.36,10.77 4.42,6.03 6.16,13.73 4.78,21.09 l -5.63,30.07 c 15.91,0.22 61.58,1.99 118.28,14.48 98.86,15.16 96.84,86.61 95.24,144.01 -0.9,31.72 -1.74,61.68 14.49,75.9 l 4.17,3.67 -4.09,3.77 c -18.88,17.37 -37.9,25.93 -56.65,25.8 l 0.03,0.01 -48.29,198.19 c 2.97,2.2 7.95,6.16 13.91,11.84 7.87,-36.28 42.3,-168.91 130.08,-203.48 -18.82,-165.3 -44.04,-304.25 -70.21,-321.18"
         style="fill:#2b3996;fill-opacity:1;fill-rule:nonzero;stroke:none"
         id="path134" /><path
         d="m 2897.55,2615.5 c -0.61,0.94 -14.54,23.28 0.62,56.52 14.17,10.48 26.25,13.8 35.97,9.86 19.99,-8.13 25.6,-44.05 25.66,-44.41 l 9.88,1.47 c -0.25,1.71 -6.49,41.89 -31.75,52.2 -13.42,5.46 -29.17,1.48 -46.78,-11.89 l -0.98,-0.74 -0.52,-1.11 c -12.96,-27.44 -8.34,-48.96 -4.17,-59.76 l -101.22,-1.79 -19.8,105.76 132.13,0.01 1.33,2.94 c 0.24,0.53 24.73,53.84 64.2,61.9 17.96,3.68 36.7,-2.65 55.7,-18.83 -15.64,-18.01 -14.8,-48.04 -13.91,-79.7 1.65,-59 3.37,-120.02 -87.08,-133.9 -58.62,-12.91 -104.91,-14.26 -118.31,-14.34 l -12.39,66.19 116.27,2.08 -4.85,7.54"
         style="fill:#f9b90a;fill-opacity:1;fill-rule:nonzero;stroke:none"
         id="path136" /><path
         d="m 2765.84,3316.05 c 5.71,-2.13 11.81,-3.46 18.26,-3.46 7.9,0 15.32,1.88 22.05,5.01 l 0.21,-0.01 c 5.36,-0.04 130.22,-0.56 167.17,-126.59 36.94,-126.03 -54.42,-186.62 -58.33,-189.14 l -3,-1.93 49.59,-203.45 -1.71,-0.23 c -39.2,-8.03 -63.84,-52.56 -69.87,-64.64 h -126.98 v -3.41 l -51.69,276.06 -0.6,3.16 -3.11,0.78 c -3.81,0.95 -93.03,24.95 -80.56,173.59 3.51,41.75 19.15,74.64 46.52,97.73 28.47,24.03 64.64,33.17 92.05,36.53"
         style="fill:#4053ad;fill-opacity:1;fill-rule:nonzero;stroke:none"
         id="path138" /><path
         d="m 2751.57,3365.12 c 0,17.94 14.59,32.53 32.53,32.53 17.94,0 32.53,-14.59 32.53,-32.53 0,-17.94 -14.59,-32.53 -32.53,-32.53 -17.94,0 -32.53,14.59 -32.53,32.53"
         style="fill:#f9b90a;fill-opacity:1;fill-rule:nonzero;stroke:none"
         id="path140" /><path
         d="m 1926.95,2921.63 c 9.17,5.55 17.55,11.48 25.2,17.69 13.06,-30.2 33.99,-91.58 14.04,-107.99 -8.74,-6.97 -18.23,-12.75 -28.44,-17.09 -3.9,35.02 -7.52,71.1 -10.8,107.39"
         style="fill:#2b3996;fill-opacity:1;fill-rule:nonzero;stroke:none"
         id="path142" /><path
         d="m 2028.78,3064.55 c 9.11,-20.72 21.11,-36.89 31.78,-48.53 -1.25,-6.21 -5.36,-25.22 -13.2,-49.48 -11.11,5.71 -22.91,40.74 -28.25,65.97 4.76,12.44 7.78,23.48 9.67,32.04"
         style="fill:#2b3996;fill-opacity:1;fill-rule:nonzero;stroke:none"
         id="path144" /><path
         d="m 2044.19,2957.1 c -6.19,-17.92 -14.32,-37.93 -24.63,-57.4 -2.69,32.96 -23.59,75.36 -27.24,82.56 8.36,11.81 14.97,23.59 20.19,34.75 5.32,-20.39 16.09,-53.07 31.68,-59.91"
         style="fill:#2b3996;fill-opacity:1;fill-rule:nonzero;stroke:none"
         id="path146" /><path
         d="m 2006.5,2877.29 c -6.81,-10.5 -14.4,-20.44 -22.74,-29.45 3.76,32.82 -16.31,81.76 -23.66,98.27 9.76,8.74 18.21,17.89 25.5,27.16 11.71,-24.29 32.52,-76.68 20.9,-95.98"
         style="fill:#2b3996;fill-opacity:1;fill-rule:nonzero;stroke:none"
         id="path148" /><path
         d="m 3025.64,2844.64 c -8.7,8.96 -16.54,19.04 -23.64,29.66 -11.01,18.82 6.72,72.88 18.33,101.87 7.46,-10.18 16.18,-20.2 26.39,-29.67 -6.66,-16.39 -26.08,-68.18 -21.08,-101.86"
         style="fill:#2b3996;fill-opacity:1;fill-rule:nonzero;stroke:none"
         id="path150" /><path
         d="m 2988.75,2896.25 c -11.04,20.26 -19.65,41.26 -26.17,60.03 15.09,9.4 26.72,43.61 32.53,64.21 4.8,-11.14 10.82,-22.84 18.43,-34.52 -6.03,-14.3 -23.17,-57.44 -24.79,-89.72"
         style="fill:#2b3996;fill-opacity:1;fill-rule:nonzero;stroke:none"
         id="path152" /><path
         d="m 2959.3,2965.96 c -7.96,24.55 -12.13,43.81 -13.38,50.06 11.52,12.59 24.6,30.46 33.92,53.64 1.79,-9.09 4.61,-20.55 9.09,-33.35 -6.11,-25.65 -18.6,-61.2 -29.63,-70.35"
         style="fill:#2b3996;fill-opacity:1;fill-rule:nonzero;stroke:none"
         id="path154" /><path
         d="m 3068.72,2814.24 c -9.09,3.87 -17.58,8.91 -25.5,14.9 -19.78,16.77 -0.63,79.52 11.47,110.33 7.52,-6.29 15.8,-12.25 24.84,-17.8 -3.28,-36.29 -6.9,-72.4 -10.81,-107.43"
         style="fill:#2b3996;fill-opacity:1;fill-rule:nonzero;stroke:none"
         id="path156" /><path
         d="m 3084.57,2980.96 -54.07,70 c 3.05,14.28 16.33,87.54 -15.65,157.54 13.09,2.84 24.56,0.76 34.98,-6.32 25.25,-17.14 37.77,-59.5 43.7,-89.73 -2.36,-42.26 -5.38,-86.63 -8.96,-131.49"
         style="fill:#f9b90a;fill-opacity:1;fill-rule:nonzero;stroke:none"
         id="path158" /><path
         d="m 3091.13,3402.06 c 6.93,-17.83 9.25,-72.65 7.94,-147.16 -47.24,13.52 -63.31,16.14 -69.29,15.11 -2.65,1.64 -8.39,6.13 -13.53,10.15 -25.02,19.6 -50.45,38.5 -68.52,37.76 -6.47,20.65 2.04,34.11 11.81,49.55 12.14,19.18 25.56,40.62 8.23,77.34 70.24,-11.36 116.76,-25.76 123.36,-42.75"
         style="fill:#f9b90a;fill-opacity:1;fill-rule:nonzero;stroke:none"
         id="path160" /><path
         d="m 2327.67,2567.03 h 175.38 v 10 h -165.38 v 71.5 h 165.38 v 10 h -175.38 v -91.5"
         style="fill:#b9661d;fill-opacity:1;fill-rule:nonzero;stroke:none"
         id="path174" /><path
         d="m 2326.33,2696.92 h 353.81 l -73.47,262.81 53.85,-252.81 h -152.38 -9.81 -154.64 l 56.11,252.81 -73.47,-262.81"
         style="fill:#b9661d;fill-opacity:1;fill-rule:nonzero;stroke:none"
         id="path176" /><path
         d="m 2092.89,3067.73 c 22.16,-23.23 52.04,-36.43 84.13,-37.18 0.97,-0.03 1.93,-0.04 2.89,-0.04 31.03,0 60.37,11.74 82.9,33.23 23.23,22.16 36.43,52.04 37.18,84.14 1.56,66.25 -51.08,121.41 -117.33,122.96 -66.32,1.6 -121.41,-51.07 -122.97,-117.32 -0.75,-32.1 11.04,-62.56 33.2,-85.79"
         style="fill:#b9661d;fill-opacity:1;fill-rule:nonzero;stroke:none"
         id="path244" /><path
         d="m 2179.81,3250.88 2.38,-0.03 c 55.23,-1.29 99.11,-47.28 97.81,-102.51 -0.63,-26.75 -11.63,-51.66 -31,-70.13 -19.35,-18.47 -44.57,-28.27 -71.51,-27.67 -26.75,0.63 -51.66,11.63 -70.13,31 -18.47,19.36 -28.3,44.75 -27.68,71.51 1.28,54.43 45.97,97.83 100.13,97.83"
         style="fill:#f9b90a;fill-opacity:1;fill-rule:nonzero;stroke:none"
         id="path246" /><path
         d="m 2164.29,2972.8 c -22.69,0 -41.15,-18.46 -41.15,-41.15 0,-22.69 18.46,-41.15 41.15,-41.15 22.69,0 41.15,18.46 41.15,41.15 0,22.69 -18.46,41.15 -41.15,41.15"
         style="fill:#b9661d;fill-opacity:1;fill-rule:nonzero;stroke:none"
         id="path288" /><path
         d="m 2164.29,2903.83 c -15.34,0 -27.82,12.48 -27.82,27.82 0,15.34 12.48,27.82 27.82,27.82 15.34,0 27.82,-12.48 27.82,-27.82 0,-15.34 -12.48,-27.82 -27.82,-27.82"
         style="fill:#f9b90a;fill-opacity:1;fill-rule:nonzero;stroke:none"
         id="path290" /><path
         d="m 2154.43,2865.27 c -16.09,0 -29.19,-13.09 -29.19,-29.19 0,-16.09 13.1,-29.19 29.19,-29.19 16.09,0 29.19,13.1 29.19,29.19 0,16.1 -13.1,29.19 -29.19,29.19"
         style="fill:#b9661d;fill-opacity:1;fill-rule:nonzero;stroke:none"
         id="path296" /><path
         d="m 2154.43,2816.35 c -10.88,0 -19.74,8.85 -19.74,19.73 0,10.89 8.86,19.74 19.74,19.74 10.88,0 19.74,-8.85 19.74,-19.74 0,-10.88 -8.86,-19.73 -19.74,-19.73"
         style="fill:#f9b90a;fill-opacity:1;fill-rule:nonzero;stroke:none"
         id="path298" /><path
         d="m 2503.43,2648.53 h 165.37 v -71.5 h -165.37 v -10 h 175.37 v 91.5 h -175.37 v -10"
         style="fill:#b9661d;fill-opacity:1;fill-rule:nonzero;stroke:none"
         id="path324" /><path
         d="m 2826.6,3030.51 c 0.95,0 1.89,0.01 2.85,0.04 66.25,1.55 118.89,56.71 117.33,122.97 -1.55,66.24 -56.35,118.91 -122.97,117.32 -66.25,-1.55 -118.89,-56.71 -117.34,-122.96 1.54,-65.3 55.15,-117.37 120.13,-117.37"
         style="fill:#b9661d;fill-opacity:1;fill-rule:nonzero;stroke:none"
         id="path372" /><path
         d="m 2824.27,3250.85 c 54.88,1.25 101.23,-42.57 102.51,-97.8 1.3,-55.23 -42.57,-101.21 -97.8,-102.51 -55.07,-0.85 -101.22,42.58 -102.51,97.8 -1.3,55.23 42.58,101.22 97.8,102.51"
         style="fill:#f9b90a;fill-opacity:1;fill-rule:nonzero;stroke:none"
         id="path374" /><path
         d="m 2842.18,2972.8 c -22.69,0 -41.16,-18.46 -41.16,-41.15 0,-22.69 18.47,-41.15 41.16,-41.15 22.69,0 41.16,18.46 41.16,41.15 0,22.69 -18.47,41.15 -41.16,41.15"
         style="fill:#b9661d;fill-opacity:1;fill-rule:nonzero;stroke:none"
         id="path444" /><path
         d="m 2842.18,2903.83 c -15.34,0 -27.82,12.48 -27.82,27.82 0,15.34 12.48,27.82 27.82,27.82 15.35,0 27.82,-12.48 27.82,-27.82 0,-15.34 -12.47,-27.82 -27.82,-27.82"
         style="fill:#f9b90a;fill-opacity:1;fill-rule:nonzero;stroke:none"
         id="path446" /><path
         d="m 2852.04,2865.27 c -16.1,0 -29.19,-13.09 -29.19,-29.19 0,-16.09 13.09,-29.19 29.19,-29.19 16.09,0 29.19,13.1 29.19,29.19 0,16.1 -13.1,29.19 -29.19,29.19"
         style="fill:#b9661d;fill-opacity:1;fill-rule:nonzero;stroke:none"
         id="path452" /><path
         d="m 2852.04,2816.35 c -10.88,0 -19.74,8.85 -19.74,19.73 0,10.89 8.86,19.74 19.74,19.74 10.88,0 19.73,-8.85 19.73,-19.74 0,-10.88 -8.85,-19.73 -19.73,-19.73"
         style="fill:#f9b90a;fill-opacity:1;fill-rule:nonzero;stroke:none"
         id="path454" /><path
         d="m 2330.96,2653.83 v -81.08 h 343.06 v 81.08 h -343.06"
         style="fill:#f9b90a;fill-opacity:1;fill-rule:nonzero;stroke:none"
         id="path874" /><path
         d="m 4401.73,1303 c 0.73,71.59 1.04,145.16 1.06,216.88 5.1,-71.92 2.73,-145.2 -1.06,-216.88"
         style="fill:#14171d;fill-opacity:1;fill-rule:nonzero;stroke:none"
         id="path964" /><path
         d="m 4317.01,2139.34 c -2.57,0 -5.16,0.33 -7.72,1.03 1.96,0.35 3.94,0.52 5.91,0.52 2.7,0 5.4,-0.32 8.06,-0.91 -2.06,-0.42 -4.15,-0.64 -6.25,-0.64 m -46.82,94.19 c -0.39,0 -0.78,0.01 -1.17,0.02 3.74,0.56 7.54,0.92 11.35,1.06 -3.32,-0.7 -6.73,-1.07 -10.18,-1.08 m -144.22,983.51 c -0.61,17.03 -0.26,34.09 1.12,51.07 l -1.12,-51.07"
         style="fill:#14171d;fill-opacity:1;fill-rule:nonzero;stroke:none"
         id="path1002" /><path
         d="m 4408.08,1253.45 2.83,46.6 c 2.25,-15.57 1.09,-31.32 -2.83,-46.6"
         style="fill:#14171d;fill-opacity:1;fill-rule:nonzero;stroke:none"
         id="path1022" /><path
         d="m 1794.36,3224.87 c -0.63,55.59 -0.27,106.38 0.52,149.97 -0.01,-0.23 -0.01,-0.46 -0.02,-0.68 -0.21,-10.32 -0.37,-73.09 -0.5,-149.29 m 223.89,368.24 c -0.01,0 -0.01,0.01 -0.02,0.01 h 0.01 c 0.01,-0.01 0.01,-0.01 0.01,-0.01"
         style="fill:#a9861e;fill-opacity:1;fill-rule:nonzero;stroke:none"
         id="path1098" /><path
         d="m 3224.3,3105.98 c -2.36,19.97 -1.61,40.3 2.09,60.08 l -2.09,-60.08"
         style="fill:#14171d;fill-opacity:1;fill-rule:nonzero;stroke:none"
         id="path1112" /><path
         d="m 2272.81,2831.8 c 0,0 12.75,68.12 31.4,167.69 l -31.4,-167.69 v 0 m 458.59,24.02 -2.42,1.01 -26.72,142.66 c -17.1,5.98 -96.82,41.66 -84.95,183.14 1.15,13.72 3.55,26.55 7.17,38.47 -0.31,-1.11 -0.62,-2.23 -0.93,-3.35 -34.87,-196.06 87.99,-213.49 87.99,-213.49 l 19.86,-148.44 m -427.19,143.67 c 5.28,6.36 10.47,12.44 15.53,18.32 16.04,9.95 37.38,29.37 50,65.84 16.05,29.08 23.98,62.78 17.73,112.99 -0.05,0.42 -0.11,0.84 -0.16,1.26 0.8,-4.96 1.41,-10.05 1.85,-15.27 11.88,-141.48 -67.85,-177.16 -84.95,-183.14 m 78.35,219.68 c -25.91,81.54 -127.64,105.04 -127.64,105.04 v 0 c 26.45,-4.7 57.99,-14.93 84.16,-37 20.9,-17.62 35.44,-40.42 43.48,-68.04 m 369.01,105.03 c -12.09,9.63 -20,24.3 -20,40.92 0,28.97 23.56,52.53 52.53,52.53 v 0 0 c -89.76,-23.86 -32.53,-93.45 -32.53,-93.45 m -496.65,0.01 c 0,0 19.98,40.91 9.91,63.13 -10.07,22.22 -42.46,30.31 -42.46,30.31 v 0 0 c 28.97,0 52.54,-23.56 52.54,-52.53 0,-16.62 -7.91,-31.28 -19.99,-40.91 m 554.69,138.4 c -93.95,7.31 -201.45,11.26 -306.37,11.38 -95.55,-0.11 -193.24,-3.4 -280.87,-9.5 v 29.73 c 90.76,2.08 180.7,3.95 263.52,3.95 140.31,0 260.11,-5.37 328.47,-24.18 0,0 -0.65,-2.89 -4.75,-11.38"
         style="fill:#a9861e;fill-opacity:1;fill-rule:nonzero;stroke:none"
         id="path1282" /><path
         d="m 2272.81,2831.8 31.4,167.69 v 0 0 c 17.1,5.98 96.83,41.66 84.95,183.14 -0.44,5.22 -1.05,10.31 -1.85,15.27 -1.01,7.49 -2.62,14.58 -4.75,21.27 -8.04,27.62 -22.58,50.42 -43.48,68.04 -26.17,22.07 -57.71,32.3 -84.16,37 v 0 c 12.08,9.63 19.99,24.29 19.99,40.91 0,28.97 -23.57,52.53 -52.54,52.53 v 0 46.84 c 87.63,6.1 185.32,9.39 280.87,9.5 104.92,-0.12 212.42,-4.07 306.37,-11.38 -4.11,-8.49 -11.68,-22.57 -25.51,-44.96 v 0 c -28.97,0 -52.53,-23.56 -52.53,-52.53 0,-16.62 7.91,-31.29 20,-40.92 v 0 0 c 0,0 -1.1,0.07 -3.1,0.07 -16.67,0 -95.83,-5.25 -123.99,-103.17 -3.62,-11.92 -6.02,-24.75 -7.17,-38.47 -11.87,-141.48 67.85,-177.16 84.95,-183.14 l 26.72,-142.66 -103.46,42.87 -43.43,157.84 h -151.68 l -43.01,-153.68 12.4,55.87 -16.31,-58.35 -110.68,-69.58"
         style="fill:#ab1c22;fill-opacity:1;fill-rule:nonzero;stroke:none"
         id="path1284" /><path
         d="m 2319.74,3017.81 c 19.72,22.94 37.38,42.96 50,65.84 -12.62,-36.47 -33.96,-55.89 -50,-65.84"
         style="fill:#30419f;fill-opacity:1;fill-rule:nonzero;stroke:none"
         id="path1286" /><path
         d="m 2383.49,2901.38 16.31,58.35 -12.4,-55.87 -0.01,-0.03 -3.9,-2.45"
         style="fill:#7d4a1b;fill-opacity:1;fill-rule:nonzero;stroke:none"
         id="path1288" /><path
         d="m 2461.59,3002.84 -57.04,-245.74 h 123.06 l -97.2,21.74 31.18,224"
         style="fill:#f9b90a;fill-opacity:1;fill-rule:nonzero;stroke:none"
         id="path1290" /><path
         d="m 2955.62,3446.69 c 19.54,-35.62 7.87,-54.29 -4.53,-73.88 -10.8,-17.06 -21.96,-34.71 -11.4,-62.2 l 1.63,-4.22 4.36,1.19 c 14.22,3.87 46.91,-21.59 64.41,-35.29 14.16,-11.1 17.27,-13.39 21.05,-12.53 l 2.25,0.66 c 7.7,-0.39 36.43,-7.63 65.48,-15.88 -0.64,-30.05 -1.84,-63.03 -3.54,-97.92 -7.91,25.03 -20.38,50.58 -39.87,63.82 -14.35,9.76 -30.9,11.84 -49.19,6.11 l -5.58,-1.74 2.59,-5.24 c 36.74,-74.56 17.16,-157.79 16.96,-158.63 l -0.57,-2.34 63.71,-82.44 c -0.92,-11.11 -1.88,-22.22 -2.86,-33.33 -87.69,56.74 -93.62,157.22 -93.68,158.3 h -0.01 c 7.13,28.12 8.12,62.31 -3.71,102.68 -31.93,108.91 -128.62,128.97 -163.57,132.8 10.43,9.61 17.08,23.25 17.08,38.51 0,28.97 -23.57,52.53 -52.53,52.53 -28.97,0 -52.53,-23.56 -52.53,-52.53 0,-16.62 7.91,-31.29 20,-40.92 -26.49,-4.7 -58.02,-14.93 -84.18,-36.99 -29.49,-24.88 -46.35,-60.06 -50.08,-104.58 -11.87,-141.48 67.85,-177.16 84.95,-183.14 l 93.94,-501.68 c 0.88,-4.73 -0.2,-9.47 -3.03,-13.34 -2.77,-3.79 -6.86,-6.19 -11.5,-6.76 -23.66,-2.87 -53.14,-6.46 -157.01,49.28 l -1.16,0.62 -120.26,-2.56 -120.26,2.56 -1.16,-0.62 c -103.88,-55.74 -133.35,-52.15 -157.01,-49.28 -4.65,0.57 -8.73,2.97 -11.51,6.76 -2.84,3.87 -3.91,8.61 -3.02,13.34 l 93.93,501.68 c 17.1,5.98 96.83,41.66 84.95,183.14 -3.73,44.52 -20.58,79.7 -50.08,104.58 -26.17,22.07 -57.71,32.3 -84.16,37 12.08,9.63 19.98,24.29 19.98,40.91 0,28.97 -23.56,52.53 -52.52,52.53 -28.97,0 -52.54,-23.56 -52.54,-52.53 0,-15.19 6.58,-28.78 16.92,-38.38 -35.57,-3.8 -131.57,-24.31 -163.41,-132.93 -12.96,-44.2 -10.54,-81 -1.53,-110.53 -0.43,-4.8 -9.77,-95.74 -95.87,-150.54 -0.98,11.14 -1.93,22.28 -2.85,33.42 l 63.7,82.45 -0.57,2.33 c -0.2,0.83 -19.77,84.07 16.97,158.63 l 2.58,5.24 -5.58,1.74 c -21.08,6.59 -39.73,4.58 -55.4,-5.94 -16.83,-11.32 -27.55,-30.73 -34.35,-49.38 -1.34,29.51 -2.3,57.48 -2.85,83.3 28.87,8.2 57.42,15.41 65.33,15.89 l 2.4,-0.66 c 3.74,-0.89 6.89,1.44 21.06,12.53 17.49,13.7 49.95,39.21 64.4,35.29 l 4.36,-1.19 1.62,4.22 c 11.73,30.5 2.93,50.96 -5.57,70.74 -7.77,18.07 -15.75,36.69 -10.62,65.3 115.02,17.41 287.03,27.15 452.66,27.34 165.49,-0.19 337.36,-9.91 452.38,-27.3 z m 135.51,-44.63 c 6.93,-17.83 9.25,-72.65 7.94,-147.16 -47.24,13.52 -63.31,16.14 -69.29,15.11 -2.65,1.64 -8.39,6.13 -13.53,10.15 -25.02,19.6 -50.45,38.5 -68.52,37.76 -6.47,20.65 2.04,34.11 11.81,49.55 12.14,19.18 25.56,40.62 8.23,77.34 70.24,-11.36 116.76,-25.76 123.36,-42.75 z m -6.56,-421.1 -54.07,70 c 3.05,14.28 16.33,87.54 -15.65,157.54 13.09,2.84 24.56,0.76 34.98,-6.32 25.25,-17.14 37.77,-59.5 43.7,-89.73 -2.36,-42.26 -5.38,-86.63 -8.96,-131.49 z m -15.85,-166.72 c -9.09,3.87 -17.58,8.91 -25.5,14.9 -19.78,16.77 -0.63,79.52 11.47,110.33 7.52,-6.29 15.8,-12.25 24.84,-17.8 -3.28,-36.29 -6.9,-72.4 -10.81,-107.43 z m -109.42,151.72 c -7.96,24.55 -12.13,43.81 -13.38,50.06 11.52,12.59 24.6,30.46 33.92,53.64 1.79,-9.09 4.61,-20.55 9.09,-33.35 -6.11,-25.65 -18.6,-61.2 -29.63,-70.35 z m 29.45,-69.71 c -11.04,20.26 -19.65,41.26 -26.17,60.03 15.09,9.4 26.72,43.61 32.53,64.21 4.8,-11.14 10.82,-22.84 18.43,-34.52 -6.03,-14.3 -23.17,-57.44 -24.79,-89.72 z m 36.89,-51.61 c -8.7,8.96 -16.54,19.04 -23.64,29.66 -11.01,18.82 6.72,72.88 18.33,101.87 7.46,-10.18 16.18,-20.2 26.39,-29.67 -6.66,-16.39 -26.08,-68.18 -21.08,-101.86 z m -274.07,520.48 c 0,17.94 14.59,32.53 32.53,32.53 17.94,0 32.53,-14.59 32.53,-32.53 0,-17.94 -14.59,-32.53 -32.53,-32.53 -17.94,0 -32.53,14.59 -32.53,32.53 z m 14.27,-49.07 c 5.71,-2.13 11.81,-3.46 18.26,-3.46 7.9,0 15.32,1.88 22.05,5.01 l 0.21,-0.01 c 5.36,-0.04 130.22,-0.56 167.17,-126.59 36.94,-126.03 -54.42,-186.62 -58.33,-189.14 l -3,-1.93 49.59,-203.45 -1.7,-0.23 c -39.21,-8.03 -63.85,-52.56 -69.88,-64.64 h -126.98 v -3.41 l -51.69,276.06 -0.6,3.16 -3.11,0.78 c -3.81,0.95 -93.03,24.95 -80.56,173.59 3.51,41.75 19.15,74.64 46.52,97.73 28.47,24.03 64.64,33.17 92.05,36.53 z m 131.71,-700.55 c -0.61,0.94 -14.54,23.28 0.62,56.52 14.17,10.48 26.25,13.8 35.97,9.86 19.99,-8.13 25.6,-44.05 25.66,-44.41 l 9.88,1.47 c -0.25,1.71 -6.49,41.89 -31.75,52.2 -13.42,5.46 -29.17,1.48 -46.78,-11.89 l -0.98,-0.74 -0.52,-1.11 c -12.96,-27.44 -8.34,-48.96 -4.17,-59.76 l -101.22,-1.79 -19.8,105.76 132.13,0.01 1.33,2.94 c 0.24,0.53 24.73,53.84 64.2,61.9 17.96,3.68 36.7,-2.65 55.7,-18.83 -15.64,-18.01 -14.8,-48.04 -13.91,-79.7 1.65,-59 3.37,-120.02 -87.08,-133.9 -58.62,-12.91 -104.91,-14.26 -118.31,-14.34 l -12.39,66.19 116.27,2.08 z m 99.8,-132.77 c -59.34,-38.39 -371.95,-50.35 -494.11,-51.87 -122.17,1.52 -434.78,13.48 -494.12,51.87 -26.17,16.93 -51.38,155.88 -70.21,321.18 87.77,34.57 122.22,167.19 130.09,203.48 5.95,-5.68 10.93,-9.64 13.9,-11.84 l -48.29,-198.19 0.06,-0.02 c -18.75,0.13 -37.77,-8.41 -56.68,-25.79 l -4.1,-3.77 4.19,-3.67 c 16.21,-14.22 15.37,-44.18 14.48,-75.9 -1.61,-57.4 -3.61,-128.85 94.93,-143.95 56.95,-12.54 102.66,-14.32 118.58,-14.54 l -5.63,-30.07 c -1.38,-7.37 0.37,-15.05 4.79,-21.09 4.43,-6.04 10.95,-9.87 18.37,-10.77 5.88,-0.72 12.1,-1.48 19.55,-1.48 24.2,0 61.39,7.98 142.24,51.25 l 113.04,-2.41 v -0.2 l 4.81,0.1 4.79,-0.1 v 0.2 l 113.06,2.41 c 80.84,-43.27 118.03,-51.25 142.23,-51.25 7.46,0 13.68,0.76 19.56,1.48 7.41,0.9 13.93,4.73 18.36,10.77 4.42,6.03 6.16,13.72 4.78,21.09 l -5.63,30.07 c 15.91,0.22 61.58,1.99 118.28,14.48 98.86,15.16 96.84,86.61 95.24,144.01 -0.9,31.72 -1.74,61.68 14.49,75.9 l 4.18,3.67 -4.1,3.77 c -18.88,17.37 -37.9,25.93 -56.65,25.8 l 0.03,0.01 -48.29,198.19 c 2.97,2.2 7.95,6.16 13.91,11.84 7.87,-36.28 42.3,-168.91 130.08,-203.48 -18.82,-165.3 -44.04,-304.25 -70.21,-321.18 z m -990.85,394.56 c -6.81,-10.5 -14.4,-20.44 -22.74,-29.45 3.76,32.82 -16.31,81.76 -23.66,98.27 9.76,8.74 18.21,17.89 25.5,27.16 11.71,-24.29 32.52,-76.68 20.9,-95.98 z m 37.69,79.81 c -6.19,-17.92 -14.32,-37.93 -24.63,-57.4 -2.69,32.96 -23.59,75.36 -27.24,82.56 8.36,11.81 14.97,23.59 20.19,34.75 5.32,-20.39 16.09,-53.07 31.68,-59.91 z m -15.41,107.45 c 9.11,-20.72 21.11,-36.89 31.78,-48.53 -1.25,-6.21 -5.36,-25.22 -13.2,-49.48 -11.11,5.71 -22.91,40.74 -28.25,65.97 4.76,12.44 7.78,23.48 9.67,32.04 z m 88.05,-387.15 -0.52,1.11 -0.98,0.74 c -17.62,13.37 -33.36,17.37 -46.78,11.88 -25.27,-10.3 -31.51,-50.48 -31.77,-52.19 l 9.9,-1.47 c 0.05,0.36 5.66,36.27 25.66,44.41 9.7,3.94 21.79,0.63 35.96,-9.86 15.16,-33.24 1.23,-55.58 0.63,-56.5 l -4.97,-7.58 116.37,-2.06 -12.39,-66.18 c -13.39,0.08 -59.7,1.42 -118.62,14.39 -90.13,13.82 -88.42,74.84 -86.76,133.84 0.88,31.66 1.73,61.69 -13.91,79.7 19,16.17 37.71,22.51 55.7,18.83 39.47,-8.06 63.96,-61.37 64.21,-61.9 l 1.33,-2.95 H 2242 l -19.8,-105.76 -101.21,1.79 c 4.18,10.8 8.79,32.32 -4.16,59.76 z m 73.01,687.72 c 0,17.94 14.6,32.53 32.54,32.53 17.93,0 32.52,-14.59 32.52,-32.53 0,-17.94 -14.59,-32.53 -32.52,-32.53 -17.94,0 -32.54,14.59 -32.54,32.53 z m 10.48,-47.52 c 6.73,-3.13 14.15,-5.01 22.06,-5.01 6.47,0 12.62,1.33 18.35,3.49 27.29,-3.36 63.4,-12.48 91.91,-36.52 27.39,-23.1 43.05,-55.99 46.56,-97.77 12.48,-148.64 -76.75,-172.64 -80.56,-173.59 l -3.13,-0.78 -52.27,-279.2 v 3.39 h -126.98 c -6.03,12.08 -30.66,56.61 -69.87,64.64 l -1.71,0.23 49.58,203.45 -2.99,1.93 c -3.91,2.52 -95.26,63.11 -58.32,189.14 36.62,124.93 159.2,126.56 167.37,126.6 z m -273.37,-395.97 c 9.17,5.55 17.55,11.48 25.2,17.69 13.06,-30.2 33.99,-91.58 14.04,-107.99 -8.74,-6.97 -18.23,-12.75 -28.44,-17.09 -3.9,35.02 -7.52,71.1 -10.8,107.39 z m -14.92,207.5 c 4.35,21.82 14.81,57.37 38.37,73.19 11.66,7.83 25.52,9.92 41.24,6.22 -32,-70.01 -18.72,-143.3 -15.66,-157.58 l -54.08,-70 c -4.06,50.8 -7.4,101 -9.87,148.17 z m 3.3,272.93 c 6.66,17.11 53.86,31.6 124.98,43 -4.43,-29.65 3.98,-49.72 11.7,-67.66 8.03,-18.66 15.01,-34.9 6.77,-59.48 -17.78,0.81 -43.5,-18.14 -68.55,-37.75 -5.14,-4.03 -10.88,-8.52 -13.54,-10.16 -5.97,1 -22.03,-1.6 -69.3,-15.11 -1.3,74.51 1.01,129.33 7.94,147.16 z m 583,101.9 c -34.91,-0.22 -158.06,-1.58 -282.73,-10.18 -304.97,-21.03 -321.86,-64.49 -328.22,-80.85 -30.78,-79.12 16.5,-897.84 105.44,-955.39 74.43,-48.15 431.74,-55.6 505.66,-56.63 v -0.11 c 1.28,0.01 2.92,0.03 4.76,0.05 1.84,-0.02 3.47,-0.04 4.75,-0.05 v 0.11 c 73.92,1.03 431.24,8.48 505.65,56.63 88.95,57.55 136.22,876.27 105.46,955.39 -6.37,16.36 -23.26,59.82 -328.23,80.85 -124.67,8.6 -247.82,9.96 -282.73,10.18 v 0.04 c -0.14,0 -1.88,0 -4.9,-0.01 -3.03,0.01 -4.77,0.01 -4.91,0.01 v -0.04"
         style="fill:#14171d;fill-opacity:1;fill-rule:nonzero;stroke:none"
         id="path1438" /><path
         d="m 2327.67,2567.03 h 175.38 v 10 h -165.38 v 71.5 h 165.38 v 10 h -175.38 v -91.5"
         style="fill:#14171d;fill-opacity:1;fill-rule:nonzero;stroke:none"
         id="path1446" /><path
         d="m 2326.33,2696.92 h 353.81 l -73.47,262.81 53.85,-252.81 h -152.38 -9.81 -154.64 l 56.11,252.81 -73.47,-262.81"
         style="fill:#14171d;fill-opacity:1;fill-rule:nonzero;stroke:none"
         id="path1448" /><path
         d="m 2179.81,3250.88 2.38,-0.03 c 55.23,-1.29 99.11,-47.28 97.81,-102.51 -0.63,-26.75 -11.63,-51.66 -31,-70.13 -19.35,-18.47 -44.57,-28.27 -71.51,-27.67 -26.75,0.63 -51.66,11.63 -70.13,31 -18.47,19.36 -28.3,44.75 -27.68,71.51 1.28,54.43 45.97,97.83 100.13,97.83 z m -86.92,-183.15 c 22.16,-23.23 52.04,-36.43 84.13,-37.18 0.97,-0.03 1.93,-0.04 2.89,-0.04 31.03,0 60.37,11.74 82.9,33.23 23.23,22.16 36.43,52.04 37.18,84.14 1.56,66.25 -51.08,121.41 -117.33,122.96 -66.32,1.6 -121.41,-51.07 -122.97,-117.32 -0.75,-32.1 11.04,-62.56 33.2,-85.79"
         style="fill:#14171d;fill-opacity:1;fill-rule:nonzero;stroke:none"
         id="path1500" /><path
         d="m 2164.29,2903.83 c -15.34,0 -27.82,12.48 -27.82,27.82 0,15.34 12.48,27.82 27.82,27.82 15.34,0 27.82,-12.48 27.82,-27.82 0,-15.34 -12.48,-27.82 -27.82,-27.82 z m 0,68.97 c -22.69,0 -41.15,-18.46 -41.15,-41.15 0,-22.69 18.46,-41.15 41.15,-41.15 22.69,0 41.15,18.46 41.15,41.15 0,22.69 -18.46,41.15 -41.15,41.15"
         style="fill:#14171d;fill-opacity:1;fill-rule:nonzero;stroke:none"
         id="path1528" /><path
         d="m 2154.43,2816.35 c -10.88,0 -19.74,8.85 -19.74,19.73 0,10.89 8.86,19.74 19.74,19.74 10.88,0 19.74,-8.85 19.74,-19.74 0,-10.88 -8.86,-19.73 -19.74,-19.73 z m 0,48.92 c -16.09,0 -29.19,-13.09 -29.19,-29.19 0,-16.09 13.1,-29.19 29.19,-29.19 16.09,0 29.19,13.1 29.19,29.19 0,16.1 -13.1,29.19 -29.19,29.19"
         style="fill:#14171d;fill-opacity:1;fill-rule:nonzero;stroke:none"
         id="path1532" /><path
         d="m 2503.43,2648.53 h 165.37 v -71.5 h -165.37 v -10 h 175.37 v 91.5 h -175.37 v -10"
         style="fill:#14171d;fill-opacity:1;fill-rule:nonzero;stroke:none"
         id="path1548" /><path
         d="m 2824.27,3250.85 c 54.88,1.25 101.23,-42.57 102.51,-97.8 1.3,-55.23 -42.57,-101.21 -97.8,-102.51 -55.07,-0.85 -101.22,42.58 -102.51,97.8 -1.3,55.23 42.58,101.22 97.8,102.51 z m 2.33,-220.34 c 0.95,0 1.89,0.01 2.85,0.04 66.25,1.55 118.89,56.71 117.33,122.97 -1.55,66.24 -56.35,118.91 -122.97,117.32 -66.25,-1.55 -118.89,-56.71 -117.34,-122.96 1.54,-65.3 55.15,-117.37 120.13,-117.37"
         style="fill:#14171d;fill-opacity:1;fill-rule:nonzero;stroke:none"
         id="path1588" /><path
         d="m 2842.18,2903.83 c -15.34,0 -27.82,12.48 -27.82,27.82 0,15.34 12.48,27.82 27.82,27.82 15.35,0 27.82,-12.48 27.82,-27.82 0,-15.34 -12.47,-27.82 -27.82,-27.82 z m 0,68.97 c -22.69,0 -41.16,-18.46 -41.16,-41.15 0,-22.69 18.47,-41.15 41.16,-41.15 22.69,0 41.16,18.46 41.16,41.15 0,22.69 -18.47,41.15 -41.16,41.15"
         style="fill:#14171d;fill-opacity:1;fill-rule:nonzero;stroke:none"
         id="path1618" /><path
         d="m 2852.04,2816.35 c -10.88,0 -19.74,8.85 -19.74,19.73 0,10.89 8.86,19.74 19.74,19.74 10.88,0 19.73,-8.85 19.73,-19.74 0,-10.88 -8.85,-19.73 -19.73,-19.73 z m 0,48.92 c -16.1,0 -29.19,-13.09 -29.19,-29.19 0,-16.09 13.09,-29.19 29.19,-29.19 16.09,0 29.19,13.1 29.19,29.19 0,16.1 -13.1,29.19 -29.19,29.19"
         style="fill:#14171d;fill-opacity:1;fill-rule:nonzero;stroke:none"
         id="path1622" /></g></g></svg>
