<?xml version="1.0" encoding="UTF-8" standalone="no"?>
<svg
   width="44"
   height="44"
   viewBox="0 0 44 44"
   fill="none"
   version="1.1"
   id="svg364"
   sodipodi:docname="speaker-on.svg"
   inkscape:version="1.2.2 (b0a8486541, 2022-12-01)"
   xmlns:inkscape="http://www.inkscape.org/namespaces/inkscape"
   xmlns:sodipodi="http://sodipodi.sourceforge.net/DTD/sodipodi-0.dtd"
   xmlns="http://www.w3.org/2000/svg"
   xmlns:svg="http://www.w3.org/2000/svg">
  <sodipodi:namedview
     id="namedview366"
     pagecolor="#ffffff"
     bordercolor="#666666"
     borderopacity="1.0"
     inkscape:showpageshadow="2"
     inkscape:pageopacity="0.0"
     inkscape:pagecheckerboard="0"
     inkscape:deskcolor="#d1d1d1"
     showgrid="false"
     inkscape:zoom="3.603834"
     inkscape:cx="-80.192373"
     inkscape:cy="114.32269"
     inkscape:window-width="1920"
     inkscape:window-height="1007"
     inkscape:window-x="0"
     inkscape:window-y="0"
     inkscape:window-maximized="1"
     inkscape:current-layer="svg364" />
  <rect
     width="44"
     height="44"
     rx="6"
     fill="#17181D"
     id="rect353"
     style="font-variation-settings:normal;opacity:1;vector-effect:none;fill:#8212f2;fill-opacity:1;stroke-width:1;stroke-linecap:butt;stroke-linejoin:miter;stroke-miterlimit:4;stroke-dasharray:none;stroke-dashoffset:0;stroke-opacity:1;-inkscape-stroke:none;stop-color:#000000;stop-opacity:1" />
  <defs
     id="defs362">
    <linearGradient
       id="paint0_linear"
       x1="21.9842"
       y1="12.2816"
       x2="21.9842"
       y2="31.75"
       gradientUnits="userSpaceOnUse">
      <stop
         stop-color="#6E6E7E"
         id="stop357" />
      <stop
         offset="1"
         stop-color="#666270"
         id="stop359" />
    </linearGradient>
  </defs>
  <g
     inkscape:groupmode="layer"
     id="layer1"
     inkscape:label="Layer 1"
     transform="translate(0.21496295,1.2296679)"
     style="font-variation-settings:normal;opacity:1;vector-effect:none;fill:#ffffff;fill-opacity:1;stroke-width:1;stroke-linecap:butt;stroke-linejoin:miter;stroke-miterlimit:4;stroke-dasharray:none;stroke-dashoffset:0;stroke-opacity:1;-inkscape-stroke:none;stop-color:#000000;stop-opacity:1">
    <path
       d="m 23.243202,7.0113899 c 0,-0.785667 -0.21333,-2.074 -1.39033,-2.667333 -1.251,-0.63 -2.41567,0.08333 -3.00567,0.612333 L 9.8210419,13.16569 H 6.5767021 c -1.841,0 -3.33333,1.492333 -3.33333,3.333333 v 8.646067 c 0,1.841 1.49233,3.333333 3.33333,3.333333 h 3.2499998 l 9.0205001,8.107167 c 0.592,0.531667 1.75634,1.24 3.00534,0.610333 1.177,-0.592666 1.39066,-1.878 1.39066,-2.665333 z"
       fill="#000000"
       id="path544"
       style="font-variation-settings:normal;vector-effect:none;fill:#ffffff;fill-opacity:1;stroke-width:1;stroke-linecap:butt;stroke-linejoin:miter;stroke-miterlimit:4;stroke-dasharray:none;stroke-dashoffset:0;stroke-opacity:1;-inkscape-stroke:none;stop-color:#000000;stop-opacity:1" />
    <path
       d="m 30.469872,7.0971229 -0.40133,-0.113333 c -0.88667,-0.246667 -1.80567,0.2700005 -2.05334,1.1573335 l -0.22333,0.802667 c -0.24667,0.886667 0.27,1.8059996 1.15733,2.0533326 l 0.40134,0.113334 c 3.81833,1.065333 6.81,4.903466 6.81,9.660066 0,4.7565 -2.99167,8.5945 -6.81,9.66 l -0.40134,0.113334 c -0.88666,0.246666 -1.40466,1.166666 -1.15733,2.053333 l 0.22333,0.802667 c 0.24667,0.886666 1.16667,1.405 2.05334,1.157333 l 0.40133,-0.113333 c 5.76617,-1.609 9.85683,-7.203834 9.85683,-13.673334 0,-6.469633 -4.09066,-12.0643996 -9.85683,-13.6734001 z"
       fill="#000000"
       id="path546"
       style="font-variation-settings:normal;vector-effect:none;fill:#ffffff;fill-opacity:1;stroke-width:1;stroke-linecap:butt;stroke-linejoin:miter;stroke-miterlimit:4;stroke-dasharray:none;stroke-dashoffset:0;stroke-opacity:1;-inkscape-stroke:none;stop-color:#000000;stop-opacity:1" />
    <path
       d="m 28.840042,13.774357 -0.39934,-0.12 c -0.88166,-0.263334 -1.81033,0.236666 -2.074,1.119333 l -0.24,0.798333 c -0.26333,0.882 0.23667,1.810667 1.11934,2.074334 l 0.39933,0.12 c 0.88867,0.266666 1.84667,1.357333 1.84667,3.004 0,1.646666 -0.958,2.738333 -1.84667,3.004 l -0.39933,0.12 c -0.88167,0.263333 -1.383,1.192333 -1.11934,2.074 l 0.24,0.798333 c 0.26334,0.882 1.19234,1.383 2.074,1.119333 l 0.39934,-0.12 c 2.945,-0.880666 4.81983,-3.8315 4.81983,-6.996 0,-3.164333 -1.87467,-6.115533 -4.81983,-6.996033 z"
       fill="#000000"
       id="path548"
       style="font-variation-settings:normal;vector-effect:none;fill:#ffffff;fill-opacity:1;stroke-width:1;stroke-linecap:butt;stroke-linejoin:miter;stroke-miterlimit:4;stroke-dasharray:none;stroke-dashoffset:0;stroke-opacity:1;-inkscape-stroke:none;stop-color:#000000;stop-opacity:1" />
  </g>
</svg>
