<?xml version="1.0" encoding="UTF-8" standalone="no"?>
<svg
   width="44"
   height="44"
   viewBox="0 0 44 44"
   fill="none"
   version="1.1"
   id="svg6"
   sodipodi:docname="wave-editor.svg"
   inkscape:version="1.3.2 (091e20ef0f, 2023-11-25)"
   xmlns:inkscape="http://www.inkscape.org/namespaces/inkscape"
   xmlns:sodipodi="http://sodipodi.sourceforge.net/DTD/sodipodi-0.dtd"
   xmlns="http://www.w3.org/2000/svg"
   xmlns:svg="http://www.w3.org/2000/svg">
  <defs
     id="defs10" />
  <sodipodi:namedview
     id="namedview8"
     pagecolor="#cdcdcd"
     bordercolor="#666666"
     borderopacity="1.0"
     inkscape:showpageshadow="2"
     inkscape:pageopacity="0.0"
     inkscape:pagecheckerboard="0"
     inkscape:deskcolor="#d1d1d1"
     showgrid="false"
     inkscape:zoom="5.096591"
     inkscape:cx="18.738015"
     inkscape:cy="51.897435"
     inkscape:window-width="1920"
     inkscape:window-height="1011"
     inkscape:window-x="0"
     inkscape:window-y="0"
     inkscape:window-maximized="1"
     inkscape:current-layer="svg6" />
  <rect
     width="44"
     height="44"
     rx="6"
     fill="#0DCD65"
     id="rect2" />
  <path
     d="m 394.32626,302 h -31.20981 a 7.3917963,11.286551 0 0 1 -7.39179,-11.28655 V 181.61012 H 336.0132 v 48.90839 a 7.3917963,11.286551 0 0 1 -7.39179,11.28655 h -28.74588 a 3.2852428,5.0162449 0 0 1 -3.28524,-5.01624 v -10.03249 a 3.2852428,5.0162449 0 0 1 3.28524,-5.01625 h 22.9967 v -48.90839 a 7.3917963,11.286551 0 0 1 7.3918,-11.28655 h 31.2098 a 7.3917963,11.286551 0 0 1 7.3918,11.28655 v 109.10333 h 19.71146 v -48.90839 a 7.3917963,11.286551 0 0 1 7.39179,-11.28655 h 28.74588 A 3.2852428,5.0162449 0 0 1 428,226.75633 v 10.03249 a 3.2852428,5.0162449 0 0 1 -3.28524,5.01624 h -22.9967 v 48.90839 A 7.3917963,11.286551 0 0 1 394.32626,302 Z"
     id="path1"
     style="stroke-width:0.253719" />
  <path
     d="M 28.033683,33.278215 H 22.154712 A 1.3923881,1.8125703 0 0 1 20.762321,31.465646 V 13.944132 h -3.713033 v 7.854472 A 1.3923881,1.8125703 0 0 1 15.6569,23.611173 H 10.242057 A 0.61883914,0.80558677 0 0 1 9.6232172,22.805586 v -1.611174 a 0.61883914,0.80558677 0 0 1 0.6188398,-0.805585 h 4.331874 v -7.854472 a 1.3923881,1.8125703 0 0 1 1.392389,-1.812571 h 5.878969 a 1.3923881,1.8125703 0 0 1 1.39239,1.812571 v 17.521513 h 3.713035 v -7.854472 a 1.3923881,1.8125703 0 0 1 1.392389,-1.812569 h 5.414842 a 0.61883914,0.80558677 0 0 1 0.618838,0.805585 v 1.611174 a 0.61883914,0.80558677 0 0 1 -0.618838,0.805587 H 29.42607 v 7.854473 a 1.3923881,1.8125703 0 0 1 -1.392387,1.812569 z"
     id="path1-9"
     style="font-variation-settings:normal;vector-effect:none;fill:#cdcdcd;fill-opacity:1;stroke-width:0.0353032;stroke-linecap:butt;stroke-linejoin:miter;stroke-miterlimit:4;stroke-dasharray:none;stroke-dashoffset:0;stroke-opacity:1;-inkscape-stroke:none;stop-color:#000000" />
</svg>
