<?xml version="1.0" encoding="UTF-8" standalone="no"?>
<svg
   width="214.11719"
   height="12.66892"
   viewBox="0 0 214.11719 12.66892"
   fill="none"
   version="1.1"
   id="svg4"
   sodipodi:docname="logo.svg"
   inkscape:version="1.1 (c68e22c387, 2021-05-23)"
   xmlns:inkscape="http://www.inkscape.org/namespaces/inkscape"
   xmlns:sodipodi="http://sodipodi.sourceforge.net/DTD/sodipodi-0.dtd"
   xmlns="http://www.w3.org/2000/svg"
   xmlns:svg="http://www.w3.org/2000/svg">
  <defs
     id="defs8" />
  <sodipodi:namedview
     id="namedview6"
     pagecolor="#ffffff"
     bordercolor="#666666"
     borderopacity="1.0"
     inkscape:pageshadow="2"
     inkscape:pageopacity="0.0"
     inkscape:pagecheckerboard="0"
     showgrid="false"
     fit-margin-top="0"
     fit-margin-left="0"
     fit-margin-right="0"
     fit-margin-bottom="0"
     inkscape:zoom="3.3739837"
     inkscape:cx="91.879519"
     inkscape:cy="6.520482"
     inkscape:window-width="1920"
     inkscape:window-height="1007"
     inkscape:window-x="0"
     inkscape:window-y="0"
     inkscape:window-maximized="1"
     inkscape:current-layer="svg4" />
  <path
     d="m 29.390715,4.7845973 c 0.03236,-0.1618 0.05394,-0.291235 0.06472,-0.38832 0.01079,-0.107875 -0.02697,-0.22114 -0.113266,-0.3398 0.04315,-0.172595 0.07551,-0.307435 0.09708,-0.40452 0.03236,-0.09708 0.03776,-0.23193 0.01618,-0.404525 0.09708,-0.280465 0.242715,-0.517785 0.436885,-0.71196 0.204955,-0.19417 0.426094,-0.355975 0.663415,-0.485425 0.23732,-0.140235 0.485424,-0.2535 0.744319,-0.3398 0.258896,-0.097085 0.501611,-0.17799 0.728141,-0.24271 0,-0.04315 -0.02157,-0.064725 -0.06473,-0.064725 -0.04314,0 -0.05393,-0.02697 -0.03236,-0.080905 0.582515,-0.10787 1.165025,-0.264285 1.747535,-0.469245 0.593315,-0.20496 1.197366,-0.38834 1.812266,-0.55015 0.614849,-0.16181 1.245899,-0.258894 1.893149,-0.291256 0.64725,-0.043149 1.32685,0.037755 2.0388,0.242711 0.0431,0.12945 0.1025,0.253505 0.178,0.372165 0.0755,0.11866 0.151,0.237315 0.2265,0.355975 0.0863,0.107875 0.16185,0.215745 0.22655,0.32362 0.0647,0.107875 0.1025,0.22114 0.11325,0.3398 0.12945,0.11866 0.23195,0.248105 0.30745,0.38834 0.0863,0.129445 0.1025,0.307435 0.0485,0.53397 -0.11865,0.086295 -0.2427,0.172595 -0.37215,0.258895 -0.12945,0.086295 -0.2643,0.1672 -0.40455,0.24271 -0.4854,-0.11866 -0.97085,-0.161805 -1.45625,-0.129445 -0.48545,0.03236 -0.9223,0.07011 -1.31065,0.113265 -0.11865,-0.129445 -0.258899,-0.188775 -0.420699,-0.17799 -0.1618,0 -0.334401,0.02697 -0.517801,0.0809 -0.172599,0.04315 -0.345199,0.09169 -0.5178,0.14563 -0.1726,0.04314 -0.3344,0.05393 -0.485399,0.03236 -0.118701,0.107875 -0.275101,0.183385 -0.469251,0.22653 -0.194199,0.03237 -0.399145,0.05933 -0.61489,0.0809 -0.01078,0.05394 0,0.09169 0.03236,0.11327 0.03236,0.02158 0.03776,0.06472 0.01618,0.129445 0.07551,0.09708 0.177989,0.167205 0.307445,0.21035 0.129449,0.03237 0.258899,0.06472 0.38835,0.09708 0.140199,0.03237 0.264249,0.0809 0.372149,0.14563 0.10785,0.05393 0.178,0.14563 0.210351,0.275075 0.194149,0.01079 0.36135,0.06473 0.501599,0.16181 0.140251,0.08628 0.2589,0.19418 0.356,0.32363 0.09705,0.12945 0.1672,0.26965 0.21035,0.4207 0.04315,0.1402 0.0593,0.26965 0.04855,0.38835 0.0431,0.10785 0.08625,0.151 0.129399,0.12945 0.05395,-0.0216 0.113301,0.0053 0.178001,0.0809 0.04315,0.1618 0.140249,0.3344 0.291246,0.51775 0.16185,0.1726 0.2859,0.3614 0.3722,0.56635 0.0216,0.3236 0.0378,0.6149 0.0485,0.87375 0.0216,0.2589 -0.0216,0.5124 -0.12945,0.7605 -0.18335,0.47465 -0.447646,0.90075 -0.792847,1.2783 -0.3452,0.3775497 -0.7389,0.7119497 -1.1812,1.0032497 -0.4315,0.28045 -0.88995,0.52855 -1.375369,0.7443 -0.485426,0.20495 -0.965461,0.37755 -1.4401,0.5178 -0.04315,-0.0108 -0.09709,-0.0108 -0.161805,0 -0.05394,0.01075 -0.06473,-0.0216 -0.03236,-0.0971 -0.09709,0.0863 -0.210351,0.14025 -0.339801,0.1618 -0.118654,0.0216 -0.253499,0.027 -0.404519,0.0162 -0.140236,0 -0.28586,-0.0054 -0.436886,-0.0162 -0.140235,-0.0108 -0.280464,-0.0054 -0.420699,0.0162 -0.0863,-0.0863 -0.167205,-0.1726 -0.242716,-0.2589 -0.06472,-0.0863 -0.11866,-0.1888 -0.16181,-0.30745 -0.05393,-0.0108 -0.08091,-0.04315 -0.08091,-0.0971 0.01079,-0.0647 -0.01078,-0.09705 -0.06472,-0.09705 0,-0.04315 0.0054,-0.0755 0.01618,-0.0971 0.01078,-0.02155 0.02157,-0.04315 0.03236,-0.0647 0.04315,-0.0324 0.05933,-0.05395 0.04854,-0.06475 0,-0.02155 -0.01618,-0.03775 -0.04854,-0.04855 -0.02157,-0.02155 -0.04854,-0.04315 -0.08091,-0.0647 -0.02157,-0.0216 -0.02697,-0.04855 -0.01618,-0.0809 0.05394,-0.0971 0.07012,-0.21035 0.04855,-0.3398 -0.01079,-0.14025 -0.02157,-0.2805 -0.03236,-0.4207 -0.01078,-0.14025 0,-0.2697 0.03236,-0.3883497 0.03236,-0.12945 0.12405,-0.23735 0.275076,-0.32365 0.442274,0.04315 0.857585,0.0216 1.245925,-0.0647 0.39913,-0.0863 0.771289,-0.20495 1.116484,-0.356 0.355975,-0.151 0.690381,-0.3128 1.00321,-0.4854 0.32362,-0.1834 0.636451,-0.3506 0.9385,-0.5016 0.03235,-0.1079 0.0809,-0.1996 0.145601,-0.2751 0.07555,-0.0755 0.151049,-0.1456 0.22655,-0.21035 0.0755,-0.0755 0.145649,-0.151 0.210349,-0.2265 0.06475,-0.0863 0.113251,-0.1888 0.14565,-0.30745 0.01075,-0.04315 0.01075,-0.0755 0,-0.0971 -0.0108,-0.02155 -0.027,-0.03775 -0.04855,-0.04855 -0.0216,-0.02155 -0.04315,-0.04315 -0.06475,-0.0647 -0.02155,-0.0216 -0.03235,-0.05395 -0.03235,-0.0971 -0.03235,-0.0108 -0.0647,-0.02155 -0.0971,-0.03235 -0.02155,-0.0108 -0.04315,-0.0162 -0.0647,-0.0162 -0.28045,-0.1402 -0.5771,-0.2589 -0.88995,-0.35595 -0.312829,-0.0971 -0.577119,-0.205 -0.792864,-0.32365 -0.129446,0.0863 -0.258896,0.1079 -0.38834,0.06475 -0.129451,-0.04315 -0.285865,-0.0863 -0.469245,-0.12945 -0.453066,-0.0216 -0.884556,-0.06475 -1.294476,-0.12945 -0.399124,-0.06475 -0.78747,-0.178 -1.16502,-0.3398 -0.02157,-0.06475 -0.04855,-0.11865 -0.08091,-0.1618 -0.03236,-0.05395 -0.107874,-0.07015 -0.226534,-0.04855 -0.07551,-0.1079 -0.156415,-0.20495 -0.242712,-0.29125 -0.07551,-0.0971 -0.145628,-0.20495 -0.210352,-0.32365 z m 13.263794,6.1649497 c 0.054,0.3236 0.0323,0.5771 -0.0648,0.7605 -0.0863,0.18335 -0.2157,0.3182 -0.3883,0.4045 -0.16185,0.0971 -0.3506,0.15105 -0.56635,0.1618 -0.21575,0.0108 -0.4207,0 -0.61485,-0.03235 -0.1079,-0.151 -0.205,-0.3398 -0.2913,-0.5663 -0.0863,-0.22655 -0.1672,-0.4585 -0.2427,-0.6958 -0.0755,-0.2481 -0.1456,-0.4908 -0.21035,-0.72815 -0.054,-0.2373 -0.10245,-0.4476497 -0.1456,-0.6310497 0.0539,-0.12945 0.0863,-0.27505 0.097,-0.4369 0.0216,-0.17255 0.0324,-0.34515 0.0324,-0.51775 0.0108,-0.1726 0.0161,-0.3452 0.0161,-0.5178 0.0108,-0.1834 0.027,-0.356 0.0486,-0.5178 0.0755,-0.45305 0.1834,-0.88455 0.3236,-1.29445 0.15105,-0.40995 0.2697,-0.83605 0.356,-1.2783 0.0216,-0.0971 0.0108,-0.1888 -0.0323,-0.2751 -0.0324,-0.0863 -0.0378,-0.1672 -0.0162,-0.242695 0.0108,-0.04315 0.0432,-0.07011 0.0971,-0.0809 0.054,-0.02158 0.0863,-0.05933 0.097,-0.11327 0.0324,-0.11866 0.0378,-0.215745 0.0162,-0.291255 -0.0108,-0.07551 0.0108,-0.1672 0.0648,-0.275075 0.0539,-0.0863 0.11865,-0.21035 0.19415,-0.37216 0.0863,-0.172595 0.11865,-0.350585 0.0971,-0.53397 0.0971,-0.064725 0.18875,-0.140235 0.27505,-0.22653 0.0863,-0.0863 0.1726,-0.16181 0.2589,-0.226535 0.0971,-0.07551 0.19955,-0.140235 0.30745,-0.19417 0.11865,-0.053935 0.2589,-0.080905 0.4207,-0.080905 0.0863,0.107875 0.14025,0.226535 0.1618,0.35598 0.0324,0.12945 0.0594,0.258895 0.0809,0.38834 0.0324,0.12945 0.0755,0.2535 0.12945,0.37216 0.054,0.107875 0.14565,0.194175 0.2751,0.258895 0,0.0863 0,0.19417 0,0.32362 0,0.129445 0.005,0.258895 0.0161,0.38834 0.0108,0.11866 0.0324,0.231925 0.0648,0.3398 0.0431,0.09708 0.10785,0.16183 0.19415,0.19418 -0.19415,0.5178 -0.37755,1.03015 -0.55015,1.53715 -0.1618,0.507 -0.29665,1.0194 -0.4045,1.5372 -0.1079,0.507 -0.178,1.0194 -0.21035,1.5372 -0.0216,0.5178 0.0161,1.0409497 0.11325,1.5695497 z m 10.35125,-3.2361997 c -0.0108,0.05395 -0.0216,0.1025 -0.0324,0.14565 -0.0108,0.03235 -0.0216,0.0647 -0.0324,0.09705 -0.0108,0.0324 -0.0161,0.07555 -0.0161,0.12945 0,0.04315 0,0.1025 0,0.178 -0.32365,0.57175 -0.73355,1.05175 -1.22975,1.4401 -0.48545,0.3883497 -1.0248,0.7335497 -1.6181,1.0355997 -0.5825,0.29125 -1.192,0.5609 -1.82845,0.80905 -0.63645,0.2373 -1.2567,0.4962 -1.8608,0.77665 -0.2589,-0.0647 -0.45845,-0.1726 -0.5987,-0.3236 -0.12945,-0.15105 -0.2319,-0.3236 -0.30745,-0.5178 -0.0647,-0.20495 -0.11325,-0.4261 -0.1456,-0.6634 -0.0216,-0.2481 -0.0432,-0.5016 -0.0648,-0.7605 0.0324,-0.1186497 0.0755,-0.2157497 0.12945,-0.2912497 0.0648,-0.0863 0.0971,-0.20495 0.0971,-0.356 0.0863,-0.28045 0.1726,-0.55555 0.2589,-0.8252 0.0863,-0.2697 0.14025,-0.5448 0.1618,-0.82525 0.0323,-0.0863 0.0917,-0.1456 0.178,-0.178 0.054,-0.51775 0.054,-1.04095 0,-1.56955 -0.0431,-0.53935 -0.12945,-1.04095 -0.2589,-1.504805 0.0108,-0.10787 0.0216,-0.183385 0.0323,-0.22653 0.0216,-0.05394 0.0216,-0.09169 0,-0.11327 -0.0108,-0.08629 0.0162,-0.129445 0.0809,-0.129445 0.0756,0 0.15105,0 0.22655,0 0,-0.16181 -0.0323,-0.32362 -0.0971,-0.485425 -0.0539,-0.16181 -0.10785,-0.345195 -0.1618,-0.55015 0.0755,-0.16181 0.12405,-0.318225 0.14565,-0.46925 0.0215,-0.161805 0.0701,-0.30204 0.1456,-0.4207 0.5825,0.183385 1.13805,0.40452 1.66665,0.663415 0.53935,0.258895 1.06795,0.44767 1.5857,0.56633 0.38835,0.28047 0.7875,0.56094 1.1974,0.84141 0.4099,0.26968 0.7821,0.57172 1.1165,0.90612 0.3344,0.3236 0.61485,0.6958 0.8414,1.1165 0.2265,0.4207 0.35595,0.9223 0.38835,1.5048 z m -3.8349,0.88995 c 0.22655,-0.0863 0.4477,-0.178 0.66345,-0.27505 0.2265,-0.0971 0.43145,-0.20495 0.61485,-0.32365 0.19415,-0.12945 0.36675,-0.27505 0.5178,-0.43685 0.151,-0.16185 0.27505,-0.356 0.37215,-0.58255 -0.0647,-0.12945 -0.151,-0.2427 -0.2589,-0.3398 -0.10785,-0.10785 -0.21575,-0.20495 -0.3236,-0.29125 -0.1079,-0.09705 -0.21575,-0.19415 -0.32365,-0.29125 -0.097,-0.09705 -0.17795,-0.21575 -0.2427,-0.35595 -0.14025,-0.0216 -0.2643,-0.05935 -0.37215,-0.1133 -0.10785,-0.0647 -0.21575,-0.12405 -0.3236,-0.178 -0.0971,-0.0647 -0.205,-0.12405 -0.32365,-0.17795 -0.10785,-0.05395 -0.2373,-0.0863 -0.38835,-0.0971 -0.2373,-0.11865 -0.45305,-0.20495 -0.6472,-0.2589 -0.1834,-0.05395 -0.32365,-0.12405 -0.4207,-0.21035 -0.0755,0 -0.13485,0.0162 -0.178,0.04855 0.10785,0.4099 0.18875,0.79825 0.2427,1.165 0.054,0.356 0.0809,0.71735 0.0809,1.08415 0.0108,0.35595 -0.005,0.72275 -0.0486,1.1003 -0.0431,0.37755 -0.10245,0.78745 -0.17795,1.22975 0.10785,-0.0108 0.20495,-0.03235 0.29125,-0.06475 0.097,-0.04315 0.18875,-0.0863 0.27505,-0.12945 0.0971,-0.04315 0.1942,-0.0809 0.29125,-0.11325 0.1079,-0.04315 0.23195,-0.0701 0.3722,-0.0809 0.0324,-0.06475 0.0755,-0.11865 0.1294,-0.1618 0.0648,-0.04315 0.1241,-0.0917 0.178,-0.14565 z m 13.458,-5.63094 c 0.0108,0.07551 0.0108,0.13484 0,0.17799 0,0.03237 -0.005,0.06472 -0.0162,0.09708 0,0.03237 0,0.07012 0,0.113265 0,0.03237 0.0108,0.0863 0.0324,0.16181 -0.2265,0.36677 -0.4908,0.62027 -0.79285,0.760505 -0.29125,0.129445 -0.6095,0.22653 -0.95465,0.291255 -0.3452,0.05393 -0.7012,0.11328 -1.06795,0.17798 -0.356,0.06475 -0.71195,0.20495 -1.06795,0.4207 -0.14025,-0.0539 -0.2697,-0.0539 -0.38835,0 -0.10785,0.05395 -0.26965,0.07015 -0.4854,0.04855 -0.0647,0.06475 -0.14565,0.11325 -0.24275,0.14565 -0.097,0.02155 -0.19415,0.0485 -0.29125,0.0809 0.0431,0.09705 0.0593,0.19955 0.0485,0.3074 0,0.0971 0.0162,0.178 0.0486,0.24275 0.37755,0.03235 0.79285,0.02695 1.24595,-0.0162 0.46385,-0.04315 0.9169,-0.0701 1.35915,-0.0809 0.0108,0.05395 0.005,0.0917 -0.0162,0.11325 -0.0216,0.0108 -0.027,0.03775 -0.0162,0.0809 0.0755,0.05395 0.15105,0.1241 0.22655,0.21035 0.0755,0.07555 0.151,0.15105 0.2265,0.22655 0.0755,0.0755 0.15105,0.14025 0.22655,0.1942 0.0863,0.04315 0.1834,0.0593 0.29125,0.0485 0.0431,0.0863 0.0701,0.1834 0.0809,0.2913 0.0216,0.09705 0.0108,0.19955 -0.0323,0.3074 -0.1726,0.11865 -0.3452,0.24275 -0.5178,0.37215 -0.1726,0.1187 -0.35595,0.22655 -0.55015,0.32365 -0.18335,0.0971 -0.38295,0.178 -0.5987,0.2427 -0.20495,0.05395 -0.43685,0.0755 -0.69575,0.06475 -0.054,0 -0.0971,0 -0.12945,0 -0.0216,0 -0.054,-0.0162 -0.0971,-0.04855 -0.0863,0.0539 -0.21035,0.0701 -0.37215,0.04855 -0.151,-0.0216 -0.2697,-0.0054 -0.356,0.0485 -0.11865,-0.0539 -0.26425,-0.0755 -0.43685,-0.0647 -0.1618,0 -0.30745,-0.0216 -0.4369,-0.06475 -0.1726,0.22655 -0.329,0.46925 -0.46925,0.72815 -0.14025,0.2589 -0.2643,0.534 -0.37215,0.82525 0.36675,0.0539 0.6688,0.0755 0.90615,0.0647 0.2481,-0.0108 0.48,-0.02695 0.69575,-0.04855 0.21575,-0.03235 0.4369,-0.0593 0.6634,-0.0809 0.22655,-0.03235 0.5124,-0.04315 0.8576,-0.03235 0.21575,-0.11865 0.46925,-0.19415 0.7605,-0.22655 0.30205,-0.04315 0.57715,-0.10785 0.82525,-0.19415 0.0863,0.03235 0.1618,0.0917 0.2265,0.178 0.0647,0.0755 0.12405,0.151 0.178,0.2265 0.0648,0.06475 0.12945,0.12405 0.1942,0.178 0.0647,0.05395 0.1456,0.0755 0.2427,0.06475 0.0431,0.04315 0.0701,0.09705 0.0809,0.1617997 0.0216,0.05395 0.0378,0.10785 0.0486,0.1618 0.0108,0.05395 0.0269,0.1025 0.0485,0.14565 0.0324,0.03235 0.0809,0.04315 0.1456,0.03235 -0.1618,0.35595 -0.3506,0.63105 -0.5663,0.8252 -0.205,0.1834 -0.4423,0.32365 -0.712,0.4207 -0.26965,0.0971 -0.5717,0.1726 -0.9061,0.22655 -0.32365,0.05395 -0.685,0.11865 -1.08415,0.19415 -0.0971,0.0216 -0.17795,0.0162 -0.2427,-0.01615 -0.0647,-0.0216 -0.14025,-0.03235 -0.2265,-0.03235 -0.24815,0.0539 -0.5448,0.10245 -0.88995,0.1456 -0.3452,0.04315 -0.6958,0.05935 -1.0518,0.04855 -0.35595,-0.0108 -0.69575,-0.05935 -1.0194,-0.14565 -0.3236,-0.0755 -0.5879,-0.2157 -0.79285,-0.4207 -0.0863,-0.0755 -0.1456,-0.1618 -0.178,-0.25885 -0.0216,-0.1079 -0.0917,-0.1888 -0.21035,-0.24275 -0.0108,-0.1402 -0.0323,-0.29665 -0.0647,-0.46925 -0.0323,-0.1726 -0.0647,-0.35055 -0.0971,-0.53395 -0.0323,-0.19415 -0.0593,-0.3829497 -0.0809,-0.5663497 -0.0108,-0.18335 0,-0.35055 0.0324,-0.5016 0.0324,-0.1618 0.0971,-0.30745 0.1942,-0.43685 0.10785,-0.12945 0.1456,-0.2697 0.11325,-0.42075 0.054,-0.01075 0.0863,-0.03775 0.0971,-0.0809 0.0108,-0.0539 0.0539,-0.0755 0.12945,-0.0647 0.0647,-0.1942 0.13485,-0.37755 0.21035,-0.55015 0.0755,-0.1726 0.151,-0.3398 0.2265,-0.5016 0.0863,-0.1618 0.1672,-0.32365 0.24275,-0.48545 0.0863,-0.1726 0.1672,-0.36135 0.2427,-0.5663 -0.15105,-0.14025 -0.2643,-0.2913 -0.3398,-0.4531 -0.0647,-0.1726 -0.11325,-0.3398 -0.14565,-0.5016 -0.0324,-0.1726 -0.0593,-0.3452 -0.0809,-0.51778 -0.0216,-0.183385 -0.0593,-0.36677 -0.11325,-0.55015 0.10785,-0.16181 0.2373,-0.291255 0.38835,-0.38834 0.1618,-0.107875 0.3344,-0.194175 0.5178,-0.258895 0.18335,-0.06473 0.38295,-0.11866 0.59865,-0.16181 0.21575,-0.04315 0.4423,-0.09169 0.6796,-0.14563 0.4315,-0.140235 0.81445,-0.248105 1.14885,-0.323615 0.3452,-0.07551 0.6796,-0.13484 1.00325,-0.17799 0.3344,-0.053935 0.67955,-0.10248 1.03555,-0.14563 0.356,-0.04315 0.7605,-0.10787 1.21355,-0.19417 0.0971,0.097085 0.1888,0.14563 0.2751,0.14563 0.0431,-0.097085 0.0917,-0.124055 0.1456,-0.080905 0.0648,0.03236 0.0917,0 0.081,-0.097085 0.10785,0.18338 0.2427,0.339795 0.4045,0.469245 0.1726,0.11866 0.36135,0.22114 0.56635,0.307435 z m 6.67815,9.1421897 c -0.1726,0.0108 -0.38835,0.0054 -0.64725,-0.01615 -0.2481,-0.0216 -0.48,0.01615 -0.69575,0.11325 -0.57175,-0.0216 -1.15425,-0.0917 -1.74755,-0.21035 -0.5933,-0.11865 -1.13805,-0.2643 -1.63425,-0.4369 -0.1079,-0.11865 -0.21575,-0.2265 -0.32365,-0.3236 -0.10785,-0.1079 -0.2535,-0.1834 -0.43685,-0.22655 -0.2589,-0.20495 -0.46925,-0.45305 -0.63105,-0.7443 -0.16185,-0.3020497 -0.29125,-0.6202997 -0.38835,-0.9546997 -0.0971,-0.3344 -0.1618,-0.6742 -0.1942,-1.0194 -0.0324,-0.35595 -0.0431,-0.69575 -0.0324,-1.01935 0.1618,-0.48545 0.38835,-0.90075 0.6796,-1.24595 0.30205,-0.356 0.6095,-0.70655 0.9223,-1.05175 0.14025,-0.06475 0.24275,-0.12945 0.30745,-0.1942 0.0755,-0.0755 0.151,-0.1402 0.22655,-0.19415 0.0863,-0.06472 0.1672,-0.124055 0.2427,-0.17799 0.0863,-0.06472 0.1618,-0.140235 0.22655,-0.22653 0.2265,-0.05394 0.4207,-0.12945 0.5825,-0.226535 0.1726,-0.10787 0.3398,-0.215745 0.5016,-0.323615 0.1618,-0.11866 0.329,-0.226535 0.5016,-0.32362 0.1726,-0.09708 0.37215,-0.172595 0.5987,-0.226535 0.0863,-0.09708 0.1888,-0.172595 0.30745,-0.22653 0.11865,-0.064725 0.2373,-0.124055 0.35595,-0.17799 0.12945,-0.064725 0.2481,-0.129445 0.356,-0.19417 0.11865,-0.064725 0.21035,-0.15102 0.27505,-0.258895 0.0539,0.0863 0.12945,0.11866 0.22655,0.097085 0.0971,-0.03236 0.1888,-0.064725 0.2751,-0.097085 0.0539,-0.010785 0.097,0 0.12945,0.03236 0.0431,0.032365 0.0809,0.064725 0.11325,0.09709 0.0323,0.03236 0.0593,0.053935 0.0809,0.06472 0.0324,0 0.0593,-0.026965 0.0809,-0.080905 0.0539,0 0.0701,0.02697 0.0486,0.080905 -0.0216,0.053935 -0.0378,0.091695 -0.0486,0.113265 0.0863,-0.010785 0.1564,0.01079 0.21035,0.064725 0.0647,0.04315 0.1618,0.07012 0.29125,0.080905 0.0431,0.053935 0.0539,0.097085 0.0324,0.129445 -0.0216,0.021575 -0.0324,0.064725 -0.0324,0.12945 0.32365,0.09708 0.5286,0.2535 0.6149,0.469245 0.0863,0.20496 0.0916,0.420705 0.0161,0.647235 -0.0755,0.226535 -0.21035,0.436885 -0.4045,0.63107 -0.1942,0.19415 -0.40455,0.3236 -0.63105,0.38835 -0.5178,0.1402 -1.0086,0.29665 -1.47245,0.4692 -0.4531,0.16185 -0.82525,0.40455 -1.1165,0.72815 -0.2589,0.0755 -0.49085,0.178 -0.6958,0.30745 -0.19415,0.11865 -0.38295,0.2589 -0.5663,0.4207 -0.1726,0.151 -0.3398,0.31285 -0.5016,0.48545 -0.15105,0.1618 -0.31285,0.3236 -0.48545,0.4854 0.0108,0.15105 -0.0162,0.2697 -0.0809,0.356 -0.054,0.0755 -0.1079,0.1564 -0.1618,0.2427 0.0216,0.1618 0.0593,0.30745 0.11325,0.4369 0.054,0.11865 0.11325,0.2373 0.178,0.35595 0.71195,0.21575 1.46705,0.3506 2.2653,0.40455 0.80905,0.0539 1.6181,0.0863 2.42715,0.09705 0.0755,0.1079 0.1618,0.2103497 0.2589,0.3074497 0.10785,0.0863 0.20495,0.1834 0.29125,0.29125 0.0863,0.0971 0.1564,0.21035 0.21035,0.3398 0.054,0.11865 0.0648,0.2697 0.0324,0.45305 -0.151,0.16185 -0.3182,0.31285 -0.5016,0.4531 -0.1834,0.12945 -0.36675,0.2643 -0.55015,0.4045 z m 10.56135,-1.6019 c 0.022,0.28045 -0.0105,0.5124 -0.097,0.6958 -0.086,0.18335 -0.205,0.3398 -0.356,0.46925 -0.151,0.1294 -0.32345,0.2319 -0.5176,0.3074 -0.1942,0.07555 -0.38295,0.14565 -0.56635,0.21035 -0.0863,-0.0539 -0.1726,-0.10785 -0.2589,-0.1618 -0.0755,-0.0647 -0.1672,-0.11325 -0.27505,-0.1456 -0.14025,-0.2589 -0.2751,-0.48545 -0.40455,-0.6796 -0.12945,-0.205 -0.18875,-0.4369 -0.17795,-0.6958 0,-0.0108 0.005,-0.0701 0.0162,-0.178 0.0216,-0.10785 0.0431,-0.2265 0.0648,-0.3559497 0.0323,-0.12945 0.0539,-0.2481 0.0647,-0.356 0.0216,-0.11865 0.0324,-0.1834 0.0324,-0.19415 -0.2481,0.02155 -0.507,0.0755 -0.77665,0.1618 -0.2697,0.0863 -0.534,0.18875 -0.7929,0.30745 -0.2481,0.1186497 -0.4854,0.2372997 -0.71195,0.3559497 -0.21575,0.11865 -0.3937,0.22115 -0.53395,0.30745 0,0.03235 -0.0216,0.11325 -0.0648,0.2427 -0.0431,0.11865 -0.097,0.2481 -0.1618,0.38835 -0.0647,0.12945 -0.13485,0.2481 -0.21035,0.356 -0.0755,0.10785 -0.151,0.1618 -0.2265,0.1618 0.0108,0.03235 0.0269,0.0647 0.0485,0.09705 0.0216,0.0324 0.0216,0.07555 0,0.12945 -0.151,0.04315 -0.28585,0.0971 -0.4045,0.16185 -0.11865,0.0755 -0.2427,0.1348 -0.37215,0.17795 -0.12945,0.05395 -0.2697,0.08095 -0.4207,0.08095 -0.15105,0 -0.32905,-0.05395 -0.534,-0.16185 0,-0.0647 -0.0269,-0.11865 -0.0809,-0.1618 -0.0539,-0.05395 -0.11325,-0.0971 -0.178,-0.12945 -0.0539,-0.04315 -0.10245,-0.0755 -0.1456,-0.0971 -0.0431,-0.03235 -0.0648,-0.0593 -0.0648,-0.0809 -0.0539,0.0108 -0.0755,-0.02695 -0.0647,-0.11325 0.0108,-0.0863 0.0539,-0.10785 0.12945,-0.0647 -0.11865,-0.15105 -0.1942,-0.2805 -0.22655,-0.38835 -0.0215,-0.11865 -0.0809,-0.2643 -0.178,-0.4369 0.0216,-0.02155 0.0431,-0.0593 0.0648,-0.11325 0.0108,-0.05395 0.0215,-0.1025 0.0324,-0.14565 0.0108,-0.04315 0.0269,-0.0755 0.0486,-0.09705 0.0215,-0.0216 0.0485,-0.0162 0.0809,0.01615 -0.0215,-0.0971 -0.0215,-0.178 0,-0.2427 0.0216,-0.06475 0.0431,-0.12405 0.0648,-0.1779997 0.0215,-0.05395 0.0377,-0.10785 0.0485,-0.1618 0.0108,-0.05395 -0.005,-0.11325 -0.0485,-0.178 0.17255,-0.2373 0.28585,-0.4908 0.33975,-0.7605 0.0539,-0.28045 0.0863,-0.53395 0.0971,-0.7605 0.0755,-0.0755 0.14025,-0.1834 0.1942,-0.3236 0.0647,-0.14025 0.11325,-0.2805 0.1456,-0.4207 0.0324,-0.15105 0.0431,-0.29125 0.0324,-0.4207 0,-0.14025 -0.0162,-0.2535 -0.0485,-0.3398 0.0108,-0.05395 0.0701,-0.07015 0.17795,-0.04855 0.0648,-0.356 0.1079,-0.7551 0.12945,-1.1974 0.0324,-0.45305 0.0809,-0.87916 0.14565,-1.27829 0.0647,-0.409915 0.1726,-0.765895 0.3236,-1.067935 0.15105,-0.31283 0.39375,-0.51779 0.72815,-0.614875 0.0647,0.22653 0.14565,0.426095 0.2427,0.59869 0.1079,0.1726 0.22115,0.3398 0.3398,0.50161 0.12945,0.15102 0.2535,0.307435 0.37215,0.469245 0.12945,0.16181 0.24815,0.34519 0.356,0.55015 -0.0108,0.204955 -0.0324,0.442255 -0.0647,0.711955 -0.0324,0.2697 -0.0755,0.54475 -0.12945,0.82525 -0.0431,0.28045 -0.0917,0.55015 -0.14565,0.809 -0.0432,0.2589 -0.0863,0.48005 -0.12945,0.66345 0.0108,0.05395 0.0378,0.0863 0.0809,0.0971 0.0539,0.01075 0.0648,0.0593 0.0324,0.1456 0.2589,-0.0647 0.5286,-0.12405 0.80905,-0.178 0.2805,-0.0539 0.56095,-0.11325 0.8414,-0.178 0.2805,-0.0647 0.55015,-0.1348 0.80905,-0.21035 0.2697,-0.0863 0.5178,-0.18875 0.74435,-0.3074 0.0539,-0.4207 0.12405,-0.8414 0.21035,-1.2621 0.0863,-0.42075 0.097,-0.8522 0.0323,-1.294495 0.054,-0.04315 0.0971,-0.09708 0.12945,-0.16181 0.0323,-0.06472 0.0863,-0.10787 0.1618,-0.129445 -0.054,-0.20496 -0.0755,-0.420705 -0.0647,-0.647235 0.0108,-0.226535 0.0486,-0.44228 0.11325,-0.647235 0.0755,-0.20496 0.178,-0.377555 0.30745,-0.51779 0.1402,-0.15102 0.30765,-0.248105 0.50165,-0.291255 0.1185,0.172595 0.221,0.361375 0.3075,0.56633 0.086,0.19417 0.1725,0.393735 0.259,0.598695 0.097,0.19417 0.194,0.382945 0.291,0.56633 0.108,0.172595 0.2425,0.323615 0.4045,0.453065 0.0325,0.31283 0.054,0.636445 0.065,0.970845 0.0215,0.3344 0.0375,0.6742 0.0485,1.0194 -0.0865,0.4099 -0.1835,0.80905 -0.2915,1.1974 -0.097,0.37755 -0.167,0.78205 -0.2105,1.21355 -0.0755,0.0863 -0.1345,0.1834 -0.178,0.29125 -0.043,0.1079 -0.086,0.22115 -0.129,0.3398 -0.0435,0.1079 -0.092,0.21575 -0.146,0.32365 -0.054,0.09705 -0.1185,0.18335 -0.194,0.25885 0.043,0.12945 0.0485,0.2535 0.016,0.3721997 -0.0215,0.10785 0.011,0.2427 0.097,0.4045 z m 10.416,0.21035 c -0.0645,0.1834 -0.1615,0.37215 -0.291,0.56635 -0.1185,0.18335 -0.2645,0.35055 -0.437,0.5016 -0.1615,0.14025 -0.345,0.2589 -0.55,0.35595 -0.205,0.0971 -0.421,0.15105 -0.6475,0.16185 -0.14,-0.0324 -0.237,-0.07015 -0.291,-0.1133 -0.043,-0.03235 -0.092,-0.0647 -0.1455,-0.09705 -0.0325,-0.0216 -0.065,-0.03775 -0.0975,-0.04855 -0.0215,-0.0216 -0.043,-0.03775 -0.0645,-0.04855 l -0.194,-0.0809 0.0645,-0.21035 c 0.0215,-0.0863 0.016,-0.15105 -0.016,-0.1942 -0.0325,-0.0539 -0.097,-0.12405 -0.1945,-0.21035 -0.032,-0.03235 -0.0645,-0.0647 -0.097,-0.09705 -0.0325,-0.0324 -0.059,-0.06475 -0.081,-0.0971 l -0.275,-0.30745 0.437,-0.11325 c 0.2695,-0.0755 0.4475,-0.1726 0.534,-0.29125 0.097,-0.11865 0.135,-0.31825 0.113,-0.5986997 -0.2155,-0.04315 -0.399,-0.04855 -0.55,-0.0162 -0.14,0.0324 -0.286,0.07015 -0.437,0.1133 -0.194,0.0539 -0.3935,0.1024497 -0.5985,0.1455997 -0.194,0.03235 -0.41,0.04855 -0.647,0.04855 -0.0865,0 -0.1675,0 -0.243,0 -0.0755,-0.0108 -0.1565,-0.02155 -0.2425,-0.03235 l -0.162,-0.03235 c -0.0215,-0.1186997 -0.043,-0.1833997 -0.0645,-0.1941997 -0.022,-0.02155 -0.0435,-0.04315 -0.065,-0.0647 -0.054,-0.05395 -0.113,-0.12405 -0.178,-0.21035 -0.054,-0.0971 -0.0645,-0.21575 -0.0325,-0.356 -0.0535,-0.0971 -0.086,-0.19415 -0.097,-0.29125 -0.0645,0.12945 -0.113,0.2643 -0.1455,0.4045 l -0.0645,0.16185 -0.162,0.03235 c -0.0215,0.0108 -0.038,0.03775 -0.0485,0.0809 -0.011,0.03235 -0.016,0.0593 -0.016,0.0809 l -0.081,0.27505 c -0.0215,0.0216 -0.0435,0.04315 -0.065,0.06475 -0.0215,0.0108 -0.043,0.02695 -0.0645,0.04855 -0.0215,0.09705 -0.0485,0.19415 -0.081,0.29125 -0.0325,0.0971 -0.0645,0.18875 -0.097,0.27505 -0.054,0.14025 -0.1025,0.2805 -0.1455,0.4207 -0.0325,0.12945 -0.0435,0.2589 -0.0325,0.38835 l -0.065,0.178 c -0.0535,0.06475 -0.113,0.11865 -0.178,0.1618 -0.0645,0.03235 -0.129,0.06475 -0.194,0.0971 -0.0215,0.02155 -0.054,0.04315 -0.097,0.0647 -0.0325,0.0108 -0.0595,0.0216 -0.081,0.0324 l -0.0485,0.17795 -0.194,0.0324 c -0.119,0.02155 -0.205,0.03775 -0.259,0.04855 -0.043,0.01075 -0.097,0.01615 -0.162,0.01615 l -0.1615,-0.01615 c -0.119,-0.0971 -0.2105,-0.1726 -0.275,-0.22655 -0.065,-0.06475 -0.1405,-0.12405 -0.227,-0.178 -0.097,-0.12945 -0.151,-0.22655 -0.1615,-0.29125 -0.011,-0.0647 -0.0215,-0.12405 -0.0325,-0.178 -0.0215,-0.0647 -0.0325,-0.11865 -0.0325,-0.1618 -0.0105,-0.04315 -0.027,-0.0755 -0.0485,-0.0971 l -0.21,-0.19415 0.178,-0.14565 0.016,-0.27505 c 0.2155,-0.5501488 0.4425,-1.0787488 0.6795,-1.5857488 0.248,-0.507 0.5015,-1.02475 0.7605,-1.55335 0.0865,-0.1726 0.1675,-0.3452 0.243,-0.5178 0.086,-0.1726 0.1725,-0.3452 0.2585,-0.5178 -0.0105,-0.03235 -0.016,-0.0701 -0.016,-0.11325 0,-0.04315 0.011,-0.0917 0.0325,-0.1456 0.1185,-0.1834 0.2155,-0.3452 0.291,-0.48545 0.0755,-0.151 0.151,-0.30205 0.2265,-0.45305 0.0865,-0.1834 0.173,-0.3614 0.259,-0.53398 0.097,-0.172595 0.216,-0.350585 0.356,-0.53397 l 0.259,-0.113265 c 0.0325,-0.01079 0.07,-0.02158 0.113,-0.03237 0.0435,-0.02158 0.092,-0.03236 0.146,-0.03236 l 0.2425,0.03236 c 0.302,-0.140235 0.5665,-0.334405 0.793,-0.58251 0.2265,-0.258895 0.4585,-0.56633 0.6955,-0.92231 l 0.162,-0.226535 0.2105,0.12945 c 0.054,0.03236 0.1295,0.064725 0.2265,0.097085 0.097,0.021575 0.1995,0.04854 0.3075,0.080905 0.194,0.04315 0.3775,0.09169 0.55,0.145625 0.1725,0.05394 0.313,0.13484 0.4205,0.242715 0.065,0.172595 0.1025,0.302045 0.1135,0.38834 0.0105,0.0863 0.027,0.172595 0.0485,0.258895 0.0325,0.183385 0.0595,0.366765 0.081,0.55015 0.032,0.183385 0.054,0.38834 0.0645,0.61487 0.054,0.1834 0.097,0.36675 0.1295,0.55015 0.043,0.1726 0.081,0.3506 0.1135,0.53395 0.0535,0.2589 0.1075,0.5124 0.1615,0.76055 0.054,0.2373 0.124,0.46385 0.2105,0.67955 0.0865,0 0.14,0.0054 0.162,0.0162 0.0535,-0.02155 0.1075,-0.03775 0.1615,-0.04855 0.065,-0.0108 0.135,-0.02155 0.2105,-0.03235 l 0.178,-0.0162 0.0645,0.16185 c 0.011,0.0539 0.065,0.10785 0.162,0.1618 0.14,0.01075 0.2425,0.04315 0.3075,0.09705 0.0645,0.04315 0.124,0.0917 0.178,0.14565 0.043,0.04315 0.086,0.0755 0.1295,0.0971 l 0.2425,0.09705 -0.1295,0.24275 c -0.108,0.19415 -0.264,0.38295 -0.469,0.5663 -0.1945,0.1726 -0.4155,0.31825 -0.6635,0.4369 0.0105,0.0647 0.016,0.12945 0.016,0.19415 0.011,0.05395 0.027,0.1133 0.0485,0.178 0.0325,0.1834 0.0595,0.37215 0.081,0.5663488 0.0215,0.19415 0.0215,0.3937 0,0.5987 z m -4.676,-2.7992997 c 0.3235,-0.02155 0.615,-0.04315 0.8735,-0.0647 0.27,-0.03235 0.5665,-0.0809 0.89,-0.14565 -0.0755,-0.3236 -0.1565,-0.658 -0.2425,-1.0032 -0.0865,-0.356 -0.178,-0.70655 -0.275,-1.05175 l -0.097,0.1618 c -0.216,0.22655 -0.4265,0.48005 -0.6315,0.7605 -0.194,0.28045 -0.361,0.54475 -0.5015,0.79285 -0.0645,0.0971 -0.1295,0.1942 -0.194,0.29125 -0.065,0.0971 -0.124,0.1942 -0.178,0.29125 0.0645,-0.01075 0.124,-0.01615 0.178,-0.01615 0.0645,0 0.124,-0.0054 0.178,-0.0162 z m 9.6715,3.0258497 c 0.054,0.3236 0.0325,0.5771 -0.0645,0.7605 -0.0865,0.18335 -0.216,0.3182 -0.3885,0.4045 -0.162,0.0971 -0.3505,0.15105 -0.5665,0.1618 -0.2155,0.0108 -0.4205,0 -0.6145,-0.03235 -0.108,-0.151 -0.205,-0.3398 -0.2915,-0.5663 -0.0865,-0.22655 -0.167,-0.4585 -0.2425,-0.6958 -0.0755,-0.2481 -0.146,-0.4908 -0.2105,-0.72815 -0.054,-0.2373 -0.1025,-0.4476497 -0.1455,-0.6310497 0.054,-0.12945 0.086,-0.27505 0.097,-0.4369 0.0215,-0.17255 0.0325,-0.34515 0.0325,-0.51775 0.0105,-0.1726 0.016,-0.3452 0.016,-0.5178 0.011,-0.1834 0.027,-0.356 0.0485,-0.5178 0.0755,-0.45305 0.1835,-0.88455 0.3235,-1.29445 0.151,-0.40995 0.27,-0.83605 0.356,-1.2783 0.0215,-0.0971 0.011,-0.1888 -0.032,-0.2751 -0.0325,-0.0863 -0.038,-0.1672 -0.0165,-0.242695 0.011,-0.04315 0.043,-0.07011 0.097,-0.0809 0.054,-0.02158 0.0865,-0.05933 0.097,-0.11327 0.0325,-0.11866 0.038,-0.215745 0.0165,-0.291255 -0.011,-0.07551 0.0105,-0.1672 0.0645,-0.275075 0.054,-0.0863 0.119,-0.21035 0.1945,-0.37216 0.086,-0.172595 0.1185,-0.350585 0.097,-0.53397 0.097,-0.064725 0.1885,-0.140235 0.275,-0.22653 0.0865,-0.0863 0.1725,-0.16181 0.259,-0.226535 0.097,-0.07551 0.1995,-0.140235 0.3075,-0.19417 0.1185,-0.053935 0.2585,-0.080905 0.4205,-0.080905 0.0865,0.107875 0.14,0.226535 0.162,0.35598 0.032,0.12945 0.059,0.258895 0.0805,0.38834 0.0325,0.12945 0.0755,0.2535 0.1295,0.37216 0.054,0.107875 0.146,0.194175 0.2755,0.258895 0,0.0863 0,0.19417 0,0.32362 0,0.129445 0.005,0.258895 0.016,0.38834 0.0105,0.11866 0.0325,0.231925 0.0645,0.3398 0.0435,0.09708 0.108,0.16183 0.1945,0.19418 -0.1945,0.5178 -0.3775,1.03015 -0.5505,1.53715 -0.1615,0.507 -0.2965,1.0194 -0.4045,1.5372 -0.1075,0.507 -0.178,1.0194 -0.21,1.5372 -0.022,0.5178 0.016,1.0409497 0.113,1.5695497 z m 5.691001,-1.8122497 c -0.097,0.02155 -0.167,0.0809 -0.21,0.17795 -0.0435,0.0863 -0.0865,0.178 -0.1295,0.2751 -0.0325,0.0971 -0.07,0.18875 -0.1135,0.27505 -0.032,0.07555 -0.086,0.1133 -0.1615,0.1133 -0.011,0.0863 -0.0435,0.1617997 -0.0975,0.2264997 -0.043,0.06475 -0.086,0.13485 -0.129,0.21035 -0.0435,0.06475 -0.0755,0.14025 -0.0975,0.22655 -0.0215,0.0755 -0.0105,0.1672 0.0325,0.2751 -0.086,0.0647 -0.140001,0.1564 -0.161501,0.27505 -0.022,0.11865 -0.049,0.23195 -0.081,0.3398 -0.0215,0.10785 -0.065,0.19955 -0.1295,0.27505 -0.065,0.07555 -0.1835,0.1079 -0.356,0.0971 -0.0325,0.04315 -0.038,0.07015 -0.016,0.0809 0.0215,0.0108 0.0375,0.04855 0.0485,0.1133 -0.119,-0.0216 -0.2105,-0.0162 -0.2755,0.01615 -0.0535,0.04315 -0.124,0.07015 -0.21,0.0809 -0.205,-0.0647 -0.3775,-0.17795 -0.518,-0.3398 -0.1295,-0.1618 -0.248,-0.3398 -0.356,-0.53395 -0.097,-0.20495 -0.1885,-0.4099 -0.275,-0.6149 -0.0755,-0.20495 -0.151,-0.3829 -0.2265,-0.53395 0.0325,-0.11865 0.038,-0.2318997 0.016,-0.3397997 -0.0215,-0.11865 -0.059,-0.21575 -0.113,-0.29125 0.5285,-1.12185 1.1055,-2.31925 1.7315,-3.59215 0.6255,-1.2729 1.218501,-2.52962 1.779501,-3.77015 0.2485,0.097085 0.491,0.21035 0.7285,0.339795 0.248,0.11866 0.469,0.258895 0.663,0.420705 0.205,0.16181 0.378,0.350585 0.518,0.56633 0.14,0.20496 0.232,0.436885 0.275,0.69578 -0.0215,0.06472 -0.0485,0.09169 -0.081,0.0809 -0.0215,-0.02157 -0.043,-0.01619 -0.0645,0.01618 0.043,0.05394 0.0645,0.09169 0.0645,0.113265 0.011,0.02158 0.011,0.04315 0,0.06473 0,0.02157 0,0.05393 0,0.09708 0,0.03238 0.0165,0.08088 0.0485,0.14563 -0.043,-0.0108 -0.0755,-0.0054 -0.097,0.0162 -0.0105,0.02155 -0.043,0.02155 -0.097,0 0.043,0.11865 0.054,0.2157 0.0325,0.29125 -0.011,0.0755 -0.0325,0.1456 -0.065,0.21035 -0.032,0.0539 -0.059,0.11865 -0.0805,0.19415 -0.022,0.06475 -0.0165,0.15105 0.016,0.2589 -0.0325,0 -0.0595,0.0108 -0.081,0.03235 -0.0105,0.0108 -0.0215,0.027 -0.0325,0.04855 -0.0105,0.0108 -0.027,0.02695 -0.0485,0.04855 -0.0105,0.0108 -0.032,0.0108 -0.0645,0 0.0325,0.2373 0.043,0.47465 0.0325,0.71195 -0.011,0.23735 -0.022,0.48005 -0.0325,0.72815 0,0.2373 0.005,0.4908 0.016,0.7605 0.011,0.2589 0.0485,0.52855 0.1135,0.80905 0.388,-0.22655 0.6955,-0.5178 0.922,-0.8738 0.2375,-0.35595 0.4265,-0.7551 0.5665,-1.19735 0.151,-0.4423 0.2645,-0.91695 0.34,-1.42395 0.0755,-0.507 0.156,-1.02477 0.2425,-1.553345 0.097,-0.09708 0.1725,-0.215745 0.2265,-0.35598 0.054,-0.140235 0.1025,-0.28586 0.1455,-0.436885 0.0435,-0.161805 0.0865,-0.31822 0.1295,-0.469245 0.0435,-0.161805 0.097,-0.307435 0.162,-0.436885 0.162,0.021575 0.2965,0.075515 0.4045,0.16181 0.1185,0.07551 0.2265,0.16181 0.3235,0.258895 0.097,0.0863 0.1995,0.172595 0.3075,0.258895 0.108,0.07551 0.2425,0.124055 0.4045,0.14563 0.1295,0.18338 0.248,0.36137 0.356,0.533965 0.108,0.1726 0.178,0.35598 0.2105,0.55015 -0.054,0.0863 -0.097,0.183385 -0.1295,0.29126 -0.0215,0.10787 -0.0485,0.215745 -0.081,0.323635 -0.0325,0.10785 -0.0755,0.21035 -0.1295,0.3074 -0.054,0.0863 -0.1295,0.16185 -0.2265,0.22655 -0.0325,0.28045 -0.0755,0.53935 -0.1295,0.7767 -0.043,0.2265 -0.0915,0.45305 -0.1455,0.6796 -0.043,0.2265 -0.081,0.46385 -0.1135,0.71195 -0.032,0.2373 -0.043,0.5016 -0.032,0.79285 -0.0865,0.2481 -0.178,0.5124 -0.275,0.79285 -0.0975,0.2805 -0.173,0.534 -0.227,0.7605 -0.1725,0.14025 -0.307,0.30745 -0.4045,0.5015997 -0.097,0.1942 -0.1995,0.38835 -0.307,0.58255 -0.0435,0.04315 -0.0705,0.0539 -0.081,0.03235 -0.011,-0.0216 -0.0485,-0.03775 -0.1135,-0.04855 0.011,0.04315 0.011,0.0755 0,0.0971 -0.0105,0.02155 -0.027,0.04315 -0.0485,0.0647 -0.0105,0.0108 -0.0215,0.0324 -0.0325,0.06475 0,0.03235 0.011,0.0755 0.0325,0.12945 -0.151,0.0647 -0.286,0.1564 -0.4045,0.27505 -0.1185,0.11865 -0.248,0.22655 -0.3885,0.32365 -0.129,0.09705 -0.291,0.1618 -0.485,0.19415 -0.1835,0.03235 -0.4265,-0.0054 -0.7285,-0.11325 -0.442,-0.32365 -0.836,-0.6958 -1.181,-1.1165 -0.3345,-0.4207 -0.6095,-0.9222997 -0.8255,-1.5047997 z m 14.667,1.5371497 c -0.3125,-0.2373 -0.5715,-0.53395 -0.7765,-0.8899497 -0.194,-0.35595 -0.3505,-0.7335 -0.469,-1.13265 -0.108,-0.39915 -0.1835,-0.80905 -0.2265,-1.22975 -0.0325,-0.4315 -0.0435,-0.8414 -0.0325,-1.22975 0.097,-0.29125 0.2155,-0.55555 0.356,-0.79285 0.14,-0.2481 0.2965,-0.48005 0.469,-0.6958 0.1725,-0.226515 0.3505,-0.43687 0.534,-0.63104 0.1945,-0.204955 0.383,-0.409915 0.5665,-0.61487 0.0645,0 0.124,0.01618 0.178,0.04854 0.043,-0.11866 0.108,-0.22114 0.194,-0.307435 0.0865,-0.0863 0.178,-0.16181 0.275,-0.226535 0.097,-0.07551 0.1945,-0.145625 0.2915,-0.21035 0.097,-0.07551 0.178,-0.16181 0.2425,-0.258895 0.27,-0.064725 0.507,-0.156415 0.712,-0.275075 0.216,-0.11866 0.421,-0.248105 0.615,-0.38834 0.194,-0.140235 0.3935,-0.26968 0.5985,-0.38834 0.205,-0.11866 0.4425,-0.210355 0.712,-0.275075 0.097,-0.107875 0.216,-0.199565 0.356,-0.275075 0.151,-0.075515 0.2965,-0.14563 0.437,-0.210355 0.151,-0.06472 0.291,-0.13484 0.4205,-0.21035 0.1405,-0.07551 0.2535,-0.17799 0.34,-0.307435 0.0645,0.086295 0.1565,0.11866 0.275,0.097085 0.1185,-0.032365 0.2265,-0.064725 0.3235,-0.097085 0.065,-0.01079 0.119,0 0.162,0.03236 0.043,0.03236 0.081,0.070115 0.113,0.113265 0.0435,0.032365 0.0755,0.053935 0.0975,0.064725 0.032,0.010785 0.0645,-0.021575 0.097,-0.097085 0.086,0.010785 0.108,0.04854 0.0645,0.113265 -0.032,0.064725 -0.054,0.107875 -0.0645,0.129445 0.108,-0.02157 0.194,0 0.259,0.064725 0.0755,0.053935 0.1885,0.091695 0.3395,0.113265 0.054,0.05394 0.07,0.097085 0.0485,0.12945 -0.0215,0.03236 -0.0375,0.086295 -0.0485,0.16181 0.3885,0.11866 0.6365,0.307435 0.7445,0.56633 0.108,0.248105 0.1185,0.512395 0.0325,0.792865 -0.0865,0.26968 -0.2485,0.52318 -0.4855,0.7605 -0.2265,0.22653 -0.48,0.377555 -0.7605,0.453065 -0.3345,0.08629 -0.6475,0.172595 -0.9385,0.258895 -0.2805,0.08629 -0.5555,0.18338 -0.8255,0.291255 -0.259,0.10787 -0.507,0.23732 -0.744,0.38834 -0.2265,0.140255 -0.4265,0.307455 -0.599,0.501605 -0.302,0.0863 -0.577,0.20495 -0.825,0.356 -0.2375,0.151 -0.464,0.3182 -0.6795,0.5016 -0.205,0.18335 -0.4045,0.37755 -0.599,0.5825 -0.194,0.19415 -0.388,0.38835 -0.5825,0.5825 0,0.1834 -0.0325,0.32365 -0.097,0.4207 -0.0645,0.0971 -0.135,0.1942 -0.2105,0.29125 0.0215,0.205 0.065,0.38295 0.1295,0.534 0.0755,0.14025 0.151,0.28585 0.2265,0.4369 0.863,0.25885 1.7745,0.4207 2.7345,0.4854 0.971,0.05395 1.931,0.0863 2.8805,0.0971 0.097,0.12945 0.205,0.2535 0.3235,0.37215 0.1295,0.10785 0.2425,0.22115 0.34,0.3397997 0.1075,0.11865 0.1885,0.2589 0.2425,0.4207 0.065,0.151 0.081,0.3344 0.0485,0.55015 -0.1835,0.1834 -0.383,0.36135 -0.5985,0.53395 -0.216,0.16185 -0.4315,0.32365 -0.6475,0.48545 -0.097,0.0108 -0.2155,0.0108 -0.356,0 -0.1295,-0.0108 -0.2695,-0.0162 -0.4205,-0.0162 -0.1405,0 -0.286,0.0108 -0.437,0.0324 -0.14,0.01075 -0.275,0.04315 -0.4045,0.09705 -0.6795,-0.02155 -1.3755,-0.10245 -2.0875,-0.2427 -0.7115,-0.151 -1.37,-0.329 -1.974,-0.53395 -0.1185,-0.14025 -0.2425,-0.2697 -0.372,-0.38835 -0.1295,-0.12945 -0.302,-0.22115 -0.518,-0.2751 z m 18.555,-3.4464997 c -0.0105,0.12945 0,0.2535 0.0325,0.37215 0.0325,0.11865 0.07,0.2373 0.1135,0.35595 0.0535,0.1079 0.1025,0.22115 0.1455,0.3398 0.043,0.1187 0.0755,0.23735 0.097,0.356 0.0215,0.151 0.0215,0.31825 0,0.5016 -0.0215,0.1726 -0.0595,0.3452 -0.1135,0.5178 -0.0535,0.1618 -0.124,0.31285 -0.21,0.4530497 -0.0865,0.12945 -0.189,0.22655 -0.3075,0.29125 -0.151,0.1942 -0.3345,0.3452 -0.55,0.4531 -0.216,0.10785 -0.4155,0.2373 -0.599,0.3883 -0.1185,0.07555 -0.2535,0.12945 -0.4045,0.16185 -0.14,0.03235 -0.286,0.0647 -0.437,0.09705 -0.1185,0.06475 -0.2585,0.13485 -0.4205,0.21035 -0.162,0.06475 -0.329,0.12945 -0.5015,0.1942 -0.1725,0.05395 -0.3455,0.0971 -0.518,0.12945 -0.1725,0.02155 -0.3235,0.02695 -0.453,0.01615 -0.3235,0.1187 -0.642,0.1942 -0.9545,0.22655 -0.302,0.04315 -0.658,0.0216 -1.068,-0.0647 -0.3885,0.0539 -0.75,0.03775 -1.084,-0.04855 -0.324,-0.0863 -0.615,-0.22115 -0.874,-0.40455 -0.248,-0.19415 -0.469,-0.4207 -0.6635,-0.6796 -0.1835,-0.26965 -0.3345,-0.55015 -0.453,-0.8414 -0.086,-0.6148497 -0.0645,-1.1703997 0.065,-1.6665997 0.129,-0.507 0.3125,-0.97085 0.55,-1.3916 0.248,-0.43145 0.5285,-0.8252 0.8415,-1.1812 0.3125,-0.36675 0.6145,-0.72275 0.906,-1.0679 0.0645,0.02155 0.113,0.02155 0.1455,0 0.043,-0.0324 0.081,-0.07015 0.1135,-0.1133 0.032,-0.0539 0.0645,-0.10245 0.097,-0.1456 0.043,-0.04315 0.0915,-0.07015 0.1455,-0.0809 0.0755,-0.16183 0.1835,-0.28049 0.3235,-0.356 0.151,-0.0863 0.27,-0.204955 0.356,-0.35598 0.0975,-0.02158 0.178,-0.05394 0.243,-0.09708 0.0645,-0.04315 0.124,-0.09169 0.178,-0.145625 0.0645,-0.05394 0.1295,-0.10248 0.194,-0.14563 0.065,-0.05394 0.1405,-0.09169 0.2265,-0.113265 v -0.17799 c 0.194,-0.0863 0.3345,-0.183385 0.421,-0.291255 0.097,-0.11866 0.21,-0.258895 0.3395,-0.420705 0.097,-0.010785 0.1725,-0.01618 0.2265,-0.01618 0.065,0 0.1565,-0.01079 0.275,-0.03236 0.0865,-0.151025 0.162,-0.26429 0.2265,-0.3398 0.0755,-0.07551 0.1835,-0.156415 0.324,-0.242715 0.1295,0.064725 0.2695,0.107875 0.4205,0.12945 0.162,0.021575 0.302,0.09169 0.4205,0.21035 0.011,0.10787 0.0435,0.19417 0.0975,0.258895 0.054,0.053935 0.113,0.10787 0.178,0.16181 0.0645,0.043145 0.124,0.09169 0.178,0.145625 0.0645,0.053935 0.1075,0.12945 0.129,0.226535 0.0435,0.01079 0.0705,0.0054 0.081,-0.01618 0.0215,-0.02157 0.054,-0.02697 0.097,-0.01618 0.0325,0.151025 0.0705,0.2535 0.1135,0.30744 0.043,0.04314 0.0865,0.13484 0.1295,0.275075 -0.054,0.10787 -0.097,0.221135 -0.1295,0.339795 -0.0215,0.107875 -0.0865,0.18878 -0.194,0.242715 -0.011,0.07551 0.0105,0.11866 0.0645,0.129445 0.054,0 0.0865,0.02697 0.097,0.08091 0.011,0.09708 -0.005,0.167205 -0.0485,0.210355 0.259,0.42071 0.491,0.86836 0.696,1.34301 0.205,0.46385 0.437,0.90615 0.6955,1.32685 z m -2.0225,1.53715 c 0.043,-0.11865 0.097,-0.21575 0.162,-0.29125 0.0755,-0.0755 0.1185,-0.18875 0.1295,-0.3398 -0.054,-0.0863 -0.0865,-0.151 -0.0975,-0.19415 -0.0105,-0.05395 -0.016,-0.13485 -0.016,-0.2427 -0.2375,-0.33445 -0.442,-0.6904 -0.615,-1.06795 -0.1725,-0.38835 -0.3665,-0.7497 -0.5825,-1.08415 -0.0215,0.04315 -0.059,0.0863 -0.113,0.12945 -0.054,0.04315 -0.1135,0.0324 -0.178,-0.03235 -0.0215,0.0863 -0.0595,0.15105 -0.1135,0.1942 -0.054,0.03235 -0.113,0.0485 -0.178,0.0485 -0.0645,-0.01075 -0.1345,-0.02695 -0.21,-0.0485 -0.065,-0.0324 -0.1245,-0.07015 -0.178,-0.1133 -0.313,0.2481 -0.626,0.49085 -0.9385,0.72815 -0.313,0.2373 -0.5935,0.5124 -0.8415,0.82525 -0.043,0.02155 -0.07,0.03235 -0.081,0.03235 -0.011,-0.0108 -0.043,-0.0054 -0.097,0.01615 -0.0865,0.205 -0.1945,0.39375 -0.3235,0.56635 -0.119,0.1618 -0.2375,0.329 -0.356,0.5016 -0.119,0.1726 -0.2215,0.356 -0.3075,0.55015 -0.0865,0.1942 -0.135,0.4207 -0.146,0.6796 0.1835,0.15105 0.3995,0.2427 0.6475,0.2751 0.248,0.03235 0.5015,0.03775 0.7605,0.01615 0.2695,-0.02155 0.5285,-0.05395 0.7765,-0.09705 0.259,-0.05395 0.4965,-0.08095 0.712,-0.08095 0.453,-0.10785 0.8415,-0.2481 1.165,-0.4207 0.324,-0.18335 0.6635,-0.36675 1.0195,-0.55015 z m 14.704,3.0258497 c -0.108,0.05395 -0.2105,0.10245 -0.3075,0.1456 -0.0865,0.04315 -0.189,0.06475 -0.3075,0.06475 -0.4205,-0.31285 -0.642,-0.8576 -0.6635,-1.63425 -0.0105,-0.7766997 0.1565,-1.7637497 0.502,-2.9611497 0.0535,-0.03235 0.0805,-0.09705 0.0805,-0.19415 l -0.1455,-0.1618 c -0.043,0 -0.0865,0.0054 -0.1295,0.0162 -0.0325,0.01075 -0.059,0.0485 -0.081,0.11325 -0.2805,0.20495 -0.5875,0.4207 -0.922,0.64725 -0.3345,0.2157 -0.685,0.4207 -1.052,0.61485 -0.356,0.1834 -0.7225,0.3344 -1.1,0.45305 -0.367,0.1187 -0.7285,0.178 -1.0845,0.178 -0.906,0 -1.5855,-0.45845 -2.0385,-1.37535 l -0.1295,-0.24275 -0.1295,0.21035 c -0.0325,0.04315 -0.081,0.13485 -0.1455,0.2751 -0.065,0.12945 -0.1295,0.28045 -0.1945,0.45305 -0.0645,0.1726 -0.124,0.3506 -0.178,0.534 -0.043,0.17255 -0.059,0.3236 -0.0485,0.45305 -0.097,0.0971 -0.1995,0.21035 -0.3075,0.3398 -0.1075,0.12945 -0.1885,0.27505 -0.2425,0.4368497 -0.0215,0.0863 -0.011,0.16725 0.0325,0.24275 -0.0215,0.09705 -0.07,0.1726 -0.1455,0.2265 -0.0435,0.05395 -0.092,0.1079 -0.146,0.16185 -0.043,0.04315 -0.081,0.09165 -0.113,0.1456 -0.0215,0.05395 -0.038,0.1079 -0.0485,0.1618 0,0.05395 -0.006,0.1079 -0.0165,0.1618 0,0.07555 -0.0105,0.14565 -0.032,0.2104 -0.1835,0.37755 -0.329,0.62025 -0.437,0.7281 -0.108,0.1187 -0.2535,0.178 -0.437,0.178 -0.0865,0 -0.2265,-0.01615 -0.4205,-0.04855 -0.1405,-0.151 -0.27,-0.35595 -0.3885,-0.61485 -0.108,-0.2697 -0.194,-0.55555 -0.259,-0.8576 -0.054,-0.30205 -0.081,-0.6041 -0.081,-0.9061497 0.011,-0.3128 0.065,-0.5825 0.162,-0.809 0,-0.0108 0.043,-0.1187 0.1295,-0.32365 0.086,-0.20495 0.194,-0.46925 0.3235,-0.79285 0.1405,-0.3236 0.2965,-0.6796 0.4695,-1.06795 0.1725,-0.3991 0.345,-0.78205 0.5175,-1.14885 0.1725,-0.37755 0.3345,-0.72275 0.4855,-1.03555 0.162,-0.31284 0.2965,-0.55016 0.4045,-0.71197 0.0865,-0.129445 0.162,-0.248105 0.2265,-0.35598 0.0755,-0.11866 0.1455,-0.231925 0.2105,-0.3398 0.194,-0.334405 0.3775,-0.60948 0.55,-0.825225 0.1835,-0.22653 0.4475,-0.40452 0.793,-0.533965 0.237,0.097085 0.41,0.21035 0.5175,0.339795 l 0.0325,0.17799 c 0.043,0.107875 0.108,0.16181 0.194,0.16181 0.119,0.03236 0.216,0.064725 0.2915,0.097085 0.0865,0.021575 0.178,0.04315 0.275,0.064725 0.0755,0.08629 0.1455,0.188775 0.2105,0.307435 0.086,0.12945 0.167,0.258895 0.2425,0.38834 0.0865,0.11866 0.151,0.242715 0.1945,0.372165 0.0535,0.118655 0.0805,0.24271 0.0805,0.37216 0.011,0.129445 -0.0105,0.264285 -0.0645,0.404535 l 0.016,0.1618 c 0.054,0.0971 0.065,0.2319 0.0325,0.4045 -0.011,0.07555 -0.016,0.15645 -0.016,0.24275 0,0.0755 0.0105,0.1618 0.032,0.25885 0.1945,0.15105 0.367,0.22655 0.518,0.22655 0.1725,0 0.329,-0.03775 0.469,-0.11325 0.1515,-0.0863 0.2915,-0.1726 0.421,-0.2589 0.0865,-0.06475 0.1725,-0.11865 0.259,-0.1618 0.086,-0.05395 0.1725,-0.0863 0.2585,-0.0971 0.1945,-0.1834 0.367,-0.3452 0.518,-0.48545 0.162,-0.1402 0.329,-0.28045 0.5015,-0.42068 0.324,-0.25889 0.6365,-0.53936 0.9385,-0.841405 0.302,-0.30204 0.545,-0.679595 0.7285,-1.13266 0.1075,-0.064725 0.221,-0.097085 0.3395,-0.097085 0.1185,0 0.243,0.026965 0.372,0.080905 0.1295,0.053935 0.2535,0.10787 0.3725,0.161805 0.032,0.021575 0.059,0.037755 0.081,0.048545 0.032,0.010785 0.059,0.021575 0.0805,0.03236 0,0.107875 0.0435,0.199565 0.1295,0.275075 0.0435,0.03236 0.0705,0.05393 0.081,0.06472 0.011,0.01079 0.027,0.02158 0.0485,0.03236 0.162,0.0863 0.2645,0.1726 0.3075,0.258895 0.0755,0.24811 0.2105,0.436885 0.4045,0.56633 -0.0215,0.107875 -0.0215,0.210355 0,0.30744 0.0325,0.08629 0.07,0.17799 0.1135,0.275075 0.0105,0.03236 0.0215,0.06472 0.032,0.09708 0.011,0.03238 0.027,0.07013 0.0485,0.11328 l -0.307,-0.0324 0.0485,0.30745 c 0.0215,0.15105 0.005,0.31825 -0.0485,0.5016 -0.0435,0.1834 -0.0975,0.32905 -0.162,0.4369 0.011,0.28045 0.016,0.5016 0.016,0.6634 0.011,0.15105 0.006,0.29665 -0.016,0.4369 -0.0215,0.12945 -0.054,0.2535 -0.097,0.37215 -0.0325,0.11865 -0.081,0.2481 -0.1455,0.38835 0.043,0.6904 -0.038,1.32145 -0.243,1.89315 -0.194,0.5609497 -0.399,1.0895497 -0.615,1.5857497 -0.0215,0.05395 -0.0485,0.10785 -0.0805,0.1618 -0.022,0.05395 -0.0435,0.1079 -0.065,0.1618 -0.097,0.03235 -0.1835,0.07015 -0.259,0.1133 -0.0755,0.03235 -0.1565,0.0701 -0.2425,0.11325 z m 8.895,-9.7408997 c 0.453,0.053935 0.8575,0.14563 1.2135,0.275075 0.356,0.12945 0.658,0.302045 0.906,0.51779 0.1725,0.26968 0.3345,0.560935 0.4855,0.873765 0.162,0.31283 0.2805,0.641845 0.356,0.98702 0.0865,0.3344 0.124,0.6796 0.1135,1.0356 0,0.35595 -0.0755,0.71735 -0.227,1.0841 -0.3125,0.38835 -0.6955,0.7066 -1.1485,0.9547 -0.4425,0.2373 -0.9225,0.43145 -1.44,0.5825 -0.518,0.151 -1.0575,0.28045 -1.6185,0.38835 -0.55,0.10785 -1.0895,0.21575 -1.618,0.3236 0.011,0.2481 0.011,0.5124 0,0.79285 0,0.2696997 -0.027,0.5447997 -0.081,0.8252497 -0.043,0.2697 -0.113,0.53395 -0.21,0.79285 -0.097,0.2589 -0.2265,0.4962 -0.3885,0.71195 -0.1835,0 -0.372,0.0216 -0.5665,0.06475 -0.194,0.05395 -0.3665,0.0971 -0.5175,0.12945 -0.0755,-0.04315 -0.1455,-0.0863 -0.2105,-0.12945 -0.054,-0.03235 -0.135,-0.05395 -0.2425,-0.06475 0.0215,-0.10785 -0.005,-0.21575 -0.081,-0.3236 -0.0755,-0.11865 -0.151,-0.2373 -0.2265,-0.356 -0.0755,-0.11865 -0.1295,-0.2319 -0.162,-0.3398 -0.0215,-0.10785 0.0325,-0.21035 0.162,-0.3074 -0.0755,-0.07555 -0.1135,-0.1726 -0.1135,-0.29125 0.0755,-0.12945 0.1405,-0.30745 0.1945,-0.534 0.0645,-0.2264997 0.113,-0.4476497 0.1455,-0.6633997 0.043,-0.22655 0.054,-0.4315 0.0325,-0.6149 -0.022,-0.18335 -0.1295,-0.3182 -0.324,-0.4045 0.011,-0.0216 0.0325,-0.03235 0.065,-0.03235 0.0325,0 0.0645,-0.0054 0.097,-0.0162 -0.0865,-0.0647 -0.1405,-0.1564 -0.162,-0.27505 -0.0105,-0.1187 -0.0485,-0.22115 -0.113,-0.30745 0.0215,-0.05395 0.0375,-0.1025 0.0485,-0.14565 0.0105,-0.04315 0.0485,-0.0593 0.113,-0.04855 -0.032,-0.19415 -0.032,-0.37755 0,-0.55015 0.0435,-0.1726 0.1025,-0.3344 0.178,-0.4854 0.0755,-0.1618 0.1675,-0.31825 0.2755,-0.46925 0.1075,-0.151 0.21,-0.30205 0.307,-0.45305 0.0755,-0.0108 0.119,0 0.1295,0.03235 0.0215,0.03235 0.0595,0.02695 0.1135,-0.0162 0.14,-0.10785 0.237,-0.2211 0.291,-0.3398 0.054,-0.11865 0.081,-0.2535 0.081,-0.4045 0.0755,-0.22655 0.1675,-0.45307 0.275,-0.679605 0.108,-0.23732 0.2265,-0.453065 0.356,-0.647235 0.1295,-0.19417 0.27,-0.366765 0.421,-0.517785 0.1615,-0.151025 0.329,-0.26429 0.5015,-0.3398 0.1295,-0.107875 0.291,-0.20496 0.4855,-0.291255 0.194,-0.097085 0.4045,-0.167205 0.631,-0.210355 0.2265,-0.053935 0.453,-0.080905 0.6795,-0.080905 0.2375,-0.010785 0.453,0.01079 0.6475,0.064725 0.0535,0.021575 0.0805,0.01079 0.0805,-0.03236 0.011,-0.04315 0.0325,-0.064725 0.065,-0.064725 z m -0.6635,3.86725 c 0.2695,-0.1187 0.5555,-0.21035 0.8575,-0.2751 0.313,-0.0755 0.572,-0.21035 0.7765,-0.4045 -0.129,-0.11865 -0.318,-0.22115 -0.566,-0.30745 -0.248,-0.0971 -0.518,-0.1564 -0.809,-0.178 -0.2915,-0.02155 -0.588,0.0054 -0.89,0.0809 -0.2915,0.06475 -0.545,0.1942 -0.7605,0.38835 -0.065,0.19415 -0.1185,0.3506 -0.162,0.46925 -0.043,0.10785 -0.1025,0.2427 -0.178,0.4045 0.0215,0.05395 0.054,0.0971 0.097,0.12945 0.054,0.0216 0.092,0.05935 0.1135,0.1133 0.248,-0.12945 0.496,-0.1996 0.7445,-0.21035 0.2585,-0.0216 0.5175,-0.0917 0.7765,-0.21035 z m 6.3545,4.4820997 c -0.1185,0.4315 -0.2265,0.7605 -0.3235,0.987 -0.0865,0.21575 -0.221,0.4423 -0.4045,0.6796 -0.1405,-0.02155 -0.2375,-0.0053 -0.2915,0.04855 -0.054,0.05395 -0.113,0.1025 -0.178,0.14565 -0.097,0.02155 -0.167,0.02155 -0.21,0 -0.0435,-0.0216 -0.081,-0.04855 -0.1135,-0.0809 -0.0325,-0.0216 -0.0755,-0.04855 -0.1295,-0.0809 -0.043,-0.0216 -0.113,-0.0324 -0.2105,-0.0324 -0.0215,-0.0863 -0.0485,-0.1672 -0.0805,-0.2427 -0.0215,-0.0755 -0.092,-0.10245 -0.2105,-0.0809 0.0215,-0.0863 0.027,-0.1564 0.016,-0.21035 -0.0105,-0.0647 -0.027,-0.11865 -0.0485,-0.1618 -0.0105,-0.05395 -0.0215,-0.1025 -0.032,-0.14565 -0.011,-0.0539 -0.005,-0.11865 0.016,-0.19415 -0.054,0 -0.097,-0.03775 -0.1295,-0.11325 -0.0325,-0.07555 -0.07,-0.15105 -0.1135,-0.22655 0.0325,-0.1942 0.065,-0.37755 0.0975,-0.55015 0.032,-0.1725997 0.07,-0.3343997 0.113,-0.4854497 0.054,-0.151 0.097,-0.30205 0.1295,-0.45305 0.0325,-0.151 0.016,-0.30745 -0.0485,-0.46925 0.043,0.03235 0.0755,0.02695 0.097,-0.01615 0.0215,-0.05395 0.038,-0.1187 0.0485,-0.1942 0.011,-0.0863 0.0165,-0.1672 0.0165,-0.2427 0,-0.0863 -0.006,-0.1564 -0.0165,-0.21035 0.108,-0.2805 0.1945,-0.56635 0.259,-0.8576 0.0755,-0.30205 0.14,-0.5987 0.194,-0.88995 0.065,-0.29125 0.1295,-0.5771 0.1945,-0.8576 0.0645,-0.28045 0.151,-0.53935 0.2585,-0.77665 0.119,-0.0216 0.2485,-0.0054 0.3885,0.04855 0.151,0.04315 0.243,0.10245 0.275,0.17795 0.2805,-0.21575 0.5285,-0.47462 0.7445,-0.776665 0.2155,-0.31283 0.437,-0.614875 0.6635,-0.90613 0.2265,-0.291255 0.4745,-0.55015 0.744,-0.77668 0.2805,-0.226535 0.6315,-0.361375 1.052,-0.404525 0.2155,0.16181 0.453,0.32901 0.712,0.50161 0.2695,0.161805 0.4905,0.37755 0.6635,0.647235 0.086,0.04315 0.1565,0.09169 0.21,0.145625 0.065,0.04315 0.1405,0.09169 0.2265,0.14563 v 0.19417 c 0.1295,0.11866 0.232,0.258895 0.3075,0.420705 0.0865,0.15102 0.162,0.31822 0.2265,0.501625 0.065,0.1726 0.1295,0.35055 0.1945,0.53395 0.0645,0.1726 0.14,0.3398 0.2265,0.5016 -0.0215,0.05395 -0.0325,0.1025 -0.0325,0.14565 0,0.03235 0.005,0.0701 0.016,0.11325 0.022,0.04315 0.038,0.0863 0.049,0.12945 0.0105,0.04315 0.0105,0.1025 0,0.178 -0.0325,0.47465 -0.189,0.8576 -0.4695,1.14885 -0.2695,0.29125 -0.5985,0.53395 -0.987,0.7281 -0.3885,0.1834 -0.8035,0.3398 -1.246,0.46925 -0.442,0.12945 -0.8415,0.2697 -1.1975,0.4207 0,0.04315 0.0165,0.06475 0.0485,0.06475 0.0435,0 0.0595,0.02695 0.049,0.0809 0.2585,0.1618 0.4635,0.29125 0.6145,0.38835 0.151,0.09705 0.2915,0.178 0.421,0.2427 0.14,0.06475 0.2855,0.12405 0.4365,0.178 0.162,0.04315 0.383,0.0971 0.6635,0.1617997 0.2805,0.0647 0.4965,0.11865 0.6475,0.1618 0.1615,0.03235 0.3075,0.06475 0.4365,0.0971 0.1295,0.02155 0.259,0.04315 0.3885,0.0647 0.1405,0.0108 0.3345,0.027 0.5825,0.04855 0.097,0.0971 0.178,0.21575 0.243,0.356 0.0755,0.12945 0.124,0.2643 0.1455,0.4045 0.0215,0.12945 0.027,0.2589 0.016,0.38835 -0.0105,0.11865 -0.0485,0.21575 -0.113,0.29125 0.0105,0.03235 0.032,0.04855 0.0645,0.04855 0.043,-0.0108 0.0865,-0.0108 0.1295,0 -0.0645,0.04315 -0.1185,0.0971 -0.162,0.1618 -0.043,0.06475 -0.086,0.12945 -0.129,0.1942 -0.0435,0.0647 -0.092,0.11865 -0.146,0.1618 -0.054,0.05395 -0.1295,0.0863 -0.2265,0.0971 -0.3345,0.1294 -0.755,0.1348 -1.262,0.01615 -0.507,-0.10785 -1.149,-0.3128 -1.9255,-0.61485 -0.3885,-0.15105 -0.7065,-0.2805 -0.9545,-0.38835 -0.2375,-0.11865 -0.448,-0.23195 -0.6315,-0.3398 -0.1725,-0.11865 -0.334,-0.2427 -0.485,-0.37215 -0.1405,-0.12945 -0.313,-0.2859 -0.518,-0.46925 z m 2.314,-5.5500497 c -0.119,0.1726 -0.2535,0.329 -0.4045,0.46925 -0.1405,0.1402 -0.2805,0.28585 -0.421,0.43685 -0.1295,0.14025 -0.248,0.30205 -0.356,0.48545 -0.1075,0.1726 -0.183,0.37755 -0.2265,0.61485 0.3775,-0.04315 0.7715,-0.1456 1.1815,-0.3074 0.41,-0.1726 0.798,-0.3344 1.165,-0.48545 -0.0435,-0.3344 -0.162,-0.6041 -0.356,-0.80905 -0.1835,-0.20495 -0.3775,-0.3398 -0.5825,-0.4045 z m 13.571,-1.87699 c 0.011,0.07551 0.011,0.13484 0,0.17799 0,0.03237 -0.006,0.06472 -0.016,0.09708 0,0.03237 0,0.07012 0,0.113265 0,0.03237 0.0105,0.0863 0.0325,0.16181 -0.2265,0.36677 -0.491,0.62027 -0.793,0.760505 -0.2915,0.129445 -0.6095,0.22653 -0.9545,0.291255 -0.3455,0.05393 -0.7015,0.11328 -1.068,0.17798 -0.356,0.06475 -0.712,0.20495 -1.068,0.4207 -0.1405,-0.0539 -0.27,-0.0539 -0.3885,0 -0.108,0.05395 -0.2695,0.07015 -0.4855,0.04855 -0.0645,0.06475 -0.1455,0.11325 -0.2425,0.14565 -0.097,0.02155 -0.194,0.0485 -0.2915,0.0809 0.0435,0.09705 0.0595,0.19955 0.0485,0.3074 0,0.0971 0.0165,0.178 0.049,0.24275 0.3775,0.03235 0.7925,0.02695 1.2455,-0.0162 0.464,-0.04315 0.917,-0.0701 1.3595,-0.0809 0.0105,0.05395 0.005,0.0917 -0.0165,0.11325 -0.0215,0.0108 -0.027,0.03775 -0.016,0.0809 0.0755,0.05395 0.151,0.1241 0.2265,0.21035 0.0755,0.07555 0.151,0.15105 0.2265,0.22655 0.0755,0.0755 0.151,0.14025 0.2265,0.1942 0.0865,0.04315 0.1835,0.0593 0.2915,0.0485 0.043,0.0863 0.07,0.1834 0.081,0.2913 0.0215,0.09705 0.0105,0.19955 -0.0325,0.3074 -0.1725,0.11865 -0.3455,0.24275 -0.518,0.37215 -0.1725,0.1187 -0.356,0.22655 -0.55,0.32365 -0.1835,0.0971 -0.383,0.178 -0.5985,0.2427 -0.205,0.05395 -0.437,0.0755 -0.696,0.06475 -0.054,0 -0.097,0 -0.1295,0 -0.0215,0 -0.054,-0.0162 -0.097,-0.04855 -0.0865,0.0539 -0.2105,0.0701 -0.372,0.04855 -0.151,-0.0216 -0.27,-0.0054 -0.356,0.0485 -0.119,-0.0539 -0.2645,-0.0755 -0.437,-0.0647 -0.162,0 -0.3075,-0.0216 -0.437,-0.06475 -0.1725,0.22655 -0.329,0.46925 -0.469,0.72815 -0.1405,0.2589 -0.2645,0.534 -0.3725,0.82525 0.367,0.0539 0.669,0.0755 0.9065,0.0647 0.248,-0.0108 0.48,-0.02695 0.6955,-0.04855 0.216,-0.03235 0.437,-0.0593 0.6635,-0.0809 0.2265,-0.03235 0.5125,-0.04315 0.8575,-0.03235 0.216,-0.11865 0.4695,-0.19415 0.7605,-0.22655 0.302,-0.04315 0.577,-0.10785 0.8255,-0.19415 0.086,0.03235 0.1615,0.0917 0.2265,0.178 0.0645,0.0755 0.124,0.151 0.178,0.2265 0.0645,0.06475 0.1295,0.12405 0.194,0.178 0.0645,0.05395 0.1455,0.0755 0.2425,0.06475 0.0435,0.04315 0.0705,0.09705 0.081,0.1617997 0.0215,0.05395 0.038,0.10785 0.0485,0.1618 0.011,0.05395 0.027,0.1025 0.0485,0.14565 0.0325,0.03235 0.081,0.04315 0.146,0.03235 -0.162,0.35595 -0.351,0.63105 -0.5665,0.8252 -0.205,0.1834 -0.4425,0.32365 -0.712,0.4207 -0.2695,0.0971 -0.5715,0.1726 -0.906,0.22655 -0.3235,0.05395 -0.685,0.11865 -1.084,0.19415 -0.0975,0.0216 -0.178,0.0162 -0.243,-0.01615 -0.0645,-0.0216 -0.14,-0.03235 -0.2265,-0.03235 -0.248,0.0539 -0.5445,0.10245 -0.89,0.1456 -0.345,0.04315 -0.6955,0.05935 -1.0515,0.04855 -0.356,-0.0108 -0.696,-0.05935 -1.0195,-0.14565 -0.3235,-0.0755 -0.588,-0.2157 -0.793,-0.4207 -0.086,-0.0755 -0.1455,-0.1618 -0.178,-0.25885 -0.0215,-0.1079 -0.0915,-0.1888 -0.2105,-0.24275 -0.0105,-0.1402 -0.032,-0.29665 -0.0645,-0.46925 -0.0325,-0.1726 -0.0645,-0.35055 -0.097,-0.53395 -0.0325,-0.19415 -0.0595,-0.3829497 -0.081,-0.5663497 -0.011,-0.18335 0,-0.35055 0.0325,-0.5016 0.032,-0.1618 0.097,-0.30745 0.194,-0.43685 0.108,-0.12945 0.1455,-0.2697 0.1135,-0.42075 0.0535,-0.01075 0.086,-0.03775 0.097,-0.0809 0.0105,-0.0539 0.054,-0.0755 0.1295,-0.0647 0.0645,-0.1942 0.1345,-0.37755 0.21,-0.55015 0.0755,-0.1726 0.151,-0.3398 0.2265,-0.5016 0.0865,-0.1618 0.1675,-0.32365 0.243,-0.48545 0.086,-0.1726 0.167,-0.36135 0.2425,-0.5663 -0.151,-0.14025 -0.264,-0.2913 -0.3395,-0.4531 -0.065,-0.1726 -0.1135,-0.3398 -0.146,-0.5016 -0.032,-0.1726 -0.059,-0.3452 -0.0805,-0.51778 -0.022,-0.183385 -0.0595,-0.36677 -0.1135,-0.55015 0.108,-0.16181 0.2375,-0.291255 0.3885,-0.38834 0.1615,-0.107875 0.3345,-0.194175 0.5175,-0.258895 0.1835,-0.06473 0.383,-0.11866 0.599,-0.16181 0.2155,-0.04315 0.442,-0.09169 0.6795,-0.14563 0.4315,-0.140235 0.8145,-0.248105 1.149,-0.323615 0.345,-0.07551 0.6795,-0.13484 1.003,-0.17799 0.3345,-0.053935 0.6795,-0.10248 1.0355,-0.14563 0.356,-0.04315 0.7605,-0.10787 1.2135,-0.19417 0.0975,0.097085 0.189,0.14563 0.275,0.14563 0.0435,-0.097085 0.092,-0.124055 0.146,-0.080905 0.0645,0.03236 0.0915,0 0.081,-0.097085 0.1075,0.18338 0.2425,0.339795 0.4045,0.469245 0.1725,0.11866 0.361,0.22114 0.566,0.307435 z m 0.368,1.82844 c 0.0755,-0.22653 0.194,-0.4207 0.3555,-0.58251 0.173,-0.16181 0.356,-0.29665 0.5505,-0.404525 0.205,-0.11866 0.415,-0.215745 0.631,-0.291255 0.2155,-0.07551 0.4205,-0.140235 0.615,-0.19417 0.4315,-0.183385 0.89,-0.35598 1.375,-0.51779 0.4965,-0.172595 0.998,-0.323615 1.505,-0.45306 0.518,-0.12945 1.0465,-0.210355 1.5855,-0.242715 0.5395,-0.04315 1.106,0.021575 1.699,0.19417 0.0325,0.10787 0.081,0.21035 0.146,0.307435 0.0645,0.097085 0.1295,0.19417 0.194,0.29126 0.0755,0.09708 0.1405,0.19417 0.194,0.291255 0.054,0.08629 0.0865,0.17799 0.0975,0.275075 0.1075,0.09708 0.194,0.204955 0.2585,0.323615 0.065,0.107875 0.0755,0.2535 0.0325,0.436885 -0.108,0.0863 -0.2155,0.167205 -0.3235,0.242715 -0.097,0.06472 -0.205,0.124065 -0.3235,0.177965 -0.3995,-0.09706 -0.804,-0.129425 -1.214,-0.09706 -0.4095,0.03236 -0.7765,0.05931 -1.1,0.08091 -0.097,-0.09709 -0.216,-0.145635 -0.356,-0.145635 -0.1295,0 -0.2695,0.02158 -0.4205,0.06473 -0.1405,0.04316 -0.286,0.08631 -0.437,0.12946 -0.1405,0.04315 -0.275,0.0539 -0.4045,0.03235 -0.108,0.0863 -0.243,0.1456 -0.4045,0.178 -0.151,0.02155 -0.3185,0.04315 -0.502,0.0647 -0.0105,0.05395 0,0.0917 0.0325,0.1133 0.0325,0.01075 0.038,0.04315 0.0165,0.09705 0.0645,0.0755 0.1455,0.12945 0.2425,0.1618 0.108,0.0324 0.2155,0.06475 0.3235,0.0971 0.119,0.03235 0.221,0.0755 0.3075,0.12945 0.0865,0.04315 0.1455,0.11865 0.178,0.22655 0.162,0 0.302,0.03775 0.4205,0.11325 0.119,0.0755 0.216,0.1672 0.2915,0.2751 0.0755,0.10785 0.1295,0.2265 0.162,0.35595 0.043,0.11865 0.0645,0.22655 0.0645,0.3236 0.0325,0.0863 0.07,0.1241 0.1135,0.1133 0.043,-0.0108 0.0915,0.0108 0.1455,0.0647 0.0325,0.14025 0.113,0.2859 0.2425,0.4369 0.1295,0.14025 0.232,0.29665 0.3075,0.46925 0.0215,0.26965 0.038,0.5124 0.0485,0.72815 0.011,0.20495 -0.027,0.4153 -0.113,0.63105 -0.162,0.3991 -0.3885,0.7550997 -0.68,1.0679497 -0.28,0.3128 -0.604,0.5933 -0.9705,0.8414 -0.356,0.2373 -0.739,0.44225 -1.149,0.61485 -0.41,0.1726 -0.809,0.31825 -1.1975,0.4369 -0.043,-0.0108 -0.086,-0.0108 -0.1295,0 -0.043,0.0108 -0.0535,-0.0162 -0.032,-0.0809 -0.0865,0.0755 -0.1835,0.12405 -0.2915,0.1456 -0.097,0.0216 -0.205,0.027 -0.3235,0.0162 -0.1185,0 -0.2425,-0.0054 -0.372,-0.0162 -0.119,-0.01075 -0.232,-0.0054 -0.34,0.0162 -0.0755,-0.0755 -0.1455,-0.15105 -0.2105,-0.22655 -0.054,-0.0647 -0.097,-0.151 -0.1295,-0.2589 -0.0535,0 -0.0805,-0.02695 -0.0805,-0.0809 0.0105,-0.0539 -0.006,-0.0809 -0.0485,-0.0809 0.0645,-0.10785 0.0915,-0.1672 0.0805,-0.178 0,-0.02155 -0.016,-0.03775 -0.0485,-0.0485 -0.0215,-0.0108 -0.043,-0.0216 -0.0645,-0.0324 -0.0215,-0.02155 -0.027,-0.04855 -0.0165,-0.0809 0.0435,-0.0863 0.0595,-0.18335 0.049,-0.29125 -0.011,-0.11865 -0.022,-0.2373 -0.0325,-0.356 -0.011,-0.11865 -0.006,-0.2319 0.016,-0.33975 0.0325,-0.1079 0.1135,-0.1942 0.243,-0.2589 0.3665,0.04315 0.712,0.03235 1.0355,-0.0324 0.3345,-0.0755 0.647,-0.1779497 0.9385,-0.3073997 0.291,-0.12945 0.566,-0.2697 0.825,-0.4207 0.27,-0.15105 0.534,-0.2859 0.793,-0.40455 0.0325,-0.0971 0.0755,-0.178 0.1295,-0.2427 0.0645,-0.06475 0.1295,-0.12405 0.194,-0.178 0.065,-0.05395 0.124,-0.11325 0.178,-0.178 0.054,-0.0647 0.092,-0.1456 0.1135,-0.2427 0.0105,-0.0755 -0.011,-0.11865 -0.065,-0.12945 -0.043,-0.02155 -0.0645,-0.0647 -0.0645,-0.12945 l -0.178,-0.04855 c -0.205,-0.11865 -0.437,-0.21575 -0.696,-0.29125 -0.259,-0.0863 -0.48,-0.178 -0.6635,-0.27505 -0.1185,0.0647 -0.2315,0.0809 -0.3395,0.04855 -0.097,-0.0324 -0.2265,-0.06475 -0.3885,-0.0971 -0.3665,-0.0216 -0.7225,-0.05935 -1.068,-0.11325 -0.3345,-0.05395 -0.658,-0.15105 -0.9705,-0.2913 -0.022,-0.0539 -0.049,-0.10245 -0.081,-0.1456 -0.0325,-0.04315 -0.092,-0.05395 -0.178,-0.03235 -0.065,-0.0863 -0.1295,-0.1672 -0.1945,-0.24275 -0.0645,-0.0863 -0.124,-0.17795 -0.178,-0.27505 0.022,-0.12945 0.038,-0.23735 0.049,-0.32365 0.0105,-0.09705 -0.022,-0.18875 -0.0975,-0.27505 0.0435,-0.14025 0.0755,-0.2535 0.0975,-0.3398 0.0215,-0.0863 0.0215,-0.19955 0,-0.3398 z m 8.183,0 c 0.0755,-0.22653 0.194,-0.4207 0.3555,-0.58251 0.173,-0.16181 0.356,-0.29665 0.5505,-0.404525 0.205,-0.11866 0.415,-0.215745 0.631,-0.291255 0.2155,-0.07551 0.4205,-0.140235 0.615,-0.19417 0.4315,-0.183385 0.89,-0.35598 1.375,-0.51779 0.4965,-0.172595 0.998,-0.323615 1.505,-0.45306 0.518,-0.12945 1.0465,-0.210355 1.5855,-0.242715 0.5395,-0.04315 1.106,0.021575 1.699,0.19417 0.0325,0.10787 0.081,0.21035 0.146,0.307435 0.0645,0.097085 0.1295,0.19417 0.194,0.29126 0.0755,0.09708 0.1405,0.19417 0.194,0.291255 0.054,0.08629 0.0865,0.17799 0.0975,0.275075 0.1075,0.09708 0.194,0.204955 0.2585,0.323615 0.065,0.107875 0.0755,0.2535 0.0325,0.436885 -0.108,0.0863 -0.2155,0.167205 -0.3235,0.242715 -0.097,0.06472 -0.205,0.124065 -0.3235,0.177965 -0.3995,-0.09706 -0.804,-0.129425 -1.214,-0.09706 -0.4095,0.03236 -0.7765,0.05931 -1.1,0.08091 -0.097,-0.09709 -0.216,-0.145635 -0.356,-0.145635 -0.1295,0 -0.2695,0.02158 -0.4205,0.06473 -0.1405,0.04316 -0.286,0.08631 -0.437,0.12946 -0.1405,0.04315 -0.275,0.0539 -0.4045,0.03235 -0.108,0.0863 -0.243,0.1456 -0.4045,0.178 -0.151,0.02155 -0.3185,0.04315 -0.502,0.0647 -0.0105,0.05395 0,0.0917 0.0325,0.1133 0.0325,0.01075 0.038,0.04315 0.0165,0.09705 0.0645,0.0755 0.1455,0.12945 0.2425,0.1618 0.108,0.0324 0.2155,0.06475 0.3235,0.0971 0.119,0.03235 0.221,0.0755 0.3075,0.12945 0.0865,0.04315 0.1455,0.11865 0.178,0.22655 0.162,0 0.302,0.03775 0.4205,0.11325 0.119,0.0755 0.216,0.1672 0.2915,0.2751 0.0755,0.10785 0.1295,0.2265 0.162,0.35595 0.043,0.11865 0.0645,0.22655 0.0645,0.3236 0.0325,0.0863 0.07,0.1241 0.1135,0.1133 0.043,-0.0108 0.0915,0.0108 0.1455,0.0647 0.0325,0.14025 0.113,0.2859 0.2425,0.4369 0.1295,0.14025 0.232,0.29665 0.3075,0.46925 0.0215,0.26965 0.038,0.5124 0.0485,0.72815 0.011,0.20495 -0.027,0.4153 -0.113,0.63105 -0.162,0.3991 -0.3885,0.7550997 -0.68,1.0679497 -0.28,0.3128 -0.604,0.5933 -0.9705,0.8414 -0.356,0.2373 -0.739,0.44225 -1.149,0.61485 -0.41,0.1726 -0.809,0.31825 -1.1975,0.4369 -0.043,-0.0108 -0.086,-0.0108 -0.1295,0 -0.043,0.0108 -0.0535,-0.0162 -0.032,-0.0809 -0.0865,0.0755 -0.1835,0.12405 -0.2915,0.1456 -0.097,0.0216 -0.205,0.027 -0.3235,0.0162 -0.1185,0 -0.2425,-0.0054 -0.372,-0.0162 -0.119,-0.01075 -0.232,-0.0054 -0.34,0.0162 -0.0755,-0.0755 -0.1455,-0.15105 -0.2105,-0.22655 -0.054,-0.0647 -0.097,-0.151 -0.1295,-0.2589 -0.0535,0 -0.0805,-0.02695 -0.0805,-0.0809 0.0105,-0.0539 -0.005,-0.0809 -0.0485,-0.0809 0.0645,-0.10785 0.0915,-0.1672 0.0805,-0.178 0,-0.02155 -0.016,-0.03775 -0.0485,-0.0485 -0.0215,-0.0108 -0.043,-0.0216 -0.0645,-0.0324 -0.0215,-0.02155 -0.027,-0.04855 -0.0165,-0.0809 0.0435,-0.0863 0.0595,-0.18335 0.049,-0.29125 -0.011,-0.11865 -0.022,-0.2373 -0.0325,-0.356 -0.011,-0.11865 -0.006,-0.2319 0.016,-0.33975 0.0325,-0.1079 0.1135,-0.1942 0.243,-0.2589 0.3665,0.04315 0.712,0.03235 1.0355,-0.0324 0.3345,-0.0755 0.647,-0.1779497 0.9385,-0.3073997 0.291,-0.12945 0.566,-0.2697 0.825,-0.4207 0.27,-0.15105 0.534,-0.2859 0.793,-0.40455 0.0325,-0.0971 0.0755,-0.178 0.1295,-0.2427 0.0645,-0.06475 0.1295,-0.12405 0.194,-0.178 0.065,-0.05395 0.124,-0.11325 0.178,-0.178 0.054,-0.0647 0.092,-0.1456 0.1135,-0.2427 0.0105,-0.0755 -0.011,-0.11865 -0.065,-0.12945 -0.043,-0.02155 -0.0645,-0.0647 -0.0645,-0.12945 l -0.178,-0.04855 c -0.205,-0.11865 -0.437,-0.21575 -0.696,-0.29125 -0.259,-0.0863 -0.48,-0.178 -0.6635,-0.27505 -0.1185,0.0647 -0.2315,0.0809 -0.3395,0.04855 -0.097,-0.0324 -0.2265,-0.06475 -0.3885,-0.0971 -0.3665,-0.0216 -0.7225,-0.05935 -1.068,-0.11325 -0.3345,-0.05395 -0.658,-0.15105 -0.9705,-0.2913 -0.022,-0.0539 -0.049,-0.10245 -0.081,-0.1456 -0.0325,-0.04315 -0.092,-0.05395 -0.178,-0.03235 -0.065,-0.0863 -0.1295,-0.1672 -0.1945,-0.24275 -0.0645,-0.0863 -0.124,-0.17795 -0.178,-0.27505 0.022,-0.12945 0.038,-0.23735 0.049,-0.32365 0.0105,-0.09705 -0.022,-0.18875 -0.0975,-0.27505 0.0435,-0.14025 0.0755,-0.2535 0.0975,-0.3398 0.0215,-0.0863 0.0215,-0.19955 0,-0.3398 z m 17.0335,2.42715 c -0.0105,0.12945 0,0.2535 0.0325,0.37215 0.0325,0.11865 0.07,0.2373 0.1135,0.35595 0.054,0.1079 0.1025,0.22115 0.1455,0.3398 0.043,0.1187 0.0755,0.23735 0.097,0.356 0.0215,0.151 0.0215,0.31825 0,0.5016 -0.0215,0.1726 -0.0595,0.3452 -0.113,0.5178 -0.054,0.1618 -0.1245,0.31285 -0.2105,0.4530497 -0.0865,0.12945 -0.189,0.22655 -0.3075,0.29125 -0.151,0.1942 -0.3345,0.3452 -0.55,0.4531 -0.216,0.10785 -0.4155,0.2373 -0.599,0.3883 -0.1185,0.07555 -0.2535,0.12945 -0.4045,0.16185 -0.14,0.03235 -0.2855,0.0647 -0.437,0.09705 -0.1185,0.06475 -0.2585,0.13485 -0.4205,0.21035 -0.162,0.06475 -0.329,0.12945 -0.5015,0.1942 -0.1725,0.05395 -0.3455,0.0971 -0.518,0.12945 -0.1725,0.02155 -0.3235,0.02695 -0.453,0.01615 -0.3235,0.1187 -0.642,0.1942 -0.9545,0.22655 -0.302,0.04315 -0.658,0.0216 -1.068,-0.0647 -0.3885,0.0539 -0.7495,0.03775 -1.084,-0.04855 -0.324,-0.0863 -0.615,-0.22115 -0.874,-0.40455 -0.248,-0.19415 -0.469,-0.4207 -0.6635,-0.6796 -0.183,-0.26965 -0.334,-0.55015 -0.453,-0.8414 -0.086,-0.6148497 -0.0645,-1.1703997 0.065,-1.6665997 0.1295,-0.507 0.3125,-0.97085 0.55,-1.3916 0.248,-0.43145 0.5285,-0.8252 0.8415,-1.1812 0.3125,-0.36675 0.615,-0.72275 0.906,-1.0679 0.0645,0.02155 0.1135,0.02155 0.1455,0 0.0435,-0.0324 0.081,-0.07015 0.1135,-0.1133 0.0325,-0.0539 0.0645,-0.10245 0.097,-0.1456 0.043,-0.04315 0.0915,-0.07015 0.1455,-0.0809 0.0755,-0.16183 0.1835,-0.28049 0.3235,-0.356 0.1515,-0.0863 0.27,-0.204955 0.356,-0.35598 0.0975,-0.02158 0.178,-0.05394 0.243,-0.09708 0.0645,-0.04315 0.124,-0.09169 0.178,-0.145625 0.0645,-0.05394 0.1295,-0.10248 0.194,-0.14563 0.065,-0.05394 0.1405,-0.09169 0.2265,-0.113265 v -0.17799 c 0.1945,-0.0863 0.3345,-0.183385 0.421,-0.291255 0.097,-0.11866 0.21,-0.258895 0.3395,-0.420705 0.097,-0.010785 0.1725,-0.01618 0.2265,-0.01618 0.065,0 0.1565,-0.01079 0.275,-0.03236 0.0865,-0.151025 0.162,-0.26429 0.227,-0.3398 0.0755,-0.07551 0.183,-0.156415 0.3235,-0.242715 0.1295,0.064725 0.2695,0.107875 0.4205,0.12945 0.162,0.021575 0.302,0.09169 0.421,0.21035 0.0105,0.10787 0.043,0.19417 0.097,0.258895 0.054,0.053935 0.113,0.10787 0.178,0.16181 0.0645,0.043145 0.124,0.09169 0.178,0.145625 0.0645,0.053935 0.1075,0.12945 0.1295,0.226535 0.043,0.01079 0.07,0.0054 0.0805,-0.01618 0.022,-0.02157 0.054,-0.02697 0.0975,-0.01618 0.032,0.151025 0.07,0.2535 0.113,0.30744 0.043,0.04314 0.0865,0.13484 0.1295,0.275075 -0.054,0.10787 -0.097,0.221135 -0.1295,0.339795 -0.0215,0.107875 -0.086,0.18878 -0.194,0.242715 -0.011,0.07551 0.0105,0.11866 0.0645,0.129445 0.054,0 0.0865,0.02697 0.097,0.08091 0.011,0.09708 -0.005,0.167205 -0.0485,0.210355 0.259,0.42071 0.491,0.86836 0.696,1.34301 0.205,0.46385 0.437,0.90615 0.6955,1.32685 z m -2.0225,1.53715 c 0.043,-0.11865 0.097,-0.21575 0.162,-0.29125 0.0755,-0.0755 0.1185,-0.18875 0.1295,-0.3398 -0.054,-0.0863 -0.0865,-0.151 -0.097,-0.19415 -0.011,-0.05395 -0.0165,-0.13485 -0.0165,-0.2427 -0.237,-0.33445 -0.442,-0.6904 -0.615,-1.06795 -0.1725,-0.38835 -0.3665,-0.7497 -0.5825,-1.08415 -0.0215,0.04315 -0.059,0.0863 -0.113,0.12945 -0.054,0.04315 -0.1135,0.0324 -0.178,-0.03235 -0.0215,0.0863 -0.0595,0.15105 -0.1135,0.1942 -0.054,0.03235 -0.113,0.0485 -0.178,0.0485 -0.0645,-0.01075 -0.1345,-0.02695 -0.21,-0.0485 -0.065,-0.0324 -0.124,-0.07015 -0.178,-0.1133 -0.313,0.2481 -0.626,0.49085 -0.9385,0.72815 -0.313,0.2373 -0.5935,0.5124 -0.8415,0.82525 -0.043,0.02155 -0.07,0.03235 -0.081,0.03235 -0.0105,-0.0108 -0.043,-0.0054 -0.097,0.01615 -0.0865,0.205 -0.194,0.39375 -0.3235,0.56635 -0.119,0.1618 -0.2375,0.329 -0.356,0.5016 -0.119,0.1726 -0.2215,0.356 -0.3075,0.55015 -0.0865,0.1942 -0.135,0.4207 -0.1455,0.6796 0.183,0.15105 0.399,0.2427 0.647,0.2751 0.248,0.03235 0.5015,0.03775 0.7605,0.01615 0.2695,-0.02155 0.5285,-0.05395 0.7765,-0.09705 0.259,-0.05395 0.4965,-0.08095 0.712,-0.08095 0.453,-0.10785 0.8415,-0.2481 1.165,-0.4207 0.324,-0.18335 0.6635,-0.36675 1.0195,-0.55015 z m 6.112,1.6342997 c -0.1185,0.4315 -0.2265,0.7605 -0.3235,0.987 -0.0865,0.21575 -0.2215,0.4423 -0.4045,0.6796 -0.1405,-0.02155 -0.2375,-0.0053 -0.2915,0.04855 -0.054,0.05395 -0.113,0.1025 -0.178,0.14565 -0.097,0.02155 -0.167,0.02155 -0.2105,0 -0.043,-0.0216 -0.0805,-0.04855 -0.113,-0.0809 -0.0325,-0.0216 -0.0755,-0.04855 -0.1295,-0.0809 -0.043,-0.0216 -0.1135,-0.0324 -0.2105,-0.0324 -0.0215,-0.0863 -0.0485,-0.1672 -0.081,-0.2427 -0.0215,-0.0755 -0.0915,-0.10245 -0.21,-0.0809 0.0215,-0.0863 0.027,-0.1564 0.016,-0.21035 -0.0105,-0.0647 -0.027,-0.11865 -0.0485,-0.1618 -0.011,-0.05395 -0.0215,-0.1025 -0.0325,-0.14565 -0.0105,-0.0539 -0.005,-0.11865 0.0165,-0.19415 -0.054,0 -0.0975,-0.03775 -0.1295,-0.11325 -0.0325,-0.07555 -0.07,-0.15105 -0.1135,-0.22655 0.0325,-0.1942 0.065,-0.37755 0.097,-0.55015 0.0325,-0.1725997 0.0705,-0.3343997 0.1135,-0.4854497 0.054,-0.151 0.097,-0.30205 0.1295,-0.45305 0.0325,-0.151 0.016,-0.30745 -0.0485,-0.46925 0.043,0.03235 0.0755,0.02695 0.097,-0.01615 0.0215,-0.05395 0.0375,-0.1187 0.0485,-0.1942 0.011,-0.0863 0.016,-0.1672 0.016,-0.2427 0,-0.0863 -0.005,-0.1564 -0.016,-0.21035 0.108,-0.2805 0.194,-0.56635 0.259,-0.8576 0.0755,-0.30205 0.14,-0.5987 0.194,-0.88995 0.065,-0.29125 0.1295,-0.5771 0.194,-0.8576 0.065,-0.28045 0.1515,-0.53935 0.259,-0.77665 0.119,-0.0216 0.248,-0.0054 0.3885,0.04855 0.151,0.04315 0.2425,0.10245 0.275,0.17795 0.2805,-0.21575 0.5285,-0.47462 0.7445,-0.776665 0.2155,-0.31283 0.437,-0.614875 0.6635,-0.90613 0.2265,-0.291255 0.4745,-0.55015 0.744,-0.77668 0.2805,-0.226535 0.631,-0.361375 1.052,-0.404525 0.2155,0.16181 0.453,0.32901 0.712,0.50161 0.2695,0.161805 0.4905,0.37755 0.663,0.647235 0.0865,0.04315 0.1565,0.09169 0.2105,0.145625 0.065,0.04315 0.1405,0.09169 0.2265,0.14563 v 0.19417 c 0.1295,0.11866 0.232,0.258895 0.3075,0.420705 0.0865,0.15102 0.162,0.31822 0.2265,0.501625 0.065,0.1726 0.1295,0.35055 0.1945,0.53395 0.0645,0.1726 0.14,0.3398 0.2265,0.5016 -0.022,0.05395 -0.0325,0.1025 -0.0325,0.14565 0,0.03235 0.005,0.0701 0.016,0.11325 0.0215,0.04315 0.038,0.0863 0.0485,0.12945 0.011,0.04315 0.011,0.1025 0,0.178 -0.032,0.47465 -0.1885,0.8576 -0.469,1.14885 -0.27,0.29125 -0.599,0.53395 -0.987,0.7281 -0.3885,0.1834 -0.804,0.3398 -1.246,0.46925 -0.4425,0.12945 -0.8415,0.2697 -1.1975,0.4207 0,0.04315 0.016,0.06475 0.0485,0.06475 0.0435,0 0.0595,0.02695 0.0485,0.0809 0.259,0.1618 0.464,0.29125 0.615,0.38835 0.151,0.09705 0.2915,0.178 0.4205,0.2427 0.1405,0.06475 0.286,0.12405 0.437,0.178 0.162,0.04315 0.383,0.0971 0.6635,0.1617997 0.2805,0.0647 0.496,0.11865 0.6475,0.1618 0.1615,0.03235 0.307,0.06475 0.4365,0.0971 0.1295,0.02155 0.259,0.04315 0.3885,0.0647 0.14,0.0108 0.3345,0.027 0.5825,0.04855 0.097,0.0971 0.178,0.21575 0.2425,0.356 0.0755,0.12945 0.1245,0.2643 0.146,0.4045 0.0215,0.12945 0.027,0.2589 0.016,0.38835 -0.011,0.11865 -0.0485,0.21575 -0.113,0.29125 0.0105,0.03235 0.032,0.04855 0.0645,0.04855 0.043,-0.0108 0.0865,-0.0108 0.1295,0 -0.065,0.04315 -0.1185,0.0971 -0.162,0.1618 -0.043,0.06475 -0.086,0.12945 -0.1295,0.1942 -0.043,0.0647 -0.0915,0.11865 -0.1455,0.1618 -0.054,0.05395 -0.1295,0.0863 -0.2265,0.0971 -0.3345,0.1294 -0.755,0.1348 -1.262,0.01615 -0.507,-0.10785 -1.149,-0.3128 -1.9255,-0.61485 -0.3885,-0.15105 -0.7065,-0.2805 -0.955,-0.38835 -0.237,-0.11865 -0.4475,-0.23195 -0.631,-0.3398 -0.1725,-0.11865 -0.3345,-0.2427 -0.4855,-0.37215 -0.14,-0.12945 -0.3125,-0.2859 -0.5175,-0.46925 z m 2.314,-5.5500497 c -0.119,0.1726 -0.2535,0.329 -0.4045,0.46925 -0.1405,0.1402 -0.2805,0.28585 -0.421,0.43685 -0.1295,0.14025 -0.248,0.30205 -0.356,0.48545 -0.108,0.1726 -0.1835,0.37755 -0.2265,0.61485 0.3775,-0.04315 0.7715,-0.1456 1.1815,-0.3074 0.4095,-0.1726 0.798,-0.3344 1.165,-0.48545 -0.0435,-0.3344 -0.162,-0.6041 -0.356,-0.80905 -0.1835,-0.20495 -0.3775,-0.3398 -0.5825,-0.4045 z"
     fill="#111217"
     id="path2"
     style="stroke-width:0.5" />
</svg>
