<?xml version="1.0" encoding="UTF-8" standalone="no"?>
<svg
   width="128"
   height="128"
   viewBox="0 0 128 128"
   fill="none"
   version="1.1"
   id="svg29"
   sodipodi:docname="knob-fg.svg"
   inkscape:version="1.1 (c68e22c387, 2021-05-23)"
   xmlns:inkscape="http://www.inkscape.org/namespaces/inkscape"
   xmlns:sodipodi="http://sodipodi.sourceforge.net/DTD/sodipodi-0.dtd"
   xmlns="http://www.w3.org/2000/svg"
   xmlns:svg="http://www.w3.org/2000/svg">
  <sodipodi:namedview
     id="namedview31"
     pagecolor="#ffffff"
     bordercolor="#666666"
     borderopacity="1.0"
     inkscape:pageshadow="2"
     inkscape:pageopacity="0.0"
     inkscape:pagecheckerboard="0"
     showgrid="false"
     fit-margin-top="0"
     fit-margin-left="0"
     fit-margin-right="0"
     fit-margin-bottom="0"
     inkscape:zoom="4.8982036"
     inkscape:cx="62.471883"
     inkscape:cy="100.13875"
     inkscape:window-width="1920"
     inkscape:window-height="1009"
     inkscape:window-x="0"
     inkscape:window-y="0"
     inkscape:window-maximized="1"
     inkscape:current-layer="svg29" />
  <circle
     cx="-64"
     cy="64"
     r="64"
     transform="rotate(-90)"
     fill="#15161d"
     id="circle2" />
  <g
     filter="url(#filter0_d)"
     id="g6"
     transform="translate(-19.000099,-16.000003)">
    <path
       d="m 42.4453,43.0396 c 0.6063,-1.6715 1.9228,-2.988 3.5943,-3.5944 l 10.1996,-3.6998 c 0.6621,-0.2401 1.2767,-0.595 1.8157,-1.0483 l 8.3039,-6.9831 c 1.3609,-1.1444 3.1592,-1.6263 4.91,-1.3156 l 10.683,1.8956 c 0.6934,0.123 1.4031,0.123 2.0965,0 l 10.683,-1.8956 c 1.7507,-0.3107 3.5491,0.1712 4.91,1.3156 l 8.3037,6.9831 c 0.539,0.4533 1.154,0.8082 1.816,1.0483 l 10.199,3.6999 c 1.672,0.6063 2.988,1.9228 3.595,3.5943 l 3.7,10.1996 c 0.24,0.662 0.595,1.2766 1.048,1.8156 l 6.983,8.304 c 1.144,1.3608 1.626,3.1592 1.316,4.9099 l -1.896,10.683 c -0.123,0.6935 -0.123,1.4031 0,2.0966 l 1.896,10.683 c 0.31,1.7507 -0.172,3.5491 -1.316,4.9099 l -6.983,8.3038 c -0.453,0.539 -0.808,1.154 -1.048,1.816 l -3.7,10.199 c -0.607,1.672 -1.923,2.988 -3.595,3.595 l -10.199,3.7 c -0.662,0.24 -1.277,0.595 -1.816,1.048 l -8.3037,6.983 c -1.3609,1.144 -3.1593,1.626 -4.91,1.316 l -10.683,-1.896 c -0.6934,-0.123 -1.4031,-0.123 -2.0965,0 l -10.683,1.896 c -1.7508,0.31 -3.5491,-0.172 -4.91,-1.316 l -8.3039,-6.983 c -0.539,-0.453 -1.1536,-0.808 -1.8157,-1.048 l -10.1996,-3.7 c -1.6715,-0.607 -2.988,-1.923 -3.5943,-3.595 l -3.6998,-10.199 c -0.2402,-0.662 -0.595,-1.277 -1.0483,-1.816 L 30.714,96.6412 C 29.5696,95.2804 29.0877,93.482 29.3984,91.7313 l 1.8956,-10.683 c 0.1231,-0.6935 0.1231,-1.4031 0,-2.0966 l -1.8956,-10.683 c -0.3107,-1.7507 0.1712,-3.5491 1.3156,-4.9099 l 6.9832,-8.304 c 0.4533,-0.539 0.8081,-1.1536 1.0483,-1.8156 z"
       fill="#222229"
       id="path4" />
  </g>
  <rect
     x="-92.509651"
     y="-44.000141"
     width="6"
     height="32"
     rx="3"
     transform="rotate(-135)"
     fill="#cccccc"
     id="rect8" />
  <defs
     id="defs27">
    <filter
       id="filter0_d"
       x="0.68603498"
       y="1.6859699"
       width="164.62801"
       height="164.62801"
       filterUnits="userSpaceOnUse"
       color-interpolation-filters="sRGB">
      <feFlood
         flood-opacity="0"
         result="BackgroundImageFix"
         id="feFlood10" />
      <feColorMatrix
         in="SourceAlpha"
         type="matrix"
         values="0 0 0 0 0 0 0 0 0 0 0 0 0 0 0 0 0 0 127 0"
         result="hardAlpha"
         id="feColorMatrix12" />
      <feOffset
         dy="4"
         id="feOffset14" />
      <feGaussianBlur
         stdDeviation="2"
         id="feGaussianBlur16" />
      <feComposite
         in2="hardAlpha"
         operator="out"
         id="feComposite18" />
      <feColorMatrix
         type="matrix"
         values="0 0 0 0 0 0 0 0 0 0 0 0 0 0 0 0 0 0 0.25 0"
         id="feColorMatrix20" />
      <feBlend
         mode="normal"
         in2="BackgroundImageFix"
         result="effect1_dropShadow"
         id="feBlend22" />
      <feBlend
         mode="normal"
         in="SourceGraphic"
         in2="effect1_dropShadow"
         result="shape"
         id="feBlend24" />
    </filter>
  </defs>
</svg>
