<?xml version="1.0" encoding="UTF-8" standalone="no"?>
<svg
   width="20.103983"
   height="208.62708"
   viewBox="0 0 20.103983 208.62708"
   fill="none"
   version="1.1"
   id="svg4"
   sodipodi:docname="logo1.svg"
   inkscape:version="1.1 (c68e22c387, 2021-05-23)"
   xmlns:inkscape="http://www.inkscape.org/namespaces/inkscape"
   xmlns:sodipodi="http://sodipodi.sourceforge.net/DTD/sodipodi-0.dtd"
   xmlns="http://www.w3.org/2000/svg"
   xmlns:svg="http://www.w3.org/2000/svg">
  <defs
     id="defs8" />
  <sodipodi:namedview
     id="namedview6"
     pagecolor="#cccccc"
     bordercolor="#666666"
     borderopacity="1.0"
     inkscape:pageshadow="2"
     inkscape:pageopacity="0.0"
     inkscape:pagecheckerboard="0"
     showgrid="false"
     fit-margin-top="0"
     fit-margin-left="0"
     fit-margin-right="0"
     fit-margin-bottom="0"
     inkscape:zoom="6.0285714"
     inkscape:cx="-27.037915"
     inkscape:cy="31.267773"
     inkscape:window-width="1920"
     inkscape:window-height="1009"
     inkscape:window-x="0"
     inkscape:window-y="0"
     inkscape:window-maximized="1"
     inkscape:current-layer="svg4" />
  <path
     d="m 20.103982,200.48054 c 0,1.56487 -0.1933,3.08372 -0.57989,4.55654 -0.3866,1.47282 -0.90211,2.66948 -1.54651,3.59 l -4.03179,-1.795 c 0.57069,-0.86528 1.03099,-1.86864 1.38069,-3.01008 0.3498,-1.14143 0.52471,-2.26446 0.52471,-3.36907 0,-2.09873 -0.52471,-3.14813 -1.57401,-3.14813 -0.55229,0 -0.9574,0.3037 -1.2151,0.9113 -0.2762,0.5891 -0.5615,1.54644 -0.85609,2.87198 -0.31301,1.45441 -0.64431,2.66949 -0.99411,3.64523 -0.3682,0.97574 -0.9482,1.81341 -1.7398,2.513 -0.79165,0.69959 -1.85944,1.04938 -3.2034,1.04938 -1.178245,0 -2.236835,-0.32218 -3.175765,-0.96654 -0.95733,-0.64435 -1.71215,-1.60169 -2.26445,-2.872 C 0.276157,203.16844 0,201.59436 0,199.73492 c 0,-1.27032 0.147282,-2.52222 0.441847,-3.75572 0.27615,-1.2335 0.69038,-2.3197 1.24269,-3.2586 l 4.059465,1.6846 c -0.994155,1.841 -1.491235,3.6268 -1.491235,5.35734 0,1.08621 0.16569,1.87785 0.49708,2.37492 0.31297,0.49708 0.727195,0.74562 1.242685,0.74562 0.51549,0 0.9021,-0.29457 1.15985,-0.88369 0.25774,-0.58913 0.52469,-1.53726 0.80084,-2.84439 0.31299,-1.4728 0.65357,-2.6879 1.02177,-3.6452 0.34979,-0.9758 0.92049,-1.8134 1.7122,-2.513 0.77319,-0.718 1.8318,-1.077 3.17569,-1.077 1.15991,0 2.2093,0.3222 3.1482,0.9665 0.93891,0.6444 1.69371,1.6109 2.2644,2.8996 0.5524,1.2887 0.8285,2.8536 0.8285,4.69464 z M 4.722227,185.2729 v 5.9373 h -4.33561 v -17.3149 h 4.33561 v 5.9097 h 14.995155 v 5.4679 z m 11.239465,-25.6715 v 8.1741 l 3.75569,1.5189 v 5.5783 L 0.386617,166.3395 v -5.385 l 19.330765,-8.5607 v 5.6887 z m -4.0318,1.6017 -6.18589,2.4853 6.18589,2.4854 z m 2.65099,-19.0859 v 2.9824 h 5.1365 v 5.4679 H 0.386617 v -8.8369 c 0,-1.749 0.29456,-3.2679 0.88369,-4.5566 0.57072,-1.2887 1.39918,-2.2829 2.48539,-2.9824 1.06779,-0.6996 2.328885,-1.0494 3.783305,-1.0494 1.39917,0 2.62348,0.3314 3.67288,0.9941 1.03091,0.6444 1.841,1.5741 2.4301,2.7892 l 6.0754,-4.1699 v 5.8544 z m -7.04188,-3.452 c -0.90211,0 -1.6017,0.2854 -2.09877,0.8561 -0.497075,0.5707 -0.745615,1.4176 -0.745615,2.5406 v 3.0377 h 5.661165 v -3.0377 c 0,-1.123 -0.2394,-1.9699 -0.718,-2.5406 -0.4971,-0.5707 -1.19669,-0.8561 -2.09878,-0.8561 z m 2.09878,-21.7674 v -4.8326 h 8.0084 c 0.7917,1.1046 1.3992,2.3749 1.8227,3.8109 0.42341,1.436 0.6351,2.872 0.6351,4.308 0,2.0251 -0.4234,3.8477 -1.2703,5.4678 -0.86529,1.6201 -2.0619,2.8904 -3.58999,3.8109 -1.52801,0.9206 -3.2586,1.3808 -5.19171,1.3808 -1.93306,0 -3.66363,-0.4602 -5.191675,-1.3808 -1.52805,-0.9205 -2.71551,-2.2 -3.56238,-3.8385 C 0.432637,123.9858 0,122.1356 0,120.0736 c 0,-1.8042 0.303767,-3.4243 0.911307,-4.8603 0.60754,-1.436 1.48203,-2.6327 2.62346,-3.59 l 3.148145,3.4795 c -1.43599,1.3072 -2.153985,2.872 -2.153985,4.6947 0,1.6569 0.50628,2.9916 1.518845,4.0042 0.99414,1.0126 2.32889,1.5188 4.00421,1.5188 1.0678,0 2.0251,-0.2301 2.87201,-0.6903 0.82849,-0.4603 1.482,-1.1047 1.96069,-1.9331 0.4603,-0.8285 0.6904,-1.7766 0.6904,-2.8444 0,-1.0494 -0.2117,-2.0343 -0.6352,-2.9549 z m 6.32391,-21.5268 v 8.174 l 3.75569,1.519 v 5.5781 L 0.386617,102.109 v -5.385 l 19.330765,-8.561 v 5.689 z m -4.0318,1.601 -6.18589,2.486 6.18589,2.485 z M 4.722227,83.193 V 89.13 H 0.386617 V 71.816 h 4.33561 v 5.909 h 14.995155 v 5.468 z M 15.492182,53.982 h 4.2252 v 15.52 H 0.386617 V 54.341 h 4.22515 v 9.749 h 3.258625 v -8.589 h 4.08709 v 8.589 h 3.5347 z M 0.386617,25.072 19.717382,33.633 v 2.016 L 0.386617,44.21 V 42 L 17.176782,34.599 0.386617,27.143 Z M 14.553292,10.461 v 10.77 l 5.16409,2.319 v 2.127 L 0.386617,16.84 V 14.824 L 19.717382,5.987 v 2.154 z m -1.65691,0.745 -10.383385,4.64 10.383385,4.639 z M 0.386617,0 H 19.717382 V 1.989 H 2.153997 v 4.556 h -1.76738 z"
     fill="#cccccc"
     fill-opacity="0.9"
     id="path2" />
</svg>
