<?xml version="1.0" encoding="UTF-8" standalone="no"?>
<svg
   width="25.4688"
   height="469.40714"
   viewBox="0 0 25.4688 469.40714"
   fill="none"
   version="1.1"
   id="svg4"
   sodipodi:docname="logo2-h.svg"
   inkscape:version="1.1 (c68e22c387, 2021-05-23)"
   xmlns:inkscape="http://www.inkscape.org/namespaces/inkscape"
   xmlns:sodipodi="http://sodipodi.sourceforge.net/DTD/sodipodi-0.dtd"
   xmlns="http://www.w3.org/2000/svg"
   xmlns:svg="http://www.w3.org/2000/svg">
  <defs
     id="defs8" />
  <sodipodi:namedview
     id="namedview6"
     pagecolor="#cccccc"
     bordercolor="#666666"
     borderopacity="1.0"
     inkscape:pageshadow="2"
     inkscape:pageopacity="0.0"
     inkscape:pagecheckerboard="0"
     showgrid="false"
     fit-margin-top="0"
     fit-margin-left="0"
     fit-margin-right="0"
     fit-margin-bottom="0"
     inkscape:zoom="2.693617"
     inkscape:cx="0"
     inkscape:cy="234.81438"
     inkscape:window-width="1920"
     inkscape:window-height="1009"
     inkscape:window-x="0"
     inkscape:window-y="0"
     inkscape:window-maximized="1"
     inkscape:current-layer="svg4" />
  <path
     d="m 13.46256,0.42072 c 0.6041,-0.10787 1.2298,-0.14023 1.877,-0.0971 0.6472,0.0431 1.27291,0.0647 1.87699,0.0647 0.58251,0 1.19739,-0.0431 1.84462,-0.12945 C 19.72998,0.19417 20.36643,0.12942 20.97052,0.0647 21.5746,0.0216 22.12475,0 22.62097,0 c 0.51779,0.0216 0.91691,0.0971 1.19738,0.22653 0.32362,0.17259 0.57173,0.38834 0.74432,0.64723 0.19417,0.2589 0.40992,0.50701 0.64724,0.74433 -0.0431,0.28046 -0.12945,0.52857 -0.25889,0.74432 -0.10788,0.23732 -0.2589,0.43149 -0.45307,0.58251 -0.1726,0.17259 -0.35598,0.29125 -0.55015,0.35598 -0.19417,0.0863 -0.38834,0.10787 -0.58251,0.0647 -0.32362,0.53936 -0.7659,0.97085 -1.32683,1.29447 -0.53937,0.34519 -1.14345,0.60409 -1.81226,0.77668 -0.64724,0.19418 -1.33762,0.32362 -2.07116,0.38835 -0.73353,0.0863 -1.45628,0.15102 -2.16828,0.19417 -0.7119,0.0647 -1.3915,0.11866 -2.0387,0.16181 -0.6257,0.0647 -1.1759,0.17259 -1.6505,0.32361 1.3808,0.94928 2.5997,1.74754 3.6569,2.39477 1.07871,0.66881 2.1035,1.33764 3.07435,2.00644 0.99243,0.6688 1.99564,1.4131 3.00965,2.233 1.014,0.8414 2.15745,1.9093 3.43034,3.2038 -0.0431,0.2804 -0.0971,0.4962 -0.16181,0.6472 -0.0647,0.151 -0.12944,0.3021 -0.19417,0.4531 -0.0647,0.151 -0.11866,0.3128 -0.1618,0.4854 -0.0216,0.1726 -0.0108,0.4099 0.0324,0.712 -0.2589,0.1078 -0.45307,0.1833 -0.58251,0.2265 -0.10788,0.0647 -0.21575,0.1186 -0.32362,0.1618 -0.10788,0.0431 -0.24811,0.0971 -0.42071,0.1618 -0.17259,0.0647 -0.43149,0.1618 -0.77668,0.2913 -0.0863,0.0647 -0.20496,0.0863 -0.35598,0.0647 -0.12944,0 -0.2481,-0.0108 -0.35598,-0.0324 -0.10787,-0.0215 -0.19417,-0.0323 -0.25889,-0.0323 -0.0647,0.0215 -0.0647,0.097 0,0.2265 C 21.54228,19.622 21.20788,19.4818 20.90583,19.2876 20.62537,19.0934 20.28017,19.0071 19.87026,19.0287 19.09357,18.4462 18.29532,17.799 17.47549,17.087 16.65565,16.375 15.7927,15.6631 14.8865,14.9511 14.002,14.2392 13.0743,13.5488 12.1034,12.88 11.1542,12.2327 10.1402,11.6826 9.0614,11.2295 9.0614,11.1001 9.0291,11.003 8.9643,10.9383 8.8996,10.8735 8.8241,10.8088 8.7378,10.7441 8.6515,10.7009 8.5652,10.647 8.4789,10.5823 8.3926,10.5391 8.3495,10.4528 8.3495,10.3234 7.6591,10.2802 7.0011,10.0213 6.3754,9.5467 5.7713,9.09363 5.2535,8.62978 4.822,8.15514 c -0.1726,0.0431 -0.3128,0.0647 -0.4207,0.0647 -0.1078,0 -0.2157,-0.0108 -0.3236,-0.0324 -0.1079,-0.0216 -0.2265,-0.0431 -0.356,-0.0647 -0.1078,0 -0.2481,0.0108 -0.4207,0.0324 C 2.7832,7.96097 2.3518,7.70208 2.0066,7.37846 1.6614,7.07642 1.4025,6.74201 1.2299,6.37525 1.0573,6.00848 0.9926,5.63093 1.0357,5.24258 1.0573,4.85424 1.1867,4.48748 1.424,4.14228 1.5103,3.99126 1.629,3.86182 1.78,3.75394 1.931,3.64607 2.0713,3.52741 2.2007,3.39796 2.3518,3.29009 2.4812,3.17143 2.5891,3.04198 2.7185,2.93411 2.8048,2.79388 2.848,2.62128 c 0.2157,0.0431 0.4422,0.0431 0.6796,0 C 3.7649,2.59968 3.9806,2.55658 4.1748,2.49183 4.369,2.42713 4.5308,2.3516 4.6602,2.2653 4.7897,2.179 4.8544,2.0927 4.8544,2.00641 5.3938,1.92011 5.9763,1.80145 6.6019,1.65043 7.2492,1.52098 7.8856,1.38075 8.5113,1.22972 9.1369,1.10028 9.7518,0.9924 10.3559,0.90611 c 0.6041,-0.0863 1.165,-0.11866 1.6828,-0.0971 0.2589,0.0216 0.4854,-0.0324 0.6796,-0.16181 0.2158,-0.10787 0.4639,-0.18338 0.7443,-0.22653 z m -9.9027,24.65062 c -0.6472,0.1079 -1.1542,0.0647 -1.521,-0.1295 -0.3667,-0.1726 -0.6364,-0.4314 -0.809,-0.7766 -0.1942,-0.3237 -0.3021,-0.7012 -0.3236,-1.1327 -0.0216,-0.4315 0,-0.8414 0.0647,-1.2298 0.302,-0.2157 0.6796,-0.4099 1.1326,-0.5825 0.4531,-0.1726 0.917,-0.3344 1.3916,-0.4854 0.4962,-0.151 0.9816,-0.2912 1.4563,-0.4207 0.4746,-0.1079 0.8953,-0.2049 1.2621,-0.2912 0.2589,0.1078 0.5501,0.1725 0.8738,0.1941 0.3451,0.0432 0.6903,0.0647 1.0355,0.0647 0.3452,0.0216 0.6904,0.0324 1.0356,0.0324 0.3668,0.0216 0.712,0.0539 1.0356,0.0971 0.9061,0.151 1.7691,0.3668 2.5889,0.6472 0.8199,0.3021 1.6721,0.5394 2.5566,0.712 0.1942,0.0431 0.3776,0.0216 0.5502,-0.0647 0.1726,-0.0648 0.3344,-0.0755 0.48539,-0.0324 0.0863,0.0216 0.14023,0.0863 0.1618,0.1942 0.0431,0.1078 0.11866,0.1726 0.22654,0.1941 0.23732,0.0648 0.43149,0.0756 0.58251,0.0324 0.15102,-0.0216 0.3344,0.0216 0.55015,0.1295 0.1726,0.1078 0.4207,0.2373 0.74432,0.3883 0.34519,0.1726 0.70117,0.2373 1.06794,0.1942 0.12945,0.1941 0.28047,0.3775 0.45306,0.5501 0.1726,0.1726 0.32362,0.3452 0.45307,0.5178 0.15102,0.1942 0.28047,0.3991 0.38834,0.6149 0.10787,0.2373 0.16181,0.5178 0.16181,0.8414 -0.21575,0.1726 -0.45307,0.2805 -0.71196,0.3236 -0.2589,0.0647 -0.51779,0.1187 -0.77668,0.1618 -0.2589,0.0647 -0.507,0.151 -0.74432,0.2589 -0.21575,0.1079 -0.38835,0.2913 -0.51779,0.5502 -0.1726,0 -0.38834,0 -0.64724,0 -0.25889,0 -0.51779,0.0107 -0.77668,0.0323 -0.23732,0.0216 -0.46385,0.0647 -0.6796,0.1295 -0.19416,0.0863 -0.32366,0.2157 -0.38836,0.3883 -1.0356,-0.3883 -2.0603,-0.7551 -3.0743,-1.1003 -1.014,-0.3236 -2.0388,-0.5933 -3.0744,-0.809 -1.014,-0.2158 -2.0388,-0.356 -3.0744,-0.4207 -1.0356,-0.0432 -2.0819,0.0323 -3.1391,0.2265 z m 1.1003,9.9584 c -0.863,-0.2374 -1.521,-0.4531 -1.974,-0.6473 -0.4315,-0.1726 -0.8846,-0.4423 -1.3592,-0.809 0.0431,-0.2805 0.0107,-0.4747 -0.0971,-0.5825 -0.1079,-0.1079 -0.205,-0.2266 -0.2913,-0.356 -0.0431,-0.1942 -0.0431,-0.3344 0,-0.4207 0.0432,-0.0863 0.0971,-0.1618 0.1618,-0.2266 0.0432,-0.0647 0.0971,-0.151 0.1618,-0.2588 0.0432,-0.0863 0.0648,-0.2266 0.0648,-0.4208 0.1726,-0.0431 0.3344,-0.097 0.4854,-0.1618 0.151,-0.0431 0.2049,-0.1833 0.1618,-0.4207 0.1726,0.0432 0.3128,0.054 0.4207,0.0324 0.1294,-0.0216 0.2373,-0.0539 0.3236,-0.0971 0.1079,-0.0216 0.205,-0.0431 0.2913,-0.0647 0.1078,-0.0216 0.2373,-0.0108 0.3883,0.0324 0,-0.1079 0.0755,-0.1942 0.2265,-0.2589 0.1511,-0.0648 0.3021,-0.1403 0.4531,-0.2266 0.3884,0.0647 0.7551,0.1295 1.1003,0.1942 0.3452,0.0647 0.6688,0.1402 0.9709,0.2265 0.302,0.1079 0.6041,0.1942 0.9061,0.2589 0.302,0.0647 0.6149,0.0324 0.9385,-0.0971 -0.0647,0.0863 -0.0539,0.1511 0.0323,0.1942 0.1079,0.0432 0.2374,0.0755 0.3884,0.0971 0.1726,0.0216 0.3344,0.0324 0.4854,0.0324 0.1726,0 0.3128,-0.0108 0.4207,-0.0324 0.561,0.2157 1.1327,0.3883 1.7152,0.5178 0.6041,0.151 1.1974,0.2804 1.7799,0.3883 0.5825,0.1295 1.1542,0.2589 1.7152,0.3884 0.5609,0.1294 1.0787,0.302 1.5533,0.5178 0.0432,0.2373 0.0108,0.4962 -0.0971,0.7766 -0.0863,0.3021 -0.2049,0.4855 -0.3559,0.5502 0.4315,0.5609 0.94924,1.0571 1.55333,1.4886 0.62566,0.4315 1.22975,0.8738 1.81226,1.3269 0.58251,0.453 1.1003,0.9492 1.55336,1.4886 0.45307,0.5609 0.72275,1.2621 0.80905,2.1035 -0.32362,0.4315 -0.65802,0.9061 -1.00322,1.4239 -0.32361,0.5394 -0.7551,0.9817 -1.29447,1.3269 -0.0863,0.1726 -0.18338,0.3128 -0.29125,0.4207 -0.0863,0.1294 -0.18339,0.2804 -0.29126,0.453 h -0.38834 c -0.23732,0.2589 -0.51779,0.4639 -0.84141,0.6149 -0.30204,0.1726 -0.63644,0.3236 -1.00325,0.4531 -0.3452,0.1294 -0.7011,0.2589 -1.0679,0.3883 -0.3452,0.1295 -0.6796,0.2805 -1.0032,0.4531 -0.1079,-0.0432 -0.205,-0.0647 -0.2913,-0.0647 -0.0647,0 -0.1402,0.0107 -0.2265,0.0323 -0.0863,0.0432 -0.1726,0.0755 -0.2589,0.0971 -0.0863,0.0216 -0.205,0.0216 -0.356,0 -0.9493,-0.0647 -1.7152,-0.3776 -2.2977,-0.9385 -0.5825,-0.5394 -1.0679,-1.1974 -1.4562,-1.9741 -0.3668,-0.7766 -0.6796,-1.6073 -0.9385,-2.4918 -0.2589,-0.8846 -0.5394,-1.6828 -0.8414,-2.3948 -0.0863,0 -0.1295,0.0324 -0.1295,0.0971 0,0.0863 -0.0539,0.1187 -0.1618,0.0971 -0.3236,0.5178 -0.5825,0.9277 -0.7767,1.2297 -0.1941,0.3021 -0.356,0.5825 -0.4854,0.8414 -0.1295,0.2805 -0.2481,0.5718 -0.356,0.8738 -0.0863,0.3236 -0.1942,0.7659 -0.3236,1.3268 -0.1294,0.561 -0.2373,0.9925 -0.3236,1.2945 -0.0647,0.3236 -0.1295,0.6149 -0.1942,0.8738 -0.0431,0.2589 -0.0863,0.5178 -0.1294,0.7767 -0.0216,0.2804 -0.054,0.6688 -0.0971,1.165 -0.1942,0.1942 -0.4315,0.356 -0.712,0.4854 -0.2589,0.151 -0.5286,0.2481 -0.809,0.2913 -0.2589,0.0431 -0.5178,0.0539 -0.7767,0.0323 -0.2373,-0.0215 -0.4315,-0.0971 -0.5825,-0.2265 -0.0647,0.0216 -0.0971,0.0647 -0.0971,0.1294 0.0216,0.0863 0.0216,0.1726 0,0.2589 -0.0863,-0.1294 -0.1942,-0.2373 -0.3236,-0.3236 -0.1295,-0.0863 -0.2589,-0.1726 -0.3884,-0.2589 -0.1294,-0.0863 -0.2373,-0.1834 -0.3236,-0.2912 -0.1079,-0.1079 -0.1726,-0.2589 -0.1942,-0.4531 -0.2588,-0.6688 -0.2696,-1.5102 -0.0323,-2.5242 0.2157,-1.014 0.6256,-2.2977 1.2297,-3.8511 0.3021,-0.7766 0.561,-1.4131 0.7767,-1.9093 0.2373,-0.4746 0.4639,-0.8954 0.6796,-1.2621 0.2373,-0.3452 0.4854,-0.6688 0.7443,-0.9709 0.2589,-0.2804 0.5718,-0.6256 0.9385,-1.0355 z m 11.1001,4.6277 c -0.3452,-0.2373 -0.658,-0.507 -0.9385,-0.8091 -0.2804,-0.2804 -0.5717,-0.5609 -0.8737,-0.8414 -0.2805,-0.2589 -0.6041,-0.4962 -0.9709,-0.7119 -0.3452,-0.2158 -0.7551,-0.3668 -1.2297,-0.4531 0.0863,0.7551 0.2912,1.5426 0.6148,2.3624 0.3452,0.8199 0.6688,1.5965 0.9709,2.3301 0.6688,-0.0863 1.2082,-0.3236 1.6181,-0.712 0.4099,-0.3668 0.6796,-0.7551 0.809,-1.165 z m 1.10031,26.4952 c 0,-0.5393 -0.0431,-1.1219 -0.12944,-1.7475 -0.0647,-0.6257 -0.14024,-1.2406 -0.22654,-1.8446 -0.0647,-0.4315 -0.11866,-0.8522 -0.16181,-1.2621 -0.0431,-0.3884 -0.0755,-0.7444 -0.0971,-1.068 -0.4746,-0.151 -0.8953,-0.302 -1.2621,-0.4531 -0.3667,-0.151 -0.7227,-0.3128 -1.0679,-0.4854 -0.3668,-0.1726 -0.7443,-0.3344 -1.1327,-0.4854 -0.3667,-0.1295 -0.7659,-0.2589 -1.1974,-0.3883 -0.3451,-0.2158 -0.6688,-0.3992 -0.9708,-0.5502 -0.2805,-0.1294 -0.6041,-0.2373 -0.9709,-0.3236 -0.3236,-0.2589 -0.6688,-0.4531 -1.0355,-0.5825 -0.3452,-0.1295 -0.6473,-0.2266 -0.9062,-0.2913 l -0.3883,-0.1294 c -0.1295,-0.1295 -0.2373,-0.205 -0.3236,-0.2266 -0.0648,-0.0215 -0.1295,-0.0755 -0.1942,-0.1618 -0.2373,-0.0215 -0.4746,-0.0971 -0.712,-0.2265 -0.1078,-0.0432 -0.2157,-0.0755 -0.3236,-0.0971 -0.0863,-0.0216 -0.151,-0.0324 -0.1941,-0.0324 -0.2158,0 -0.356,-0.0539 -0.4207,-0.1618 -0.1079,0.0216 -0.2266,0.0216 -0.356,0 -0.1079,-0.0215 -0.2158,-0.0431 -0.3236,-0.0647 -0.2589,-0.0647 -0.4639,-0.0863 -0.6149,-0.0647 -0.0863,0.0647 -0.1618,0.1187 -0.2266,0.1618 -0.0647,0.0647 -0.151,0.1079 -0.2588,0.1294 -0.0863,0.1295 -0.1403,0.2266 -0.1619,0.2913 -0.0647,0.0863 -0.1402,0.2158 -0.2265,0.3883 l -0.3236,0.2913 c -0.6257,0.1079 -1.1219,0.0108 -1.4886,-0.2913 -0.41,-0.3236 -0.6149,-0.8737 -0.6149,-1.6504 v -0.3883 c 0.1079,-0.1079 0.1941,-0.1726 0.2589,-0.1942 0.0647,-0.1726 0.1186,-0.3128 0.1618,-0.4207 0.0431,-0.1079 0.1294,-0.205 0.2589,-0.2913 0.1294,-0.2804 0.2373,-0.507 0.3236,-0.6796 l 0.1618,-0.2912 c 0.2373,0 0.3668,0 0.3883,0 0.1942,-0.151 0.41,-0.2697 0.6473,-0.356 0.2373,-0.0647 0.4746,-0.1187 0.7119,-0.1618 0.1942,-0.0432 0.3776,-0.0971 0.5502,-0.1618 0.1726,-0.0432 0.3236,-0.1079 0.4531,-0.1942 1.2513,-0.0431 2.3084,0.0755 3.1714,0.356 0.863,0.2805 1.6936,0.5717 2.4919,0.8738 0.4315,0.1725 0.8629,0.3451 1.2944,0.5177 0.4531,0.1726 0.917,0.3237 1.3916,0.4531 l 0.3236,0.2913 c 0.3452,0.151 0.6257,0.2696 0.8414,0.3559 0.2373,0.1079 0.4747,0.2158 0.712,0.3237 0.151,0.0647 0.2912,0.1186 0.4207,0.1618 0.151,0.0647 0.2804,0.1186 0.3883,0.1618 0,-0.1295 -0.0108,-0.2481 -0.0323,-0.356 0,-0.1079 -0.0108,-0.2157 -0.0324,-0.3236 -0.0216,-0.1295 -0.0432,-0.2481 -0.0647,-0.356 0,-0.1079 0,-0.2157 0,-0.3236 0,-0.151 0.0108,-0.2589 0.0323,-0.3236 -0.1078,-0.2374 -0.1618,-0.4963 -0.1618,-0.7767 v -0.3236 c 0,-0.0648 0,-0.1295 0,-0.1942 0.0216,-0.0432 0.0324,-0.0863 0.0324,-0.1295 0,-0.2157 -0.0324,-0.3883 -0.0971,-0.5177 0,-0.2589 0,-0.507 0,-0.7444 v -0.3236 c 0,-0.0431 -0.0108,-0.0971 -0.0324,-0.1618 0,-0.0647 0,-0.1186 0,-0.1618 0,-0.151 0.0108,-0.3128 0.0324,-0.4854 0.0431,-0.1726 0.1187,-0.356 0.2265,-0.5502 0.3452,-0.2589 0.5286,-0.4315 0.5502,-0.5178 l 0.38832,-0.2912 c 0.12945,-0.0216 0.24811,-0.054 0.35598,-0.0971 0.12945,-0.0432 0.26968,-0.0863 0.42071,-0.1295 0.21574,-0.0863 0.44227,-0.1725 0.67959,-0.2588 0.2589,-0.0648 0.56094,-0.0971 0.90613,-0.0971 0.1726,0.0215 0.30205,0.0647 0.38834,0.1294 0.0863,0.0647 0.16181,0.1187 0.22654,0.1618 l 0.48542,0.0971 -0.0324,0.4207 v 0.9061 c 0,0.6904 0.0216,1.3916 0.0647,2.1036 0.0647,0.7119 0.12944,1.4454 0.19417,2.2006 0.0431,0.4314 0.0863,0.8629 0.12944,1.2944 0.0431,0.4531 0.0863,0.9169 0.12945,1.3916 0.19417,0.0863 0.37755,0.1726 0.55015,0.2589 l 0.16181,0.3236 c 0.0216,0.3883 -0.0324,0.658 -0.16181,0.809 -0.10787,0.1726 -0.21574,0.3129 -0.32362,0.4207 0.0431,0.4747 0.0863,0.9493 0.12945,1.424 0.0647,0.4962 0.14023,0.9924 0.22653,1.4886 0.10787,0.7335 0.20496,1.4671 0.29126,2.2006 0.0863,0.7551 0.12945,1.4779 0.12945,2.1682 0,0.3021 -0.0108,0.5933 -0.0324,0.8738 -0.0216,0.2805 -0.0539,0.5394 -0.0971,0.7767 l -0.22653,0.3236 c -0.12945,0.0647 -0.24811,0.151 -0.35598,0.2589 -0.10788,0.1295 -0.21575,0.2589 -0.32362,0.3883 -0.23732,0.2589 -0.51779,0.5178 -0.84141,0.7767 -0.32362,0.2589 -0.79825,0.356 -1.42392,0.2913 -0.25889,-0.1726 -0.40991,-0.3021 -0.45306,-0.3884 l -0.38834,-0.2912 0.0324,-0.3236 c 0,-0.1295 -0.0216,-0.2481 -0.0647,-0.356 -0.0216,-0.1079 -0.0539,-0.2158 -0.0971,-0.3236 -0.0431,-0.0863 -0.0863,-0.1726 -0.12945,-0.2589 -0.0216,-0.0863 -0.0431,-0.1834 -0.0647,-0.2913 0,-0.1941 0,-0.356 0,-0.4854 0.0216,-0.1079 0.0324,-0.2265 0.0324,-0.356 z m 2.84784,17.5634 c -0.47464,0.0431 -0.88456,0.1187 -1.22975,0.2265 -0.34519,0.1079 -0.6796,0.2266 -1.00321,0.356 -0.30205,0.1079 -0.60409,0.205 -0.90613,0.2913 -0.28046,0.1078 -0.62566,0.1834 -1.03556,0.2265 -0.561,-0.1726 -1.0787,-0.302 -1.5534,-0.3883 -0.4746,-0.0648 -0.9708,-0.1403 -1.4886,-0.2266 -0.7551,-0.3452 -1.4239,-0.6796 -2.0065,-1.0032 -0.5825,-0.3236 -1.0895,-0.5825 -1.521,-0.7767 -0.1078,-0.1078 -0.2373,-0.2049 -0.3883,-0.2912 -0.1294,-0.0648 -0.2697,-0.1403 -0.4207,-0.2266 -0.0647,-0.0431 -0.1618,-0.097 -0.2913,-0.1618 -0.1294,-0.0647 -0.2157,-0.1186 -0.2589,-0.1618 l 0.2266,-0.6472 -0.8091,-0.1295 -0.1294,-0.453 -0.3884,-0.3236 c -0.7119,-0.41 -1.316,-0.8414 -1.8122,-1.2945 -0.4747,-0.4531 -0.9061,-0.9709 -1.2945,-1.5534 -0.3668,-0.5609 -0.7119,-1.2082 -1.0356,-1.9417 -0.3236,-0.7119 -0.6796,-1.521 -1.0679,-2.4271 0.0431,-0.3668 0.0647,-0.6904 0.0647,-0.9709 0.0216,-0.2589 0.0432,-0.507 0.0647,-0.7443 0,-0.4099 0.0324,-0.9169 0.0971,-1.521 0.1726,-0.0647 0.2913,-0.1618 0.356,-0.2913 0.0647,-0.1294 0.0971,-0.2481 0.0971,-0.3559 0.1726,-0.3668 0.4207,-0.6473 0.7443,-0.8414 0.3452,-0.1726 0.712,-0.3452 1.1003,-0.5178 0.2373,-0.1079 0.4531,-0.2158 0.6473,-0.3236 0.2157,-0.1079 0.4314,-0.2266 0.6472,-0.356 l 0.1618,0.5501 0.7767,-0.7119 c 0.0647,-0.0432 0.1186,-0.0971 0.1618,-0.1618 0.0647,-0.0648 0.1294,-0.1187 0.1942,-0.1618 l 0.5177,-0.0324 c 1.4887,-0.0647 2.8479,-0.0971 4.0776,-0.0971 1.2514,0.0216 2.3624,0.1942 3.3333,0.5178 h 0.356 c 0.4746,0.0647 0.863,0.1294 1.165,0.1942 0.3236,0.0647 0.62566,0.1186 0.90613,0.1618 0.47464,0.0647 0.91691,0.1618 1.32683,0.2912 0.0647,0.3021 0.18338,0.5286 0.35598,0.6796 0.19417,0.151 0.36677,0.2805 0.51779,0.3884 0.0216,0.302 -0.0216,0.507 -0.12945,0.6148 -0.10787,0.1079 -0.28047,0.2158 -0.51779,0.3237 -0.19417,0.1078 -0.40991,0.2373 -0.64723,0.3883 -0.23732,0.1726 -0.42071,0.4207 -0.55015,0.7443 -0.1726,0.0432 -0.35598,0.0971 -0.55015,0.1618 -0.1726,0.0863 -0.36676,0.1726 -0.58256,0.2589 -0.3667,0.1726 -0.7551,0.3236 -1.165,0.4531 -0.3883,0.151 -0.7659,0.2373 -1.1326,0.2589 -0.41,-0.2158 -0.8846,-0.3884 -1.424,-0.5178 -0.5393,-0.1079 -1.0895,-0.1834 -1.6504,-0.2265 -0.5394,-0.0216 -1.0679,-0.0108 -1.5857,0.0323 -0.4963,0.0647 -0.917,0.1618 -1.2621,0.2913 l -0.4207,0.1941 0.0647,0.5502 c 0.1726,0.6472 0.356,1.2297 0.5501,1.7475 0.2158,0.5394 0.4639,1.0356 0.7443,1.4887 0.2805,0.453 0.6041,0.8845 0.9709,1.2944 0.3883,0.41 0.8306,0.8415 1.3268,1.2945 0.4962,0.4531 1.0572,0.8414 1.6828,1.165 0.6473,0.3452 1.3161,0.6257 2.0065,0.8414 0.6904,0.2374 1.37,0.41 2.03877,0.5178 0.69038,0.1295 1.33762,0.2158 1.9417,0.2589 0.12945,0.3668 0.38834,0.5502 0.77668,0.5502 l 0.35598,-0.0647 c 0.12945,-0.0863 0.28047,-0.0863 0.45307,0 0.40991,0.1294 0.72274,0.4314 0.93849,0.9061 -0.21575,0.3452 -0.45307,0.6472 -0.71196,0.9061 -0.25889,0.2805 -0.51779,0.5394 -0.77668,0.7767 z m -15.69545,17.4011 c -0.3668,-0.129 -0.7443,-0.323 -1.1327,-0.582 -0.3667,-0.237 -0.7011,-0.529 -1.0032,-0.8738 -0.2805,-0.3236 -0.5178,-0.6904 -0.7119,-1.1003 -0.1942,-0.4099 -0.3021,-0.8414 -0.3237,-1.2945 0.0648,-0.2804 0.1403,-0.4746 0.2266,-0.5825 0.0647,-0.0863 0.1294,-0.1834 0.1941,-0.2912 0.0432,-0.0648 0.0755,-0.1295 0.0971,-0.1942 0.0432,-0.0432 0.0755,-0.0863 0.0971,-0.1295 l 0.1618,-0.3883 0.4207,0.1294 c 0.1726,0.0432 0.3021,0.0324 0.3884,-0.0323 0.1078,-0.0647 0.2481,-0.1942 0.4207,-0.3884 0.0647,-0.0647 0.1294,-0.1294 0.1941,-0.1941 0.0648,-0.0648 0.1295,-0.1187 0.1942,-0.1618 l 0.6149,-0.5502 0.2265,0.8738 c 0.151,0.5393 0.3452,0.8953 0.5825,1.0679 0.2373,0.1942 0.6365,0.2697 1.1974,0.2265 0.0863,-0.4314 0.0971,-0.7982 0.0324,-1.1003 -0.0648,-0.2804 -0.1403,-0.5717 -0.2266,-0.8737 -0.1078,-0.3884 -0.2049,-0.7875 -0.2912,-1.1974 -0.0647,-0.3883 -0.0971,-0.8198 -0.0971,-1.2945 0,-0.1726 0,-0.3344 0,-0.4854 0.0216,-0.151 0.0431,-0.3128 0.0647,-0.4854 l 0.0647,-0.3236 c 0.2374,-0.0432 0.3668,-0.0863 0.3884,-0.1295 0.0431,-0.0431 0.0863,-0.0863 0.1294,-0.1294 0.1079,-0.1079 0.2481,-0.2266 0.4207,-0.356 0.1942,-0.1079 0.4315,-0.1295 0.712,-0.0647 0.1942,-0.1079 0.3883,-0.1726 0.5825,-0.1942 -0.2589,-0.1295 -0.5286,-0.2265 -0.809,-0.2913 l -0.3237,-0.1294 -0.0647,-0.3236 c -0.0216,-0.0432 -0.0755,-0.0755 -0.1618,-0.0971 -0.0647,-0.0216 -0.1186,-0.0324 -0.1618,-0.0324 l -0.5501,-0.1618 c -0.0432,-0.0431 -0.0863,-0.0863 -0.1295,-0.1294 -0.0216,-0.0432 -0.0539,-0.0863 -0.0971,-0.1295 -0.1941,-0.0431 -0.3883,-0.0971 -0.5825,-0.1618 -0.1942,-0.0647 -0.3775,-0.1294 -0.5501,-0.1942 -0.2805,-0.1078 -0.561,-0.2049 -0.8414,-0.2912 -0.2589,-0.0647 -0.5178,-0.0863 -0.7767,-0.0647 l -0.356,-0.1295 c -0.1295,-0.1079 -0.2373,-0.2265 -0.3236,-0.356 -0.0647,-0.1294 -0.1295,-0.2589 -0.1942,-0.3883 -0.0431,-0.0432 -0.0863,-0.1079 -0.1294,-0.1942 -0.0216,-0.0647 -0.0432,-0.1186 -0.0648,-0.1618 l -0.3559,-0.0971 -0.0648,-0.3883 c -0.0431,-0.2373 -0.0755,-0.4099 -0.0971,-0.5178 -0.0215,-0.0863 -0.0323,-0.1942 -0.0323,-0.3236 l 0.0323,-0.3236 c 0.1942,-0.2374 0.3452,-0.4207 0.4531,-0.5502 0.1295,-0.1294 0.2481,-0.2805 0.356,-0.4531 0.2589,-0.1941 0.4531,-0.302 0.5825,-0.3236 0.1294,-0.0216 0.2481,-0.0431 0.356,-0.0647 0.1294,-0.0431 0.2373,-0.0647 0.3236,-0.0647 0.0863,-0.0216 0.151,-0.054 0.1942,-0.0971 l 0.3883,-0.4207 0.2913,0.356 0.5501,0.0323 c 1.1003,0.4315 2.1575,0.8846 3.1715,1.3592 1.014,0.4962 2.0495,1.0032 3.1067,1.521 0.3452,0.1726 0.6904,0.3344 1.0356,0.4855 0.3452,0.1725 0.6904,0.3451 1.0356,0.5177 0.0647,-0.0215 0.1402,-0.0323 0.2265,-0.0323 0.0863,0 0.1834,0.0216 0.2912,0.0647 0.3668,0.2373 0.6904,0.4315 0.9709,0.5825 0.302,0.151 0.6041,0.3021 0.9061,0.4531 0.3668,0.1726 0.7228,0.3452 1.06796,0.5178 0.34519,0.1941 0.70117,0.4315 1.06794,0.7119 l 0.22653,0.5178 c 0.0216,0.0647 0.0431,0.1403 0.0647,0.2265 0.0431,0.0863 0.0647,0.1834 0.0647,0.2913 l -0.0647,0.4854 c 0.28047,0.6041 0.66881,1.1327 1.16502,1.5858 0.51779,0.453 1.13266,0.9169 1.84462,1.3915 l 0.45307,0.3236 -0.2589,0.4207 c -0.0647,0.1079 -0.12945,0.2589 -0.19417,0.4531 -0.0431,0.1942 -0.0971,0.3991 -0.16181,0.6149 -0.0863,0.3883 -0.18338,0.7551 -0.29125,1.1003 -0.10788,0.3452 -0.26968,0.6256 -0.48543,0.8414 -0.34519,0.1294 -0.60409,0.2049 -0.77668,0.2265 -0.1726,0.0216 -0.34519,0.0539 -0.51779,0.0971 -0.36677,0.0647 -0.73353,0.1187 -1.1003,0.1618 -0.36677,0.0647 -0.77668,0.1079 -1.22974,0.1295 -0.3668,0.1078 -0.7335,0.1941 -1.1003,0.2588 -0.3452,0.0863 -0.7012,0.1619 -1.0679,0.2266 -0.5178,0.1079 -1.0248,0.2157 -1.5211,0.3236 -0.4746,0.1079 -0.9277,0.2481 -1.3591,0.4207 0,0.173 -0.0108,0.28 -0.0324,0.324 0.0431,0.107 0.0755,0.215 0.0971,0.323 0.0216,0.13 0.0431,0.27 0.0647,0.421 l 0.0324,0.356 -0.3237,0.129 c -0.1078,0.022 -0.2157,0.13 -0.3236,0.324 -0.0215,0.28 -0.0863,0.485 -0.1941,0.615 -0.0863,0.129 -0.1834,0.248 -0.2913,0.356 -0.0863,0.086 -0.151,0.172 -0.1942,0.259 l -0.1941,0.485 -0.4855,-0.259 c -0.3883,-0.215 -0.7659,-0.528 -1.1326,-0.938 -0.3452,-0.389 -0.6365,-0.831 -0.8738,-1.327 -0.1294,0.022 -0.2589,0.032 -0.3883,0.032 -0.1079,0.022 -0.2266,0.054 -0.356,0.097 -0.3668,0.065 -0.7443,0.119 -1.1327,0.162 -0.3883,0.043 -0.7874,0.043 -1.1974,0 z m 5.5986,-9.3521 c 0.0431,0.6473 0.0863,1.2298 0.1294,1.7476 0.0647,0.5393 0.1618,1.1326 0.2913,1.7799 0.6472,-0.1511 1.316,-0.3129 2.0064,-0.4855 0.712,-0.1726 1.4131,-0.356 2.1035,-0.5501 l -0.3236,-0.1942 c -0.4531,-0.4315 -0.9601,-0.8522 -1.521,-1.2621 -0.5609,-0.3883 -1.0895,-0.7228 -1.5857,-1.0032 -0.1942,-0.1295 -0.3884,-0.2589 -0.5825,-0.3884 -0.1942,-0.1294 -0.3884,-0.2481 -0.5825,-0.3559 0.0215,0.1294 0.0323,0.2481 0.0323,0.3559 0,0.1295 0.0108,0.2481 0.0324,0.356 z m -7.961,21.0261 c -0.1942,-0.604 -0.3884,-1.262 -0.5825,-1.974 -0.1942,-0.712 -0.2913,-1.424 -0.2913,-2.136 0,-1.079 0.2697,-1.931 0.8091,-2.557 0.2373,-0.107 0.3991,-0.204 0.4854,-0.291 0.0863,-0.064 0.1726,-0.129 0.2589,-0.194 0.1078,-0.043 0.2481,-0.075 0.4207,-0.097 0.302,-0.259 0.6472,-0.464 1.0356,-0.615 0.4099,-0.151 0.8198,-0.259 1.2297,-0.324 0.4315,-0.043 0.863,-0.053 1.2945,-0.032 0.4315,0.043 0.8414,0.119 1.2297,0.227 0.0863,0.043 0.1726,0.064 0.2589,0.064 0.0863,0.022 0.1834,0.044 0.2913,0.065 0.3452,0.086 0.6796,0.173 1.0032,0.259 0.3236,0.108 0.6041,0.248 0.8414,0.421 0.1942,-0.087 0.4099,-0.087 0.6472,0 0.2373,0.086 0.4531,0.183 0.6473,0.291 0.8198,0.302 1.5102,0.55 2.0711,0.744 0.5825,0.216 1.1543,0.432 1.7152,0.648 0.9708,0.366 1.93091,0.711 2.88019,1.035 0.94928,0.324 1.97407,0.615 3.07437,0.874 0.10787,0.172 0.18338,0.302 0.22653,0.388 0.0431,0.13 0.0755,0.238 0.0971,0.324 -0.19418,0.388 -0.38835,0.841 -0.58252,1.359 -0.17259,0.518 -0.25889,0.949 -0.25889,1.294 -0.10787,0.173 -0.19417,0.281 -0.2589,0.324 -0.0431,0.043 -0.0863,0.086 -0.12944,0.13 -0.28047,0.237 -0.57173,0.442 -0.87377,0.614 -0.28047,0.173 -0.65802,0.227 -1.13266,0.162 -0.19417,-0.129 -0.29126,-0.226 -0.29126,-0.291 -0.43149,-0.108 -0.79826,-0.227 -1.1003,-0.356 -0.30204,-0.108 -0.60404,-0.227 -0.90614,-0.356 -0.3236,-0.151 -0.6472,-0.291 -0.9708,-0.421 -0.3237,-0.129 -0.7228,-0.237 -1.1974,-0.323 -0.1079,-0.087 -0.205,-0.151 -0.2913,-0.194 -0.0863,-0.022 -0.1834,-0.054 -0.2912,-0.098 -0.1079,-0.043 -0.2266,-0.097 -0.356,-0.161 -0.1079,-0.044 -0.205,-0.119 -0.2913,-0.227 -0.5609,-0.065 -1.014,-0.173 -1.3592,-0.324 -0.3452,-0.129 -0.6904,-0.269 -1.0355,-0.42 -0.6257,-0.259 -1.2514,-0.496 -1.877,-0.712 -0.6257,-0.194 -1.3376,-0.313 -2.1359,-0.356 0.0431,0.108 0.0647,0.205 0.0647,0.291 0,0.108 0,0.205 0,0.291 0,0.195 -0.0323,0.421 -0.0971,0.68 0.3452,0.647 0.5502,1.348 0.6149,2.103 0.0647,0.777 0.1079,1.543 0.1295,2.298 0,0.302 0,0.604 0,0.906 0,0.302 0.0215,0.583 0.0647,0.842 -0.1079,0.194 -0.1726,0.313 -0.1942,0.356 0,0.064 0,0.151 0,0.259 0,0.151 -0.0108,0.28 -0.0324,0.388 -0.2373,0.259 -0.4099,0.507 -0.5177,0.744 -0.1079,0.238 -0.205,0.486 -0.2913,0.745 -0.0863,0.237 -0.1834,0.463 -0.2913,0.679 -0.0863,0.237 -0.2157,0.464 -0.3883,0.68 l -1.3916,0.226 c -0.1941,0.151 -0.3236,0.216 -0.3883,0.194 -0.1726,0 -0.302,-0.043 -0.3883,-0.129 l -0.356,0.065 c -0.0647,-0.324 -0.1402,-0.55 -0.2265,-0.68 -0.0863,-0.108 -0.1834,-0.216 -0.2913,-0.324 -0.0216,-0.172 -0.0324,-0.302 -0.0324,-0.388 0,-0.065 0,-0.129 0,-0.194 0,-0.302 -0.0539,-0.669 -0.1618,-1.1 0.1942,-0.583 0.2913,-1.187 0.2913,-1.813 0,-0.237 -0.0108,-0.485 -0.0324,-0.744 -0.0216,-0.259 -0.0431,-0.518 -0.0647,-0.777 -0.0432,-0.258 -0.0755,-0.528 -0.0971,-0.809 -0.0216,-0.259 -0.0323,-0.528 -0.0323,-0.809 z m 2.7184,22.538 0.3236,0.421 0.6796,0.032 c 1.316,0.539 2.5781,1.09 3.7863,1.651 1.2082,0.582 2.4487,1.186 3.7216,1.812 0.4099,0.194 0.8198,0.388 1.2298,0.582 0.4099,0.216 0.8306,0.421 1.2621,0.615 0.0863,-0.021 0.1726,-0.032 0.2589,-0.032 0.1078,0 0.2265,0.021 0.3559,0.065 0.43153,0.302 0.81988,0.539 1.16507,0.712 0.34519,0.194 0.70117,0.377 1.06794,0.55 0.43149,0.194 0.86298,0.399 1.29447,0.615 0.43149,0.237 0.85219,0.528 1.26211,0.873 l 0.32361,0.227 -0.0324,0.356 c 0.0431,0.086 0.0755,0.172 0.0971,0.259 0.0431,0.108 0.0647,0.237 0.0647,0.388 l -0.0971,0.583 c 0.32361,0.712 0.78747,1.337 1.39155,1.877 0.62566,0.56 1.36998,1.121 2.23296,1.682 l 0.55015,0.389 -0.32361,0.517 c -0.0647,0.108 -0.12945,0.281 -0.19417,0.518 -0.0647,0.238 -0.14024,0.486 -0.22654,0.745 -0.10787,0.453 -0.23732,0.895 -0.38834,1.326 -0.12944,0.432 -0.31283,0.766 -0.55015,1.004 l -0.29125,0.161 c -0.23732,0.044 -0.45307,0.076 -0.64724,0.098 -0.19417,0.043 -0.38834,0.086 -0.58251,0.129 -0.45307,0.086 -0.90613,0.162 -1.3592,0.227 -0.43149,0.064 -0.91691,0.107 -1.45627,0.129 -0.4315,0.108 -0.87377,0.205 -1.32684,0.291 -0.43149,0.108 -0.86298,0.205 -1.29447,0.291 -0.62564,0.108 -1.22974,0.227 -1.81224,0.356 -0.561,0.13 -1.1003,0.303 -1.6181,0.518 0,0.216 -0.0108,0.345 -0.0324,0.389 0.1079,0.258 0.1726,0.561 0.1942,0.906 l 0.0324,0.42 -0.3884,0.13 c -0.0647,0.043 -0.1294,0.097 -0.1941,0.162 -0.0648,0.064 -0.1295,0.14 -0.1942,0.226 -0.0216,0.345 -0.0971,0.594 -0.2266,0.745 -0.1078,0.172 -0.2157,0.312 -0.3236,0.42 -0.0431,0.043 -0.0971,0.097 -0.1618,0.162 -0.0431,0.065 -0.0755,0.119 -0.0971,0.162 l -0.2265,0.582 -0.6149,-0.323 c -0.453,-0.238 -0.8953,-0.604 -1.3268,-1.101 -0.4315,-0.474 -0.7875,-1.014 -1.0679,-1.618 -0.1511,0.044 -0.2913,0.065 -0.4207,0.065 -0.1295,0.022 -0.2805,0.054 -0.4531,0.097 -0.4315,0.086 -0.8846,0.151 -1.3592,0.194 -0.4531,0.065 -0.9277,0.065 -1.4239,0 -0.561,-0.215 -1.068,-0.474 -1.521,-0.776 -0.4315,-0.281 -0.8306,-0.626 -1.1974,-1.036 -0.3452,-0.388 -0.6365,-0.831 -0.8738,-1.327 -0.2157,-0.496 -0.3344,-1.014 -0.356,-1.553 0.0648,-0.302 0.1403,-0.529 0.2266,-0.68 0.0863,-0.129 0.1726,-0.248 0.2589,-0.356 0.1294,-0.172 0.2157,-0.313 0.2589,-0.42 l 0.1941,-0.421 0.4855,0.129 c 0.1726,0.065 0.3236,0.054 0.453,-0.032 0.1295,-0.065 0.3021,-0.216 0.5178,-0.453 0.0647,-0.086 0.1295,-0.162 0.1942,-0.227 0.0863,-0.064 0.1726,-0.14 0.2589,-0.226 l 0.7443,-0.647 0.2913,1.068 c 0.1726,0.647 0.3883,1.078 0.6472,1.294 0.2805,0.216 0.7659,0.302 1.4563,0.259 0.1078,-0.539 0.1186,-0.982 0.0323,-1.327 -0.0647,-0.345 -0.1402,-0.69 -0.2265,-1.035 -0.1294,-0.497 -0.2481,-0.982 -0.356,-1.457 -0.0863,-0.474 -0.1294,-0.992 -0.1294,-1.553 0,-0.367 0.0323,-0.755 0.0971,-1.165 l 0.0323,-0.356 0.356,-0.097 c 0.0432,0 0.0863,-0.033 0.1294,-0.097 0.0648,-0.043 0.1187,-0.087 0.1619,-0.13 0.1294,-0.108 0.302,-0.237 0.5177,-0.388 0.2158,-0.151 0.4855,-0.183 0.8091,-0.097 0.2373,-0.151 0.4854,-0.237 0.7443,-0.259 -0.1726,-0.086 -0.3452,-0.162 -0.5178,-0.227 -0.151,-0.043 -0.302,-0.086 -0.453,-0.129 l -0.4207,-0.13 -0.0648,-0.42 c -0.0431,-0.043 -0.1078,-0.087 -0.1941,-0.13 -0.0863,-0.021 -0.1511,-0.021 -0.1942,0 l -0.356,0.13 -0.2912,-0.324 c -0.0648,-0.043 -0.1187,-0.097 -0.1619,-0.162 -0.0431,-0.064 -0.0863,-0.118 -0.1294,-0.161 -0.2373,-0.044 -0.4639,-0.108 -0.6796,-0.195 -0.2157,-0.064 -0.4315,-0.14 -0.6472,-0.226 -0.3452,-0.108 -0.6796,-0.216 -1.0032,-0.324 -0.3237,-0.086 -0.6473,-0.129 -0.9709,-0.129 l -0.4207,-0.13 c -0.1726,-0.108 -0.302,-0.248 -0.3883,-0.42 -0.0863,-0.151 -0.1619,-0.302 -0.2266,-0.453 -0.0863,-0.216 -0.1726,-0.367 -0.2589,-0.453 l -0.4207,-0.098 -0.0647,-0.485 c -0.0647,-0.28 -0.1079,-0.485 -0.1294,-0.615 -0.0216,-0.108 -0.0324,-0.237 -0.0324,-0.388 l 0.0324,-0.421 c 0.2588,-0.259 0.453,-0.475 0.5825,-0.647 0.151,-0.151 0.2804,-0.335 0.3883,-0.55 l 0.2589,-0.194 c 0.1726,-0.087 0.3236,-0.141 0.4531,-0.162 0.151,-0.022 0.302,-0.054 0.453,-0.097 0.2805,-0.044 0.4747,-0.108 0.5825,-0.195 z m 8.414,10.323 c -0.4315,-0.302 -0.8845,-0.593 -1.3592,-0.873 0.0216,0.151 0.0324,0.291 0.0324,0.42 0,0.151 0.0108,0.302 0.0324,0.453 0.0431,0.756 0.097,1.457 0.1618,2.104 0.0647,0.647 0.1726,1.348 0.3236,2.103 0.7982,-0.172 1.6073,-0.366 2.4271,-0.582 0.8414,-0.194 1.6828,-0.41 2.52424,-0.647 l -0.32362,-0.162 c -0.58252,-0.539 -1.20822,-1.057 -1.87702,-1.553 -0.6688,-0.497 -1.3052,-0.907 -1.9093,-1.23 z m -5.5986,21.415 c -0.0431,-0.194 -0.1618,-0.335 -0.3559,-0.421 -0.1726,-0.086 -0.356,-0.172 -0.5502,-0.259 -0.1942,-0.064 -0.3775,-0.14 -0.5501,-0.226 -0.1511,-0.065 -0.2266,-0.173 -0.2266,-0.324 -0.1726,-0.021 -0.3236,-0.086 -0.453,-0.194 -0.1295,-0.086 -0.2697,-0.173 -0.4207,-0.259 -0.1295,-0.086 -0.2805,-0.151 -0.4531,-0.194 -0.151,-0.043 -0.3344,-0.022 -0.5502,0.065 -0.1294,-0.173 -0.3128,-0.281 -0.5501,-0.324 -0.2373,-0.043 -0.4639,-0.097 -0.6796,-0.162 -0.2157,-0.043 -0.3991,-0.129 -0.5501,-0.259 -0.1511,-0.129 -0.2158,-0.366 -0.1942,-0.712 -0.0863,-0.064 -0.1403,-0.075 -0.1618,-0.032 -0.0216,0.043 -0.0971,0.075 -0.2266,0.097 0.0432,-0.237 0.0324,-0.421 -0.0323,-0.55 -0.0863,-0.108 -0.1403,-0.248 -0.1618,-0.421 0.1294,-0.41 0.3559,-0.755 0.6796,-1.035 0.3236,-0.259 0.6796,-0.497 1.0679,-0.712 0.4099,-0.195 0.8198,-0.378 1.2298,-0.55 0.4099,-0.152 0.7658,-0.303 1.0679,-0.454 0.2373,0.065 0.4638,0.076 0.6796,0.033 0.2373,-0.043 0.4315,-0.119 0.5825,-0.227 2.2437,1.057 4.6385,2.212 7.1843,3.463 2.5458,1.251 5.05924,2.438 7.5403,3.56 -0.19417,0.496 -0.4207,0.981 -0.67959,1.456 -0.23732,0.496 -0.51779,0.939 -0.84141,1.327 -0.32362,0.41 -0.70117,0.755 -1.13266,1.035 -0.40992,0.281 -0.87377,0.464 -1.39156,0.551 -0.12944,-0.044 -0.18338,-0.097 -0.16181,-0.162 0.0431,-0.043 0.0324,-0.086 -0.0324,-0.13 -0.10787,0.087 -0.18338,0.13 -0.22653,0.13 -0.0431,0.021 -0.0863,0.021 -0.12945,0 -0.0431,0 -0.10787,0 -0.19417,0 -0.0648,0 -0.16176,0.032 -0.29126,0.097 0.0216,-0.086 0.0108,-0.151 -0.0324,-0.194 -0.0431,-0.022 -0.0431,-0.087 0,-0.194 -0.2373,0.086 -0.4314,0.107 -0.5825,0.064 -0.151,-0.021 -0.2912,-0.064 -0.4207,-0.129 -0.1078,-0.065 -0.2373,-0.119 -0.3883,-0.162 -0.1295,-0.043 -0.3021,-0.032 -0.5178,0.032 0,-0.064 -0.0216,-0.118 -0.0647,-0.161 -0.0216,-0.022 -0.054,-0.044 -0.0971,-0.065 -0.0216,-0.022 -0.0539,-0.054 -0.0971,-0.097 -0.0216,-0.022 -0.0216,-0.065 0,-0.13 -0.4746,0.065 -0.9493,0.087 -1.4239,0.065 -0.4747,-0.022 -0.9601,-0.043 -1.4563,-0.065 -0.4746,0 -0.9816,0.011 -1.521,0.033 -0.5178,0.021 -1.0571,0.097 -1.6181,0.226 0.4531,0.777 1.0356,1.392 1.7476,1.845 0.7119,0.474 1.5102,0.852 2.3947,1.133 0.8846,0.302 1.8339,0.528 2.8479,0.679 1.014,0.151 2.04954,0.313 3.10669,0.486 0.19417,0.194 0.43149,0.345 0.71196,0.453 0.28047,0.107 0.57172,0.205 0.87377,0.291 0.32361,0.086 0.63644,0.172 0.93849,0.259 0.32361,0.086 0.61487,0.194 0.87377,0.323 -0.0431,0.324 -0.15103,0.594 -0.32362,0.809 -0.15102,0.238 -0.32362,0.453 -0.51779,0.648 -0.1726,0.194 -0.34519,0.399 -0.51779,0.615 -0.15102,0.215 -0.24811,0.485 -0.29126,0.809 -0.36676,0.258 -0.72274,0.496 -1.06793,0.712 -0.3452,0.215 -0.71196,0.355 -1.1003,0.42 -0.1726,-0.108 -0.36677,-0.194 -0.58252,-0.259 -0.21574,-0.043 -0.43149,-0.097 -0.64727,-0.161 -0.2157,-0.065 -0.4207,-0.152 -0.6148,-0.259 -0.1726,-0.108 -0.3237,-0.259 -0.4531,-0.453 -0.5609,-0.065 -1.0787,-0.151 -1.5534,-0.259 -0.453,-0.087 -0.9061,-0.184 -1.3592,-0.292 -0.453,-0.086 -0.9277,-0.161 -1.4239,-0.226 -0.4746,-0.065 -1.0032,-0.086 -1.5857,-0.065 -0.4962,-0.172 -1.0248,-0.356 -1.5857,-0.55 -0.561,-0.194 -1.068,-0.345 -1.521,-0.453 -0.2805,-0.345 -0.6149,-0.615 -1.0032,-0.809 -0.3884,-0.194 -0.7767,-0.399 -1.1651,-0.615 -0.0863,-0.086 -0.1078,-0.14 -0.0647,-0.162 0.0432,-0.021 0.0755,-0.097 0.0971,-0.226 -0.0863,0.021 -0.151,0.021 -0.1942,0 -0.0431,-0.022 -0.0863,-0.054 -0.1294,-0.097 -0.0216,-0.022 -0.0648,-0.044 -0.1295,-0.065 -0.0647,0 -0.151,0.021 -0.2589,0.065 -0.1294,-0.302 -0.3128,-0.572 -0.5501,-0.809 -0.2373,-0.238 -0.4531,-0.497 -0.6473,-0.777 -0.1941,-0.259 -0.3236,-0.583 -0.3883,-0.971 -0.0647,-0.367 0.0108,-0.852 0.2265,-1.456 0.6473,-0.885 1.3916,-1.672 2.233,-2.363 0.8414,-0.668 1.8446,-1.219 3.0096,-1.65 z m -3.1714,30.184 c -0.3668,-0.129 -0.7443,-0.323 -1.1327,-0.582 -0.3667,-0.237 -0.7011,-0.529 -1.0032,-0.874 -0.2805,-0.324 -0.5178,-0.69 -0.7119,-1.1 -0.1942,-0.41 -0.3021,-0.842 -0.3237,-1.295 0.0648,-0.28 0.1403,-0.474 0.2266,-0.582 0.0647,-0.087 0.1294,-0.184 0.1941,-0.291 0.0432,-0.065 0.0755,-0.13 0.0971,-0.195 0.0432,-0.043 0.0755,-0.086 0.0971,-0.129 l 0.1618,-0.388 0.4207,0.129 c 0.1726,0.043 0.3021,0.032 0.3884,-0.032 0.1078,-0.065 0.2481,-0.195 0.4207,-0.389 0.0647,-0.064 0.1294,-0.129 0.1941,-0.194 0.0648,-0.065 0.1295,-0.119 0.1942,-0.162 l 0.6149,-0.55 0.2265,0.874 c 0.151,0.539 0.3452,0.895 0.5825,1.068 0.2373,0.194 0.6365,0.27 1.1974,0.226 0.0863,-0.431 0.0971,-0.798 0.0324,-1.1 -0.0648,-0.28 -0.1403,-0.572 -0.2266,-0.874 -0.1078,-0.388 -0.2049,-0.787 -0.2912,-1.197 -0.0647,-0.388 -0.0971,-0.82 -0.0971,-1.294 0,-0.173 0,-0.335 0,-0.486 0.0216,-0.151 0.0431,-0.313 0.0647,-0.485 l 0.0647,-0.324 c 0.2374,-0.043 0.3668,-0.086 0.3884,-0.129 0.0431,-0.044 0.0863,-0.087 0.1294,-0.13 0.1079,-0.108 0.2481,-0.226 0.4207,-0.356 0.1942,-0.108 0.4315,-0.129 0.712,-0.065 0.1942,-0.107 0.3883,-0.172 0.5825,-0.194 -0.2589,-0.129 -0.5286,-0.226 -0.809,-0.291 l -0.3237,-0.129 -0.0647,-0.324 c -0.0216,-0.043 -0.0755,-0.076 -0.1618,-0.097 -0.0647,-0.022 -0.1186,-0.033 -0.1618,-0.033 l -0.5501,-0.161 c -0.0432,-0.043 -0.0863,-0.087 -0.1295,-0.13 -0.0216,-0.043 -0.0539,-0.086 -0.0971,-0.129 -0.1941,-0.043 -0.3883,-0.097 -0.5825,-0.162 -0.1942,-0.065 -0.3775,-0.129 -0.5501,-0.194 -0.2805,-0.108 -0.561,-0.205 -0.8414,-0.291 -0.2589,-0.065 -0.5178,-0.087 -0.7767,-0.065 l -0.356,-0.13 c -0.1295,-0.107 -0.2373,-0.226 -0.3236,-0.356 -0.0647,-0.129 -0.1295,-0.258 -0.1942,-0.388 -0.0431,-0.043 -0.0863,-0.108 -0.1294,-0.194 -0.0216,-0.065 -0.0432,-0.119 -0.0648,-0.162 l -0.3559,-0.097 -0.0648,-0.388 c -0.0431,-0.238 -0.0755,-0.41 -0.0971,-0.518 -0.0215,-0.086 -0.0323,-0.194 -0.0323,-0.324 l 0.0323,-0.323 c 0.1942,-0.238 0.3452,-0.421 0.4531,-0.551 0.1295,-0.129 0.2481,-0.28 0.356,-0.453 0.2589,-0.194 0.4531,-0.302 0.5825,-0.323 0.1294,-0.022 0.2481,-0.043 0.356,-0.065 0.1294,-0.043 0.2373,-0.065 0.3236,-0.065 0.0863,-0.021 0.151,-0.054 0.1942,-0.097 l 0.3883,-0.42 0.2913,0.356 0.5501,0.032 c 1.1003,0.431 2.1575,0.884 3.1715,1.359 1.014,0.496 2.0495,1.003 3.1067,1.521 0.3452,0.173 0.6904,0.335 1.0356,0.486 0.3452,0.172 0.6904,0.345 1.0356,0.517 0.0647,-0.021 0.1402,-0.032 0.2265,-0.032 0.0863,0 0.1834,0.022 0.2912,0.065 0.3668,0.237 0.6904,0.431 0.9709,0.582 0.302,0.151 0.6041,0.302 0.9061,0.453 0.3668,0.173 0.7228,0.345 1.06796,0.518 0.34519,0.194 0.70117,0.432 1.06794,0.712 l 0.22653,0.518 c 0.0216,0.065 0.0431,0.14 0.0647,0.226 0.0431,0.087 0.0647,0.184 0.0647,0.292 l -0.0647,0.485 c 0.28047,0.604 0.66881,1.133 1.16502,1.586 0.51779,0.453 1.13266,0.917 1.84462,1.391 l 0.45307,0.324 -0.2589,0.421 c -0.0647,0.107 -0.12945,0.259 -0.19417,0.453 -0.0431,0.194 -0.0971,0.399 -0.16181,0.615 -0.0863,0.388 -0.18338,0.755 -0.29125,1.1 -0.10788,0.345 -0.26968,0.626 -0.48543,0.841 -0.34519,0.13 -0.60409,0.205 -0.77668,0.227 -0.1726,0.021 -0.34519,0.054 -0.51779,0.097 -0.36677,0.065 -0.73353,0.119 -1.1003,0.162 -0.36677,0.064 -0.77668,0.108 -1.22974,0.129 -0.3668,0.108 -0.7335,0.194 -1.1003,0.259 -0.3452,0.086 -0.7012,0.162 -1.0679,0.227 -0.5178,0.107 -1.0248,0.215 -1.5211,0.323 -0.4746,0.108 -0.9277,0.248 -1.3591,0.421 0,0.172 -0.0108,0.28 -0.0324,0.323 0.0431,0.108 0.0755,0.216 0.0971,0.324 0.0216,0.13 0.0431,0.27 0.0647,0.421 l 0.0324,0.356 -0.3237,0.129 c -0.1078,0.022 -0.2157,0.13 -0.3236,0.324 -0.0215,0.28 -0.0863,0.485 -0.1941,0.615 -0.0863,0.129 -0.1834,0.248 -0.2913,0.356 -0.0863,0.086 -0.151,0.172 -0.1942,0.259 l -0.1941,0.485 -0.4855,-0.259 c -0.3883,-0.216 -0.7659,-0.528 -1.1326,-0.938 -0.3452,-0.389 -0.6365,-0.831 -0.8738,-1.327 -0.1294,0.021 -0.2589,0.032 -0.3883,0.032 -0.1079,0.022 -0.2266,0.054 -0.356,0.097 -0.3668,0.065 -0.7443,0.119 -1.1327,0.162 -0.3883,0.043 -0.7874,0.043 -1.1974,0 z m 5.5986,-9.352 c 0.0431,0.647 0.0863,1.23 0.1294,1.747 0.0647,0.54 0.1618,1.133 0.2913,1.78 0.6472,-0.151 1.316,-0.313 2.0064,-0.485 0.712,-0.173 1.4131,-0.356 2.1035,-0.55 l -0.3236,-0.195 c -0.4531,-0.431 -0.9601,-0.852 -1.521,-1.262 -0.5609,-0.388 -1.0895,-0.722 -1.5857,-1.003 -0.1942,-0.129 -0.3884,-0.259 -0.5825,-0.388 -0.1942,-0.13 -0.3884,-0.248 -0.5825,-0.356 0.0215,0.129 0.0323,0.248 0.0323,0.356 0,0.129 0.0108,0.248 0.0324,0.356 z m -7.961,21.026 c -0.1942,-0.604 -0.3884,-1.262 -0.5825,-1.974 -0.1942,-0.712 -0.2913,-1.424 -0.2913,-2.136 0,-1.079 0.2697,-1.931 0.8091,-2.557 0.2373,-0.108 0.3991,-0.205 0.4854,-0.291 0.0863,-0.065 0.1726,-0.129 0.2589,-0.194 0.1078,-0.043 0.2481,-0.076 0.4207,-0.097 0.302,-0.259 0.6472,-0.464 1.0356,-0.615 0.4099,-0.151 0.8198,-0.259 1.2297,-0.324 0.4315,-0.043 0.863,-0.054 1.2945,-0.032 0.4315,0.043 0.8414,0.119 1.2297,0.227 0.0863,0.043 0.1726,0.064 0.2589,0.064 0.0863,0.022 0.1834,0.043 0.2913,0.065 0.3452,0.086 0.6796,0.173 1.0032,0.259 0.3236,0.108 0.6041,0.248 0.8414,0.421 0.1942,-0.087 0.4099,-0.087 0.6472,0 0.2373,0.086 0.4531,0.183 0.6473,0.291 0.8198,0.302 1.5102,0.55 2.0711,0.744 0.5825,0.216 1.1543,0.432 1.7152,0.647 0.9708,0.367 1.93091,0.712 2.88019,1.036 0.94928,0.324 1.97407,0.615 3.07437,0.874 0.10787,0.172 0.18338,0.302 0.22653,0.388 0.0431,0.13 0.0755,0.237 0.0971,0.324 -0.19418,0.388 -0.38835,0.841 -0.58252,1.359 -0.17259,0.518 -0.25889,0.949 -0.25889,1.294 -0.10787,0.173 -0.19417,0.281 -0.2589,0.324 -0.0431,0.043 -0.0863,0.086 -0.12944,0.129 -0.28047,0.238 -0.57173,0.443 -0.87377,0.615 -0.28047,0.173 -0.65802,0.227 -1.13266,0.162 -0.19417,-0.129 -0.29126,-0.226 -0.29126,-0.291 -0.43149,-0.108 -0.79826,-0.227 -1.1003,-0.356 -0.30204,-0.108 -0.60404,-0.227 -0.90614,-0.356 -0.3236,-0.151 -0.6472,-0.291 -0.9708,-0.421 -0.3237,-0.129 -0.7228,-0.237 -1.1974,-0.323 -0.1079,-0.087 -0.205,-0.151 -0.2913,-0.195 -0.0863,-0.021 -0.1834,-0.054 -0.2912,-0.097 -0.1079,-0.043 -0.2266,-0.097 -0.356,-0.161 -0.1079,-0.044 -0.205,-0.119 -0.2913,-0.227 -0.5609,-0.065 -1.014,-0.173 -1.3592,-0.324 -0.3452,-0.129 -0.6904,-0.269 -1.0355,-0.42 -0.6257,-0.259 -1.2514,-0.497 -1.877,-0.712 -0.6257,-0.194 -1.3376,-0.313 -2.1359,-0.356 0.0431,0.108 0.0647,0.205 0.0647,0.291 0,0.108 0,0.205 0,0.291 0,0.194 -0.0323,0.421 -0.0971,0.68 0.3452,0.647 0.5502,1.348 0.6149,2.103 0.0647,0.777 0.1079,1.543 0.1295,2.298 0,0.302 0,0.604 0,0.906 0,0.302 0.0215,0.583 0.0647,0.842 -0.1079,0.194 -0.1726,0.312 -0.1942,0.356 0,0.064 0,0.151 0,0.258 0,0.151 -0.0108,0.281 -0.0324,0.389 -0.2373,0.259 -0.4099,0.507 -0.5177,0.744 -0.1079,0.237 -0.205,0.486 -0.2913,0.744 -0.0863,0.238 -0.1834,0.464 -0.2913,0.68 -0.0863,0.237 -0.2157,0.464 -0.3883,0.68 l -1.3916,0.226 c -0.1941,0.151 -0.3236,0.216 -0.3883,0.194 -0.1726,0 -0.302,-0.043 -0.3883,-0.129 l -0.356,0.065 c -0.0647,-0.324 -0.1402,-0.551 -0.2265,-0.68 -0.0863,-0.108 -0.1834,-0.216 -0.2913,-0.324 -0.0216,-0.172 -0.0324,-0.302 -0.0324,-0.388 0,-0.065 0,-0.129 0,-0.194 0,-0.302 -0.0539,-0.669 -0.1618,-1.1 0.1942,-0.583 0.2913,-1.187 0.2913,-1.813 0,-0.237 -0.0108,-0.485 -0.0324,-0.744 -0.0216,-0.259 -0.0431,-0.518 -0.0647,-0.777 -0.0432,-0.259 -0.0755,-0.528 -0.0971,-0.809 -0.0216,-0.259 -0.0323,-0.528 -0.0323,-0.809 z m 9.3525,28.987 c -0.2589,-0.022 -0.507,0 -0.7443,0.065 -0.2373,0.064 -0.4746,0.14 -0.7119,0.226 -0.2158,0.108 -0.4423,0.205 -0.6796,0.291 -0.2374,0.087 -0.4747,0.152 -0.712,0.195 -0.302,0.043 -0.6365,0.043 -1.0032,0 -0.3452,-0.043 -0.6904,-0.119 -1.0356,-0.227 -0.3236,-0.108 -0.6257,-0.248 -0.9061,-0.421 -0.2589,-0.172 -0.4531,-0.377 -0.5825,-0.614 -0.3884,-0.302 -0.6904,-0.669 -0.9062,-1.101 -0.2157,-0.431 -0.4746,-0.83 -0.7766,-1.197 -0.1511,-0.237 -0.2589,-0.507 -0.3237,-0.809 -0.0647,-0.281 -0.1294,-0.572 -0.1941,-0.874 -0.1295,-0.237 -0.2697,-0.518 -0.4207,-0.841 -0.1295,-0.324 -0.2589,-0.658 -0.3884,-1.004 -0.1079,-0.345 -0.1942,-0.69 -0.2589,-1.035 -0.0431,-0.345 -0.0539,-0.647 -0.0323,-0.906 -0.2374,-0.648 -0.3884,-1.284 -0.4531,-1.91 -0.0863,-0.604 -0.0432,-1.316 0.1294,-2.135 -0.1078,-0.777 -0.0755,-1.5 0.0971,-2.169 0.1726,-0.647 0.4423,-1.229 0.8091,-1.747 0.3883,-0.496 0.8414,-0.939 1.3592,-1.327 0.5393,-0.367 1.1003,-0.669 1.6828,-0.906 1.2297,-0.173 2.3408,-0.13 3.3332,0.129 1.014,0.259 1.9417,0.626 2.7832,1.101 0.8629,0.496 1.6504,1.057 2.3624,1.682 0.7335,0.626 1.4455,1.23 2.1358,1.813 -0.0431,0.129 -0.0431,0.226 0,0.291 0.0648,0.086 0.1403,0.162 0.2266,0.226 0.1078,0.065 0.2049,0.13 0.2912,0.195 0.0863,0.086 0.1403,0.183 0.1618,0.291 0.32366,0.151 0.56098,0.367 0.712,0.647 0.17259,0.302 0.40991,0.539 0.71196,0.712 0.0431,0.194 0.10787,0.356 0.19417,0.485 0.0863,0.13 0.18338,0.249 0.29125,0.356 0.10788,0.13 0.20496,0.259 0.29126,0.389 0.10787,0.129 0.18338,0.28 0.22653,0.453 h 0.35598 c 0.1726,0.388 0.36677,0.669 0.58251,0.841 0.23732,0.194 0.51779,0.421 0.84141,0.68 0.0216,0.194 0.0324,0.345 0.0324,0.453 0,0.129 0.0216,0.313 0.0647,0.55 0.30205,0.173 0.52858,0.324 0.6796,0.453 0.15102,0.151 0.31283,0.367 0.48543,0.647 -0.12945,0.259 -0.21575,0.54 -0.2589,0.842 -0.0431,0.323 -0.18338,0.604 -0.4207,0.841 -0.21574,0.022 -0.38834,0.086 -0.51779,0.194 -0.10787,0.108 -0.21574,0.227 -0.32362,0.356 -0.0863,0.13 -0.18338,0.248 -0.29125,0.356 -0.10787,0.13 -0.2589,0.216 -0.45307,0.259 -0.0216,0.086 -0.0108,0.14 0.0324,0.162 0.0431,0.043 0.0539,0.108 0.0324,0.194 -0.30205,0.065 -0.507,0.14 -0.61488,0.227 -0.0863,0.086 -0.26968,0.172 -0.55015,0.259 -0.21574,-0.108 -0.44227,-0.195 -0.67959,-0.259 -0.21575,-0.043 -0.37756,-0.173 -0.48543,-0.389 -0.15102,-0.021 -0.23732,0.022 -0.25889,0.13 0,0.108 -0.0539,0.172 -0.16181,0.194 -0.19417,0.022 -0.33441,-0.011 -0.42071,-0.097 -0.84142,0.518 -1.73672,0.982 -2.68602,1.391 -0.9277,0.41 -1.8123,0.874 -2.6537,1.392 z m -3.0743,-4.045 c 0.2373,0.086 0.4315,0.194 0.5825,0.323 0.151,0.151 0.3775,0.238 0.6796,0.259 0.1726,-0.108 0.302,-0.172 0.3883,-0.194 0.1079,-0.021 0.2697,-0.032 0.4854,-0.032 0.6689,-0.475 1.3808,-0.885 2.1359,-1.23 0.7767,-0.345 1.4994,-0.734 2.1683,-1.165 -0.0863,-0.043 -0.1726,-0.119 -0.2589,-0.227 -0.0863,-0.107 -0.0648,-0.226 0.0647,-0.356 -0.1726,-0.043 -0.3021,-0.118 -0.3884,-0.226 -0.0647,-0.108 -0.097,-0.227 -0.097,-0.356 0.0215,-0.13 0.0539,-0.27 0.097,-0.421 0.0648,-0.129 0.1403,-0.248 0.2266,-0.356 -0.4962,-0.625 -0.9817,-1.251 -1.4563,-1.877 -0.4746,-0.625 -1.0248,-1.186 -1.6505,-1.683 -0.0431,-0.086 -0.0647,-0.14 -0.0647,-0.161 0.0216,-0.022 0.0108,-0.087 -0.0323,-0.195 -0.41,-0.172 -0.7875,-0.388 -1.1327,-0.647 -0.3236,-0.237 -0.658,-0.474 -1.0032,-0.712 -0.3452,-0.237 -0.712,-0.442 -1.1003,-0.615 -0.3884,-0.172 -0.8414,-0.269 -1.3592,-0.291 -0.3021,0.367 -0.4854,0.798 -0.5502,1.295 -0.0647,0.496 -0.0755,1.003 -0.0323,1.521 0.0431,0.539 0.1079,1.057 0.1941,1.553 0.1079,0.518 0.1619,0.992 0.1619,1.424 0.2157,0.906 0.4962,1.683 0.8414,2.33 0.3667,0.647 0.7335,1.327 1.1003,2.039 z m -0.8091,29.958 c -0.9277,-0.518 -1.6504,-1.198 -2.1682,-2.039 -0.4962,-0.842 -0.9169,-1.769 -1.2621,-2.783 -0.3236,-1.014 -0.6149,-2.082 -0.8738,-3.204 -0.2589,-1.1 -0.5933,-2.168 -1.0032,-3.204 0,-0.302 -0.0108,-0.572 -0.0324,-0.809 -0.0215,-0.216 -0.0539,-0.431 -0.0971,-0.647 -0.0215,-0.194 -0.0539,-0.388 -0.097,-0.583 -0.0216,-0.194 -0.0432,-0.41 -0.0648,-0.647 0.0216,-0.086 0,-0.14 -0.0647,-0.162 -0.0431,-0.021 -0.0863,-0.054 -0.1294,-0.097 -0.0648,-0.367 -0.0971,-0.701 -0.0971,-1.003 0,-0.28 0,-0.518 0,-0.712 0,-0.259 -0.0324,-0.529 -0.0971,-0.809 -0.0863,-0.259 -0.1187,-0.496 -0.0971,-0.712 0.0863,-1.618 0.658,-2.891 1.7152,-3.819 1.0787,-0.906 2.5673,-1.413 4.4659,-1.521 0.1079,0.022 0.1726,0 0.1942,-0.064 0.0215,-0.044 0.0539,-0.087 0.0971,-0.13 0.2157,0 0.3991,0.022 0.5501,0.065 0.151,0.065 0.3452,0.075 0.5825,0.032 1.1866,0.561 2.2869,1.198 3.3009,1.91 1.0356,0.712 1.9417,1.564 2.7184,2.556 0.1295,0.151 0.2589,0.281 0.3884,0.389 0.1294,0.107 0.2588,0.204 0.3883,0.291 0.1294,0.108 0.2373,0.226 0.3236,0.356 0.1079,0.129 0.1834,0.291 0.2265,0.485 0.51783,0.453 0.99247,0.993 1.42396,1.618 0.43149,0.626 0.84141,1.284 1.22975,1.974 0.40992,0.691 0.80904,1.37 1.19739,2.039 0.40991,0.691 0.86298,1.316 1.35919,1.877 -0.10787,0.237 -0.14023,0.41 -0.0971,0.518 0.0431,0.108 0.0431,0.226 0,0.356 -0.32361,0.151 -0.55015,0.356 -0.67959,0.615 -0.12945,0.28 -0.26968,0.55 -0.42071,0.809 -0.12944,0.28 -0.29125,0.539 -0.48542,0.777 -0.19417,0.237 -0.45307,0.42 -0.77668,0.55 0,-0.13 -0.0539,-0.195 -0.16181,-0.195 -0.0863,0.022 -0.18339,0.054 -0.29126,0.098 -0.0863,0.043 -0.18338,0.054 -0.29126,0.032 -0.0863,0 -0.12944,-0.076 -0.12944,-0.227 -0.10788,0.022 -0.1726,0.087 -0.19417,0.195 0,0.129 -0.0539,0.194 -0.16181,0.194 -0.10787,0 -0.19417,-0.033 -0.2589,-0.097 -0.0647,-0.043 -0.17259,-0.043 -0.32361,0 -0.28047,-0.432 -0.55015,-0.917 -0.80904,-1.457 -0.2589,-0.517 -0.5394,-1.068 -0.8414,-1.65 -0.2805,-0.561 -0.5933,-1.154 -0.9385,-1.78 -0.3236,-0.604 -0.7012,-1.197 -1.1327,-1.78 -0.4315,-0.582 -0.9169,-1.176 -1.4562,-1.78 -0.5178,-0.604 -1.068,-1.186 -1.6505,-1.747 -0.5825,-0.561 -1.1866,-1.09 -1.8123,-1.586 -0.604,-0.496 -1.2081,-0.917 -1.8122,-1.262 -0.1079,0.043 -0.1942,0.086 -0.2589,0.129 -0.0432,0.065 -0.1187,0.119 -0.2265,0.162 -0.0432,0.69 -0.0432,1.327 0,1.909 0.0647,0.605 0.0323,1.209 -0.0971,1.813 0.0431,0.064 0.1078,0.108 0.1941,0.129 0.0863,0.022 0.1511,0.076 0.1942,0.162 0.1295,1.23 0.3236,2.373 0.5825,3.43 0.2805,1.057 0.5717,2.136 0.8738,3.236 0.0647,-0.172 0.1187,-0.334 0.1618,-0.485 0.0647,-0.129 0.1187,-0.259 0.1618,-0.388 0.1079,-0.108 0.1942,-0.108 0.2589,0 0.0863,0.129 0.1726,0.237 0.2589,0.323 0.1726,-0.302 0.3883,-0.55 0.6472,-0.744 0.2589,-0.173 0.6041,-0.28 1.0356,-0.324 0.1079,0.13 0.2373,0.195 0.3884,0.195 0.151,0 0.2696,-0.065 0.3559,-0.195 0.0216,-0.086 0.0216,-0.14 0,-0.161 -0.0215,-0.022 -0.0539,-0.044 -0.0971,-0.065 -0.0431,0 -0.0863,-0.011 -0.1294,-0.032 -0.0216,-0.022 -0.0108,-0.076 0.0324,-0.162 0.1941,0.021 0.3559,0.064 0.4854,0.129 0.1294,0.086 0.2805,0.151 0.4531,0.194 l 1.4886,2.233 c -0.1726,0.238 -0.3668,0.529 -0.5825,0.874 -0.1942,0.345 -0.3991,0.701 -0.6149,1.068 -0.1942,0.388 -0.3991,0.777 -0.6149,1.165 -0.1941,0.41 -0.3883,0.787 -0.5825,1.133 -0.1294,0.302 -0.302,0.571 -0.5178,0.809 -0.2157,0.237 -0.4422,0.464 -0.6796,0.679 -0.2157,0.216 -0.4315,0.432 -0.6472,0.648 -0.2157,0.237 -0.3991,0.507 -0.5501,0.809 -0.2805,-0.044 -0.507,-0.033 -0.6796,0.032 -0.1726,0.065 -0.3884,0.086 -0.6473,0.065 z m 8.7701,13.347 c 0.3236,0.065 0.58247,0.108 0.77664,0.129 0.21575,0.022 0.44228,-0.054 0.6796,-0.226 0.34519,0.086 0.61487,0.151 0.80904,0.194 0.19417,0.065 0.46386,0.076 0.80905,0.032 0.56093,0.195 1.03557,0.486 1.42392,0.874 0.38834,0.41 0.71195,0.852 0.97085,1.327 0.28047,0.475 0.507,0.971 0.6796,1.489 0.19417,0.517 0.35598,1.003 0.48542,1.456 0.0863,0 0.12945,-0.043 0.12945,-0.13 0,-0.086 0.0539,-0.107 0.16181,-0.064 0.21574,1.165 0.52857,2.33 0.93849,3.495 0.40992,1.186 0.77668,2.395 1.1003,3.624 0.32362,1.23 0.51778,2.492 0.58251,3.787 0.0863,1.294 -0.0755,2.653 -0.48542,4.077 -0.2589,0.087 -0.50701,0.205 -0.74433,0.356 -0.23732,0.151 -0.47463,0.302 -0.71195,0.453 -0.21575,0.173 -0.43149,0.324 -0.64724,0.453 -0.21575,0.13 -0.44228,0.205 -0.6796,0.227 -0.23732,0.259 -0.49621,0.464 -0.77668,0.615 -0.25889,0.172 -0.61487,0.205 -1.06794,0.097 -0.17259,-0.237 -0.34519,-0.486 -0.51779,-0.744 -0.17259,-0.259 -0.3344,-0.529 -0.48542,-0.809 0.23732,-0.971 0.32361,-1.942 0.25889,-2.913 -0.0647,-0.971 -0.14023,-1.845 -0.22653,-2.621 0.25889,-0.238 0.37755,-0.518 0.35598,-0.842 0,-0.323 -0.0539,-0.669 -0.16181,-1.035 -0.0863,-0.346 -0.18338,-0.691 -0.29126,-1.036 -0.0863,-0.345 -0.10787,-0.669 -0.0647,-0.971 -0.21575,-0.237 -0.36677,-0.55 -0.45306,-0.938 -0.0647,-0.389 -0.11866,-0.799 -0.16181,-1.23 -0.10788,-0.022 -0.18339,0 -0.22654,0.065 -0.0431,0.064 -0.12944,0.075 -0.25889,0.032 -0.19417,0.151 -0.33441,0.356 -0.4207,0.615 -0.0647,0.259 -0.12945,0.518 -0.19417,0.777 -0.0647,0.28 -0.16181,0.528 -0.29126,0.744 -0.10787,0.216 -0.29126,0.356 -0.55015,0.421 -0.0216,0.388 -0.12945,0.722 -0.32362,1.003 -0.17256,0.28 -0.38836,0.518 -0.64726,0.712 -0.2589,0.194 -0.5393,0.334 -0.8414,0.421 -0.2804,0.086 -0.5393,0.118 -0.7767,0.097 -0.2157,0.086 -0.302,0.172 -0.2589,0.259 0.0432,0.107 -0.0107,0.226 -0.1618,0.355 -0.3236,0.087 -0.6688,0.281 -1.0355,0.583 -0.3452,0.324 -0.7228,0.572 -1.1327,0.744 -0.6472,0.043 -1.2298,0.076 -1.7475,0.097 -0.5178,0.044 -1.0248,-0.043 -1.521,-0.258 -0.9493,-0.367 -1.8015,-0.896 -2.5566,-1.586 -0.7551,-0.691 -1.4239,-1.478 -2.0065,-2.363 -0.5609,-0.863 -1.0571,-1.78 -1.4886,-2.75 -0.4099,-0.971 -0.7551,-1.931 -1.0356,-2.881 0.0216,-0.086 0.0216,-0.194 0,-0.323 -0.0215,-0.108 0.0432,-0.13 0.1942,-0.065 -0.1726,-0.194 -0.2805,-0.421 -0.3236,-0.68 -0.0432,-0.237 -0.054,-0.507 -0.0324,-0.809 0,-0.28 0.0108,-0.571 0.0324,-0.873 0.0216,-0.281 0.0108,-0.561 -0.0324,-0.842 0.1726,-0.172 0.3452,-0.334 0.5178,-0.485 0.1726,-0.13 0.3776,-0.237 0.6149,-0.324 0.0216,-0.108 0.0863,-0.162 0.1942,-0.162 0.1294,0.022 0.1941,-0.021 0.1941,-0.129 0.0863,0 0.151,0.011 0.1942,0.032 0.0431,0.022 0.0863,0.043 0.1294,0.065 0.0648,0.086 0.1079,0.119 0.1295,0.097 0.0431,0 0.0755,-0.032 0.0971,-0.097 0.0431,-0.043 0.0863,-0.097 0.1294,-0.162 0.0432,-0.043 0.0971,-0.054 0.1618,-0.032 0.1942,0.108 0.4207,0.14 0.6796,0.097 0.2805,-0.022 0.561,-0.043 0.8414,-0.065 0.2805,-0.021 0.5394,0 0.7767,0.065 0.2589,0.065 0.4747,0.248 0.6473,0.55 -0.0863,0.885 -0.0432,1.715 0.1294,2.492 0.1726,0.798 0.4099,1.543 0.712,2.233 0.302,0.712 0.6256,1.381 0.9708,2.006 0.3668,0.648 0.7012,1.273 1.0032,1.877 0.2158,0.065 0.3992,0.162 0.5502,0.292 0.151,0.151 0.2912,0.302 0.4207,0.453 0.151,0.151 0.302,0.291 0.453,0.42 0.1726,0.13 0.3776,0.227 0.6149,0.292 0.0863,0.021 0.151,0.021 0.1942,0 0.0431,-0.022 0.0755,-0.054 0.0971,-0.097 0.0431,-0.044 0.0863,-0.087 0.1294,-0.13 0.0432,-0.043 0.1079,-0.065 0.1942,-0.065 0.0216,-0.064 0.0431,-0.129 0.0647,-0.194 0.0216,-0.043 0.0324,-0.086 0.0324,-0.129 0.2804,-0.561 0.5178,-1.154 0.7119,-1.78 0.1942,-0.626 0.41,-1.154 0.6473,-1.586 -0.1726,-0.259 -0.2158,-0.518 -0.1295,-0.777 0.0863,-0.258 0.1726,-0.571 0.2589,-0.938 0.0432,-0.906 0.1295,-1.769 0.2589,-2.589 0.1295,-0.798 0.356,-1.575 0.6796,-2.33 0.1295,-0.043 0.2373,-0.097 0.3236,-0.162 0.1079,-0.065 0.1403,-0.216 0.0971,-0.453 0.2158,-0.151 0.4099,-0.313 0.5825,-0.485 0.1942,-0.151 0.4099,-0.292 0.6473,-0.421 z m -6.1164,30.023 c -0.1295,-0.151 -0.2913,-0.281 -0.4854,-0.389 -0.1726,-0.108 -0.356,-0.215 -0.5502,-0.323 -0.2373,-0.108 -0.4638,-0.227 -0.6796,-0.356 -0.2157,-0.13 -0.4099,-0.292 -0.5825,-0.486 -0.3236,-0.108 -0.5825,-0.215 -0.7767,-0.323 -0.1726,-0.108 -0.3775,-0.281 -0.6149,-0.518 -0.8629,-0.216 -1.8014,-0.723 -2.8154,-1.521 -0.1942,-0.022 -0.3884,-0.086 -0.5825,-0.194 -0.1726,-0.087 -0.3452,-0.184 -0.5178,-0.292 -0.0648,-0.043 -0.1403,-0.086 -0.2266,-0.129 -0.0647,-0.043 -0.1186,-0.076 -0.1618,-0.097 l -0.3236,-0.065 c -0.1726,-0.108 -0.3236,-0.226 -0.4531,-0.356 -0.1294,-0.129 -0.2481,-0.248 -0.3559,-0.356 -0.0648,-0.043 -0.1511,-0.118 -0.2589,-0.226 l -0.1942,-0.486 c 0.2157,-1.575 1.0572,-2.535 2.5242,-2.88 l 0.3236,0.032 c 0.1079,0.044 0.2158,0.076 0.3237,0.098 0.1294,0.043 0.2588,0.086 0.3883,0.129 0.302,0.086 0.6041,0.183 0.9061,0.291 0.3021,0.13 0.5717,0.313 0.8091,0.55 0.151,0.044 0.3883,0.141 0.7119,0.292 0.3452,0.151 0.8522,0.41 1.521,0.776 0.5178,0.302 0.9277,0.54 1.2298,0.712 0.302,0.173 0.5393,0.313 0.7119,0.421 0.3452,-0.216 0.6581,-0.475 0.9385,-0.777 0.5394,-0.28 1.0572,-0.528 1.5534,-0.744 0.4962,-0.194 0.9385,-0.345 1.3268,-0.453 0.2805,-0.022 0.5178,-0.054 0.712,-0.097 0.1942,-0.043 0.3991,-0.086 0.6149,-0.13 0.2373,-0.064 0.4746,-0.118 0.7119,-0.161 0.2373,-0.044 0.4854,-0.065 0.7443,-0.065 0.15106,-0.108 0.30208,-0.173 0.4531,-0.194 l 0.32362,0.064 c 0.15102,0.065 0.34519,0.076 0.58251,0.033 0.2589,-0.043 0.51779,-0.097 0.77669,-0.162 0.21574,-0.043 0.45306,-0.097 0.71195,-0.162 0.2589,-0.043 0.51779,-0.054 0.77669,-0.032 0.25889,0.021 0.49621,0.086 0.71196,0.194 0.23732,0.129 0.44227,0.334 0.61487,0.615 l 0.0324,0.55 c -0.10787,0.194 -0.21574,0.378 -0.32362,0.55 -0.0863,0.194 -0.18338,0.378 -0.29125,0.55 -0.10787,0.238 -0.21575,0.464 -0.32362,0.68 -0.10787,0.216 -0.24811,0.442 -0.4207,0.679 l -0.45307,0.227 -0.35598,0.421 h -0.35598 c -0.0863,0.021 -0.20495,0.032 -0.35598,0.032 -0.28046,0 -0.45306,0.043 -0.51778,0.13 l -0.38835,0.129 c -0.30204,0 -0.59329,0.032 -0.87376,0.097 -0.2589,0.065 -0.50696,0.129 -0.74436,0.194 -0.2373,0.065 -0.4854,0.13 -0.7443,0.194 -0.2589,0.065 -0.5393,0.076 -0.8414,0.033 0.0647,0.129 0.1402,0.237 0.2265,0.323 0.0432,0.044 0.0756,0.087 0.0971,0.13 0.0216,0.043 0.054,0.086 0.0971,0.129 l 2.58895,1.91 0.32362,-0.065 0.64724,0.679 c 0.17259,0.173 0.3344,0.335 0.48542,0.486 0.15102,0.173 0.31283,0.313 0.48543,0.421 l 0.25889,0.356 c 1.07873,0.69 1.74754,1.672 2.00643,2.945 l 0.0647,0.453 -0.42071,0.129 c -0.23732,0.086 -0.45306,0.259 -0.64723,0.518 -0.19417,0.28 -0.37756,0.572 -0.55015,0.874 l -0.19417,0.291 c -0.21575,0.108 -0.37756,0.162 -0.48543,0.162 -0.10787,0 -0.20496,-0.011 -0.29125,-0.033 l -0.32362,0.13 c -0.51779,-0.173 -0.89534,-0.389 -1.13266,-0.648 -0.23732,-0.237 -0.45307,-0.474 -0.64724,-0.711 -0.1726,-0.195 -0.3344,-0.378 -0.48543,-0.551 -0.12942,-0.151 -0.30202,-0.269 -0.51782,-0.356 l -0.2589,-0.226 c -0.2589,-0.453 -0.604,-0.744 -1.0355,-0.874 l -0.3884,-0.097 v -0.388 c 0,-0.022 -0.0431,-0.076 -0.1294,-0.162 -0.0647,-0.065 -0.2481,-0.173 -0.5502,-0.324 -0.2157,-0.151 -0.356,-0.259 -0.4207,-0.323 -0.0647,-0.065 -0.1186,-0.119 -0.1618,-0.162 -0.0863,-0.022 -0.1726,-0.054 -0.2589,-0.097 -0.0647,-0.022 -0.151,-0.054 -0.2589,-0.097 -0.2804,-0.281 -0.4962,-0.453 -0.6472,-0.518 -0.1295,-0.065 -0.2805,-0.14 -0.4531,-0.227 -0.1726,-0.086 -0.3452,-0.172 -0.5178,-0.259 -0.151,-0.064 -0.3128,-0.183 -0.4854,-0.356 z m -2.589,10.541 c -0.0431,-0.195 -0.1618,-0.335 -0.3559,-0.421 -0.1726,-0.086 -0.356,-0.173 -0.5502,-0.259 -0.1942,-0.065 -0.3775,-0.14 -0.5501,-0.227 -0.1511,-0.064 -0.2266,-0.172 -0.2266,-0.323 -0.1726,-0.022 -0.3236,-0.087 -0.453,-0.194 -0.1295,-0.087 -0.2697,-0.173 -0.4207,-0.259 -0.1295,-0.087 -0.2805,-0.151 -0.4531,-0.194 -0.151,-0.044 -0.3344,-0.022 -0.5502,0.064 -0.1294,-0.172 -0.3128,-0.28 -0.5501,-0.323 -0.2373,-0.043 -0.4639,-0.097 -0.6796,-0.162 -0.2157,-0.043 -0.3991,-0.13 -0.5501,-0.259 -0.1511,-0.129 -0.2158,-0.367 -0.1942,-0.712 -0.0863,-0.065 -0.1403,-0.076 -0.1618,-0.032 -0.0216,0.043 -0.0971,0.075 -0.2266,0.097 0.0432,-0.238 0.0324,-0.421 -0.0323,-0.55 -0.0863,-0.108 -0.1403,-0.249 -0.1618,-0.421 0.1294,-0.41 0.3559,-0.755 0.6796,-1.036 0.3236,-0.259 0.6796,-0.496 1.0679,-0.712 0.4099,-0.194 0.8198,-0.377 1.2298,-0.55 0.4099,-0.151 0.7658,-0.302 1.0679,-0.453 0.2373,0.065 0.4638,0.076 0.6796,0.032 0.2373,-0.043 0.4315,-0.118 0.5825,-0.226 2.2437,1.057 4.6385,2.211 7.1843,3.463 2.5458,1.251 5.05924,2.438 7.5403,3.559 -0.19417,0.497 -0.4207,0.982 -0.67959,1.457 -0.23732,0.496 -0.51779,0.938 -0.84141,1.327 -0.32362,0.409 -0.70117,0.755 -1.13266,1.035 -0.40992,0.281 -0.87377,0.464 -1.39156,0.55 -0.12944,-0.043 -0.18338,-0.097 -0.16181,-0.162 0.0431,-0.043 0.0324,-0.086 -0.0324,-0.129 -0.10787,0.086 -0.18338,0.129 -0.22653,0.129 -0.0431,0.022 -0.0863,0.022 -0.12945,0 -0.0431,0 -0.10787,0 -0.19417,0 -0.0648,0 -0.16176,0.033 -0.29126,0.098 0.0216,-0.087 0.0108,-0.151 -0.0324,-0.195 -0.0431,-0.021 -0.0431,-0.086 0,-0.194 -0.2373,0.087 -0.4314,0.108 -0.5825,0.065 -0.151,-0.022 -0.2912,-0.065 -0.4207,-0.13 -0.1078,-0.064 -0.2373,-0.118 -0.3883,-0.161 -0.1295,-0.043 -0.3021,-0.033 -0.5178,0.032 0,-0.065 -0.0216,-0.119 -0.0647,-0.162 -0.0216,-0.021 -0.054,-0.043 -0.0971,-0.064 -0.0216,-0.022 -0.0539,-0.054 -0.0971,-0.098 -0.0216,-0.021 -0.0216,-0.064 0,-0.129 -0.4746,0.065 -0.9493,0.086 -1.4239,0.065 -0.4747,-0.022 -0.9601,-0.043 -1.4563,-0.065 -0.4746,0 -0.9816,0.011 -1.521,0.032 -0.5178,0.022 -1.0571,0.097 -1.6181,0.227 0.4531,0.777 1.0356,1.391 1.7476,1.844 0.7119,0.475 1.5102,0.853 2.3947,1.133 0.8846,0.302 1.8339,0.529 2.8479,0.68 1.014,0.151 2.04954,0.313 3.10669,0.485 0.19417,0.194 0.43149,0.345 0.71196,0.453 0.28047,0.108 0.57172,0.205 0.87377,0.292 0.32361,0.086 0.63644,0.172 0.93849,0.258 0.32361,0.087 0.61487,0.195 0.87377,0.324 -0.0431,0.324 -0.15103,0.593 -0.32362,0.809 -0.15102,0.237 -0.32362,0.453 -0.51779,0.647 -0.1726,0.194 -0.34519,0.399 -0.51779,0.615 -0.15102,0.216 -0.24811,0.486 -0.29126,0.809 -0.36676,0.259 -0.72274,0.496 -1.06793,0.712 -0.3452,0.216 -0.71196,0.356 -1.1003,0.421 -0.1726,-0.108 -0.36677,-0.194 -0.58252,-0.259 -0.21574,-0.043 -0.43149,-0.097 -0.64727,-0.162 -0.2157,-0.065 -0.4207,-0.151 -0.6148,-0.259 -0.1726,-0.108 -0.3237,-0.259 -0.4531,-0.453 -0.5609,-0.065 -1.0787,-0.151 -1.5534,-0.259 -0.453,-0.086 -0.9061,-0.183 -1.3592,-0.291 -0.453,-0.086 -0.9277,-0.162 -1.4239,-0.226 -0.4746,-0.065 -1.0032,-0.087 -1.5857,-0.065 -0.4962,-0.173 -1.0248,-0.356 -1.5857,-0.55 -0.561,-0.195 -1.068,-0.346 -1.521,-0.453 -0.2805,-0.346 -0.6149,-0.615 -1.0032,-0.809 -0.3884,-0.195 -0.7767,-0.4 -1.1651,-0.615 -0.0863,-0.087 -0.1078,-0.141 -0.0647,-0.162 0.0432,-0.022 0.0755,-0.097 0.0971,-0.227 -0.0863,0.022 -0.151,0.022 -0.1942,0 -0.0431,-0.021 -0.0863,-0.054 -0.1294,-0.097 -0.0216,-0.021 -0.0648,-0.043 -0.1295,-0.064 -0.0647,0 -0.151,0.021 -0.2589,0.064 -0.1294,-0.302 -0.3128,-0.571 -0.5501,-0.809 -0.2373,-0.237 -0.4531,-0.496 -0.6473,-0.776 -0.1941,-0.259 -0.3236,-0.583 -0.3883,-0.971 -0.0647,-0.367 0.0108,-0.853 0.2265,-1.457 0.6473,-0.884 1.3916,-1.672 2.233,-2.362 0.8414,-0.669 1.8446,-1.219 3.0096,-1.65 z m 9.67621,31.478 c 0,-0.539 -0.0431,-1.121 -0.12944,-1.747 -0.0647,-0.626 -0.14024,-1.241 -0.22654,-1.845 -0.0647,-0.431 -0.11866,-0.852 -0.16181,-1.262 -0.0431,-0.388 -0.0755,-0.744 -0.0971,-1.068 -0.4746,-0.151 -0.8953,-0.302 -1.2621,-0.453 -0.3667,-0.151 -0.7227,-0.313 -1.0679,-0.485 -0.3668,-0.173 -0.7443,-0.335 -1.1327,-0.486 -0.3667,-0.129 -0.7659,-0.259 -1.1974,-0.388 -0.3451,-0.216 -0.6688,-0.399 -0.9708,-0.55 -0.2805,-0.13 -0.6041,-0.237 -0.9709,-0.324 -0.3236,-0.259 -0.6688,-0.453 -1.0355,-0.582 -0.3452,-0.13 -0.6473,-0.227 -0.9062,-0.292 l -0.3883,-0.129 c -0.1295,-0.129 -0.2373,-0.205 -0.3236,-0.227 -0.0648,-0.021 -0.1295,-0.075 -0.1942,-0.161 -0.2373,-0.022 -0.4746,-0.097 -0.712,-0.227 -0.1078,-0.043 -0.2157,-0.075 -0.3236,-0.097 -0.0863,-0.022 -0.151,-0.032 -0.1941,-0.032 -0.2158,0 -0.356,-0.054 -0.4207,-0.162 -0.1079,0.021 -0.2266,0.021 -0.356,0 -0.1079,-0.022 -0.2158,-0.043 -0.3236,-0.065 -0.2589,-0.065 -0.4639,-0.086 -0.6149,-0.065 -0.0863,0.065 -0.1618,0.119 -0.2266,0.162 -0.0647,0.065 -0.151,0.108 -0.2588,0.13 -0.0863,0.129 -0.1403,0.226 -0.1619,0.291 -0.0647,0.086 -0.1402,0.216 -0.2265,0.388 l -0.3236,0.292 c -0.6257,0.107 -1.1219,0.01 -1.4886,-0.292 -0.41,-0.323 -0.6149,-0.873 -0.6149,-1.65 v -0.388 c 0.1079,-0.108 0.1941,-0.173 0.2589,-0.195 0.0647,-0.172 0.1186,-0.312 0.1618,-0.42 0.0431,-0.108 0.1294,-0.205 0.2589,-0.292 0.1294,-0.28 0.2373,-0.507 0.3236,-0.679 l 0.1618,-0.291 c 0.2373,0 0.3668,0 0.3883,0 0.1942,-0.152 0.41,-0.27 0.6473,-0.356 0.2373,-0.065 0.4746,-0.119 0.7119,-0.162 0.1942,-0.043 0.3776,-0.097 0.5502,-0.162 0.1726,-0.043 0.3236,-0.108 0.4531,-0.194 1.2513,-0.043 2.3084,0.075 3.1714,0.356 0.863,0.28 1.6936,0.571 2.4919,0.873 0.4315,0.173 0.8629,0.346 1.2944,0.518 0.4531,0.173 0.917,0.324 1.3916,0.453 l 0.3236,0.292 c 0.3452,0.151 0.6257,0.269 0.8414,0.356 0.2373,0.107 0.4747,0.215 0.712,0.323 0.151,0.065 0.2912,0.119 0.4207,0.162 0.151,0.065 0.2804,0.119 0.3883,0.162 0,-0.13 -0.0108,-0.248 -0.0323,-0.356 0,-0.108 -0.0108,-0.216 -0.0324,-0.324 -0.0216,-0.129 -0.0432,-0.248 -0.0647,-0.356 0,-0.108 0,-0.215 0,-0.323 0,-0.151 0.0108,-0.259 0.0323,-0.324 -0.1078,-0.237 -0.1618,-0.496 -0.1618,-0.777 v -0.323 c 0,-0.065 0,-0.13 0,-0.194 0.0216,-0.044 0.0324,-0.087 0.0324,-0.13 0,-0.216 -0.0324,-0.388 -0.0971,-0.518 0,-0.259 0,-0.507 0,-0.744 v -0.324 c 0,-0.043 -0.0108,-0.097 -0.0324,-0.161 0,-0.065 0,-0.119 0,-0.162 0,-0.151 0.0108,-0.313 0.0324,-0.486 0.0431,-0.172 0.1187,-0.356 0.2265,-0.55 0.3452,-0.259 0.5286,-0.431 0.5502,-0.518 l 0.38832,-0.291 c 0.12945,-0.021 0.24811,-0.054 0.35598,-0.097 0.12945,-0.043 0.26968,-0.086 0.42071,-0.129 0.21574,-0.087 0.44227,-0.173 0.67959,-0.259 0.2589,-0.065 0.56094,-0.097 0.90613,-0.097 0.1726,0.021 0.30205,0.064 0.38834,0.129 0.0863,0.065 0.16181,0.119 0.22654,0.162 l 0.48542,0.097 -0.0324,0.421 v 0.906 c 0,0.69 0.0216,1.391 0.0647,2.103 0.0647,0.712 0.12944,1.446 0.19417,2.201 0.0431,0.431 0.0863,0.863 0.12944,1.294 0.0431,0.453 0.0863,0.917 0.12945,1.392 0.19417,0.086 0.37755,0.173 0.55015,0.259 l 0.16181,0.323 c 0.0216,0.389 -0.0324,0.658 -0.16181,0.809 -0.10787,0.173 -0.21574,0.313 -0.32362,0.421 0.0431,0.475 0.0863,0.949 0.12945,1.424 0.0647,0.496 0.14023,0.993 0.22653,1.489 0.10787,0.733 0.20496,1.467 0.29126,2.2 0.0863,0.755 0.12945,1.478 0.12945,2.169 0,0.302 -0.0108,0.593 -0.0324,0.873 -0.0216,0.281 -0.0539,0.54 -0.0971,0.777 l -0.22653,0.324 c -0.12945,0.064 -0.24811,0.151 -0.35598,0.259 -0.10788,0.129 -0.21575,0.258 -0.32362,0.388 -0.23732,0.259 -0.51779,0.518 -0.84141,0.777 -0.32362,0.258 -0.79825,0.356 -1.42392,0.291 -0.25889,-0.173 -0.40991,-0.302 -0.45306,-0.389 l -0.38834,-0.291 0.0324,-0.323 c 0,-0.13 -0.0216,-0.248 -0.0647,-0.356 -0.0216,-0.108 -0.0539,-0.216 -0.0971,-0.324 -0.0431,-0.086 -0.0863,-0.173 -0.12945,-0.259 -0.0216,-0.086 -0.0431,-0.183 -0.0647,-0.291 0,-0.194 0,-0.356 0,-0.486 0.0216,-0.107 0.0324,-0.226 0.0324,-0.356 z m -12.42691,15.04 c -0.5609,0.043 -1.0248,-0.022 -1.3916,-0.195 -0.3667,-0.172 -0.6796,-0.409 -0.9385,-0.711 -0.2588,-0.303 -0.4638,-0.648 -0.6148,-1.036 -0.1511,-0.388 -0.2913,-0.766 -0.4207,-1.133 0.1078,-0.172 0.2157,-0.345 0.3236,-0.518 0.1294,-0.151 0.2265,-0.334 0.2912,-0.55 0.5178,-0.28 0.9709,-0.55 1.3592,-0.809 0.41,-0.259 0.8738,-0.377 1.3916,-0.356 0.0216,0 0.1402,0.011 0.356,0.033 0.2157,0.043 0.453,0.086 0.7119,0.129 0.2589,0.065 0.4962,0.108 0.712,0.13 0.2373,0.043 0.3668,0.064 0.3883,0.064 -0.0431,-0.496 -0.151,-1.014 -0.3236,-1.553 -0.1726,-0.539 -0.3775,-1.068 -0.6149,-1.586 -0.2373,-0.496 -0.4746,-0.971 -0.7119,-1.424 -0.2373,-0.431 -0.4423,-0.787 -0.6149,-1.068 -0.0647,0 -0.2265,-0.043 -0.4854,-0.129 -0.2373,-0.086 -0.4962,-0.194 -0.7767,-0.324 -0.2589,-0.129 -0.4962,-0.269 -0.712,-0.42 -0.2157,-0.151 -0.3236,-0.302 -0.3236,-0.454 -0.0647,0.022 -0.1294,0.054 -0.1941,0.098 -0.0648,0.043 -0.1511,0.043 -0.2589,0 -0.0863,-0.302 -0.1942,-0.572 -0.3237,-0.809 -0.151,-0.238 -0.2696,-0.486 -0.3559,-0.745 -0.1079,-0.259 -0.1619,-0.539 -0.1619,-0.841 0,-0.302 0.1079,-0.658 0.3237,-1.068 0.1294,0 0.2373,-0.054 0.3236,-0.162 0.1079,-0.108 0.1942,-0.226 0.2589,-0.356 0.0863,-0.108 0.151,-0.205 0.1942,-0.291 0.0647,-0.086 0.1186,-0.13 0.1618,-0.13 -0.0216,-0.107 0.0539,-0.151 0.2265,-0.129 0.1726,0.022 0.2157,0.108 0.1294,0.259 0.3021,-0.237 0.561,-0.389 0.7767,-0.453 0.2373,-0.043 0.5286,-0.162 0.8738,-0.356 0.0431,0.043 0.1186,0.086 0.2265,0.129 0.1079,0.022 0.205,0.043 0.2913,0.065 0.0863,0.022 0.151,0.054 0.1941,0.097 0.0432,0.043 0.0324,0.097 -0.0323,0.162 0.1942,-0.043 0.356,-0.043 0.4854,0 0.1295,0.043 0.2481,0.086 0.356,0.129 0.1079,0.043 0.2157,0.076 0.3236,0.097 0.1079,0.022 0.2265,-0.01 0.356,-0.097 0.4746,0.345 0.9816,0.572 1.521,0.68 0.5609,0.108 1.0679,0.172 1.521,0.194 0.151,0.151 0.3668,0.281 0.6472,0.388 0.2805,0.13 0.561,0.227 0.8414,0.292 0.3021,0.064 0.5825,0.086 0.8414,0.064 0.2805,0 0.507,-0.032 0.6796,-0.097 0.1079,0.022 0.1403,0.141 0.0971,0.356 0.712,0.13 1.5102,0.216 2.3948,0.259 0.9061,0.065 1.75832,0.162 2.55658,0.291 0.81983,0.13 1.53179,0.346 2.13587,0.648 0.62566,0.302 1.03558,0.787 1.22975,1.456 -0.45306,0.129 -0.85219,0.291 -1.19738,0.485 -0.3452,0.216 -0.6796,0.443 -1.00322,0.68 -0.30204,0.259 -0.61487,0.507 -0.93849,0.744 -0.32362,0.259 -0.69038,0.497 -1.1003,0.712 -0.40991,-0.021 -0.88451,-0.064 -1.42391,-0.129 -0.5394,-0.065 -1.0895,-0.151 -1.6505,-0.259 -0.5609,-0.086 -1.1003,-0.183 -1.618,-0.291 -0.5178,-0.087 -0.9601,-0.173 -1.3269,-0.259 -0.1079,0.021 -0.1726,0.075 -0.1942,0.162 -0.0215,0.107 -0.1186,0.129 -0.2912,0.064 0.1294,0.518 0.2481,1.057 0.356,1.618 0.1078,0.561 0.2265,1.122 0.356,1.683 0.1294,0.561 0.2696,1.1 0.4207,1.618 0.1726,0.54 0.3775,1.036 0.6148,1.489 0.8414,0.108 1.6828,0.248 2.5242,0.421 0.8415,0.172 1.7044,0.194 2.58899,0.064 0.0863,0.108 0.19417,0.195 0.32362,0.259 0.12944,0.065 0.21574,0.173 0.25889,0.324 0.40992,-0.108 0.84141,-0.151 1.29447,-0.13 0.45307,0.022 0.88456,0.097 1.29447,0.227 0.40992,0.151 0.75511,0.356 1.03558,0.615 0.30204,0.28 0.49621,0.615 0.58251,1.003 -0.34519,0.237 -0.72275,0.442 -1.13266,0.615 -0.38834,0.173 -0.78747,0.345 -1.19739,0.518 -0.38834,0.194 -0.76589,0.388 -1.13266,0.582 -0.34519,0.216 -0.64723,0.486 -0.90613,0.809 -0.62566,0.065 -1.27289,0.108 -1.94169,0.13 -0.6688,0.043 -1.3484,0.075 -2.0388,0.097 -0.8198,-0.173 -1.6181,-0.367 -2.3948,-0.583 -0.7551,-0.194 -1.5641,-0.334 -2.4271,-0.42 -0.1726,-0.151 -0.3668,-0.27 -0.5825,-0.356 -0.2158,-0.087 -0.4423,-0.173 -0.6796,-0.259 -0.2158,-0.087 -0.4315,-0.184 -0.6473,-0.292 -0.1941,-0.107 -0.3667,-0.237 -0.5177,-0.388 -0.2589,0.086 -0.507,0.097 -0.7444,0.032 -0.2157,-0.043 -0.4854,0.022 -0.809,0.195 z m 15.08058,21.77 c -0.15102,0.022 -0.26968,0.022 -0.35598,0 -0.0647,0 -0.12945,-0.011 -0.19417,-0.032 -0.0647,0 -0.14024,0 -0.22653,0 -0.0647,0 -0.1726,0.021 -0.32362,0.064 -0.73354,-0.453 -1.24054,-0.981 -1.52101,-1.585 -0.25889,-0.583 -0.45306,-1.219 -0.58251,-1.91 -0.10786,-0.69 -0.22656,-1.402 -0.35596,-2.136 -0.1295,-0.712 -0.4099,-1.423 -0.8414,-2.135 0.1078,-0.281 0.1078,-0.54 0,-0.777 -0.1079,-0.216 -0.1403,-0.539 -0.0971,-0.971 -0.1295,-0.129 -0.2265,-0.291 -0.2913,-0.485 -0.0431,-0.195 -0.097,-0.389 -0.1618,-0.583 -0.1941,0.086 -0.3991,0.119 -0.6148,0.097 -0.1942,0 -0.356,0.033 -0.4855,0.097 -0.0647,0.755 -0.0539,1.586 0.0324,2.492 0.0863,0.928 0.1402,1.834 0.1618,2.719 -0.1079,0.021 -0.1834,0.01 -0.2265,-0.033 -0.0216,-0.043 -0.0755,-0.054 -0.1618,-0.032 -0.1079,0.151 -0.2482,0.302 -0.4207,0.453 -0.1511,0.151 -0.3021,0.302 -0.4531,0.453 -0.151,0.151 -0.2805,0.302 -0.3884,0.453 -0.0863,0.173 -0.1186,0.367 -0.097,0.583 -0.1726,0.086 -0.3668,0.14 -0.5826,0.161 -0.1941,0.043 -0.3991,0.022 -0.6148,-0.064 -0.2373,-0.346 -0.4855,-0.691 -0.7443,-1.036 -0.2374,-0.345 -0.4531,-0.712 -0.6473,-1.1 -0.1942,-0.367 -0.356,-0.766 -0.4854,-1.198 -0.1079,-0.41 -0.151,-0.873 -0.1295,-1.391 0,-0.108 0,-0.194 0,-0.259 0,-0.043 0.0324,-0.108 0.0971,-0.194 -0.1078,-0.173 -0.1402,-0.421 -0.0971,-0.745 0.0432,-0.302 0.0108,-0.539 -0.097,-0.712 0.1078,-0.237 0.151,-0.528 0.1294,-0.873 0,-0.324 0.0432,-0.615 0.1295,-0.874 -0.4531,-0.345 -0.9385,-0.658 -1.4563,-0.939 -0.5178,-0.28 -1.068,-0.528 -1.6505,-0.744 -0.1078,0.734 -0.151,1.338 -0.1294,1.812 0.0216,0.497 0.0539,0.96 0.0971,1.392 0.0647,0.431 0.1186,0.874 0.1618,1.327 0.0647,0.453 0.0863,1.025 0.0647,1.715 0.2373,0.431 0.3883,0.938 0.4531,1.521 0.0863,0.604 0.2157,1.154 0.3883,1.65 -0.0647,0.173 -0.1834,0.324 -0.356,0.453 -0.151,0.13 -0.302,0.249 -0.453,0.356 -0.1295,0.13 -0.2481,0.259 -0.356,0.389 -0.1079,0.129 -0.151,0.291 -0.1295,0.485 -0.0863,0.086 -0.1941,0.14 -0.3236,0.162 -0.1079,0.043 -0.2157,0.075 -0.3236,0.097 -0.1079,0.022 -0.205,0.054 -0.2913,0.097 -0.0647,0.065 -0.0863,0.162 -0.0647,0.291 -0.7119,-0.323 -1.2621,-0.701 -1.6504,-1.132 -0.3668,-0.41 -0.6473,-0.885 -0.8414,-1.424 -0.1942,-0.54 -0.3452,-1.144 -0.4531,-1.812 -0.1079,-0.648 -0.2373,-1.37 -0.3883,-2.169 -0.0432,-0.194 -0.0324,-0.356 0.0323,-0.485 0.0432,-0.13 0.0647,-0.281 0.0647,-0.453 -0.1078,-0.496 -0.2049,-1.09 -0.2912,-1.78 -0.0863,-0.69 -0.1187,-1.392 -0.0971,-2.104 0.0216,-0.712 0.1187,-1.391 0.2913,-2.038 0.151,-0.648 0.4314,-1.176 0.8414,-1.586 0.151,-0.173 0.3236,-0.291 0.5177,-0.356 0.2158,-0.043 0.3776,-0.183 0.4855,-0.421 0.2804,-0.021 0.5933,-0.065 0.9385,-0.129 0.3452,-0.065 0.7011,-0.13 1.0679,-0.194 0.3883,-0.065 0.7659,-0.119 1.1327,-0.162 0.3667,-0.022 0.7011,0 1.0032,0.065 0.3236,0.064 0.6149,0.194 0.8737,0.388 0.2589,0.216 0.5394,0.291 0.8415,0.226 0.0215,0.108 0.0755,0.173 0.1618,0.195 0.1078,0.021 0.151,0.107 0.1294,0.258 0.3884,0.13 0.7551,0.27 1.1003,0.421 0.3452,0.151 0.6796,0.302 1.0032,0.453 0.3236,0.173 0.6473,0.335 0.9709,0.486 0.3452,0.172 0.7227,0.334 1.1326,0.485 0.2805,-0.302 0.5826,-0.529 0.9062,-0.68 0.3452,-0.129 0.6796,-0.226 1.0032,-0.291 0.3452,-0.065 0.6904,-0.118 1.03556,-0.162 0.36677,-0.043 0.73354,-0.118 1.1003,-0.226 0.32362,0.216 0.58251,0.475 0.77668,0.777 0.21575,0.323 0.38835,0.668 0.51779,1.035 0.12945,0.367 0.23732,0.766 0.32362,1.198 0.0863,0.431 0.18338,0.884 0.29126,1.359 0.28047,0.863 0.49621,1.629 0.64723,2.297 0.15102,0.691 0.26968,1.36 0.35598,2.007 0.10787,0.669 0.20496,1.359 0.29126,2.071 0.0863,0.712 0.21574,1.521 0.38834,2.427 -0.19417,0.194 -0.29126,0.378 -0.29126,0.55 0.19417,0.087 0.24811,0.184 0.16181,0.292 -0.0647,0.129 0,0.183 0.19417,0.161 -0.36676,0.216 -0.67959,0.486 -0.93849,0.809 -0.23732,0.346 -0.44228,0.723 -0.61487,1.133 z m -3.65688,0.735 c 0.45306,0.151 0.8414,0.389 1.16502,0.712 0.32362,0.345 0.5933,0.712 0.80905,1.101 0.23732,0.409 0.43149,0.83 0.58251,1.262 0.15102,0.431 0.28047,0.841 0.38834,1.229 0.36677,0.863 0.71196,1.78 1.03558,2.751 0.34519,0.993 0.64723,1.996 0.90612,3.01 0.2589,1.035 0.42071,2.093 0.48543,3.171 0.0863,1.079 -0.0431,2.212 -0.38834,3.398 -0.21574,0.065 -0.4207,0.162 -0.61487,0.291 -0.19417,0.13 -0.38834,0.259 -0.58252,0.389 -0.19417,0.151 -0.38834,0.28 -0.58251,0.388 -0.17259,0.108 -0.35598,0.173 -0.55015,0.194 -0.19417,0.216 -0.40991,0.389 -0.64723,0.518 -0.21575,0.13 -0.507,0.151 -0.87377,0.065 -0.1726,-0.216 -0.33441,-0.432 -0.48543,-0.647 -0.12944,-0.195 -0.24813,-0.41 -0.35593,-0.648 0.19412,-0.798 0.25885,-1.607 0.19412,-2.427 -0.0647,-0.82 -0.11862,-1.553 -0.16182,-2.2 0.19419,-0.195 0.29127,-0.432 0.29127,-0.712 0,-0.259 -0.0431,-0.54 -0.12945,-0.842 -0.0863,-0.28 -0.17262,-0.571 -0.25892,-0.873 -0.0863,-0.281 -0.1078,-0.551 -0.0647,-0.81 -0.1726,-0.215 -0.2912,-0.485 -0.356,-0.809 -0.0431,-0.302 -0.0863,-0.636 -0.1294,-1.003 -0.1079,-0.021 -0.1834,0 -0.2266,0.065 -0.0215,0.065 -0.0863,0.075 -0.1941,0.032 -0.151,0.13 -0.2589,0.292 -0.3236,0.486 -0.0648,0.215 -0.1295,0.431 -0.1942,0.647 -0.0647,0.237 -0.151,0.442 -0.2589,0.615 -0.0863,0.172 -0.2373,0.291 -0.4531,0.356 0,0.323 -0.0755,0.604 -0.2265,0.841 -0.151,0.238 -0.3344,0.432 -0.5502,0.583 -0.2157,0.151 -0.453,0.259 -0.7119,0.323 -0.2373,0.087 -0.4531,0.13 -0.6472,0.13 -0.1726,0.065 -0.2482,0.14 -0.2266,0.226 0.0216,0.087 -0.0216,0.184 -0.1294,0.292 -0.2805,0.064 -0.5718,0.226 -0.8738,0.485 -0.2805,0.259 -0.5933,0.464 -0.9385,0.615 -0.5393,0.043 -1.0248,0.075 -1.4563,0.097 -0.4099,0.022 -0.8306,-0.054 -1.2621,-0.227 -0.7982,-0.323 -1.5102,-0.776 -2.1359,-1.359 -0.6256,-0.561 -1.1866,-1.208 -1.6828,-1.941 -0.4746,-0.712 -0.8845,-1.478 -1.2297,-2.298 -0.3452,-0.82 -0.6365,-1.618 -0.8738,-2.395 0.0216,-0.086 0.0216,-0.173 0,-0.259 -0.0216,-0.086 0.0324,-0.108 0.1618,-0.065 -0.151,-0.172 -0.2481,-0.366 -0.2912,-0.582 -0.0432,-0.194 -0.054,-0.41 -0.0324,-0.647 0,-0.238 0.0108,-0.486 0.0324,-0.745 0.0215,-0.237 0.0108,-0.463 -0.0324,-0.679 0.151,-0.151 0.3021,-0.291 0.4531,-0.421 0.1294,-0.108 0.302,-0.194 0.5178,-0.259 0,-0.108 0.0539,-0.162 0.1618,-0.162 0.1078,0.022 0.1618,-0.01 0.1618,-0.097 0.2157,0.13 0.3344,0.184 0.356,0.162 0.0431,0 0.0755,-0.032 0.097,-0.097 0.0216,-0.043 0.0432,-0.086 0.0648,-0.129 0.0431,-0.044 0.0971,-0.054 0.1618,-0.033 0.1726,0.087 0.3667,0.119 0.5825,0.097 0.2373,-0.021 0.4746,-0.043 0.712,-0.064 0.2373,-0.022 0.4638,-0.011 0.6795,0.032 0.2158,0.065 0.3884,0.226 0.5178,0.485 -0.0863,0.734 -0.0647,1.424 0.0648,2.072 0.151,0.668 0.3559,1.294 0.6148,1.877 0.2589,0.582 0.5394,1.132 0.8414,1.65 0.3021,0.539 0.5718,1.068 0.8091,1.586 0.1942,0.064 0.356,0.151 0.4854,0.259 0.1295,0.129 0.2481,0.258 0.356,0.388 0.1079,0.129 0.2265,0.248 0.356,0.356 0.1294,0.108 0.2912,0.183 0.4854,0.226 0.151,0.022 0.2373,-0.021 0.2589,-0.129 0.0431,-0.086 0.1294,-0.129 0.2589,-0.129 l 0.0971,-0.356 c 0.2373,-0.41 0.4315,-0.874 0.5825,-1.392 0.1726,-0.518 0.356,-0.96 0.5501,-1.327 -0.1294,-0.237 -0.1618,-0.464 -0.0971,-0.679 0.0648,-0.195 0.1295,-0.453 0.1942,-0.777 0.0432,-0.734 0.1187,-1.446 0.2265,-2.136 0.1079,-0.669 0.3021,-1.316 0.5826,-1.942 0.1078,-0.043 0.2049,-0.097 0.2912,-0.161 0.0863,-0.065 0.1079,-0.184 0.0647,-0.356 0.1726,-0.13 0.3344,-0.259 0.4855,-0.389 0.1726,-0.129 0.3559,-0.248 0.5501,-0.356 0.2589,0.043 0.4747,0.076 0.6473,0.097 0.1941,0.022 0.3775,-0.043 0.5501,-0.194 0.2805,0.086 0.507,0.151 0.6796,0.194 0.1726,0.043 0.3991,0.043 0.6796,0 z m -12.2975,22.709 c -0.6472,0.108 -1.1542,0.065 -1.521,-0.129 -0.3667,-0.173 -0.6364,-0.432 -0.809,-0.777 -0.1942,-0.324 -0.3021,-0.701 -0.3236,-1.133 -0.0216,-0.431 0,-0.841 0.0647,-1.229 0.302,-0.216 0.6796,-0.41 1.1326,-0.583 0.4531,-0.172 0.917,-0.334 1.3916,-0.485 0.4962,-0.151 0.9816,-0.292 1.4563,-0.421 0.4746,-0.108 0.8953,-0.205 1.2621,-0.291 0.2589,0.108 0.5501,0.172 0.8738,0.194 0.3451,0.043 0.6903,0.065 1.0355,0.065 0.3452,0.021 0.6904,0.032 1.0356,0.032 0.3668,0.022 0.712,0.054 1.0356,0.097 0.9061,0.151 1.7691,0.367 2.5889,0.647 0.8199,0.302 1.6721,0.54 2.5566,0.712 0.1942,0.043 0.3776,0.022 0.5502,-0.064 0.1726,-0.065 0.3344,-0.076 0.48539,-0.033 0.0863,0.022 0.14023,0.087 0.1618,0.194 0.0431,0.108 0.11866,0.173 0.22654,0.195 0.23732,0.064 0.43149,0.075 0.58251,0.032 0.15102,-0.022 0.3344,0.021 0.55015,0.129 0.1726,0.108 0.4207,0.238 0.74432,0.389 0.34519,0.172 0.70117,0.237 1.06794,0.194 0.12945,0.194 0.28047,0.377 0.45306,0.55 0.1726,0.173 0.32362,0.345 0.45307,0.518 0.15102,0.194 0.28047,0.399 0.38834,0.615 0.10787,0.237 0.16181,0.517 0.16181,0.841 -0.21575,0.173 -0.45307,0.281 -0.71196,0.324 -0.2589,0.064 -0.51779,0.118 -0.77668,0.162 -0.2589,0.064 -0.507,0.151 -0.74432,0.258 -0.21575,0.108 -0.38835,0.292 -0.51779,0.551 -0.1726,0 -0.38834,0 -0.64724,0 -0.25889,0 -0.51779,0.01 -0.77668,0.032 -0.23732,0.021 -0.46385,0.065 -0.6796,0.129 -0.19416,0.087 -0.32366,0.216 -0.38836,0.389 -1.0356,-0.389 -2.0603,-0.755 -3.0743,-1.101 -1.014,-0.323 -2.0388,-0.593 -3.0744,-0.809 -1.014,-0.215 -2.0388,-0.356 -3.0744,-0.42 -1.0356,-0.043 -2.0819,0.032 -3.1391,0.226 z m -3.5274,8.243 c 0.0431,-0.107 0.0863,-0.226 0.1294,-0.356 l 0.712,-0.388 -0.3883,-0.518 c 0.0863,-0.151 0.1726,-0.269 0.2588,-0.356 0.0648,-0.086 0.1511,-0.183 0.2589,-0.291 0.1726,-0.237 0.3452,-0.442 0.5178,-0.615 0.1942,-0.172 0.3776,-0.27 0.5502,-0.291 l 0.3236,-0.032 0.0647,-0.324 c 0.3021,-0.108 0.5178,-0.194 0.6473,-0.259 0.151,-0.065 0.2696,-0.173 0.3559,-0.324 1.0788,-0.129 1.9741,-0.086 2.6861,0.13 0.7335,0.216 1.5102,0.539 2.33,0.971 0.0863,0.259 0.205,0.485 0.356,0.679 0.151,0.216 0.302,0.41 0.4531,0.583 0.151,0.172 0.2804,0.345 0.3883,0.518 0.1294,0.172 0.205,0.334 0.2265,0.485 l 0.1618,0.291 c 0.4315,0.367 0.8091,0.809 1.1327,1.327 0.3452,0.518 0.6904,1.057 1.0356,1.618 0.2589,0.453 0.5286,0.906 0.809,1.359 0.3021,0.475 0.6257,0.896 0.9709,1.263 -0.0216,0.172 0.0108,0.323 0.0971,0.453 0.1078,0.086 0.2481,0.129 0.4207,0.129 0.0431,0.043 0.0755,0.086 0.0971,0.129 0.0431,0.065 0.0862,0.119 0.1294,0.162 0.1079,0.151 0.2373,0.356 0.3883,0.615 0.1511,0.259 0.3452,0.432 0.5826,0.518 l 0.67955,0.712 -0.0324,-0.971 c -0.0216,-0.496 -0.0539,-1.025 -0.0971,-1.586 -0.0431,-0.539 -0.0863,-1.003 -0.1294,-1.391 -0.0432,-0.324 -0.0756,-0.658 -0.0971,-1.003 0,-0.346 -0.0108,-0.723 -0.0324,-1.133 0.4315,-0.669 1.06794,-1.154 1.90935,-1.456 0.86298,-0.281 1.70439,-0.292 2.52422,-0.033 0.0216,0.151 0.0539,0.281 0.0971,0.389 0.0647,0.107 0.11866,0.215 0.16181,0.323 0.0216,0.194 0.0216,0.324 0,0.389 -0.0216,0.064 -0.0324,0.151 -0.0324,0.258 0.10787,0.605 0.1726,1.101 0.19417,1.489 0.0431,0.41 0.0647,0.788 0.0647,1.133 0,0.367 -0.0216,0.723 -0.0647,1.068 -0.0216,0.345 -0.0863,0.679 -0.19417,1.003 0,0.755 0.0324,1.521 0.0971,2.298 0.0647,0.776 0.0108,1.575 -0.16181,2.394 0.19417,0.583 0.2481,1.155 0.16181,1.716 -0.0863,0.582 -0.3452,1.089 -0.77669,1.521 -0.36676,0.021 -0.64723,0.107 -0.8414,0.258 -0.1726,0.173 -0.30205,0.389 -0.38834,0.648 -0.62566,0.172 -1.17581,0.183 -1.65045,0.032 -0.47464,-0.129 -0.89531,-0.356 -1.26211,-0.68 -0.3668,-0.323 -0.7012,-0.712 -1.0032,-1.165 -0.2805,-0.431 -0.5502,-0.863 -0.8091,-1.294 -0.1941,-0.129 -0.3559,-0.291 -0.4854,-0.485 -0.1079,-0.173 -0.2481,-0.335 -0.4207,-0.486 -0.9061,-0.712 -1.7044,-1.532 -2.3948,-2.459 -0.6688,-0.907 -1.316,-1.845 -1.9417,-2.816 -0.453,-0.69 -0.9169,-1.381 -1.3915,-2.071 -0.4531,-0.669 -0.9493,-1.316 -1.4887,-1.942 l -0.2912,-0.323 -0.3236,0.291 c -0.2589,0.259 -0.3884,0.561 -0.3884,0.906 0,0.194 0.0216,0.378 0.0647,0.55 0.0648,0.194 0.1295,0.378 0.1942,0.55 0.0432,0.173 0.0863,0.324 0.1295,0.453 0.0647,0.13 0.097,0.249 0.097,0.356 v 0.421 c 0.1079,0.173 0.1942,0.345 0.2589,0.518 0.0648,0.172 0.1187,0.345 0.1618,0.518 0.0432,0.172 0.0863,0.334 0.1295,0.485 0.0431,0.151 0.1187,0.313 0.2265,0.486 0,0.474 0.0648,0.916 0.1942,1.326 0.1294,0.432 0.2805,0.863 0.4531,1.295 0.1078,0.259 0.2049,0.507 0.2912,0.744 0.0863,0.259 0.151,0.518 0.1942,0.777 -0.1079,0.086 -0.205,0.183 -0.2913,0.291 -0.0647,0.13 -0.1294,0.248 -0.1941,0.356 -0.1726,0.281 -0.3344,0.432 -0.4855,0.453 l -0.9061,0.097 0.6149,0.615 c -0.2158,0.259 -0.4639,0.399 -0.7443,0.421 -0.2589,0.021 -0.6041,-0.011 -1.0356,-0.097 -0.6904,-0.691 -1.2298,-1.554 -1.6181,-2.589 -0.3883,-1.036 -0.7659,-2.136 -1.1327,-3.301 -0.0647,-0.237 -0.1294,-0.486 -0.1941,-0.744 -0.0648,-0.238 -0.1403,-0.475 -0.2266,-0.712 l 0.5502,0.032 -0.4531,-0.712 c -0.0647,-0.086 -0.1294,-0.162 -0.1942,-0.227 -0.0647,-0.043 -0.1294,-0.086 -0.1941,-0.129 -0.151,-0.561 -0.2589,-1.025 -0.3236,-1.392 -0.0648,-0.366 -0.1295,-0.712 -0.1942,-1.035 -0.0863,-0.367 -0.151,-0.712 -0.1942,-1.036 -0.0647,-0.323 -0.0971,-0.669 -0.0971,-1.035 0,-0.108 0,-0.227 0,-0.356 0,-0.13 0.0108,-0.259 0.0324,-0.389 z m 19.48178,33.712 c -0.15102,0.022 -0.26968,0.022 -0.35598,0 -0.0647,0 -0.12945,-0.01 -0.19417,-0.032 -0.0647,0 -0.14024,0 -0.22653,0 -0.0647,0 -0.1726,0.022 -0.32362,0.065 -0.73354,-0.453 -1.24054,-0.982 -1.52101,-1.586 -0.25889,-0.583 -0.45306,-1.219 -0.58251,-1.909 -0.10786,-0.691 -0.22656,-1.403 -0.35596,-2.136 -0.1295,-0.712 -0.4099,-1.424 -0.8414,-2.136 0.1078,-0.281 0.1078,-0.54 0,-0.777 -0.1079,-0.216 -0.1403,-0.539 -0.0971,-0.971 -0.1295,-0.129 -0.2265,-0.291 -0.2913,-0.485 -0.0431,-0.194 -0.097,-0.388 -0.1618,-0.583 -0.1941,0.087 -0.3991,0.119 -0.6148,0.097 -0.1942,0 -0.356,0.033 -0.4855,0.098 -0.0647,0.755 -0.0539,1.585 0.0324,2.491 0.0863,0.928 0.1402,1.834 0.1618,2.719 -0.1079,0.021 -0.1834,0.011 -0.2265,-0.033 -0.0216,-0.043 -0.0755,-0.054 -0.1618,-0.032 -0.1079,0.151 -0.2482,0.302 -0.4207,0.453 -0.1511,0.151 -0.3021,0.302 -0.4531,0.453 -0.151,0.151 -0.2805,0.302 -0.3884,0.453 -0.0863,0.173 -0.1186,0.367 -0.097,0.583 -0.1726,0.086 -0.3668,0.14 -0.5826,0.162 -0.1941,0.043 -0.3991,0.021 -0.6148,-0.065 -0.2373,-0.345 -0.4855,-0.691 -0.7443,-1.036 -0.2374,-0.345 -0.4531,-0.712 -0.6473,-1.1 -0.1942,-0.367 -0.356,-0.766 -0.4854,-1.197 -0.1079,-0.41 -0.151,-0.874 -0.1295,-1.392 0,-0.108 0,-0.194 0,-0.259 0,-0.043 0.0324,-0.108 0.0971,-0.194 -0.1078,-0.173 -0.1402,-0.421 -0.0971,-0.744 0.0432,-0.302 0.0108,-0.54 -0.097,-0.712 0.1078,-0.238 0.151,-0.529 0.1294,-0.874 0,-0.324 0.0432,-0.615 0.1295,-0.874 -0.4531,-0.345 -0.9385,-0.658 -1.4563,-0.938 -0.5178,-0.281 -1.068,-0.529 -1.6505,-0.745 -0.1078,0.734 -0.151,1.338 -0.1294,1.813 0.0216,0.496 0.0539,0.96 0.0971,1.391 0.0647,0.432 0.1186,0.874 0.1618,1.327 0.0647,0.453 0.0863,1.025 0.0647,1.715 0.2373,0.432 0.3883,0.939 0.4531,1.521 0.0863,0.604 0.2157,1.154 0.3883,1.651 -0.0647,0.172 -0.1834,0.323 -0.356,0.453 -0.151,0.129 -0.302,0.248 -0.453,0.356 -0.1295,0.129 -0.2481,0.259 -0.356,0.388 -0.1079,0.129 -0.151,0.291 -0.1295,0.485 -0.0863,0.087 -0.1941,0.141 -0.3236,0.162 -0.1079,0.043 -0.2157,0.076 -0.3236,0.097 -0.1079,0.022 -0.205,0.054 -0.2913,0.097 -0.0647,0.065 -0.0863,0.162 -0.0647,0.292 -0.7119,-0.324 -1.2621,-0.702 -1.6504,-1.133 -0.3668,-0.41 -0.6473,-0.885 -0.8414,-1.424 -0.1942,-0.539 -0.3452,-1.143 -0.4531,-1.812 -0.1079,-0.647 -0.2373,-1.37 -0.3883,-2.168 -0.0432,-0.195 -0.0324,-0.356 0.0323,-0.486 0.0432,-0.129 0.0647,-0.28 0.0647,-0.453 -0.1078,-0.496 -0.2049,-1.089 -0.2912,-1.78 -0.0863,-0.69 -0.1187,-1.391 -0.0971,-2.103 0.0216,-0.712 0.1187,-1.392 0.2913,-2.039 0.151,-0.647 0.4314,-1.176 0.8414,-1.586 0.151,-0.172 0.3236,-0.291 0.5177,-0.356 0.2158,-0.043 0.3776,-0.183 0.4855,-0.421 0.2804,-0.021 0.5933,-0.064 0.9385,-0.129 0.3452,-0.065 0.7011,-0.129 1.0679,-0.194 0.3883,-0.065 0.7659,-0.119 1.1327,-0.162 0.3667,-0.022 0.7011,0 1.0032,0.065 0.3236,0.064 0.6149,0.194 0.8737,0.388 0.2589,0.216 0.5394,0.291 0.8415,0.227 0.0215,0.108 0.0755,0.172 0.1618,0.194 0.1078,0.021 0.151,0.108 0.1294,0.259 0.3884,0.129 0.7551,0.269 1.1003,0.42 0.3452,0.151 0.6796,0.302 1.0032,0.453 0.3236,0.173 0.6473,0.335 0.9709,0.486 0.3452,0.173 0.7227,0.334 1.1326,0.485 0.2805,-0.302 0.5826,-0.528 0.9062,-0.679 0.3452,-0.13 0.6796,-0.227 1.0032,-0.292 0.3452,-0.064 0.6904,-0.118 1.03556,-0.161 0.36677,-0.043 0.73354,-0.119 1.1003,-0.227 0.32362,0.216 0.58251,0.475 0.77668,0.777 0.21575,0.323 0.38835,0.669 0.51779,1.035 0.12945,0.367 0.23732,0.766 0.32362,1.198 0.0863,0.431 0.18338,0.884 0.29126,1.359 0.28047,0.863 0.49621,1.629 0.64723,2.298 0.15102,0.69 0.26968,1.359 0.35598,2.006 0.10787,0.669 0.20496,1.359 0.29126,2.071 0.0863,0.712 0.21574,1.521 0.38834,2.427 -0.19417,0.195 -0.29126,0.378 -0.29126,0.551 0.19417,0.086 0.24811,0.183 0.16181,0.291 -0.0647,0.129 0,0.183 0.19417,0.162 -0.36676,0.215 -0.67959,0.485 -0.93849,0.809 -0.23732,0.345 -0.44228,0.722 -0.61487,1.132 z m -14.85408,5.104 c -0.863,-0.237 -1.521,-0.453 -1.974,-0.647 -0.4315,-0.172 -0.8846,-0.442 -1.3592,-0.809 0.0431,-0.28 0.0107,-0.475 -0.0971,-0.582 -0.1079,-0.108 -0.205,-0.227 -0.2913,-0.356 -0.0431,-0.195 -0.0431,-0.335 0,-0.421 0.0432,-0.086 0.0971,-0.162 0.1618,-0.227 0.0432,-0.064 0.0971,-0.151 0.1618,-0.258 0.0432,-0.087 0.0648,-0.227 0.0648,-0.421 0.1726,-0.043 0.3344,-0.097 0.4854,-0.162 0.151,-0.043 0.2049,-0.183 0.1618,-0.421 0.1726,0.043 0.3128,0.054 0.4207,0.033 0.1294,-0.022 0.2373,-0.054 0.3236,-0.097 0.1079,-0.022 0.205,-0.044 0.2913,-0.065 0.1078,-0.022 0.2373,-0.011 0.3883,0.032 0,-0.108 0.0755,-0.194 0.2265,-0.259 0.1511,-0.064 0.3021,-0.14 0.4531,-0.226 0.3884,0.064 0.7551,0.129 1.1003,0.194 0.3452,0.065 0.6688,0.14 0.9709,0.226 0.302,0.108 0.6041,0.195 0.9061,0.259 0.302,0.065 0.6149,0.033 0.9385,-0.097 -0.0647,0.087 -0.0539,0.151 0.0323,0.194 0.1079,0.044 0.2374,0.076 0.3884,0.098 0.1726,0.021 0.3344,0.032 0.4854,0.032 0.1726,0 0.3128,-0.011 0.4207,-0.032 0.561,0.215 1.1327,0.388 1.7152,0.517 0.6041,0.151 1.1974,0.281 1.7799,0.389 0.5825,0.129 1.1542,0.259 1.7152,0.388 0.5609,0.129 1.0787,0.302 1.5533,0.518 0.0432,0.237 0.0108,0.496 -0.0971,0.776 -0.0863,0.303 -0.2049,0.486 -0.3559,0.551 0.4315,0.561 0.94924,1.057 1.55333,1.488 0.62566,0.432 1.22975,0.874 1.81226,1.327 0.58251,0.453 1.1003,0.949 1.55336,1.489 0.45307,0.561 0.72275,1.262 0.80905,2.103 -0.32362,0.432 -0.65802,0.906 -1.00322,1.424 -0.32361,0.54 -0.7551,0.982 -1.29447,1.327 -0.0863,0.173 -0.18338,0.313 -0.29125,0.421 -0.0863,0.129 -0.18339,0.28 -0.29126,0.453 h -0.38834 c -0.23732,0.259 -0.51779,0.464 -0.84141,0.615 -0.30204,0.172 -0.63644,0.323 -1.00325,0.453 -0.3452,0.129 -0.7011,0.259 -1.0679,0.388 -0.3452,0.13 -0.6796,0.281 -1.0032,0.453 -0.1079,-0.043 -0.205,-0.065 -0.2913,-0.065 -0.0647,0 -0.1402,0.011 -0.2265,0.033 -0.0863,0.043 -0.1726,0.075 -0.2589,0.097 -0.0863,0.021 -0.205,0.021 -0.356,0 -0.9493,-0.065 -1.7152,-0.378 -2.2977,-0.939 -0.5825,-0.539 -1.0679,-1.197 -1.4562,-1.974 -0.3668,-0.776 -0.6796,-1.607 -0.9385,-2.492 -0.2589,-0.884 -0.5394,-1.682 -0.8414,-2.394 -0.0863,0 -0.1295,0.032 -0.1295,0.097 0,0.086 -0.0539,0.118 -0.1618,0.097 -0.3236,0.518 -0.5825,0.928 -0.7767,1.23 -0.1941,0.302 -0.356,0.582 -0.4854,0.841 -0.1295,0.28 -0.2481,0.572 -0.356,0.874 -0.0863,0.323 -0.1942,0.766 -0.3236,1.327 -0.1294,0.561 -0.2373,0.992 -0.3236,1.294 -0.0647,0.324 -0.1295,0.615 -0.1942,0.874 -0.0431,0.259 -0.0863,0.518 -0.1294,0.777 -0.0216,0.28 -0.054,0.668 -0.0971,1.165 -0.1942,0.194 -0.4315,0.356 -0.712,0.485 -0.2589,0.151 -0.5286,0.248 -0.809,0.291 -0.2589,0.043 -0.5178,0.054 -0.7767,0.033 -0.2373,-0.022 -0.4315,-0.098 -0.5825,-0.227 -0.0647,0.022 -0.0971,0.065 -0.0971,0.129 0.0216,0.087 0.0216,0.173 0,0.259 -0.0863,-0.129 -0.1942,-0.237 -0.3236,-0.323 -0.1295,-0.087 -0.2589,-0.173 -0.3884,-0.259 -0.1294,-0.086 -0.2373,-0.184 -0.3236,-0.291 -0.1079,-0.108 -0.1726,-0.259 -0.1942,-0.453 -0.2588,-0.669 -0.2696,-1.511 -0.0323,-2.525 0.2157,-1.014 0.6256,-2.297 1.2297,-3.851 0.3021,-0.776 0.561,-1.413 0.7767,-1.909 0.2373,-0.475 0.4639,-0.895 0.6796,-1.262 0.2373,-0.345 0.4854,-0.669 0.7443,-0.971 0.2589,-0.28 0.5718,-0.626 0.9385,-1.036 z m 11.1001,4.628 c -0.3452,-0.237 -0.658,-0.507 -0.9385,-0.809 -0.2804,-0.28 -0.5717,-0.561 -0.8737,-0.841 -0.2805,-0.259 -0.6041,-0.497 -0.9709,-0.712 -0.3452,-0.216 -0.7551,-0.367 -1.2297,-0.453 0.0863,0.755 0.2912,1.542 0.6148,2.362 0.3452,0.82 0.6688,1.597 0.9709,2.33 0.6688,-0.086 1.2082,-0.324 1.6181,-0.712 0.4099,-0.367 0.6796,-0.755 0.809,-1.165 z"
     fill="#cccccc"
     fill-opacity="0.9"
     id="path2" />
</svg>
