<svg width="152" height="13" viewBox="0 0 152 13" fill="none" xmlns="http://www.w3.org/2000/svg">
<path d="M5.056 12.224C4.14933 12.224 3.26933 12.112 2.416 11.888C1.56267 11.664 0.869333 11.3653 0.336 10.992L1.376 8.656C1.87733 8.98667 2.45867 9.25333 3.12 9.456C3.78133 9.65867 4.432 9.76 5.072 9.76C6.288 9.76 6.896 9.456 6.896 8.848C6.896 8.528 6.72 8.29333 6.368 8.144C6.02667 7.984 5.472 7.81867 4.704 7.648C3.86133 7.46667 3.15733 7.27467 2.592 7.072C2.02667 6.85867 1.54133 6.52267 1.136 6.064C0.730667 5.60533 0.528 4.98667 0.528 4.208C0.528 3.52533 0.714667 2.912 1.088 2.368C1.46133 1.81333 2.016 1.376 2.752 1.056C3.49867 0.735999 4.41067 0.575999 5.488 0.575999C6.224 0.575999 6.94933 0.661333 7.664 0.832C8.37867 0.992 9.008 1.232 9.552 1.552L8.576 3.904C7.50933 3.328 6.47467 3.04 5.472 3.04C4.84267 3.04 4.384 3.136 4.096 3.328C3.808 3.50933 3.664 3.74933 3.664 4.048C3.664 4.34667 3.83467 4.57067 4.176 4.72C4.51733 4.86933 5.06667 5.024 5.824 5.184C6.67733 5.36533 7.38133 5.56267 7.936 5.776C8.50133 5.97867 8.98667 6.30933 9.392 6.768C9.808 7.216 10.016 7.82933 10.016 8.608C10.016 9.28 9.82933 9.888 9.456 10.432C9.08267 10.976 8.52267 11.4133 7.776 11.744C7.02933 12.064 6.12267 12.224 5.056 12.224ZM13.8671 3.312H10.4271V0.799999H20.4591V3.312H17.0351V12H13.8671V3.312ZM28.7409 9.824H24.0049L23.1249 12H19.8929L24.8369 0.799999H27.9569L32.9169 12H29.6209L28.7409 9.824ZM27.8129 7.488L26.3729 3.904L24.9329 7.488H27.8129ZM38.871 9.024H37.143V12H33.975V0.799999H39.095C40.1083 0.799999 40.9883 0.970666 41.735 1.312C42.4817 1.64267 43.0577 2.12267 43.463 2.752C43.8683 3.37067 44.071 4.10133 44.071 4.944C44.071 5.75467 43.879 6.464 43.495 7.072C43.1217 7.66933 42.583 8.13867 41.879 8.48L44.295 12H40.903L38.871 9.024ZM40.871 4.944C40.871 4.42133 40.7057 4.016 40.375 3.728C40.0443 3.44 39.5537 3.296 38.903 3.296H37.143V6.576H38.903C39.5537 6.576 40.0443 6.43733 40.375 6.16C40.7057 5.872 40.871 5.46667 40.871 4.944ZM53.4827 6.16H56.2828V10.8C55.6428 11.2587 54.9068 11.6107 54.0747 11.856C53.2427 12.1013 52.4107 12.224 51.5787 12.224C50.4054 12.224 49.3494 11.9787 48.4107 11.488C47.4721 10.9867 46.7361 10.2933 46.2027 9.408C45.6694 8.52267 45.4027 7.52 45.4027 6.4C45.4027 5.28 45.6694 4.27733 46.2027 3.392C46.7361 2.50667 47.4774 1.81867 48.4267 1.328C49.3761 0.826666 50.4481 0.575999 51.6427 0.575999C52.6881 0.575999 53.6267 0.751999 54.4587 1.104C55.2907 1.456 55.9841 1.96267 56.5387 2.624L54.5227 4.448C53.7654 3.616 52.8588 3.2 51.8027 3.2C50.8427 3.2 50.0694 3.49333 49.4827 4.08C48.8961 4.656 48.6027 5.42933 48.6027 6.4C48.6027 7.01867 48.7361 7.57333 49.0027 8.064C49.2694 8.544 49.6427 8.92267 50.1227 9.2C50.6027 9.46667 51.1521 9.6 51.7707 9.6C52.3787 9.6 52.9494 9.47733 53.4827 9.232V6.16ZM65.9552 9.824H61.2192L60.3392 12H57.1072L62.0512 0.799999H65.1712L70.1312 12H66.8352L65.9552 9.824ZM65.0272 7.488L63.5872 3.904L62.1472 7.488H65.0272ZM73.0109 3.312H69.5709V0.799999H79.6029V3.312H76.1789V12H73.0109V3.312ZM89.9351 9.552V12H80.9431V0.799999H89.7271V3.248H84.0791V5.136H89.0551V7.504H84.0791V9.552H89.9351ZM105.021 12L102.461 8.4C102.173 8.432 101.875 8.448 101.565 8.448H98.5574V12H97.3734V0.799999H101.565C102.995 0.799999 104.115 1.14133 104.925 1.824C105.736 2.50667 106.141 3.44533 106.141 4.64C106.141 5.51467 105.917 6.256 105.469 6.864C105.032 7.46133 104.403 7.89333 103.581 8.16L106.317 12H105.021ZM101.533 7.44C102.643 7.44 103.491 7.19467 104.077 6.704C104.664 6.21333 104.957 5.52533 104.957 4.64C104.957 3.73333 104.664 3.04 104.077 2.56C103.491 2.06933 102.643 1.824 101.533 1.824H98.5574V7.44H101.533ZM116.184 8.144H109.144C109.208 9.01867 109.544 9.728 110.152 10.272C110.76 10.8053 111.528 11.072 112.456 11.072C112.979 11.072 113.459 10.9813 113.896 10.8C114.333 10.608 114.712 10.3307 115.032 9.968L115.672 10.704C115.299 11.152 114.829 11.4933 114.264 11.728C113.709 11.9627 113.096 12.08 112.424 12.08C111.56 12.08 110.792 11.8987 110.12 11.536C109.459 11.1627 108.941 10.6507 108.568 10C108.195 9.34933 108.008 8.61333 108.008 7.792C108.008 6.97067 108.184 6.23467 108.536 5.584C108.899 4.93333 109.389 4.42667 110.008 4.064C110.637 3.70133 111.341 3.52 112.12 3.52C112.899 3.52 113.597 3.70133 114.216 4.064C114.835 4.42667 115.32 4.93333 115.672 5.584C116.024 6.224 116.2 6.96 116.2 7.792L116.184 8.144ZM112.12 4.496C111.309 4.496 110.627 4.75733 110.072 5.28C109.528 5.792 109.219 6.464 109.144 7.296H115.112C115.037 6.464 114.723 5.792 114.168 5.28C113.624 4.75733 112.941 4.496 112.12 4.496ZM125.588 3.584L121.844 12H120.676L116.948 3.584H118.132L121.284 10.752L124.468 3.584H125.588ZM134.441 8.144H127.401C127.465 9.01867 127.801 9.728 128.409 10.272C129.017 10.8053 129.785 11.072 130.713 11.072C131.236 11.072 131.716 10.9813 132.153 10.8C132.591 10.608 132.969 10.3307 133.289 9.968L133.929 10.704C133.556 11.152 133.087 11.4933 132.521 11.728C131.967 11.9627 131.353 12.08 130.681 12.08C129.817 12.08 129.049 11.8987 128.377 11.536C127.716 11.1627 127.199 10.6507 126.825 10C126.452 9.34933 126.265 8.61333 126.265 7.792C126.265 6.97067 126.441 6.23467 126.793 5.584C127.156 4.93333 127.647 4.42667 128.265 4.064C128.895 3.70133 129.599 3.52 130.377 3.52C131.156 3.52 131.855 3.70133 132.473 4.064C133.092 4.42667 133.577 4.93333 133.929 5.584C134.281 6.224 134.457 6.96 134.457 7.792L134.441 8.144ZM130.377 4.496C129.567 4.496 128.884 4.75733 128.329 5.28C127.785 5.792 127.476 6.464 127.401 7.296H133.369C133.295 6.464 132.98 5.792 132.425 5.28C131.881 4.75733 131.199 4.496 130.377 4.496ZM138.018 5.232C138.284 4.66667 138.679 4.24 139.202 3.952C139.735 3.664 140.391 3.52 141.17 3.52V4.624L140.898 4.608C140.012 4.608 139.319 4.88 138.818 5.424C138.316 5.968 138.066 6.73067 138.066 7.712V12H136.93V3.584H138.018V5.232ZM147.723 3.52C148.512 3.52 149.227 3.70133 149.867 4.064C150.507 4.416 151.008 4.91733 151.371 5.568C151.733 6.21867 151.915 6.96 151.915 7.792C151.915 8.624 151.733 9.36533 151.371 10.016C151.008 10.6667 150.507 11.1733 149.867 11.536C149.227 11.8987 148.512 12.08 147.723 12.08C147.019 12.08 146.384 11.9307 145.819 11.632C145.264 11.3333 144.816 10.9013 144.475 10.336V12H143.387V0.127999H144.523V5.184C144.875 4.64 145.323 4.22933 145.867 3.952C146.421 3.664 147.04 3.52 147.723 3.52ZM147.643 11.072C148.229 11.072 148.763 10.9387 149.243 10.672C149.723 10.3947 150.096 10.0053 150.363 9.504C150.64 9.00267 150.779 8.432 150.779 7.792C150.779 7.152 150.64 6.58133 150.363 6.08C150.096 5.57867 149.723 5.19467 149.243 4.928C148.763 4.65067 148.229 4.512 147.643 4.512C147.045 4.512 146.507 4.65067 146.027 4.928C145.557 5.19467 145.184 5.57867 144.907 6.08C144.64 6.58133 144.507 7.152 144.507 7.792C144.507 8.432 144.64 9.00267 144.907 9.504C145.184 10.0053 145.557 10.3947 146.027 10.672C146.507 10.9387 147.045 11.072 147.643 11.072Z" fill="black" fill-opacity="0.9"/>
</svg>

