<?xml version="1.0" encoding="UTF-8" standalone="no"?>
<svg
   width="182"
   height="13"
   viewBox="0 0 182 13"
   fill="none"
   version="1.1"
   id="svg4"
   sodipodi:docname="logo.svg"
   inkscape:version="1.1 (c68e22c387, 2021-05-23)"
   xmlns:inkscape="http://www.inkscape.org/namespaces/inkscape"
   xmlns:sodipodi="http://sodipodi.sourceforge.net/DTD/sodipodi-0.dtd"
   xmlns="http://www.w3.org/2000/svg"
   xmlns:svg="http://www.w3.org/2000/svg">
  <defs
     id="defs8" />
  <sodipodi:namedview
     id="namedview6"
     pagecolor="#ffffff"
     bordercolor="#666666"
     borderopacity="1.0"
     inkscape:pageshadow="2"
     inkscape:pageopacity="0.0"
     inkscape:pagecheckerboard="0"
     showgrid="false"
     inkscape:zoom="3.8651316"
     inkscape:cx="41.913191"
     inkscape:cy="13.971064"
     inkscape:window-width="1920"
     inkscape:window-height="1007"
     inkscape:window-x="0"
     inkscape:window-y="0"
     inkscape:window-maximized="1"
     inkscape:current-layer="svg4" />
  <path
     d="m 34.291745,12.224 c -0.90667,0 -1.78667,-0.112 -2.64,-0.336 -0.85333,-0.224 -1.546667,-0.5227 -2.08,-0.896 l 1.04,-2.336 c 0.50133,0.33067 1.08267,0.59733 1.744,0.8 0.66133,0.20267 1.312,0.304 1.952,0.304 1.216,0 1.824,-0.304 1.824,-0.912 0,-0.32 -0.176,-0.55467 -0.528,-0.704 -0.34133,-0.16 -0.896,-0.32533 -1.664,-0.496 -0.84267,-0.18133 -1.54667,-0.37333 -2.112,-0.576 -0.56533,-0.21333 -1.05067,-0.54933 -1.456,-1.008 -0.405333,-0.45867 -0.608,-1.07733 -0.608,-1.856 0,-0.68267 0.186667,-1.296 0.56,-1.84 0.37333,-0.55467 0.928,-0.992 1.664,-1.312 0.74667,-0.32000102 1.65867,-0.48000102 2.736,-0.48000102 0.736,0 1.46133,0.085334 2.176,0.256001 0.71467,0.16 1.344,0.40000002 1.888,0.72000002 l -0.976,2.352 c -1.06667,-0.576 -2.10133,-0.864 -3.104,-0.864 -0.62933,0 -1.088,0.096 -1.376,0.288 -0.288,0.18133 -0.432,0.42133 -0.432,0.72 0,0.29867 0.17067,0.52267 0.512,0.672 0.34133,0.14933 0.89067,0.304 1.648,0.464 0.85333,0.18133 1.55733,0.37867 2.112,0.592 0.56533,0.20267 1.05067,0.53333 1.456,0.992 0.416,0.448 0.624,1.06133 0.624,1.84 0,0.672 -0.18667,1.28 -0.56,1.824 -0.37333,0.544 -0.93333,0.9813 -1.68,1.312 -0.74667,0.32 -1.65333,0.48 -2.72,0.48 z m 8.8111,-8.912 h -3.44 V 0.79999898 h 10.032 V 3.312 h -3.424 V 12 h -3.168 z m 14.8738,6.512 h -4.736 l -0.88,2.176 h -3.232 l 4.944,-11.20000102 h 3.12 L 62.152645,12 h -3.296 z m -0.928,-2.336 -1.44,-3.584 -1.44,3.584 z m 11.0581,1.536 h -1.728 V 12 h -3.168 V 0.79999898 h 5.12 c 1.0133,0 1.8933,0.170667 2.64,0.51200102 0.7467,0.33067 1.3227,0.81067 1.728,1.44 0.4053,0.61867 0.608,1.34933 0.608,2.192 0,0.81067 -0.192,1.52 -0.576,2.128 -0.3733,0.59733 -0.912,1.06667 -1.616,1.408 l 2.416,3.52 h -3.392 z m 2,-4.08 c 0,-0.52267 -0.1653,-0.928 -0.496,-1.216 -0.3307,-0.288 -0.8213,-0.432 -1.472,-0.432 h -1.76 v 3.28 h 1.76 c 0.6507,0 1.1413,-0.13867 1.472,-0.416 0.3307,-0.288 0.496,-0.69333 0.496,-1.216 z m 12.6117,1.216 h 2.8001 v 4.64 c -0.64,0.4587 -1.376,0.8107 -2.2081,1.056 -0.832,0.2453 -1.664,0.368 -2.496,0.368 -1.1733,0 -2.2293,-0.2453 -3.168,-0.736 -0.9386,-0.5013 -1.6746,-1.1947 -2.208,-2.08 -0.5333,-0.88533 -0.8,-1.888 -0.8,-3.008 0,-1.12 0.2667,-2.12267 0.8,-3.008 0.5334,-0.88533 1.2747,-1.57333 2.224,-2.064 0.9494,-0.50133402 2.0214,-0.75200102 3.216,-0.75200102 1.0454,0 1.984,0.176 2.816,0.52800102 0.832,0.352 1.5254,0.85867 2.08,1.52 l -2.016,1.824 c -0.7573,-0.832 -1.6639,-1.248 -2.72,-1.248 -0.96,0 -1.7333,0.29333 -2.32,0.88 -0.5866,0.576 -0.88,1.34933 -0.88,2.32 0,0.61867 0.1334,1.17333 0.4,1.664 0.2667,0.48 0.64,0.85867 1.12,1.136 0.48,0.26667 1.0294,0.4 1.648,0.4 0.608,0 1.1787,-0.12267 1.712,-0.368 z m 12.4725,3.664 h -4.736 l -0.88,2.176 h -3.232 l 4.944,-11.20000102 h 3.12 L 99.366945,12 h -3.296 z m -0.928,-2.336 -1.44,-3.584 -1.44,3.584 z M 102.24664,3.312 H 98.806645 V 0.79999898 H 108.83864 V 3.312 h -3.424 V 12 h -3.168 z m 16.9242,6.24 V 12 h -8.992 V 0.79999898 h 8.784 V 3.248 h -5.648 v 1.888 h 4.976 v 2.368 h -4.976 v 2.048 z m 15.0859,2.448 -2.56,-3.6 c -0.288,0.032 -0.586,0.048 -0.896,0.048 h -3.0076 V 12 h -1.184 V 0.79999898 h 4.1916 c 1.43,0 2.55,0.34133102 3.36,1.02400102 0.811,0.68267 1.216,1.62133 1.216,2.816 0,0.87467 -0.224,1.616 -0.672,2.224 -0.437,0.59733 -1.066,1.02933 -1.888,1.296 l 2.736,3.84 z m -3.488,-4.56 c 1.11,0 1.958,-0.24533 2.544,-0.736 0.587,-0.49067 0.88,-1.17867 0.88,-2.064 0,-0.90667 -0.293,-1.6 -0.88,-2.08 -0.586,-0.49067 -1.434,-0.736 -2.544,-0.736 h -2.9756 V 7.44 Z m 14.651,0.704 h -7.04 c 0.064,0.87467 0.4,1.584 1.008,2.128 0.608,0.5333 1.376,0.8 2.304,0.8 0.523,0 1.003,-0.0907 1.44,-0.272 0.437,-0.192 0.816,-0.4693 1.136,-0.832 l 0.64,0.736 c -0.373,0.448 -0.843,0.7893 -1.408,1.024 -0.555,0.2347 -1.168,0.352 -1.84,0.352 -0.864,0 -1.632,-0.1813 -2.304,-0.544 -0.661,-0.3733 -1.179,-0.8853 -1.552,-1.536 -0.373,-0.65067 -0.56,-1.38667 -0.56,-2.208 0,-0.82133 0.176,-1.55733 0.528,-2.208 0.363,-0.65067 0.853,-1.15733 1.472,-1.52 0.629,-0.36267 1.333,-0.544 2.112,-0.544 0.779,0 1.477,0.18133 2.096,0.544 0.619,0.36267 1.104,0.86933 1.456,1.52 0.352,0.64 0.528,1.376 0.528,2.208 z m -4.064,-3.648 c -0.811,0 -1.493,0.26133 -2.048,0.784 -0.544,0.512 -0.853,1.184 -0.928,2.016 h 5.968 c -0.075,-0.832 -0.389,-1.504 -0.944,-2.016 -0.544,-0.52267 -1.227,-0.784 -2.048,-0.784 z m 13.468,-0.912 -3.744,8.416 h -1.168 l -3.728,-8.416 h 1.184 l 3.152,7.168 3.184,-7.168 z m 8.853,4.56 h -7.04 c 0.064,0.87467 0.4,1.584 1.008,2.128 0.608,0.5333 1.376,0.8 2.304,0.8 0.523,0 1.003,-0.0907 1.44,-0.272 0.438,-0.192 0.816,-0.4693 1.136,-0.832 l 0.64,0.736 c -0.373,0.448 -0.842,0.7893 -1.408,1.024 -0.554,0.2347 -1.168,0.352 -1.84,0.352 -0.864,0 -1.632,-0.1813 -2.304,-0.544 -0.661,-0.3733 -1.178,-0.8853 -1.552,-1.536 -0.373,-0.65067 -0.56,-1.38667 -0.56,-2.208 0,-0.82133 0.176,-1.55733 0.528,-2.208 0.363,-0.65067 0.854,-1.15733 1.472,-1.52 0.63,-0.36267 1.334,-0.544 2.112,-0.544 0.779,0 1.478,0.18133 2.096,0.544 0.619,0.36267 1.104,0.86933 1.456,1.52 0.352,0.64 0.528,1.376 0.528,2.208 z m -4.064,-3.648 c -0.81,0 -1.493,0.26133 -2.048,0.784 -0.544,0.512 -0.853,1.184 -0.928,2.016 h 5.968 c -0.074,-0.832 -0.389,-1.504 -0.944,-2.016 -0.544,-0.52267 -1.226,-0.784 -2.048,-0.784 z m 7.641,0.736 c 0.266,-0.56533 0.661,-0.992 1.184,-1.28 0.533,-0.288 1.189,-0.432 1.968,-0.432 v 1.104 l -0.272,-0.016 c -0.886,0 -1.579,0.272 -2.08,0.816 -0.502,0.544 -0.752,1.30667 -0.752,2.288 V 12 h -1.136 V 3.584 h 1.088 z m 9.705,-1.712 c 0.789,0 1.504,0.18133 2.144,0.544 0.64,0.352 1.141,0.85333 1.504,1.504 0.362,0.65067 0.544,1.392 0.544,2.224 0,0.832 -0.182,1.57333 -0.544,2.224 -0.363,0.6507 -0.864,1.1573 -1.504,1.52 -0.64,0.3627 -1.355,0.544 -2.144,0.544 -0.704,0 -1.339,-0.1493 -1.904,-0.448 -0.555,-0.2987 -1.003,-0.7307 -1.344,-1.296 V 12 h -1.088 V 0.12799898 h 1.136 V 5.184 c 0.352,-0.544 0.8,-0.95467 1.344,-1.232 0.554,-0.288 1.173,-0.432 1.856,-0.432 z m -0.08,7.552 c 0.586,0 1.12,-0.1333 1.6,-0.4 0.48,-0.2773 0.853,-0.6667 1.12,-1.168 0.277,-0.50133 0.416,-1.072 0.416,-1.712 0,-0.64 -0.139,-1.21067 -0.416,-1.712 -0.267,-0.50133 -0.64,-0.88533 -1.12,-1.152 -0.48,-0.27733 -1.014,-0.416 -1.6,-0.416 -0.598,0 -1.136,0.13867 -1.616,0.416 -0.47,0.26667 -0.843,0.65067 -1.12,1.152 -0.267,0.50133 -0.4,1.072 -0.4,1.712 0,0.64 0.133,1.21067 0.4,1.712 0.277,0.5013 0.65,0.8907 1.12,1.168 0.48,0.2667 1.018,0.4 1.616,0.4 z"
     fill="#000000"
     fill-opacity="0.9"
     id="path2" />
</svg>
