<svg width="117" height="22" viewBox="0 0 117 22" fill="none" xmlns="http://www.w3.org/2000/svg">
<path d="M15.1391 21L11.1348 15.0075L7.18584 21H0.944769L7.98669 11.2242L1.24854 1.66923H7.40677L11.2729 7.24754L15.0838 1.66923H20.9935L14.2554 11.0032L21.4354 21H15.1391ZM31.6067 12.6602H38.8419V14.3723H31.6067V12.6602ZM53.4658 3.43662V11.0308H63.4625V12.7982H53.4658V21H51.4222V1.66923H64.6776V3.43662H53.4658ZM73.2474 6.36385C75.1437 6.36385 76.5981 6.84252 77.6107 7.79985C78.6232 8.73877 79.1295 10.138 79.1295 11.9974V21H77.2517V18.7355C76.8098 19.4904 76.1563 20.0795 75.291 20.5029C74.4441 20.9264 73.4315 21.1381 72.2533 21.1381C70.6332 21.1381 69.3445 20.7515 68.3871 19.9782C67.4298 19.205 66.9511 18.1832 66.9511 16.9129C66.9511 15.6794 67.393 14.6853 68.2767 13.9305C69.1788 13.1756 70.6056 12.7982 72.557 12.7982H77.1688V11.9145C77.1688 10.6626 76.819 9.71452 76.1194 9.07016C75.4198 8.40739 74.3981 8.076 73.0541 8.076C72.1336 8.076 71.2499 8.23249 70.403 8.54546C69.5562 8.84003 68.829 9.25426 68.2214 9.78816L67.3377 8.32454C68.0742 7.69859 68.9578 7.21993 69.9888 6.88854C71.0198 6.53875 72.106 6.36385 73.2474 6.36385ZM72.557 19.5916C73.6617 19.5916 74.6098 19.3431 75.4014 18.846C76.1931 18.3305 76.7822 17.5941 77.1688 16.6368V14.2618H72.6123C70.1269 14.2618 68.8842 15.1271 68.8842 16.8577C68.8842 17.7046 69.2064 18.3765 69.8507 18.8736C70.4951 19.3523 71.3972 19.5916 72.557 19.5916ZM98.0404 0.509389V21H96.1626V18.128C95.5735 19.1037 94.791 19.8494 93.8153 20.3648C92.858 20.8803 91.7717 21.1381 90.5567 21.1381C89.1943 21.1381 87.9608 20.8251 86.8562 20.1992C85.7516 19.5732 84.8863 18.6987 84.2604 17.5757C83.6344 16.4527 83.3214 15.1732 83.3214 13.7372C83.3214 12.3012 83.6344 11.0216 84.2604 9.89862C84.8863 8.77559 85.7516 7.91031 86.8562 7.30277C87.9608 6.67682 89.1943 6.36385 90.5567 6.36385C91.7349 6.36385 92.7935 6.61239 93.7324 7.10946C94.6898 7.58813 95.4722 8.29693 96.0797 9.23585V0.509389H98.0404ZM90.7224 19.3983C91.7349 19.3983 92.6462 19.1682 93.4563 18.7079C94.2847 18.2293 94.9291 17.5573 95.3894 16.692C95.868 15.8267 96.1074 14.8418 96.1074 13.7372C96.1074 12.6325 95.868 11.6476 95.3894 10.7823C94.9291 9.91703 94.2847 9.25426 93.4563 8.794C92.6462 8.31534 91.7349 8.076 90.7224 8.076C89.6914 8.076 88.7617 8.31534 87.9332 8.794C87.1232 9.25426 86.4788 9.91703 86.0001 10.7823C85.5399 11.6476 85.3097 12.6325 85.3097 13.7372C85.3097 14.8418 85.5399 15.8267 86.0001 16.692C86.4788 17.5573 87.1232 18.2293 87.9332 18.7079C88.7617 19.1682 89.6914 19.3983 90.7224 19.3983ZM116.425 14.3447H104.274C104.385 15.8543 104.965 17.0786 106.014 18.0175C107.063 18.9381 108.389 19.3983 109.991 19.3983C110.893 19.3983 111.721 19.2418 112.476 18.9288C113.231 18.5975 113.884 18.1188 114.437 17.4928L115.541 18.7632C114.897 19.5364 114.087 20.1255 113.111 20.5305C112.154 20.9356 111.095 21.1381 109.935 21.1381C108.444 21.1381 107.119 20.8251 105.959 20.1992C104.817 19.5548 103.924 18.6711 103.28 17.5481C102.636 16.4251 102.313 15.1547 102.313 13.7372C102.313 12.3196 102.617 11.0493 103.225 9.92623C103.851 8.80321 104.698 7.92872 105.765 7.30277C106.852 6.67682 108.067 6.36385 109.411 6.36385C110.755 6.36385 111.96 6.67682 113.028 7.30277C114.096 7.92872 114.934 8.80321 115.541 9.92623C116.149 11.0308 116.453 12.3012 116.453 13.7372L116.425 14.3447ZM109.411 8.04839C108.011 8.04839 106.833 8.49944 105.876 9.40154C104.937 10.2852 104.403 11.4451 104.274 12.8811H114.575C114.446 11.4451 113.903 10.2852 112.945 9.40154C112.006 8.49944 110.828 8.04839 109.411 8.04839Z" fill="black"/>
</svg>
