<svg width="44" height="44" viewBox="0 0 44 44" fill="none" xmlns="http://www.w3.org/2000/svg">
<rect width="44" height="44" rx="6" fill="#17181D"/>
<path d="M16.2728 21.1088C15.6353 20.3308 14.7286 19.8435 13.7415 19.7371C13.8731 20.7309 14.0665 21.7582 14.2659 22.8175C14.3886 23.4691 14.5121 24.1275 14.6259 24.794C14.7256 25.3816 15.2151 25.8086 15.7893 25.8086C16.4286 25.8086 16.8198 25.3509 16.9987 24.7037C17.2989 23.617 17.0005 21.9959 16.2728 21.1088Z" fill="url(#paint0_linear)"/>
<path d="M25.7578 17.4297C25.7578 12.8096 21.999 9 17.3789 9C12.7588 9 9 12.8096 9 17.4297C9 19.5482 9.39427 21.6407 9.77513 23.6641C10.1426 25.6196 10.5234 27.6415 10.5234 29.6172C10.5234 32.557 12.9157 35 15.8555 35C18.7952 35 21.1875 32.557 21.1875 29.6172C21.1875 29.2579 21.151 28.8971 21.0796 28.5438C20.7077 26.7273 22.0452 24.6132 23.3038 23.3545C24.886 21.7724 25.7578 19.668 25.7578 17.4297ZM21.1496 21.2003L20.0724 20.1232C21.0067 19.1882 21.3794 17.8946 21.096 16.5735C20.788 15.1408 19.5562 13.9544 18.1005 13.6873C15.6376 13.2426 13.5703 15.1294 13.5703 17.4297C13.5703 17.6833 13.5777 17.9392 13.5919 18.1981C15.096 18.2717 16.4907 18.971 17.4511 20.1426C19.3351 22.4414 18.4398 24.9424 18.4382 25.1607C18.1867 26.4186 17.0724 27.332 15.7892 27.332C14.4696 27.332 13.3486 26.3717 13.1232 25.0491C13.0124 24.3923 12.8904 23.7429 12.7691 23.1009C12.3972 21.1267 12.0469 19.2633 12.0469 17.4297C12.0469 14.1223 15.0457 11.5761 18.3749 12.1892C20.4525 12.5693 22.1448 14.2028 22.5852 16.2536C22.9743 18.0627 22.4372 19.912 21.1496 21.2003Z" fill="url(#paint1_linear)"/>
<path d="M35 21.2383H27.332V22.7617H35V21.2383Z" fill="url(#paint2_linear)"/>
<path d="M28.4336 27.4123L27.7523 28.7748L33.8455 31.8214L34.5268 30.4589L28.4336 27.4123Z" fill="url(#paint3_linear)"/>
<path d="M33.8464 12.1783L27.7532 15.2249L28.4344 16.5875L34.5276 13.5409L33.8464 12.1783Z" fill="url(#paint4_linear)"/>
<defs>
<linearGradient id="paint0_linear" x1="15.4279" y1="19.7371" x2="15.4279" y2="25.8086" gradientUnits="userSpaceOnUse">
<stop stop-color="#6E6E7E"/>
<stop offset="1" stop-color="#666270"/>
</linearGradient>
<linearGradient id="paint1_linear" x1="17.3789" y1="9" x2="17.3789" y2="35" gradientUnits="userSpaceOnUse">
<stop stop-color="#6E6E7E"/>
<stop offset="1" stop-color="#666270"/>
</linearGradient>
<linearGradient id="paint2_linear" x1="31.166" y1="21.2383" x2="31.166" y2="22.7617" gradientUnits="userSpaceOnUse">
<stop stop-color="#6E6E7E"/>
<stop offset="1" stop-color="#666270"/>
</linearGradient>
<linearGradient id="paint3_linear" x1="28.0929" y1="28.0935" x2="34.1862" y2="31.1401" gradientUnits="userSpaceOnUse">
<stop stop-color="#6E6E7E"/>
<stop offset="1" stop-color="#666270"/>
</linearGradient>
<linearGradient id="paint4_linear" x1="30.7998" y1="13.7016" x2="31.481" y2="15.0642" gradientUnits="userSpaceOnUse">
<stop stop-color="#6E6E7E"/>
<stop offset="1" stop-color="#666270"/>
</linearGradient>
</defs>
</svg>

