<svg width="44" height="44" viewBox="0 0 44 44" fill="none" xmlns="http://www.w3.org/2000/svg">
<rect width="44" height="44" rx="6" fill="#8212F2"/>
<path d="M24.1667 9H22.5417V12.3497C23.1711 12.5739 23.6251 13.1698 23.6251 13.875V17.125C23.6251 18.0209 22.896 18.75 22.0001 18.75C21.1041 18.75 20.3751 18.0209 20.3751 17.125V13.875C20.3751 13.1698 20.829 12.5739 21.4584 12.3497V9H19.8334C15.9507 9 12.7917 12.159 12.7917 16.0417V25.7917C12.7917 30.8692 16.9225 35 22.0001 35C27.0776 35 31.2084 30.8692 31.2084 25.7917V16.0417C31.2084 12.159 28.0494 9 24.1667 9Z" fill="white"/>
</svg>

