<svg width="154" height="13" viewBox="0 0 154 13" fill="none" xmlns="http://www.w3.org/2000/svg">
<path d="M5.056 12.224C4.14933 12.224 3.26933 12.112 2.416 11.888C1.56267 11.664 0.869333 11.3653 0.336 10.992L1.376 8.656C1.87733 8.98667 2.45867 9.25333 3.12 9.456C3.78133 9.65867 4.432 9.76 5.072 9.76C6.288 9.76 6.896 9.456 6.896 8.848C6.896 8.528 6.72 8.29333 6.368 8.144C6.02667 7.984 5.472 7.81867 4.704 7.648C3.86133 7.46667 3.15733 7.27467 2.592 7.072C2.02667 6.85867 1.54133 6.52267 1.136 6.064C0.730667 5.60533 0.528 4.98667 0.528 4.208C0.528 3.52533 0.714667 2.912 1.088 2.368C1.46133 1.81333 2.016 1.376 2.752 1.056C3.49867 0.735999 4.41067 0.575999 5.488 0.575999C6.224 0.575999 6.94933 0.661333 7.664 0.832C8.37867 0.992 9.008 1.232 9.552 1.552L8.576 3.904C7.50933 3.328 6.47467 3.04 5.472 3.04C4.84267 3.04 4.384 3.136 4.096 3.328C3.808 3.50933 3.664 3.74933 3.664 4.048C3.664 4.34667 3.83467 4.57067 4.176 4.72C4.51733 4.86933 5.06667 5.024 5.824 5.184C6.67733 5.36533 7.38133 5.56267 7.936 5.776C8.50133 5.97867 8.98667 6.30933 9.392 6.768C9.808 7.216 10.016 7.82933 10.016 8.608C10.016 9.28 9.82933 9.888 9.456 10.432C9.08267 10.976 8.52267 11.4133 7.776 11.744C7.02933 12.064 6.12267 12.224 5.056 12.224ZM13.8671 3.312H10.4271V0.799999H20.4591V3.312H17.0351V12H13.8671V3.312ZM28.7409 9.824H24.0049L23.1249 12H19.8929L24.8369 0.799999H27.9569L32.9169 12H29.6209L28.7409 9.824ZM27.8129 7.488L26.3729 3.904L24.9329 7.488H27.8129ZM38.871 9.024H37.143V12H33.975V0.799999H39.095C40.1083 0.799999 40.9883 0.970666 41.735 1.312C42.4817 1.64267 43.0577 2.12267 43.463 2.752C43.8683 3.37067 44.071 4.10133 44.071 4.944C44.071 5.75467 43.879 6.464 43.495 7.072C43.1217 7.66933 42.583 8.13867 41.879 8.48L44.295 12H40.903L38.871 9.024ZM40.871 4.944C40.871 4.42133 40.7057 4.016 40.375 3.728C40.0443 3.44 39.5537 3.296 38.903 3.296H37.143V6.576H38.903C39.5537 6.576 40.0443 6.43733 40.375 6.16C40.7057 5.872 40.871 5.46667 40.871 4.944ZM53.4827 6.16H56.2828V10.8C55.6428 11.2587 54.9068 11.6107 54.0747 11.856C53.2427 12.1013 52.4107 12.224 51.5787 12.224C50.4054 12.224 49.3494 11.9787 48.4107 11.488C47.4721 10.9867 46.7361 10.2933 46.2027 9.408C45.6694 8.52267 45.4027 7.52 45.4027 6.4C45.4027 5.28 45.6694 4.27733 46.2027 3.392C46.7361 2.50667 47.4774 1.81867 48.4267 1.328C49.3761 0.826666 50.4481 0.575999 51.6427 0.575999C52.6881 0.575999 53.6267 0.751999 54.4587 1.104C55.2907 1.456 55.9841 1.96267 56.5387 2.624L54.5227 4.448C53.7654 3.616 52.8588 3.2 51.8027 3.2C50.8427 3.2 50.0694 3.49333 49.4827 4.08C48.8961 4.656 48.6027 5.42933 48.6027 6.4C48.6027 7.01867 48.7361 7.57333 49.0027 8.064C49.2694 8.544 49.6427 8.92267 50.1227 9.2C50.6027 9.46667 51.1521 9.6 51.7707 9.6C52.3787 9.6 52.9494 9.47733 53.4827 9.232V6.16ZM65.9552 9.824H61.2192L60.3392 12H57.1072L62.0512 0.799999H65.1712L70.1312 12H66.8352L65.9552 9.824ZM65.0272 7.488L63.5872 3.904L62.1472 7.488H65.0272ZM73.0109 3.312H69.5709V0.799999H79.6029V3.312H76.1789V12H73.0109V3.312ZM89.9351 9.552V12H80.9431V0.799999H89.7271V3.248H84.0791V5.136H89.0551V7.504H84.0791V9.552H89.9351ZM97.3734 0.799999H98.5574V10.976H104.829V12H97.3734V0.799999ZM106.715 3.584H107.851V12H106.715V3.584ZM107.291 1.744C107.057 1.744 106.859 1.664 106.699 1.504C106.539 1.344 106.459 1.152 106.459 0.927999C106.459 0.714666 106.539 0.528 106.699 0.367999C106.859 0.207999 107.057 0.127999 107.291 0.127999C107.526 0.127999 107.723 0.207999 107.883 0.367999C108.043 0.517332 108.123 0.698666 108.123 0.912C108.123 1.14667 108.043 1.344 107.883 1.504C107.723 1.664 107.526 1.744 107.291 1.744ZM121.668 3.52C122.724 3.52 123.551 3.824 124.148 4.432C124.756 5.04 125.06 5.936 125.06 7.12V12H123.924V7.232C123.924 6.35733 123.711 5.69067 123.284 5.232C122.868 4.77333 122.276 4.544 121.508 4.544C120.633 4.544 119.945 4.816 119.444 5.36C118.943 5.89333 118.692 6.63467 118.692 7.584V12H117.556V7.232C117.556 6.35733 117.343 5.69067 116.916 5.232C116.5 4.77333 115.903 4.544 115.124 4.544C114.26 4.544 113.572 4.816 113.06 5.36C112.559 5.89333 112.308 6.63467 112.308 7.584V12H111.172V3.584H112.26V5.12C112.559 4.608 112.975 4.21333 113.508 3.936C114.041 3.65867 114.655 3.52 115.348 3.52C116.052 3.52 116.66 3.66933 117.172 3.968C117.695 4.26667 118.084 4.70933 118.34 5.296C118.649 4.74133 119.092 4.30933 119.668 4C120.255 3.68 120.921 3.52 121.668 3.52ZM128.301 3.584H129.437V12H128.301V3.584ZM128.877 1.744C128.642 1.744 128.445 1.664 128.285 1.504C128.125 1.344 128.045 1.152 128.045 0.927999C128.045 0.714666 128.125 0.528 128.285 0.367999C128.445 0.207999 128.642 0.127999 128.877 0.127999C129.112 0.127999 129.309 0.207999 129.469 0.367999C129.629 0.517332 129.709 0.698666 129.709 0.912C129.709 1.14667 129.629 1.344 129.469 1.504C129.309 1.664 129.112 1.744 128.877 1.744ZM137.19 11.488C136.976 11.68 136.71 11.8293 136.39 11.936C136.08 12.032 135.755 12.08 135.414 12.08C134.624 12.08 134.016 11.8667 133.59 11.44C133.163 11.0133 132.95 10.4107 132.95 9.632V4.544H131.446V3.584H132.95V1.744H134.086V3.584H136.646V4.544H134.086V9.568C134.086 10.0693 134.208 10.4533 134.454 10.72C134.71 10.976 135.072 11.104 135.542 11.104C135.776 11.104 136 11.0667 136.214 10.992C136.438 10.9173 136.63 10.8107 136.79 10.672L137.19 11.488ZM146.449 8.144H139.409C139.473 9.01867 139.809 9.728 140.417 10.272C141.025 10.8053 141.793 11.072 142.721 11.072C143.244 11.072 143.724 10.9813 144.161 10.8C144.598 10.608 144.977 10.3307 145.297 9.968L145.937 10.704C145.564 11.152 145.094 11.4933 144.529 11.728C143.974 11.9627 143.361 12.08 142.689 12.08C141.825 12.08 141.057 11.8987 140.385 11.536C139.724 11.1627 139.206 10.6507 138.833 10C138.46 9.34933 138.273 8.61333 138.273 7.792C138.273 6.97067 138.449 6.23467 138.801 5.584C139.164 4.93333 139.654 4.42667 140.273 4.064C140.902 3.70133 141.606 3.52 142.385 3.52C143.164 3.52 143.862 3.70133 144.481 4.064C145.1 4.42667 145.585 4.93333 145.937 5.584C146.289 6.224 146.465 6.96 146.465 7.792L146.449 8.144ZM142.385 4.496C141.574 4.496 140.892 4.75733 140.337 5.28C139.793 5.792 139.484 6.464 139.409 7.296H145.377C145.302 6.464 144.988 5.792 144.433 5.28C143.889 4.75733 143.206 4.496 142.385 4.496ZM150.025 5.232C150.292 4.66667 150.686 4.24 151.209 3.952C151.742 3.664 152.398 3.52 153.177 3.52V4.624L152.905 4.608C152.02 4.608 151.326 4.88 150.825 5.424C150.324 5.968 150.073 6.73067 150.073 7.712V12H148.937V3.584H150.025V5.232Z" fill="white" fill-opacity="0.9"/>
</svg>

