<?xml version="1.0" encoding="UTF-8" standalone="no"?>
<svg
   width="184"
   height="13"
   viewBox="0 0 184 13"
   fill="none"
   version="1.1"
   id="svg4"
   sodipodi:docname="logo.svg"
   inkscape:version="1.1 (c68e22c387, 2021-05-23)"
   xmlns:inkscape="http://www.inkscape.org/namespaces/inkscape"
   xmlns:sodipodi="http://sodipodi.sourceforge.net/DTD/sodipodi-0.dtd"
   xmlns="http://www.w3.org/2000/svg"
   xmlns:svg="http://www.w3.org/2000/svg">
  <defs
     id="defs8" />
  <sodipodi:namedview
     id="namedview6"
     pagecolor="#ffffff"
     bordercolor="#666666"
     borderopacity="1.0"
     inkscape:pageshadow="2"
     inkscape:pageopacity="0.0"
     inkscape:pagecheckerboard="0"
     showgrid="false"
     inkscape:zoom="3.8149351"
     inkscape:cx="80.997447"
     inkscape:cy="8.3880851"
     inkscape:window-width="1920"
     inkscape:window-height="1007"
     inkscape:window-x="0"
     inkscape:window-y="0"
     inkscape:window-maximized="1"
     inkscape:current-layer="svg4" />
  <path
     d="m 35.200681,12.486128 c -0.90667,0 -1.78667,-0.112 -2.64,-0.336 -0.85333,-0.224 -1.546667,-0.5227 -2.08,-0.896 l 1.04,-2.3360003 c 0.50133,0.33067 1.08267,0.59733 1.744,0.8 0.66133,0.20267 1.312,0.3040003 1.952,0.3040003 1.216,0 1.824,-0.3040003 1.824,-0.9120003 0,-0.32 -0.176,-0.55467 -0.528,-0.704 -0.34133,-0.16 -0.896,-0.32533 -1.664,-0.496 -0.84267,-0.18133 -1.54667,-0.37333 -2.112,-0.576 -0.56533,-0.21333 -1.05067,-0.54933 -1.456,-1.008 -0.405333,-0.45867 -0.608,-1.07733 -0.608,-1.856 0,-0.68267 0.186667,-1.296 0.56,-1.84 0.37333,-0.55467 0.928,-0.992 1.664,-1.312 0.74667,-0.32000104 1.65867,-0.48000104 2.736,-0.48000104 0.736,0 1.46133,0.085334 2.176,0.25600104 0.71467,0.16 1.344,0.4 1.888,0.72 l -0.976,2.352 c -1.06667,-0.576 -2.10133,-0.864 -3.104,-0.864 -0.62933,0 -1.088,0.096 -1.376,0.288 -0.288,0.18133 -0.432,0.42133 -0.432,0.72 0,0.29867 0.17067,0.52267 0.512,0.672 0.34133,0.14933 0.89067,0.304 1.648,0.464 0.85333,0.18133 1.55733,0.37867 2.112,0.592 0.56533,0.20267 1.05067,0.53333 1.456,0.992 0.416,0.448 0.624,1.06133 0.624,1.84 0,0.672 -0.18667,1.2800003 -0.56,1.8240003 -0.37333,0.544 -0.93333,0.9813 -1.68,1.312 -0.74667,0.32 -1.65333,0.48 -2.72,0.48 z m 8.8111,-8.9120003 h -3.44 v -2.512001 h 10.032 v 2.512001 h -3.424 v 8.6880003 h -3.168 z m 14.8738,6.5120003 h -4.736 l -0.88,2.176 h -3.232 l 4.944,-11.2000013 h 3.12 l 4.96,11.2000013 h -3.296 z m -0.928,-2.3360003 -1.44,-3.584 -1.44,3.584 z m 11.0581,1.536 h -1.728 v 2.9760003 h -3.168 V 1.0621267 h 5.12 c 1.0133,0 1.8933,0.170667 2.64,0.512001 0.7467,0.33067 1.3227,0.81067 1.728,1.44 0.4053,0.61867 0.608,1.34933 0.608,2.192 0,0.81067 -0.192,1.52 -0.576,2.128 -0.3733,0.59733 -0.912,1.06667 -1.616,1.408 l 2.416,3.5200003 h -3.392 z m 2,-4.08 c 0,-0.52267 -0.1653,-0.928 -0.496,-1.216 -0.3307,-0.288 -0.8213,-0.432 -1.472,-0.432 h -1.76 v 3.28 h 1.76 c 0.6507,0 1.1413,-0.13867 1.472,-0.416 0.3307,-0.288 0.496,-0.69333 0.496,-1.216 z m 12.6117,1.216 h 2.8001 v 4.6400003 c -0.64,0.4587 -1.376,0.8107 -2.2081,1.056 -0.832,0.2453 -1.664,0.368 -2.496,0.368 -1.1733,0 -2.2293,-0.2453 -3.168,-0.736 -0.9386,-0.5013 -1.6746,-1.1947 -2.208,-2.0800003 -0.5333,-0.88533 -0.8,-1.888 -0.8,-3.008 0,-1.12 0.2667,-2.12267 0.8,-3.008 0.5334,-0.88533 1.2747,-1.57333 2.224,-2.064 0.9494,-0.501334 2.0214,-0.75200104 3.216,-0.75200104 1.0454,0 1.984,0.17600004 2.816,0.52800104 0.832,0.352 1.5254,0.85867 2.08,1.52 l -2.016,1.824 c -0.7573,-0.832 -1.6639,-1.248 -2.72,-1.248 -0.96,0 -1.7333,0.29333 -2.32,0.88 -0.5866,0.576 -0.88,1.34933 -0.88,2.32 0,0.61867 0.1334,1.17333 0.4,1.664 0.2667,0.48 0.64,0.85867 1.12,1.136 0.48,0.26667 1.0294,0.4 1.648,0.4 0.608,0 1.1787,-0.12267 1.712,-0.368 z m 12.4725,3.6640003 h -4.736 l -0.88,2.176 h -3.232 l 4.944,-11.2000013 h 3.12 l 4.959999,11.2000013 h -3.295999 z m -0.928,-2.3360003 -1.44,-3.584 -1.44,3.584 z m 7.983699,-4.176 h -3.439999 v -2.512001 h 10.031999 v 2.512001 h -3.424 v 8.6880003 h -3.168 z m 16.9242,6.24 v 2.4480003 h -8.992 V 1.0621267 h 8.784 v 2.448001 h -5.648 v 1.888 h 4.976 v 2.368 h -4.976 v 2.048 z m 7.4383,-8.752001 h 1.184 V 11.238128 h 6.2716 v 1.024 h -7.4556 z m 9.3416,2.784001 h 1.136 v 8.4160003 h -1.136 z m 0.576,-1.84 c -0.234,0 -0.432,-0.08 -0.592,-0.24 -0.16,-0.16 -0.24,-0.352 -0.24,-0.576001 0,-0.21333304 0.08,-0.39999904 0.24,-0.56000004 0.16,-0.16 0.358,-0.24 0.592,-0.24 0.235,0 0.432,0.08 0.592,0.24 0.16,0.149333 0.24,0.330667 0.24,0.54400104 0,0.23467 -0.08,0.432 -0.24,0.592 -0.16,0.16 -0.357,0.24 -0.592,0.24 z m 14.377,1.776 c 1.056,0 1.883,0.304 2.48,0.912 0.608,0.608 0.912,1.504 0.912,2.688 v 4.8800003 h -1.136 V 7.4941277 c 0,-0.87467 -0.213,-1.54133 -0.64,-2 -0.416,-0.45867 -1.008,-0.688 -1.776,-0.688 -0.875,0 -1.563,0.272 -2.064,0.816 -0.501,0.53333 -0.752,1.27467 -0.752,2.224 v 4.4160003 h -1.136 V 7.4941277 c 0,-0.87467 -0.213,-1.54133 -0.64,-2 -0.416,-0.45867 -1.013,-0.688 -1.792,-0.688 -0.864,0 -1.552,0.272 -2.064,0.816 -0.501,0.53333 -0.752,1.27467 -0.752,2.224 v 4.4160003 h -1.136 V 3.8461277 h 1.088 v 1.536 c 0.299,-0.512 0.715,-0.90667 1.248,-1.184 0.533,-0.27733 1.147,-0.416 1.84,-0.416 0.704,0 1.312,0.14933 1.824,0.448 0.523,0.29867 0.912,0.74133 1.168,1.328 0.309,-0.55467 0.752,-0.98667 1.328,-1.296 0.587,-0.32 1.253,-0.48 2,-0.48 z m 6.633,0.064 h 1.136 v 8.4160003 h -1.136 z m 0.576,-1.84 c -0.235,0 -0.432,-0.08 -0.592,-0.24 -0.16,-0.16 -0.24,-0.352 -0.24,-0.576001 0,-0.21333304 0.08,-0.39999904 0.24,-0.56000004 0.16,-0.16 0.357,-0.24 0.592,-0.24 0.235,0 0.432,0.08 0.592,0.24 0.16,0.149333 0.24,0.330667 0.24,0.54400104 0,0.23467 -0.08,0.432 -0.24,0.592 -0.16,0.16 -0.357,0.24 -0.592,0.24 z m 8.313,9.7440003 c -0.214,0.192 -0.48,0.3413 -0.8,0.448 -0.31,0.096 -0.635,0.144 -0.976,0.144 -0.79,0 -1.398,-0.2133 -1.824,-0.64 -0.427,-0.4267 -0.64,-1.0293 -0.64,-1.8080003 v -5.088 h -1.504 v -0.96 h 1.504 v -1.84 h 1.136 v 1.84 h 2.56 v 0.96 h -2.56 v 5.024 c 0,0.5013003 0.122,0.8853003 0.368,1.1520003 0.256,0.256 0.618,0.384 1.088,0.384 0.234,0 0.458,-0.0373 0.672,-0.112 0.224,-0.0747 0.416,-0.1813 0.576,-0.32 z m 9.259,-3.3440003 h -7.04 c 0.064,0.87467 0.4,1.584 1.008,2.1280003 0.608,0.5333 1.376,0.8 2.304,0.8 0.523,0 1.003,-0.0907 1.44,-0.272 0.437,-0.192 0.816,-0.4693 1.136,-0.832 l 0.64,0.736 c -0.373,0.448 -0.843,0.7893 -1.408,1.024 -0.555,0.2347 -1.168,0.352 -1.84,0.352 -0.864,0 -1.632,-0.1813 -2.304,-0.544 -0.661,-0.3733 -1.179,-0.8853 -1.552,-1.536 -0.373,-0.6506703 -0.56,-1.3866703 -0.56,-2.2080003 0,-0.82133 0.176,-1.55733 0.528,-2.208 0.363,-0.65067 0.853,-1.15733 1.472,-1.52 0.629,-0.36267 1.333,-0.544 2.112,-0.544 0.779,0 1.477,0.18133 2.096,0.544 0.619,0.36267 1.104,0.86933 1.456,1.52 0.352,0.64 0.528,1.376 0.528,2.208 z m -4.064,-3.648 c -0.811,0 -1.493,0.26133 -2.048,0.784 -0.544,0.512 -0.853,1.184 -0.928,2.016 h 5.968 c -0.075,-0.832 -0.389,-1.504 -0.944,-2.016 -0.544,-0.52267 -1.227,-0.784 -2.048,-0.784 z m 7.64,0.736 c 0.267,-0.56533 0.661,-0.992 1.184,-1.28 0.533,-0.288 1.189,-0.432 1.968,-0.432 v 1.104 l -0.272,-0.016 c -0.885,0 -1.579,0.272 -2.08,0.816 -0.501,0.544 -0.752,1.30667 -0.752,2.288 v 4.2880003 h -1.136 V 3.8461277 h 1.088 z"
     fill="#ffffff"
     fill-opacity="0.9"
     id="path2" />
</svg>
