<?xml version="1.0" encoding="UTF-8" standalone="no"?>
<svg
   width="172"
   height="16"
   viewBox="0 0 172 16"
   fill="none"
   version="1.1"
   id="svg4"
   sodipodi:docname="logo.svg"
   inkscape:version="1.1 (c68e22c387, 2021-05-23)"
   xmlns:inkscape="http://www.inkscape.org/namespaces/inkscape"
   xmlns:sodipodi="http://sodipodi.sourceforge.net/DTD/sodipodi-0.dtd"
   xmlns="http://www.w3.org/2000/svg"
   xmlns:svg="http://www.w3.org/2000/svg">
  <defs
     id="defs8" />
  <sodipodi:namedview
     id="namedview6"
     pagecolor="#ffffff"
     bordercolor="#666666"
     borderopacity="1.0"
     inkscape:pageshadow="2"
     inkscape:pageopacity="0.0"
     inkscape:pagecheckerboard="0"
     showgrid="false"
     inkscape:zoom="4.1373239"
     inkscape:cx="69.851915"
     inkscape:cy="14.502128"
     inkscape:window-width="1920"
     inkscape:window-height="1007"
     inkscape:window-x="0"
     inkscape:window-y="0"
     inkscape:window-maximized="1"
     inkscape:current-layer="svg4" />
  <path
     d="m 35.027064,12.707404 c -0.90667,0 -1.78667,-0.112 -2.64,-0.336 -0.85333,-0.224 -1.546667,-0.5227 -2.08,-0.896 l 1.04,-2.3359997 c 0.50133,0.33067 1.08267,0.59733 1.744,0.8 0.66133,0.2026697 1.312,0.3039997 1.952,0.3039997 1.216,0 1.824,-0.3039997 1.824,-0.9119997 0,-0.32 -0.176,-0.55467 -0.528,-0.704 -0.34133,-0.16 -0.896,-0.32533 -1.664,-0.496 -0.84267,-0.18133 -1.54667,-0.37333 -2.112,-0.576 -0.56533,-0.21333 -1.05067,-0.54933 -1.456,-1.008 -0.405333,-0.45867 -0.608,-1.07733 -0.608,-1.856 0,-0.68267 0.186667,-1.296 0.56,-1.84 0.37333,-0.55467 0.928,-0.992 1.664,-1.312 0.74667,-0.320001 1.65867,-0.480001 2.736,-0.480001 0.736,0 1.46133,0.085334 2.176,0.256001 0.71467,0.16 1.344,0.4 1.888,0.72 l -0.976,2.352 c -1.06667,-0.576 -2.10133,-0.864 -3.104,-0.864 -0.62933,0 -1.088,0.096 -1.376,0.288 -0.288,0.18133 -0.432,0.42133 -0.432,0.72 0,0.29867 0.17067,0.52267 0.512,0.672 0.34133,0.14933 0.89067,0.304 1.648,0.464 0.85333,0.18133 1.55733,0.37867 2.112,0.592 0.56533,0.20267 1.05067,0.53333 1.456,0.992 0.416,0.448 0.624,1.06133 0.624,1.84 0,0.672 -0.18667,1.2799997 -0.56,1.8239997 -0.37333,0.544 -0.93333,0.9813 -1.68,1.312 -0.74667,0.32 -1.65333,0.48 -2.72,0.48 z m 8.8111,-8.9119997 h -3.44 v -2.512001 h 10.032 v 2.512001 h -3.424 v 8.6879997 h -3.168 z m 14.8738,6.5119997 h -4.736 l -0.88,2.176 h -3.232 l 4.944,-11.2000007 h 3.12 l 4.96,11.2000007 h -3.296 z m -0.928,-2.3359997 -1.44,-3.584 -1.44,3.584 z m 11.0581,1.536 h -1.728 v 2.9759997 h -3.168 V 1.2834033 h 5.12 c 1.0133,0 1.8933,0.170667 2.64,0.512001 0.7467,0.33067 1.3227,0.81067 1.728,1.44 0.4053,0.61867 0.608,1.34933 0.608,2.192 0,0.81067 -0.192,1.52 -0.576,2.128 -0.3733,0.59733 -0.912,1.06667 -1.616,1.408 l 2.416,3.5199997 h -3.392 z m 2,-4.08 c 0,-0.52267 -0.1653,-0.928 -0.496,-1.216 -0.3307,-0.288 -0.8213,-0.432 -1.472,-0.432 h -1.76 v 3.28 h 1.76 c 0.6507,0 1.1413,-0.13867 1.472,-0.416 0.3307,-0.288 0.496,-0.69333 0.496,-1.216 z m 12.6117,1.216 h 2.8001 v 4.6399997 c -0.64,0.4587 -1.376,0.8107 -2.2081,1.056 -0.832,0.2453 -1.664,0.368 -2.496,0.368 -1.1733,0 -2.2293,-0.2453 -3.168,-0.736 -0.9386,-0.5013 -1.6746,-1.1947 -2.208,-2.0799997 -0.5333,-0.88533 -0.8,-1.888 -0.8,-3.008 0,-1.12 0.2667,-2.12267 0.8,-3.008 0.5334,-0.88533 1.2747,-1.57333 2.224,-2.064 0.9494,-0.501334 2.0214,-0.752001 3.216,-0.752001 1.0454,0 1.984,0.176 2.816,0.528001 0.832,0.352 1.5254,0.85867 2.08,1.52 l -2.016,1.824 c -0.7573,-0.832 -1.6639,-1.248 -2.72,-1.248 -0.96,0 -1.7333,0.29333 -2.32,0.88 -0.5866,0.576 -0.88,1.34933 -0.88,2.32 0,0.61867 0.1334,1.17333 0.4,1.664 0.2667,0.48 0.64,0.85867 1.12,1.136 0.48,0.26667 1.0294,0.3999997 1.648,0.3999997 0.608,0 1.1787,-0.1226697 1.712,-0.3679997 z m 12.4725,3.6639997 h -4.736 l -0.88,2.176 h -3.232 l 4.944,-11.2000007 h 3.12 l 4.959996,11.2000007 h -3.295996 z m -0.928,-2.3359997 -1.44,-3.584 -1.44,3.584 z m 7.983696,-4.176 h -3.439996 v -2.512001 h 10.031996 v 2.512001 h -3.424 v 8.6879997 h -3.168 z m 16.9242,6.2399997 v 2.448 h -8.992 V 1.2834033 h 8.784 v 2.448001 h -5.648 v 1.888 h 4.976 v 2.368 h -4.976 v 2.0479997 z m 7.4383,-8.7520007 h 4.5596 c 1.184,0 2.23,0.240001 3.136,0.720001 0.907,0.46933 1.611,1.13067 2.112,1.984 0.502,0.84267 0.752,1.808 0.752,2.896 0,1.088 -0.25,2.05867 -0.752,2.912 -0.501,0.8426997 -1.205,1.5039997 -2.112,1.9839997 -0.906,0.4693 -1.952,0.704 -3.136,0.704 h -4.5596 z m 4.4956,10.1760007 c 0.982,0 1.84,-0.192 2.576,-0.576 0.736,-0.3947 1.307,-0.9333297 1.712,-1.6159997 0.406,-0.69333 0.608,-1.488 0.608,-2.384 0,-0.896 -0.202,-1.68533 -0.608,-2.368 -0.405,-0.69333 -0.976,-1.232 -1.712,-1.616 -0.736,-0.39467 -1.594,-0.592 -2.576,-0.592 h -3.3116 v 9.1519997 z m 15.971,-2.8319997 h -7.04 c 0.064,0.87467 0.4,1.5839997 1.008,2.1279997 0.608,0.5333 1.376,0.8 2.304,0.8 0.523,0 1.003,-0.0907 1.44,-0.272 0.437,-0.192 0.816,-0.4693 1.136,-0.832 l 0.64,0.736 c -0.373,0.448 -0.843,0.7893 -1.408,1.024 -0.555,0.2347 -1.168,0.352 -1.84,0.352 -0.864,0 -1.632,-0.1813 -2.304,-0.544 -0.661,-0.3733 -1.179,-0.8853 -1.552,-1.536 -0.373,-0.6506697 -0.56,-1.3866697 -0.56,-2.2079997 0,-0.82133 0.176,-1.55733 0.528,-2.208 0.363,-0.65067 0.853,-1.15733 1.472,-1.52 0.629,-0.36267 1.333,-0.544 2.112,-0.544 0.779,0 1.477,0.18133 2.096,0.544 0.619,0.36267 1.104,0.86933 1.456,1.52 0.352,0.64 0.528,1.376 0.528,2.208 z m -4.064,-3.648 c -0.811,0 -1.493,0.26133 -2.048,0.784 -0.544,0.512 -0.853,1.184 -0.928,2.016 h 5.968 c -0.075,-0.832 -0.389,-1.504 -0.944,-2.016 -0.544,-0.52267 -1.227,-0.784 -2.048,-0.784 z m 6.552,-4.36800104 h 1.136 V 12.483404 h -1.136 z m 7.401,3.39200104 c 1.099,0 1.942,0.27733 2.528,0.832 0.587,0.544 0.88,1.35467 0.88,2.432 v 5.2159997 h -1.088 v -1.312 c -0.256,0.4373 -0.634,0.7787 -1.136,1.024 -0.49,0.2453 -1.077,0.368 -1.76,0.368 -0.938,0 -1.685,-0.224 -2.24,-0.672 -0.554,-0.448 -0.832,-1.04 -0.832,-1.776 0,-0.7146697 0.256,-1.2906697 0.768,-1.7279997 0.523,-0.43733 1.35,-0.656 2.48,-0.656 h 2.672 v -0.512 c 0,-0.72533 -0.202,-1.27467 -0.608,-1.648 -0.405,-0.384 -0.997,-0.576 -1.776,-0.576 -0.533,0 -1.045,0.09067 -1.536,0.272 -0.49,0.17067 -0.912,0.41067 -1.264,0.72 l -0.512,-0.848 c 0.427,-0.36267 0.939,-0.64 1.536,-0.832 0.598,-0.20267 1.227,-0.304 1.888,-0.304 z m -0.4,7.6639997 c 0.64,0 1.19,-0.144 1.648,-0.432 0.459,-0.2987 0.8,-0.7253 1.024,-1.2799997 v -1.376 h -2.64 c -1.44,0 -2.16,0.50133 -2.16,1.5039997 0,0.4907 0.187,0.88 0.56,1.168 0.374,0.2773 0.896,0.416 1.568,0.416 z m 13.97,-7.5999997 -4.208,9.4239997 c -0.342,0.7893 -0.736,1.3493 -1.184,1.68 -0.448,0.3307 -0.987,0.496 -1.616,0.496 -0.406,0 -0.784,-0.064 -1.136,-0.192 -0.352,-0.128 -0.656,-0.32 -0.912,-0.576 l 0.528,-0.848 c 0.426,0.4267 0.938,0.64 1.536,0.64 0.384,0 0.709,-0.1067 0.976,-0.32 0.277,-0.2133 0.533,-0.576 0.768,-1.088 l 0.368,-0.816 -3.76,-8.3999997 h 1.184 l 3.168,7.1519997 3.168,-7.1519997 z"
     fill="#ffffff"
     id="path2" />
</svg>
