<svg width="142" height="16" viewBox="0 0 142 16" fill="none" xmlns="http://www.w3.org/2000/svg">
<path d="M5.056 12.224C4.14933 12.224 3.26933 12.112 2.416 11.888C1.56267 11.664 0.869333 11.3653 0.336 10.992L1.376 8.656C1.87733 8.98667 2.45867 9.25333 3.12 9.456C3.78133 9.65867 4.432 9.76 5.072 9.76C6.288 9.76 6.896 9.456 6.896 8.848C6.896 8.528 6.72 8.29333 6.368 8.144C6.02667 7.984 5.472 7.81867 4.704 7.648C3.86133 7.46667 3.15733 7.27467 2.592 7.072C2.02667 6.85867 1.54133 6.52267 1.136 6.064C0.730667 5.60533 0.528 4.98667 0.528 4.208C0.528 3.52533 0.714667 2.912 1.088 2.368C1.46133 1.81333 2.016 1.376 2.752 1.056C3.49867 0.735999 4.41067 0.575999 5.488 0.575999C6.224 0.575999 6.94933 0.661333 7.664 0.832C8.37867 0.992 9.008 1.232 9.552 1.552L8.576 3.904C7.50933 3.328 6.47467 3.04 5.472 3.04C4.84267 3.04 4.384 3.136 4.096 3.328C3.808 3.50933 3.664 3.74933 3.664 4.048C3.664 4.34667 3.83467 4.57067 4.176 4.72C4.51733 4.86933 5.06667 5.024 5.824 5.184C6.67733 5.36533 7.38133 5.56267 7.936 5.776C8.50133 5.97867 8.98667 6.30933 9.392 6.768C9.808 7.216 10.016 7.82933 10.016 8.608C10.016 9.28 9.82933 9.888 9.456 10.432C9.08267 10.976 8.52267 11.4133 7.776 11.744C7.02933 12.064 6.12267 12.224 5.056 12.224ZM13.8671 3.312H10.4271V0.799999H20.4591V3.312H17.0351V12H13.8671V3.312ZM28.7409 9.824H24.0049L23.1249 12H19.8929L24.8369 0.799999H27.9569L32.9169 12H29.6209L28.7409 9.824ZM27.8129 7.488L26.3729 3.904L24.9329 7.488H27.8129ZM38.871 9.024H37.143V12H33.975V0.799999H39.095C40.1083 0.799999 40.9883 0.970666 41.735 1.312C42.4817 1.64267 43.0577 2.12267 43.463 2.752C43.8683 3.37067 44.071 4.10133 44.071 4.944C44.071 5.75467 43.879 6.464 43.495 7.072C43.1217 7.66933 42.583 8.13867 41.879 8.48L44.295 12H40.903L38.871 9.024ZM40.871 4.944C40.871 4.42133 40.7057 4.016 40.375 3.728C40.0443 3.44 39.5537 3.296 38.903 3.296H37.143V6.576H38.903C39.5537 6.576 40.0443 6.43733 40.375 6.16C40.7057 5.872 40.871 5.46667 40.871 4.944ZM53.4827 6.16H56.2828V10.8C55.6428 11.2587 54.9068 11.6107 54.0747 11.856C53.2427 12.1013 52.4107 12.224 51.5787 12.224C50.4054 12.224 49.3494 11.9787 48.4107 11.488C47.4721 10.9867 46.7361 10.2933 46.2027 9.408C45.6694 8.52267 45.4027 7.52 45.4027 6.4C45.4027 5.28 45.6694 4.27733 46.2027 3.392C46.7361 2.50667 47.4774 1.81867 48.4267 1.328C49.3761 0.826666 50.4481 0.575999 51.6427 0.575999C52.6881 0.575999 53.6267 0.751999 54.4587 1.104C55.2907 1.456 55.9841 1.96267 56.5387 2.624L54.5227 4.448C53.7654 3.616 52.8588 3.2 51.8027 3.2C50.8427 3.2 50.0694 3.49333 49.4827 4.08C48.8961 4.656 48.6027 5.42933 48.6027 6.4C48.6027 7.01867 48.7361 7.57333 49.0027 8.064C49.2694 8.544 49.6427 8.92267 50.1227 9.2C50.6027 9.46667 51.1521 9.6 51.7707 9.6C52.3787 9.6 52.9494 9.47733 53.4827 9.232V6.16ZM65.9552 9.824H61.2192L60.3392 12H57.1072L62.0512 0.799999H65.1712L70.1312 12H66.8352L65.9552 9.824ZM65.0272 7.488L63.5872 3.904L62.1472 7.488H65.0272ZM73.0109 3.312H69.5709V0.799999H79.6029V3.312H76.1789V12H73.0109V3.312ZM89.9351 9.552V12H80.9431V0.799999H89.7271V3.248H84.0791V5.136H89.0551V7.504H84.0791V9.552H89.9351ZM97.3734 0.799999H101.933C103.117 0.799999 104.163 1.04 105.069 1.52C105.976 1.98933 106.68 2.65067 107.181 3.504C107.683 4.34667 107.933 5.312 107.933 6.4C107.933 7.488 107.683 8.45867 107.181 9.312C106.68 10.1547 105.976 10.816 105.069 11.296C104.163 11.7653 103.117 12 101.933 12H97.3734V0.799999ZM101.869 10.976C102.851 10.976 103.709 10.784 104.445 10.4C105.181 10.0053 105.752 9.46667 106.157 8.784C106.563 8.09067 106.765 7.296 106.765 6.4C106.765 5.504 106.563 4.71467 106.157 4.032C105.752 3.33867 105.181 2.8 104.445 2.416C103.709 2.02133 102.851 1.824 101.869 1.824H98.5574V10.976H101.869ZM117.84 8.144H110.8C110.864 9.01867 111.2 9.728 111.808 10.272C112.416 10.8053 113.184 11.072 114.112 11.072C114.635 11.072 115.115 10.9813 115.552 10.8C115.989 10.608 116.368 10.3307 116.688 9.968L117.328 10.704C116.955 11.152 116.485 11.4933 115.92 11.728C115.365 11.9627 114.752 12.08 114.08 12.08C113.216 12.08 112.448 11.8987 111.776 11.536C111.115 11.1627 110.597 10.6507 110.224 10C109.851 9.34933 109.664 8.61333 109.664 7.792C109.664 6.97067 109.84 6.23467 110.192 5.584C110.555 4.93333 111.045 4.42667 111.664 4.064C112.293 3.70133 112.997 3.52 113.776 3.52C114.555 3.52 115.253 3.70133 115.872 4.064C116.491 4.42667 116.976 4.93333 117.328 5.584C117.68 6.224 117.856 6.96 117.856 7.792L117.84 8.144ZM113.776 4.496C112.965 4.496 112.283 4.75733 111.728 5.28C111.184 5.792 110.875 6.464 110.8 7.296H116.768C116.693 6.464 116.379 5.792 115.824 5.28C115.28 4.75733 114.597 4.496 113.776 4.496ZM120.328 0.127999H121.464V12H120.328V0.127999ZM127.729 3.52C128.828 3.52 129.671 3.79733 130.257 4.352C130.844 4.896 131.137 5.70667 131.137 6.784V12H130.049V10.688C129.793 11.1253 129.415 11.4667 128.913 11.712C128.423 11.9573 127.836 12.08 127.153 12.08C126.215 12.08 125.468 11.856 124.913 11.408C124.359 10.96 124.081 10.368 124.081 9.632C124.081 8.91733 124.337 8.34133 124.849 7.904C125.372 7.46667 126.199 7.248 127.329 7.248H130.001V6.736C130.001 6.01067 129.799 5.46133 129.393 5.088C128.988 4.704 128.396 4.512 127.617 4.512C127.084 4.512 126.572 4.60267 126.081 4.784C125.591 4.95467 125.169 5.19467 124.817 5.504L124.305 4.656C124.732 4.29333 125.244 4.016 125.841 3.824C126.439 3.62133 127.068 3.52 127.729 3.52ZM127.329 11.184C127.969 11.184 128.519 11.04 128.977 10.752C129.436 10.4533 129.777 10.0267 130.001 9.472V8.096H127.361C125.921 8.096 125.201 8.59733 125.201 9.6C125.201 10.0907 125.388 10.48 125.761 10.768C126.135 11.0453 126.657 11.184 127.329 11.184ZM141.299 3.584L137.091 13.008C136.749 13.7973 136.355 14.3573 135.907 14.688C135.459 15.0187 134.92 15.184 134.291 15.184C133.885 15.184 133.507 15.12 133.155 14.992C132.803 14.864 132.499 14.672 132.243 14.416L132.771 13.568C133.197 13.9947 133.709 14.208 134.307 14.208C134.691 14.208 135.016 14.1013 135.283 13.888C135.56 13.6747 135.816 13.312 136.051 12.8L136.419 11.984L132.659 3.584H133.843L137.011 10.736L140.179 3.584H141.299Z" fill="white"/>
</svg>

