<svg width="194" height="16" viewBox="0 0 194 16" fill="none" xmlns="http://www.w3.org/2000/svg">
<path d="M5.056 12.224C4.14933 12.224 3.26933 12.112 2.416 11.888C1.56267 11.664 0.869333 11.3653 0.336 10.992L1.376 8.656C1.87733 8.98667 2.45867 9.25333 3.12 9.456C3.78133 9.65867 4.432 9.76 5.072 9.76C6.288 9.76 6.896 9.456 6.896 8.848C6.896 8.528 6.72 8.29333 6.368 8.144C6.02667 7.984 5.472 7.81867 4.704 7.648C3.86133 7.46667 3.15733 7.27467 2.592 7.072C2.02667 6.85867 1.54133 6.52267 1.136 6.064C0.730667 5.60533 0.528 4.98667 0.528 4.208C0.528 3.52533 0.714667 2.912 1.088 2.368C1.46133 1.81333 2.016 1.376 2.752 1.056C3.49867 0.735999 4.41067 0.575999 5.488 0.575999C6.224 0.575999 6.94933 0.661333 7.664 0.832C8.37867 0.992 9.008 1.232 9.552 1.552L8.576 3.904C7.50933 3.328 6.47467 3.04 5.472 3.04C4.84267 3.04 4.384 3.136 4.096 3.328C3.808 3.50933 3.664 3.74933 3.664 4.048C3.664 4.34667 3.83467 4.57067 4.176 4.72C4.51733 4.86933 5.06667 5.024 5.824 5.184C6.67733 5.36533 7.38133 5.56267 7.936 5.776C8.50133 5.97867 8.98667 6.30933 9.392 6.768C9.808 7.216 10.016 7.82933 10.016 8.608C10.016 9.28 9.82933 9.888 9.456 10.432C9.08267 10.976 8.52267 11.4133 7.776 11.744C7.02933 12.064 6.12267 12.224 5.056 12.224ZM13.8671 3.312H10.4271V0.799999H20.4591V3.312H17.0351V12H13.8671V3.312ZM28.7409 9.824H24.0049L23.1249 12H19.8929L24.8369 0.799999H27.9569L32.9169 12H29.6209L28.7409 9.824ZM27.8129 7.488L26.3729 3.904L24.9329 7.488H27.8129ZM38.871 9.024H37.143V12H33.975V0.799999H39.095C40.1083 0.799999 40.9883 0.970666 41.735 1.312C42.4817 1.64267 43.0577 2.12267 43.463 2.752C43.8683 3.37067 44.071 4.10133 44.071 4.944C44.071 5.75467 43.879 6.464 43.495 7.072C43.1217 7.66933 42.583 8.13867 41.879 8.48L44.295 12H40.903L38.871 9.024ZM40.871 4.944C40.871 4.42133 40.7057 4.016 40.375 3.728C40.0443 3.44 39.5537 3.296 38.903 3.296H37.143V6.576H38.903C39.5537 6.576 40.0443 6.43733 40.375 6.16C40.7057 5.872 40.871 5.46667 40.871 4.944ZM53.4827 6.16H56.2828V10.8C55.6428 11.2587 54.9068 11.6107 54.0747 11.856C53.2427 12.1013 52.4107 12.224 51.5787 12.224C50.4054 12.224 49.3494 11.9787 48.4107 11.488C47.4721 10.9867 46.7361 10.2933 46.2027 9.408C45.6694 8.52267 45.4027 7.52 45.4027 6.4C45.4027 5.28 45.6694 4.27733 46.2027 3.392C46.7361 2.50667 47.4774 1.81867 48.4267 1.328C49.3761 0.826666 50.4481 0.575999 51.6427 0.575999C52.6881 0.575999 53.6267 0.751999 54.4587 1.104C55.2907 1.456 55.9841 1.96267 56.5387 2.624L54.5227 4.448C53.7654 3.616 52.8588 3.2 51.8027 3.2C50.8427 3.2 50.0694 3.49333 49.4827 4.08C48.8961 4.656 48.6027 5.42933 48.6027 6.4C48.6027 7.01867 48.7361 7.57333 49.0027 8.064C49.2694 8.544 49.6427 8.92267 50.1227 9.2C50.6027 9.46667 51.1521 9.6 51.7707 9.6C52.3787 9.6 52.9494 9.47733 53.4827 9.232V6.16ZM65.9552 9.824H61.2192L60.3392 12H57.1072L62.0512 0.799999H65.1712L70.1312 12H66.8352L65.9552 9.824ZM65.0272 7.488L63.5872 3.904L62.1472 7.488H65.0272ZM73.0109 3.312H69.5709V0.799999H79.6029V3.312H76.1789V12H73.0109V3.312ZM89.9351 9.552V12H80.9431V0.799999H89.7271V3.248H84.0791V5.136H89.0551V7.504H84.0791V9.552H89.9351ZM102.237 12.096C101.128 12.096 100.125 11.8507 99.2294 11.36C98.344 10.8693 97.6454 10.192 97.1334 9.328C96.632 8.45333 96.3814 7.47733 96.3814 6.4C96.3814 5.32267 96.632 4.352 97.1334 3.488C97.6454 2.61333 98.3494 1.93067 99.2454 1.44C100.141 0.949333 101.144 0.704 102.253 0.704C103.085 0.704 103.853 0.842666 104.557 1.12C105.261 1.39733 105.859 1.80267 106.349 2.336L105.597 3.088C104.723 2.20267 103.619 1.76 102.285 1.76C101.4 1.76 100.595 1.96267 99.8694 2.368C99.144 2.77333 98.5734 3.328 98.1574 4.032C97.752 4.736 97.5494 5.52533 97.5494 6.4C97.5494 7.27467 97.752 8.064 98.1574 8.768C98.5734 9.472 99.144 10.0267 99.8694 10.432C100.595 10.8373 101.4 11.04 102.285 11.04C103.629 11.04 104.733 10.592 105.597 9.696L106.349 10.448C105.859 10.9813 105.256 11.392 104.541 11.68C103.837 11.9573 103.069 12.096 102.237 12.096ZM111.858 12.08C111.048 12.08 110.317 11.8987 109.666 11.536C109.016 11.1627 108.504 10.6507 108.13 10C107.757 9.34933 107.57 8.61333 107.57 7.792C107.57 6.97067 107.757 6.23467 108.13 5.584C108.504 4.93333 109.016 4.42667 109.666 4.064C110.317 3.70133 111.048 3.52 111.858 3.52C112.669 3.52 113.4 3.70133 114.05 4.064C114.701 4.42667 115.208 4.93333 115.57 5.584C115.944 6.23467 116.13 6.97067 116.13 7.792C116.13 8.61333 115.944 9.34933 115.57 10C115.208 10.6507 114.701 11.1627 114.05 11.536C113.4 11.8987 112.669 12.08 111.858 12.08ZM111.858 11.072C112.456 11.072 112.989 10.9387 113.458 10.672C113.938 10.3947 114.312 10.0053 114.578 9.504C114.845 9.00267 114.978 8.432 114.978 7.792C114.978 7.152 114.845 6.58133 114.578 6.08C114.312 5.57867 113.938 5.19467 113.458 4.928C112.989 4.65067 112.456 4.512 111.858 4.512C111.261 4.512 110.722 4.65067 110.242 4.928C109.773 5.19467 109.4 5.57867 109.122 6.08C108.856 6.58133 108.722 7.152 108.722 7.792C108.722 8.432 108.856 9.00267 109.122 9.504C109.4 10.0053 109.773 10.3947 110.242 10.672C110.722 10.9387 111.261 11.072 111.858 11.072ZM129.106 3.52C130.162 3.52 130.988 3.824 131.586 4.432C132.194 5.04 132.498 5.936 132.498 7.12V12H131.362V7.232C131.362 6.35733 131.148 5.69067 130.722 5.232C130.306 4.77333 129.714 4.544 128.946 4.544C128.071 4.544 127.383 4.816 126.882 5.36C126.38 5.89333 126.13 6.63467 126.13 7.584V12H124.994V7.232C124.994 6.35733 124.78 5.69067 124.354 5.232C123.938 4.77333 123.34 4.544 122.562 4.544C121.698 4.544 121.01 4.816 120.498 5.36C119.996 5.89333 119.746 6.63467 119.746 7.584V12H118.61V3.584H119.698V5.12C119.996 4.608 120.412 4.21333 120.946 3.936C121.479 3.65867 122.092 3.52 122.786 3.52C123.49 3.52 124.098 3.66933 124.61 3.968C125.132 4.26667 125.522 4.70933 125.778 5.296C126.087 4.74133 126.53 4.30933 127.106 4C127.692 3.68 128.359 3.52 129.106 3.52ZM140.074 3.52C140.864 3.52 141.578 3.70133 142.218 4.064C142.858 4.416 143.36 4.91733 143.722 5.568C144.085 6.21867 144.266 6.96 144.266 7.792C144.266 8.63467 144.085 9.38133 143.722 10.032C143.36 10.6827 142.858 11.1893 142.218 11.552C141.589 11.904 140.874 12.08 140.074 12.08C139.392 12.08 138.773 11.9413 138.218 11.664C137.674 11.376 137.226 10.96 136.874 10.416V15.104H135.738V3.584H136.826V5.248C137.168 4.69333 137.616 4.26667 138.17 3.968C138.736 3.66933 139.37 3.52 140.074 3.52ZM139.994 11.072C140.581 11.072 141.114 10.9387 141.594 10.672C142.074 10.3947 142.448 10.0053 142.714 9.504C142.992 9.00267 143.13 8.432 143.13 7.792C143.13 7.152 142.992 6.58667 142.714 6.096C142.448 5.59467 142.074 5.20533 141.594 4.928C141.114 4.65067 140.581 4.512 139.994 4.512C139.397 4.512 138.858 4.65067 138.378 4.928C137.909 5.20533 137.536 5.59467 137.258 6.096C136.992 6.58667 136.858 7.152 136.858 7.792C136.858 8.432 136.992 9.00267 137.258 9.504C137.536 10.0053 137.909 10.3947 138.378 10.672C138.858 10.9387 139.397 11.072 139.994 11.072ZM147.83 5.232C148.097 4.66667 148.491 4.24 149.014 3.952C149.547 3.664 150.203 3.52 150.982 3.52V4.624L150.71 4.608C149.825 4.608 149.131 4.88 148.63 5.424C148.129 5.968 147.878 6.73067 147.878 7.712V12H146.742V3.584H147.83V5.232ZM160.449 8.144H153.409C153.473 9.01867 153.809 9.728 154.417 10.272C155.025 10.8053 155.793 11.072 156.721 11.072C157.244 11.072 157.724 10.9813 158.161 10.8C158.598 10.608 158.977 10.3307 159.297 9.968L159.937 10.704C159.564 11.152 159.094 11.4933 158.529 11.728C157.974 11.9627 157.361 12.08 156.689 12.08C155.825 12.08 155.057 11.8987 154.385 11.536C153.724 11.1627 153.206 10.6507 152.833 10C152.46 9.34933 152.273 8.61333 152.273 7.792C152.273 6.97067 152.449 6.23467 152.801 5.584C153.164 4.93333 153.654 4.42667 154.273 4.064C154.902 3.70133 155.606 3.52 156.385 3.52C157.164 3.52 157.862 3.70133 158.481 4.064C159.1 4.42667 159.585 4.93333 159.937 5.584C160.289 6.224 160.465 6.96 160.465 7.792L160.449 8.144ZM156.385 4.496C155.574 4.496 154.892 4.75733 154.337 5.28C153.793 5.792 153.484 6.464 153.409 7.296H159.377C159.302 6.464 158.988 5.792 158.433 5.28C157.889 4.75733 157.206 4.496 156.385 4.496ZM165.193 12.08C164.51 12.08 163.854 11.984 163.225 11.792C162.606 11.5893 162.121 11.3387 161.769 11.04L162.281 10.144C162.633 10.4213 163.076 10.6507 163.609 10.832C164.142 11.0027 164.697 11.088 165.273 11.088C166.041 11.088 166.606 10.9707 166.969 10.736C167.342 10.4907 167.529 10.1493 167.529 9.712C167.529 9.40267 167.428 9.16267 167.225 8.992C167.022 8.81067 166.766 8.67733 166.457 8.592C166.148 8.496 165.737 8.40533 165.225 8.32C164.542 8.192 163.993 8.064 163.577 7.936C163.161 7.79733 162.804 7.568 162.505 7.248C162.217 6.928 162.073 6.48533 162.073 5.92C162.073 5.216 162.366 4.64 162.953 4.192C163.54 3.744 164.356 3.52 165.401 3.52C165.945 3.52 166.489 3.59467 167.033 3.744C167.577 3.88267 168.025 4.06933 168.377 4.304L167.881 5.216C167.188 4.736 166.361 4.496 165.401 4.496C164.676 4.496 164.126 4.624 163.753 4.88C163.39 5.136 163.209 5.472 163.209 5.888C163.209 6.208 163.31 6.464 163.513 6.656C163.726 6.848 163.988 6.992 164.297 7.088C164.606 7.17333 165.033 7.264 165.577 7.36C166.249 7.488 166.788 7.616 167.193 7.744C167.598 7.872 167.945 8.09067 168.233 8.4C168.521 8.70933 168.665 9.136 168.665 9.68C168.665 10.416 168.356 11.0027 167.737 11.44C167.129 11.8667 166.281 12.08 165.193 12.08ZM173.181 12.08C172.499 12.08 171.843 11.984 171.213 11.792C170.595 11.5893 170.109 11.3387 169.757 11.04L170.269 10.144C170.621 10.4213 171.064 10.6507 171.597 10.832C172.131 11.0027 172.685 11.088 173.261 11.088C174.029 11.088 174.595 10.9707 174.957 10.736C175.331 10.4907 175.517 10.1493 175.517 9.712C175.517 9.40267 175.416 9.16267 175.213 8.992C175.011 8.81067 174.755 8.67733 174.445 8.592C174.136 8.496 173.725 8.40533 173.213 8.32C172.531 8.192 171.981 8.064 171.565 7.936C171.149 7.79733 170.792 7.568 170.493 7.248C170.205 6.928 170.061 6.48533 170.061 5.92C170.061 5.216 170.355 4.64 170.941 4.192C171.528 3.744 172.344 3.52 173.389 3.52C173.933 3.52 174.477 3.59467 175.021 3.744C175.565 3.88267 176.013 4.06933 176.365 4.304L175.869 5.216C175.176 4.736 174.349 4.496 173.389 4.496C172.664 4.496 172.115 4.624 171.741 4.88C171.379 5.136 171.197 5.472 171.197 5.888C171.197 6.208 171.299 6.464 171.501 6.656C171.715 6.848 171.976 6.992 172.285 7.088C172.595 7.17333 173.021 7.264 173.565 7.36C174.237 7.488 174.776 7.616 175.181 7.744C175.587 7.872 175.933 8.09067 176.221 8.4C176.509 8.70933 176.653 9.136 176.653 9.68C176.653 10.416 176.344 11.0027 175.725 11.44C175.117 11.8667 174.269 12.08 173.181 12.08ZM182.353 12.08C181.543 12.08 180.812 11.8987 180.161 11.536C179.511 11.1627 178.999 10.6507 178.625 10C178.252 9.34933 178.065 8.61333 178.065 7.792C178.065 6.97067 178.252 6.23467 178.625 5.584C178.999 4.93333 179.511 4.42667 180.161 4.064C180.812 3.70133 181.543 3.52 182.353 3.52C183.164 3.52 183.895 3.70133 184.545 4.064C185.196 4.42667 185.703 4.93333 186.065 5.584C186.439 6.23467 186.625 6.97067 186.625 7.792C186.625 8.61333 186.439 9.34933 186.065 10C185.703 10.6507 185.196 11.1627 184.545 11.536C183.895 11.8987 183.164 12.08 182.353 12.08ZM182.353 11.072C182.951 11.072 183.484 10.9387 183.953 10.672C184.433 10.3947 184.807 10.0053 185.073 9.504C185.34 9.00267 185.473 8.432 185.473 7.792C185.473 7.152 185.34 6.58133 185.073 6.08C184.807 5.57867 184.433 5.19467 183.953 4.928C183.484 4.65067 182.951 4.512 182.353 4.512C181.756 4.512 181.217 4.65067 180.737 4.928C180.268 5.19467 179.895 5.57867 179.617 6.08C179.351 6.58133 179.217 7.152 179.217 7.792C179.217 8.432 179.351 9.00267 179.617 9.504C179.895 10.0053 180.268 10.3947 180.737 10.672C181.217 10.9387 181.756 11.072 182.353 11.072ZM190.193 5.232C190.459 4.66667 190.854 4.24 191.377 3.952C191.91 3.664 192.566 3.52 193.345 3.52V4.624L193.073 4.608C192.187 4.608 191.494 4.88 190.993 5.424C190.491 5.968 190.241 6.73067 190.241 7.712V12H189.105V3.584H190.193V5.232Z" fill="black" fill-opacity="0.9"/>
</svg>

