<?xml version="1.0" encoding="UTF-8" standalone="no"?>
<svg
   width="224"
   height="16"
   viewBox="0 0 224 16"
   fill="none"
   version="1.1"
   id="svg4"
   sodipodi:docname="logo.svg"
   inkscape:version="1.1 (c68e22c387, 2021-05-23)"
   xmlns:inkscape="http://www.inkscape.org/namespaces/inkscape"
   xmlns:sodipodi="http://sodipodi.sourceforge.net/DTD/sodipodi-0.dtd"
   xmlns="http://www.w3.org/2000/svg"
   xmlns:svg="http://www.w3.org/2000/svg">
  <defs
     id="defs8" />
  <sodipodi:namedview
     id="namedview6"
     pagecolor="#ffffff"
     bordercolor="#666666"
     borderopacity="1.0"
     inkscape:pageshadow="2"
     inkscape:pageopacity="0.0"
     inkscape:pagecheckerboard="0"
     showgrid="false"
     inkscape:zoom="3.0283505"
     inkscape:cx="63.070638"
     inkscape:cy="32.360851"
     inkscape:window-width="1920"
     inkscape:window-height="1007"
     inkscape:window-x="0"
     inkscape:window-y="0"
     inkscape:window-maximized="1"
     inkscape:current-layer="svg4" />
  <path
     d="m 33.454298,13.214638 c -0.90667,0 -1.78667,-0.112 -2.64,-0.336 -0.85333,-0.224 -1.546667,-0.5227 -2.08,-0.896 l 1.04,-2.3359997 c 0.50133,0.33067 1.08267,0.5973297 1.744,0.7999997 0.66133,0.20267 1.312,0.304 1.952,0.304 1.216,0 1.824,-0.304 1.824,-0.9119997 0,-0.32 -0.176,-0.55467 -0.528,-0.704 -0.34133,-0.16 -0.896,-0.32533 -1.664,-0.496 -0.84267,-0.18133 -1.54667,-0.37333 -2.112,-0.576 -0.56533,-0.21333 -1.05067,-0.54933 -1.456,-1.008 -0.405333,-0.45867 -0.608,-1.07733 -0.608,-1.856 0,-0.68267 0.186667,-1.296 0.56,-1.84 0.37333,-0.55467 0.928,-0.992 1.664,-1.312 0.74667,-0.320001 1.65867,-0.480001 2.736,-0.480001 0.736,0 1.46133,0.085334 2.176,0.256001 0.71467,0.16 1.344,0.4 1.888,0.72 l -0.976,2.352 c -1.06667,-0.576 -2.10133,-0.864 -3.104,-0.864 -0.62933,0 -1.088,0.096 -1.376,0.288 -0.288,0.18133 -0.432,0.42133 -0.432,0.72 0,0.29867 0.17067,0.52267 0.512,0.672 0.34133,0.14933 0.89067,0.304 1.648,0.464 0.85333,0.18133 1.55733,0.37867 2.112,0.592 0.56533,0.20267 1.05067,0.53333 1.456,0.992 0.416,0.448 0.624,1.06133 0.624,1.84 0,0.6719997 -0.18667,1.2799997 -0.56,1.8239997 -0.37333,0.544 -0.93333,0.9813 -1.68,1.312 -0.74667,0.32 -1.65333,0.48 -2.72,0.48 z m 8.8111,-8.9119997 h -3.44 v -2.512001 h 10.032 v 2.512001 h -3.424 v 8.6879997 h -3.168 z m 14.8738,6.5119997 h -4.736 l -0.88,2.176 h -3.232 l 4.944,-11.2000007 h 3.12 l 4.96,11.2000007 h -3.296 z m -0.928,-2.3359997 -1.44,-3.584 -1.44,3.584 z m 11.0581,1.5359997 h -1.728 v 2.976 h -3.168 V 1.7906373 h 5.12 c 1.0133,0 1.8933,0.170667 2.64,0.512001 0.7467,0.33067 1.3227,0.81067 1.728,1.44 0.4053,0.61867 0.608,1.34933 0.608,2.192 0,0.81067 -0.192,1.52 -0.576,2.128 -0.3733,0.59733 -0.912,1.06667 -1.616,1.408 l 2.416,3.5199997 h -3.392 z m 2,-4.0799997 c 0,-0.52267 -0.1653,-0.928 -0.496,-1.216 -0.3307,-0.288 -0.8213,-0.432 -1.472,-0.432 h -1.76 v 3.28 h 1.76 c 0.6507,0 1.1413,-0.13867 1.472,-0.416 0.3307,-0.288 0.496,-0.69333 0.496,-1.216 z m 12.6117,1.216 h 2.8001 v 4.6399997 c -0.64,0.4587 -1.376,0.8107 -2.2081,1.056 -0.832,0.2453 -1.664,0.368 -2.496,0.368 -1.1733,0 -2.2293,-0.2453 -3.168,-0.736 -0.9386,-0.5013 -1.6746,-1.1947 -2.208,-2.08 -0.5333,-0.8853297 -0.8,-1.8879997 -0.8,-3.0079997 0,-1.12 0.2667,-2.12267 0.8,-3.008 0.5334,-0.88533 1.2747,-1.57333 2.224,-2.064 0.9494,-0.501334 2.0214,-0.752001 3.216,-0.752001 1.0454,0 1.984,0.176 2.816,0.528001 0.832,0.352 1.5254,0.85867 2.08,1.52 l -2.016,1.824 c -0.7573,-0.832 -1.6639,-1.248 -2.72,-1.248 -0.96,0 -1.7333,0.29333 -2.32,0.88 -0.5866,0.576 -0.88,1.34933 -0.88,2.32 0,0.61867 0.1334,1.17333 0.4,1.664 0.2667,0.48 0.64,0.85867 1.12,1.1359997 0.48,0.26667 1.0294,0.4 1.648,0.4 0.608,0 1.1787,-0.12267 1.712,-0.368 z m 12.4725,3.6639997 h -4.736 l -0.88,2.176 h -3.232 l 4.944,-11.2000007 h 3.12 l 4.96,11.2000007 h -3.296 z m -0.928,-2.3359997 -1.44,-3.584 -1.44,3.584 z m 7.983702,-4.176 H 97.969198 V 1.7906373 H 108.0012 v 2.512001 h -3.424 v 8.6879997 h -3.168 z m 16.9242,6.2399997 v 2.448 h -8.992 V 1.7906373 h 8.784 v 2.448001 h -5.648 v 1.888 h 4.976 v 2.368 h -4.976 v 2.0479997 z m 12.3019,2.544 c -1.109,0 -2.112,-0.2453 -3.0076,-0.736 -0.8854,-0.4907 -1.584,-1.168 -2.096,-2.032 -0.5014,-0.8746697 -0.752,-1.8506697 -0.752,-2.9279997 0,-1.07733 0.2506,-2.048 0.752,-2.912 0.512,-0.87467 1.216,-1.55733 2.112,-2.048 0.8956,-0.490667 1.8986,-0.736 3.0076,-0.736 0.832,0 1.6,0.138666 2.304,0.416 0.704,0.27733 1.302,0.68267 1.792,1.216 l -0.752,0.752 c -0.874,-0.88533 -1.978,-1.328 -3.312,-1.328 -0.885,0 -1.69,0.20267 -2.4156,0.608 -0.7254,0.40533 -1.296,0.96 -1.712,1.664 -0.4054,0.704 -0.608,1.49333 -0.608,2.368 0,0.87467 0.2026,1.664 0.608,2.368 0.416,0.7039997 0.9866,1.2586997 1.712,1.6639997 0.7256,0.4053 1.5306,0.608 2.4156,0.608 1.344,0 2.448,-0.448 3.312,-1.344 l 0.752,0.752 c -0.49,0.5333 -1.093,0.944 -1.808,1.232 -0.704,0.2773 -1.472,0.416 -2.304,0.416 z m 9.621,-0.016 c -0.81,0 -1.541,-0.1813 -2.192,-0.544 -0.65,-0.3733 -1.162,-0.8853 -1.536,-1.536 -0.373,-0.65067 -0.56,-1.3866697 -0.56,-2.2079997 0,-0.82133 0.187,-1.55733 0.56,-2.208 0.374,-0.65067 0.886,-1.15733 1.536,-1.52 0.651,-0.36267 1.382,-0.544 2.192,-0.544 0.811,0 1.542,0.18133 2.192,0.544 0.651,0.36267 1.158,0.86933 1.52,1.52 0.374,0.65067 0.56,1.38667 0.56,2.208 0,0.82133 -0.186,1.5573297 -0.56,2.2079997 -0.362,0.6507 -0.869,1.1627 -1.52,1.536 -0.65,0.3627 -1.381,0.544 -2.192,0.544 z m 0,-1.008 c 0.598,0 1.131,-0.1333 1.6,-0.4 0.48,-0.2773 0.854,-0.6667 1.12,-1.168 0.267,-0.5013297 0.4,-1.0719997 0.4,-1.7119997 0,-0.64 -0.133,-1.21067 -0.4,-1.712 -0.266,-0.50133 -0.64,-0.88533 -1.12,-1.152 -0.469,-0.27733 -1.002,-0.416 -1.6,-0.416 -0.597,0 -1.136,0.13867 -1.616,0.416 -0.469,0.26667 -0.842,0.65067 -1.12,1.152 -0.266,0.50133 -0.4,1.072 -0.4,1.712 0,0.64 0.134,1.21067 0.4,1.7119997 0.278,0.5013 0.651,0.8907 1.12,1.168 0.48,0.2667 1.019,0.4 1.616,0.4 z m 17.248,-7.5519997 c 1.056,0 1.882,0.304 2.48,0.912 0.608,0.608 0.912,1.504 0.912,2.688 v 4.8799997 h -1.136 V 8.2226383 c 0,-0.87467 -0.214,-1.54133 -0.64,-2 -0.416,-0.45867 -1.008,-0.688 -1.776,-0.688 -0.875,0 -1.563,0.272 -2.064,0.816 -0.502,0.53333 -0.752,1.27467 -0.752,2.224 v 4.4159997 h -1.136 V 8.2226383 c 0,-0.87467 -0.214,-1.54133 -0.64,-2 -0.416,-0.45867 -1.014,-0.688 -1.792,-0.688 -0.864,0 -1.552,0.272 -2.064,0.816 -0.502,0.53333 -0.752,1.27467 -0.752,2.224 v 4.4159997 h -1.136 V 4.5746383 h 1.088 v 1.536 c 0.298,-0.512 0.714,-0.90667 1.248,-1.184 0.533,-0.27733 1.146,-0.416 1.84,-0.416 0.704,0 1.312,0.14933 1.824,0.448 0.522,0.29867 0.912,0.74133 1.168,1.328 0.309,-0.55467 0.752,-0.98667 1.328,-1.296 0.586,-0.32 1.253,-0.48 2,-0.48 z m 10.968,0 c 0.79,0 1.504,0.18133 2.144,0.544 0.64,0.352 1.142,0.85333 1.504,1.504 0.363,0.65067 0.544,1.392 0.544,2.224 0,0.84267 -0.181,1.5893297 -0.544,2.2399997 -0.362,0.6507 -0.864,1.1573 -1.504,1.52 -0.629,0.352 -1.344,0.528 -2.144,0.528 -0.682,0 -1.301,-0.1387 -1.856,-0.416 -0.544,-0.288 -0.992,-0.704 -1.344,-1.248 v 4.688 h -1.136 V 4.5746383 h 1.088 v 1.664 c 0.342,-0.55467 0.79,-0.98133 1.344,-1.28 0.566,-0.29867 1.2,-0.448 1.904,-0.448 z m -0.08,7.5519997 c 0.587,0 1.12,-0.1333 1.6,-0.4 0.48,-0.2773 0.854,-0.6667 1.12,-1.168 0.278,-0.5013297 0.416,-1.0719997 0.416,-1.7119997 0,-0.64 -0.138,-1.20533 -0.416,-1.696 -0.266,-0.50133 -0.64,-0.89067 -1.12,-1.168 -0.48,-0.27733 -1.013,-0.416 -1.6,-0.416 -0.597,0 -1.136,0.13867 -1.616,0.416 -0.469,0.27733 -0.842,0.66667 -1.12,1.168 -0.266,0.49067 -0.4,1.056 -0.4,1.696 0,0.64 0.134,1.21067 0.4,1.7119997 0.278,0.5013 0.651,0.8907 1.12,1.168 0.48,0.2667 1.019,0.4 1.616,0.4 z m 7.836,-5.8399997 c 0.267,-0.56533 0.661,-0.992 1.184,-1.28 0.533,-0.288 1.189,-0.432 1.968,-0.432 v 1.104 l -0.272,-0.016 c -0.885,0 -1.579,0.272 -2.08,0.816 -0.501,0.544 -0.752,1.30667 -0.752,2.288 v 4.2879997 h -1.136 V 4.5746383 h 1.088 z m 12.619,2.912 h -7.04 c 0.064,0.8746697 0.4,1.5839997 1.008,2.1279997 0.608,0.5333 1.376,0.8 2.304,0.8 0.523,0 1.003,-0.0907 1.44,-0.272 0.437,-0.192 0.816,-0.4693 1.136,-0.832 l 0.64,0.736 c -0.373,0.448 -0.843,0.7893 -1.408,1.024 -0.555,0.2347 -1.168,0.352 -1.84,0.352 -0.864,0 -1.632,-0.1813 -2.304,-0.544 -0.661,-0.3733 -1.179,-0.8853 -1.552,-1.536 -0.373,-0.65067 -0.56,-1.3866697 -0.56,-2.2079997 0,-0.82133 0.176,-1.55733 0.528,-2.208 0.363,-0.65067 0.853,-1.15733 1.472,-1.52 0.629,-0.36267 1.333,-0.544 2.112,-0.544 0.779,0 1.477,0.18133 2.096,0.544 0.619,0.36267 1.104,0.86933 1.456,1.52 0.352,0.64 0.528,1.376 0.528,2.208 z m -4.064,-3.648 c -0.811,0 -1.493,0.26133 -2.048,0.784 -0.544,0.512 -0.853,1.184 -0.928,2.016 h 5.968 c -0.075,-0.832 -0.389,-1.504 -0.944,-2.016 -0.544,-0.52267 -1.227,-0.784 -2.048,-0.784 z m 8.808,7.5839997 c -0.683,0 -1.339,-0.096 -1.968,-0.288 -0.619,-0.2027 -1.104,-0.4533 -1.456,-0.752 l 0.512,-0.896 c 0.352,0.2773 0.795,0.5067 1.328,0.688 0.533,0.1707 1.088,0.256 1.664,0.256 0.768,0 1.333,-0.1173 1.696,-0.352 0.373,-0.2453 0.56,-0.5867 0.56,-1.024 0,-0.30933 -0.101,-0.54933 -0.304,-0.7199997 -0.203,-0.18133 -0.459,-0.31467 -0.768,-0.4 -0.309,-0.096 -0.72,-0.18667 -1.232,-0.272 -0.683,-0.128 -1.232,-0.256 -1.648,-0.384 -0.416,-0.13867 -0.773,-0.368 -1.072,-0.688 -0.288,-0.32 -0.432,-0.76267 -0.432,-1.328 0,-0.704 0.293,-1.28 0.88,-1.728 0.587,-0.448 1.403,-0.672 2.448,-0.672 0.544,0 1.088,0.07467 1.632,0.224 0.544,0.13867 0.992,0.32533 1.344,0.56 l -0.496,0.912 c -0.693,-0.48 -1.52,-0.72 -2.48,-0.72 -0.725,0 -1.275,0.128 -1.648,0.384 -0.363,0.256 -0.544,0.592 -0.544,1.008 0,0.32 0.101,0.576 0.304,0.768 0.213,0.192 0.475,0.336 0.784,0.432 0.309,0.08533 0.736,0.176 1.28,0.272 0.672,0.128 1.211,0.256 1.616,0.384 0.405,0.128 0.752,0.34667 1.04,0.656 0.288,0.30933 0.432,0.7359997 0.432,1.2799997 0,0.736 -0.309,1.3227 -0.928,1.76 -0.608,0.4267 -1.456,0.64 -2.544,0.64 z m 7.988,0 c -0.682,0 -1.338,-0.096 -1.968,-0.288 -0.618,-0.2027 -1.104,-0.4533 -1.456,-0.752 l 0.512,-0.896 c 0.352,0.2773 0.795,0.5067 1.328,0.688 0.534,0.1707 1.088,0.256 1.664,0.256 0.768,0 1.334,-0.1173 1.696,-0.352 0.374,-0.2453 0.56,-0.5867 0.56,-1.024 0,-0.30933 -0.101,-0.54933 -0.304,-0.7199997 -0.202,-0.18133 -0.458,-0.31467 -0.768,-0.4 -0.309,-0.096 -0.72,-0.18667 -1.232,-0.272 -0.682,-0.128 -1.232,-0.256 -1.648,-0.384 -0.416,-0.13867 -0.773,-0.368 -1.072,-0.688 -0.288,-0.32 -0.432,-0.76267 -0.432,-1.328 0,-0.704 0.294,-1.28 0.88,-1.728 0.587,-0.448 1.403,-0.672 2.448,-0.672 0.544,0 1.088,0.07467 1.632,0.224 0.544,0.13867 0.992,0.32533 1.344,0.56 l -0.496,0.912 c -0.693,-0.48 -1.52,-0.72 -2.48,-0.72 -0.725,0 -1.274,0.128 -1.648,0.384 -0.362,0.256 -0.544,0.592 -0.544,1.008 0,0.32 0.102,0.576 0.304,0.768 0.214,0.192 0.475,0.336 0.784,0.432 0.31,0.08533 0.736,0.176 1.28,0.272 0.672,0.128 1.211,0.256 1.616,0.384 0.406,0.128 0.752,0.34667 1.04,0.656 0.288,0.30933 0.432,0.7359997 0.432,1.2799997 0,0.736 -0.309,1.3227 -0.928,1.76 -0.608,0.4267 -1.456,0.64 -2.544,0.64 z m 9.172,0 c -0.81,0 -1.541,-0.1813 -2.192,-0.544 -0.65,-0.3733 -1.162,-0.8853 -1.536,-1.536 -0.373,-0.65067 -0.56,-1.3866697 -0.56,-2.2079997 0,-0.82133 0.187,-1.55733 0.56,-2.208 0.374,-0.65067 0.886,-1.15733 1.536,-1.52 0.651,-0.36267 1.382,-0.544 2.192,-0.544 0.811,0 1.542,0.18133 2.192,0.544 0.651,0.36267 1.158,0.86933 1.52,1.52 0.374,0.65067 0.56,1.38667 0.56,2.208 0,0.82133 -0.186,1.5573297 -0.56,2.2079997 -0.362,0.6507 -0.869,1.1627 -1.52,1.536 -0.65,0.3627 -1.381,0.544 -2.192,0.544 z m 0,-1.008 c 0.598,0 1.131,-0.1333 1.6,-0.4 0.48,-0.2773 0.854,-0.6667 1.12,-1.168 0.267,-0.5013297 0.4,-1.0719997 0.4,-1.7119997 0,-0.64 -0.133,-1.21067 -0.4,-1.712 -0.266,-0.50133 -0.64,-0.88533 -1.12,-1.152 -0.469,-0.27733 -1.002,-0.416 -1.6,-0.416 -0.597,0 -1.136,0.13867 -1.616,0.416 -0.469,0.26667 -0.842,0.65067 -1.12,1.152 -0.266,0.50133 -0.4,1.072 -0.4,1.712 0,0.64 0.134,1.21067 0.4,1.7119997 0.278,0.5013 0.651,0.8907 1.12,1.168 0.48,0.2667 1.019,0.4 1.616,0.4 z m 7.84,-5.8399997 c 0.266,-0.56533 0.661,-0.992 1.184,-1.28 0.533,-0.288 1.189,-0.432 1.968,-0.432 v 1.104 l -0.272,-0.016 c -0.886,0 -1.579,0.272 -2.08,0.816 -0.502,0.544 -0.752,1.30667 -0.752,2.288 v 4.2879997 h -1.136 V 4.5746383 h 1.088 z"
     fill="#000000"
     fill-opacity="0.9"
     id="path2" />
</svg>
