<svg width="301" height="27" viewBox="0 0 301 27" fill="none" xmlns="http://www.w3.org/2000/svg">
<path d="M8.72646 21.3866C7.16159 21.3866 5.64274 21.1933 4.16992 20.8067C2.6971 20.4201 1.50044 19.9046 0.579923 19.2602L2.37492 15.2284C3.2402 15.7991 4.24356 16.2594 5.385 16.6092C6.52643 16.9589 7.64946 17.1338 8.75407 17.1338C10.8528 17.1338 11.9022 16.6092 11.9022 15.5598C11.9022 15.0075 11.5985 14.6024 10.9909 14.3447C10.4018 14.0685 9.44446 13.7832 8.11892 13.4886C6.66451 13.1756 5.44943 12.8443 4.47369 12.4945C3.49795 12.1263 2.66028 11.5463 1.96069 10.7547C1.2611 9.96305 0.911307 8.89526 0.911307 7.55131C0.911307 6.37305 1.23349 5.31447 1.87785 4.37554C2.5222 3.41821 3.47954 2.66339 4.74985 2.11108C6.03856 1.55877 7.61264 1.28262 9.47208 1.28262C10.7424 1.28262 11.9943 1.4299 13.2278 1.72447C14.4613 2.00062 15.5475 2.41485 16.4864 2.96716L14.8018 7.02662C12.9608 6.03247 11.175 5.53539 9.44446 5.53539C8.35825 5.53539 7.56661 5.70108 7.06954 6.03246C6.57246 6.34544 6.32392 6.75967 6.32392 7.27516C6.32392 7.79064 6.61849 8.17726 7.20761 8.435C7.79674 8.69275 8.74487 8.95969 10.052 9.23585C11.5248 9.54882 12.7399 9.88941 13.6972 10.2576C14.673 10.6074 15.5106 11.1781 16.2102 11.9698C16.9282 12.743 17.2872 13.8016 17.2872 15.1455C17.2872 16.3054 16.965 17.3548 16.3207 18.2937C15.6763 19.2326 14.7098 19.9874 13.4211 20.5582C12.1324 21.1105 10.5675 21.3866 8.72646 21.3866ZM23.9341 6.00485H17.9968V1.66923H35.3117V6.00485H29.402V21H23.9341V6.00485ZM49.6056 17.2443H41.4315L39.9126 21H34.3343L42.8675 1.66923H48.2525L56.8132 21H51.1245L49.6056 17.2443ZM48.0039 13.2125L45.5186 7.02662L43.0332 13.2125H48.0039ZM67.0898 15.8635H64.1074V21H58.6395V1.66923H67.4764C69.2254 1.66923 70.7443 1.9638 72.033 2.55293C73.3217 3.12364 74.3159 3.95211 75.0154 5.03831C75.715 6.10611 76.0648 7.36721 76.0648 8.82162C76.0648 10.2208 75.7334 11.4451 75.0707 12.4945C74.4263 13.5254 73.4966 14.3355 72.2815 14.9246L76.4514 21H70.597L67.0898 15.8635ZM70.5418 8.82162C70.5418 7.91952 70.2564 7.21993 69.6857 6.72285C69.115 6.22577 68.2681 5.97723 67.1451 5.97723H64.1074V11.6384H67.1451C68.2681 11.6384 69.115 11.3991 69.6857 10.9204C70.2564 10.4233 70.5418 9.72372 70.5418 8.82162ZM92.3092 10.9204H97.1418V18.9288C96.0372 19.7205 94.7669 20.328 93.3309 20.7515C91.8949 21.1749 90.4589 21.3866 89.0229 21.3866C86.9978 21.3866 85.1752 20.9632 83.5551 20.1163C81.935 19.251 80.6647 18.0544 79.7442 16.5263C78.8236 14.9983 78.3634 13.2677 78.3634 11.3346C78.3634 9.40154 78.8236 7.67098 79.7442 6.14293C80.6647 4.61487 81.9442 3.42741 83.5827 2.58054C85.2212 1.71526 87.0714 1.28262 89.1334 1.28262C90.9376 1.28262 92.5577 1.58639 93.9937 2.19393C95.4297 2.80147 96.6264 3.67595 97.5837 4.81739L94.1042 7.96554C92.797 6.52954 91.2322 5.81154 89.4095 5.81154C87.7526 5.81154 86.4179 6.31782 85.4053 7.33039C84.3927 8.32454 83.8865 9.65928 83.8865 11.3346C83.8865 12.4024 84.1166 13.3597 84.5768 14.2066C85.0371 15.0351 85.6815 15.6886 86.5099 16.1673C87.3384 16.6276 88.2865 16.8577 89.3543 16.8577C90.4037 16.8577 91.3886 16.646 92.3092 16.2225V10.9204ZM113.836 17.2443H105.662L104.143 21H98.5649L107.098 1.66923H112.483L121.044 21H115.355L113.836 17.2443ZM112.235 13.2125L109.749 7.02662L107.264 13.2125H112.235ZM126.014 6.00485H120.077V1.66923H137.391V6.00485H131.482V21H126.014V6.00485ZM155.225 16.7748V21H139.705V1.66923H154.866V5.89439H145.117V9.153H153.706V13.2401H145.117V16.7748H155.225ZM171.818 3.43662H165.025V1.66923H180.655V3.43662H173.862V21H171.818V3.43662ZM185.282 9.3187C185.742 8.34295 186.424 7.60654 187.326 7.10946C188.246 6.61239 189.378 6.36385 190.722 6.36385V8.26931L190.253 8.2417C188.725 8.2417 187.528 8.71116 186.663 9.65008C185.798 10.589 185.365 11.9053 185.365 13.5991V21H183.404V6.47431H185.282V9.3187ZM194.549 6.47431H196.509V21H194.549V6.47431ZM195.543 3.29854C195.138 3.29854 194.797 3.16047 194.521 2.88431C194.245 2.60816 194.107 2.27677 194.107 1.89016C194.107 1.52195 194.245 1.19977 194.521 0.923619C194.797 0.647466 195.138 0.509389 195.543 0.509389C195.948 0.509389 196.288 0.647466 196.565 0.923619C196.841 1.18136 196.979 1.49434 196.979 1.86254C196.979 2.26757 196.841 2.60816 196.565 2.88431C196.288 3.16047 195.948 3.29854 195.543 3.29854ZM215.69 6.47431V19.2326C215.69 21.6996 215.082 23.5222 213.867 24.7005C212.67 25.8971 210.857 26.4955 208.427 26.4955C207.083 26.4955 205.803 26.2929 204.588 25.8879C203.392 25.5013 202.416 24.9582 201.661 24.2586L202.655 22.7674C203.355 23.3933 204.202 23.8812 205.196 24.231C206.208 24.5808 207.267 24.7557 208.372 24.7557C210.213 24.7557 211.566 24.3231 212.431 23.4578C213.296 22.6109 213.729 21.2854 213.729 19.4812V17.6309C213.121 18.5514 212.321 19.251 211.326 19.7297C210.351 20.2084 209.265 20.4477 208.068 20.4477C206.705 20.4477 205.463 20.1531 204.34 19.564C203.235 18.9565 202.361 18.1188 201.716 17.051C201.09 15.9648 200.777 14.7405 200.777 13.3782C200.777 12.0158 201.09 10.8007 201.716 9.73293C202.361 8.66513 203.235 7.83667 204.34 7.24754C205.444 6.65841 206.687 6.36385 208.068 6.36385C209.301 6.36385 210.415 6.61239 211.409 7.10946C212.403 7.60654 213.204 8.32454 213.812 9.26346V6.47431H215.69ZM208.261 18.7079C209.311 18.7079 210.259 18.487 211.106 18.0452C211.952 17.5849 212.606 16.9497 213.066 16.1397C213.545 15.3296 213.784 14.4091 213.784 13.3782C213.784 12.3472 213.545 11.4359 213.066 10.6442C212.606 9.83418 211.952 9.20823 211.106 8.76639C210.277 8.30613 209.329 8.076 208.261 8.076C207.212 8.076 206.264 8.29693 205.417 8.73877C204.588 9.18062 203.935 9.80657 203.456 10.6166C202.996 11.4267 202.766 12.3472 202.766 13.3782C202.766 14.4091 202.996 15.3296 203.456 16.1397C203.935 16.9497 204.588 17.5849 205.417 18.0452C206.264 18.487 207.212 18.7079 208.261 18.7079ZM234.897 6.47431V19.2326C234.897 21.6996 234.29 23.5222 233.075 24.7005C231.878 25.8971 230.065 26.4955 227.635 26.4955C226.291 26.4955 225.011 26.2929 223.796 25.8879C222.599 25.5013 221.624 24.9582 220.869 24.2586L221.863 22.7674C222.563 23.3933 223.409 23.8812 224.404 24.231C225.416 24.5808 226.475 24.7557 227.579 24.7557C229.42 24.7557 230.774 24.3231 231.639 23.4578C232.504 22.6109 232.937 21.2854 232.937 19.4812V17.6309C232.329 18.5514 231.528 19.251 230.534 19.7297C229.559 20.2084 228.472 20.4477 227.276 20.4477C225.913 20.4477 224.671 20.1531 223.548 19.564C222.443 18.9565 221.568 18.1188 220.924 17.051C220.298 15.9648 219.985 14.7405 219.985 13.3782C219.985 12.0158 220.298 10.8007 220.924 9.73293C221.568 8.66513 222.443 7.83667 223.548 7.24754C224.652 6.65841 225.895 6.36385 227.276 6.36385C228.509 6.36385 229.623 6.61239 230.617 7.10946C231.611 7.60654 232.412 8.32454 233.02 9.26346V6.47431H234.897ZM227.469 18.7079C228.518 18.7079 229.466 18.487 230.313 18.0452C231.16 17.5849 231.814 16.9497 232.274 16.1397C232.753 15.3296 232.992 14.4091 232.992 13.3782C232.992 12.3472 232.753 11.4359 232.274 10.6442C231.814 9.83418 231.16 9.20823 230.313 8.76639C229.485 8.30613 228.537 8.076 227.469 8.076C226.42 8.076 225.471 8.29693 224.625 8.73877C223.796 9.18062 223.143 9.80657 222.664 10.6166C222.204 11.4267 221.973 12.3472 221.973 13.3782C221.973 14.4091 222.204 15.3296 222.664 16.1397C223.143 16.9497 223.796 17.5849 224.625 18.0452C225.471 18.487 226.42 18.7079 227.469 18.7079ZM253.304 14.3447H241.154C241.264 15.8543 241.844 17.0786 242.893 18.0175C243.943 18.9381 245.268 19.3983 246.87 19.3983C247.772 19.3983 248.601 19.2418 249.355 18.9288C250.11 18.5975 250.764 18.1188 251.316 17.4928L252.421 18.7632C251.776 19.5364 250.966 20.1255 249.991 20.5305C249.033 20.9356 247.975 21.1381 246.815 21.1381C245.324 21.1381 243.998 20.8251 242.838 20.1992C241.697 19.5548 240.804 18.6711 240.159 17.5481C239.515 16.4251 239.193 15.1547 239.193 13.7372C239.193 12.3196 239.497 11.0493 240.104 9.92623C240.73 8.80321 241.577 7.92872 242.645 7.30277C243.731 6.67682 244.946 6.36385 246.29 6.36385C247.634 6.36385 248.84 6.67682 249.908 7.30277C250.976 7.92872 251.813 8.80321 252.421 9.92623C253.028 11.0308 253.332 12.3012 253.332 13.7372L253.304 14.3447ZM246.29 8.04839C244.891 8.04839 243.713 8.49944 242.755 9.40154C241.816 10.2852 241.283 11.4451 241.154 12.8811H251.454C251.325 11.4451 250.782 10.2852 249.825 9.40154C248.886 8.49944 247.708 8.04839 246.29 8.04839ZM259.477 9.3187C259.937 8.34295 260.618 7.60654 261.52 7.10946C262.441 6.61239 263.573 6.36385 264.917 6.36385V8.26931L264.448 8.2417C262.92 8.2417 261.723 8.71116 260.858 9.65008C259.992 10.589 259.56 11.9053 259.56 13.5991V21H257.599V6.47431H259.477V9.3187ZM271.012 3.43662V11.0308H281.009V12.7982H271.012V21H268.969V1.66923H282.224V3.43662H271.012ZM298.358 21L292.117 12.4945L285.903 21H283.556L290.902 11.0585L284.026 1.66923H286.373L292.2 9.56723L297.999 1.66923H300.208L293.36 11.0032L300.733 21H298.358Z" fill="black"/>
</svg>

